%FSLAX43Y43*%
%MOMM*%
G71*
G01*
G75*
%ADD10C,0.600*%
%ADD11C,0.400*%
%ADD12C,0.800*%
%ADD13C,0.230*%
%ADD14C,0.254*%
%ADD15C,0.050*%
%ADD16C,1.500*%
%ADD17R,1.500X1.500*%
%ADD18R,1.500X1.500*%
%ADD19R,1.700X1.700*%
%ADD20C,1.700*%
%ADD21C,1.524*%
%ADD22C,1.800*%
%ADD23C,2.230*%
%ADD24C,3.300*%
%ADD25C,1.620*%
%ADD26C,3.800*%
%ADD27C,1.600*%
%ADD28R,1.600X1.600*%
%ADD29C,1.500*%
%ADD30R,1.500X1.500*%
%ADD31R,1.500X1.500*%
%ADD32C,1.200*%
%ADD33C,2.500*%
%ADD34C,2.100*%
%ADD35R,2.000X2.000*%
%ADD36C,2.000*%
%ADD37C,1.400*%
%ADD38C,0.800*%
%ADD39C,0.500*%
%ADD40C,1.000*%
%ADD41C,0.100*%
%ADD42C,0.250*%
%ADD43C,0.200*%
%ADD44C,0.127*%
%ADD45C,0.150*%
%ADD46C,0.203*%
%ADD47R,0.500X2.000*%
%ADD48R,2.000X0.800*%
%ADD49R,1.900X0.800*%
%ADD50C,1.703*%
%ADD51R,1.703X1.703*%
%ADD52R,1.703X1.703*%
%ADD53R,1.903X1.903*%
%ADD54C,1.903*%
%ADD55C,1.727*%
%ADD56C,2.003*%
%ADD57C,2.433*%
%ADD58C,3.503*%
%ADD59C,1.823*%
%ADD60R,0.203X0.203*%
%ADD61C,4.003*%
%ADD62C,1.803*%
%ADD63R,1.803X1.803*%
%ADD64C,0.203*%
%ADD65C,1.703*%
%ADD66R,1.703X1.703*%
%ADD67R,1.703X1.703*%
%ADD68C,1.403*%
%ADD69C,2.703*%
%ADD70C,2.303*%
%ADD71R,2.203X2.203*%
%ADD72C,2.203*%
%ADD73C,1.603*%
%ADD74C,1.003*%
%ADD75C,0.020*%
%ADD76C,0.030*%
%ADD77C,0.480*%
%ADD78C,0.300*%
D15*
X500Y0D02*
G03*
X500Y0I-500J0D01*
G01*
X-1500Y-4000D02*
X118500D01*
Y96000D01*
X-1500D02*
X118500D01*
X-1500Y-4000D02*
Y96000D01*
D44*
X73972Y35433D02*
X74872D01*
X74422Y34983D02*
Y35883D01*
X76512Y35433D02*
X77412D01*
X76962Y34983D02*
Y35883D01*
X79052Y35433D02*
X79952D01*
X79502Y34983D02*
Y35883D01*
X81592Y35433D02*
X82492D01*
X82042Y34983D02*
Y35883D01*
X24442Y57277D02*
X25342D01*
X24892Y56827D02*
Y57727D01*
X24442Y54737D02*
X25342D01*
X24892Y54287D02*
Y55187D01*
X24442Y52197D02*
X25342D01*
X24892Y51747D02*
Y52647D01*
X28125Y54737D02*
X29025D01*
X28575Y54287D02*
Y55187D01*
X28125Y57277D02*
X29025D01*
X28575Y56827D02*
Y57727D01*
X115247Y21336D02*
X116147D01*
X115697Y20886D02*
Y21786D01*
X115247Y18796D02*
X116147D01*
X115697Y18346D02*
Y19246D01*
X1050Y59227D02*
X2150D01*
X1600Y58677D02*
Y59777D01*
X1050Y61767D02*
X2150D01*
X1600Y61217D02*
Y62317D01*
X1050Y64307D02*
X2150D01*
X1600Y63757D02*
Y64857D01*
X1050Y43307D02*
X2150D01*
X1600Y42757D02*
Y43857D01*
X1050Y40767D02*
X2150D01*
X1600Y40217D02*
Y41317D01*
X1050Y38227D02*
X2150D01*
X1600Y37677D02*
Y38777D01*
X14732Y21209D02*
X15494D01*
X15113Y20828D02*
Y21590D01*
X14732Y26289D02*
X15494D01*
X15113Y25908D02*
Y26670D01*
X9652Y26289D02*
X10414D01*
X10033Y25908D02*
Y26670D01*
X9652Y21209D02*
X10414D01*
X10033Y20828D02*
Y21590D01*
X1074Y73025D02*
X1974D01*
X1524Y72575D02*
Y73475D01*
X3614Y73025D02*
X4514D01*
X4064Y72575D02*
Y73475D01*
X49284Y93472D02*
X50284D01*
X49784Y92972D02*
Y93972D01*
X46744Y88392D02*
X47744D01*
X47244Y87892D02*
Y88892D01*
X51824Y88392D02*
X52824D01*
X52324Y87892D02*
Y88892D01*
X13724Y88392D02*
X14724D01*
X14224Y87892D02*
Y88892D01*
X8644Y88392D02*
X9644D01*
X9144Y87892D02*
Y88892D01*
X11184Y93472D02*
X12184D01*
X11684Y92972D02*
Y93972D01*
X115530Y5800D02*
X117130D01*
X116330Y5000D02*
Y6600D01*
X99780Y5800D02*
X101380D01*
X100580Y5000D02*
Y6600D01*
X112450Y11390D02*
X113350D01*
X112900Y10940D02*
Y11840D01*
X104830Y11390D02*
X105730D01*
X105280Y10940D02*
Y11840D01*
X103560Y8850D02*
X104460D01*
X104010Y8400D02*
Y9300D01*
X111180Y8850D02*
X112080D01*
X111630Y8400D02*
Y9300D01*
X109910Y11390D02*
X110810D01*
X110360Y10940D02*
Y11840D01*
X107370Y11390D02*
X108270D01*
X107820Y10940D02*
Y11840D01*
X108640Y8850D02*
X109540D01*
X109090Y8400D02*
Y9300D01*
X106100Y8850D02*
X107000D01*
X106550Y8400D02*
Y9300D01*
X101090Y2500D02*
X104390D01*
X102740Y850D02*
Y4150D01*
X112520Y2500D02*
X115820D01*
X114170Y850D02*
Y4150D01*
X101330Y-1560D02*
X102330D01*
X101830Y-2060D02*
Y-1060D01*
X103870Y-1560D02*
X104870D01*
X104370Y-2060D02*
Y-1060D01*
X112040Y-1560D02*
X113040D01*
X112540Y-2060D02*
Y-1060D01*
X114580Y-1560D02*
X115580D01*
X115080Y-2060D02*
Y-1060D01*
X9212Y15233D02*
X10112D01*
X9662Y14783D02*
Y15683D01*
X11752Y15233D02*
X12652D01*
X12202Y14783D02*
Y15683D01*
X-500Y0D02*
X500D01*
X0Y-500D02*
Y500D01*
X1175Y6363D02*
X3475D01*
X2325Y5213D02*
Y7513D01*
X6635Y9073D02*
X7555D01*
X7095Y8613D02*
Y9533D01*
X9135Y9073D02*
X10055D01*
X9595Y8613D02*
Y9533D01*
X6635Y11073D02*
X7555D01*
X7095Y10613D02*
Y11533D01*
X9135Y11073D02*
X10055D01*
X9595Y10613D02*
Y11533D01*
X13215Y6363D02*
X15515D01*
X14365Y5213D02*
Y7513D01*
X2908Y16383D02*
X5908D01*
X4408Y14883D02*
Y17883D01*
X93522Y16383D02*
X96522D01*
X95022Y14883D02*
Y17883D01*
X1500Y80000D02*
X4500D01*
X3000Y78500D02*
Y81500D01*
X113000Y80000D02*
X116000D01*
X114500Y78500D02*
Y81500D01*
X69744Y3463D02*
X70644D01*
X70194Y3013D02*
Y3913D01*
X67204Y3463D02*
X68104D01*
X67654Y3013D02*
Y3913D01*
X64664Y3463D02*
X65564D01*
X65114Y3013D02*
Y3913D01*
X23516Y3463D02*
X24416D01*
X23966Y3013D02*
Y3913D01*
X26056Y3463D02*
X26956D01*
X26506Y3013D02*
Y3913D01*
X28596Y3463D02*
X29496D01*
X29046Y3013D02*
Y3913D01*
X49170Y3717D02*
X50070D01*
X49620Y3267D02*
Y4167D01*
X46630Y3717D02*
X47530D01*
X47080Y3267D02*
Y4167D01*
X44090Y3717D02*
X44990D01*
X44540Y3267D02*
Y4167D01*
X85238Y3336D02*
X86138D01*
X85688Y2886D02*
Y3786D01*
X87778Y3336D02*
X88678D01*
X88228Y2886D02*
Y3786D01*
X90318Y3336D02*
X91218D01*
X90768Y2886D02*
Y3786D01*
X-69Y21209D02*
X831D01*
X381Y20759D02*
Y21659D01*
X-69Y23749D02*
X831D01*
X381Y23299D02*
Y24199D01*
X11588Y81407D02*
X12288D01*
X11938Y81057D02*
Y81757D01*
X9048Y81407D02*
X9748D01*
X9398Y81057D02*
Y81757D01*
X6508Y81407D02*
X7208D01*
X6858Y81057D02*
Y81757D01*
X110630Y92270D02*
X111530D01*
X111080Y91820D02*
Y92720D01*
X110630Y89730D02*
X111530D01*
X111080Y89280D02*
Y90180D01*
X108090Y92270D02*
X108990D01*
X108540Y91820D02*
Y92720D01*
X108090Y89730D02*
X108990D01*
X108540Y89280D02*
Y90180D01*
X105550Y92270D02*
X106450D01*
X106000Y91820D02*
Y92720D01*
X105550Y89730D02*
X106450D01*
X106000Y89280D02*
Y90180D01*
X103010Y92270D02*
X103910D01*
X103460Y91820D02*
Y92720D01*
X103010Y89730D02*
X103910D01*
X103460Y89280D02*
Y90180D01*
X100470Y92270D02*
X101370D01*
X100920Y91820D02*
Y92720D01*
X100470Y89730D02*
X101370D01*
X100920Y89280D02*
Y90180D01*
X90130Y92270D02*
X91030D01*
X90580Y91820D02*
Y92720D01*
X90130Y89730D02*
X91030D01*
X90580Y89280D02*
Y90180D01*
X87590Y92270D02*
X88490D01*
X88040Y91820D02*
Y92720D01*
X87590Y89730D02*
X88490D01*
X88040Y89280D02*
Y90180D01*
X85050Y92270D02*
X85950D01*
X85500Y91820D02*
Y92720D01*
X85050Y89730D02*
X85950D01*
X85500Y89280D02*
Y90180D01*
X82510Y92270D02*
X83410D01*
X82960Y91820D02*
Y92720D01*
X82510Y89730D02*
X83410D01*
X82960Y89280D02*
Y90180D01*
X79970Y92270D02*
X80870D01*
X80420Y91820D02*
Y92720D01*
X79970Y89730D02*
X80870D01*
X80420Y89280D02*
Y90180D01*
X77230Y81270D02*
X78130D01*
X77680Y80820D02*
Y81720D01*
X77230Y78730D02*
X78130D01*
X77680Y78280D02*
Y79180D01*
X74690Y81270D02*
X75590D01*
X75140Y80820D02*
Y81720D01*
X74690Y78730D02*
X75590D01*
X75140Y78280D02*
Y79180D01*
X72150Y81270D02*
X73050D01*
X72600Y80820D02*
Y81720D01*
X72150Y78730D02*
X73050D01*
X72600Y78280D02*
Y79180D01*
X69610Y81270D02*
X70510D01*
X70060Y80820D02*
Y81720D01*
X69610Y78730D02*
X70510D01*
X70060Y78280D02*
Y79180D01*
X67070Y81270D02*
X67970D01*
X67520Y80820D02*
Y81720D01*
X67070Y78730D02*
X67970D01*
X67520Y78280D02*
Y79180D01*
X69630Y92270D02*
X70530D01*
X70080Y91820D02*
Y92720D01*
X69630Y89730D02*
X70530D01*
X70080Y89280D02*
Y90180D01*
X67090Y92270D02*
X67990D01*
X67540Y91820D02*
Y92720D01*
X67090Y89730D02*
X67990D01*
X67540Y89280D02*
Y90180D01*
X64550Y92270D02*
X65450D01*
X65000Y91820D02*
Y92720D01*
X64550Y89730D02*
X65450D01*
X65000Y89280D02*
Y90180D01*
X62010Y92270D02*
X62910D01*
X62460Y91820D02*
Y92720D01*
X62010Y89730D02*
X62910D01*
X62460Y89280D02*
Y90180D01*
X59470Y92270D02*
X60370D01*
X59920Y91820D02*
Y92720D01*
X59470Y89730D02*
X60370D01*
X59920Y89280D02*
Y90180D01*
X39440Y82931D02*
X40340D01*
X39890Y82481D02*
Y83381D01*
X39440Y80391D02*
X40340D01*
X39890Y79941D02*
Y80841D01*
X36900Y82931D02*
X37800D01*
X37350Y82481D02*
Y83381D01*
X36900Y80391D02*
X37800D01*
X37350Y79941D02*
Y80841D01*
X34360Y82931D02*
X35260D01*
X34810Y82481D02*
Y83381D01*
X34360Y80391D02*
X35260D01*
X34810Y79941D02*
Y80841D01*
X31820Y82931D02*
X32720D01*
X32270Y82481D02*
Y83381D01*
X31820Y80391D02*
X32720D01*
X32270Y79941D02*
Y80841D01*
X29280Y82931D02*
X30180D01*
X29730Y82481D02*
Y83381D01*
X29280Y80391D02*
X30180D01*
X29730Y79941D02*
Y80841D01*
X26740Y82931D02*
X27640D01*
X27190Y82481D02*
Y83381D01*
X26740Y80391D02*
X27640D01*
X27190Y79941D02*
Y80841D01*
X24200Y82931D02*
X25100D01*
X24650Y82481D02*
Y83381D01*
X24200Y80391D02*
X25100D01*
X24650Y79941D02*
Y80841D01*
X21660Y82931D02*
X22560D01*
X22110Y82481D02*
Y83381D01*
X21660Y80391D02*
X22560D01*
X22110Y79941D02*
Y80841D01*
X39440Y92075D02*
X40340D01*
X39890Y91625D02*
Y92525D01*
X39440Y89535D02*
X40340D01*
X39890Y89085D02*
Y89985D01*
X36900Y92075D02*
X37800D01*
X37350Y91625D02*
Y92525D01*
X36900Y89535D02*
X37800D01*
X37350Y89085D02*
Y89985D01*
X34360Y92075D02*
X35260D01*
X34810Y91625D02*
Y92525D01*
X34360Y89535D02*
X35260D01*
X34810Y89085D02*
Y89985D01*
X31820Y92075D02*
X32720D01*
X32270Y91625D02*
Y92525D01*
X31820Y89535D02*
X32720D01*
X32270Y89085D02*
Y89985D01*
X29280Y92075D02*
X30180D01*
X29730Y91625D02*
Y92525D01*
X29280Y89535D02*
X30180D01*
X29730Y89085D02*
Y89985D01*
X26740Y92075D02*
X27640D01*
X27190Y91625D02*
Y92525D01*
X26740Y89535D02*
X27640D01*
X27190Y89085D02*
Y89985D01*
X24200Y92075D02*
X25100D01*
X24650Y91625D02*
Y92525D01*
X24200Y89535D02*
X25100D01*
X24650Y89085D02*
Y89985D01*
X21660Y92075D02*
X22560D01*
X22110Y91625D02*
Y92525D01*
X21660Y89535D02*
X22560D01*
X22110Y89085D02*
Y89985D01*
X66733Y34417D02*
X67633D01*
X67183Y33967D02*
Y34867D01*
X66733Y31877D02*
X67633D01*
X67183Y31427D02*
Y32327D01*
X64193Y34417D02*
X65093D01*
X64643Y33967D02*
Y34867D01*
X64193Y31877D02*
X65093D01*
X64643Y31427D02*
Y32327D01*
X61653Y34417D02*
X62553D01*
X62103Y33967D02*
Y34867D01*
X61653Y31877D02*
X62553D01*
X62103Y31427D02*
Y32327D01*
X59113Y34417D02*
X60013D01*
X59563Y33967D02*
Y34867D01*
X59113Y31877D02*
X60013D01*
X59563Y31427D02*
Y32327D01*
X56573Y34417D02*
X57473D01*
X57023Y33967D02*
Y34867D01*
X56573Y31877D02*
X57473D01*
X57023Y31427D02*
Y32327D01*
X34602Y53080D02*
X35502D01*
X35052Y52630D02*
Y53530D01*
X37142Y53080D02*
X38042D01*
X37592Y52630D02*
Y53530D01*
X34602Y50540D02*
X35502D01*
X35052Y50090D02*
Y50990D01*
X37142Y50540D02*
X38042D01*
X37592Y50090D02*
Y50990D01*
X34602Y48000D02*
X35502D01*
X35052Y47550D02*
Y48450D01*
X37142Y48000D02*
X38042D01*
X37592Y47550D02*
Y48450D01*
X34602Y45460D02*
X35502D01*
X35052Y45010D02*
Y45910D01*
X37142Y45460D02*
X38042D01*
X37592Y45010D02*
Y45910D01*
X34602Y42920D02*
X35502D01*
X35052Y42470D02*
Y43370D01*
X37142Y42920D02*
X38042D01*
X37592Y42470D02*
Y43370D01*
X46130Y34417D02*
X47030D01*
X46580Y33967D02*
Y34867D01*
X46130Y31877D02*
X47030D01*
X46580Y31427D02*
Y32327D01*
X43590Y34417D02*
X44490D01*
X44040Y33967D02*
Y34867D01*
X43590Y31877D02*
X44490D01*
X44040Y31427D02*
Y32327D01*
X41050Y34417D02*
X41950D01*
X41500Y33967D02*
Y34867D01*
X41050Y31877D02*
X41950D01*
X41500Y31427D02*
Y32327D01*
X38510Y34417D02*
X39410D01*
X38960Y33967D02*
Y34867D01*
X38510Y31877D02*
X39410D01*
X38960Y31427D02*
Y32327D01*
X35970Y34417D02*
X36870D01*
X36420Y33967D02*
Y34867D01*
X35970Y31877D02*
X36870D01*
X36420Y31427D02*
Y32327D01*
X46921Y76581D02*
X47821D01*
X47371Y76131D02*
Y77031D01*
X49461Y76581D02*
X50361D01*
X49911Y76131D02*
Y77031D01*
X52001Y76581D02*
X52901D01*
X52451Y76131D02*
Y77031D01*
X54541Y76581D02*
X55441D01*
X54991Y76131D02*
Y77031D01*
X89339Y31877D02*
X90239D01*
X89789Y31427D02*
Y32327D01*
X89339Y34417D02*
X90239D01*
X89789Y33967D02*
Y34867D01*
X91879Y31877D02*
X92779D01*
X92329Y31427D02*
Y32327D01*
X91879Y34417D02*
X92779D01*
X92329Y33967D02*
Y34867D01*
X94419Y31877D02*
X95319D01*
X94869Y31427D02*
Y32327D01*
X94419Y34417D02*
X95319D01*
X94869Y33967D02*
Y34867D01*
X96959Y31877D02*
X97859D01*
X97409Y31427D02*
Y32327D01*
X96959Y34417D02*
X97859D01*
X97409Y33967D02*
Y34867D01*
X99499Y31877D02*
X100399D01*
X99949Y31427D02*
Y32327D01*
X99499Y34417D02*
X100399D01*
X99949Y33967D02*
Y34867D01*
X102039Y31877D02*
X102939D01*
X102489Y31427D02*
Y32327D01*
X102039Y34417D02*
X102939D01*
X102489Y33967D02*
Y34867D01*
X104579Y31877D02*
X105479D01*
X105029Y31427D02*
Y32327D01*
X104579Y34417D02*
X105479D01*
X105029Y33967D02*
Y34867D01*
X107119Y31877D02*
X108019D01*
X107569Y31427D02*
Y32327D01*
X107119Y34417D02*
X108019D01*
X107569Y33967D02*
Y34867D01*
X109659Y31877D02*
X110559D01*
X110109Y31427D02*
Y32327D01*
X109659Y34417D02*
X110559D01*
X110109Y33967D02*
Y34867D01*
X112199Y31877D02*
X113099D01*
X112649Y31427D02*
Y32327D01*
X112199Y34417D02*
X113099D01*
X112649Y33967D02*
Y34867D01*
X37396Y60071D02*
X38296D01*
X37846Y59621D02*
Y60521D01*
X37396Y62611D02*
X38296D01*
X37846Y62161D02*
Y63061D01*
X21902Y65786D02*
X22802D01*
X22352Y65336D02*
Y66236D01*
X24442Y65786D02*
X25342D01*
X24892Y65336D02*
Y66236D01*
X26982Y65786D02*
X27882D01*
X27432Y65336D02*
Y66236D01*
X29522Y65786D02*
X30422D01*
X29972Y65336D02*
Y66236D01*
X32062Y65786D02*
X32962D01*
X32512Y65336D02*
Y66236D01*
X34602Y65786D02*
X35502D01*
X35052Y65336D02*
Y66236D01*
X37142Y65786D02*
X38042D01*
X37592Y65336D02*
Y66236D01*
X39682Y65786D02*
X40582D01*
X40132Y65336D02*
Y66236D01*
X21902Y73406D02*
X22802D01*
X22352Y72956D02*
Y73856D01*
X24442Y73406D02*
X25342D01*
X24892Y72956D02*
Y73856D01*
X26982Y73406D02*
X27882D01*
X27432Y72956D02*
Y73856D01*
X29522Y73406D02*
X30422D01*
X29972Y72956D02*
Y73856D01*
X32062Y73406D02*
X32962D01*
X32512Y72956D02*
Y73856D01*
X34602Y73406D02*
X35502D01*
X35052Y72956D02*
Y73856D01*
X37142Y73406D02*
X38042D01*
X37592Y72956D02*
Y73856D01*
X39682Y73406D02*
X40582D01*
X40132Y72956D02*
Y73856D01*
X65463Y25400D02*
X66363D01*
X65913Y24950D02*
Y25850D01*
X65463Y22860D02*
X66363D01*
X65913Y22410D02*
Y23310D01*
X65463Y20320D02*
X66363D01*
X65913Y19870D02*
Y20770D01*
X65463Y17780D02*
X66363D01*
X65913Y17330D02*
Y18230D01*
X73083Y25400D02*
X73983D01*
X73533Y24950D02*
Y25850D01*
X73083Y22860D02*
X73983D01*
X73533Y22410D02*
Y23310D01*
X73083Y20320D02*
X73983D01*
X73533Y19870D02*
Y20770D01*
X73083Y17780D02*
X73983D01*
X73533Y17330D02*
Y18230D01*
X37523Y17399D02*
X38423D01*
X37973Y16949D02*
Y17849D01*
X37523Y19939D02*
X38423D01*
X37973Y19489D02*
Y20389D01*
X37523Y22479D02*
X38423D01*
X37973Y22029D02*
Y22929D01*
X37523Y25019D02*
X38423D01*
X37973Y24569D02*
Y25469D01*
X29903Y17399D02*
X30803D01*
X30353Y16949D02*
Y17849D01*
X29903Y19939D02*
X30803D01*
X30353Y19489D02*
Y20389D01*
X29903Y22479D02*
X30803D01*
X30353Y22029D02*
Y22929D01*
X29903Y25019D02*
X30803D01*
X30353Y24569D02*
Y25469D01*
X109532Y82677D02*
X110432D01*
X109982Y82227D02*
Y83127D01*
X106992Y82677D02*
X107892D01*
X107442Y82227D02*
Y83127D01*
X104452Y82677D02*
X105352D01*
X104902Y82227D02*
Y83127D01*
X101912Y82677D02*
X102812D01*
X102362Y82227D02*
Y83127D01*
X99372Y82677D02*
X100272D01*
X99822Y82227D02*
Y83127D01*
X96832Y82677D02*
X97732D01*
X97282Y82227D02*
Y83127D01*
X94292Y82677D02*
X95192D01*
X94742Y82227D02*
Y83127D01*
X91752Y82677D02*
X92652D01*
X92202Y82227D02*
Y83127D01*
X89212Y82677D02*
X90112D01*
X89662Y82227D02*
Y83127D01*
X86672Y82677D02*
X87572D01*
X87122Y82227D02*
Y83127D01*
X109532Y75057D02*
X110432D01*
X109982Y74607D02*
Y75507D01*
X106992Y75057D02*
X107892D01*
X107442Y74607D02*
Y75507D01*
X104452Y75057D02*
X105352D01*
X104902Y74607D02*
Y75507D01*
X101912Y75057D02*
X102812D01*
X102362Y74607D02*
Y75507D01*
X99372Y75057D02*
X100272D01*
X99822Y74607D02*
Y75507D01*
X96832Y75057D02*
X97732D01*
X97282Y74607D02*
Y75507D01*
X94292Y75057D02*
X95192D01*
X94742Y74607D02*
Y75507D01*
X91752Y75057D02*
X92652D01*
X92202Y74607D02*
Y75507D01*
X89212Y75057D02*
X90112D01*
X89662Y74607D02*
Y75507D01*
X86672Y75057D02*
X87572D01*
X87122Y74607D02*
Y75507D01*
X44217Y49220D02*
X45117D01*
X44667Y48770D02*
Y49670D01*
X46757Y49220D02*
X47657D01*
X47207Y48770D02*
Y49670D01*
X49297Y49220D02*
X50197D01*
X49747Y48770D02*
Y49670D01*
X44217Y51760D02*
X45117D01*
X44667Y51310D02*
Y52210D01*
X46757Y51760D02*
X47657D01*
X47207Y51310D02*
Y52210D01*
X49297Y51760D02*
X50197D01*
X49747Y51310D02*
Y52210D01*
X44217Y54300D02*
X45117D01*
X44667Y53850D02*
Y54750D01*
X46757Y54300D02*
X47657D01*
X47207Y53850D02*
Y54750D01*
X49297Y54300D02*
X50197D01*
X49747Y53850D02*
Y54750D01*
X44217Y56840D02*
X45117D01*
X44667Y56390D02*
Y57290D01*
X46757Y56840D02*
X47657D01*
X47207Y56390D02*
Y57290D01*
X49297Y56840D02*
X50197D01*
X49747Y56390D02*
Y57290D01*
X44217Y59380D02*
X45117D01*
X44667Y58930D02*
Y59830D01*
X46757Y59380D02*
X47657D01*
X47207Y58930D02*
Y59830D01*
X49297Y59380D02*
X50197D01*
X49747Y58930D02*
Y59830D01*
X44217Y61920D02*
X45117D01*
X44667Y61470D02*
Y62370D01*
X46757Y61920D02*
X47657D01*
X47207Y61470D02*
Y62370D01*
X49297Y61920D02*
X50197D01*
X49747Y61470D02*
Y62370D01*
X51837Y61920D02*
X52737D01*
X52287Y61470D02*
Y62370D01*
X44217Y44140D02*
X45117D01*
X44667Y43690D02*
Y44590D01*
X46757Y44140D02*
X47657D01*
X47207Y43690D02*
Y44590D01*
X49297Y44140D02*
X50197D01*
X49747Y43690D02*
Y44590D01*
X51837Y44140D02*
X52737D01*
X52287Y43690D02*
Y44590D01*
X54377Y44140D02*
X55277D01*
X54827Y43690D02*
Y44590D01*
X56917Y44140D02*
X57817D01*
X57367Y43690D02*
Y44590D01*
X59457Y44140D02*
X60357D01*
X59907Y43690D02*
Y44590D01*
X61997Y44140D02*
X62897D01*
X62447Y43690D02*
Y44590D01*
X64537Y44140D02*
X65437D01*
X64987Y43690D02*
Y44590D01*
X67077Y44140D02*
X67977D01*
X67527Y43690D02*
Y44590D01*
X69617Y44140D02*
X70517D01*
X70067Y43690D02*
Y44590D01*
X72157Y44140D02*
X73057D01*
X72607Y43690D02*
Y44590D01*
X74697Y44140D02*
X75597D01*
X75147Y43690D02*
Y44590D01*
X77237Y44140D02*
X78137D01*
X77687Y43690D02*
Y44590D01*
X79777Y44140D02*
X80677D01*
X80227Y43690D02*
Y44590D01*
X82317Y44140D02*
X83217D01*
X82767Y43690D02*
Y44590D01*
X84857Y44140D02*
X85757D01*
X85307Y43690D02*
Y44590D01*
X87397Y44140D02*
X88297D01*
X87847Y43690D02*
Y44590D01*
X89937Y44140D02*
X90837D01*
X90387Y43690D02*
Y44590D01*
X92477Y44140D02*
X93377D01*
X92927Y43690D02*
Y44590D01*
X95017Y44140D02*
X95917D01*
X95467Y43690D02*
Y44590D01*
X97557Y44140D02*
X98457D01*
X98007Y43690D02*
Y44590D01*
X100097Y44140D02*
X100997D01*
X100547Y43690D02*
Y44590D01*
X102637Y44140D02*
X103537D01*
X103087Y43690D02*
Y44590D01*
X105177Y44140D02*
X106077D01*
X105627Y43690D02*
Y44590D01*
X107717Y44140D02*
X108617D01*
X108167Y43690D02*
Y44590D01*
X110257Y44140D02*
X111157D01*
X110707Y43690D02*
Y44590D01*
X44217Y67000D02*
X45117D01*
X44667Y66550D02*
Y67450D01*
X46757Y67000D02*
X47657D01*
X47207Y66550D02*
Y67450D01*
X49297Y67000D02*
X50197D01*
X49747Y66550D02*
Y67450D01*
X51837Y67000D02*
X52737D01*
X52287Y66550D02*
Y67450D01*
X54377Y67000D02*
X55277D01*
X54827Y66550D02*
Y67450D01*
X56917Y67000D02*
X57817D01*
X57367Y66550D02*
Y67450D01*
X59457Y67000D02*
X60357D01*
X59907Y66550D02*
Y67450D01*
X61997Y67000D02*
X62897D01*
X62447Y66550D02*
Y67450D01*
X64537Y67000D02*
X65437D01*
X64987Y66550D02*
Y67450D01*
X67077Y67000D02*
X67977D01*
X67527Y66550D02*
Y67450D01*
X69617Y67000D02*
X70517D01*
X70067Y66550D02*
Y67450D01*
X72157Y67000D02*
X73057D01*
X72607Y66550D02*
Y67450D01*
X74697Y67000D02*
X75597D01*
X75147Y66550D02*
Y67450D01*
X77237Y67000D02*
X78137D01*
X77687Y66550D02*
Y67450D01*
X79777Y67000D02*
X80677D01*
X80227Y66550D02*
Y67450D01*
X82317Y67000D02*
X83217D01*
X82767Y66550D02*
Y67450D01*
X84857Y67000D02*
X85757D01*
X85307Y66550D02*
Y67450D01*
X87397Y67000D02*
X88297D01*
X87847Y66550D02*
Y67450D01*
X89937Y67000D02*
X90837D01*
X90387Y66550D02*
Y67450D01*
X92477Y67000D02*
X93377D01*
X92927Y66550D02*
Y67450D01*
X95017Y67000D02*
X95917D01*
X95467Y66550D02*
Y67450D01*
X97557Y67000D02*
X98457D01*
X98007Y66550D02*
Y67450D01*
X100097Y67000D02*
X100997D01*
X100547Y66550D02*
Y67450D01*
X102637Y67000D02*
X103537D01*
X103087Y66550D02*
Y67450D01*
X105177Y67000D02*
X106077D01*
X105627Y66550D02*
Y67450D01*
X107717Y67000D02*
X108617D01*
X108167Y66550D02*
Y67450D01*
X110257Y67000D02*
X111157D01*
X110707Y66550D02*
Y67450D01*
X112797Y46680D02*
X113697D01*
X113247Y46230D02*
Y47130D01*
X112797Y49220D02*
X113697D01*
X113247Y48770D02*
Y49670D01*
X112797Y51760D02*
X113697D01*
X113247Y51310D02*
Y52210D01*
X112797Y54300D02*
X113697D01*
X113247Y53850D02*
Y54750D01*
X112797Y56840D02*
X113697D01*
X113247Y56390D02*
Y57290D01*
X112797Y59380D02*
X113697D01*
X113247Y58930D02*
Y59830D01*
X112797Y61920D02*
X113697D01*
X113247Y61470D02*
Y62370D01*
X112797Y64460D02*
X113697D01*
X113247Y64010D02*
Y64910D01*
X83978Y80137D02*
X84678D01*
X84328Y79787D02*
Y80487D01*
X83978Y82677D02*
X84678D01*
X84328Y82327D02*
Y83027D01*
X40290Y60579D02*
X40990D01*
X40640Y60229D02*
Y60929D01*
X40290Y63119D02*
X40990D01*
X40640Y62769D02*
Y63469D01*
X32626Y3670D02*
X35626D01*
X34126Y2170D02*
Y5170D01*
X17386Y3670D02*
X20386D01*
X18886Y2170D02*
Y5170D01*
X30856Y11250D02*
X32156D01*
X31506Y10600D02*
Y11900D01*
X33356Y8750D02*
X34656D01*
X34006Y8100D02*
Y9400D01*
X18356Y8750D02*
X19656D01*
X19006Y8100D02*
Y9400D01*
X20856Y11250D02*
X22156D01*
X21506Y10600D02*
Y11900D01*
X25856Y8750D02*
X27156D01*
X26506Y8100D02*
Y9400D01*
X23356Y-1250D02*
X24656D01*
X24006Y-1900D02*
Y-600D01*
X28356Y-1250D02*
X29656D01*
X29006Y-1900D02*
Y-600D01*
X30856Y-1250D02*
X32156D01*
X31506Y-1900D02*
Y-600D01*
X20856Y-1250D02*
X22156D01*
X21506Y-1900D02*
Y-600D01*
X41430Y-1250D02*
X42730D01*
X42080Y-1900D02*
Y-600D01*
X51430Y-1250D02*
X52730D01*
X52080Y-1900D02*
Y-600D01*
X48930Y-1250D02*
X50230D01*
X49580Y-1900D02*
Y-600D01*
X43930Y-1250D02*
X45230D01*
X44580Y-1900D02*
Y-600D01*
X46430Y8750D02*
X47730D01*
X47080Y8100D02*
Y9400D01*
X41430Y11250D02*
X42730D01*
X42080Y10600D02*
Y11900D01*
X38930Y8750D02*
X40230D01*
X39580Y8100D02*
Y9400D01*
X53930Y8750D02*
X55230D01*
X54580Y8100D02*
Y9400D01*
X51430Y11250D02*
X52730D01*
X52080Y10600D02*
Y11900D01*
X37960Y3670D02*
X40960D01*
X39460Y2170D02*
Y5170D01*
X53200Y3670D02*
X56200D01*
X54700Y2170D02*
Y5170D01*
X73774Y3670D02*
X76774D01*
X75274Y2170D02*
Y5170D01*
X58534Y3670D02*
X61534D01*
X60034Y2170D02*
Y5170D01*
X72004Y11250D02*
X73304D01*
X72654Y10600D02*
Y11900D01*
X74504Y8750D02*
X75804D01*
X75154Y8100D02*
Y9400D01*
X59504Y8750D02*
X60804D01*
X60154Y8100D02*
Y9400D01*
X62004Y11250D02*
X63304D01*
X62654Y10600D02*
Y11900D01*
X67004Y8750D02*
X68304D01*
X67654Y8100D02*
Y9400D01*
X64504Y-1250D02*
X65804D01*
X65154Y-1900D02*
Y-600D01*
X69504Y-1250D02*
X70804D01*
X70154Y-1900D02*
Y-600D01*
X72004Y-1250D02*
X73304D01*
X72654Y-1900D02*
Y-600D01*
X62004Y-1250D02*
X63304D01*
X62654Y-1900D02*
Y-600D01*
X82578Y-1250D02*
X83878D01*
X83228Y-1900D02*
Y-600D01*
X92578Y-1250D02*
X93878D01*
X93228Y-1900D02*
Y-600D01*
X90078Y-1250D02*
X91378D01*
X90728Y-1900D02*
Y-600D01*
X85078Y-1250D02*
X86378D01*
X85728Y-1900D02*
Y-600D01*
X87578Y8750D02*
X88878D01*
X88228Y8100D02*
Y9400D01*
X82578Y11250D02*
X83878D01*
X83228Y10600D02*
Y11900D01*
X80078Y8750D02*
X81378D01*
X80728Y8100D02*
Y9400D01*
X95078Y8750D02*
X96378D01*
X95728Y8100D02*
Y9400D01*
X92578Y11250D02*
X93878D01*
X93228Y10600D02*
Y11900D01*
X79108Y3670D02*
X82108D01*
X80608Y2170D02*
Y5170D01*
X94348Y3670D02*
X97348D01*
X95848Y2170D02*
Y5170D01*
X4984Y62865D02*
X5684D01*
X5334Y62515D02*
Y63215D01*
X4984Y65405D02*
X5684D01*
X5334Y65055D02*
Y65755D01*
X4984Y59944D02*
X5684D01*
X5334Y59594D02*
Y60294D01*
X4984Y57404D02*
X5684D01*
X5334Y57054D02*
Y57754D01*
X1074Y51308D02*
X1974D01*
X1524Y50858D02*
Y51758D01*
X3614Y51308D02*
X4514D01*
X4064Y50858D02*
Y51758D01*
X12073Y38227D02*
X13073D01*
X12573Y37727D02*
Y38727D01*
X17153Y38227D02*
X18153D01*
X17653Y37727D02*
Y38727D01*
X14307Y83566D02*
X15157D01*
X14732Y83141D02*
Y83991D01*
X14307Y75946D02*
X15157D01*
X14732Y75521D02*
Y76371D01*
X18625Y73406D02*
X19475D01*
X19050Y72981D02*
Y73831D01*
X18625Y65786D02*
X19475D01*
X19050Y65361D02*
Y66211D01*
X24442Y62484D02*
X25342D01*
X24892Y62034D02*
Y62934D01*
X26982Y62484D02*
X27882D01*
X27432Y62034D02*
Y62934D01*
X29522Y62484D02*
X30422D01*
X29972Y62034D02*
Y62934D01*
X32062Y62484D02*
X32962D01*
X32512Y62034D02*
Y62934D01*
X34602Y62484D02*
X35502D01*
X35052Y62034D02*
Y62934D01*
X89320Y27051D02*
X90220D01*
X89770Y26601D02*
Y27501D01*
X91860Y27051D02*
X92760D01*
X92310Y26601D02*
Y27501D01*
X94400Y27051D02*
X95300D01*
X94850Y26601D02*
Y27501D01*
X96940Y27051D02*
X97840D01*
X97390Y26601D02*
Y27501D01*
X99480Y27051D02*
X100380D01*
X99930Y26601D02*
Y27501D01*
X60789Y24638D02*
X61639D01*
X61214Y24213D02*
Y25063D01*
X60789Y17018D02*
X61639D01*
X61214Y16593D02*
Y17443D01*
X90761Y17145D02*
X91611D01*
X91186Y16720D02*
Y17570D01*
X90761Y24765D02*
X91611D01*
X91186Y24340D02*
Y25190D01*
X84538Y25019D02*
X85388D01*
X84963Y24594D02*
Y25444D01*
X84538Y17399D02*
X85388D01*
X84963Y16974D02*
Y17824D01*
X77934Y17272D02*
X78784D01*
X78359Y16847D02*
Y17697D01*
X77934Y24892D02*
X78784D01*
X78359Y24467D02*
Y25317D01*
X80855Y25146D02*
X81705D01*
X81280Y24721D02*
Y25571D01*
X80855Y17526D02*
X81705D01*
X81280Y17101D02*
Y17951D01*
X51645Y17272D02*
X52495D01*
X52070Y16847D02*
Y17697D01*
X51645Y24892D02*
X52495D01*
X52070Y24467D02*
Y25317D01*
X48470Y24892D02*
X49320D01*
X48895Y24467D02*
Y25317D01*
X48470Y17272D02*
X49320D01*
X48895Y16847D02*
Y17697D01*
X41866Y17272D02*
X42716D01*
X42291Y16847D02*
Y17697D01*
X41866Y24892D02*
X42716D01*
X42291Y24467D02*
Y25317D01*
X45295Y24892D02*
X46145D01*
X45720Y24467D02*
Y25317D01*
X45295Y17272D02*
X46145D01*
X45720Y16847D02*
Y17697D01*
X56700Y24601D02*
X57600D01*
X57150Y24151D02*
Y25051D01*
X56700Y16801D02*
X57600D01*
X57150Y16351D02*
Y17251D01*
X25610Y24765D02*
X26460D01*
X26035Y24340D02*
Y25190D01*
X25610Y17145D02*
X26460D01*
X26035Y16720D02*
Y17570D01*
X22410Y24728D02*
X23310D01*
X22860Y24278D02*
Y25178D01*
X22410Y16928D02*
X23310D01*
X22860Y16478D02*
Y17378D01*
X47835Y80264D02*
X48685D01*
X48260Y79839D02*
Y80689D01*
X55455Y80264D02*
X56305D01*
X55880Y79839D02*
Y80689D01*
X47835Y83312D02*
X48685D01*
X48260Y82887D02*
Y83737D01*
X55455Y83312D02*
X56305D01*
X55880Y82887D02*
Y83737D01*
X74632Y31623D02*
X75482D01*
X75057Y31198D02*
Y32048D01*
X82252Y31623D02*
X83102D01*
X82677Y31198D02*
Y32048D01*
X108643Y24759D02*
X109543D01*
X109093Y24309D02*
Y25209D01*
X108643Y17659D02*
X109543D01*
X109093Y17209D02*
Y18109D01*
X105493Y25273D02*
X106343D01*
X105918Y24848D02*
Y25698D01*
X105493Y17653D02*
X106343D01*
X105918Y17228D02*
Y18078D01*
X74759Y28448D02*
X75609D01*
X75184Y28023D02*
Y28873D01*
X82379Y28448D02*
X83229D01*
X82804Y28023D02*
Y28873D01*
X5111Y38227D02*
X5811D01*
X5461Y37877D02*
Y38577D01*
X5111Y33147D02*
X5811D01*
X5461Y32797D02*
Y33497D01*
X96197Y21209D02*
X97097D01*
X96647Y20759D02*
Y21659D01*
X93657Y21209D02*
X94557D01*
X94107Y20759D02*
Y21659D01*
X43259Y40767D02*
X43609D01*
X43434Y40592D02*
Y40942D01*
X41100Y54610D02*
X41450D01*
X41275Y54435D02*
Y54785D01*
M02*
