%FSLAX43Y43*%
%MOMM*%
G71*
G01*
G75*
G04 Layer_Color=16711935*
%ADD10C,0.600*%
%ADD11C,0.400*%
%ADD12C,0.800*%
%ADD13C,0.230*%
%ADD14C,0.254*%
%ADD15C,0.050*%
%ADD16C,1.500*%
%ADD17R,1.500X1.500*%
%ADD18R,1.500X1.500*%
%ADD19R,1.700X1.700*%
%ADD20C,1.700*%
%ADD21C,1.524*%
%ADD22C,1.800*%
%ADD23C,2.230*%
%ADD24C,3.300*%
%ADD25C,1.620*%
%ADD26C,3.800*%
%ADD27C,1.600*%
%ADD28R,1.600X1.600*%
%ADD29C,1.500*%
%ADD30R,1.500X1.500*%
%ADD31R,1.500X1.500*%
%ADD32C,1.200*%
%ADD33C,2.500*%
%ADD34C,2.100*%
%ADD35R,2.000X2.000*%
%ADD36C,2.000*%
%ADD37C,1.400*%
%ADD38C,0.800*%
%ADD39C,0.500*%
%ADD40C,1.000*%
%ADD41C,0.100*%
%ADD42C,0.250*%
%ADD43C,0.200*%
%ADD44C,0.127*%
%ADD45C,0.150*%
%ADD46C,0.203*%
%ADD47R,0.500X2.000*%
%ADD48R,2.000X0.800*%
%ADD49R,1.900X0.800*%
%ADD50C,1.703*%
%ADD51R,1.703X1.703*%
%ADD52R,1.703X1.703*%
%ADD53R,1.903X1.903*%
%ADD54C,1.903*%
%ADD55C,1.727*%
%ADD56C,2.003*%
%ADD57C,2.433*%
%ADD58C,3.503*%
%ADD59C,1.823*%
%ADD60R,0.203X0.203*%
%ADD61C,4.003*%
%ADD62C,1.803*%
%ADD63R,1.803X1.803*%
%ADD64C,0.203*%
%ADD65C,1.703*%
%ADD66R,1.703X1.703*%
%ADD67R,1.703X1.703*%
%ADD68C,1.403*%
%ADD69C,2.703*%
%ADD70C,2.303*%
%ADD71R,2.203X2.203*%
%ADD72C,2.203*%
%ADD73C,1.603*%
%ADD74C,1.003*%
D15*
X500Y0D02*
G03*
X500Y0I-500J0D01*
G01*
X-1500Y-4000D02*
X118500D01*
Y96000D01*
X-1500D02*
X118500D01*
X-1500Y-4000D02*
Y96000D01*
D16*
X112900Y11390D02*
D03*
D25*
X104370Y-1560D02*
D03*
D50*
X74422Y35433D02*
D03*
X76962D02*
D03*
X79502D02*
D03*
X24892Y54737D02*
D03*
Y52197D02*
D03*
X28575Y54737D02*
D03*
X115697Y21336D02*
D03*
X4064Y73025D02*
D03*
X105280Y11390D02*
D03*
X111630Y8850D02*
D03*
X110360Y11390D02*
D03*
X107820D02*
D03*
X109090Y8850D02*
D03*
X106550D02*
D03*
X9662Y15233D02*
D03*
X67654Y3463D02*
D03*
X65114D02*
D03*
X23966D02*
D03*
X26506D02*
D03*
X47080Y3717D02*
D03*
X44540D02*
D03*
X85688Y3336D02*
D03*
X88228D02*
D03*
X381Y21209D02*
D03*
X111080Y89730D02*
D03*
X108540Y92270D02*
D03*
Y89730D02*
D03*
X106000Y92270D02*
D03*
Y89730D02*
D03*
X103460Y92270D02*
D03*
Y89730D02*
D03*
X100920Y92270D02*
D03*
Y89730D02*
D03*
X90580D02*
D03*
X88040Y92270D02*
D03*
Y89730D02*
D03*
X85500Y92270D02*
D03*
Y89730D02*
D03*
X82960Y92270D02*
D03*
Y89730D02*
D03*
X80420Y92270D02*
D03*
Y89730D02*
D03*
X77680Y78730D02*
D03*
X75140Y81270D02*
D03*
Y78730D02*
D03*
X72600Y81270D02*
D03*
Y78730D02*
D03*
X70060Y81270D02*
D03*
Y78730D02*
D03*
X67520Y81270D02*
D03*
Y78730D02*
D03*
X70080Y89730D02*
D03*
X67540Y92270D02*
D03*
Y89730D02*
D03*
X65000Y92270D02*
D03*
Y89730D02*
D03*
X62460Y92270D02*
D03*
Y89730D02*
D03*
X59920Y92270D02*
D03*
Y89730D02*
D03*
X39890Y82931D02*
D03*
X37350D02*
D03*
Y80391D02*
D03*
X34810Y82931D02*
D03*
Y80391D02*
D03*
X32270Y82931D02*
D03*
Y80391D02*
D03*
X29730Y82931D02*
D03*
Y80391D02*
D03*
X27190Y82931D02*
D03*
Y80391D02*
D03*
X24650Y82931D02*
D03*
Y80391D02*
D03*
X22110Y82931D02*
D03*
Y80391D02*
D03*
X39890Y92075D02*
D03*
X37350D02*
D03*
Y89535D02*
D03*
X34810Y92075D02*
D03*
Y89535D02*
D03*
X32270Y92075D02*
D03*
Y89535D02*
D03*
X29730Y92075D02*
D03*
Y89535D02*
D03*
X27190Y92075D02*
D03*
Y89535D02*
D03*
X24650Y92075D02*
D03*
Y89535D02*
D03*
X22110Y92075D02*
D03*
Y89535D02*
D03*
X67183Y31877D02*
D03*
X64643Y34417D02*
D03*
Y31877D02*
D03*
X62103Y34417D02*
D03*
Y31877D02*
D03*
X59563Y34417D02*
D03*
Y31877D02*
D03*
X57023Y34417D02*
D03*
Y31877D02*
D03*
X37592Y53080D02*
D03*
X35052Y50540D02*
D03*
X37592D02*
D03*
X35052Y48000D02*
D03*
X37592D02*
D03*
X35052Y45460D02*
D03*
X37592D02*
D03*
X35052Y42920D02*
D03*
X37592D02*
D03*
X46580Y31877D02*
D03*
X44040Y34417D02*
D03*
Y31877D02*
D03*
X41500Y34417D02*
D03*
Y31877D02*
D03*
X38960Y34417D02*
D03*
Y31877D02*
D03*
X36420Y34417D02*
D03*
Y31877D02*
D03*
X47371Y76581D02*
D03*
X49911D02*
D03*
X52451D02*
D03*
X89789Y31877D02*
D03*
Y34417D02*
D03*
X92329Y31877D02*
D03*
Y34417D02*
D03*
X94869Y31877D02*
D03*
Y34417D02*
D03*
X97409Y31877D02*
D03*
Y34417D02*
D03*
X99949Y31877D02*
D03*
Y34417D02*
D03*
X102489Y31877D02*
D03*
Y34417D02*
D03*
X105029Y31877D02*
D03*
Y34417D02*
D03*
X107569Y31877D02*
D03*
Y34417D02*
D03*
X110109Y31877D02*
D03*
Y34417D02*
D03*
X112649Y31877D02*
D03*
X37846Y60071D02*
D03*
X89662Y82677D02*
D03*
X44667Y49220D02*
D03*
X47207D02*
D03*
X49747D02*
D03*
X44667Y51760D02*
D03*
X47207D02*
D03*
X49747D02*
D03*
X44667Y54300D02*
D03*
X47207D02*
D03*
X49747D02*
D03*
X44667Y56840D02*
D03*
X47207D02*
D03*
X49747D02*
D03*
X44667Y59380D02*
D03*
X47207D02*
D03*
X49747D02*
D03*
X44667Y61920D02*
D03*
X47207D02*
D03*
X49747D02*
D03*
X52287D02*
D03*
X44667Y44140D02*
D03*
X47207D02*
D03*
X49747D02*
D03*
X52287D02*
D03*
X54827D02*
D03*
X57367D02*
D03*
X59907D02*
D03*
X62447D02*
D03*
X64987D02*
D03*
X67527D02*
D03*
X70067D02*
D03*
X72607D02*
D03*
X75147D02*
D03*
X77687D02*
D03*
X80227D02*
D03*
X82767D02*
D03*
X85307D02*
D03*
X87847D02*
D03*
X90387D02*
D03*
X92927D02*
D03*
X95467D02*
D03*
X98007D02*
D03*
X100547D02*
D03*
X103087D02*
D03*
X105627D02*
D03*
X108167D02*
D03*
X110707D02*
D03*
X44667Y67000D02*
D03*
X47207D02*
D03*
X49747D02*
D03*
X52287D02*
D03*
X54827D02*
D03*
X57367D02*
D03*
X59907D02*
D03*
X62447D02*
D03*
X64987D02*
D03*
X67527D02*
D03*
X70067D02*
D03*
X72607D02*
D03*
X75147D02*
D03*
X77687D02*
D03*
X80227D02*
D03*
X82767D02*
D03*
X85307D02*
D03*
X87847D02*
D03*
X90387D02*
D03*
X92927D02*
D03*
X95467D02*
D03*
X98007D02*
D03*
X100547D02*
D03*
X103087D02*
D03*
X105627D02*
D03*
X108167D02*
D03*
X113247Y46680D02*
D03*
Y49220D02*
D03*
Y51760D02*
D03*
Y54300D02*
D03*
Y56840D02*
D03*
Y59380D02*
D03*
Y61920D02*
D03*
Y64460D02*
D03*
X4064Y51308D02*
D03*
X27432Y62484D02*
D03*
X29972D02*
D03*
X32512D02*
D03*
X35052D02*
D03*
X92310Y27051D02*
D03*
X94850D02*
D03*
X97390D02*
D03*
X99930D02*
D03*
X57150Y16801D02*
D03*
X22860Y16928D02*
D03*
X109093Y17659D02*
D03*
X94107Y21209D02*
D03*
D51*
X82042Y35433D02*
D03*
X1524Y73025D02*
D03*
X104010Y8850D02*
D03*
X12202Y15233D02*
D03*
X70194Y3463D02*
D03*
X29046D02*
D03*
X49620Y3717D02*
D03*
X90768Y3336D02*
D03*
X111080Y92270D02*
D03*
X90580D02*
D03*
X77680Y81270D02*
D03*
X70080Y92270D02*
D03*
X39890Y80391D02*
D03*
Y89535D02*
D03*
X67183Y34417D02*
D03*
X46580D02*
D03*
X54991Y76581D02*
D03*
X112649Y34417D02*
D03*
X110707Y67000D02*
D03*
X1524Y51308D02*
D03*
X24892Y62484D02*
D03*
X89770Y27051D02*
D03*
X96647Y21209D02*
D03*
D52*
X24892Y57277D02*
D03*
X28575D02*
D03*
X115697Y18796D02*
D03*
X381Y23749D02*
D03*
X35052Y53080D02*
D03*
X37846Y62611D02*
D03*
X57150Y24601D02*
D03*
X22860Y24728D02*
D03*
X109093Y24759D02*
D03*
D53*
X1600Y59227D02*
D03*
Y38227D02*
D03*
D54*
Y61767D02*
D03*
Y64307D02*
D03*
Y43307D02*
D03*
Y40767D02*
D03*
D55*
X15113Y21209D02*
D03*
Y26289D02*
D03*
X10033D02*
D03*
Y21209D02*
D03*
D56*
X49784Y93472D02*
D03*
X47244Y88392D02*
D03*
X52324D02*
D03*
X14224D02*
D03*
X9144D02*
D03*
X11684Y93472D02*
D03*
D57*
X116330Y5800D02*
D03*
X100580D02*
D03*
D58*
X102740Y2500D02*
D03*
X114170D02*
D03*
D59*
X101830Y-1560D02*
D03*
X112540D02*
D03*
X115080D02*
D03*
D60*
X0Y0D02*
D03*
D61*
X2325Y6363D02*
D03*
X14365D02*
D03*
D62*
X7095Y9073D02*
D03*
X9595D02*
D03*
X7095Y11073D02*
D03*
X11938Y81407D02*
D03*
X9398D02*
D03*
X6858D02*
D03*
D63*
X9595Y11073D02*
D03*
D64*
X4408Y16383D02*
D03*
X95022D02*
D03*
X3000Y80000D02*
D03*
X114500D02*
D03*
X34126Y3670D02*
D03*
X18886D02*
D03*
X39460D02*
D03*
X54700D02*
D03*
X75274D02*
D03*
X60034D02*
D03*
X80608D02*
D03*
X95848D02*
D03*
D65*
X22352Y65786D02*
D03*
X24892D02*
D03*
X27432D02*
D03*
X29972D02*
D03*
X32512D02*
D03*
X35052D02*
D03*
X37592D02*
D03*
X40132D02*
D03*
X22352Y73406D02*
D03*
X24892D02*
D03*
X27432D02*
D03*
X29972D02*
D03*
X32512D02*
D03*
X35052D02*
D03*
X37592D02*
D03*
X65913Y22860D02*
D03*
Y20320D02*
D03*
Y17780D02*
D03*
X73533Y25400D02*
D03*
Y22860D02*
D03*
Y20320D02*
D03*
Y17780D02*
D03*
X37973Y17399D02*
D03*
Y19939D02*
D03*
Y22479D02*
D03*
Y25019D02*
D03*
X30353Y17399D02*
D03*
Y19939D02*
D03*
Y22479D02*
D03*
X109982Y82677D02*
D03*
X107442D02*
D03*
X104902D02*
D03*
X102362D02*
D03*
X99822D02*
D03*
X97282D02*
D03*
X94742D02*
D03*
X92202D02*
D03*
X87122D02*
D03*
X109982Y75057D02*
D03*
X107442D02*
D03*
X104902D02*
D03*
X102362D02*
D03*
X99822D02*
D03*
X97282D02*
D03*
X94742D02*
D03*
X92202D02*
D03*
X89662D02*
D03*
D66*
X40132Y73406D02*
D03*
X87122Y75057D02*
D03*
D67*
X65913Y25400D02*
D03*
X30353Y25019D02*
D03*
D68*
X84328Y80137D02*
D03*
Y82677D02*
D03*
X40640Y60579D02*
D03*
Y63119D02*
D03*
X5334Y62865D02*
D03*
Y65405D02*
D03*
Y59944D02*
D03*
Y57404D02*
D03*
X5461Y38227D02*
D03*
Y33147D02*
D03*
D69*
X31506Y11250D02*
D03*
X34006Y8750D02*
D03*
X19006D02*
D03*
X21506Y11250D02*
D03*
X26506Y8750D02*
D03*
X47080D02*
D03*
X42080Y11250D02*
D03*
X39580Y8750D02*
D03*
X54580D02*
D03*
X52080Y11250D02*
D03*
X72654D02*
D03*
X75154Y8750D02*
D03*
X60154D02*
D03*
X62654Y11250D02*
D03*
X67654Y8750D02*
D03*
X88228D02*
D03*
X83228Y11250D02*
D03*
X80728Y8750D02*
D03*
X95728D02*
D03*
X93228Y11250D02*
D03*
D70*
X24006Y-1250D02*
D03*
X29006D02*
D03*
X31506D02*
D03*
X21506D02*
D03*
X42080D02*
D03*
X52080D02*
D03*
X49580D02*
D03*
X44580D02*
D03*
X65154D02*
D03*
X70154D02*
D03*
X72654D02*
D03*
X62654D02*
D03*
X83228D02*
D03*
X93228D02*
D03*
X90728D02*
D03*
X85728D02*
D03*
D71*
X12573Y38227D02*
D03*
D72*
X17653D02*
D03*
D73*
X14732Y83566D02*
D03*
Y75946D02*
D03*
X19050Y73406D02*
D03*
Y65786D02*
D03*
X61214Y24638D02*
D03*
Y17018D02*
D03*
X91186Y17145D02*
D03*
Y24765D02*
D03*
X84963Y25019D02*
D03*
Y17399D02*
D03*
X78359Y17272D02*
D03*
Y24892D02*
D03*
X81280Y25146D02*
D03*
Y17526D02*
D03*
X52070Y17272D02*
D03*
Y24892D02*
D03*
X48895D02*
D03*
Y17272D02*
D03*
X42291D02*
D03*
Y24892D02*
D03*
X45720D02*
D03*
Y17272D02*
D03*
X26035Y24765D02*
D03*
Y17145D02*
D03*
X48260Y80264D02*
D03*
X55880D02*
D03*
X48260Y83312D02*
D03*
X55880D02*
D03*
X75057Y31623D02*
D03*
X82677D02*
D03*
X105918Y25273D02*
D03*
Y17653D02*
D03*
X75184Y28448D02*
D03*
X82804D02*
D03*
D74*
X43434Y40767D02*
D03*
X41275Y54610D02*
D03*
M02*
