%FSLAX43Y43*%
%MOMM*%
G71*
G01*
G75*
G04 Layer_Color=2752767*
%ADD10C,0.600*%
%ADD11C,0.400*%
%ADD12C,0.800*%
%ADD13C,0.230*%
%ADD14C,0.254*%
%ADD15C,0.050*%
%ADD16C,1.500*%
%ADD17R,1.500X1.500*%
%ADD18R,1.500X1.500*%
%ADD19R,1.700X1.700*%
%ADD20C,1.700*%
%ADD21C,1.524*%
%ADD22C,1.800*%
%ADD23C,2.230*%
%ADD24C,3.300*%
%ADD25C,1.620*%
%ADD26C,3.800*%
%ADD27C,1.600*%
%ADD28R,1.600X1.600*%
%ADD29C,1.500*%
%ADD30R,1.500X1.500*%
%ADD31R,1.500X1.500*%
%ADD32C,1.200*%
%ADD33C,2.500*%
%ADD34C,2.100*%
%ADD35R,2.000X2.000*%
%ADD36C,2.000*%
%ADD37C,1.400*%
%ADD38C,0.800*%
%ADD39C,0.500*%
%ADD40C,1.000*%
%ADD41C,0.100*%
%ADD42C,0.250*%
%ADD43C,0.200*%
%ADD44C,0.127*%
%ADD45C,0.150*%
%ADD46C,0.203*%
%ADD47R,0.500X2.000*%
%ADD48R,2.000X0.800*%
%ADD49R,1.900X0.800*%
%ADD50C,1.703*%
%ADD51R,1.703X1.703*%
%ADD52R,1.703X1.703*%
%ADD53R,1.903X1.903*%
%ADD54C,1.903*%
%ADD55C,1.727*%
%ADD56C,2.003*%
%ADD57C,2.433*%
%ADD58C,3.503*%
%ADD59C,1.823*%
%ADD60R,0.203X0.203*%
%ADD61C,4.003*%
%ADD62C,1.803*%
%ADD63R,1.803X1.803*%
%ADD64C,0.203*%
%ADD65C,1.703*%
%ADD66R,1.703X1.703*%
%ADD67R,1.703X1.703*%
%ADD68C,1.403*%
%ADD69C,2.703*%
%ADD70C,2.303*%
%ADD71R,2.203X2.203*%
%ADD72C,2.203*%
%ADD73C,1.603*%
%ADD74C,1.003*%
%ADD75C,0.020*%
%ADD76C,0.030*%
%ADD77C,0.480*%
%ADD78C,0.300*%
D15*
X500Y0D02*
G03*
X500Y0I-500J0D01*
G01*
X-1500Y-4000D02*
X118500D01*
Y96000D01*
X-1500D02*
X118500D01*
X-1500Y-4000D02*
Y96000D01*
D44*
X74422Y35433D02*
Y36279D01*
X74845Y36703D01*
X75268Y36279D01*
Y35433D01*
Y36068D01*
X74422D01*
X76962Y35433D02*
Y36279D01*
X77385Y36703D01*
X77808Y36279D01*
Y35433D01*
Y36068D01*
X76962D01*
X79502Y35433D02*
Y36279D01*
X79925Y36703D01*
X80348Y36279D01*
Y35433D01*
Y36068D01*
X79502D01*
X82042Y35433D02*
Y36279D01*
X82465Y36703D01*
X82888Y36279D01*
Y35433D01*
Y36068D01*
X82042D01*
X24892Y57277D02*
Y58123D01*
X25315Y58547D01*
X25738Y58123D01*
Y57277D01*
Y57912D01*
X24892D01*
Y54737D02*
Y55583D01*
X25315Y56007D01*
X25738Y55583D01*
Y54737D01*
Y55372D01*
X24892D01*
Y52197D02*
Y53043D01*
X25315Y53467D01*
X25738Y53043D01*
Y52197D01*
Y52832D01*
X24892D01*
X28575Y54737D02*
Y55583D01*
X28998Y56007D01*
X29421Y55583D01*
Y54737D01*
Y55372D01*
X28575D01*
Y57277D02*
Y58123D01*
X28998Y58547D01*
X29421Y58123D01*
Y57277D01*
Y57912D01*
X28575D01*
X115697Y21336D02*
Y22182D01*
X116120Y22606D01*
X116543Y22182D01*
Y21336D01*
Y21971D01*
X115697D01*
Y18796D02*
Y19642D01*
X116120Y20066D01*
X116543Y19642D01*
Y18796D01*
Y19431D01*
X115697D01*
X1600Y60497D02*
Y59227D01*
X2235D01*
X2446Y59439D01*
Y59650D01*
X2235Y59862D01*
X1600D01*
X2235D01*
X2446Y60073D01*
Y60285D01*
X2235Y60497D01*
X1600D01*
Y63037D02*
Y61767D01*
X2235D01*
X2446Y61979D01*
Y62190D01*
X2235Y62402D01*
X1600D01*
X2235D01*
X2446Y62613D01*
Y62825D01*
X2235Y63037D01*
X1600D01*
Y65577D02*
Y64307D01*
X2235D01*
X2446Y64519D01*
Y64730D01*
X2235Y64942D01*
X1600D01*
X2235D01*
X2446Y65153D01*
Y65365D01*
X2235Y65577D01*
X1600D01*
Y44577D02*
Y43307D01*
X2235D01*
X2446Y43519D01*
Y43730D01*
X2235Y43942D01*
X1600D01*
X2235D01*
X2446Y44153D01*
Y44365D01*
X2235Y44577D01*
X1600D01*
Y42037D02*
Y40767D01*
X2235D01*
X2446Y40979D01*
Y41190D01*
X2235Y41402D01*
X1600D01*
X2235D01*
X2446Y41613D01*
Y41825D01*
X2235Y42037D01*
X1600D01*
Y39497D02*
Y38227D01*
X2235D01*
X2446Y38439D01*
Y38650D01*
X2235Y38862D01*
X1600D01*
X2235D01*
X2446Y39073D01*
Y39285D01*
X2235Y39497D01*
X1600D01*
X15959Y22267D02*
X15748Y22479D01*
X15325D01*
X15113Y22267D01*
Y21421D01*
X15325Y21209D01*
X15748D01*
X15959Y21421D01*
Y27347D02*
X15748Y27559D01*
X15325D01*
X15113Y27347D01*
Y26501D01*
X15325Y26289D01*
X15748D01*
X15959Y26501D01*
X10879Y27347D02*
X10668Y27559D01*
X10245D01*
X10033Y27347D01*
Y26501D01*
X10245Y26289D01*
X10668D01*
X10879Y26501D01*
Y22267D02*
X10668Y22479D01*
X10245D01*
X10033Y22267D01*
Y21421D01*
X10245Y21209D01*
X10668D01*
X10879Y21421D01*
X1524Y73025D02*
Y73871D01*
X1947Y74295D01*
X2370Y73871D01*
Y73025D01*
Y73660D01*
X1524D01*
X4064Y73025D02*
Y73871D01*
X4487Y74295D01*
X4910Y73871D01*
Y73025D01*
Y73660D01*
X4064D01*
X49784Y94742D02*
Y93472D01*
X50419D01*
X50630Y93684D01*
Y94530D01*
X50419Y94742D01*
X49784D01*
X47244Y89662D02*
Y88392D01*
X47879D01*
X48090Y88604D01*
Y89450D01*
X47879Y89662D01*
X47244D01*
X52324D02*
Y88392D01*
X52959D01*
X53170Y88604D01*
Y89450D01*
X52959Y89662D01*
X52324D01*
X14224D02*
Y88392D01*
X14859D01*
X15070Y88604D01*
Y89450D01*
X14859Y89662D01*
X14224D01*
X9144D02*
Y88392D01*
X9779D01*
X9990Y88604D01*
Y89450D01*
X9779Y89662D01*
X9144D01*
X11684Y94742D02*
Y93472D01*
X12319D01*
X12530Y93684D01*
Y94530D01*
X12319Y94742D01*
X11684D01*
X117176Y7070D02*
X116330D01*
Y5800D01*
X117176D01*
X116330Y6435D02*
X116753D01*
X101426Y7070D02*
X100580D01*
Y5800D01*
X101426D01*
X100580Y6435D02*
X101003D01*
X112900Y11390D02*
Y12236D01*
X113323Y12660D01*
X113746Y12236D01*
Y11390D01*
Y12025D01*
X112900D01*
X105280Y11390D02*
Y12236D01*
X105703Y12660D01*
X106126Y12236D01*
Y11390D01*
Y12025D01*
X105280D01*
X104010Y8850D02*
Y9696D01*
X104433Y10120D01*
X104856Y9696D01*
Y8850D01*
Y9485D01*
X104010D01*
X111630Y8850D02*
Y9696D01*
X112053Y10120D01*
X112476Y9696D01*
Y8850D01*
Y9485D01*
X111630D01*
X110360Y11390D02*
Y12236D01*
X110783Y12660D01*
X111206Y12236D01*
Y11390D01*
Y12025D01*
X110360D01*
X107820Y11390D02*
Y12236D01*
X108243Y12660D01*
X108666Y12236D01*
Y11390D01*
Y12025D01*
X107820D01*
X109090Y8850D02*
Y9696D01*
X109513Y10120D01*
X109936Y9696D01*
Y8850D01*
Y9485D01*
X109090D01*
X106550Y8850D02*
Y9696D01*
X106973Y10120D01*
X107396Y9696D01*
Y8850D01*
Y9485D01*
X106550D01*
X103586Y3770D02*
X102740D01*
Y3135D01*
X103163D01*
X102740D01*
Y2500D01*
X115016Y3770D02*
X114170D01*
Y3135D01*
X114593D01*
X114170D01*
Y2500D01*
X101830Y-290D02*
Y-1560D01*
X102465D01*
X102676Y-1348D01*
Y-502D01*
X102465Y-290D01*
X101830D01*
X104370D02*
Y-1560D01*
X105005D01*
X105216Y-1348D01*
Y-502D01*
X105005Y-290D01*
X104370D01*
X112540D02*
Y-1560D01*
X113175D01*
X113386Y-1348D01*
Y-502D01*
X113175Y-290D01*
X112540D01*
X115080D02*
Y-1560D01*
X115715D01*
X115926Y-1348D01*
Y-502D01*
X115715Y-290D01*
X115080D01*
X9662Y15233D02*
Y16079D01*
X10085Y16502D01*
X10508Y16079D01*
Y15233D01*
Y15867D01*
X9662D01*
X12202Y15233D02*
Y16079D01*
X12625Y16502D01*
X13048Y16079D01*
Y15233D01*
Y15867D01*
X12202D01*
X846Y1058D02*
X635Y1270D01*
X212D01*
X0Y1058D01*
Y212D01*
X212Y0D01*
X635D01*
X846Y212D01*
Y635D01*
X423D01*
X2325Y7633D02*
Y6363D01*
Y6998D01*
X3171D01*
Y7633D01*
Y6363D01*
X7095Y10343D02*
X7518D01*
X7307D01*
Y9073D01*
X7095D01*
X7518D01*
X9595Y10343D02*
X10018D01*
X9807D01*
Y9073D01*
X9595D01*
X10018D01*
X7095Y12343D02*
X7518D01*
X7307D01*
Y11073D01*
X7095D01*
X7518D01*
X9595Y12343D02*
X10018D01*
X9807D01*
Y11073D01*
X9595D01*
X10018D01*
X14365Y7633D02*
Y6363D01*
Y6998D01*
X15211D01*
Y7633D01*
Y6363D01*
X5254Y17653D02*
X4831D01*
X5043D01*
Y16595D01*
X4831Y16383D01*
X4620D01*
X4408Y16595D01*
X95869Y17653D02*
X95446D01*
X95657D01*
Y16595D01*
X95446Y16383D01*
X95234D01*
X95022Y16595D01*
X3846Y81270D02*
X3423D01*
X3635D01*
Y80212D01*
X3423Y80000D01*
X3212D01*
X3000Y80212D01*
X115346Y81270D02*
X114923D01*
X115135D01*
Y80212D01*
X114923Y80000D01*
X114712D01*
X114500Y80212D01*
X70194Y3463D02*
Y4309D01*
X70617Y4733D01*
X71040Y4309D01*
Y3463D01*
Y4098D01*
X70194D01*
X67654Y3463D02*
Y4309D01*
X68077Y4733D01*
X68500Y4309D01*
Y3463D01*
Y4098D01*
X67654D01*
X65114Y3463D02*
Y4309D01*
X65537Y4733D01*
X65960Y4309D01*
Y3463D01*
Y4098D01*
X65114D01*
X23966Y3463D02*
Y4309D01*
X24389Y4733D01*
X24812Y4309D01*
Y3463D01*
Y4098D01*
X23966D01*
X26506Y3463D02*
Y4309D01*
X26929Y4733D01*
X27352Y4309D01*
Y3463D01*
Y4098D01*
X26506D01*
X29046Y3463D02*
Y4309D01*
X29469Y4733D01*
X29892Y4309D01*
Y3463D01*
Y4098D01*
X29046D01*
X49620Y3717D02*
Y4563D01*
X50043Y4987D01*
X50466Y4563D01*
Y3717D01*
Y4352D01*
X49620D01*
X47080Y3717D02*
Y4563D01*
X47503Y4987D01*
X47926Y4563D01*
Y3717D01*
Y4352D01*
X47080D01*
X44540Y3717D02*
Y4563D01*
X44963Y4987D01*
X45386Y4563D01*
Y3717D01*
Y4352D01*
X44540D01*
X85688Y3336D02*
Y4182D01*
X86111Y4606D01*
X86534Y4182D01*
Y3336D01*
Y3971D01*
X85688D01*
X88228Y3336D02*
Y4182D01*
X88651Y4606D01*
X89074Y4182D01*
Y3336D01*
Y3971D01*
X88228D01*
X90768Y3336D02*
Y4182D01*
X91191Y4606D01*
X91614Y4182D01*
Y3336D01*
Y3971D01*
X90768D01*
X381Y21209D02*
Y22055D01*
X804Y22479D01*
X1227Y22055D01*
Y21209D01*
Y21844D01*
X381D01*
Y23749D02*
Y24595D01*
X804Y25019D01*
X1227Y24595D01*
Y23749D01*
Y24384D01*
X381D01*
X11938Y82677D02*
Y81407D01*
Y81830D01*
X12784Y82677D01*
X12150Y82042D01*
X12784Y81407D01*
X9398Y82677D02*
Y81407D01*
Y81830D01*
X10244Y82677D01*
X9610Y82042D01*
X10244Y81407D01*
X6858Y82677D02*
Y81407D01*
Y81830D01*
X7704Y82677D01*
X7070Y82042D01*
X7704Y81407D01*
X111080Y92270D02*
Y93116D01*
X111503Y93540D01*
X111926Y93116D01*
Y92270D01*
Y92905D01*
X111080D01*
Y89730D02*
Y90576D01*
X111503Y91000D01*
X111926Y90576D01*
Y89730D01*
Y90365D01*
X111080D01*
X108540Y92270D02*
Y93116D01*
X108963Y93540D01*
X109386Y93116D01*
Y92270D01*
Y92905D01*
X108540D01*
Y89730D02*
Y90576D01*
X108963Y91000D01*
X109386Y90576D01*
Y89730D01*
Y90365D01*
X108540D01*
X106000Y92270D02*
Y93116D01*
X106423Y93540D01*
X106846Y93116D01*
Y92270D01*
Y92905D01*
X106000D01*
Y89730D02*
Y90576D01*
X106423Y91000D01*
X106846Y90576D01*
Y89730D01*
Y90365D01*
X106000D01*
X103460Y92270D02*
Y93116D01*
X103883Y93540D01*
X104306Y93116D01*
Y92270D01*
Y92905D01*
X103460D01*
Y89730D02*
Y90576D01*
X103883Y91000D01*
X104306Y90576D01*
Y89730D01*
Y90365D01*
X103460D01*
X100920Y92270D02*
Y93116D01*
X101343Y93540D01*
X101766Y93116D01*
Y92270D01*
Y92905D01*
X100920D01*
Y89730D02*
Y90576D01*
X101343Y91000D01*
X101766Y90576D01*
Y89730D01*
Y90365D01*
X100920D01*
X90580Y92270D02*
Y93116D01*
X91003Y93540D01*
X91426Y93116D01*
Y92270D01*
Y92905D01*
X90580D01*
Y89730D02*
Y90576D01*
X91003Y91000D01*
X91426Y90576D01*
Y89730D01*
Y90365D01*
X90580D01*
X88040Y92270D02*
Y93116D01*
X88463Y93540D01*
X88886Y93116D01*
Y92270D01*
Y92905D01*
X88040D01*
Y89730D02*
Y90576D01*
X88463Y91000D01*
X88886Y90576D01*
Y89730D01*
Y90365D01*
X88040D01*
X85500Y92270D02*
Y93116D01*
X85923Y93540D01*
X86346Y93116D01*
Y92270D01*
Y92905D01*
X85500D01*
Y89730D02*
Y90576D01*
X85923Y91000D01*
X86346Y90576D01*
Y89730D01*
Y90365D01*
X85500D01*
X82960Y92270D02*
Y93116D01*
X83383Y93540D01*
X83806Y93116D01*
Y92270D01*
Y92905D01*
X82960D01*
Y89730D02*
Y90576D01*
X83383Y91000D01*
X83806Y90576D01*
Y89730D01*
Y90365D01*
X82960D01*
X80420Y92270D02*
Y93116D01*
X80843Y93540D01*
X81266Y93116D01*
Y92270D01*
Y92905D01*
X80420D01*
Y89730D02*
Y90576D01*
X80843Y91000D01*
X81266Y90576D01*
Y89730D01*
Y90365D01*
X80420D01*
X77680Y81270D02*
Y82116D01*
X78103Y82540D01*
X78526Y82116D01*
Y81270D01*
Y81905D01*
X77680D01*
Y78730D02*
Y79576D01*
X78103Y80000D01*
X78526Y79576D01*
Y78730D01*
Y79365D01*
X77680D01*
X75140Y81270D02*
Y82116D01*
X75563Y82540D01*
X75986Y82116D01*
Y81270D01*
Y81905D01*
X75140D01*
Y78730D02*
Y79576D01*
X75563Y80000D01*
X75986Y79576D01*
Y78730D01*
Y79365D01*
X75140D01*
X72600Y81270D02*
Y82116D01*
X73023Y82540D01*
X73446Y82116D01*
Y81270D01*
Y81905D01*
X72600D01*
Y78730D02*
Y79576D01*
X73023Y80000D01*
X73446Y79576D01*
Y78730D01*
Y79365D01*
X72600D01*
X70060Y81270D02*
Y82116D01*
X70483Y82540D01*
X70906Y82116D01*
Y81270D01*
Y81905D01*
X70060D01*
Y78730D02*
Y79576D01*
X70483Y80000D01*
X70906Y79576D01*
Y78730D01*
Y79365D01*
X70060D01*
X67520Y81270D02*
Y82116D01*
X67943Y82540D01*
X68366Y82116D01*
Y81270D01*
Y81905D01*
X67520D01*
Y78730D02*
Y79576D01*
X67943Y80000D01*
X68366Y79576D01*
Y78730D01*
Y79365D01*
X67520D01*
X70080Y92270D02*
Y93116D01*
X70503Y93540D01*
X70926Y93116D01*
Y92270D01*
Y92905D01*
X70080D01*
Y89730D02*
Y90576D01*
X70503Y91000D01*
X70926Y90576D01*
Y89730D01*
Y90365D01*
X70080D01*
X67540Y92270D02*
Y93116D01*
X67963Y93540D01*
X68386Y93116D01*
Y92270D01*
Y92905D01*
X67540D01*
Y89730D02*
Y90576D01*
X67963Y91000D01*
X68386Y90576D01*
Y89730D01*
Y90365D01*
X67540D01*
X65000Y92270D02*
Y93116D01*
X65423Y93540D01*
X65846Y93116D01*
Y92270D01*
Y92905D01*
X65000D01*
Y89730D02*
Y90576D01*
X65423Y91000D01*
X65846Y90576D01*
Y89730D01*
Y90365D01*
X65000D01*
X62460Y92270D02*
Y93116D01*
X62883Y93540D01*
X63306Y93116D01*
Y92270D01*
Y92905D01*
X62460D01*
Y89730D02*
Y90576D01*
X62883Y91000D01*
X63306Y90576D01*
Y89730D01*
Y90365D01*
X62460D01*
X59920Y92270D02*
Y93116D01*
X60343Y93540D01*
X60766Y93116D01*
Y92270D01*
Y92905D01*
X59920D01*
Y89730D02*
Y90576D01*
X60343Y91000D01*
X60766Y90576D01*
Y89730D01*
Y90365D01*
X59920D01*
X39890Y82931D02*
Y83777D01*
X40313Y84201D01*
X40736Y83777D01*
Y82931D01*
Y83566D01*
X39890D01*
Y80391D02*
Y81237D01*
X40313Y81661D01*
X40736Y81237D01*
Y80391D01*
Y81026D01*
X39890D01*
X37350Y82931D02*
Y83777D01*
X37773Y84201D01*
X38196Y83777D01*
Y82931D01*
Y83566D01*
X37350D01*
Y80391D02*
Y81237D01*
X37773Y81661D01*
X38196Y81237D01*
Y80391D01*
Y81026D01*
X37350D01*
X34810Y82931D02*
Y83777D01*
X35233Y84201D01*
X35656Y83777D01*
Y82931D01*
Y83566D01*
X34810D01*
Y80391D02*
Y81237D01*
X35233Y81661D01*
X35656Y81237D01*
Y80391D01*
Y81026D01*
X34810D01*
X32270Y82931D02*
Y83777D01*
X32693Y84201D01*
X33116Y83777D01*
Y82931D01*
Y83566D01*
X32270D01*
Y80391D02*
Y81237D01*
X32693Y81661D01*
X33116Y81237D01*
Y80391D01*
Y81026D01*
X32270D01*
X29730Y82931D02*
Y83777D01*
X30153Y84201D01*
X30576Y83777D01*
Y82931D01*
Y83566D01*
X29730D01*
Y80391D02*
Y81237D01*
X30153Y81661D01*
X30576Y81237D01*
Y80391D01*
Y81026D01*
X29730D01*
X27190Y82931D02*
Y83777D01*
X27613Y84201D01*
X28036Y83777D01*
Y82931D01*
Y83566D01*
X27190D01*
Y80391D02*
Y81237D01*
X27613Y81661D01*
X28036Y81237D01*
Y80391D01*
Y81026D01*
X27190D01*
X24650Y82931D02*
Y83777D01*
X25073Y84201D01*
X25496Y83777D01*
Y82931D01*
Y83566D01*
X24650D01*
Y80391D02*
Y81237D01*
X25073Y81661D01*
X25496Y81237D01*
Y80391D01*
Y81026D01*
X24650D01*
X22110Y82931D02*
Y83777D01*
X22533Y84201D01*
X22956Y83777D01*
Y82931D01*
Y83566D01*
X22110D01*
Y80391D02*
Y81237D01*
X22533Y81661D01*
X22956Y81237D01*
Y80391D01*
Y81026D01*
X22110D01*
X39890Y92075D02*
Y92921D01*
X40313Y93345D01*
X40736Y92921D01*
Y92075D01*
Y92710D01*
X39890D01*
Y89535D02*
Y90381D01*
X40313Y90805D01*
X40736Y90381D01*
Y89535D01*
Y90170D01*
X39890D01*
X37350Y92075D02*
Y92921D01*
X37773Y93345D01*
X38196Y92921D01*
Y92075D01*
Y92710D01*
X37350D01*
Y89535D02*
Y90381D01*
X37773Y90805D01*
X38196Y90381D01*
Y89535D01*
Y90170D01*
X37350D01*
X34810Y92075D02*
Y92921D01*
X35233Y93345D01*
X35656Y92921D01*
Y92075D01*
Y92710D01*
X34810D01*
Y89535D02*
Y90381D01*
X35233Y90805D01*
X35656Y90381D01*
Y89535D01*
Y90170D01*
X34810D01*
X32270Y92075D02*
Y92921D01*
X32693Y93345D01*
X33116Y92921D01*
Y92075D01*
Y92710D01*
X32270D01*
Y89535D02*
Y90381D01*
X32693Y90805D01*
X33116Y90381D01*
Y89535D01*
Y90170D01*
X32270D01*
X29730Y92075D02*
Y92921D01*
X30153Y93345D01*
X30576Y92921D01*
Y92075D01*
Y92710D01*
X29730D01*
Y89535D02*
Y90381D01*
X30153Y90805D01*
X30576Y90381D01*
Y89535D01*
Y90170D01*
X29730D01*
X27190Y92075D02*
Y92921D01*
X27613Y93345D01*
X28036Y92921D01*
Y92075D01*
Y92710D01*
X27190D01*
Y89535D02*
Y90381D01*
X27613Y90805D01*
X28036Y90381D01*
Y89535D01*
Y90170D01*
X27190D01*
X24650Y92075D02*
Y92921D01*
X25073Y93345D01*
X25496Y92921D01*
Y92075D01*
Y92710D01*
X24650D01*
Y89535D02*
Y90381D01*
X25073Y90805D01*
X25496Y90381D01*
Y89535D01*
Y90170D01*
X24650D01*
X22110Y92075D02*
Y92921D01*
X22533Y93345D01*
X22956Y92921D01*
Y92075D01*
Y92710D01*
X22110D01*
Y89535D02*
Y90381D01*
X22533Y90805D01*
X22956Y90381D01*
Y89535D01*
Y90170D01*
X22110D01*
X67183Y34417D02*
Y35263D01*
X67606Y35687D01*
X68029Y35263D01*
Y34417D01*
Y35052D01*
X67183D01*
Y31877D02*
Y32723D01*
X67606Y33147D01*
X68029Y32723D01*
Y31877D01*
Y32512D01*
X67183D01*
X64643Y34417D02*
Y35263D01*
X65066Y35687D01*
X65489Y35263D01*
Y34417D01*
Y35052D01*
X64643D01*
Y31877D02*
Y32723D01*
X65066Y33147D01*
X65489Y32723D01*
Y31877D01*
Y32512D01*
X64643D01*
X62103Y34417D02*
Y35263D01*
X62526Y35687D01*
X62949Y35263D01*
Y34417D01*
Y35052D01*
X62103D01*
Y31877D02*
Y32723D01*
X62526Y33147D01*
X62949Y32723D01*
Y31877D01*
Y32512D01*
X62103D01*
X59563Y34417D02*
Y35263D01*
X59986Y35687D01*
X60409Y35263D01*
Y34417D01*
Y35052D01*
X59563D01*
Y31877D02*
Y32723D01*
X59986Y33147D01*
X60409Y32723D01*
Y31877D01*
Y32512D01*
X59563D01*
X57023Y34417D02*
Y35263D01*
X57446Y35687D01*
X57869Y35263D01*
Y34417D01*
Y35052D01*
X57023D01*
Y31877D02*
Y32723D01*
X57446Y33147D01*
X57869Y32723D01*
Y31877D01*
Y32512D01*
X57023D01*
X35052Y53080D02*
Y53926D01*
X35475Y54350D01*
X35898Y53926D01*
Y53080D01*
Y53715D01*
X35052D01*
X37592Y53080D02*
Y53926D01*
X38015Y54350D01*
X38438Y53926D01*
Y53080D01*
Y53715D01*
X37592D01*
X35052Y50540D02*
Y51386D01*
X35475Y51810D01*
X35898Y51386D01*
Y50540D01*
Y51175D01*
X35052D01*
X37592Y50540D02*
Y51386D01*
X38015Y51810D01*
X38438Y51386D01*
Y50540D01*
Y51175D01*
X37592D01*
X35052Y48000D02*
Y48846D01*
X35475Y49270D01*
X35898Y48846D01*
Y48000D01*
Y48635D01*
X35052D01*
X37592Y48000D02*
Y48846D01*
X38015Y49270D01*
X38438Y48846D01*
Y48000D01*
Y48635D01*
X37592D01*
X35052Y45460D02*
Y46306D01*
X35475Y46730D01*
X35898Y46306D01*
Y45460D01*
Y46095D01*
X35052D01*
X37592Y45460D02*
Y46306D01*
X38015Y46730D01*
X38438Y46306D01*
Y45460D01*
Y46095D01*
X37592D01*
X35052Y42920D02*
Y43766D01*
X35475Y44190D01*
X35898Y43766D01*
Y42920D01*
Y43555D01*
X35052D01*
X37592Y42920D02*
Y43766D01*
X38015Y44190D01*
X38438Y43766D01*
Y42920D01*
Y43555D01*
X37592D01*
X46580Y34417D02*
Y35263D01*
X47003Y35687D01*
X47426Y35263D01*
Y34417D01*
Y35052D01*
X46580D01*
Y31877D02*
Y32723D01*
X47003Y33147D01*
X47426Y32723D01*
Y31877D01*
Y32512D01*
X46580D01*
X44040Y34417D02*
Y35263D01*
X44463Y35687D01*
X44886Y35263D01*
Y34417D01*
Y35052D01*
X44040D01*
Y31877D02*
Y32723D01*
X44463Y33147D01*
X44886Y32723D01*
Y31877D01*
Y32512D01*
X44040D01*
X41500Y34417D02*
Y35263D01*
X41923Y35687D01*
X42346Y35263D01*
Y34417D01*
Y35052D01*
X41500D01*
Y31877D02*
Y32723D01*
X41923Y33147D01*
X42346Y32723D01*
Y31877D01*
Y32512D01*
X41500D01*
X38960Y34417D02*
Y35263D01*
X39383Y35687D01*
X39806Y35263D01*
Y34417D01*
Y35052D01*
X38960D01*
Y31877D02*
Y32723D01*
X39383Y33147D01*
X39806Y32723D01*
Y31877D01*
Y32512D01*
X38960D01*
X36420Y34417D02*
Y35263D01*
X36843Y35687D01*
X37266Y35263D01*
Y34417D01*
Y35052D01*
X36420D01*
Y31877D02*
Y32723D01*
X36843Y33147D01*
X37266Y32723D01*
Y31877D01*
Y32512D01*
X36420D01*
X47371Y76581D02*
Y77427D01*
X47794Y77851D01*
X48217Y77427D01*
Y76581D01*
Y77216D01*
X47371D01*
X49911Y76581D02*
Y77427D01*
X50334Y77851D01*
X50757Y77427D01*
Y76581D01*
Y77216D01*
X49911D01*
X52451Y76581D02*
Y77427D01*
X52874Y77851D01*
X53297Y77427D01*
Y76581D01*
Y77216D01*
X52451D01*
X54991Y76581D02*
Y77427D01*
X55414Y77851D01*
X55837Y77427D01*
Y76581D01*
Y77216D01*
X54991D01*
X89789Y31877D02*
Y32723D01*
X90212Y33147D01*
X90635Y32723D01*
Y31877D01*
Y32512D01*
X89789D01*
Y34417D02*
Y35263D01*
X90212Y35687D01*
X90635Y35263D01*
Y34417D01*
Y35052D01*
X89789D01*
X92329Y31877D02*
Y32723D01*
X92752Y33147D01*
X93175Y32723D01*
Y31877D01*
Y32512D01*
X92329D01*
Y34417D02*
Y35263D01*
X92752Y35687D01*
X93175Y35263D01*
Y34417D01*
Y35052D01*
X92329D01*
X94869Y31877D02*
Y32723D01*
X95292Y33147D01*
X95715Y32723D01*
Y31877D01*
Y32512D01*
X94869D01*
Y34417D02*
Y35263D01*
X95292Y35687D01*
X95715Y35263D01*
Y34417D01*
Y35052D01*
X94869D01*
X97409Y31877D02*
Y32723D01*
X97832Y33147D01*
X98255Y32723D01*
Y31877D01*
Y32512D01*
X97409D01*
Y34417D02*
Y35263D01*
X97832Y35687D01*
X98255Y35263D01*
Y34417D01*
Y35052D01*
X97409D01*
X99949Y31877D02*
Y32723D01*
X100372Y33147D01*
X100795Y32723D01*
Y31877D01*
Y32512D01*
X99949D01*
Y34417D02*
Y35263D01*
X100372Y35687D01*
X100795Y35263D01*
Y34417D01*
Y35052D01*
X99949D01*
X102489Y31877D02*
Y32723D01*
X102912Y33147D01*
X103335Y32723D01*
Y31877D01*
Y32512D01*
X102489D01*
Y34417D02*
Y35263D01*
X102912Y35687D01*
X103335Y35263D01*
Y34417D01*
Y35052D01*
X102489D01*
X105029Y31877D02*
Y32723D01*
X105452Y33147D01*
X105875Y32723D01*
Y31877D01*
Y32512D01*
X105029D01*
Y34417D02*
Y35263D01*
X105452Y35687D01*
X105875Y35263D01*
Y34417D01*
Y35052D01*
X105029D01*
X107569Y31877D02*
Y32723D01*
X107992Y33147D01*
X108415Y32723D01*
Y31877D01*
Y32512D01*
X107569D01*
Y34417D02*
Y35263D01*
X107992Y35687D01*
X108415Y35263D01*
Y34417D01*
Y35052D01*
X107569D01*
X110109Y31877D02*
Y32723D01*
X110532Y33147D01*
X110955Y32723D01*
Y31877D01*
Y32512D01*
X110109D01*
Y34417D02*
Y35263D01*
X110532Y35687D01*
X110955Y35263D01*
Y34417D01*
Y35052D01*
X110109D01*
X112649Y31877D02*
Y32723D01*
X113072Y33147D01*
X113495Y32723D01*
Y31877D01*
Y32512D01*
X112649D01*
Y34417D02*
Y35263D01*
X113072Y35687D01*
X113495Y35263D01*
Y34417D01*
Y35052D01*
X112649D01*
X37846Y60071D02*
Y60917D01*
X38269Y61341D01*
X38692Y60917D01*
Y60071D01*
Y60706D01*
X37846D01*
Y62611D02*
Y63457D01*
X38269Y63881D01*
X38692Y63457D01*
Y62611D01*
Y63246D01*
X37846D01*
X22352Y65786D02*
Y66632D01*
X22775Y67056D01*
X23198Y66632D01*
Y65786D01*
Y66421D01*
X22352D01*
X24892Y65786D02*
Y66632D01*
X25315Y67056D01*
X25738Y66632D01*
Y65786D01*
Y66421D01*
X24892D01*
X27432Y65786D02*
Y66632D01*
X27855Y67056D01*
X28278Y66632D01*
Y65786D01*
Y66421D01*
X27432D01*
X29972Y65786D02*
Y66632D01*
X30395Y67056D01*
X30818Y66632D01*
Y65786D01*
Y66421D01*
X29972D01*
X32512Y65786D02*
Y66632D01*
X32935Y67056D01*
X33358Y66632D01*
Y65786D01*
Y66421D01*
X32512D01*
X35052Y65786D02*
Y66632D01*
X35475Y67056D01*
X35898Y66632D01*
Y65786D01*
Y66421D01*
X35052D01*
X37592Y65786D02*
Y66632D01*
X38015Y67056D01*
X38438Y66632D01*
Y65786D01*
Y66421D01*
X37592D01*
X40132Y65786D02*
Y66632D01*
X40555Y67056D01*
X40978Y66632D01*
Y65786D01*
Y66421D01*
X40132D01*
X22352Y73406D02*
Y74252D01*
X22775Y74676D01*
X23198Y74252D01*
Y73406D01*
Y74041D01*
X22352D01*
X24892Y73406D02*
Y74252D01*
X25315Y74676D01*
X25738Y74252D01*
Y73406D01*
Y74041D01*
X24892D01*
X27432Y73406D02*
Y74252D01*
X27855Y74676D01*
X28278Y74252D01*
Y73406D01*
Y74041D01*
X27432D01*
X29972Y73406D02*
Y74252D01*
X30395Y74676D01*
X30818Y74252D01*
Y73406D01*
Y74041D01*
X29972D01*
X32512Y73406D02*
Y74252D01*
X32935Y74676D01*
X33358Y74252D01*
Y73406D01*
Y74041D01*
X32512D01*
X35052Y73406D02*
Y74252D01*
X35475Y74676D01*
X35898Y74252D01*
Y73406D01*
Y74041D01*
X35052D01*
X37592Y73406D02*
Y74252D01*
X38015Y74676D01*
X38438Y74252D01*
Y73406D01*
Y74041D01*
X37592D01*
X40132Y73406D02*
Y74252D01*
X40555Y74676D01*
X40978Y74252D01*
Y73406D01*
Y74041D01*
X40132D01*
X65913Y25400D02*
Y26246D01*
X66336Y26670D01*
X66759Y26246D01*
Y25400D01*
Y26035D01*
X65913D01*
Y22860D02*
Y23706D01*
X66336Y24130D01*
X66759Y23706D01*
Y22860D01*
Y23495D01*
X65913D01*
Y20320D02*
Y21166D01*
X66336Y21590D01*
X66759Y21166D01*
Y20320D01*
Y20955D01*
X65913D01*
Y17780D02*
Y18626D01*
X66336Y19050D01*
X66759Y18626D01*
Y17780D01*
Y18415D01*
X65913D01*
X73533Y25400D02*
Y26246D01*
X73956Y26670D01*
X74379Y26246D01*
Y25400D01*
Y26035D01*
X73533D01*
Y22860D02*
Y23706D01*
X73956Y24130D01*
X74379Y23706D01*
Y22860D01*
Y23495D01*
X73533D01*
Y20320D02*
Y21166D01*
X73956Y21590D01*
X74379Y21166D01*
Y20320D01*
Y20955D01*
X73533D01*
Y17780D02*
Y18626D01*
X73956Y19050D01*
X74379Y18626D01*
Y17780D01*
Y18415D01*
X73533D01*
X37973Y17399D02*
Y18245D01*
X38396Y18669D01*
X38819Y18245D01*
Y17399D01*
Y18034D01*
X37973D01*
Y19939D02*
Y20785D01*
X38396Y21209D01*
X38819Y20785D01*
Y19939D01*
Y20574D01*
X37973D01*
Y22479D02*
Y23325D01*
X38396Y23749D01*
X38819Y23325D01*
Y22479D01*
Y23114D01*
X37973D01*
Y25019D02*
Y25865D01*
X38396Y26289D01*
X38819Y25865D01*
Y25019D01*
Y25654D01*
X37973D01*
X30353Y17399D02*
Y18245D01*
X30776Y18669D01*
X31199Y18245D01*
Y17399D01*
Y18034D01*
X30353D01*
Y19939D02*
Y20785D01*
X30776Y21209D01*
X31199Y20785D01*
Y19939D01*
Y20574D01*
X30353D01*
Y22479D02*
Y23325D01*
X30776Y23749D01*
X31199Y23325D01*
Y22479D01*
Y23114D01*
X30353D01*
Y25019D02*
Y25865D01*
X30776Y26289D01*
X31199Y25865D01*
Y25019D01*
Y25654D01*
X30353D01*
X109982Y82677D02*
Y83523D01*
X110405Y83947D01*
X110828Y83523D01*
Y82677D01*
Y83312D01*
X109982D01*
X107442Y82677D02*
Y83523D01*
X107865Y83947D01*
X108288Y83523D01*
Y82677D01*
Y83312D01*
X107442D01*
X104902Y82677D02*
Y83523D01*
X105325Y83947D01*
X105748Y83523D01*
Y82677D01*
Y83312D01*
X104902D01*
X102362Y82677D02*
Y83523D01*
X102785Y83947D01*
X103208Y83523D01*
Y82677D01*
Y83312D01*
X102362D01*
X99822Y82677D02*
Y83523D01*
X100245Y83947D01*
X100668Y83523D01*
Y82677D01*
Y83312D01*
X99822D01*
X97282Y82677D02*
Y83523D01*
X97705Y83947D01*
X98128Y83523D01*
Y82677D01*
Y83312D01*
X97282D01*
X94742Y82677D02*
Y83523D01*
X95165Y83947D01*
X95588Y83523D01*
Y82677D01*
Y83312D01*
X94742D01*
X92202Y82677D02*
Y83523D01*
X92625Y83947D01*
X93048Y83523D01*
Y82677D01*
Y83312D01*
X92202D01*
X89662Y82677D02*
Y83523D01*
X90085Y83947D01*
X90508Y83523D01*
Y82677D01*
Y83312D01*
X89662D01*
X87122Y82677D02*
Y83523D01*
X87545Y83947D01*
X87968Y83523D01*
Y82677D01*
Y83312D01*
X87122D01*
X109982Y75057D02*
Y75903D01*
X110405Y76327D01*
X110828Y75903D01*
Y75057D01*
Y75692D01*
X109982D01*
X107442Y75057D02*
Y75903D01*
X107865Y76327D01*
X108288Y75903D01*
Y75057D01*
Y75692D01*
X107442D01*
X104902Y75057D02*
Y75903D01*
X105325Y76327D01*
X105748Y75903D01*
Y75057D01*
Y75692D01*
X104902D01*
X102362Y75057D02*
Y75903D01*
X102785Y76327D01*
X103208Y75903D01*
Y75057D01*
Y75692D01*
X102362D01*
X99822Y75057D02*
Y75903D01*
X100245Y76327D01*
X100668Y75903D01*
Y75057D01*
Y75692D01*
X99822D01*
X97282Y75057D02*
Y75903D01*
X97705Y76327D01*
X98128Y75903D01*
Y75057D01*
Y75692D01*
X97282D01*
X94742Y75057D02*
Y75903D01*
X95165Y76327D01*
X95588Y75903D01*
Y75057D01*
Y75692D01*
X94742D01*
X92202Y75057D02*
Y75903D01*
X92625Y76327D01*
X93048Y75903D01*
Y75057D01*
Y75692D01*
X92202D01*
X89662Y75057D02*
Y75903D01*
X90085Y76327D01*
X90508Y75903D01*
Y75057D01*
Y75692D01*
X89662D01*
X87122Y75057D02*
Y75903D01*
X87545Y76327D01*
X87968Y75903D01*
Y75057D01*
Y75692D01*
X87122D01*
X44667Y49220D02*
Y50066D01*
X45090Y50490D01*
X45513Y50066D01*
Y49220D01*
Y49855D01*
X44667D01*
X47207Y49220D02*
Y50066D01*
X47630Y50490D01*
X48053Y50066D01*
Y49220D01*
Y49855D01*
X47207D01*
X49747Y49220D02*
Y50066D01*
X50170Y50490D01*
X50593Y50066D01*
Y49220D01*
Y49855D01*
X49747D01*
X44667Y51760D02*
Y52606D01*
X45090Y53030D01*
X45513Y52606D01*
Y51760D01*
Y52395D01*
X44667D01*
X47207Y51760D02*
Y52606D01*
X47630Y53030D01*
X48053Y52606D01*
Y51760D01*
Y52395D01*
X47207D01*
X49747Y51760D02*
Y52606D01*
X50170Y53030D01*
X50593Y52606D01*
Y51760D01*
Y52395D01*
X49747D01*
X44667Y54300D02*
Y55146D01*
X45090Y55570D01*
X45513Y55146D01*
Y54300D01*
Y54935D01*
X44667D01*
X47207Y54300D02*
Y55146D01*
X47630Y55570D01*
X48053Y55146D01*
Y54300D01*
Y54935D01*
X47207D01*
X49747Y54300D02*
Y55146D01*
X50170Y55570D01*
X50593Y55146D01*
Y54300D01*
Y54935D01*
X49747D01*
X44667Y56840D02*
Y57686D01*
X45090Y58110D01*
X45513Y57686D01*
Y56840D01*
Y57475D01*
X44667D01*
X47207Y56840D02*
Y57686D01*
X47630Y58110D01*
X48053Y57686D01*
Y56840D01*
Y57475D01*
X47207D01*
X49747Y56840D02*
Y57686D01*
X50170Y58110D01*
X50593Y57686D01*
Y56840D01*
Y57475D01*
X49747D01*
X44667Y59380D02*
Y60226D01*
X45090Y60650D01*
X45513Y60226D01*
Y59380D01*
Y60015D01*
X44667D01*
X47207Y59380D02*
Y60226D01*
X47630Y60650D01*
X48053Y60226D01*
Y59380D01*
Y60015D01*
X47207D01*
X49747Y59380D02*
Y60226D01*
X50170Y60650D01*
X50593Y60226D01*
Y59380D01*
Y60015D01*
X49747D01*
X44667Y61920D02*
Y62766D01*
X45090Y63190D01*
X45513Y62766D01*
Y61920D01*
Y62555D01*
X44667D01*
X47207Y61920D02*
Y62766D01*
X47630Y63190D01*
X48053Y62766D01*
Y61920D01*
Y62555D01*
X47207D01*
X49747Y61920D02*
Y62766D01*
X50170Y63190D01*
X50593Y62766D01*
Y61920D01*
Y62555D01*
X49747D01*
X52287Y61920D02*
Y62766D01*
X52710Y63190D01*
X53133Y62766D01*
Y61920D01*
Y62555D01*
X52287D01*
X44667Y44140D02*
Y44986D01*
X45090Y45410D01*
X45513Y44986D01*
Y44140D01*
Y44775D01*
X44667D01*
X47207Y44140D02*
Y44986D01*
X47630Y45410D01*
X48053Y44986D01*
Y44140D01*
Y44775D01*
X47207D01*
X49747Y44140D02*
Y44986D01*
X50170Y45410D01*
X50593Y44986D01*
Y44140D01*
Y44775D01*
X49747D01*
X52287Y44140D02*
Y44986D01*
X52710Y45410D01*
X53133Y44986D01*
Y44140D01*
Y44775D01*
X52287D01*
X54827Y44140D02*
Y44986D01*
X55250Y45410D01*
X55673Y44986D01*
Y44140D01*
Y44775D01*
X54827D01*
X57367Y44140D02*
Y44986D01*
X57790Y45410D01*
X58213Y44986D01*
Y44140D01*
Y44775D01*
X57367D01*
X59907Y44140D02*
Y44986D01*
X60330Y45410D01*
X60753Y44986D01*
Y44140D01*
Y44775D01*
X59907D01*
X62447Y44140D02*
Y44986D01*
X62870Y45410D01*
X63293Y44986D01*
Y44140D01*
Y44775D01*
X62447D01*
X64987Y44140D02*
Y44986D01*
X65410Y45410D01*
X65833Y44986D01*
Y44140D01*
Y44775D01*
X64987D01*
X67527Y44140D02*
Y44986D01*
X67950Y45410D01*
X68373Y44986D01*
Y44140D01*
Y44775D01*
X67527D01*
X70067Y44140D02*
Y44986D01*
X70490Y45410D01*
X70913Y44986D01*
Y44140D01*
Y44775D01*
X70067D01*
X72607Y44140D02*
Y44986D01*
X73030Y45410D01*
X73453Y44986D01*
Y44140D01*
Y44775D01*
X72607D01*
X75147Y44140D02*
Y44986D01*
X75570Y45410D01*
X75993Y44986D01*
Y44140D01*
Y44775D01*
X75147D01*
X77687Y44140D02*
Y44986D01*
X78110Y45410D01*
X78533Y44986D01*
Y44140D01*
Y44775D01*
X77687D01*
X80227Y44140D02*
Y44986D01*
X80650Y45410D01*
X81073Y44986D01*
Y44140D01*
Y44775D01*
X80227D01*
X82767Y44140D02*
Y44986D01*
X83190Y45410D01*
X83613Y44986D01*
Y44140D01*
Y44775D01*
X82767D01*
X85307Y44140D02*
Y44986D01*
X85730Y45410D01*
X86153Y44986D01*
Y44140D01*
Y44775D01*
X85307D01*
X87847Y44140D02*
Y44986D01*
X88270Y45410D01*
X88693Y44986D01*
Y44140D01*
Y44775D01*
X87847D01*
X90387Y44140D02*
Y44986D01*
X90810Y45410D01*
X91233Y44986D01*
Y44140D01*
Y44775D01*
X90387D01*
X92927Y44140D02*
Y44986D01*
X93350Y45410D01*
X93773Y44986D01*
Y44140D01*
Y44775D01*
X92927D01*
X95467Y44140D02*
Y44986D01*
X95890Y45410D01*
X96313Y44986D01*
Y44140D01*
Y44775D01*
X95467D01*
X98007Y44140D02*
Y44986D01*
X98430Y45410D01*
X98853Y44986D01*
Y44140D01*
Y44775D01*
X98007D01*
X100547Y44140D02*
Y44986D01*
X100970Y45410D01*
X101393Y44986D01*
Y44140D01*
Y44775D01*
X100547D01*
X103087Y44140D02*
Y44986D01*
X103510Y45410D01*
X103933Y44986D01*
Y44140D01*
Y44775D01*
X103087D01*
X105627Y44140D02*
Y44986D01*
X106050Y45410D01*
X106473Y44986D01*
Y44140D01*
Y44775D01*
X105627D01*
X108167Y44140D02*
Y44986D01*
X108590Y45410D01*
X109013Y44986D01*
Y44140D01*
Y44775D01*
X108167D01*
X110707Y44140D02*
Y44986D01*
X111130Y45410D01*
X111553Y44986D01*
Y44140D01*
Y44775D01*
X110707D01*
X44667Y67000D02*
Y67846D01*
X45090Y68270D01*
X45513Y67846D01*
Y67000D01*
Y67635D01*
X44667D01*
X47207Y67000D02*
Y67846D01*
X47630Y68270D01*
X48053Y67846D01*
Y67000D01*
Y67635D01*
X47207D01*
X49747Y67000D02*
Y67846D01*
X50170Y68270D01*
X50593Y67846D01*
Y67000D01*
Y67635D01*
X49747D01*
X52287Y67000D02*
Y67846D01*
X52710Y68270D01*
X53133Y67846D01*
Y67000D01*
Y67635D01*
X52287D01*
X54827Y67000D02*
Y67846D01*
X55250Y68270D01*
X55673Y67846D01*
Y67000D01*
Y67635D01*
X54827D01*
X57367Y67000D02*
Y67846D01*
X57790Y68270D01*
X58213Y67846D01*
Y67000D01*
Y67635D01*
X57367D01*
X59907Y67000D02*
Y67846D01*
X60330Y68270D01*
X60753Y67846D01*
Y67000D01*
Y67635D01*
X59907D01*
X62447Y67000D02*
Y67846D01*
X62870Y68270D01*
X63293Y67846D01*
Y67000D01*
Y67635D01*
X62447D01*
X64987Y67000D02*
Y67846D01*
X65410Y68270D01*
X65833Y67846D01*
Y67000D01*
Y67635D01*
X64987D01*
X67527Y67000D02*
Y67846D01*
X67950Y68270D01*
X68373Y67846D01*
Y67000D01*
Y67635D01*
X67527D01*
X70067Y67000D02*
Y67846D01*
X70490Y68270D01*
X70913Y67846D01*
Y67000D01*
Y67635D01*
X70067D01*
X72607Y67000D02*
Y67846D01*
X73030Y68270D01*
X73453Y67846D01*
Y67000D01*
Y67635D01*
X72607D01*
X75147Y67000D02*
Y67846D01*
X75570Y68270D01*
X75993Y67846D01*
Y67000D01*
Y67635D01*
X75147D01*
X77687Y67000D02*
Y67846D01*
X78110Y68270D01*
X78533Y67846D01*
Y67000D01*
Y67635D01*
X77687D01*
X80227Y67000D02*
Y67846D01*
X80650Y68270D01*
X81073Y67846D01*
Y67000D01*
Y67635D01*
X80227D01*
X82767Y67000D02*
Y67846D01*
X83190Y68270D01*
X83613Y67846D01*
Y67000D01*
Y67635D01*
X82767D01*
X85307Y67000D02*
Y67846D01*
X85730Y68270D01*
X86153Y67846D01*
Y67000D01*
Y67635D01*
X85307D01*
X87847Y67000D02*
Y67846D01*
X88270Y68270D01*
X88693Y67846D01*
Y67000D01*
Y67635D01*
X87847D01*
X90387Y67000D02*
Y67846D01*
X90810Y68270D01*
X91233Y67846D01*
Y67000D01*
Y67635D01*
X90387D01*
X92927Y67000D02*
Y67846D01*
X93350Y68270D01*
X93773Y67846D01*
Y67000D01*
Y67635D01*
X92927D01*
X95467Y67000D02*
Y67846D01*
X95890Y68270D01*
X96313Y67846D01*
Y67000D01*
Y67635D01*
X95467D01*
X98007Y67000D02*
Y67846D01*
X98430Y68270D01*
X98853Y67846D01*
Y67000D01*
Y67635D01*
X98007D01*
X100547Y67000D02*
Y67846D01*
X100970Y68270D01*
X101393Y67846D01*
Y67000D01*
Y67635D01*
X100547D01*
X103087Y67000D02*
Y67846D01*
X103510Y68270D01*
X103933Y67846D01*
Y67000D01*
Y67635D01*
X103087D01*
X105627Y67000D02*
Y67846D01*
X106050Y68270D01*
X106473Y67846D01*
Y67000D01*
Y67635D01*
X105627D01*
X108167Y67000D02*
Y67846D01*
X108590Y68270D01*
X109013Y67846D01*
Y67000D01*
Y67635D01*
X108167D01*
X110707Y67000D02*
Y67846D01*
X111130Y68270D01*
X111553Y67846D01*
Y67000D01*
Y67635D01*
X110707D01*
X113247Y46680D02*
Y47526D01*
X113670Y47950D01*
X114093Y47526D01*
Y46680D01*
Y47315D01*
X113247D01*
Y49220D02*
Y50066D01*
X113670Y50490D01*
X114093Y50066D01*
Y49220D01*
Y49855D01*
X113247D01*
Y51760D02*
Y52606D01*
X113670Y53030D01*
X114093Y52606D01*
Y51760D01*
Y52395D01*
X113247D01*
Y54300D02*
Y55146D01*
X113670Y55570D01*
X114093Y55146D01*
Y54300D01*
Y54935D01*
X113247D01*
Y56840D02*
Y57686D01*
X113670Y58110D01*
X114093Y57686D01*
Y56840D01*
Y57475D01*
X113247D01*
Y59380D02*
Y60226D01*
X113670Y60650D01*
X114093Y60226D01*
Y59380D01*
Y60015D01*
X113247D01*
Y61920D02*
Y62766D01*
X113670Y63190D01*
X114093Y62766D01*
Y61920D01*
Y62555D01*
X113247D01*
Y64460D02*
Y65306D01*
X113670Y65730D01*
X114093Y65306D01*
Y64460D01*
Y65095D01*
X113247D01*
X84328Y81407D02*
Y80137D01*
Y80560D01*
X85174Y81407D01*
X84540Y80772D01*
X85174Y80137D01*
X84328Y83947D02*
Y82677D01*
Y83100D01*
X85174Y83947D01*
X84540Y83312D01*
X85174Y82677D01*
X40640Y61849D02*
Y60579D01*
Y61002D01*
X41486Y61849D01*
X40852Y61214D01*
X41486Y60579D01*
X40640Y64389D02*
Y63119D01*
Y63542D01*
X41486Y64389D01*
X40852Y63754D01*
X41486Y63119D01*
X34972Y4940D02*
X34549D01*
X34761D01*
Y3882D01*
X34549Y3670D01*
X34338D01*
X34126Y3882D01*
X19732Y4940D02*
X19309D01*
X19521D01*
Y3882D01*
X19309Y3670D01*
X19098D01*
X18886Y3882D01*
X31506Y12520D02*
Y11250D01*
X32352D01*
X34006Y10020D02*
Y8750D01*
X34852D01*
X19006Y10020D02*
Y8750D01*
X19852D01*
X21506Y12520D02*
Y11250D01*
X22352D01*
X26506Y10020D02*
Y8750D01*
X27352D01*
X24006Y20D02*
Y-1250D01*
X24852D01*
X29006Y20D02*
Y-1250D01*
X29852D01*
X31506Y20D02*
Y-1250D01*
X32352D01*
X21506Y20D02*
Y-1250D01*
X22352D01*
X42080Y20D02*
Y-1250D01*
X42926D01*
X52080Y20D02*
Y-1250D01*
X52926D01*
X49580Y20D02*
Y-1250D01*
X50426D01*
X44580Y20D02*
Y-1250D01*
X45426D01*
X47080Y10020D02*
Y8750D01*
X47926D01*
X42080Y12520D02*
Y11250D01*
X42926D01*
X39580Y10020D02*
Y8750D01*
X40426D01*
X54580Y10020D02*
Y8750D01*
X55426D01*
X52080Y12520D02*
Y11250D01*
X52926D01*
X40306Y4940D02*
X39883D01*
X40095D01*
Y3882D01*
X39883Y3670D01*
X39672D01*
X39460Y3882D01*
X55546Y4940D02*
X55123D01*
X55335D01*
Y3882D01*
X55123Y3670D01*
X54912D01*
X54700Y3882D01*
X76120Y4940D02*
X75697D01*
X75909D01*
Y3882D01*
X75697Y3670D01*
X75486D01*
X75274Y3882D01*
X60880Y4940D02*
X60457D01*
X60669D01*
Y3882D01*
X60457Y3670D01*
X60246D01*
X60034Y3882D01*
X72654Y12520D02*
Y11250D01*
X73500D01*
X75154Y10020D02*
Y8750D01*
X76000D01*
X60154Y10020D02*
Y8750D01*
X61000D01*
X62654Y12520D02*
Y11250D01*
X63500D01*
X67654Y10020D02*
Y8750D01*
X68500D01*
X65154Y20D02*
Y-1250D01*
X66000D01*
X70154Y20D02*
Y-1250D01*
X71000D01*
X72654Y20D02*
Y-1250D01*
X73500D01*
X62654Y20D02*
Y-1250D01*
X63500D01*
X83228Y20D02*
Y-1250D01*
X84074D01*
X93228Y20D02*
Y-1250D01*
X94074D01*
X90728Y20D02*
Y-1250D01*
X91574D01*
X85728Y20D02*
Y-1250D01*
X86574D01*
X88228Y10020D02*
Y8750D01*
X89074D01*
X83228Y12520D02*
Y11250D01*
X84074D01*
X80728Y10020D02*
Y8750D01*
X81574D01*
X95728Y10020D02*
Y8750D01*
X96574D01*
X93228Y12520D02*
Y11250D01*
X94074D01*
X81454Y4940D02*
X81031D01*
X81243D01*
Y3882D01*
X81031Y3670D01*
X80820D01*
X80608Y3882D01*
X96694Y4940D02*
X96271D01*
X96483D01*
Y3882D01*
X96271Y3670D01*
X96060D01*
X95848Y3882D01*
X5334Y64135D02*
Y62865D01*
Y63288D01*
X6180Y64135D01*
X5546Y63500D01*
X6180Y62865D01*
X5334Y66675D02*
Y65405D01*
Y65828D01*
X6180Y66675D01*
X5546Y66040D01*
X6180Y65405D01*
X5334Y61214D02*
Y59944D01*
Y60367D01*
X6180Y61214D01*
X5546Y60579D01*
X6180Y59944D01*
X5334Y58674D02*
Y57404D01*
Y57827D01*
X6180Y58674D01*
X5546Y58039D01*
X6180Y57404D01*
X1524Y51308D02*
Y52154D01*
X1947Y52578D01*
X2370Y52154D01*
Y51308D01*
Y51943D01*
X1524D01*
X4064Y51308D02*
Y52154D01*
X4487Y52578D01*
X4910Y52154D01*
Y51308D01*
Y51943D01*
X4064D01*
X12573Y39497D02*
Y38227D01*
X13208D01*
X13419Y38439D01*
Y39285D01*
X13208Y39497D01*
X12573D01*
X17653D02*
Y38227D01*
X18288D01*
X18499Y38439D01*
Y39285D01*
X18288Y39497D01*
X17653D01*
X14732Y83566D02*
Y84836D01*
X15155Y84412D01*
X15578Y84836D01*
Y83566D01*
X14732Y75946D02*
Y77216D01*
X15155Y76792D01*
X15578Y77216D01*
Y75946D01*
X19050Y73406D02*
Y74676D01*
X19473Y74252D01*
X19896Y74676D01*
Y73406D01*
X19050Y65786D02*
Y67056D01*
X19473Y66632D01*
X19896Y67056D01*
Y65786D01*
X24892Y62484D02*
Y63330D01*
X25315Y63754D01*
X25738Y63330D01*
Y62484D01*
Y63119D01*
X24892D01*
X27432Y62484D02*
Y63330D01*
X27855Y63754D01*
X28278Y63330D01*
Y62484D01*
Y63119D01*
X27432D01*
X29972Y62484D02*
Y63330D01*
X30395Y63754D01*
X30818Y63330D01*
Y62484D01*
Y63119D01*
X29972D01*
X32512Y62484D02*
Y63330D01*
X32935Y63754D01*
X33358Y63330D01*
Y62484D01*
Y63119D01*
X32512D01*
X35052Y62484D02*
Y63330D01*
X35475Y63754D01*
X35898Y63330D01*
Y62484D01*
Y63119D01*
X35052D01*
X89770Y27051D02*
Y27897D01*
X90193Y28321D01*
X90616Y27897D01*
Y27051D01*
Y27686D01*
X89770D01*
X92310Y27051D02*
Y27897D01*
X92733Y28321D01*
X93156Y27897D01*
Y27051D01*
Y27686D01*
X92310D01*
X94850Y27051D02*
Y27897D01*
X95273Y28321D01*
X95696Y27897D01*
Y27051D01*
Y27686D01*
X94850D01*
X97390Y27051D02*
Y27897D01*
X97813Y28321D01*
X98236Y27897D01*
Y27051D01*
Y27686D01*
X97390D01*
X99930Y27051D02*
Y27897D01*
X100353Y28321D01*
X100776Y27897D01*
Y27051D01*
Y27686D01*
X99930D01*
X61214Y24638D02*
Y25908D01*
X61637Y25484D01*
X62060Y25908D01*
Y24638D01*
X61214Y17018D02*
Y18288D01*
X61637Y17864D01*
X62060Y18288D01*
Y17018D01*
X91186Y17145D02*
Y18415D01*
X91609Y17991D01*
X92032Y18415D01*
Y17145D01*
X91186Y24765D02*
Y26035D01*
X91609Y25611D01*
X92032Y26035D01*
Y24765D01*
X84963Y25019D02*
Y26289D01*
X85386Y25865D01*
X85809Y26289D01*
Y25019D01*
X84963Y17399D02*
Y18669D01*
X85386Y18245D01*
X85809Y18669D01*
Y17399D01*
X78359Y17272D02*
Y18542D01*
X78782Y18118D01*
X79205Y18542D01*
Y17272D01*
X78359Y24892D02*
Y26162D01*
X78782Y25738D01*
X79205Y26162D01*
Y24892D01*
X81280Y25146D02*
Y26416D01*
X81703Y25992D01*
X82126Y26416D01*
Y25146D01*
X81280Y17526D02*
Y18796D01*
X81703Y18372D01*
X82126Y18796D01*
Y17526D01*
X52070Y17272D02*
Y18542D01*
X52493Y18118D01*
X52916Y18542D01*
Y17272D01*
X52070Y24892D02*
Y26162D01*
X52493Y25738D01*
X52916Y26162D01*
Y24892D01*
X48895D02*
Y26162D01*
X49318Y25738D01*
X49741Y26162D01*
Y24892D01*
X48895Y17272D02*
Y18542D01*
X49318Y18118D01*
X49741Y18542D01*
Y17272D01*
X42291D02*
Y18542D01*
X42714Y18118D01*
X43137Y18542D01*
Y17272D01*
X42291Y24892D02*
Y26162D01*
X42714Y25738D01*
X43137Y26162D01*
Y24892D01*
X45720D02*
Y26162D01*
X46143Y25738D01*
X46566Y26162D01*
Y24892D01*
X45720Y17272D02*
Y18542D01*
X46143Y18118D01*
X46566Y18542D01*
Y17272D01*
X57150Y24601D02*
Y25447D01*
X57573Y25871D01*
X57996Y25447D01*
Y24601D01*
Y25236D01*
X57150D01*
Y16801D02*
Y17647D01*
X57573Y18071D01*
X57996Y17647D01*
Y16801D01*
Y17436D01*
X57150D01*
X26035Y24765D02*
Y26035D01*
X26458Y25611D01*
X26881Y26035D01*
Y24765D01*
X26035Y17145D02*
Y18415D01*
X26458Y17991D01*
X26881Y18415D01*
Y17145D01*
X22860Y24728D02*
Y25574D01*
X23283Y25998D01*
X23706Y25574D01*
Y24728D01*
Y25363D01*
X22860D01*
Y16928D02*
Y17774D01*
X23283Y18198D01*
X23706Y17774D01*
Y16928D01*
Y17563D01*
X22860D01*
X48260Y80264D02*
Y81534D01*
X48683Y81110D01*
X49106Y81534D01*
Y80264D01*
X55880D02*
Y81534D01*
X56303Y81110D01*
X56726Y81534D01*
Y80264D01*
X48260Y83312D02*
Y84582D01*
X48683Y84158D01*
X49106Y84582D01*
Y83312D01*
X55880D02*
Y84582D01*
X56303Y84158D01*
X56726Y84582D01*
Y83312D01*
X75057Y31623D02*
Y32893D01*
X75480Y32469D01*
X75903Y32893D01*
Y31623D01*
X82677D02*
Y32893D01*
X83100Y32469D01*
X83523Y32893D01*
Y31623D01*
X109093Y24759D02*
Y25605D01*
X109516Y26029D01*
X109939Y25605D01*
Y24759D01*
Y25394D01*
X109093D01*
Y17659D02*
Y18505D01*
X109516Y18929D01*
X109939Y18505D01*
Y17659D01*
Y18294D01*
X109093D01*
X105918Y25273D02*
Y26543D01*
X106341Y26119D01*
X106764Y26543D01*
Y25273D01*
X105918Y17653D02*
Y18923D01*
X106341Y18499D01*
X106764Y18923D01*
Y17653D01*
X75184Y28448D02*
Y29718D01*
X75607Y29294D01*
X76030Y29718D01*
Y28448D01*
X82804D02*
Y29718D01*
X83227Y29294D01*
X83650Y29718D01*
Y28448D01*
X5461Y39497D02*
Y38227D01*
Y38650D01*
X6307Y39497D01*
X5673Y38862D01*
X6307Y38227D01*
X5461Y34417D02*
Y33147D01*
Y33570D01*
X6307Y34417D01*
X5673Y33782D01*
X6307Y33147D01*
X96647Y21209D02*
Y22055D01*
X97070Y22479D01*
X97493Y22055D01*
Y21209D01*
Y21844D01*
X96647D01*
X94107Y21209D02*
Y22055D01*
X94530Y22479D01*
X94953Y22055D01*
Y21209D01*
Y21844D01*
X94107D01*
X43434Y40767D02*
Y42037D01*
X44280Y40767D01*
Y42037D01*
X41275Y54610D02*
Y55880D01*
X42121Y54610D01*
Y55880D01*
D77*
X8675Y169638D02*
X8504Y169810D01*
X8247Y169895D01*
X7904D01*
X7647Y169810D01*
X7475Y169638D01*
Y169467D01*
X7561Y169295D01*
X7647Y169210D01*
X7818Y169124D01*
X8332Y168953D01*
X8504Y168867D01*
X8589Y168781D01*
X8675Y168610D01*
Y168353D01*
X8504Y168181D01*
X8247Y168096D01*
X7904D01*
X7647Y168181D01*
X7475Y168353D01*
X9164Y169295D02*
X9678Y168096D01*
X10192Y169295D02*
X9678Y168096D01*
X9506Y167753D01*
X9335Y167581D01*
X9164Y167496D01*
X9078D01*
X10492Y169295D02*
Y168096D01*
Y168953D02*
X10749Y169210D01*
X10920Y169295D01*
X11177D01*
X11349Y169210D01*
X11434Y168953D01*
Y168096D01*
Y168953D02*
X11692Y169210D01*
X11863Y169295D01*
X12120D01*
X12291Y169210D01*
X12377Y168953D01*
Y168096D01*
X12943Y169895D02*
Y168096D01*
Y169038D02*
X13114Y169210D01*
X13286Y169295D01*
X13543D01*
X13714Y169210D01*
X13885Y169038D01*
X13971Y168781D01*
Y168610D01*
X13885Y168353D01*
X13714Y168181D01*
X13543Y168096D01*
X13286D01*
X13114Y168181D01*
X12943Y168353D01*
X14785Y169295D02*
X14614Y169210D01*
X14442Y169038D01*
X14357Y168781D01*
Y168610D01*
X14442Y168353D01*
X14614Y168181D01*
X14785Y168096D01*
X15042D01*
X15214Y168181D01*
X15385Y168353D01*
X15471Y168610D01*
Y168781D01*
X15385Y169038D01*
X15214Y169210D01*
X15042Y169295D01*
X14785D01*
X15865Y169895D02*
Y168096D01*
X21155Y169895D02*
Y168096D01*
X22355Y169895D02*
Y168096D01*
X21155Y169038D02*
X22355D01*
X23024Y169895D02*
X23109Y169810D01*
X23195Y169895D01*
X23109Y169981D01*
X23024Y169895D01*
X23109Y169295D02*
Y168096D01*
X23769Y169895D02*
Y168438D01*
X23855Y168181D01*
X24026Y168096D01*
X24198D01*
X23512Y169295D02*
X24112D01*
X27154Y169467D02*
X27068Y169638D01*
X26897Y169810D01*
X26726Y169895D01*
X26383D01*
X26211Y169810D01*
X26040Y169638D01*
X25954Y169467D01*
X25869Y169210D01*
Y168781D01*
X25954Y168524D01*
X26040Y168353D01*
X26211Y168181D01*
X26383Y168096D01*
X26726D01*
X26897Y168181D01*
X27068Y168353D01*
X27154Y168524D01*
X28088Y169295D02*
X27917Y169210D01*
X27745Y169038D01*
X27660Y168781D01*
Y168610D01*
X27745Y168353D01*
X27917Y168181D01*
X28088Y168096D01*
X28345D01*
X28517Y168181D01*
X28688Y168353D01*
X28774Y168610D01*
Y168781D01*
X28688Y169038D01*
X28517Y169210D01*
X28345Y169295D01*
X28088D01*
X29168D02*
Y168438D01*
X29254Y168181D01*
X29425Y168096D01*
X29682D01*
X29853Y168181D01*
X30111Y168438D01*
Y169295D02*
Y168096D01*
X30582Y169295D02*
Y168096D01*
Y168953D02*
X30839Y169210D01*
X31010Y169295D01*
X31267D01*
X31439Y169210D01*
X31525Y168953D01*
Y168096D01*
X32253Y169895D02*
Y168438D01*
X32339Y168181D01*
X32510Y168096D01*
X32681D01*
X31996Y169295D02*
X32596D01*
X35921Y169895D02*
Y168096D01*
Y169895D02*
X37035D01*
X35921Y169038D02*
X36607D01*
X37413Y169895D02*
X37498Y169810D01*
X37584Y169895D01*
X37498Y169981D01*
X37413Y169895D01*
X37498Y169295D02*
Y168096D01*
X37901Y169295D02*
Y168096D01*
Y168953D02*
X38158Y169210D01*
X38329Y169295D01*
X38587D01*
X38758Y169210D01*
X38844Y168953D01*
Y168096D01*
X39486Y169895D02*
X39572Y169810D01*
X39658Y169895D01*
X39572Y169981D01*
X39486Y169895D01*
X39572Y169295D02*
Y168096D01*
X40917Y169038D02*
X40832Y169210D01*
X40575Y169295D01*
X40318D01*
X40061Y169210D01*
X39975Y169038D01*
X40061Y168867D01*
X40232Y168781D01*
X40660Y168696D01*
X40832Y168610D01*
X40917Y168438D01*
Y168353D01*
X40832Y168181D01*
X40575Y168096D01*
X40318D01*
X40061Y168181D01*
X39975Y168353D01*
X41295Y169895D02*
Y168096D01*
Y168953D02*
X41552Y169210D01*
X41723Y169295D01*
X41980D01*
X42152Y169210D01*
X42237Y168953D01*
Y168096D01*
X42709Y168781D02*
X43737D01*
Y168953D01*
X43651Y169124D01*
X43565Y169210D01*
X43394Y169295D01*
X43137D01*
X42966Y169210D01*
X42794Y169038D01*
X42709Y168781D01*
Y168610D01*
X42794Y168353D01*
X42966Y168181D01*
X43137Y168096D01*
X43394D01*
X43565Y168181D01*
X43737Y168353D01*
X45151Y169895D02*
Y168096D01*
Y169038D02*
X44979Y169210D01*
X44808Y169295D01*
X44551D01*
X44380Y169210D01*
X44208Y169038D01*
X44123Y168781D01*
Y168610D01*
X44208Y168353D01*
X44380Y168181D01*
X44551Y168096D01*
X44808D01*
X44979Y168181D01*
X45151Y168353D01*
X47045Y169895D02*
Y168096D01*
X48244Y169895D02*
Y168096D01*
X47045Y169038D02*
X48244D01*
X49170Y169295D02*
X48999Y169210D01*
X48827Y169038D01*
X48742Y168781D01*
Y168610D01*
X48827Y168353D01*
X48999Y168181D01*
X49170Y168096D01*
X49427D01*
X49598Y168181D01*
X49770Y168353D01*
X49856Y168610D01*
Y168781D01*
X49770Y169038D01*
X49598Y169210D01*
X49427Y169295D01*
X49170D01*
X50250Y169895D02*
Y168096D01*
X50627Y168781D02*
X51655D01*
Y168953D01*
X51569Y169124D01*
X51484Y169210D01*
X51312Y169295D01*
X51055D01*
X50884Y169210D01*
X50713Y169038D01*
X50627Y168781D01*
Y168610D01*
X50713Y168353D01*
X50884Y168181D01*
X51055Y168096D01*
X51312D01*
X51484Y168181D01*
X51655Y168353D01*
X54655Y169638D02*
X54483Y169810D01*
X54226Y169895D01*
X53883D01*
X53626Y169810D01*
X53455Y169638D01*
Y169467D01*
X53541Y169295D01*
X53626Y169210D01*
X53798Y169124D01*
X54312Y168953D01*
X54483Y168867D01*
X54569Y168781D01*
X54655Y168610D01*
Y168353D01*
X54483Y168181D01*
X54226Y168096D01*
X53883D01*
X53626Y168181D01*
X53455Y168353D01*
X55229Y169895D02*
X55314Y169810D01*
X55400Y169895D01*
X55314Y169981D01*
X55229Y169895D01*
X55314Y169295D02*
Y168096D01*
X56660Y169295D02*
X55717Y168096D01*
Y169295D02*
X56660D01*
X55717Y168096D02*
X56660D01*
X57037Y168781D02*
X58065D01*
Y168953D01*
X57980Y169124D01*
X57894Y169210D01*
X57722Y169295D01*
X57465D01*
X57294Y169210D01*
X57123Y169038D01*
X57037Y168781D01*
Y168610D01*
X57123Y168353D01*
X57294Y168181D01*
X57465Y168096D01*
X57722D01*
X57894Y168181D01*
X58065Y168353D01*
X61305Y168953D02*
X62076D01*
X62334Y169038D01*
X62419Y169124D01*
X62505Y169295D01*
Y169552D01*
X62419Y169724D01*
X62334Y169810D01*
X62076Y169895D01*
X61305D01*
Y168096D01*
X62908Y169895D02*
Y168096D01*
X64313Y169295D02*
Y168096D01*
Y169038D02*
X64142Y169210D01*
X63970Y169295D01*
X63713D01*
X63542Y169210D01*
X63371Y169038D01*
X63285Y168781D01*
Y168610D01*
X63371Y168353D01*
X63542Y168181D01*
X63713Y168096D01*
X63970D01*
X64142Y168181D01*
X64313Y168353D01*
X65050Y169895D02*
Y168438D01*
X65136Y168181D01*
X65307Y168096D01*
X65479D01*
X64793Y169295D02*
X65393D01*
X65736Y168781D02*
X66764D01*
Y168953D01*
X66678Y169124D01*
X66593Y169210D01*
X66421Y169295D01*
X66164D01*
X65993Y169210D01*
X65821Y169038D01*
X65736Y168781D01*
Y168610D01*
X65821Y168353D01*
X65993Y168181D01*
X66164Y168096D01*
X66421D01*
X66593Y168181D01*
X66764Y168353D01*
X68178Y169895D02*
Y168096D01*
Y169038D02*
X68007Y169210D01*
X67835Y169295D01*
X67578D01*
X67407Y169210D01*
X67235Y169038D01*
X67150Y168781D01*
Y168610D01*
X67235Y168353D01*
X67407Y168181D01*
X67578Y168096D01*
X67835D01*
X68007Y168181D01*
X68178Y168353D01*
X71418Y169895D02*
Y168096D01*
X72618Y169895D02*
Y168096D01*
X71418Y169038D02*
X72618D01*
X73543Y169295D02*
X73372Y169210D01*
X73201Y169038D01*
X73115Y168781D01*
Y168610D01*
X73201Y168353D01*
X73372Y168181D01*
X73543Y168096D01*
X73800D01*
X73972Y168181D01*
X74143Y168353D01*
X74229Y168610D01*
Y168781D01*
X74143Y169038D01*
X73972Y169210D01*
X73800Y169295D01*
X73543D01*
X74623Y169895D02*
Y168096D01*
X75000Y168781D02*
X76028D01*
Y168953D01*
X75943Y169124D01*
X75857Y169210D01*
X75686Y169295D01*
X75429D01*
X75257Y169210D01*
X75086Y169038D01*
X75000Y168781D01*
Y168610D01*
X75086Y168353D01*
X75257Y168181D01*
X75429Y168096D01*
X75686D01*
X75857Y168181D01*
X76028Y168353D01*
X78428Y169895D02*
Y168096D01*
X77828Y169895D02*
X79028D01*
X79328Y169295D02*
X79842Y168096D01*
X80356Y169295D02*
X79842Y168096D01*
X79671Y167753D01*
X79499Y167581D01*
X79328Y167496D01*
X79242D01*
X80656Y169295D02*
Y167496D01*
Y169038D02*
X80827Y169210D01*
X80999Y169295D01*
X81256D01*
X81427Y169210D01*
X81599Y169038D01*
X81684Y168781D01*
Y168610D01*
X81599Y168353D01*
X81427Y168181D01*
X81256Y168096D01*
X80999D01*
X80827Y168181D01*
X80656Y168353D01*
X82070Y168781D02*
X83098D01*
Y168953D01*
X83013Y169124D01*
X82927Y169210D01*
X82756Y169295D01*
X82499D01*
X82327Y169210D01*
X82156Y169038D01*
X82070Y168781D01*
Y168610D01*
X82156Y168353D01*
X82327Y168181D01*
X82499Y168096D01*
X82756D01*
X82927Y168181D01*
X83098Y168353D01*
X5195Y170796D02*
X86338D01*
X5195Y166746D02*
X86338D01*
X5195Y170796D02*
Y121746D01*
X86338Y170796D02*
Y121746D01*
X20015Y170796D02*
Y121746D01*
X34781Y170796D02*
Y121746D01*
X60165Y170796D02*
Y121746D01*
X70278Y170796D02*
Y121746D01*
X5195Y124746D02*
X86338D01*
X5195Y121746D02*
X86338D01*
D78*
X7475Y165995D02*
Y164496D01*
Y165995D02*
X8475Y164496D01*
Y165995D02*
Y164496D01*
X21227Y165638D02*
Y165710D01*
X21298Y165852D01*
X21370Y165924D01*
X21512Y165995D01*
X21798D01*
X21941Y165924D01*
X22012Y165852D01*
X22084Y165710D01*
Y165567D01*
X22012Y165424D01*
X21869Y165210D01*
X21155Y164496D01*
X22155D01*
X36350Y165995D02*
X36136Y165924D01*
X35993Y165710D01*
X35921Y165353D01*
Y165138D01*
X35993Y164781D01*
X36136Y164567D01*
X36350Y164496D01*
X36493D01*
X36707Y164567D01*
X36850Y164781D01*
X36921Y165138D01*
Y165353D01*
X36850Y165710D01*
X36707Y165924D01*
X36493Y165995D01*
X36350D01*
X37328Y164638D02*
X37257Y164567D01*
X37328Y164496D01*
X37400Y164567D01*
X37328Y164638D01*
X37871Y165995D02*
X38657D01*
X38228Y165424D01*
X38442D01*
X38585Y165353D01*
X38657Y165281D01*
X38728Y165067D01*
Y164924D01*
X38657Y164710D01*
X38514Y164567D01*
X38299Y164496D01*
X38085D01*
X37871Y164567D01*
X37800Y164638D01*
X37728Y164781D01*
X39921Y165995D02*
X39206D01*
X39135Y165353D01*
X39206Y165424D01*
X39421Y165495D01*
X39635D01*
X39849Y165424D01*
X39992Y165281D01*
X40063Y165067D01*
Y164924D01*
X39992Y164710D01*
X39849Y164567D01*
X39635Y164496D01*
X39421D01*
X39206Y164567D01*
X39135Y164638D01*
X39064Y164781D01*
X40399Y165495D02*
Y164496D01*
Y165210D02*
X40613Y165424D01*
X40756Y165495D01*
X40970D01*
X41113Y165424D01*
X41185Y165210D01*
Y164496D01*
Y165210D02*
X41399Y165424D01*
X41542Y165495D01*
X41756D01*
X41899Y165424D01*
X41970Y165210D01*
Y164496D01*
X42441Y165495D02*
Y164496D01*
Y165210D02*
X42656Y165424D01*
X42799Y165495D01*
X43013D01*
X43156Y165424D01*
X43227Y165210D01*
Y164496D01*
Y165210D02*
X43441Y165424D01*
X43584Y165495D01*
X43798D01*
X43941Y165424D01*
X44013Y165210D01*
Y164496D01*
X46162Y166281D02*
X46019Y166138D01*
X45876Y165924D01*
X45734Y165638D01*
X45662Y165281D01*
Y164996D01*
X45734Y164638D01*
X45876Y164353D01*
X46019Y164139D01*
X46162Y163996D01*
X46019Y166138D02*
X45876Y165852D01*
X45805Y165638D01*
X45734Y165281D01*
Y164996D01*
X45805Y164638D01*
X45876Y164424D01*
X46019Y164139D01*
X46448Y165710D02*
X46591Y165781D01*
X46805Y165995D01*
Y164496D01*
X47690Y165995D02*
X48476D01*
X48047Y165424D01*
X48262D01*
X48404Y165353D01*
X48476Y165281D01*
X48547Y165067D01*
Y164924D01*
X48476Y164710D01*
X48333Y164567D01*
X48119Y164496D01*
X47905D01*
X47690Y164567D01*
X47619Y164638D01*
X47548Y164781D01*
X48954Y164638D02*
X48883Y164567D01*
X48954Y164496D01*
X49026Y164567D01*
X48954Y164638D01*
X50354Y165995D02*
X49640Y164496D01*
X49354Y165995D02*
X50354D01*
X51047D02*
X50833Y165924D01*
X50761Y165781D01*
Y165638D01*
X50833Y165495D01*
X50975Y165424D01*
X51261Y165353D01*
X51475Y165281D01*
X51618Y165138D01*
X51689Y164996D01*
Y164781D01*
X51618Y164638D01*
X51547Y164567D01*
X51332Y164496D01*
X51047D01*
X50833Y164567D01*
X50761Y164638D01*
X50690Y164781D01*
Y164996D01*
X50761Y165138D01*
X50904Y165281D01*
X51118Y165353D01*
X51404Y165424D01*
X51547Y165495D01*
X51618Y165638D01*
Y165781D01*
X51547Y165924D01*
X51332Y165995D01*
X51047D01*
X52025Y165495D02*
Y164496D01*
Y165210D02*
X52239Y165424D01*
X52382Y165495D01*
X52596D01*
X52739Y165424D01*
X52811Y165210D01*
Y164496D01*
Y165210D02*
X53025Y165424D01*
X53168Y165495D01*
X53382D01*
X53525Y165424D01*
X53596Y165210D01*
Y164496D01*
X54210Y165995D02*
X54282Y165924D01*
X54353Y165995D01*
X54282Y166067D01*
X54210Y165995D01*
X54282Y165495D02*
Y164496D01*
X54617Y165995D02*
Y164496D01*
X54932Y166281D02*
X55074Y166138D01*
X55217Y165924D01*
X55360Y165638D01*
X55432Y165281D01*
Y164996D01*
X55360Y164638D01*
X55217Y164353D01*
X55074Y164139D01*
X54932Y163996D01*
X55074Y166138D02*
X55217Y165852D01*
X55289Y165638D01*
X55360Y165281D01*
Y164996D01*
X55289Y164638D01*
X55217Y164424D01*
X55074Y164139D01*
X61305Y165210D02*
X61948D01*
X62162Y165281D01*
X62234Y165353D01*
X62305Y165495D01*
Y165710D01*
X62234Y165852D01*
X62162Y165924D01*
X61948Y165995D01*
X61305D01*
Y164496D01*
X63141Y165995D02*
Y164496D01*
X62641Y165995D02*
X63640D01*
X63819D02*
Y164496D01*
X64819Y165995D02*
Y164496D01*
X63819Y165281D02*
X64819D01*
X71418Y165995D02*
Y164496D01*
Y165995D02*
X72061D01*
X72275Y165924D01*
X72346Y165852D01*
X72418Y165710D01*
Y165567D01*
X72346Y165424D01*
X72275Y165353D01*
X72061Y165281D01*
X71418D01*
X71918D02*
X72418Y164496D01*
X73111Y165495D02*
X72968Y165424D01*
X72825Y165281D01*
X72753Y165067D01*
Y164924D01*
X72825Y164710D01*
X72968Y164567D01*
X73111Y164496D01*
X73325D01*
X73468Y164567D01*
X73610Y164710D01*
X73682Y164924D01*
Y165067D01*
X73610Y165281D01*
X73468Y165424D01*
X73325Y165495D01*
X73111D01*
X74010D02*
Y164781D01*
X74082Y164567D01*
X74225Y164496D01*
X74439D01*
X74582Y164567D01*
X74796Y164781D01*
Y165495D02*
Y164496D01*
X75189Y165495D02*
Y164496D01*
Y165210D02*
X75403Y165424D01*
X75546Y165495D01*
X75760D01*
X75903Y165424D01*
X75974Y165210D01*
Y164496D01*
X77224Y165995D02*
Y164496D01*
Y165281D02*
X77081Y165424D01*
X76938Y165495D01*
X76724D01*
X76581Y165424D01*
X76438Y165281D01*
X76367Y165067D01*
Y164924D01*
X76438Y164710D01*
X76581Y164567D01*
X76724Y164496D01*
X76938D01*
X77081Y164567D01*
X77224Y164710D01*
X7475Y162995D02*
Y161496D01*
X8475Y162995D02*
X7475Y161996D01*
X7832Y162353D02*
X8475Y161496D01*
X21155Y162710D02*
X21298Y162781D01*
X21512Y162995D01*
Y161496D01*
X22398Y162995D02*
X23183D01*
X22755Y162424D01*
X22969D01*
X23112Y162353D01*
X23183Y162281D01*
X23255Y162067D01*
Y161924D01*
X23183Y161710D01*
X23041Y161567D01*
X22826Y161496D01*
X22612D01*
X22398Y161567D01*
X22327Y161638D01*
X22255Y161781D01*
X36350Y162995D02*
X36136Y162924D01*
X35993Y162710D01*
X35921Y162353D01*
Y162138D01*
X35993Y161781D01*
X36136Y161567D01*
X36350Y161496D01*
X36493D01*
X36707Y161567D01*
X36850Y161781D01*
X36921Y162138D01*
Y162353D01*
X36850Y162710D01*
X36707Y162924D01*
X36493Y162995D01*
X36350D01*
X37328Y161638D02*
X37257Y161567D01*
X37328Y161496D01*
X37400Y161567D01*
X37328Y161638D01*
X38728Y162995D02*
X38014Y161496D01*
X37728Y162995D02*
X38728D01*
X39064Y162495D02*
Y161496D01*
Y162210D02*
X39278Y162424D01*
X39421Y162495D01*
X39635D01*
X39778Y162424D01*
X39849Y162210D01*
Y161496D01*
Y162210D02*
X40063Y162424D01*
X40206Y162495D01*
X40420D01*
X40563Y162424D01*
X40635Y162210D01*
Y161496D01*
X41106Y162495D02*
Y161496D01*
Y162210D02*
X41320Y162424D01*
X41463Y162495D01*
X41677D01*
X41820Y162424D01*
X41892Y162210D01*
Y161496D01*
Y162210D02*
X42106Y162424D01*
X42249Y162495D01*
X42463D01*
X42606Y162424D01*
X42677Y162210D01*
Y161496D01*
X44827Y163281D02*
X44684Y163138D01*
X44541Y162924D01*
X44398Y162638D01*
X44327Y162281D01*
Y161996D01*
X44398Y161638D01*
X44541Y161353D01*
X44684Y161139D01*
X44827Y160996D01*
X44684Y163138D02*
X44541Y162852D01*
X44470Y162638D01*
X44398Y162281D01*
Y161996D01*
X44470Y161638D01*
X44541Y161424D01*
X44684Y161139D01*
X45184Y162638D02*
Y162710D01*
X45255Y162852D01*
X45327Y162924D01*
X45469Y162995D01*
X45755D01*
X45898Y162924D01*
X45969Y162852D01*
X46041Y162710D01*
Y162567D01*
X45969Y162424D01*
X45826Y162210D01*
X45112Y161496D01*
X46112D01*
X47448Y162995D02*
X46733Y161496D01*
X46448Y162995D02*
X47448D01*
X47855Y161638D02*
X47783Y161567D01*
X47855Y161496D01*
X47926Y161567D01*
X47855Y161638D01*
X49111Y162995D02*
X48397D01*
X48326Y162353D01*
X48397Y162424D01*
X48612Y162495D01*
X48826D01*
X49040Y162424D01*
X49183Y162281D01*
X49254Y162067D01*
Y161924D01*
X49183Y161710D01*
X49040Y161567D01*
X48826Y161496D01*
X48612D01*
X48397Y161567D01*
X48326Y161638D01*
X48254Y161781D01*
X50447Y162995D02*
X49733D01*
X49661Y162353D01*
X49733Y162424D01*
X49947Y162495D01*
X50161D01*
X50375Y162424D01*
X50518Y162281D01*
X50590Y162067D01*
Y161924D01*
X50518Y161710D01*
X50375Y161567D01*
X50161Y161496D01*
X49947D01*
X49733Y161567D01*
X49661Y161638D01*
X49590Y161781D01*
X51854Y162495D02*
X51782Y162281D01*
X51639Y162138D01*
X51425Y162067D01*
X51354D01*
X51140Y162138D01*
X50997Y162281D01*
X50925Y162495D01*
Y162567D01*
X50997Y162781D01*
X51140Y162924D01*
X51354Y162995D01*
X51425D01*
X51639Y162924D01*
X51782Y162781D01*
X51854Y162495D01*
Y162138D01*
X51782Y161781D01*
X51639Y161567D01*
X51425Y161496D01*
X51282D01*
X51068Y161567D01*
X50997Y161710D01*
X52261Y162495D02*
Y161496D01*
Y162210D02*
X52475Y162424D01*
X52618Y162495D01*
X52832D01*
X52975Y162424D01*
X53046Y162210D01*
Y161496D01*
Y162210D02*
X53261Y162424D01*
X53403Y162495D01*
X53618D01*
X53760Y162424D01*
X53832Y162210D01*
Y161496D01*
X54446Y162995D02*
X54517Y162924D01*
X54589Y162995D01*
X54517Y163067D01*
X54446Y162995D01*
X54517Y162495D02*
Y161496D01*
X54853Y162995D02*
Y161496D01*
X55167Y163281D02*
X55310Y163138D01*
X55453Y162924D01*
X55596Y162638D01*
X55667Y162281D01*
Y161996D01*
X55596Y161638D01*
X55453Y161353D01*
X55310Y161139D01*
X55167Y160996D01*
X55310Y163138D02*
X55453Y162852D01*
X55524Y162638D01*
X55596Y162281D01*
Y161996D01*
X55524Y161638D01*
X55453Y161424D01*
X55310Y161139D01*
X61305Y162210D02*
X61948D01*
X62162Y162281D01*
X62234Y162353D01*
X62305Y162495D01*
Y162710D01*
X62234Y162852D01*
X62162Y162924D01*
X61948Y162995D01*
X61305D01*
Y161496D01*
X63141Y162995D02*
Y161496D01*
X62641Y162995D02*
X63640D01*
X63819D02*
Y161496D01*
X64819Y162995D02*
Y161496D01*
X63819Y162281D02*
X64819D01*
X71418Y162995D02*
Y161496D01*
Y162995D02*
X72061D01*
X72275Y162924D01*
X72346Y162852D01*
X72418Y162710D01*
Y162567D01*
X72346Y162424D01*
X72275Y162353D01*
X72061Y162281D01*
X71418D01*
X71918D02*
X72418Y161496D01*
X73111Y162495D02*
X72968Y162424D01*
X72825Y162281D01*
X72753Y162067D01*
Y161924D01*
X72825Y161710D01*
X72968Y161567D01*
X73111Y161496D01*
X73325D01*
X73468Y161567D01*
X73610Y161710D01*
X73682Y161924D01*
Y162067D01*
X73610Y162281D01*
X73468Y162424D01*
X73325Y162495D01*
X73111D01*
X74010D02*
Y161781D01*
X74082Y161567D01*
X74225Y161496D01*
X74439D01*
X74582Y161567D01*
X74796Y161781D01*
Y162495D02*
Y161496D01*
X75189Y162495D02*
Y161496D01*
Y162210D02*
X75403Y162424D01*
X75546Y162495D01*
X75760D01*
X75903Y162424D01*
X75974Y162210D01*
Y161496D01*
X77224Y162995D02*
Y161496D01*
Y162281D02*
X77081Y162424D01*
X76938Y162495D01*
X76724D01*
X76581Y162424D01*
X76438Y162281D01*
X76367Y162067D01*
Y161924D01*
X76438Y161710D01*
X76581Y161567D01*
X76724Y161496D01*
X76938D01*
X77081Y161567D01*
X77224Y161710D01*
X8547Y159638D02*
X8475Y159781D01*
X8332Y159924D01*
X8189Y159995D01*
X7904D01*
X7761Y159924D01*
X7618Y159781D01*
X7547Y159638D01*
X7475Y159424D01*
Y159067D01*
X7547Y158853D01*
X7618Y158710D01*
X7761Y158567D01*
X7904Y158496D01*
X8189D01*
X8332Y158567D01*
X8475Y158710D01*
X8547Y158853D01*
X21869Y159995D02*
X21155Y158996D01*
X22227D01*
X21869Y159995D02*
Y158496D01*
X36350Y159995D02*
X36136Y159924D01*
X35993Y159710D01*
X35921Y159353D01*
Y159138D01*
X35993Y158781D01*
X36136Y158567D01*
X36350Y158496D01*
X36493D01*
X36707Y158567D01*
X36850Y158781D01*
X36921Y159138D01*
Y159353D01*
X36850Y159710D01*
X36707Y159924D01*
X36493Y159995D01*
X36350D01*
X37328Y158638D02*
X37257Y158567D01*
X37328Y158496D01*
X37400Y158567D01*
X37328Y158638D01*
X38728Y159995D02*
X38014Y158496D01*
X37728Y159995D02*
X38728D01*
X39921Y159781D02*
X39849Y159924D01*
X39635Y159995D01*
X39492D01*
X39278Y159924D01*
X39135Y159710D01*
X39064Y159353D01*
Y158996D01*
X39135Y158710D01*
X39278Y158567D01*
X39492Y158496D01*
X39563D01*
X39778Y158567D01*
X39921Y158710D01*
X39992Y158924D01*
Y158996D01*
X39921Y159210D01*
X39778Y159353D01*
X39563Y159424D01*
X39492D01*
X39278Y159353D01*
X39135Y159210D01*
X39064Y158996D01*
X40392Y159638D02*
Y159710D01*
X40463Y159852D01*
X40535Y159924D01*
X40678Y159995D01*
X40963D01*
X41106Y159924D01*
X41177Y159852D01*
X41249Y159710D01*
Y159567D01*
X41177Y159424D01*
X41035Y159210D01*
X40320Y158496D01*
X41320D01*
X41656Y159495D02*
Y158496D01*
Y159210D02*
X41870Y159424D01*
X42013Y159495D01*
X42227D01*
X42370Y159424D01*
X42441Y159210D01*
Y158496D01*
Y159210D02*
X42656Y159424D01*
X42799Y159495D01*
X43013D01*
X43156Y159424D01*
X43227Y159210D01*
Y158496D01*
X43698Y159495D02*
Y158496D01*
Y159210D02*
X43913Y159424D01*
X44055Y159495D01*
X44270D01*
X44412Y159424D01*
X44484Y159210D01*
Y158496D01*
Y159210D02*
X44698Y159424D01*
X44841Y159495D01*
X45055D01*
X45198Y159424D01*
X45269Y159210D01*
Y158496D01*
X47419Y160281D02*
X47276Y160138D01*
X47133Y159924D01*
X46990Y159638D01*
X46919Y159281D01*
Y158996D01*
X46990Y158638D01*
X47133Y158353D01*
X47276Y158139D01*
X47419Y157996D01*
X47276Y160138D02*
X47133Y159852D01*
X47062Y159638D01*
X46990Y159281D01*
Y158996D01*
X47062Y158638D01*
X47133Y158424D01*
X47276Y158139D01*
X47847Y159995D02*
X48633D01*
X48204Y159424D01*
X48419D01*
X48562Y159353D01*
X48633Y159281D01*
X48704Y159067D01*
Y158924D01*
X48633Y158710D01*
X48490Y158567D01*
X48276Y158496D01*
X48062D01*
X47847Y158567D01*
X47776Y158638D01*
X47705Y158781D01*
X49469Y159995D02*
X49254Y159924D01*
X49111Y159710D01*
X49040Y159353D01*
Y159138D01*
X49111Y158781D01*
X49254Y158567D01*
X49469Y158496D01*
X49611D01*
X49826Y158567D01*
X49968Y158781D01*
X50040Y159138D01*
Y159353D01*
X49968Y159710D01*
X49826Y159924D01*
X49611Y159995D01*
X49469D01*
X50375Y159495D02*
Y158496D01*
Y159210D02*
X50590Y159424D01*
X50733Y159495D01*
X50947D01*
X51090Y159424D01*
X51161Y159210D01*
Y158496D01*
Y159210D02*
X51375Y159424D01*
X51518Y159495D01*
X51732D01*
X51875Y159424D01*
X51947Y159210D01*
Y158496D01*
X52561Y159995D02*
X52632Y159924D01*
X52704Y159995D01*
X52632Y160067D01*
X52561Y159995D01*
X52632Y159495D02*
Y158496D01*
X52968Y159995D02*
Y158496D01*
X53282Y160281D02*
X53425Y160138D01*
X53568Y159924D01*
X53710Y159638D01*
X53782Y159281D01*
Y158996D01*
X53710Y158638D01*
X53568Y158353D01*
X53425Y158139D01*
X53282Y157996D01*
X53425Y160138D02*
X53568Y159852D01*
X53639Y159638D01*
X53710Y159281D01*
Y158996D01*
X53639Y158638D01*
X53568Y158424D01*
X53425Y158139D01*
X61305Y159210D02*
X61948D01*
X62162Y159281D01*
X62234Y159353D01*
X62305Y159495D01*
Y159710D01*
X62234Y159852D01*
X62162Y159924D01*
X61948Y159995D01*
X61305D01*
Y158496D01*
X63141Y159995D02*
Y158496D01*
X62641Y159995D02*
X63640D01*
X63819D02*
Y158496D01*
X64819Y159995D02*
Y158496D01*
X63819Y159281D02*
X64819D01*
X71418Y159995D02*
Y158496D01*
Y159995D02*
X72061D01*
X72275Y159924D01*
X72346Y159852D01*
X72418Y159710D01*
Y159567D01*
X72346Y159424D01*
X72275Y159353D01*
X72061Y159281D01*
X71418D01*
X71918D02*
X72418Y158496D01*
X73111Y159495D02*
X72968Y159424D01*
X72825Y159281D01*
X72753Y159067D01*
Y158924D01*
X72825Y158710D01*
X72968Y158567D01*
X73111Y158496D01*
X73325D01*
X73468Y158567D01*
X73610Y158710D01*
X73682Y158924D01*
Y159067D01*
X73610Y159281D01*
X73468Y159424D01*
X73325Y159495D01*
X73111D01*
X74010D02*
Y158781D01*
X74082Y158567D01*
X74225Y158496D01*
X74439D01*
X74582Y158567D01*
X74796Y158781D01*
Y159495D02*
Y158496D01*
X75189Y159495D02*
Y158496D01*
Y159210D02*
X75403Y159424D01*
X75546Y159495D01*
X75760D01*
X75903Y159424D01*
X75974Y159210D01*
Y158496D01*
X77224Y159995D02*
Y158496D01*
Y159281D02*
X77081Y159424D01*
X76938Y159495D01*
X76724D01*
X76581Y159424D01*
X76438Y159281D01*
X76367Y159067D01*
Y158924D01*
X76438Y158710D01*
X76581Y158567D01*
X76724Y158496D01*
X76938D01*
X77081Y158567D01*
X77224Y158710D01*
X7475Y156995D02*
Y155496D01*
Y156995D02*
X8047Y155496D01*
X8618Y156995D02*
X8047Y155496D01*
X8618Y156995D02*
Y155496D01*
X21298Y156995D02*
X22084D01*
X21655Y156424D01*
X21869D01*
X22012Y156353D01*
X22084Y156281D01*
X22155Y156067D01*
Y155924D01*
X22084Y155710D01*
X21941Y155567D01*
X21727Y155496D01*
X21512D01*
X21298Y155567D01*
X21227Y155638D01*
X21155Y155781D01*
X23205Y156995D02*
X22491Y155996D01*
X23562D01*
X23205Y156995D02*
Y155496D01*
X36350Y156995D02*
X36136Y156924D01*
X35993Y156710D01*
X35921Y156353D01*
Y156138D01*
X35993Y155781D01*
X36136Y155567D01*
X36350Y155496D01*
X36493D01*
X36707Y155567D01*
X36850Y155781D01*
X36921Y156138D01*
Y156353D01*
X36850Y156710D01*
X36707Y156924D01*
X36493Y156995D01*
X36350D01*
X37328Y155638D02*
X37257Y155567D01*
X37328Y155496D01*
X37400Y155567D01*
X37328Y155638D01*
X38085Y156995D02*
X37871Y156924D01*
X37800Y156781D01*
Y156638D01*
X37871Y156495D01*
X38014Y156424D01*
X38299Y156353D01*
X38514Y156281D01*
X38657Y156138D01*
X38728Y155996D01*
Y155781D01*
X38657Y155638D01*
X38585Y155567D01*
X38371Y155496D01*
X38085D01*
X37871Y155567D01*
X37800Y155638D01*
X37728Y155781D01*
Y155996D01*
X37800Y156138D01*
X37942Y156281D01*
X38157Y156353D01*
X38442Y156424D01*
X38585Y156495D01*
X38657Y156638D01*
Y156781D01*
X38585Y156924D01*
X38371Y156995D01*
X38085D01*
X39921D02*
X39206D01*
X39135Y156353D01*
X39206Y156424D01*
X39421Y156495D01*
X39635D01*
X39849Y156424D01*
X39992Y156281D01*
X40063Y156067D01*
Y155924D01*
X39992Y155710D01*
X39849Y155567D01*
X39635Y155496D01*
X39421D01*
X39206Y155567D01*
X39135Y155638D01*
X39064Y155781D01*
X40399Y156495D02*
Y155496D01*
Y156210D02*
X40613Y156424D01*
X40756Y156495D01*
X40970D01*
X41113Y156424D01*
X41185Y156210D01*
Y155496D01*
Y156210D02*
X41399Y156424D01*
X41542Y156495D01*
X41756D01*
X41899Y156424D01*
X41970Y156210D01*
Y155496D01*
X42441Y156495D02*
Y155496D01*
Y156210D02*
X42656Y156424D01*
X42799Y156495D01*
X43013D01*
X43156Y156424D01*
X43227Y156210D01*
Y155496D01*
Y156210D02*
X43441Y156424D01*
X43584Y156495D01*
X43798D01*
X43941Y156424D01*
X44013Y156210D01*
Y155496D01*
X46162Y157281D02*
X46019Y157138D01*
X45876Y156924D01*
X45734Y156638D01*
X45662Y156281D01*
Y155996D01*
X45734Y155638D01*
X45876Y155353D01*
X46019Y155139D01*
X46162Y154996D01*
X46019Y157138D02*
X45876Y156852D01*
X45805Y156638D01*
X45734Y156281D01*
Y155996D01*
X45805Y155638D01*
X45876Y155424D01*
X46019Y155139D01*
X46591Y156995D02*
X47376D01*
X46948Y156424D01*
X47162D01*
X47305Y156353D01*
X47376Y156281D01*
X47448Y156067D01*
Y155924D01*
X47376Y155710D01*
X47233Y155567D01*
X47019Y155496D01*
X46805D01*
X46591Y155567D01*
X46519Y155638D01*
X46448Y155781D01*
X47926Y156995D02*
X48712D01*
X48283Y156424D01*
X48497D01*
X48640Y156353D01*
X48712Y156281D01*
X48783Y156067D01*
Y155924D01*
X48712Y155710D01*
X48569Y155567D01*
X48354Y155496D01*
X48140D01*
X47926Y155567D01*
X47855Y155638D01*
X47783Y155781D01*
X49190Y155638D02*
X49119Y155567D01*
X49190Y155496D01*
X49261Y155567D01*
X49190Y155638D01*
X50304Y156995D02*
X49590Y155996D01*
X50661D01*
X50304Y156995D02*
Y155496D01*
X51782Y156781D02*
X51711Y156924D01*
X51497Y156995D01*
X51354D01*
X51140Y156924D01*
X50997Y156710D01*
X50925Y156353D01*
Y155996D01*
X50997Y155710D01*
X51140Y155567D01*
X51354Y155496D01*
X51425D01*
X51639Y155567D01*
X51782Y155710D01*
X51854Y155924D01*
Y155996D01*
X51782Y156210D01*
X51639Y156353D01*
X51425Y156424D01*
X51354D01*
X51140Y156353D01*
X50997Y156210D01*
X50925Y155996D01*
X53039Y156995D02*
X52325D01*
X52254Y156353D01*
X52325Y156424D01*
X52539Y156495D01*
X52754D01*
X52968Y156424D01*
X53111Y156281D01*
X53182Y156067D01*
Y155924D01*
X53111Y155710D01*
X52968Y155567D01*
X52754Y155496D01*
X52539D01*
X52325Y155567D01*
X52254Y155638D01*
X52182Y155781D01*
X53518Y156495D02*
Y155496D01*
Y156210D02*
X53732Y156424D01*
X53875Y156495D01*
X54089D01*
X54232Y156424D01*
X54303Y156210D01*
Y155496D01*
Y156210D02*
X54517Y156424D01*
X54660Y156495D01*
X54875D01*
X55017Y156424D01*
X55089Y156210D01*
Y155496D01*
X55703Y156995D02*
X55774Y156924D01*
X55846Y156995D01*
X55774Y157067D01*
X55703Y156995D01*
X55774Y156495D02*
Y155496D01*
X56110Y156995D02*
Y155496D01*
X56424Y157281D02*
X56567Y157138D01*
X56710Y156924D01*
X56853Y156638D01*
X56924Y156281D01*
Y155996D01*
X56853Y155638D01*
X56710Y155353D01*
X56567Y155139D01*
X56424Y154996D01*
X56567Y157138D02*
X56710Y156852D01*
X56781Y156638D01*
X56853Y156281D01*
Y155996D01*
X56781Y155638D01*
X56710Y155424D01*
X56567Y155139D01*
X61305Y156210D02*
X61948D01*
X62162Y156281D01*
X62234Y156353D01*
X62305Y156495D01*
Y156710D01*
X62234Y156852D01*
X62162Y156924D01*
X61948Y156995D01*
X61305D01*
Y155496D01*
X63141Y156995D02*
Y155496D01*
X62641Y156995D02*
X63640D01*
X63819D02*
Y155496D01*
X64819Y156995D02*
Y155496D01*
X63819Y156281D02*
X64819D01*
X71418Y156995D02*
Y155496D01*
Y156995D02*
X72061D01*
X72275Y156924D01*
X72346Y156852D01*
X72418Y156710D01*
Y156567D01*
X72346Y156424D01*
X72275Y156353D01*
X72061Y156281D01*
X71418D01*
X71918D02*
X72418Y155496D01*
X73111Y156495D02*
X72968Y156424D01*
X72825Y156281D01*
X72753Y156067D01*
Y155924D01*
X72825Y155710D01*
X72968Y155567D01*
X73111Y155496D01*
X73325D01*
X73468Y155567D01*
X73610Y155710D01*
X73682Y155924D01*
Y156067D01*
X73610Y156281D01*
X73468Y156424D01*
X73325Y156495D01*
X73111D01*
X74010D02*
Y155781D01*
X74082Y155567D01*
X74225Y155496D01*
X74439D01*
X74582Y155567D01*
X74796Y155781D01*
Y156495D02*
Y155496D01*
X75189Y156495D02*
Y155496D01*
Y156210D02*
X75403Y156424D01*
X75546Y156495D01*
X75760D01*
X75903Y156424D01*
X75974Y156210D01*
Y155496D01*
X77224Y156995D02*
Y155496D01*
Y156281D02*
X77081Y156424D01*
X76938Y156495D01*
X76724D01*
X76581Y156424D01*
X76438Y156281D01*
X76367Y156067D01*
Y155924D01*
X76438Y155710D01*
X76581Y155567D01*
X76724Y155496D01*
X76938D01*
X77081Y155567D01*
X77224Y155710D01*
X8618Y152496D02*
X8047Y153995D01*
X7475Y152496D01*
X7690Y152996D02*
X8404D01*
X21298Y153995D02*
X22084D01*
X21655Y153424D01*
X21869D01*
X22012Y153353D01*
X22084Y153281D01*
X22155Y153067D01*
Y152924D01*
X22084Y152710D01*
X21941Y152567D01*
X21727Y152496D01*
X21512D01*
X21298Y152567D01*
X21227Y152638D01*
X21155Y152781D01*
X22491Y153710D02*
X22634Y153781D01*
X22848Y153995D01*
Y152496D01*
X23948Y153995D02*
X23733Y153924D01*
X23662Y153781D01*
Y153638D01*
X23733Y153495D01*
X23876Y153424D01*
X24162Y153353D01*
X24376Y153281D01*
X24519Y153138D01*
X24590Y152996D01*
Y152781D01*
X24519Y152638D01*
X24447Y152567D01*
X24233Y152496D01*
X23948D01*
X23733Y152567D01*
X23662Y152638D01*
X23591Y152781D01*
Y152996D01*
X23662Y153138D01*
X23805Y153281D01*
X24019Y153353D01*
X24305Y153424D01*
X24447Y153495D01*
X24519Y153638D01*
Y153781D01*
X24447Y153924D01*
X24233Y153995D01*
X23948D01*
X36350D02*
X36136Y153924D01*
X35993Y153710D01*
X35921Y153353D01*
Y153138D01*
X35993Y152781D01*
X36136Y152567D01*
X36350Y152496D01*
X36493D01*
X36707Y152567D01*
X36850Y152781D01*
X36921Y153138D01*
Y153353D01*
X36850Y153710D01*
X36707Y153924D01*
X36493Y153995D01*
X36350D01*
X37328Y152638D02*
X37257Y152567D01*
X37328Y152496D01*
X37400Y152567D01*
X37328Y152638D01*
X38657Y153495D02*
X38585Y153281D01*
X38442Y153138D01*
X38228Y153067D01*
X38157D01*
X37942Y153138D01*
X37800Y153281D01*
X37728Y153495D01*
Y153567D01*
X37800Y153781D01*
X37942Y153924D01*
X38157Y153995D01*
X38228D01*
X38442Y153924D01*
X38585Y153781D01*
X38657Y153495D01*
Y153138D01*
X38585Y152781D01*
X38442Y152567D01*
X38228Y152496D01*
X38085D01*
X37871Y152567D01*
X37800Y152710D01*
X39064Y153495D02*
Y152496D01*
Y153210D02*
X39278Y153424D01*
X39421Y153495D01*
X39635D01*
X39778Y153424D01*
X39849Y153210D01*
Y152496D01*
Y153210D02*
X40063Y153424D01*
X40206Y153495D01*
X40420D01*
X40563Y153424D01*
X40635Y153210D01*
Y152496D01*
X41106Y153495D02*
Y152496D01*
Y153210D02*
X41320Y153424D01*
X41463Y153495D01*
X41677D01*
X41820Y153424D01*
X41892Y153210D01*
Y152496D01*
Y153210D02*
X42106Y153424D01*
X42249Y153495D01*
X42463D01*
X42606Y153424D01*
X42677Y153210D01*
Y152496D01*
X44827Y154281D02*
X44684Y154138D01*
X44541Y153924D01*
X44398Y153638D01*
X44327Y153281D01*
Y152996D01*
X44398Y152638D01*
X44541Y152353D01*
X44684Y152139D01*
X44827Y151996D01*
X44684Y154138D02*
X44541Y153852D01*
X44470Y153638D01*
X44398Y153281D01*
Y152996D01*
X44470Y152638D01*
X44541Y152424D01*
X44684Y152139D01*
X45255Y153995D02*
X46041D01*
X45612Y153424D01*
X45826D01*
X45969Y153353D01*
X46041Y153281D01*
X46112Y153067D01*
Y152924D01*
X46041Y152710D01*
X45898Y152567D01*
X45684Y152496D01*
X45469D01*
X45255Y152567D01*
X45184Y152638D01*
X45112Y152781D01*
X47305Y153995D02*
X46591D01*
X46519Y153353D01*
X46591Y153424D01*
X46805Y153495D01*
X47019D01*
X47233Y153424D01*
X47376Y153281D01*
X47448Y153067D01*
Y152924D01*
X47376Y152710D01*
X47233Y152567D01*
X47019Y152496D01*
X46805D01*
X46591Y152567D01*
X46519Y152638D01*
X46448Y152781D01*
X47855Y152638D02*
X47783Y152567D01*
X47855Y152496D01*
X47926Y152567D01*
X47855Y152638D01*
X48969Y153995D02*
X48254Y152996D01*
X49326D01*
X48969Y153995D02*
Y152496D01*
X49733Y153995D02*
X50518D01*
X50090Y153424D01*
X50304D01*
X50447Y153353D01*
X50518Y153281D01*
X50590Y153067D01*
Y152924D01*
X50518Y152710D01*
X50375Y152567D01*
X50161Y152496D01*
X49947D01*
X49733Y152567D01*
X49661Y152638D01*
X49590Y152781D01*
X51068Y153995D02*
X51854D01*
X51425Y153424D01*
X51639D01*
X51782Y153353D01*
X51854Y153281D01*
X51925Y153067D01*
Y152924D01*
X51854Y152710D01*
X51711Y152567D01*
X51497Y152496D01*
X51282D01*
X51068Y152567D01*
X50997Y152638D01*
X50925Y152781D01*
X52261Y153495D02*
Y152496D01*
Y153210D02*
X52475Y153424D01*
X52618Y153495D01*
X52832D01*
X52975Y153424D01*
X53046Y153210D01*
Y152496D01*
Y153210D02*
X53261Y153424D01*
X53403Y153495D01*
X53618D01*
X53760Y153424D01*
X53832Y153210D01*
Y152496D01*
X54446Y153995D02*
X54517Y153924D01*
X54589Y153995D01*
X54517Y154067D01*
X54446Y153995D01*
X54517Y153495D02*
Y152496D01*
X54853Y153995D02*
Y152496D01*
X55167Y154281D02*
X55310Y154138D01*
X55453Y153924D01*
X55596Y153638D01*
X55667Y153281D01*
Y152996D01*
X55596Y152638D01*
X55453Y152353D01*
X55310Y152139D01*
X55167Y151996D01*
X55310Y154138D02*
X55453Y153852D01*
X55524Y153638D01*
X55596Y153281D01*
Y152996D01*
X55524Y152638D01*
X55453Y152424D01*
X55310Y152139D01*
X61305Y153210D02*
X61948D01*
X62162Y153281D01*
X62234Y153353D01*
X62305Y153495D01*
Y153710D01*
X62234Y153852D01*
X62162Y153924D01*
X61948Y153995D01*
X61305D01*
Y152496D01*
X63141Y153995D02*
Y152496D01*
X62641Y153995D02*
X63640D01*
X63819D02*
Y152496D01*
X64819Y153995D02*
Y152496D01*
X63819Y153281D02*
X64819D01*
X71418Y153995D02*
Y152496D01*
Y153995D02*
X72061D01*
X72275Y153924D01*
X72346Y153852D01*
X72418Y153710D01*
Y153567D01*
X72346Y153424D01*
X72275Y153353D01*
X72061Y153281D01*
X71418D01*
X71918D02*
X72418Y152496D01*
X73111Y153495D02*
X72968Y153424D01*
X72825Y153281D01*
X72753Y153067D01*
Y152924D01*
X72825Y152710D01*
X72968Y152567D01*
X73111Y152496D01*
X73325D01*
X73468Y152567D01*
X73610Y152710D01*
X73682Y152924D01*
Y153067D01*
X73610Y153281D01*
X73468Y153424D01*
X73325Y153495D01*
X73111D01*
X74010D02*
Y152781D01*
X74082Y152567D01*
X74225Y152496D01*
X74439D01*
X74582Y152567D01*
X74796Y152781D01*
Y153495D02*
Y152496D01*
X75189Y153495D02*
Y152496D01*
Y153210D02*
X75403Y153424D01*
X75546Y153495D01*
X75760D01*
X75903Y153424D01*
X75974Y153210D01*
Y152496D01*
X77224Y153995D02*
Y152496D01*
Y153281D02*
X77081Y153424D01*
X76938Y153495D01*
X76724D01*
X76581Y153424D01*
X76438Y153281D01*
X76367Y153067D01*
Y152924D01*
X76438Y152710D01*
X76581Y152567D01*
X76724Y152496D01*
X76938D01*
X77081Y152567D01*
X77224Y152710D01*
X7475Y150995D02*
Y149496D01*
X21869Y150995D02*
X21155Y149996D01*
X22227D01*
X21869Y150995D02*
Y149496D01*
X36350Y150995D02*
X36136Y150924D01*
X35993Y150710D01*
X35921Y150353D01*
Y150138D01*
X35993Y149781D01*
X36136Y149567D01*
X36350Y149496D01*
X36493D01*
X36707Y149567D01*
X36850Y149781D01*
X36921Y150138D01*
Y150353D01*
X36850Y150710D01*
X36707Y150924D01*
X36493Y150995D01*
X36350D01*
X37328Y149638D02*
X37257Y149567D01*
X37328Y149496D01*
X37400Y149567D01*
X37328Y149638D01*
X38657Y150495D02*
X38585Y150281D01*
X38442Y150138D01*
X38228Y150067D01*
X38157D01*
X37942Y150138D01*
X37800Y150281D01*
X37728Y150495D01*
Y150567D01*
X37800Y150781D01*
X37942Y150924D01*
X38157Y150995D01*
X38228D01*
X38442Y150924D01*
X38585Y150781D01*
X38657Y150495D01*
Y150138D01*
X38585Y149781D01*
X38442Y149567D01*
X38228Y149496D01*
X38085D01*
X37871Y149567D01*
X37800Y149710D01*
X39135Y150638D02*
Y150710D01*
X39206Y150852D01*
X39278Y150924D01*
X39421Y150995D01*
X39706D01*
X39849Y150924D01*
X39921Y150852D01*
X39992Y150710D01*
Y150567D01*
X39921Y150424D01*
X39778Y150210D01*
X39064Y149496D01*
X40063D01*
X40399Y150495D02*
Y149496D01*
Y150210D02*
X40613Y150424D01*
X40756Y150495D01*
X40970D01*
X41113Y150424D01*
X41185Y150210D01*
Y149496D01*
Y150210D02*
X41399Y150424D01*
X41542Y150495D01*
X41756D01*
X41899Y150424D01*
X41970Y150210D01*
Y149496D01*
X42441Y150495D02*
Y149496D01*
Y150210D02*
X42656Y150424D01*
X42799Y150495D01*
X43013D01*
X43156Y150424D01*
X43227Y150210D01*
Y149496D01*
Y150210D02*
X43441Y150424D01*
X43584Y150495D01*
X43798D01*
X43941Y150424D01*
X44013Y150210D01*
Y149496D01*
X46162Y151281D02*
X46019Y151138D01*
X45876Y150924D01*
X45734Y150638D01*
X45662Y150281D01*
Y149996D01*
X45734Y149638D01*
X45876Y149353D01*
X46019Y149139D01*
X46162Y148996D01*
X46019Y151138D02*
X45876Y150852D01*
X45805Y150638D01*
X45734Y150281D01*
Y149996D01*
X45805Y149638D01*
X45876Y149424D01*
X46019Y149139D01*
X46591Y150995D02*
X47376D01*
X46948Y150424D01*
X47162D01*
X47305Y150353D01*
X47376Y150281D01*
X47448Y150067D01*
Y149924D01*
X47376Y149710D01*
X47233Y149567D01*
X47019Y149496D01*
X46805D01*
X46591Y149567D01*
X46519Y149638D01*
X46448Y149781D01*
X48640Y150781D02*
X48569Y150924D01*
X48354Y150995D01*
X48212D01*
X47997Y150924D01*
X47855Y150710D01*
X47783Y150353D01*
Y149996D01*
X47855Y149710D01*
X47997Y149567D01*
X48212Y149496D01*
X48283D01*
X48497Y149567D01*
X48640Y149710D01*
X48712Y149924D01*
Y149996D01*
X48640Y150210D01*
X48497Y150353D01*
X48283Y150424D01*
X48212D01*
X47997Y150353D01*
X47855Y150210D01*
X47783Y149996D01*
X49111Y149638D02*
X49040Y149567D01*
X49111Y149496D01*
X49183Y149567D01*
X49111Y149638D01*
X49583Y150638D02*
Y150710D01*
X49654Y150852D01*
X49726Y150924D01*
X49868Y150995D01*
X50154D01*
X50297Y150924D01*
X50368Y150852D01*
X50440Y150710D01*
Y150567D01*
X50368Y150424D01*
X50225Y150210D01*
X49511Y149496D01*
X50511D01*
X50918Y150638D02*
Y150710D01*
X50990Y150852D01*
X51061Y150924D01*
X51204Y150995D01*
X51490D01*
X51632Y150924D01*
X51704Y150852D01*
X51775Y150710D01*
Y150567D01*
X51704Y150424D01*
X51561Y150210D01*
X50847Y149496D01*
X51847D01*
X52182Y150710D02*
X52325Y150781D01*
X52539Y150995D01*
Y149496D01*
X53282Y150495D02*
Y149496D01*
Y150210D02*
X53496Y150424D01*
X53639Y150495D01*
X53853D01*
X53996Y150424D01*
X54068Y150210D01*
Y149496D01*
Y150210D02*
X54282Y150424D01*
X54425Y150495D01*
X54639D01*
X54782Y150424D01*
X54853Y150210D01*
Y149496D01*
X55467Y150995D02*
X55539Y150924D01*
X55610Y150995D01*
X55539Y151067D01*
X55467Y150995D01*
X55539Y150495D02*
Y149496D01*
X55874Y150995D02*
Y149496D01*
X56188Y151281D02*
X56331Y151138D01*
X56474Y150924D01*
X56617Y150638D01*
X56688Y150281D01*
Y149996D01*
X56617Y149638D01*
X56474Y149353D01*
X56331Y149139D01*
X56188Y148996D01*
X56331Y151138D02*
X56474Y150852D01*
X56546Y150638D01*
X56617Y150281D01*
Y149996D01*
X56546Y149638D01*
X56474Y149424D01*
X56331Y149139D01*
X61305Y150210D02*
X61948D01*
X62162Y150281D01*
X62234Y150353D01*
X62305Y150495D01*
Y150710D01*
X62234Y150852D01*
X62162Y150924D01*
X61948Y150995D01*
X61305D01*
Y149496D01*
X63141Y150995D02*
Y149496D01*
X62641Y150995D02*
X63640D01*
X63819D02*
Y149496D01*
X64819Y150995D02*
Y149496D01*
X63819Y150281D02*
X64819D01*
X71418Y150995D02*
Y149496D01*
Y150995D02*
X72061D01*
X72275Y150924D01*
X72346Y150852D01*
X72418Y150710D01*
Y150567D01*
X72346Y150424D01*
X72275Y150353D01*
X72061Y150281D01*
X71418D01*
X71918D02*
X72418Y149496D01*
X73111Y150495D02*
X72968Y150424D01*
X72825Y150281D01*
X72753Y150067D01*
Y149924D01*
X72825Y149710D01*
X72968Y149567D01*
X73111Y149496D01*
X73325D01*
X73468Y149567D01*
X73610Y149710D01*
X73682Y149924D01*
Y150067D01*
X73610Y150281D01*
X73468Y150424D01*
X73325Y150495D01*
X73111D01*
X74010D02*
Y149781D01*
X74082Y149567D01*
X74225Y149496D01*
X74439D01*
X74582Y149567D01*
X74796Y149781D01*
Y150495D02*
Y149496D01*
X75189Y150495D02*
Y149496D01*
Y150210D02*
X75403Y150424D01*
X75546Y150495D01*
X75760D01*
X75903Y150424D01*
X75974Y150210D01*
Y149496D01*
X77224Y150995D02*
Y149496D01*
Y150281D02*
X77081Y150424D01*
X76938Y150495D01*
X76724D01*
X76581Y150424D01*
X76438Y150281D01*
X76367Y150067D01*
Y149924D01*
X76438Y149710D01*
X76581Y149567D01*
X76724Y149496D01*
X76938D01*
X77081Y149567D01*
X77224Y149710D01*
X8547Y147638D02*
X8475Y147781D01*
X8332Y147924D01*
X8189Y147995D01*
X7904D01*
X7761Y147924D01*
X7618Y147781D01*
X7547Y147638D01*
X7475Y147424D01*
Y147067D01*
X7547Y146853D01*
X7618Y146710D01*
X7761Y146567D01*
X7904Y146496D01*
X8189D01*
X8332Y146567D01*
X8475Y146710D01*
X8547Y146853D01*
Y147067D01*
X8189D02*
X8547D01*
X21155Y147710D02*
X21298Y147781D01*
X21512Y147995D01*
Y146496D01*
X35921Y147710D02*
X36064Y147781D01*
X36278Y147995D01*
Y146496D01*
X37021Y147495D02*
Y146496D01*
Y147210D02*
X37235Y147424D01*
X37378Y147495D01*
X37592D01*
X37735Y147424D01*
X37807Y147210D01*
Y146496D01*
Y147210D02*
X38021Y147424D01*
X38164Y147495D01*
X38378D01*
X38521Y147424D01*
X38592Y147210D01*
Y146496D01*
X39064Y147495D02*
Y146496D01*
Y147210D02*
X39278Y147424D01*
X39421Y147495D01*
X39635D01*
X39778Y147424D01*
X39849Y147210D01*
Y146496D01*
Y147210D02*
X40063Y147424D01*
X40206Y147495D01*
X40420D01*
X40563Y147424D01*
X40635Y147210D01*
Y146496D01*
X42784Y148281D02*
X42641Y148138D01*
X42499Y147924D01*
X42356Y147638D01*
X42284Y147281D01*
Y146996D01*
X42356Y146638D01*
X42499Y146353D01*
X42641Y146139D01*
X42784Y145996D01*
X42641Y148138D02*
X42499Y147852D01*
X42427Y147638D01*
X42356Y147281D01*
Y146996D01*
X42427Y146638D01*
X42499Y146424D01*
X42641Y146139D01*
X43213Y147995D02*
X43998D01*
X43570Y147424D01*
X43784D01*
X43927Y147353D01*
X43998Y147281D01*
X44070Y147067D01*
Y146924D01*
X43998Y146710D01*
X43855Y146567D01*
X43641Y146496D01*
X43427D01*
X43213Y146567D01*
X43141Y146638D01*
X43070Y146781D01*
X45334Y147495D02*
X45262Y147281D01*
X45119Y147138D01*
X44905Y147067D01*
X44834D01*
X44620Y147138D01*
X44477Y147281D01*
X44405Y147495D01*
Y147567D01*
X44477Y147781D01*
X44620Y147924D01*
X44834Y147995D01*
X44905D01*
X45119Y147924D01*
X45262Y147781D01*
X45334Y147495D01*
Y147138D01*
X45262Y146781D01*
X45119Y146567D01*
X44905Y146496D01*
X44762D01*
X44548Y146567D01*
X44477Y146710D01*
X45812Y146638D02*
X45741Y146567D01*
X45812Y146496D01*
X45884Y146567D01*
X45812Y146638D01*
X46355Y147995D02*
X47140D01*
X46712Y147424D01*
X46926D01*
X47069Y147353D01*
X47140Y147281D01*
X47212Y147067D01*
Y146924D01*
X47140Y146710D01*
X46998Y146567D01*
X46783Y146496D01*
X46569D01*
X46355Y146567D01*
X46283Y146638D01*
X46212Y146781D01*
X48547Y147995D02*
X47833Y146496D01*
X47548Y147995D02*
X48547D01*
X48883Y147495D02*
Y146496D01*
Y147210D02*
X49097Y147424D01*
X49240Y147495D01*
X49454D01*
X49597Y147424D01*
X49668Y147210D01*
Y146496D01*
Y147210D02*
X49883Y147424D01*
X50026Y147495D01*
X50240D01*
X50383Y147424D01*
X50454Y147210D01*
Y146496D01*
X51068Y147995D02*
X51140Y147924D01*
X51211Y147995D01*
X51140Y148067D01*
X51068Y147995D01*
X51140Y147495D02*
Y146496D01*
X51475Y147995D02*
Y146496D01*
X51789Y148281D02*
X51932Y148138D01*
X52075Y147924D01*
X52218Y147638D01*
X52289Y147281D01*
Y146996D01*
X52218Y146638D01*
X52075Y146353D01*
X51932Y146139D01*
X51789Y145996D01*
X51932Y148138D02*
X52075Y147852D01*
X52147Y147638D01*
X52218Y147281D01*
Y146996D01*
X52147Y146638D01*
X52075Y146424D01*
X51932Y146139D01*
X61305Y147995D02*
Y146496D01*
Y147995D02*
X62305Y146496D01*
Y147995D02*
Y146496D01*
X62719Y147210D02*
X63362D01*
X63576Y147281D01*
X63648Y147353D01*
X63719Y147495D01*
Y147710D01*
X63648Y147852D01*
X63576Y147924D01*
X63362Y147995D01*
X62719D01*
Y146496D01*
X64555Y147995D02*
Y146496D01*
X64055Y147995D02*
X65054D01*
X65233D02*
Y146496D01*
X66233Y147995D02*
Y146496D01*
X65233Y147281D02*
X66233D01*
X71418Y147995D02*
Y146496D01*
Y147995D02*
X72061D01*
X72275Y147924D01*
X72346Y147852D01*
X72418Y147710D01*
Y147567D01*
X72346Y147424D01*
X72275Y147353D01*
X72061Y147281D01*
X71418D01*
X71918D02*
X72418Y146496D01*
X73111Y147495D02*
X72968Y147424D01*
X72825Y147281D01*
X72753Y147067D01*
Y146924D01*
X72825Y146710D01*
X72968Y146567D01*
X73111Y146496D01*
X73325D01*
X73468Y146567D01*
X73610Y146710D01*
X73682Y146924D01*
Y147067D01*
X73610Y147281D01*
X73468Y147424D01*
X73325Y147495D01*
X73111D01*
X74010D02*
Y146781D01*
X74082Y146567D01*
X74225Y146496D01*
X74439D01*
X74582Y146567D01*
X74796Y146781D01*
Y147495D02*
Y146496D01*
X75189Y147495D02*
Y146496D01*
Y147210D02*
X75403Y147424D01*
X75546Y147495D01*
X75760D01*
X75903Y147424D01*
X75974Y147210D01*
Y146496D01*
X77224Y147995D02*
Y146496D01*
Y147281D02*
X77081Y147424D01*
X76938Y147495D01*
X76724D01*
X76581Y147424D01*
X76438Y147281D01*
X76367Y147067D01*
Y146924D01*
X76438Y146710D01*
X76581Y146567D01*
X76724Y146496D01*
X76938D01*
X77081Y146567D01*
X77224Y146710D01*
X7475Y144995D02*
Y143496D01*
Y144995D02*
X7975D01*
X8189Y144924D01*
X8332Y144781D01*
X8404Y144638D01*
X8475Y144424D01*
Y144067D01*
X8404Y143853D01*
X8332Y143710D01*
X8189Y143567D01*
X7975Y143496D01*
X7475D01*
X21155Y144710D02*
X21298Y144781D01*
X21512Y144995D01*
Y143496D01*
X22327Y144638D02*
Y144710D01*
X22398Y144852D01*
X22469Y144924D01*
X22612Y144995D01*
X22898D01*
X23041Y144924D01*
X23112Y144852D01*
X23183Y144710D01*
Y144567D01*
X23112Y144424D01*
X22969Y144210D01*
X22255Y143496D01*
X23255D01*
X35921Y144710D02*
X36064Y144781D01*
X36278Y144995D01*
Y143496D01*
X37021Y144495D02*
Y143496D01*
Y144210D02*
X37235Y144424D01*
X37378Y144495D01*
X37592D01*
X37735Y144424D01*
X37807Y144210D01*
Y143496D01*
Y144210D02*
X38021Y144424D01*
X38164Y144495D01*
X38378D01*
X38521Y144424D01*
X38592Y144210D01*
Y143496D01*
X39064Y144495D02*
Y143496D01*
Y144210D02*
X39278Y144424D01*
X39421Y144495D01*
X39635D01*
X39778Y144424D01*
X39849Y144210D01*
Y143496D01*
Y144210D02*
X40063Y144424D01*
X40206Y144495D01*
X40420D01*
X40563Y144424D01*
X40635Y144210D01*
Y143496D01*
X42784Y145281D02*
X42641Y145138D01*
X42499Y144924D01*
X42356Y144638D01*
X42284Y144281D01*
Y143996D01*
X42356Y143638D01*
X42499Y143353D01*
X42641Y143139D01*
X42784Y142996D01*
X42641Y145138D02*
X42499Y144852D01*
X42427Y144638D01*
X42356Y144281D01*
Y143996D01*
X42427Y143638D01*
X42499Y143424D01*
X42641Y143139D01*
X43213Y144995D02*
X43998D01*
X43570Y144424D01*
X43784D01*
X43927Y144353D01*
X43998Y144281D01*
X44070Y144067D01*
Y143924D01*
X43998Y143710D01*
X43855Y143567D01*
X43641Y143496D01*
X43427D01*
X43213Y143567D01*
X43141Y143638D01*
X43070Y143781D01*
X45334Y144495D02*
X45262Y144281D01*
X45119Y144138D01*
X44905Y144067D01*
X44834D01*
X44620Y144138D01*
X44477Y144281D01*
X44405Y144495D01*
Y144567D01*
X44477Y144781D01*
X44620Y144924D01*
X44834Y144995D01*
X44905D01*
X45119Y144924D01*
X45262Y144781D01*
X45334Y144495D01*
Y144138D01*
X45262Y143781D01*
X45119Y143567D01*
X44905Y143496D01*
X44762D01*
X44548Y143567D01*
X44477Y143710D01*
X45812Y143638D02*
X45741Y143567D01*
X45812Y143496D01*
X45884Y143567D01*
X45812Y143638D01*
X46355Y144995D02*
X47140D01*
X46712Y144424D01*
X46926D01*
X47069Y144353D01*
X47140Y144281D01*
X47212Y144067D01*
Y143924D01*
X47140Y143710D01*
X46998Y143567D01*
X46783Y143496D01*
X46569D01*
X46355Y143567D01*
X46283Y143638D01*
X46212Y143781D01*
X48547Y144995D02*
X47833Y143496D01*
X47548Y144995D02*
X48547D01*
X48883Y144495D02*
Y143496D01*
Y144210D02*
X49097Y144424D01*
X49240Y144495D01*
X49454D01*
X49597Y144424D01*
X49668Y144210D01*
Y143496D01*
Y144210D02*
X49883Y144424D01*
X50026Y144495D01*
X50240D01*
X50383Y144424D01*
X50454Y144210D01*
Y143496D01*
X51068Y144995D02*
X51140Y144924D01*
X51211Y144995D01*
X51140Y145067D01*
X51068Y144995D01*
X51140Y144495D02*
Y143496D01*
X51475Y144995D02*
Y143496D01*
X51789Y145281D02*
X51932Y145138D01*
X52075Y144924D01*
X52218Y144638D01*
X52289Y144281D01*
Y143996D01*
X52218Y143638D01*
X52075Y143353D01*
X51932Y143139D01*
X51789Y142996D01*
X51932Y145138D02*
X52075Y144852D01*
X52147Y144638D01*
X52218Y144281D01*
Y143996D01*
X52147Y143638D01*
X52075Y143424D01*
X51932Y143139D01*
X61305Y144210D02*
X61948D01*
X62162Y144281D01*
X62234Y144353D01*
X62305Y144495D01*
Y144710D01*
X62234Y144852D01*
X62162Y144924D01*
X61948Y144995D01*
X61305D01*
Y143496D01*
X63141Y144995D02*
Y143496D01*
X62641Y144995D02*
X63640D01*
X63819D02*
Y143496D01*
X64819Y144995D02*
Y143496D01*
X63819Y144281D02*
X64819D01*
X71418Y144995D02*
Y143496D01*
Y144995D02*
X72061D01*
X72275Y144924D01*
X72346Y144852D01*
X72418Y144710D01*
Y144567D01*
X72346Y144424D01*
X72275Y144353D01*
X72061Y144281D01*
X71418D01*
X71918D02*
X72418Y143496D01*
X73111Y144495D02*
X72968Y144424D01*
X72825Y144281D01*
X72753Y144067D01*
Y143924D01*
X72825Y143710D01*
X72968Y143567D01*
X73111Y143496D01*
X73325D01*
X73468Y143567D01*
X73610Y143710D01*
X73682Y143924D01*
Y144067D01*
X73610Y144281D01*
X73468Y144424D01*
X73325Y144495D01*
X73111D01*
X74010D02*
Y143781D01*
X74082Y143567D01*
X74225Y143496D01*
X74439D01*
X74582Y143567D01*
X74796Y143781D01*
Y144495D02*
Y143496D01*
X75189Y144495D02*
Y143496D01*
Y144210D02*
X75403Y144424D01*
X75546Y144495D01*
X75760D01*
X75903Y144424D01*
X75974Y144210D01*
Y143496D01*
X77224Y144995D02*
Y143496D01*
Y144281D02*
X77081Y144424D01*
X76938Y144495D01*
X76724D01*
X76581Y144424D01*
X76438Y144281D01*
X76367Y144067D01*
Y143924D01*
X76438Y143710D01*
X76581Y143567D01*
X76724Y143496D01*
X76938D01*
X77081Y143567D01*
X77224Y143710D01*
X7475Y141995D02*
Y140496D01*
Y141995D02*
X8118D01*
X8332Y141924D01*
X8404Y141852D01*
X8475Y141710D01*
Y141567D01*
X8404Y141424D01*
X8332Y141353D01*
X8118Y141281D01*
X7475D02*
X8118D01*
X8332Y141210D01*
X8404Y141138D01*
X8475Y140996D01*
Y140781D01*
X8404Y140638D01*
X8332Y140567D01*
X8118Y140496D01*
X7475D01*
X22012Y141781D02*
X21941Y141924D01*
X21727Y141995D01*
X21584D01*
X21370Y141924D01*
X21227Y141710D01*
X21155Y141353D01*
Y140996D01*
X21227Y140710D01*
X21370Y140567D01*
X21584Y140496D01*
X21655D01*
X21869Y140567D01*
X22012Y140710D01*
X22084Y140924D01*
Y140996D01*
X22012Y141210D01*
X21869Y141353D01*
X21655Y141424D01*
X21584D01*
X21370Y141353D01*
X21227Y141210D01*
X21155Y140996D01*
X35921Y141710D02*
X36064Y141781D01*
X36278Y141995D01*
Y140496D01*
X37093Y140638D02*
X37021Y140567D01*
X37093Y140496D01*
X37164Y140567D01*
X37093Y140638D01*
X37493Y141710D02*
X37635Y141781D01*
X37850Y141995D01*
Y140496D01*
X38592Y141495D02*
Y140496D01*
Y141210D02*
X38807Y141424D01*
X38949Y141495D01*
X39164D01*
X39306Y141424D01*
X39378Y141210D01*
Y140496D01*
Y141210D02*
X39592Y141424D01*
X39735Y141495D01*
X39949D01*
X40092Y141424D01*
X40163Y141210D01*
Y140496D01*
X40635Y141495D02*
Y140496D01*
Y141210D02*
X40849Y141424D01*
X40992Y141495D01*
X41206D01*
X41349Y141424D01*
X41420Y141210D01*
Y140496D01*
Y141210D02*
X41634Y141424D01*
X41777Y141495D01*
X41992D01*
X42134Y141424D01*
X42206Y141210D01*
Y140496D01*
X44355Y142281D02*
X44213Y142138D01*
X44070Y141924D01*
X43927Y141638D01*
X43855Y141281D01*
Y140996D01*
X43927Y140638D01*
X44070Y140353D01*
X44213Y140139D01*
X44355Y139996D01*
X44213Y142138D02*
X44070Y141852D01*
X43998Y141638D01*
X43927Y141281D01*
Y140996D01*
X43998Y140638D01*
X44070Y140424D01*
X44213Y140139D01*
X45355Y141995D02*
X44641Y140996D01*
X45712D01*
X45355Y141995D02*
Y140496D01*
X46119Y141995D02*
X46905D01*
X46476Y141424D01*
X46691D01*
X46833Y141353D01*
X46905Y141281D01*
X46976Y141067D01*
Y140924D01*
X46905Y140710D01*
X46762Y140567D01*
X46548Y140496D01*
X46333D01*
X46119Y140567D01*
X46048Y140638D01*
X45976Y140781D01*
X47383Y140638D02*
X47312Y140567D01*
X47383Y140496D01*
X47455Y140567D01*
X47383Y140638D01*
X47926Y141995D02*
X48712D01*
X48283Y141424D01*
X48497D01*
X48640Y141353D01*
X48712Y141281D01*
X48783Y141067D01*
Y140924D01*
X48712Y140710D01*
X48569Y140567D01*
X48354Y140496D01*
X48140D01*
X47926Y140567D01*
X47855Y140638D01*
X47783Y140781D01*
X49547Y141995D02*
X49333Y141924D01*
X49190Y141710D01*
X49119Y141353D01*
Y141138D01*
X49190Y140781D01*
X49333Y140567D01*
X49547Y140496D01*
X49690D01*
X49904Y140567D01*
X50047Y140781D01*
X50118Y141138D01*
Y141353D01*
X50047Y141710D01*
X49904Y141924D01*
X49690Y141995D01*
X49547D01*
X51454D02*
X50740Y140496D01*
X50454Y141995D02*
X51454D01*
X51789Y141495D02*
Y140496D01*
Y141210D02*
X52004Y141424D01*
X52147Y141495D01*
X52361D01*
X52504Y141424D01*
X52575Y141210D01*
Y140496D01*
Y141210D02*
X52789Y141424D01*
X52932Y141495D01*
X53146D01*
X53289Y141424D01*
X53361Y141210D01*
Y140496D01*
X53975Y141995D02*
X54046Y141924D01*
X54118Y141995D01*
X54046Y142067D01*
X53975Y141995D01*
X54046Y141495D02*
Y140496D01*
X54382Y141995D02*
Y140496D01*
X54696Y142281D02*
X54839Y142138D01*
X54982Y141924D01*
X55124Y141638D01*
X55196Y141281D01*
Y140996D01*
X55124Y140638D01*
X54982Y140353D01*
X54839Y140139D01*
X54696Y139996D01*
X54839Y142138D02*
X54982Y141852D01*
X55053Y141638D01*
X55124Y141281D01*
Y140996D01*
X55053Y140638D01*
X54982Y140424D01*
X54839Y140139D01*
X61305Y141210D02*
X61948D01*
X62162Y141281D01*
X62234Y141353D01*
X62305Y141495D01*
Y141710D01*
X62234Y141852D01*
X62162Y141924D01*
X61948Y141995D01*
X61305D01*
Y140496D01*
X63141Y141995D02*
Y140496D01*
X62641Y141995D02*
X63640D01*
X63819D02*
Y140496D01*
X64819Y141995D02*
Y140496D01*
X63819Y141281D02*
X64819D01*
X71418Y141995D02*
Y140496D01*
Y141995D02*
X72061D01*
X72275Y141924D01*
X72346Y141852D01*
X72418Y141710D01*
Y141567D01*
X72346Y141424D01*
X72275Y141353D01*
X72061Y141281D01*
X71418D01*
X71918D02*
X72418Y140496D01*
X73111Y141495D02*
X72968Y141424D01*
X72825Y141281D01*
X72753Y141067D01*
Y140924D01*
X72825Y140710D01*
X72968Y140567D01*
X73111Y140496D01*
X73325D01*
X73468Y140567D01*
X73610Y140710D01*
X73682Y140924D01*
Y141067D01*
X73610Y141281D01*
X73468Y141424D01*
X73325Y141495D01*
X73111D01*
X74010D02*
Y140781D01*
X74082Y140567D01*
X74225Y140496D01*
X74439D01*
X74582Y140567D01*
X74796Y140781D01*
Y141495D02*
Y140496D01*
X75189Y141495D02*
Y140496D01*
Y141210D02*
X75403Y141424D01*
X75546Y141495D01*
X75760D01*
X75903Y141424D01*
X75974Y141210D01*
Y140496D01*
X77224Y141995D02*
Y140496D01*
Y141281D02*
X77081Y141424D01*
X76938Y141495D01*
X76724D01*
X76581Y141424D01*
X76438Y141281D01*
X76367Y141067D01*
Y140924D01*
X76438Y140710D01*
X76581Y140567D01*
X76724Y140496D01*
X76938D01*
X77081Y140567D01*
X77224Y140710D01*
X7475Y138995D02*
Y137496D01*
X8332D01*
X21298Y138995D02*
X22084D01*
X21655Y138424D01*
X21869D01*
X22012Y138353D01*
X22084Y138281D01*
X22155Y138067D01*
Y137924D01*
X22084Y137710D01*
X21941Y137567D01*
X21727Y137496D01*
X21512D01*
X21298Y137567D01*
X21227Y137638D01*
X21155Y137781D01*
X23348Y138781D02*
X23276Y138924D01*
X23062Y138995D01*
X22919D01*
X22705Y138924D01*
X22562Y138710D01*
X22491Y138353D01*
Y137996D01*
X22562Y137710D01*
X22705Y137567D01*
X22919Y137496D01*
X22991D01*
X23205Y137567D01*
X23348Y137710D01*
X23419Y137924D01*
Y137996D01*
X23348Y138210D01*
X23205Y138353D01*
X22991Y138424D01*
X22919D01*
X22705Y138353D01*
X22562Y138210D01*
X22491Y137996D01*
X35921Y138710D02*
X36064Y138781D01*
X36278Y138995D01*
Y137496D01*
X37093Y137638D02*
X37021Y137567D01*
X37093Y137496D01*
X37164Y137567D01*
X37093Y137638D01*
X37635Y138995D02*
X38421D01*
X37992Y138424D01*
X38207D01*
X38349Y138353D01*
X38421Y138281D01*
X38492Y138067D01*
Y137924D01*
X38421Y137710D01*
X38278Y137567D01*
X38064Y137496D01*
X37850D01*
X37635Y137567D01*
X37564Y137638D01*
X37493Y137781D01*
X38828Y138495D02*
Y137496D01*
Y138210D02*
X39042Y138424D01*
X39185Y138495D01*
X39399D01*
X39542Y138424D01*
X39613Y138210D01*
Y137496D01*
Y138210D02*
X39828Y138424D01*
X39971Y138495D01*
X40185D01*
X40328Y138424D01*
X40399Y138210D01*
Y137496D01*
X40870Y138495D02*
Y137496D01*
Y138210D02*
X41085Y138424D01*
X41227Y138495D01*
X41442D01*
X41584Y138424D01*
X41656Y138210D01*
Y137496D01*
Y138210D02*
X41870Y138424D01*
X42013Y138495D01*
X42227D01*
X42370Y138424D01*
X42441Y138210D01*
Y137496D01*
X44591Y139281D02*
X44448Y139138D01*
X44305Y138924D01*
X44163Y138638D01*
X44091Y138281D01*
Y137996D01*
X44163Y137638D01*
X44305Y137353D01*
X44448Y137139D01*
X44591Y136996D01*
X44448Y139138D02*
X44305Y138852D01*
X44234Y138638D01*
X44163Y138281D01*
Y137996D01*
X44234Y137638D01*
X44305Y137424D01*
X44448Y137139D01*
X45734Y138995D02*
X45019D01*
X44948Y138353D01*
X45019Y138424D01*
X45234Y138495D01*
X45448D01*
X45662Y138424D01*
X45805Y138281D01*
X45876Y138067D01*
Y137924D01*
X45805Y137710D01*
X45662Y137567D01*
X45448Y137496D01*
X45234D01*
X45019Y137567D01*
X44948Y137638D01*
X44877Y137781D01*
X46212Y138710D02*
X46355Y138781D01*
X46569Y138995D01*
Y137496D01*
X47383Y137638D02*
X47312Y137567D01*
X47383Y137496D01*
X47455Y137567D01*
X47383Y137638D01*
X47783Y138710D02*
X47926Y138781D01*
X48140Y138995D01*
Y137496D01*
X49240Y138995D02*
X49026Y138924D01*
X48954Y138781D01*
Y138638D01*
X49026Y138495D01*
X49169Y138424D01*
X49454Y138353D01*
X49668Y138281D01*
X49811Y138138D01*
X49883Y137996D01*
Y137781D01*
X49811Y137638D01*
X49740Y137567D01*
X49526Y137496D01*
X49240D01*
X49026Y137567D01*
X48954Y137638D01*
X48883Y137781D01*
Y137996D01*
X48954Y138138D01*
X49097Y138281D01*
X49311Y138353D01*
X49597Y138424D01*
X49740Y138495D01*
X49811Y138638D01*
Y138781D01*
X49740Y138924D01*
X49526Y138995D01*
X49240D01*
X50218Y138710D02*
X50361Y138781D01*
X50575Y138995D01*
Y137496D01*
X51318Y138495D02*
Y137496D01*
Y138210D02*
X51532Y138424D01*
X51675Y138495D01*
X51889D01*
X52032Y138424D01*
X52104Y138210D01*
Y137496D01*
Y138210D02*
X52318Y138424D01*
X52461Y138495D01*
X52675D01*
X52818Y138424D01*
X52889Y138210D01*
Y137496D01*
X53503Y138995D02*
X53575Y138924D01*
X53646Y138995D01*
X53575Y139067D01*
X53503Y138995D01*
X53575Y138495D02*
Y137496D01*
X53910Y138995D02*
Y137496D01*
X54225Y139281D02*
X54367Y139138D01*
X54510Y138924D01*
X54653Y138638D01*
X54725Y138281D01*
Y137996D01*
X54653Y137638D01*
X54510Y137353D01*
X54367Y137139D01*
X54225Y136996D01*
X54367Y139138D02*
X54510Y138852D01*
X54582Y138638D01*
X54653Y138281D01*
Y137996D01*
X54582Y137638D01*
X54510Y137424D01*
X54367Y137139D01*
X61305Y138210D02*
X61948D01*
X62162Y138281D01*
X62234Y138353D01*
X62305Y138495D01*
Y138710D01*
X62234Y138852D01*
X62162Y138924D01*
X61948Y138995D01*
X61305D01*
Y137496D01*
X63141Y138995D02*
Y137496D01*
X62641Y138995D02*
X63640D01*
X63819D02*
Y137496D01*
X64819Y138995D02*
Y137496D01*
X63819Y138281D02*
X64819D01*
X71418Y138995D02*
Y137496D01*
Y138995D02*
X72061D01*
X72275Y138924D01*
X72346Y138852D01*
X72418Y138710D01*
Y138567D01*
X72346Y138424D01*
X72275Y138353D01*
X72061Y138281D01*
X71418D01*
X71918D02*
X72418Y137496D01*
X73111Y138495D02*
X72968Y138424D01*
X72825Y138281D01*
X72753Y138067D01*
Y137924D01*
X72825Y137710D01*
X72968Y137567D01*
X73111Y137496D01*
X73325D01*
X73468Y137567D01*
X73610Y137710D01*
X73682Y137924D01*
Y138067D01*
X73610Y138281D01*
X73468Y138424D01*
X73325Y138495D01*
X73111D01*
X74010D02*
Y137781D01*
X74082Y137567D01*
X74225Y137496D01*
X74439D01*
X74582Y137567D01*
X74796Y137781D01*
Y138495D02*
Y137496D01*
X75189Y138495D02*
Y137496D01*
Y138210D02*
X75403Y138424D01*
X75546Y138495D01*
X75760D01*
X75903Y138424D01*
X75974Y138210D01*
Y137496D01*
X77224Y138995D02*
Y137496D01*
Y138281D02*
X77081Y138424D01*
X76938Y138495D01*
X76724D01*
X76581Y138424D01*
X76438Y138281D01*
X76367Y138067D01*
Y137924D01*
X76438Y137710D01*
X76581Y137567D01*
X76724Y137496D01*
X76938D01*
X77081Y137567D01*
X77224Y137710D01*
X8404Y135995D02*
X7475D01*
Y134496D01*
X8404D01*
X7475Y135281D02*
X8047D01*
X21227Y135638D02*
Y135710D01*
X21298Y135852D01*
X21370Y135924D01*
X21512Y135995D01*
X21798D01*
X21941Y135924D01*
X22012Y135852D01*
X22084Y135710D01*
Y135567D01*
X22012Y135424D01*
X21869Y135210D01*
X21155Y134496D01*
X22155D01*
X35921Y135710D02*
X36064Y135781D01*
X36278Y135995D01*
Y134496D01*
X37093Y134638D02*
X37021Y134567D01*
X37093Y134496D01*
X37164Y134567D01*
X37093Y134638D01*
X38349Y135781D02*
X38278Y135924D01*
X38064Y135995D01*
X37921D01*
X37707Y135924D01*
X37564Y135710D01*
X37493Y135353D01*
Y134996D01*
X37564Y134710D01*
X37707Y134567D01*
X37921Y134496D01*
X37992D01*
X38207Y134567D01*
X38349Y134710D01*
X38421Y134924D01*
Y134996D01*
X38349Y135210D01*
X38207Y135353D01*
X37992Y135424D01*
X37921D01*
X37707Y135353D01*
X37564Y135210D01*
X37493Y134996D01*
X38749Y135495D02*
Y134496D01*
Y135210D02*
X38964Y135424D01*
X39106Y135495D01*
X39321D01*
X39464Y135424D01*
X39535Y135210D01*
Y134496D01*
Y135210D02*
X39749Y135424D01*
X39892Y135495D01*
X40106D01*
X40249Y135424D01*
X40320Y135210D01*
Y134496D01*
X40792Y135495D02*
Y134496D01*
Y135210D02*
X41006Y135424D01*
X41149Y135495D01*
X41363D01*
X41506Y135424D01*
X41577Y135210D01*
Y134496D01*
Y135210D02*
X41792Y135424D01*
X41934Y135495D01*
X42149D01*
X42291Y135424D01*
X42363Y135210D01*
Y134496D01*
X44512Y136281D02*
X44370Y136138D01*
X44227Y135924D01*
X44084Y135638D01*
X44013Y135281D01*
Y134996D01*
X44084Y134638D01*
X44227Y134353D01*
X44370Y134139D01*
X44512Y133996D01*
X44370Y136138D02*
X44227Y135852D01*
X44155Y135638D01*
X44084Y135281D01*
Y134996D01*
X44155Y134638D01*
X44227Y134424D01*
X44370Y134139D01*
X45655Y135781D02*
X45584Y135924D01*
X45369Y135995D01*
X45227D01*
X45012Y135924D01*
X44869Y135710D01*
X44798Y135353D01*
Y134996D01*
X44869Y134710D01*
X45012Y134567D01*
X45227Y134496D01*
X45298D01*
X45512Y134567D01*
X45655Y134710D01*
X45726Y134924D01*
Y134996D01*
X45655Y135210D01*
X45512Y135353D01*
X45298Y135424D01*
X45227D01*
X45012Y135353D01*
X44869Y135210D01*
X44798Y134996D01*
X46126Y135638D02*
Y135710D01*
X46198Y135852D01*
X46269Y135924D01*
X46412Y135995D01*
X46698D01*
X46841Y135924D01*
X46912Y135852D01*
X46983Y135710D01*
Y135567D01*
X46912Y135424D01*
X46769Y135210D01*
X46055Y134496D01*
X47055D01*
X47462Y134638D02*
X47390Y134567D01*
X47462Y134496D01*
X47533Y134567D01*
X47462Y134638D01*
X48790Y135495D02*
X48719Y135281D01*
X48576Y135138D01*
X48362Y135067D01*
X48290D01*
X48076Y135138D01*
X47933Y135281D01*
X47862Y135495D01*
Y135567D01*
X47933Y135781D01*
X48076Y135924D01*
X48290Y135995D01*
X48362D01*
X48576Y135924D01*
X48719Y135781D01*
X48790Y135495D01*
Y135138D01*
X48719Y134781D01*
X48576Y134567D01*
X48362Y134496D01*
X48219D01*
X48005Y134567D01*
X47933Y134710D01*
X50126Y135495D02*
X50054Y135281D01*
X49911Y135138D01*
X49697Y135067D01*
X49626D01*
X49411Y135138D01*
X49269Y135281D01*
X49197Y135495D01*
Y135567D01*
X49269Y135781D01*
X49411Y135924D01*
X49626Y135995D01*
X49697D01*
X49911Y135924D01*
X50054Y135781D01*
X50126Y135495D01*
Y135138D01*
X50054Y134781D01*
X49911Y134567D01*
X49697Y134496D01*
X49554D01*
X49340Y134567D01*
X49269Y134710D01*
X50604Y135638D02*
Y135710D01*
X50675Y135852D01*
X50747Y135924D01*
X50890Y135995D01*
X51175D01*
X51318Y135924D01*
X51390Y135852D01*
X51461Y135710D01*
Y135567D01*
X51390Y135424D01*
X51247Y135210D01*
X50533Y134496D01*
X51532D01*
X51868Y135495D02*
Y134496D01*
Y135210D02*
X52082Y135424D01*
X52225Y135495D01*
X52439D01*
X52582Y135424D01*
X52654Y135210D01*
Y134496D01*
Y135210D02*
X52868Y135424D01*
X53011Y135495D01*
X53225D01*
X53368Y135424D01*
X53439Y135210D01*
Y134496D01*
X54053Y135995D02*
X54125Y135924D01*
X54196Y135995D01*
X54125Y136067D01*
X54053Y135995D01*
X54125Y135495D02*
Y134496D01*
X54460Y135995D02*
Y134496D01*
X54775Y136281D02*
X54917Y136138D01*
X55060Y135924D01*
X55203Y135638D01*
X55274Y135281D01*
Y134996D01*
X55203Y134638D01*
X55060Y134353D01*
X54917Y134139D01*
X54775Y133996D01*
X54917Y136138D02*
X55060Y135852D01*
X55132Y135638D01*
X55203Y135281D01*
Y134996D01*
X55132Y134638D01*
X55060Y134424D01*
X54917Y134139D01*
X61305Y135210D02*
X61948D01*
X62162Y135281D01*
X62234Y135353D01*
X62305Y135495D01*
Y135710D01*
X62234Y135852D01*
X62162Y135924D01*
X61948Y135995D01*
X61305D01*
Y134496D01*
X63141Y135995D02*
Y134496D01*
X62641Y135995D02*
X63640D01*
X63819D02*
Y134496D01*
X64819Y135995D02*
Y134496D01*
X63819Y135281D02*
X64819D01*
X71418Y135995D02*
Y134496D01*
Y135995D02*
X72061D01*
X72275Y135924D01*
X72346Y135852D01*
X72418Y135710D01*
Y135567D01*
X72346Y135424D01*
X72275Y135353D01*
X72061Y135281D01*
X71418D01*
X71918D02*
X72418Y134496D01*
X73111Y135495D02*
X72968Y135424D01*
X72825Y135281D01*
X72753Y135067D01*
Y134924D01*
X72825Y134710D01*
X72968Y134567D01*
X73111Y134496D01*
X73325D01*
X73468Y134567D01*
X73610Y134710D01*
X73682Y134924D01*
Y135067D01*
X73610Y135281D01*
X73468Y135424D01*
X73325Y135495D01*
X73111D01*
X74010D02*
Y134781D01*
X74082Y134567D01*
X74225Y134496D01*
X74439D01*
X74582Y134567D01*
X74796Y134781D01*
Y135495D02*
Y134496D01*
X75189Y135495D02*
Y134496D01*
Y135210D02*
X75403Y135424D01*
X75546Y135495D01*
X75760D01*
X75903Y135424D01*
X75974Y135210D01*
Y134496D01*
X77224Y135995D02*
Y134496D01*
Y135281D02*
X77081Y135424D01*
X76938Y135495D01*
X76724D01*
X76581Y135424D01*
X76438Y135281D01*
X76367Y135067D01*
Y134924D01*
X76438Y134710D01*
X76581Y134567D01*
X76724Y134496D01*
X76938D01*
X77081Y134567D01*
X77224Y134710D01*
X7475Y132995D02*
Y131496D01*
X8475Y132995D02*
Y131496D01*
X7475Y132281D02*
X8475D01*
X21227Y132638D02*
Y132710D01*
X21298Y132853D01*
X21370Y132924D01*
X21512Y132995D01*
X21798D01*
X21941Y132924D01*
X22012Y132853D01*
X22084Y132710D01*
Y132567D01*
X22012Y132424D01*
X21869Y132210D01*
X21155Y131496D01*
X22155D01*
X35993Y132638D02*
Y132710D01*
X36064Y132853D01*
X36136Y132924D01*
X36278Y132995D01*
X36564D01*
X36707Y132924D01*
X36778Y132853D01*
X36850Y132710D01*
Y132567D01*
X36778Y132424D01*
X36636Y132210D01*
X35921Y131496D01*
X36921D01*
X37328Y131638D02*
X37257Y131567D01*
X37328Y131496D01*
X37400Y131567D01*
X37328Y131638D01*
X37871Y132995D02*
X38657D01*
X38228Y132424D01*
X38442D01*
X38585Y132353D01*
X38657Y132281D01*
X38728Y132067D01*
Y131924D01*
X38657Y131710D01*
X38514Y131567D01*
X38299Y131496D01*
X38085D01*
X37871Y131567D01*
X37800Y131638D01*
X37728Y131781D01*
X39064Y132495D02*
Y131496D01*
Y132210D02*
X39278Y132424D01*
X39421Y132495D01*
X39635D01*
X39778Y132424D01*
X39849Y132210D01*
Y131496D01*
Y132210D02*
X40063Y132424D01*
X40206Y132495D01*
X40420D01*
X40563Y132424D01*
X40635Y132210D01*
Y131496D01*
X41106Y132495D02*
Y131496D01*
Y132210D02*
X41320Y132424D01*
X41463Y132495D01*
X41677D01*
X41820Y132424D01*
X41892Y132210D01*
Y131496D01*
Y132210D02*
X42106Y132424D01*
X42249Y132495D01*
X42463D01*
X42606Y132424D01*
X42677Y132210D01*
Y131496D01*
X44827Y133281D02*
X44684Y133138D01*
X44541Y132924D01*
X44398Y132638D01*
X44327Y132281D01*
Y131996D01*
X44398Y131638D01*
X44541Y131353D01*
X44684Y131139D01*
X44827Y130996D01*
X44684Y133138D02*
X44541Y132853D01*
X44470Y132638D01*
X44398Y132281D01*
Y131996D01*
X44470Y131638D01*
X44541Y131424D01*
X44684Y131139D01*
X46041Y132495D02*
X45969Y132281D01*
X45826Y132138D01*
X45612Y132067D01*
X45541D01*
X45327Y132138D01*
X45184Y132281D01*
X45112Y132495D01*
Y132567D01*
X45184Y132781D01*
X45327Y132924D01*
X45541Y132995D01*
X45612D01*
X45826Y132924D01*
X45969Y132781D01*
X46041Y132495D01*
Y132138D01*
X45969Y131781D01*
X45826Y131567D01*
X45612Y131496D01*
X45469D01*
X45255Y131567D01*
X45184Y131710D01*
X46876Y132995D02*
X46662Y132924D01*
X46519Y132710D01*
X46448Y132353D01*
Y132138D01*
X46519Y131781D01*
X46662Y131567D01*
X46876Y131496D01*
X47019D01*
X47233Y131567D01*
X47376Y131781D01*
X47448Y132138D01*
Y132353D01*
X47376Y132710D01*
X47233Y132924D01*
X47019Y132995D01*
X46876D01*
X47855Y131638D02*
X47783Y131567D01*
X47855Y131496D01*
X47926Y131567D01*
X47855Y131638D01*
X49111Y132995D02*
X48397D01*
X48326Y132353D01*
X48397Y132424D01*
X48612Y132495D01*
X48826D01*
X49040Y132424D01*
X49183Y132281D01*
X49254Y132067D01*
Y131924D01*
X49183Y131710D01*
X49040Y131567D01*
X48826Y131496D01*
X48612D01*
X48397Y131567D01*
X48326Y131638D01*
X48254Y131781D01*
X50447Y132995D02*
X49733D01*
X49661Y132353D01*
X49733Y132424D01*
X49947Y132495D01*
X50161D01*
X50375Y132424D01*
X50518Y132281D01*
X50590Y132067D01*
Y131924D01*
X50518Y131710D01*
X50375Y131567D01*
X50161Y131496D01*
X49947D01*
X49733Y131567D01*
X49661Y131638D01*
X49590Y131781D01*
X50925Y132710D02*
X51068Y132781D01*
X51282Y132995D01*
Y131496D01*
X52025Y132495D02*
Y131496D01*
Y132210D02*
X52239Y132424D01*
X52382Y132495D01*
X52596D01*
X52739Y132424D01*
X52811Y132210D01*
Y131496D01*
Y132210D02*
X53025Y132424D01*
X53168Y132495D01*
X53382D01*
X53525Y132424D01*
X53596Y132210D01*
Y131496D01*
X54210Y132995D02*
X54282Y132924D01*
X54353Y132995D01*
X54282Y133067D01*
X54210Y132995D01*
X54282Y132495D02*
Y131496D01*
X54617Y132995D02*
Y131496D01*
X54932Y133281D02*
X55074Y133138D01*
X55217Y132924D01*
X55360Y132638D01*
X55432Y132281D01*
Y131996D01*
X55360Y131638D01*
X55217Y131353D01*
X55074Y131139D01*
X54932Y130996D01*
X55074Y133138D02*
X55217Y132853D01*
X55289Y132638D01*
X55360Y132281D01*
Y131996D01*
X55289Y131638D01*
X55217Y131424D01*
X55074Y131139D01*
X61305Y132210D02*
X61948D01*
X62162Y132281D01*
X62234Y132353D01*
X62305Y132495D01*
Y132710D01*
X62234Y132853D01*
X62162Y132924D01*
X61948Y132995D01*
X61305D01*
Y131496D01*
X63141Y132995D02*
Y131496D01*
X62641Y132995D02*
X63640D01*
X63819D02*
Y131496D01*
X64819Y132995D02*
Y131496D01*
X63819Y132281D02*
X64819D01*
X71418Y132995D02*
Y131496D01*
Y132995D02*
X72061D01*
X72275Y132924D01*
X72346Y132853D01*
X72418Y132710D01*
Y132567D01*
X72346Y132424D01*
X72275Y132353D01*
X72061Y132281D01*
X71418D01*
X71918D02*
X72418Y131496D01*
X73111Y132495D02*
X72968Y132424D01*
X72825Y132281D01*
X72753Y132067D01*
Y131924D01*
X72825Y131710D01*
X72968Y131567D01*
X73111Y131496D01*
X73325D01*
X73468Y131567D01*
X73610Y131710D01*
X73682Y131924D01*
Y132067D01*
X73610Y132281D01*
X73468Y132424D01*
X73325Y132495D01*
X73111D01*
X74010D02*
Y131781D01*
X74082Y131567D01*
X74225Y131496D01*
X74439D01*
X74582Y131567D01*
X74796Y131781D01*
Y132495D02*
Y131496D01*
X75189Y132495D02*
Y131496D01*
Y132210D02*
X75403Y132424D01*
X75546Y132495D01*
X75760D01*
X75903Y132424D01*
X75974Y132210D01*
Y131496D01*
X77224Y132995D02*
Y131496D01*
Y132281D02*
X77081Y132424D01*
X76938Y132495D01*
X76724D01*
X76581Y132424D01*
X76438Y132281D01*
X76367Y132067D01*
Y131924D01*
X76438Y131710D01*
X76581Y131567D01*
X76724Y131496D01*
X76938D01*
X77081Y131567D01*
X77224Y131710D01*
X8189Y129995D02*
Y128853D01*
X8118Y128638D01*
X8047Y128567D01*
X7904Y128496D01*
X7761D01*
X7618Y128567D01*
X7547Y128638D01*
X7475Y128853D01*
Y128996D01*
X21155Y129710D02*
X21298Y129781D01*
X21512Y129995D01*
Y128496D01*
X22327Y129638D02*
Y129710D01*
X22398Y129853D01*
X22469Y129924D01*
X22612Y129995D01*
X22898D01*
X23041Y129924D01*
X23112Y129853D01*
X23183Y129710D01*
Y129567D01*
X23112Y129424D01*
X22969Y129210D01*
X22255Y128496D01*
X23255D01*
X36064Y129995D02*
X36850D01*
X36421Y129424D01*
X36636D01*
X36778Y129353D01*
X36850Y129281D01*
X36921Y129067D01*
Y128924D01*
X36850Y128710D01*
X36707Y128567D01*
X36493Y128496D01*
X36278D01*
X36064Y128567D01*
X35993Y128638D01*
X35921Y128781D01*
X37257Y129495D02*
Y128496D01*
Y129210D02*
X37471Y129424D01*
X37614Y129495D01*
X37828D01*
X37971Y129424D01*
X38042Y129210D01*
Y128496D01*
Y129210D02*
X38257Y129424D01*
X38399Y129495D01*
X38614D01*
X38757Y129424D01*
X38828Y129210D01*
Y128496D01*
X39299Y129495D02*
Y128496D01*
Y129210D02*
X39514Y129424D01*
X39656Y129495D01*
X39871D01*
X40013Y129424D01*
X40085Y129210D01*
Y128496D01*
Y129210D02*
X40299Y129424D01*
X40442Y129495D01*
X40656D01*
X40799Y129424D01*
X40870Y129210D01*
Y128496D01*
X43020Y130281D02*
X42877Y130138D01*
X42734Y129924D01*
X42591Y129638D01*
X42520Y129281D01*
Y128996D01*
X42591Y128638D01*
X42734Y128353D01*
X42877Y128139D01*
X43020Y127996D01*
X42877Y130138D02*
X42734Y129853D01*
X42663Y129638D01*
X42591Y129281D01*
Y128996D01*
X42663Y128638D01*
X42734Y128424D01*
X42877Y128139D01*
X43306Y129710D02*
X43448Y129781D01*
X43663Y129995D01*
Y128496D01*
X44405Y129710D02*
X44548Y129781D01*
X44762Y129995D01*
Y128496D01*
X45862Y129995D02*
X45648Y129924D01*
X45576Y129781D01*
Y129638D01*
X45648Y129495D01*
X45791Y129424D01*
X46076Y129353D01*
X46291Y129281D01*
X46433Y129138D01*
X46505Y128996D01*
Y128781D01*
X46433Y128638D01*
X46362Y128567D01*
X46148Y128496D01*
X45862D01*
X45648Y128567D01*
X45576Y128638D01*
X45505Y128781D01*
Y128996D01*
X45576Y129138D01*
X45719Y129281D01*
X45934Y129353D01*
X46219Y129424D01*
X46362Y129495D01*
X46433Y129638D01*
Y129781D01*
X46362Y129924D01*
X46148Y129995D01*
X45862D01*
X46912Y128638D02*
X46841Y128567D01*
X46912Y128496D01*
X46983Y128567D01*
X46912Y128638D01*
X47312Y129710D02*
X47455Y129781D01*
X47669Y129995D01*
Y128496D01*
X48412Y129710D02*
X48554Y129781D01*
X48769Y129995D01*
Y128496D01*
X49511Y129495D02*
Y128496D01*
Y129210D02*
X49726Y129424D01*
X49868Y129495D01*
X50083D01*
X50225Y129424D01*
X50297Y129210D01*
Y128496D01*
Y129210D02*
X50511Y129424D01*
X50654Y129495D01*
X50868D01*
X51011Y129424D01*
X51082Y129210D01*
Y128496D01*
X51697Y129995D02*
X51768Y129924D01*
X51839Y129995D01*
X51768Y130067D01*
X51697Y129995D01*
X51768Y129495D02*
Y128496D01*
X52104Y129995D02*
Y128496D01*
X52418Y130281D02*
X52561Y130138D01*
X52704Y129924D01*
X52846Y129638D01*
X52918Y129281D01*
Y128996D01*
X52846Y128638D01*
X52704Y128353D01*
X52561Y128139D01*
X52418Y127996D01*
X52561Y130138D02*
X52704Y129853D01*
X52775Y129638D01*
X52846Y129281D01*
Y128996D01*
X52775Y128638D01*
X52704Y128424D01*
X52561Y128139D01*
X61305Y129995D02*
Y128496D01*
Y129995D02*
X62305Y128496D01*
Y129995D02*
Y128496D01*
X62719Y129210D02*
X63362D01*
X63576Y129281D01*
X63648Y129353D01*
X63719Y129495D01*
Y129710D01*
X63648Y129853D01*
X63576Y129924D01*
X63362Y129995D01*
X62719D01*
Y128496D01*
X64555Y129995D02*
Y128496D01*
X64055Y129995D02*
X65054D01*
X65233D02*
Y128496D01*
X66233Y129995D02*
Y128496D01*
X65233Y129281D02*
X66233D01*
X71418Y129995D02*
Y128496D01*
Y129995D02*
X72061D01*
X72275Y129924D01*
X72346Y129853D01*
X72418Y129710D01*
Y129567D01*
X72346Y129424D01*
X72275Y129353D01*
X72061Y129281D01*
X71418D01*
X71918D02*
X72418Y128496D01*
X73111Y129495D02*
X72968Y129424D01*
X72825Y129281D01*
X72753Y129067D01*
Y128924D01*
X72825Y128710D01*
X72968Y128567D01*
X73111Y128496D01*
X73325D01*
X73468Y128567D01*
X73610Y128710D01*
X73682Y128924D01*
Y129067D01*
X73610Y129281D01*
X73468Y129424D01*
X73325Y129495D01*
X73111D01*
X74010D02*
Y128781D01*
X74082Y128567D01*
X74225Y128496D01*
X74439D01*
X74582Y128567D01*
X74796Y128781D01*
Y129495D02*
Y128496D01*
X75189Y129495D02*
Y128496D01*
Y129210D02*
X75403Y129424D01*
X75546Y129495D01*
X75760D01*
X75903Y129424D01*
X75974Y129210D01*
Y128496D01*
X77224Y129995D02*
Y128496D01*
Y129281D02*
X77081Y129424D01*
X76938Y129495D01*
X76724D01*
X76581Y129424D01*
X76438Y129281D01*
X76367Y129067D01*
Y128924D01*
X76438Y128710D01*
X76581Y128567D01*
X76724Y128496D01*
X76938D01*
X77081Y128567D01*
X77224Y128710D01*
X7475Y126995D02*
Y125496D01*
Y126995D02*
X8404D01*
X7475Y126281D02*
X8047D01*
X21227Y126638D02*
Y126710D01*
X21298Y126853D01*
X21370Y126924D01*
X21512Y126995D01*
X21798D01*
X21941Y126924D01*
X22012Y126853D01*
X22084Y126710D01*
Y126567D01*
X22012Y126424D01*
X21869Y126210D01*
X21155Y125496D01*
X22155D01*
X36064Y126995D02*
X36850D01*
X36421Y126424D01*
X36636D01*
X36778Y126353D01*
X36850Y126281D01*
X36921Y126067D01*
Y125924D01*
X36850Y125710D01*
X36707Y125567D01*
X36493Y125496D01*
X36278D01*
X36064Y125567D01*
X35993Y125638D01*
X35921Y125781D01*
X37328Y125638D02*
X37257Y125567D01*
X37328Y125496D01*
X37400Y125567D01*
X37328Y125638D01*
X37871Y126995D02*
X38657D01*
X38228Y126424D01*
X38442D01*
X38585Y126353D01*
X38657Y126281D01*
X38728Y126067D01*
Y125924D01*
X38657Y125710D01*
X38514Y125567D01*
X38299Y125496D01*
X38085D01*
X37871Y125567D01*
X37800Y125638D01*
X37728Y125781D01*
X39064Y126495D02*
Y125496D01*
Y126210D02*
X39278Y126424D01*
X39421Y126495D01*
X39635D01*
X39778Y126424D01*
X39849Y126210D01*
Y125496D01*
Y126210D02*
X40063Y126424D01*
X40206Y126495D01*
X40420D01*
X40563Y126424D01*
X40635Y126210D01*
Y125496D01*
X41106Y126495D02*
Y125496D01*
Y126210D02*
X41320Y126424D01*
X41463Y126495D01*
X41677D01*
X41820Y126424D01*
X41892Y126210D01*
Y125496D01*
Y126210D02*
X42106Y126424D01*
X42249Y126495D01*
X42463D01*
X42606Y126424D01*
X42677Y126210D01*
Y125496D01*
X44827Y127281D02*
X44684Y127138D01*
X44541Y126924D01*
X44398Y126638D01*
X44327Y126281D01*
Y125996D01*
X44398Y125638D01*
X44541Y125353D01*
X44684Y125139D01*
X44827Y124996D01*
X44684Y127138D02*
X44541Y126853D01*
X44470Y126638D01*
X44398Y126281D01*
Y125996D01*
X44470Y125638D01*
X44541Y125424D01*
X44684Y125139D01*
X45112Y126710D02*
X45255Y126781D01*
X45469Y126995D01*
Y125496D01*
X46283Y126638D02*
Y126710D01*
X46355Y126853D01*
X46426Y126924D01*
X46569Y126995D01*
X46855D01*
X46998Y126924D01*
X47069Y126853D01*
X47140Y126710D01*
Y126567D01*
X47069Y126424D01*
X46926Y126210D01*
X46212Y125496D01*
X47212D01*
X48476Y126495D02*
X48404Y126281D01*
X48262Y126138D01*
X48047Y126067D01*
X47976D01*
X47762Y126138D01*
X47619Y126281D01*
X47548Y126495D01*
Y126567D01*
X47619Y126781D01*
X47762Y126924D01*
X47976Y126995D01*
X48047D01*
X48262Y126924D01*
X48404Y126781D01*
X48476Y126495D01*
Y126138D01*
X48404Y125781D01*
X48262Y125567D01*
X48047Y125496D01*
X47905D01*
X47690Y125567D01*
X47619Y125710D01*
X48954Y125638D02*
X48883Y125567D01*
X48954Y125496D01*
X49026Y125567D01*
X48954Y125638D01*
X50283Y126495D02*
X50211Y126281D01*
X50068Y126138D01*
X49854Y126067D01*
X49783D01*
X49568Y126138D01*
X49426Y126281D01*
X49354Y126495D01*
Y126567D01*
X49426Y126781D01*
X49568Y126924D01*
X49783Y126995D01*
X49854D01*
X50068Y126924D01*
X50211Y126781D01*
X50283Y126495D01*
Y126138D01*
X50211Y125781D01*
X50068Y125567D01*
X49854Y125496D01*
X49711D01*
X49497Y125567D01*
X49426Y125710D01*
X50761Y126638D02*
Y126710D01*
X50833Y126853D01*
X50904Y126924D01*
X51047Y126995D01*
X51332D01*
X51475Y126924D01*
X51547Y126853D01*
X51618Y126710D01*
Y126567D01*
X51547Y126424D01*
X51404Y126210D01*
X50690Y125496D01*
X51689D01*
X52025Y126710D02*
X52168Y126781D01*
X52382Y126995D01*
Y125496D01*
X53125Y126495D02*
Y125496D01*
Y126210D02*
X53339Y126424D01*
X53482Y126495D01*
X53696D01*
X53839Y126424D01*
X53910Y126210D01*
Y125496D01*
Y126210D02*
X54125Y126424D01*
X54267Y126495D01*
X54482D01*
X54625Y126424D01*
X54696Y126210D01*
Y125496D01*
X55310Y126995D02*
X55382Y126924D01*
X55453Y126995D01*
X55382Y127067D01*
X55310Y126995D01*
X55382Y126495D02*
Y125496D01*
X55717Y126995D02*
Y125496D01*
X56031Y127281D02*
X56174Y127138D01*
X56317Y126924D01*
X56460Y126638D01*
X56531Y126281D01*
Y125996D01*
X56460Y125638D01*
X56317Y125353D01*
X56174Y125139D01*
X56031Y124996D01*
X56174Y127138D02*
X56317Y126853D01*
X56388Y126638D01*
X56460Y126281D01*
Y125996D01*
X56388Y125638D01*
X56317Y125424D01*
X56174Y125139D01*
X61305Y126995D02*
Y125496D01*
Y126995D02*
X62305Y125496D01*
Y126995D02*
Y125496D01*
X62719Y126210D02*
X63362D01*
X63576Y126281D01*
X63648Y126353D01*
X63719Y126495D01*
Y126710D01*
X63648Y126853D01*
X63576Y126924D01*
X63362Y126995D01*
X62719D01*
Y125496D01*
X64555Y126995D02*
Y125496D01*
X64055Y126995D02*
X65054D01*
X65233D02*
Y125496D01*
X66233Y126995D02*
Y125496D01*
X65233Y126281D02*
X66233D01*
X71418Y126995D02*
Y125496D01*
Y126995D02*
X72061D01*
X72275Y126924D01*
X72346Y126853D01*
X72418Y126710D01*
Y126567D01*
X72346Y126424D01*
X72275Y126353D01*
X72061Y126281D01*
X71418D01*
X71918D02*
X72418Y125496D01*
X73111Y126495D02*
X72968Y126424D01*
X72825Y126281D01*
X72753Y126067D01*
Y125924D01*
X72825Y125710D01*
X72968Y125567D01*
X73111Y125496D01*
X73325D01*
X73468Y125567D01*
X73610Y125710D01*
X73682Y125924D01*
Y126067D01*
X73610Y126281D01*
X73468Y126424D01*
X73325Y126495D01*
X73111D01*
X74010D02*
Y125781D01*
X74082Y125567D01*
X74225Y125496D01*
X74439D01*
X74582Y125567D01*
X74796Y125781D01*
Y126495D02*
Y125496D01*
X75189Y126495D02*
Y125496D01*
Y126210D02*
X75403Y126424D01*
X75546Y126495D01*
X75760D01*
X75903Y126424D01*
X75974Y126210D01*
Y125496D01*
X77224Y126995D02*
Y125496D01*
Y126281D02*
X77081Y126424D01*
X76938Y126495D01*
X76724D01*
X76581Y126424D01*
X76438Y126281D01*
X76367Y126067D01*
Y125924D01*
X76438Y125710D01*
X76581Y125567D01*
X76724Y125496D01*
X76938D01*
X77081Y125567D01*
X77224Y125710D01*
X21869Y123995D02*
X21155Y122996D01*
X22227D01*
X21869Y123995D02*
Y122496D01*
X23205Y123995D02*
X22491Y122996D01*
X23562D01*
X23205Y123995D02*
Y122496D01*
X24183Y123995D02*
X23969Y123924D01*
X23898Y123781D01*
Y123638D01*
X23969Y123495D01*
X24112Y123424D01*
X24397Y123353D01*
X24612Y123281D01*
X24755Y123138D01*
X24826Y122996D01*
Y122781D01*
X24755Y122638D01*
X24683Y122567D01*
X24469Y122496D01*
X24183D01*
X23969Y122567D01*
X23898Y122638D01*
X23826Y122781D01*
Y122996D01*
X23898Y123138D01*
X24040Y123281D01*
X24255Y123353D01*
X24540Y123424D01*
X24683Y123495D01*
X24755Y123638D01*
Y123781D01*
X24683Y123924D01*
X24469Y123995D01*
X24183D01*
X28206D02*
Y122496D01*
X27706Y123995D02*
X28706D01*
X29241Y123495D02*
X29099Y123424D01*
X28956Y123281D01*
X28884Y123067D01*
Y122924D01*
X28956Y122710D01*
X29099Y122567D01*
X29241Y122496D01*
X29456D01*
X29598Y122567D01*
X29741Y122710D01*
X29813Y122924D01*
Y123067D01*
X29741Y123281D01*
X29598Y123424D01*
X29456Y123495D01*
X29241D01*
X30355Y123995D02*
Y122781D01*
X30427Y122567D01*
X30570Y122496D01*
X30712D01*
X30141Y123495D02*
X30641D01*
X31784D02*
Y122496D01*
Y123281D02*
X31641Y123424D01*
X31498Y123495D01*
X31284D01*
X31141Y123424D01*
X30998Y123281D01*
X30927Y123067D01*
Y122924D01*
X30998Y122710D01*
X31141Y122567D01*
X31284Y122496D01*
X31498D01*
X31641Y122567D01*
X31784Y122710D01*
X32184Y123995D02*
Y122496D01*
M02*
