%FSLAX43Y43*%
%MOMM*%
G71*
G01*
G75*
%ADD10C,0.600*%
%ADD11C,0.400*%
%ADD12C,0.800*%
%ADD13C,0.230*%
%ADD14C,0.254*%
%ADD15C,0.050*%
%ADD16C,1.500*%
%ADD17R,1.500X1.500*%
%ADD18R,1.500X1.500*%
%ADD19R,1.700X1.700*%
%ADD20C,1.700*%
%ADD21C,1.524*%
%ADD22C,1.800*%
%ADD23C,2.230*%
%ADD24C,3.300*%
%ADD25C,1.620*%
%ADD26C,3.800*%
%ADD27C,1.600*%
%ADD28R,1.600X1.600*%
%ADD29C,1.500*%
%ADD30R,1.500X1.500*%
%ADD31R,1.500X1.500*%
%ADD32C,1.200*%
%ADD33C,2.500*%
%ADD34C,2.100*%
%ADD35R,2.000X2.000*%
%ADD36C,2.000*%
%ADD37C,1.400*%
%ADD38C,0.800*%
%ADD39C,0.500*%
%ADD40C,1.000*%
%ADD41C,0.100*%
%ADD42C,0.250*%
%ADD43C,0.200*%
%ADD44C,0.127*%
%ADD45C,0.150*%
%ADD46C,0.203*%
%ADD47R,0.500X2.000*%
%ADD48R,2.000X0.800*%
%ADD49R,1.900X0.800*%
G36*
X22651Y51181D02*
X22473D01*
X21980Y52462D01*
X22164D01*
X22495Y51531D01*
Y51529D01*
X22497Y51525D01*
X22499Y51520D01*
X22502Y51512D01*
X22506Y51502D01*
X22509Y51490D01*
X22519Y51463D01*
X22529Y51430D01*
X22541Y51395D01*
X22563Y51320D01*
Y51322D01*
X22565Y51325D01*
X22567Y51330D01*
X22568Y51339D01*
X22572Y51347D01*
X22575Y51359D01*
X22584Y51386D01*
X22594Y51419D01*
X22606Y51454D01*
X22619Y51492D01*
X22633Y51531D01*
X22979Y52462D01*
X23152D01*
X22651Y51181D01*
D02*
G37*
G36*
X20824D02*
X20644D01*
Y51361D01*
X20824D01*
Y51181D01*
D02*
G37*
G36*
X19989Y52465D02*
X19999D01*
X20025Y52462D01*
X20054Y52455D01*
X20086Y52448D01*
X20120Y52437D01*
X20154Y52421D01*
X20156D01*
X20157Y52420D01*
X20169Y52413D01*
X20184Y52403D01*
X20205Y52389D01*
X20225Y52372D01*
X20249Y52352D01*
X20271Y52326D01*
X20290Y52299D01*
X20291Y52296D01*
X20296Y52286D01*
X20305Y52270D01*
X20313Y52250D01*
X20322Y52224D01*
X20330Y52197D01*
X20335Y52167D01*
X20337Y52135D01*
Y52133D01*
Y52131D01*
Y52121D01*
X20335Y52104D01*
X20332Y52084D01*
X20325Y52062D01*
X20318Y52034D01*
X20307Y52009D01*
X20291Y51982D01*
X20290Y51978D01*
X20283Y51970D01*
X20273Y51958D01*
X20259Y51943D01*
X20240Y51926D01*
X20218Y51909D01*
X20191Y51890D01*
X20161Y51875D01*
X20162D01*
X20166Y51873D01*
X20171Y51872D01*
X20179Y51870D01*
X20200Y51861D01*
X20225Y51851D01*
X20252Y51836D01*
X20281Y51817D01*
X20310Y51794D01*
X20335Y51765D01*
Y51763D01*
X20339Y51761D01*
X20342Y51756D01*
X20346Y51749D01*
X20356Y51732D01*
X20368Y51709D01*
X20380Y51678D01*
X20390Y51644D01*
X20397Y51603D01*
X20400Y51559D01*
Y51558D01*
Y51553D01*
Y51542D01*
X20398Y51531D01*
X20397Y51517D01*
X20393Y51500D01*
X20390Y51481D01*
X20385Y51461D01*
X20378Y51439D01*
X20369Y51417D01*
X20359Y51393D01*
X20347Y51368D01*
X20334Y51344D01*
X20317Y51320D01*
X20298Y51296D01*
X20276Y51274D01*
X20274Y51273D01*
X20271Y51269D01*
X20264Y51264D01*
X20254Y51256D01*
X20242Y51247D01*
X20227Y51239D01*
X20212Y51227D01*
X20191Y51217D01*
X20171Y51206D01*
X20147Y51196D01*
X20122Y51186D01*
X20094Y51178D01*
X20066Y51169D01*
X20033Y51164D01*
X20001Y51161D01*
X19967Y51159D01*
X19950D01*
X19940Y51161D01*
X19925Y51162D01*
X19908Y51164D01*
X19889Y51167D01*
X19869Y51171D01*
X19825Y51183D01*
X19803Y51191D01*
X19779Y51201D01*
X19755Y51213D01*
X19731Y51227D01*
X19709Y51242D01*
X19687Y51259D01*
X19686Y51261D01*
X19682Y51264D01*
X19677Y51269D01*
X19670Y51278D01*
X19662Y51288D01*
X19652Y51300D01*
X19641Y51313D01*
X19630Y51329D01*
X19619Y51347D01*
X19608Y51368D01*
X19597Y51388D01*
X19587Y51412D01*
X19572Y51463D01*
X19565Y51492D01*
X19562Y51520D01*
X19720Y51541D01*
Y51539D01*
X19721Y51536D01*
X19723Y51529D01*
X19725Y51519D01*
X19728Y51508D01*
X19731Y51495D01*
X19740Y51466D01*
X19753Y51434D01*
X19769Y51403D01*
X19787Y51373D01*
X19798Y51359D01*
X19809Y51347D01*
X19813Y51346D01*
X19821Y51339D01*
X19835Y51329D01*
X19854Y51318D01*
X19877Y51308D01*
X19904Y51298D01*
X19935Y51291D01*
X19969Y51290D01*
X19979D01*
X19988Y51291D01*
X19998D01*
X20008Y51293D01*
X20035Y51300D01*
X20064Y51308D01*
X20096Y51322D01*
X20127Y51340D01*
X20142Y51352D01*
X20157Y51366D01*
X20159Y51368D01*
X20161Y51369D01*
X20169Y51380D01*
X20181Y51396D01*
X20196Y51419D01*
X20210Y51446D01*
X20222Y51478D01*
X20230Y51515D01*
X20234Y51536D01*
Y51556D01*
Y51558D01*
Y51561D01*
Y51566D01*
X20232Y51575D01*
X20230Y51593D01*
X20225Y51619D01*
X20217Y51648D01*
X20203Y51676D01*
X20186Y51707D01*
X20162Y51734D01*
X20159Y51738D01*
X20149Y51746D01*
X20134Y51756D01*
X20113Y51770D01*
X20088Y51783D01*
X20057Y51794D01*
X20022Y51802D01*
X19983Y51805D01*
X19966D01*
X19952Y51804D01*
X19937Y51802D01*
X19918Y51799D01*
X19896Y51794D01*
X19872Y51788D01*
X19889Y51926D01*
X19893D01*
X19898Y51924D01*
X19906Y51922D01*
X19925D01*
X19932Y51924D01*
X19950Y51926D01*
X19974Y51929D01*
X20003Y51936D01*
X20033Y51945D01*
X20064Y51958D01*
X20094Y51975D01*
X20096D01*
X20098Y51977D01*
X20108Y51985D01*
X20120Y51997D01*
X20135Y52016D01*
X20150Y52038D01*
X20164Y52067D01*
X20173Y52099D01*
X20174Y52118D01*
X20176Y52138D01*
Y52140D01*
Y52141D01*
X20174Y52153D01*
X20173Y52168D01*
X20169Y52189D01*
X20161Y52211D01*
X20150Y52235D01*
X20137Y52258D01*
X20117Y52280D01*
X20113Y52282D01*
X20106Y52289D01*
X20093Y52299D01*
X20076Y52309D01*
X20054Y52319D01*
X20028Y52330D01*
X19999Y52336D01*
X19966Y52338D01*
X19950D01*
X19933Y52335D01*
X19913Y52331D01*
X19888Y52325D01*
X19862Y52314D01*
X19837Y52299D01*
X19813Y52280D01*
X19809Y52277D01*
X19803Y52270D01*
X19792Y52257D01*
X19781Y52238D01*
X19767Y52213D01*
X19753Y52184D01*
X19743Y52148D01*
X19735Y52107D01*
X19577Y52135D01*
Y52136D01*
X19579Y52141D01*
X19580Y52150D01*
X19584Y52160D01*
X19587Y52174D01*
X19592Y52189D01*
X19604Y52224D01*
X19621Y52264D01*
X19645Y52304D01*
X19672Y52343D01*
X19689Y52362D01*
X19708Y52379D01*
X19709Y52381D01*
X19713Y52382D01*
X19718Y52387D01*
X19726Y52392D01*
X19736Y52399D01*
X19748Y52406D01*
X19762Y52415D01*
X19777Y52423D01*
X19796Y52431D01*
X19815Y52440D01*
X19859Y52454D01*
X19908Y52464D01*
X19935Y52465D01*
X19962Y52467D01*
X19979D01*
X19989Y52465D01*
D02*
G37*
G36*
X19037Y51887D02*
X19385D01*
Y51741D01*
X19037D01*
Y51390D01*
X18890D01*
Y51741D01*
X18542D01*
Y51887D01*
X18890D01*
Y52235D01*
X19037D01*
Y51887D01*
D02*
G37*
G36*
X22000Y57882D02*
X21488D01*
X21420Y57538D01*
X21421Y57539D01*
X21425Y57541D01*
X21432Y57544D01*
X21440Y57551D01*
X21450Y57556D01*
X21464Y57563D01*
X21477Y57572D01*
X21493Y57578D01*
X21530Y57594D01*
X21571Y57607D01*
X21615Y57616D01*
X21639Y57617D01*
X21662Y57619D01*
X21679D01*
X21691Y57617D01*
X21705Y57616D01*
X21722Y57612D01*
X21740Y57609D01*
X21761Y57604D01*
X21783Y57599D01*
X21805Y57590D01*
X21829Y57582D01*
X21852Y57570D01*
X21876Y57556D01*
X21900Y57541D01*
X21924Y57522D01*
X21946Y57502D01*
X21947Y57500D01*
X21951Y57497D01*
X21956Y57490D01*
X21964Y57482D01*
X21973Y57470D01*
X21983Y57456D01*
X21993Y57439D01*
X22003Y57421D01*
X22014Y57400D01*
X22025Y57378D01*
X22034Y57353D01*
X22042Y57327D01*
X22051Y57298D01*
X22056Y57268D01*
X22059Y57237D01*
X22061Y57203D01*
Y57202D01*
Y57195D01*
Y57186D01*
X22059Y57175D01*
X22058Y57159D01*
X22056Y57141D01*
X22053Y57122D01*
X22049Y57100D01*
X22036Y57052D01*
X22029Y57029D01*
X22019Y57001D01*
X22007Y56976D01*
X21993Y56951D01*
X21978Y56925D01*
X21959Y56901D01*
X21958Y56900D01*
X21954Y56895D01*
X21946Y56888D01*
X21937Y56878D01*
X21924Y56866D01*
X21908Y56852D01*
X21891Y56839D01*
X21871Y56825D01*
X21847Y56810D01*
X21824Y56796D01*
X21795Y56783D01*
X21766Y56771D01*
X21734Y56761D01*
X21698Y56754D01*
X21662Y56749D01*
X21623Y56747D01*
X21606D01*
X21594Y56749D01*
X21579Y56750D01*
X21562Y56752D01*
X21544Y56755D01*
X21522Y56759D01*
X21477Y56771D01*
X21454Y56779D01*
X21430Y56788D01*
X21406Y56800D01*
X21382Y56811D01*
X21360Y56827D01*
X21338Y56844D01*
X21337Y56845D01*
X21333Y56849D01*
X21328Y56854D01*
X21321Y56862D01*
X21313Y56871D01*
X21303Y56883D01*
X21292Y56898D01*
X21281Y56913D01*
X21270Y56930D01*
X21259Y56951D01*
X21248Y56971D01*
X21238Y56995D01*
X21223Y57046D01*
X21216Y57074D01*
X21213Y57103D01*
X21377Y57115D01*
Y57113D01*
X21379Y57110D01*
Y57103D01*
X21381Y57095D01*
X21384Y57085D01*
X21386Y57074D01*
X21394Y57047D01*
X21404Y57018D01*
X21420Y56988D01*
X21438Y56961D01*
X21460Y56935D01*
X21464Y56934D01*
X21472Y56927D01*
X21488Y56917D01*
X21506Y56906D01*
X21530Y56895D01*
X21557Y56886D01*
X21589Y56879D01*
X21623Y56876D01*
X21635D01*
X21642Y56878D01*
X21652Y56879D01*
X21664Y56881D01*
X21691Y56886D01*
X21722Y56896D01*
X21754Y56912D01*
X21769Y56922D01*
X21786Y56934D01*
X21801Y56945D01*
X21817Y56961D01*
X21818Y56962D01*
X21820Y56964D01*
X21824Y56969D01*
X21829Y56976D01*
X21835Y56984D01*
X21842Y56996D01*
X21849Y57008D01*
X21856Y57022D01*
X21869Y57054D01*
X21883Y57093D01*
X21891Y57137D01*
X21895Y57163D01*
Y57188D01*
Y57190D01*
Y57195D01*
Y57202D01*
X21893Y57210D01*
Y57222D01*
X21891Y57236D01*
X21885Y57266D01*
X21876Y57300D01*
X21863Y57336D01*
X21844Y57370D01*
X21832Y57387D01*
X21818Y57402D01*
Y57404D01*
X21815Y57405D01*
X21805Y57414D01*
X21788Y57427D01*
X21766Y57441D01*
X21737Y57454D01*
X21703Y57468D01*
X21664Y57477D01*
X21642Y57480D01*
X21606D01*
X21593Y57478D01*
X21574Y57475D01*
X21552Y57471D01*
X21530Y57465D01*
X21506Y57456D01*
X21483Y57444D01*
X21479Y57443D01*
X21472Y57438D01*
X21462Y57431D01*
X21449Y57421D01*
X21433Y57407D01*
X21416Y57392D01*
X21401Y57373D01*
X21387Y57354D01*
X21240Y57375D01*
X21364Y58033D01*
X22000D01*
Y57882D01*
D02*
G37*
G36*
X11743Y26384D02*
X12094D01*
Y26237D01*
X11743D01*
Y25889D01*
X11597D01*
Y26237D01*
X11249D01*
Y26384D01*
X11597D01*
Y26732D01*
X11743D01*
Y26384D01*
D02*
G37*
G36*
X20688Y57475D02*
X21036D01*
Y57329D01*
X20688D01*
Y56978D01*
X20541D01*
Y57329D01*
X20193D01*
Y57475D01*
X20541D01*
Y57823D01*
X20688D01*
Y57475D01*
D02*
G37*
G36*
X22811Y56769D02*
X22633D01*
X22139Y58050D01*
X22324D01*
X22655Y57119D01*
Y57117D01*
X22657Y57113D01*
X22658Y57108D01*
X22662Y57100D01*
X22665Y57090D01*
X22669Y57078D01*
X22679Y57051D01*
X22689Y57018D01*
X22701Y56983D01*
X22723Y56908D01*
Y56910D01*
X22725Y56913D01*
X22726Y56918D01*
X22728Y56927D01*
X22731Y56935D01*
X22735Y56947D01*
X22743Y56974D01*
X22753Y57007D01*
X22765Y57042D01*
X22779Y57079D01*
X22792Y57119D01*
X23139Y58050D01*
X23312D01*
X22811Y56769D01*
D02*
G37*
G36*
X29447Y52763D02*
X29457D01*
X29484Y52761D01*
X29513Y52756D01*
X29545Y52751D01*
X29578Y52742D01*
X29610Y52732D01*
X29612D01*
X29613Y52731D01*
X29623Y52727D01*
X29639Y52720D01*
X29656Y52710D01*
X29676Y52698D01*
X29696Y52683D01*
X29715Y52666D01*
X29732Y52647D01*
X29734Y52646D01*
X29739Y52637D01*
X29746Y52625D01*
X29754Y52610D01*
X29764Y52588D01*
X29773Y52564D01*
X29781Y52537D01*
X29788Y52505D01*
X29634Y52485D01*
Y52488D01*
X29630Y52496D01*
X29627Y52508D01*
X29622Y52525D01*
X29613Y52542D01*
X29601Y52561D01*
X29588Y52578D01*
X29571Y52595D01*
X29569Y52596D01*
X29562Y52602D01*
X29550Y52608D01*
X29535Y52615D01*
X29515Y52622D01*
X29491Y52629D01*
X29462Y52634D01*
X29430Y52636D01*
X29413D01*
X29393Y52634D01*
X29371Y52630D01*
X29345Y52627D01*
X29320Y52620D01*
X29296Y52610D01*
X29276Y52598D01*
X29274Y52596D01*
X29269Y52591D01*
X29260Y52585D01*
X29254Y52574D01*
X29245Y52563D01*
X29237Y52549D01*
X29231Y52532D01*
X29230Y52515D01*
Y52513D01*
Y52510D01*
X29231Y52505D01*
Y52496D01*
X29238Y52479D01*
X29242Y52469D01*
X29248Y52459D01*
X29250Y52457D01*
X29252Y52456D01*
X29257Y52451D01*
X29264Y52445D01*
X29270Y52439D01*
X29281Y52432D01*
X29294Y52425D01*
X29308Y52418D01*
X29310D01*
X29313Y52417D01*
X29321Y52413D01*
X29335Y52410D01*
X29352Y52405D01*
X29364Y52401D01*
X29377Y52398D01*
X29391Y52393D01*
X29408Y52389D01*
X29427Y52383D01*
X29447Y52378D01*
X29449D01*
X29454Y52376D01*
X29462Y52374D01*
X29474Y52371D01*
X29488Y52366D01*
X29503Y52362D01*
X29539Y52352D01*
X29578Y52340D01*
X29617Y52328D01*
X29652Y52317D01*
X29668Y52310D01*
X29681Y52305D01*
X29684Y52303D01*
X29691Y52300D01*
X29705Y52293D01*
X29718Y52284D01*
X29735Y52272D01*
X29752Y52257D01*
X29769Y52240D01*
X29785Y52222D01*
X29786Y52220D01*
X29791Y52211D01*
X29796Y52201D01*
X29805Y52186D01*
X29812Y52166D01*
X29817Y52143D01*
X29822Y52116D01*
X29824Y52087D01*
Y52084D01*
Y52074D01*
X29822Y52059D01*
X29819Y52040D01*
X29812Y52018D01*
X29803Y51992D01*
X29791Y51967D01*
X29776Y51940D01*
X29774Y51936D01*
X29768Y51928D01*
X29757Y51916D01*
X29742Y51901D01*
X29724Y51884D01*
X29701Y51865D01*
X29674Y51848D01*
X29644Y51833D01*
X29642D01*
X29640Y51831D01*
X29635Y51830D01*
X29628Y51828D01*
X29612Y51821D01*
X29588Y51814D01*
X29559Y51808D01*
X29525Y51801D01*
X29488Y51797D01*
X29449Y51796D01*
X29432D01*
X29418Y51797D01*
X29405D01*
X29386Y51799D01*
X29367Y51802D01*
X29347Y51806D01*
X29301Y51814D01*
X29255Y51828D01*
X29211Y51847D01*
X29191Y51857D01*
X29172Y51870D01*
X29170Y51872D01*
X29169Y51874D01*
X29164Y51879D01*
X29157Y51884D01*
X29150Y51892D01*
X29142Y51903D01*
X29131Y51913D01*
X29121Y51926D01*
X29111Y51942D01*
X29101Y51959D01*
X29091Y51975D01*
X29080Y51996D01*
X29072Y52018D01*
X29063Y52042D01*
X29057Y52067D01*
X29052Y52094D01*
X29208Y52118D01*
Y52116D01*
Y52115D01*
X29209Y52110D01*
X29211Y52103D01*
X29214Y52086D01*
X29221Y52064D01*
X29230Y52042D01*
X29243Y52018D01*
X29259Y51994D01*
X29279Y51974D01*
X29282Y51972D01*
X29291Y51967D01*
X29304Y51959D01*
X29323Y51950D01*
X29347Y51940D01*
X29376Y51933D01*
X29410Y51926D01*
X29449Y51925D01*
X29467D01*
X29486Y51926D01*
X29510Y51930D01*
X29535Y51935D01*
X29562Y51943D01*
X29588Y51953D01*
X29610Y51969D01*
X29612Y51970D01*
X29618Y51977D01*
X29627Y51986D01*
X29637Y51998D01*
X29645Y52013D01*
X29654Y52031D01*
X29661Y52050D01*
X29662Y52072D01*
Y52074D01*
Y52081D01*
X29661Y52091D01*
X29657Y52103D01*
X29651Y52116D01*
X29642Y52130D01*
X29630Y52143D01*
X29615Y52155D01*
X29613Y52157D01*
X29608Y52159D01*
X29598Y52164D01*
X29583Y52169D01*
X29561Y52177D01*
X29547Y52181D01*
X29532Y52186D01*
X29515Y52191D01*
X29496Y52196D01*
X29476Y52203D01*
X29452Y52208D01*
X29450D01*
X29445Y52210D01*
X29435Y52213D01*
X29423Y52215D01*
X29410Y52220D01*
X29394Y52223D01*
X29357Y52233D01*
X29318Y52245D01*
X29277Y52259D01*
X29242Y52272D01*
X29225Y52278D01*
X29211Y52284D01*
X29208Y52286D01*
X29201Y52291D01*
X29189Y52298D01*
X29174Y52308D01*
X29157Y52320D01*
X29142Y52335D01*
X29125Y52352D01*
X29111Y52373D01*
X29109Y52376D01*
X29106Y52383D01*
X29101Y52395D01*
X29094Y52410D01*
X29087Y52427D01*
X29082Y52449D01*
X29079Y52471D01*
X29077Y52496D01*
Y52500D01*
Y52507D01*
X29079Y52518D01*
X29080Y52534D01*
X29084Y52552D01*
X29089Y52571D01*
X29096Y52591D01*
X29104Y52612D01*
X29106Y52613D01*
X29109Y52620D01*
X29116Y52630D01*
X29125Y52642D01*
X29136Y52656D01*
X29150Y52671D01*
X29165Y52685D01*
X29182Y52698D01*
X29184Y52700D01*
X29189Y52703D01*
X29198Y52708D01*
X29209Y52714D01*
X29223Y52722D01*
X29240Y52729D01*
X29260Y52737D01*
X29282Y52744D01*
X29286Y52746D01*
X29293Y52748D01*
X29306Y52751D01*
X29323Y52754D01*
X29343Y52758D01*
X29365Y52761D01*
X29391Y52764D01*
X29437D01*
X29447Y52763D01*
D02*
G37*
G36*
X28483Y51816D02*
X28305D01*
X27811Y53097D01*
X27996D01*
X28327Y52166D01*
Y52164D01*
X28329Y52160D01*
X28330Y52155D01*
X28334Y52147D01*
X28337Y52137D01*
X28341Y52125D01*
X28351Y52098D01*
X28361Y52065D01*
X28373Y52030D01*
X28395Y51955D01*
Y51957D01*
X28397Y51960D01*
X28398Y51965D01*
X28400Y51974D01*
X28403Y51982D01*
X28407Y51994D01*
X28415Y52021D01*
X28426Y52054D01*
X28437Y52089D01*
X28451Y52126D01*
X28465Y52166D01*
X28811Y53097D01*
X28984D01*
X28483Y51816D01*
D02*
G37*
G36*
X29542Y59055D02*
X29364D01*
X28870Y60336D01*
X29055D01*
X29386Y59405D01*
Y59403D01*
X29388Y59399D01*
X29389Y59394D01*
X29393Y59386D01*
X29396Y59376D01*
X29400Y59364D01*
X29410Y59337D01*
X29420Y59304D01*
X29432Y59269D01*
X29454Y59194D01*
Y59196D01*
X29456Y59199D01*
X29457Y59204D01*
X29459Y59213D01*
X29462Y59221D01*
X29466Y59233D01*
X29474Y59260D01*
X29484Y59293D01*
X29496Y59328D01*
X29510Y59366D01*
X29523Y59405D01*
X29870Y60336D01*
X30043D01*
X29542Y59055D01*
D02*
G37*
G36*
X28731Y60168D02*
X28219D01*
X28151Y59824D01*
X28152Y59825D01*
X28156Y59827D01*
X28163Y59830D01*
X28171Y59837D01*
X28181Y59842D01*
X28195Y59849D01*
X28208Y59858D01*
X28224Y59864D01*
X28261Y59880D01*
X28302Y59893D01*
X28346Y59902D01*
X28370Y59903D01*
X28393Y59905D01*
X28410D01*
X28422Y59903D01*
X28436Y59902D01*
X28453Y59898D01*
X28471Y59895D01*
X28492Y59890D01*
X28514Y59885D01*
X28536Y59876D01*
X28560Y59868D01*
X28583Y59856D01*
X28607Y59842D01*
X28631Y59827D01*
X28655Y59808D01*
X28677Y59788D01*
X28678Y59786D01*
X28682Y59783D01*
X28687Y59776D01*
X28695Y59768D01*
X28704Y59756D01*
X28714Y59742D01*
X28724Y59725D01*
X28734Y59707D01*
X28745Y59686D01*
X28756Y59664D01*
X28765Y59639D01*
X28773Y59613D01*
X28782Y59584D01*
X28787Y59554D01*
X28790Y59523D01*
X28792Y59489D01*
Y59488D01*
Y59481D01*
Y59472D01*
X28790Y59461D01*
X28789Y59445D01*
X28787Y59427D01*
X28784Y59408D01*
X28780Y59386D01*
X28767Y59338D01*
X28760Y59315D01*
X28750Y59287D01*
X28738Y59262D01*
X28724Y59237D01*
X28709Y59211D01*
X28690Y59187D01*
X28689Y59186D01*
X28685Y59181D01*
X28677Y59174D01*
X28668Y59164D01*
X28655Y59152D01*
X28639Y59138D01*
X28622Y59125D01*
X28602Y59111D01*
X28578Y59096D01*
X28555Y59082D01*
X28526Y59069D01*
X28497Y59057D01*
X28465Y59047D01*
X28429Y59040D01*
X28393Y59035D01*
X28354Y59033D01*
X28337D01*
X28325Y59035D01*
X28310Y59036D01*
X28293Y59038D01*
X28275Y59041D01*
X28253Y59045D01*
X28208Y59057D01*
X28185Y59065D01*
X28161Y59074D01*
X28137Y59086D01*
X28113Y59097D01*
X28091Y59113D01*
X28069Y59130D01*
X28068Y59131D01*
X28064Y59135D01*
X28059Y59140D01*
X28052Y59148D01*
X28044Y59157D01*
X28034Y59169D01*
X28023Y59184D01*
X28012Y59199D01*
X28001Y59216D01*
X27990Y59237D01*
X27979Y59257D01*
X27969Y59281D01*
X27954Y59332D01*
X27947Y59360D01*
X27944Y59389D01*
X28108Y59401D01*
Y59399D01*
X28110Y59396D01*
Y59389D01*
X28112Y59381D01*
X28115Y59371D01*
X28117Y59360D01*
X28125Y59333D01*
X28135Y59304D01*
X28151Y59274D01*
X28169Y59247D01*
X28191Y59221D01*
X28195Y59220D01*
X28203Y59213D01*
X28219Y59203D01*
X28237Y59192D01*
X28261Y59181D01*
X28288Y59172D01*
X28320Y59165D01*
X28354Y59162D01*
X28366D01*
X28373Y59164D01*
X28383Y59165D01*
X28395Y59167D01*
X28422Y59172D01*
X28453Y59182D01*
X28485Y59198D01*
X28500Y59208D01*
X28517Y59220D01*
X28532Y59231D01*
X28548Y59247D01*
X28549Y59248D01*
X28551Y59250D01*
X28555Y59255D01*
X28560Y59262D01*
X28566Y59270D01*
X28573Y59282D01*
X28580Y59294D01*
X28587Y59308D01*
X28600Y59340D01*
X28614Y59379D01*
X28622Y59423D01*
X28626Y59449D01*
Y59474D01*
Y59476D01*
Y59481D01*
Y59488D01*
X28624Y59496D01*
Y59508D01*
X28622Y59522D01*
X28616Y59552D01*
X28607Y59586D01*
X28594Y59622D01*
X28575Y59656D01*
X28563Y59673D01*
X28549Y59688D01*
Y59690D01*
X28546Y59691D01*
X28536Y59700D01*
X28519Y59713D01*
X28497Y59727D01*
X28468Y59740D01*
X28434Y59754D01*
X28395Y59763D01*
X28373Y59766D01*
X28337D01*
X28324Y59764D01*
X28305Y59761D01*
X28283Y59757D01*
X28261Y59751D01*
X28237Y59742D01*
X28214Y59730D01*
X28210Y59729D01*
X28203Y59724D01*
X28193Y59717D01*
X28180Y59707D01*
X28164Y59693D01*
X28147Y59678D01*
X28132Y59659D01*
X28118Y59640D01*
X27971Y59661D01*
X28095Y60319D01*
X28731D01*
Y60168D01*
D02*
G37*
G36*
X19220Y54253D02*
X19849D01*
Y54102D01*
X19050D01*
Y55383D01*
X19220D01*
Y54253D01*
D02*
G37*
G36*
X21481Y52465D02*
X21491D01*
X21516Y52462D01*
X21545Y52455D01*
X21577Y52448D01*
X21611Y52437D01*
X21645Y52421D01*
X21647D01*
X21649Y52420D01*
X21661Y52413D01*
X21676Y52403D01*
X21696Y52389D01*
X21717Y52372D01*
X21740Y52352D01*
X21762Y52326D01*
X21781Y52299D01*
X21783Y52296D01*
X21788Y52286D01*
X21796Y52270D01*
X21805Y52250D01*
X21813Y52224D01*
X21822Y52197D01*
X21827Y52167D01*
X21829Y52135D01*
Y52133D01*
Y52131D01*
Y52121D01*
X21827Y52104D01*
X21823Y52084D01*
X21817Y52062D01*
X21810Y52034D01*
X21798Y52009D01*
X21783Y51982D01*
X21781Y51978D01*
X21774Y51970D01*
X21764Y51958D01*
X21750Y51943D01*
X21732Y51926D01*
X21710Y51909D01*
X21683Y51890D01*
X21652Y51875D01*
X21654D01*
X21657Y51873D01*
X21662Y51872D01*
X21671Y51870D01*
X21691Y51861D01*
X21717Y51851D01*
X21744Y51836D01*
X21773Y51817D01*
X21801Y51794D01*
X21827Y51765D01*
Y51763D01*
X21830Y51761D01*
X21834Y51756D01*
X21837Y51749D01*
X21847Y51732D01*
X21859Y51709D01*
X21871Y51678D01*
X21881Y51644D01*
X21888Y51603D01*
X21891Y51559D01*
Y51558D01*
Y51553D01*
Y51542D01*
X21890Y51531D01*
X21888Y51517D01*
X21885Y51500D01*
X21881Y51481D01*
X21876Y51461D01*
X21869Y51439D01*
X21861Y51417D01*
X21851Y51393D01*
X21839Y51368D01*
X21825Y51344D01*
X21808Y51320D01*
X21790Y51296D01*
X21767Y51274D01*
X21766Y51273D01*
X21762Y51269D01*
X21756Y51264D01*
X21745Y51256D01*
X21734Y51247D01*
X21718Y51239D01*
X21703Y51227D01*
X21683Y51217D01*
X21662Y51206D01*
X21639Y51196D01*
X21613Y51186D01*
X21586Y51178D01*
X21557Y51169D01*
X21525Y51164D01*
X21493Y51161D01*
X21459Y51159D01*
X21442D01*
X21432Y51161D01*
X21416Y51162D01*
X21399Y51164D01*
X21381Y51167D01*
X21360Y51171D01*
X21316Y51183D01*
X21294Y51191D01*
X21270Y51201D01*
X21247Y51213D01*
X21223Y51227D01*
X21201Y51242D01*
X21179Y51259D01*
X21177Y51261D01*
X21174Y51264D01*
X21169Y51269D01*
X21162Y51278D01*
X21153Y51288D01*
X21143Y51300D01*
X21133Y51313D01*
X21121Y51329D01*
X21111Y51347D01*
X21099Y51368D01*
X21089Y51388D01*
X21079Y51412D01*
X21063Y51463D01*
X21057Y51492D01*
X21053Y51520D01*
X21211Y51541D01*
Y51539D01*
X21213Y51536D01*
X21214Y51529D01*
X21216Y51519D01*
X21219Y51508D01*
X21223Y51495D01*
X21231Y51466D01*
X21245Y51434D01*
X21260Y51403D01*
X21279Y51373D01*
X21289Y51359D01*
X21301Y51347D01*
X21304Y51346D01*
X21313Y51339D01*
X21326Y51329D01*
X21345Y51318D01*
X21369Y51308D01*
X21396Y51298D01*
X21426Y51291D01*
X21460Y51290D01*
X21471D01*
X21479Y51291D01*
X21489D01*
X21499Y51293D01*
X21527Y51300D01*
X21555Y51308D01*
X21588Y51322D01*
X21618Y51340D01*
X21633Y51352D01*
X21649Y51366D01*
X21650Y51368D01*
X21652Y51369D01*
X21661Y51380D01*
X21672Y51396D01*
X21688Y51419D01*
X21701Y51446D01*
X21713Y51478D01*
X21722Y51515D01*
X21725Y51536D01*
Y51556D01*
Y51558D01*
Y51561D01*
Y51566D01*
X21723Y51575D01*
X21722Y51593D01*
X21717Y51619D01*
X21708Y51648D01*
X21695Y51676D01*
X21678Y51707D01*
X21654Y51734D01*
X21650Y51738D01*
X21640Y51746D01*
X21625Y51756D01*
X21605Y51770D01*
X21579Y51783D01*
X21549Y51794D01*
X21513Y51802D01*
X21474Y51805D01*
X21457D01*
X21443Y51804D01*
X21428Y51802D01*
X21409Y51799D01*
X21387Y51794D01*
X21364Y51788D01*
X21381Y51926D01*
X21384D01*
X21389Y51924D01*
X21398Y51922D01*
X21416D01*
X21423Y51924D01*
X21442Y51926D01*
X21465Y51929D01*
X21494Y51936D01*
X21525Y51945D01*
X21555Y51958D01*
X21586Y51975D01*
X21588D01*
X21589Y51977D01*
X21599Y51985D01*
X21611Y51997D01*
X21627Y52016D01*
X21642Y52038D01*
X21655Y52067D01*
X21664Y52099D01*
X21666Y52118D01*
X21667Y52138D01*
Y52140D01*
Y52141D01*
X21666Y52153D01*
X21664Y52168D01*
X21661Y52189D01*
X21652Y52211D01*
X21642Y52235D01*
X21628Y52258D01*
X21608Y52280D01*
X21605Y52282D01*
X21598Y52289D01*
X21584Y52299D01*
X21567Y52309D01*
X21545Y52319D01*
X21520Y52330D01*
X21491Y52336D01*
X21457Y52338D01*
X21442D01*
X21425Y52335D01*
X21404Y52331D01*
X21379Y52325D01*
X21353Y52314D01*
X21328Y52299D01*
X21304Y52280D01*
X21301Y52277D01*
X21294Y52270D01*
X21284Y52257D01*
X21272Y52238D01*
X21258Y52213D01*
X21245Y52184D01*
X21235Y52148D01*
X21226Y52107D01*
X21068Y52135D01*
Y52136D01*
X21070Y52141D01*
X21072Y52150D01*
X21075Y52160D01*
X21079Y52174D01*
X21084Y52189D01*
X21096Y52224D01*
X21113Y52264D01*
X21136Y52304D01*
X21163Y52343D01*
X21180Y52362D01*
X21199Y52379D01*
X21201Y52381D01*
X21204Y52382D01*
X21209Y52387D01*
X21218Y52392D01*
X21228Y52399D01*
X21240Y52406D01*
X21253Y52415D01*
X21269Y52423D01*
X21287Y52431D01*
X21306Y52440D01*
X21350Y52454D01*
X21399Y52464D01*
X21426Y52465D01*
X21454Y52467D01*
X21471D01*
X21481Y52465D01*
D02*
G37*
G36*
X20638Y55403D02*
X20655Y55402D01*
X20674Y55400D01*
X20694Y55397D01*
X20718Y55393D01*
X20769Y55381D01*
X20796Y55373D01*
X20823Y55364D01*
X20850Y55352D01*
X20877Y55339D01*
X20903Y55324D01*
X20928Y55307D01*
X20930Y55305D01*
X20933Y55302D01*
X20940Y55296D01*
X20950Y55288D01*
X20961Y55278D01*
X20972Y55266D01*
X20986Y55252D01*
X21000Y55235D01*
X21015Y55217D01*
X21030Y55196D01*
X21045Y55174D01*
X21061Y55149D01*
X21076Y55123D01*
X21088Y55095D01*
X21101Y55064D01*
X21112Y55032D01*
X20945Y54993D01*
Y54994D01*
X20944Y55000D01*
X20940Y55006D01*
X20937Y55015D01*
X20932Y55027D01*
X20927Y55040D01*
X20911Y55071D01*
X20893Y55103D01*
X20871Y55137D01*
X20845Y55169D01*
X20830Y55183D01*
X20815Y55196D01*
X20813D01*
X20811Y55200D01*
X20806Y55203D01*
X20799Y55207D01*
X20791Y55212D01*
X20782Y55217D01*
X20757Y55229D01*
X20726Y55241D01*
X20691Y55251D01*
X20648Y55257D01*
X20603Y55261D01*
X20589D01*
X20579Y55259D01*
X20565D01*
X20550Y55257D01*
X20535Y55256D01*
X20516Y55252D01*
X20477Y55244D01*
X20436Y55230D01*
X20396Y55213D01*
X20356Y55190D01*
X20355D01*
X20351Y55186D01*
X20348Y55183D01*
X20341Y55176D01*
X20323Y55161D01*
X20302Y55139D01*
X20280Y55112D01*
X20256Y55079D01*
X20234Y55040D01*
X20217Y54998D01*
Y54996D01*
X20216Y54993D01*
X20214Y54986D01*
X20211Y54978D01*
X20209Y54967D01*
X20205Y54954D01*
X20202Y54938D01*
X20199Y54923D01*
X20190Y54886D01*
X20185Y54843D01*
X20180Y54799D01*
X20178Y54752D01*
Y54750D01*
Y54745D01*
Y54737D01*
Y54725D01*
X20180Y54711D01*
Y54694D01*
X20182Y54675D01*
X20183Y54655D01*
X20190Y54611D01*
X20197Y54564D01*
X20209Y54514D01*
X20224Y54467D01*
Y54465D01*
X20226Y54462D01*
X20229Y54455D01*
X20233Y54446D01*
X20238Y54436D01*
X20244Y54424D01*
X20260Y54399D01*
X20282Y54368D01*
X20307Y54338D01*
X20336Y54309D01*
X20372Y54284D01*
X20373D01*
X20377Y54282D01*
X20382Y54278D01*
X20389Y54275D01*
X20399Y54270D01*
X20411Y54265D01*
X20438Y54255D01*
X20470Y54243D01*
X20506Y54234D01*
X20547Y54228D01*
X20589Y54224D01*
X20603D01*
X20613Y54226D01*
X20625D01*
X20640Y54229D01*
X20655Y54231D01*
X20672Y54234D01*
X20711Y54245D01*
X20750Y54258D01*
X20791Y54278D01*
X20811Y54292D01*
X20830Y54306D01*
X20832Y54307D01*
X20835Y54309D01*
X20840Y54314D01*
X20845Y54321D01*
X20854Y54329D01*
X20862Y54341D01*
X20872Y54353D01*
X20884Y54367D01*
X20894Y54384D01*
X20906Y54402D01*
X20916Y54423D01*
X20928Y54443D01*
X20938Y54467D01*
X20949Y54494D01*
X20957Y54521D01*
X20964Y54550D01*
X21134Y54508D01*
Y54506D01*
X21130Y54499D01*
X21128Y54487D01*
X21123Y54474D01*
X21117Y54457D01*
X21110Y54436D01*
X21100Y54414D01*
X21089Y54389D01*
X21076Y54363D01*
X21062Y54338D01*
X21047Y54311D01*
X21028Y54285D01*
X21010Y54260D01*
X20988Y54234D01*
X20966Y54211D01*
X20940Y54189D01*
X20938Y54187D01*
X20933Y54183D01*
X20927Y54178D01*
X20916Y54172D01*
X20903Y54163D01*
X20886Y54155D01*
X20867Y54144D01*
X20847Y54134D01*
X20823Y54124D01*
X20798Y54114D01*
X20770Y54105D01*
X20740Y54097D01*
X20709Y54090D01*
X20675Y54085D01*
X20642Y54082D01*
X20604Y54080D01*
X20584D01*
X20570Y54082D01*
X20552Y54083D01*
X20531Y54085D01*
X20509Y54087D01*
X20484Y54090D01*
X20431Y54100D01*
X20375Y54116D01*
X20346Y54124D01*
X20319Y54136D01*
X20292Y54148D01*
X20267Y54163D01*
X20265Y54165D01*
X20261Y54166D01*
X20255Y54172D01*
X20246Y54178D01*
X20234Y54187D01*
X20222Y54199D01*
X20209Y54211D01*
X20194Y54226D01*
X20178Y54241D01*
X20161Y54260D01*
X20146Y54280D01*
X20129Y54302D01*
X20114Y54326D01*
X20099Y54351D01*
X20083Y54379D01*
X20070Y54407D01*
Y54409D01*
X20066Y54414D01*
X20063Y54423D01*
X20060Y54435D01*
X20054Y54450D01*
X20049Y54468D01*
X20043Y54487D01*
X20037Y54511D01*
X20031Y54535D01*
X20024Y54562D01*
X20019Y54591D01*
X20014Y54619D01*
X20007Y54684D01*
X20004Y54752D01*
Y54754D01*
Y54760D01*
Y54771D01*
X20005Y54786D01*
Y54803D01*
X20007Y54823D01*
X20010Y54845D01*
X20014Y54871D01*
X20017Y54898D01*
X20022Y54925D01*
X20036Y54983D01*
X20054Y55042D01*
X20065Y55071D01*
X20078Y55100D01*
X20080Y55101D01*
X20082Y55106D01*
X20087Y55113D01*
X20092Y55125D01*
X20100Y55137D01*
X20110Y55151D01*
X20134Y55185D01*
X20165Y55220D01*
X20202Y55259D01*
X20246Y55295D01*
X20295Y55327D01*
X20297Y55329D01*
X20302Y55330D01*
X20309Y55334D01*
X20321Y55339D01*
X20333Y55346D01*
X20350Y55352D01*
X20367Y55359D01*
X20387Y55366D01*
X20409Y55373D01*
X20433Y55380D01*
X20485Y55393D01*
X20543Y55402D01*
X20574Y55405D01*
X20625D01*
X20638Y55403D01*
D02*
G37*
G36*
X21834Y55381D02*
X21868D01*
X21904Y55378D01*
X21943Y55375D01*
X21979Y55371D01*
X22011Y55364D01*
X22012D01*
X22016Y55363D01*
X22021Y55361D01*
X22029Y55359D01*
X22040Y55356D01*
X22050Y55352D01*
X22075Y55344D01*
X22106Y55330D01*
X22136Y55315D01*
X22169Y55296D01*
X22199Y55273D01*
X22201Y55271D01*
X22204Y55269D01*
X22209Y55264D01*
X22216Y55257D01*
X22225Y55249D01*
X22233Y55239D01*
X22255Y55213D01*
X22281Y55181D01*
X22304Y55144D01*
X22330Y55100D01*
X22350Y55052D01*
Y55050D01*
X22352Y55045D01*
X22355Y55039D01*
X22359Y55028D01*
X22362Y55017D01*
X22367Y55001D01*
X22370Y54984D01*
X22376Y54964D01*
X22381Y54944D01*
X22386Y54920D01*
X22389Y54894D01*
X22393Y54869D01*
X22399Y54811D01*
X22401Y54748D01*
Y54747D01*
Y54742D01*
Y54735D01*
Y54725D01*
X22399Y54711D01*
Y54696D01*
X22398Y54679D01*
X22396Y54662D01*
X22393Y54621D01*
X22386Y54577D01*
X22377Y54533D01*
X22365Y54489D01*
Y54487D01*
X22364Y54484D01*
X22362Y54479D01*
X22359Y54470D01*
X22355Y54460D01*
X22352Y54450D01*
X22342Y54424D01*
X22330Y54394D01*
X22314Y54363D01*
X22298Y54331D01*
X22279Y54302D01*
X22277Y54299D01*
X22270Y54290D01*
X22258Y54277D01*
X22245Y54260D01*
X22228Y54243D01*
X22208Y54222D01*
X22186Y54204D01*
X22162Y54187D01*
X22158Y54185D01*
X22150Y54180D01*
X22138Y54172D01*
X22119Y54163D01*
X22097Y54153D01*
X22070Y54141D01*
X22041Y54131D01*
X22009Y54122D01*
X22006D01*
X22001Y54121D01*
X21994Y54119D01*
X21985Y54117D01*
X21975Y54116D01*
X21950Y54112D01*
X21919Y54109D01*
X21885Y54105D01*
X21846Y54104D01*
X21804Y54102D01*
X21342D01*
Y55383D01*
X21821D01*
X21834Y55381D01*
D02*
G37*
G36*
X117711Y24511D02*
X117553D01*
Y25792D01*
X117711D01*
Y24511D01*
D02*
G37*
G36*
X116996Y25458D02*
X117023Y25456D01*
X117054Y25453D01*
X117086Y25448D01*
X117118Y25441D01*
X117147Y25431D01*
X117149D01*
X117151Y25429D01*
X117159Y25426D01*
X117173Y25420D01*
X117190Y25412D01*
X117207Y25402D01*
X117225Y25390D01*
X117242Y25376D01*
X117258Y25361D01*
X117259Y25359D01*
X117263Y25354D01*
X117270Y25344D01*
X117278Y25332D01*
X117285Y25317D01*
X117293Y25298D01*
X117300Y25278D01*
X117307Y25254D01*
Y25252D01*
X117309Y25246D01*
X117310Y25236D01*
X117312Y25220D01*
Y25200D01*
X117314Y25176D01*
X117315Y25146D01*
Y25108D01*
Y24900D01*
Y24898D01*
Y24889D01*
Y24879D01*
Y24864D01*
Y24847D01*
Y24827D01*
Y24806D01*
X117317Y24782D01*
Y24735D01*
X117319Y24689D01*
X117320Y24669D01*
Y24650D01*
X117322Y24635D01*
X117324Y24621D01*
Y24620D01*
X117326Y24611D01*
X117329Y24601D01*
X117332Y24586D01*
X117337Y24569D01*
X117344Y24550D01*
X117353Y24531D01*
X117363Y24511D01*
X117198D01*
X117197Y24513D01*
X117195Y24519D01*
X117190Y24530D01*
X117186Y24543D01*
X117181Y24560D01*
X117176Y24581D01*
X117173Y24603D01*
X117169Y24626D01*
X117168D01*
X117166Y24623D01*
X117161Y24620D01*
X117154Y24615D01*
X117137Y24601D01*
X117115Y24586D01*
X117090Y24569D01*
X117061Y24550D01*
X117030Y24535D01*
X117000Y24521D01*
X116998D01*
X116996Y24519D01*
X116986Y24516D01*
X116969Y24511D01*
X116949Y24506D01*
X116922Y24501D01*
X116893Y24496D01*
X116861Y24492D01*
X116827Y24491D01*
X116811D01*
X116801Y24492D01*
X116789D01*
X116774Y24494D01*
X116740Y24499D01*
X116703Y24509D01*
X116662Y24521D01*
X116625Y24540D01*
X116608Y24550D01*
X116591Y24564D01*
X116589Y24565D01*
X116587Y24567D01*
X116579Y24577D01*
X116565Y24594D01*
X116550Y24616D01*
X116535Y24643D01*
X116523Y24676D01*
X116513Y24713D01*
X116511Y24733D01*
X116509Y24755D01*
Y24759D01*
Y24767D01*
X116511Y24779D01*
X116513Y24796D01*
X116516Y24815D01*
X116523Y24837D01*
X116530Y24857D01*
X116540Y24879D01*
X116542Y24881D01*
X116545Y24889D01*
X116552Y24900D01*
X116562Y24911D01*
X116574Y24925D01*
X116587Y24940D01*
X116603Y24956D01*
X116621Y24969D01*
X116623Y24971D01*
X116630Y24974D01*
X116640Y24981D01*
X116655Y24988D01*
X116672Y24996D01*
X116691Y25006D01*
X116713Y25015D01*
X116735Y25022D01*
X116737D01*
X116744Y25023D01*
X116754Y25027D01*
X116769Y25028D01*
X116789Y25034D01*
X116813Y25037D01*
X116842Y25040D01*
X116874Y25045D01*
X116876D01*
X116883Y25047D01*
X116893D01*
X116906Y25049D01*
X116922Y25052D01*
X116940Y25054D01*
X116959Y25057D01*
X116981Y25061D01*
X117027Y25069D01*
X117074Y25078D01*
X117118Y25088D01*
X117137Y25095D01*
X117156Y25100D01*
Y25101D01*
Y25105D01*
Y25110D01*
X117158Y25117D01*
Y25130D01*
Y25137D01*
Y25140D01*
Y25142D01*
Y25144D01*
Y25149D01*
Y25156D01*
X117156Y25173D01*
X117152Y25193D01*
X117146Y25215D01*
X117139Y25237D01*
X117127Y25258D01*
X117112Y25275D01*
X117108Y25276D01*
X117100Y25283D01*
X117086Y25291D01*
X117068Y25302D01*
X117042Y25312D01*
X117012Y25320D01*
X116974Y25327D01*
X116932Y25329D01*
X116913D01*
X116895Y25327D01*
X116871Y25324D01*
X116844Y25319D01*
X116816Y25312D01*
X116789Y25303D01*
X116767Y25290D01*
X116766Y25288D01*
X116759Y25283D01*
X116749Y25273D01*
X116738Y25258D01*
X116725Y25239D01*
X116713Y25217D01*
X116701Y25188D01*
X116691Y25154D01*
X116537Y25174D01*
Y25176D01*
X116538Y25180D01*
Y25185D01*
X116540Y25191D01*
X116545Y25208D01*
X116553Y25230D01*
X116562Y25256D01*
X116574Y25283D01*
X116587Y25308D01*
X116604Y25332D01*
X116606Y25336D01*
X116613Y25342D01*
X116625Y25353D01*
X116640Y25366D01*
X116660Y25381D01*
X116684Y25397D01*
X116711Y25412D01*
X116744Y25426D01*
X116745D01*
X116747Y25427D01*
X116752Y25429D01*
X116760Y25431D01*
X116769Y25434D01*
X116779Y25436D01*
X116805Y25442D01*
X116835Y25449D01*
X116872Y25454D01*
X116911Y25458D01*
X116956Y25459D01*
X116986D01*
X116996Y25458D01*
D02*
G37*
G36*
X113118D02*
X113128D01*
X113140Y25456D01*
X113169Y25451D01*
X113201Y25444D01*
X113235Y25432D01*
X113272Y25417D01*
X113306Y25397D01*
X113308D01*
X113309Y25393D01*
X113314Y25390D01*
X113321Y25385D01*
X113338Y25371D01*
X113357Y25353D01*
X113381Y25327D01*
X113403Y25298D01*
X113425Y25263D01*
X113443Y25224D01*
Y25222D01*
X113445Y25219D01*
X113448Y25213D01*
X113450Y25205D01*
X113455Y25195D01*
X113459Y25181D01*
X113462Y25168D01*
X113467Y25152D01*
X113476Y25117D01*
X113484Y25074D01*
X113489Y25030D01*
X113491Y24981D01*
Y24979D01*
Y24974D01*
Y24967D01*
Y24957D01*
X113489Y24945D01*
X113488Y24930D01*
X113486Y24913D01*
X113484Y24896D01*
X113477Y24855D01*
X113469Y24813D01*
X113455Y24769D01*
X113438Y24725D01*
Y24723D01*
X113437Y24720D01*
X113433Y24715D01*
X113428Y24706D01*
X113416Y24686D01*
X113401Y24660D01*
X113379Y24631D01*
X113353Y24603D01*
X113323Y24575D01*
X113289Y24550D01*
X113287D01*
X113284Y24548D01*
X113279Y24545D01*
X113272Y24542D01*
X113264Y24536D01*
X113253Y24531D01*
X113228Y24521D01*
X113197Y24509D01*
X113162Y24501D01*
X113124Y24494D01*
X113085Y24491D01*
X113072D01*
X113058Y24492D01*
X113038Y24494D01*
X113018Y24499D01*
X112994Y24504D01*
X112968Y24513D01*
X112945Y24523D01*
X112941Y24525D01*
X112934Y24530D01*
X112923Y24536D01*
X112909Y24547D01*
X112892Y24559D01*
X112875Y24572D01*
X112858Y24589D01*
X112843Y24606D01*
Y24156D01*
X112685D01*
Y25439D01*
X112829D01*
Y25317D01*
X112831Y25320D01*
X112838Y25329D01*
X112848Y25341D01*
X112861Y25358D01*
X112878Y25375D01*
X112897Y25392D01*
X112919Y25409D01*
X112941Y25424D01*
X112945Y25426D01*
X112953Y25429D01*
X112967Y25436D01*
X112985Y25442D01*
X113007Y25448D01*
X113034Y25454D01*
X113065Y25458D01*
X113097Y25459D01*
X113109D01*
X113118Y25458D01*
D02*
G37*
G36*
X116034D02*
X116055Y25456D01*
X116078Y25453D01*
X116104Y25446D01*
X116129Y25439D01*
X116156Y25429D01*
X116160Y25427D01*
X116168Y25424D01*
X116180Y25417D01*
X116197Y25407D01*
X116214Y25397D01*
X116231Y25383D01*
X116248Y25366D01*
X116262Y25349D01*
X116263Y25347D01*
X116267Y25341D01*
X116274Y25331D01*
X116282Y25317D01*
X116289Y25300D01*
X116297Y25280D01*
X116304Y25258D01*
X116311Y25234D01*
Y25232D01*
X116313Y25225D01*
X116314Y25213D01*
X116316Y25198D01*
X116318Y25178D01*
X116319Y25151D01*
X116321Y25118D01*
Y25081D01*
Y24511D01*
X116163D01*
Y25074D01*
Y25076D01*
Y25079D01*
Y25083D01*
Y25090D01*
X116162Y25108D01*
Y25129D01*
X116158Y25152D01*
X116155Y25176D01*
X116151Y25198D01*
X116145Y25219D01*
Y25220D01*
X116141Y25227D01*
X116136Y25236D01*
X116129Y25246D01*
X116121Y25258D01*
X116109Y25271D01*
X116095Y25283D01*
X116078Y25295D01*
X116077Y25297D01*
X116070Y25300D01*
X116061Y25303D01*
X116048Y25310D01*
X116033Y25315D01*
X116014Y25319D01*
X115992Y25322D01*
X115970Y25324D01*
X115960D01*
X115953Y25322D01*
X115934Y25320D01*
X115910Y25315D01*
X115883Y25308D01*
X115854Y25297D01*
X115826Y25281D01*
X115797Y25259D01*
X115793Y25256D01*
X115790Y25252D01*
X115785Y25246D01*
X115780Y25239D01*
X115775Y25229D01*
X115768Y25219D01*
X115761Y25205D01*
X115754Y25190D01*
X115748Y25171D01*
X115742Y25152D01*
X115737Y25130D01*
X115732Y25105D01*
X115729Y25078D01*
X115727Y25049D01*
X115725Y25017D01*
Y24511D01*
X115568D01*
Y25439D01*
X115710D01*
Y25307D01*
X115712Y25308D01*
X115715Y25314D01*
X115720Y25320D01*
X115729Y25331D01*
X115739Y25342D01*
X115753Y25356D01*
X115768Y25370D01*
X115785Y25383D01*
X115805Y25397D01*
X115827Y25412D01*
X115851Y25424D01*
X115877Y25436D01*
X115905Y25446D01*
X115936Y25453D01*
X115968Y25458D01*
X116004Y25459D01*
X116017D01*
X116034Y25458D01*
D02*
G37*
G36*
X114982D02*
X114998Y25456D01*
X115016Y25453D01*
X115038Y25449D01*
X115060Y25444D01*
X115084Y25437D01*
X115110Y25429D01*
X115135Y25419D01*
X115162Y25407D01*
X115188Y25392D01*
X115213Y25375D01*
X115239Y25356D01*
X115262Y25334D01*
X115264Y25332D01*
X115267Y25329D01*
X115274Y25320D01*
X115281Y25310D01*
X115291Y25298D01*
X115301Y25283D01*
X115311Y25264D01*
X115323Y25244D01*
X115335Y25220D01*
X115345Y25195D01*
X115356Y25166D01*
X115366Y25135D01*
X115373Y25101D01*
X115379Y25066D01*
X115383Y25028D01*
X115384Y24988D01*
Y24986D01*
Y24979D01*
Y24971D01*
Y24959D01*
X115383Y24944D01*
X115381Y24925D01*
X115379Y24906D01*
X115378Y24884D01*
X115371Y24840D01*
X115362Y24793D01*
X115349Y24747D01*
X115340Y24725D01*
X115330Y24704D01*
Y24703D01*
X115328Y24699D01*
X115325Y24694D01*
X115320Y24687D01*
X115308Y24669D01*
X115289Y24647D01*
X115267Y24621D01*
X115240Y24594D01*
X115210Y24570D01*
X115172Y24547D01*
X115171D01*
X115167Y24545D01*
X115162Y24542D01*
X115155Y24538D01*
X115145Y24533D01*
X115133Y24530D01*
X115106Y24519D01*
X115074Y24508D01*
X115035Y24499D01*
X114994Y24492D01*
X114950Y24491D01*
X114942D01*
X114931Y24492D01*
X114918D01*
X114901Y24494D01*
X114882Y24497D01*
X114860Y24501D01*
X114838Y24506D01*
X114813Y24513D01*
X114787Y24521D01*
X114762Y24531D01*
X114735Y24543D01*
X114709Y24557D01*
X114682Y24574D01*
X114658Y24592D01*
X114634Y24615D01*
X114633Y24616D01*
X114629Y24620D01*
X114624Y24628D01*
X114616Y24638D01*
X114607Y24650D01*
X114597Y24667D01*
X114587Y24686D01*
X114575Y24706D01*
X114565Y24730D01*
X114553Y24757D01*
X114543Y24788D01*
X114534Y24820D01*
X114526Y24854D01*
X114521Y24891D01*
X114517Y24932D01*
X114516Y24974D01*
Y24978D01*
Y24986D01*
X114517Y25000D01*
Y25017D01*
X114521Y25039D01*
X114523Y25062D01*
X114528Y25090D01*
X114534Y25118D01*
X114541Y25149D01*
X114551Y25181D01*
X114562Y25212D01*
X114575Y25244D01*
X114592Y25275D01*
X114611Y25303D01*
X114633Y25331D01*
X114658Y25356D01*
X114660Y25358D01*
X114663Y25361D01*
X114670Y25366D01*
X114680Y25373D01*
X114690Y25380D01*
X114706Y25388D01*
X114721Y25398D01*
X114740Y25409D01*
X114760Y25417D01*
X114782Y25427D01*
X114806Y25436D01*
X114831Y25444D01*
X114858Y25449D01*
X114887Y25454D01*
X114918Y25458D01*
X114950Y25459D01*
X114969D01*
X114982Y25458D01*
D02*
G37*
G36*
X112100D02*
X112115Y25456D01*
X112134Y25453D01*
X112156Y25449D01*
X112178Y25444D01*
X112201Y25437D01*
X112227Y25429D01*
X112252Y25419D01*
X112279Y25407D01*
X112305Y25392D01*
X112330Y25375D01*
X112356Y25356D01*
X112380Y25334D01*
X112381Y25332D01*
X112385Y25329D01*
X112391Y25320D01*
X112398Y25310D01*
X112408Y25298D01*
X112419Y25283D01*
X112429Y25264D01*
X112441Y25244D01*
X112453Y25220D01*
X112463Y25195D01*
X112473Y25166D01*
X112483Y25135D01*
X112490Y25101D01*
X112497Y25066D01*
X112500Y25028D01*
X112502Y24988D01*
Y24986D01*
Y24979D01*
Y24971D01*
Y24959D01*
X112500Y24944D01*
X112498Y24925D01*
X112497Y24906D01*
X112495Y24884D01*
X112488Y24840D01*
X112480Y24793D01*
X112466Y24747D01*
X112458Y24725D01*
X112447Y24704D01*
Y24703D01*
X112446Y24699D01*
X112442Y24694D01*
X112437Y24687D01*
X112425Y24669D01*
X112407Y24647D01*
X112385Y24621D01*
X112357Y24594D01*
X112327Y24570D01*
X112290Y24547D01*
X112288D01*
X112285Y24545D01*
X112279Y24542D01*
X112273Y24538D01*
X112262Y24533D01*
X112251Y24530D01*
X112223Y24519D01*
X112191Y24508D01*
X112152Y24499D01*
X112111Y24492D01*
X112067Y24491D01*
X112059D01*
X112049Y24492D01*
X112035D01*
X112018Y24494D01*
X111999Y24497D01*
X111977Y24501D01*
X111955Y24506D01*
X111930Y24513D01*
X111904Y24521D01*
X111879Y24531D01*
X111852Y24543D01*
X111826Y24557D01*
X111799Y24574D01*
X111776Y24592D01*
X111752Y24615D01*
X111750Y24616D01*
X111747Y24620D01*
X111742Y24628D01*
X111733Y24638D01*
X111725Y24650D01*
X111714Y24667D01*
X111704Y24686D01*
X111692Y24706D01*
X111682Y24730D01*
X111670Y24757D01*
X111660Y24788D01*
X111652Y24820D01*
X111643Y24854D01*
X111638Y24891D01*
X111635Y24932D01*
X111633Y24974D01*
Y24978D01*
Y24986D01*
X111635Y25000D01*
Y25017D01*
X111638Y25039D01*
X111640Y25062D01*
X111645Y25090D01*
X111652Y25118D01*
X111658Y25149D01*
X111669Y25181D01*
X111679Y25212D01*
X111692Y25244D01*
X111709Y25275D01*
X111728Y25303D01*
X111750Y25331D01*
X111776Y25356D01*
X111777Y25358D01*
X111781Y25361D01*
X111787Y25366D01*
X111798Y25373D01*
X111808Y25380D01*
X111823Y25388D01*
X111838Y25398D01*
X111857Y25409D01*
X111877Y25417D01*
X111899Y25427D01*
X111923Y25436D01*
X111949Y25444D01*
X111976Y25449D01*
X112005Y25454D01*
X112035Y25458D01*
X112067Y25459D01*
X112086D01*
X112100Y25458D01*
D02*
G37*
G36*
X114336Y24511D02*
X114178D01*
Y25439D01*
X114336D01*
Y24511D01*
D02*
G37*
G36*
X113864Y25439D02*
X114024D01*
Y25317D01*
X113864D01*
Y24772D01*
Y24769D01*
Y24762D01*
Y24750D01*
X113866Y24737D01*
X113868Y24708D01*
X113869Y24696D01*
X113871Y24686D01*
X113873Y24682D01*
X113878Y24676D01*
X113886Y24665D01*
X113898Y24655D01*
X113900D01*
X113902Y24654D01*
X113907Y24652D01*
X113913Y24650D01*
X113930Y24647D01*
X113952Y24645D01*
X113963D01*
X113971Y24647D01*
X113981D01*
X113995Y24648D01*
X114008Y24650D01*
X114024Y24652D01*
X114044Y24513D01*
X114041D01*
X114032Y24511D01*
X114020Y24509D01*
X114003Y24506D01*
X113985Y24504D01*
X113964Y24501D01*
X113924Y24499D01*
X113910D01*
X113895Y24501D01*
X113876Y24503D01*
X113854Y24506D01*
X113832Y24509D01*
X113810Y24516D01*
X113791Y24525D01*
X113790Y24526D01*
X113783Y24530D01*
X113776Y24535D01*
X113766Y24543D01*
X113754Y24553D01*
X113744Y24567D01*
X113734Y24581D01*
X113725Y24596D01*
Y24598D01*
X113722Y24604D01*
X113720Y24618D01*
X113717Y24637D01*
X113715Y24647D01*
X113713Y24660D01*
X113711Y24676D01*
X113710Y24693D01*
X113708Y24713D01*
Y24733D01*
X113706Y24757D01*
Y24782D01*
Y25317D01*
X113591D01*
Y25439D01*
X113706D01*
Y25668D01*
X113864Y25761D01*
Y25439D01*
D02*
G37*
G36*
X13748Y26741D02*
X13754Y26733D01*
X13765Y26723D01*
X13776Y26708D01*
X13788Y26691D01*
X13802Y26672D01*
X13814Y26652D01*
X13824Y26629D01*
X13826Y26626D01*
X13827Y26619D01*
X13831Y26607D01*
X13834Y26592D01*
X13839Y26573D01*
X13843Y26551D01*
X13844Y26526D01*
X13846Y26501D01*
Y26499D01*
Y26492D01*
Y26482D01*
X13844Y26468D01*
X13843Y26453D01*
X13841Y26436D01*
X13834Y26400D01*
Y26399D01*
X13831Y26392D01*
X13827Y26380D01*
X13822Y26363D01*
X13816Y26343D01*
X13805Y26317D01*
X13792Y26285D01*
X13776Y26249D01*
Y26248D01*
X13775Y26244D01*
X13771Y26239D01*
X13770Y26232D01*
X13761Y26214D01*
X13753Y26188D01*
X13744Y26161D01*
X13736Y26132D01*
X13731Y26104D01*
X13729Y26076D01*
Y26075D01*
Y26066D01*
X13731Y26056D01*
X13732Y26042D01*
X13736Y26025D01*
X13739Y26008D01*
X13746Y25990D01*
X13754Y25971D01*
X13756Y25969D01*
X13760Y25963D01*
X13766Y25952D01*
X13775Y25937D01*
X13788Y25920D01*
X13804Y25898D01*
X13824Y25874D01*
X13848Y25849D01*
X13668D01*
X13666Y25851D01*
X13663Y25854D01*
X13658Y25859D01*
X13651Y25866D01*
X13644Y25874D01*
X13636Y25886D01*
X13625Y25898D01*
X13615Y25913D01*
X13607Y25930D01*
X13597Y25949D01*
X13580Y25990D01*
X13575Y26014D01*
X13569Y26037D01*
X13566Y26064D01*
X13564Y26092D01*
Y26093D01*
Y26100D01*
Y26112D01*
X13566Y26126D01*
X13568Y26143D01*
X13571Y26161D01*
X13581Y26202D01*
Y26205D01*
X13585Y26212D01*
X13588Y26226D01*
X13595Y26244D01*
X13602Y26266D01*
X13614Y26295D01*
X13625Y26327D01*
X13641Y26365D01*
X13642Y26368D01*
X13644Y26375D01*
X13649Y26385D01*
X13654Y26399D01*
X13666Y26429D01*
X13671Y26445D01*
X13675Y26456D01*
Y26458D01*
X13676Y26462D01*
Y26468D01*
X13678Y26475D01*
X13680Y26495D01*
X13681Y26518D01*
Y26521D01*
Y26528D01*
X13680Y26538D01*
X13676Y26553D01*
X13673Y26570D01*
X13668Y26590D01*
X13659Y26613D01*
X13648Y26635D01*
X13646Y26638D01*
X13641Y26645D01*
X13634Y26657D01*
X13624Y26672D01*
X13612Y26687D01*
X13597Y26706D01*
X13580Y26725D01*
X13561Y26743D01*
X13746D01*
X13748Y26741D01*
D02*
G37*
G36*
X117025Y28511D02*
X117052D01*
X117086Y28507D01*
X117120Y28504D01*
X117198Y28490D01*
X117283Y28477D01*
X117371Y28453D01*
X117456Y28423D01*
X117459D01*
X117466Y28419D01*
X117476Y28412D01*
X117493Y28406D01*
X117534Y28385D01*
X117585Y28358D01*
X117639Y28321D01*
X117700Y28277D01*
X117758Y28229D01*
X117809Y28171D01*
Y28168D01*
X117816Y28165D01*
X117822Y28154D01*
X117829Y28144D01*
X117853Y28107D01*
X117880Y28059D01*
X117914Y27998D01*
X117945Y27927D01*
X117975Y27846D01*
X118002Y27754D01*
X117697Y27669D01*
Y27673D01*
X117693Y27679D01*
X117690Y27690D01*
X117687Y27703D01*
X117673Y27737D01*
X117656Y27781D01*
X117636Y27832D01*
X117612Y27883D01*
X117585Y27934D01*
X117554Y27978D01*
X117551Y27981D01*
X117537Y27998D01*
X117520Y28019D01*
X117493Y28042D01*
X117456Y28070D01*
X117415Y28100D01*
X117368Y28131D01*
X117310Y28158D01*
X117307D01*
X117303Y28161D01*
X117283Y28168D01*
X117249Y28178D01*
X117205Y28192D01*
X117154Y28205D01*
X117093Y28216D01*
X117028Y28222D01*
X116957Y28226D01*
X116916D01*
X116899Y28222D01*
X116876D01*
X116818Y28216D01*
X116757Y28209D01*
X116689Y28195D01*
X116621Y28178D01*
X116553Y28154D01*
X116550D01*
X116546Y28151D01*
X116526Y28141D01*
X116496Y28127D01*
X116458Y28104D01*
X116414Y28076D01*
X116370Y28046D01*
X116322Y28005D01*
X116282Y27964D01*
X116278Y27958D01*
X116265Y27944D01*
X116244Y27920D01*
X116221Y27890D01*
X116197Y27852D01*
X116170Y27808D01*
X116143Y27764D01*
X116119Y27713D01*
Y27710D01*
X116115Y27703D01*
X116109Y27690D01*
X116105Y27673D01*
X116099Y27649D01*
X116088Y27622D01*
X116082Y27591D01*
X116071Y27557D01*
X116054Y27479D01*
X116037Y27394D01*
X116027Y27296D01*
X116024Y27194D01*
Y27191D01*
Y27181D01*
Y27160D01*
X116027Y27136D01*
Y27109D01*
X116031Y27072D01*
X116034Y27035D01*
X116037Y26994D01*
X116051Y26902D01*
X116071Y26807D01*
X116102Y26712D01*
X116139Y26621D01*
Y26617D01*
X116146Y26610D01*
X116153Y26600D01*
X116163Y26583D01*
X116190Y26543D01*
X116227Y26492D01*
X116275Y26434D01*
X116333Y26380D01*
X116404Y26325D01*
X116482Y26278D01*
X116485D01*
X116492Y26274D01*
X116506Y26268D01*
X116523Y26261D01*
X116543Y26251D01*
X116567Y26244D01*
X116594Y26234D01*
X116628Y26224D01*
X116699Y26200D01*
X116781Y26183D01*
X116869Y26169D01*
X116960Y26166D01*
X116998D01*
X117018Y26169D01*
X117042D01*
X117096Y26176D01*
X117164Y26186D01*
X117235Y26203D01*
X117313Y26224D01*
X117391Y26251D01*
X117395D01*
X117402Y26254D01*
X117412Y26261D01*
X117425Y26264D01*
X117463Y26281D01*
X117510Y26305D01*
X117561Y26332D01*
X117615Y26363D01*
X117666Y26397D01*
X117710Y26431D01*
Y26912D01*
X116957D01*
Y27214D01*
X118043D01*
Y26261D01*
X118040Y26258D01*
X118033Y26251D01*
X118019Y26241D01*
X117999Y26230D01*
X117975Y26213D01*
X117948Y26193D01*
X117917Y26173D01*
X117883Y26149D01*
X117805Y26101D01*
X117717Y26051D01*
X117622Y26003D01*
X117524Y25962D01*
X117520D01*
X117514Y25959D01*
X117497Y25952D01*
X117480Y25949D01*
X117452Y25939D01*
X117425Y25932D01*
X117391Y25922D01*
X117357Y25915D01*
X117276Y25894D01*
X117184Y25881D01*
X117083Y25867D01*
X116981Y25864D01*
X116943D01*
X116916Y25867D01*
X116886D01*
X116845Y25874D01*
X116801Y25877D01*
X116753Y25884D01*
X116703Y25891D01*
X116648Y25905D01*
X116533Y25932D01*
X116414Y25972D01*
X116353Y25996D01*
X116295Y26023D01*
X116292Y26027D01*
X116282Y26030D01*
X116265Y26040D01*
X116244Y26054D01*
X116221Y26071D01*
X116190Y26091D01*
X116156Y26115D01*
X116122Y26142D01*
X116085Y26176D01*
X116048Y26210D01*
X116007Y26247D01*
X115970Y26291D01*
X115932Y26336D01*
X115895Y26383D01*
X115861Y26437D01*
X115830Y26492D01*
Y26495D01*
X115824Y26505D01*
X115817Y26522D01*
X115807Y26546D01*
X115793Y26573D01*
X115780Y26607D01*
X115766Y26648D01*
X115752Y26692D01*
X115739Y26739D01*
X115725Y26794D01*
X115712Y26848D01*
X115698Y26909D01*
X115681Y27038D01*
X115678Y27102D01*
X115674Y27174D01*
Y27177D01*
Y27191D01*
Y27211D01*
X115678Y27238D01*
Y27272D01*
X115681Y27309D01*
X115688Y27354D01*
X115695Y27401D01*
X115701Y27455D01*
X115712Y27510D01*
X115739Y27628D01*
X115780Y27751D01*
X115803Y27812D01*
X115830Y27873D01*
X115834Y27876D01*
X115837Y27886D01*
X115847Y27903D01*
X115861Y27927D01*
X115875Y27954D01*
X115895Y27985D01*
X115919Y28019D01*
X115946Y28056D01*
X115976Y28093D01*
X116007Y28134D01*
X116085Y28212D01*
X116177Y28290D01*
X116224Y28324D01*
X116278Y28355D01*
X116282Y28358D01*
X116292Y28361D01*
X116309Y28368D01*
X116329Y28378D01*
X116360Y28392D01*
X116390Y28406D01*
X116431Y28419D01*
X116475Y28436D01*
X116523Y28450D01*
X116574Y28463D01*
X116628Y28477D01*
X116689Y28490D01*
X116815Y28507D01*
X116882Y28514D01*
X117001D01*
X117025Y28511D01*
D02*
G37*
G36*
X13900Y20919D02*
X13742D01*
Y21403D01*
X13900D01*
Y20919D01*
D02*
G37*
G36*
X11628Y21681D02*
X11634Y21673D01*
X11645Y21663D01*
X11656Y21648D01*
X11668Y21631D01*
X11682Y21612D01*
X11694Y21592D01*
X11704Y21569D01*
X11706Y21566D01*
X11707Y21559D01*
X11711Y21547D01*
X11714Y21532D01*
X11719Y21514D01*
X11723Y21491D01*
X11724Y21466D01*
X11726Y21441D01*
Y21439D01*
Y21432D01*
Y21422D01*
X11724Y21408D01*
X11723Y21393D01*
X11721Y21376D01*
X11714Y21340D01*
Y21339D01*
X11711Y21332D01*
X11707Y21320D01*
X11702Y21303D01*
X11696Y21283D01*
X11685Y21257D01*
X11672Y21225D01*
X11656Y21189D01*
Y21188D01*
X11655Y21184D01*
X11651Y21179D01*
X11650Y21172D01*
X11641Y21154D01*
X11633Y21128D01*
X11624Y21101D01*
X11616Y21072D01*
X11611Y21044D01*
X11609Y21016D01*
Y21015D01*
Y21006D01*
X11611Y20996D01*
X11612Y20982D01*
X11616Y20965D01*
X11619Y20948D01*
X11626Y20930D01*
X11634Y20911D01*
X11636Y20909D01*
X11640Y20903D01*
X11646Y20892D01*
X11655Y20877D01*
X11668Y20860D01*
X11684Y20838D01*
X11704Y20814D01*
X11728Y20789D01*
X11548D01*
X11546Y20791D01*
X11543Y20794D01*
X11538Y20799D01*
X11531Y20806D01*
X11524Y20814D01*
X11516Y20826D01*
X11505Y20838D01*
X11495Y20853D01*
X11487Y20870D01*
X11477Y20889D01*
X11460Y20930D01*
X11455Y20954D01*
X11449Y20977D01*
X11446Y21004D01*
X11444Y21032D01*
Y21033D01*
Y21040D01*
Y21052D01*
X11446Y21066D01*
X11448Y21083D01*
X11451Y21101D01*
X11461Y21142D01*
Y21145D01*
X11465Y21152D01*
X11468Y21166D01*
X11475Y21184D01*
X11482Y21206D01*
X11494Y21235D01*
X11505Y21267D01*
X11521Y21305D01*
X11522Y21308D01*
X11524Y21315D01*
X11529Y21325D01*
X11534Y21339D01*
X11546Y21369D01*
X11551Y21385D01*
X11555Y21396D01*
Y21398D01*
X11556Y21402D01*
Y21408D01*
X11558Y21415D01*
X11560Y21435D01*
X11561Y21458D01*
Y21461D01*
Y21468D01*
X11560Y21478D01*
X11556Y21493D01*
X11553Y21510D01*
X11548Y21530D01*
X11539Y21553D01*
X11528Y21575D01*
X11526Y21578D01*
X11521Y21585D01*
X11514Y21597D01*
X11504Y21612D01*
X11492Y21627D01*
X11477Y21646D01*
X11460Y21665D01*
X11441Y21683D01*
X11626D01*
X11628Y21681D01*
D02*
G37*
G36*
X113024Y28168D02*
X112179D01*
Y25908D01*
X111840D01*
Y28168D01*
X110995D01*
Y28470D01*
X113024D01*
Y28168D01*
D02*
G37*
G36*
X114336Y25612D02*
X114178D01*
Y25792D01*
X114336D01*
Y25612D01*
D02*
G37*
G36*
X110635Y26722D02*
Y26719D01*
Y26709D01*
Y26692D01*
Y26668D01*
X110632Y26641D01*
Y26610D01*
X110628Y26577D01*
X110625Y26539D01*
X110615Y26458D01*
X110601Y26376D01*
X110584Y26295D01*
X110571Y26258D01*
X110557Y26224D01*
Y26220D01*
X110554Y26217D01*
X110543Y26193D01*
X110523Y26163D01*
X110496Y26125D01*
X110462Y26081D01*
X110421Y26037D01*
X110370Y25993D01*
X110309Y25956D01*
X110306D01*
X110303Y25952D01*
X110292Y25949D01*
X110279Y25942D01*
X110245Y25925D01*
X110197Y25911D01*
X110136Y25894D01*
X110072Y25877D01*
X109994Y25867D01*
X109912Y25864D01*
X109882D01*
X109858Y25867D01*
X109827Y25871D01*
X109797Y25874D01*
X109760Y25881D01*
X109722Y25888D01*
X109637Y25911D01*
X109597Y25928D01*
X109553Y25945D01*
X109512Y25969D01*
X109471Y25993D01*
X109430Y26023D01*
X109396Y26057D01*
X109393Y26061D01*
X109390Y26067D01*
X109379Y26078D01*
X109369Y26095D01*
X109356Y26115D01*
X109339Y26139D01*
X109325Y26169D01*
X109308Y26203D01*
X109291Y26241D01*
X109278Y26281D01*
X109261Y26329D01*
X109251Y26380D01*
X109240Y26437D01*
X109230Y26498D01*
X109227Y26563D01*
Y26631D01*
X109532Y26675D01*
Y26672D01*
Y26661D01*
Y26648D01*
X109536Y26627D01*
X109539Y26604D01*
X109542Y26577D01*
X109549Y26515D01*
X109563Y26448D01*
X109583Y26380D01*
X109607Y26319D01*
X109624Y26295D01*
X109641Y26271D01*
X109644Y26268D01*
X109658Y26254D01*
X109682Y26237D01*
X109712Y26220D01*
X109749Y26200D01*
X109797Y26183D01*
X109851Y26169D01*
X109912Y26166D01*
X109933D01*
X109956Y26169D01*
X109987Y26173D01*
X110021Y26179D01*
X110058Y26190D01*
X110096Y26203D01*
X110129Y26224D01*
X110133Y26227D01*
X110146Y26234D01*
X110160Y26247D01*
X110180Y26264D01*
X110204Y26288D01*
X110224Y26315D01*
X110245Y26346D01*
X110258Y26380D01*
X110262Y26383D01*
X110265Y26400D01*
X110272Y26424D01*
X110279Y26458D01*
X110286Y26502D01*
X110289Y26560D01*
X110296Y26624D01*
Y26702D01*
Y28470D01*
X110635D01*
Y26722D01*
D02*
G37*
G36*
X115488Y25908D02*
X115104D01*
X114806Y26685D01*
X113730D01*
X113452Y25908D01*
X113095D01*
X114073Y28470D01*
X114442D01*
X115488Y25908D01*
D02*
G37*
G36*
X10867Y18092D02*
X10888Y18090D01*
X10911Y18087D01*
X10937Y18080D01*
X10962Y18073D01*
X10989Y18063D01*
X10993Y18061D01*
X11001Y18058D01*
X11013Y18051D01*
X11030Y18041D01*
X11047Y18031D01*
X11064Y18017D01*
X11081Y18000D01*
X11095Y17983D01*
X11096Y17981D01*
X11100Y17975D01*
X11106Y17965D01*
X11115Y17951D01*
X11122Y17934D01*
X11130Y17914D01*
X11137Y17892D01*
X11144Y17868D01*
Y17866D01*
X11145Y17859D01*
X11147Y17847D01*
X11149Y17832D01*
X11151Y17812D01*
X11152Y17785D01*
X11154Y17752D01*
Y17715D01*
Y17145D01*
X10996D01*
Y17708D01*
Y17710D01*
Y17713D01*
Y17717D01*
Y17724D01*
X10994Y17742D01*
Y17763D01*
X10991Y17786D01*
X10988Y17810D01*
X10984Y17832D01*
X10977Y17853D01*
Y17854D01*
X10974Y17861D01*
X10969Y17869D01*
X10962Y17880D01*
X10954Y17892D01*
X10942Y17905D01*
X10928Y17917D01*
X10911Y17929D01*
X10910Y17931D01*
X10903Y17934D01*
X10894Y17937D01*
X10881Y17944D01*
X10865Y17949D01*
X10847Y17953D01*
X10825Y17956D01*
X10803Y17958D01*
X10793D01*
X10786Y17956D01*
X10767Y17954D01*
X10743Y17949D01*
X10716Y17942D01*
X10687Y17931D01*
X10658Y17915D01*
X10630Y17893D01*
X10626Y17890D01*
X10623Y17886D01*
X10618Y17880D01*
X10613Y17873D01*
X10608Y17863D01*
X10601Y17853D01*
X10594Y17839D01*
X10587Y17824D01*
X10580Y17805D01*
X10575Y17786D01*
X10570Y17764D01*
X10565Y17739D01*
X10562Y17712D01*
X10560Y17683D01*
X10558Y17651D01*
Y17145D01*
X10401D01*
Y18073D01*
X10543D01*
Y17941D01*
X10545Y17942D01*
X10548Y17948D01*
X10553Y17954D01*
X10562Y17965D01*
X10572Y17976D01*
X10586Y17990D01*
X10601Y18004D01*
X10618Y18017D01*
X10638Y18031D01*
X10660Y18046D01*
X10684Y18058D01*
X10709Y18070D01*
X10738Y18080D01*
X10769Y18087D01*
X10801Y18092D01*
X10837Y18093D01*
X10850D01*
X10867Y18092D01*
D02*
G37*
G36*
X7951D02*
X7961D01*
X7973Y18090D01*
X8001Y18085D01*
X8034Y18078D01*
X8068Y18066D01*
X8105Y18051D01*
X8139Y18031D01*
X8141D01*
X8142Y18027D01*
X8147Y18024D01*
X8154Y18019D01*
X8171Y18005D01*
X8190Y17987D01*
X8214Y17961D01*
X8236Y17932D01*
X8258Y17897D01*
X8276Y17858D01*
Y17856D01*
X8278Y17853D01*
X8281Y17847D01*
X8283Y17839D01*
X8288Y17829D01*
X8292Y17815D01*
X8295Y17802D01*
X8300Y17786D01*
X8309Y17751D01*
X8317Y17708D01*
X8322Y17664D01*
X8324Y17615D01*
Y17613D01*
Y17608D01*
Y17601D01*
Y17591D01*
X8322Y17579D01*
X8320Y17564D01*
X8319Y17547D01*
X8317Y17530D01*
X8310Y17489D01*
X8302Y17447D01*
X8288Y17403D01*
X8271Y17359D01*
Y17357D01*
X8269Y17354D01*
X8266Y17349D01*
X8261Y17340D01*
X8249Y17320D01*
X8234Y17294D01*
X8212Y17265D01*
X8186Y17237D01*
X8156Y17209D01*
X8122Y17184D01*
X8120D01*
X8117Y17182D01*
X8112Y17179D01*
X8105Y17176D01*
X8096Y17170D01*
X8086Y17165D01*
X8061Y17155D01*
X8030Y17143D01*
X7995Y17135D01*
X7957Y17128D01*
X7918Y17125D01*
X7905D01*
X7891Y17126D01*
X7871Y17128D01*
X7850Y17133D01*
X7827Y17138D01*
X7801Y17147D01*
X7777Y17157D01*
X7774Y17159D01*
X7767Y17164D01*
X7755Y17170D01*
X7742Y17181D01*
X7725Y17193D01*
X7708Y17206D01*
X7691Y17223D01*
X7676Y17240D01*
Y16790D01*
X7518D01*
Y18073D01*
X7662D01*
Y17951D01*
X7664Y17954D01*
X7671Y17963D01*
X7681Y17975D01*
X7694Y17992D01*
X7711Y18009D01*
X7730Y18026D01*
X7752Y18043D01*
X7774Y18058D01*
X7777Y18060D01*
X7786Y18063D01*
X7800Y18070D01*
X7818Y18076D01*
X7840Y18082D01*
X7867Y18088D01*
X7898Y18092D01*
X7930Y18093D01*
X7942D01*
X7951Y18092D01*
D02*
G37*
G36*
X9169Y18246D02*
X9011D01*
Y18426D01*
X9169D01*
Y18246D01*
D02*
G37*
G36*
Y17145D02*
X9011D01*
Y18073D01*
X9169D01*
Y17145D01*
D02*
G37*
G36*
X6739Y18446D02*
X6754D01*
X6773Y18443D01*
X6793Y18441D01*
X6815Y18438D01*
X6865Y18428D01*
X6919Y18412D01*
X6946Y18402D01*
X6973Y18392D01*
X7000Y18379D01*
X7028Y18363D01*
X7029Y18362D01*
X7034Y18360D01*
X7041Y18355D01*
X7051Y18348D01*
X7063Y18339D01*
X7077Y18328D01*
X7092Y18316D01*
X7109Y18302D01*
X7126Y18285D01*
X7143Y18268D01*
X7162Y18248D01*
X7179Y18228D01*
X7214Y18180D01*
X7245Y18126D01*
X7246Y18124D01*
X7248Y18119D01*
X7251Y18110D01*
X7257Y18099D01*
X7262Y18085D01*
X7268Y18068D01*
X7275Y18048D01*
X7284Y18026D01*
X7290Y18002D01*
X7297Y17976D01*
X7304Y17948D01*
X7309Y17917D01*
X7318Y17853D01*
X7321Y17819D01*
Y17783D01*
Y17781D01*
Y17774D01*
Y17764D01*
X7319Y17751D01*
Y17734D01*
X7318Y17713D01*
X7314Y17691D01*
X7311Y17666D01*
X7307Y17640D01*
X7302Y17612D01*
X7287Y17554D01*
X7268Y17493D01*
X7255Y17462D01*
X7241Y17433D01*
X7240Y17432D01*
X7238Y17427D01*
X7233Y17418D01*
X7228Y17408D01*
X7219Y17396D01*
X7209Y17381D01*
X7197Y17364D01*
X7184Y17347D01*
X7153Y17310D01*
X7114Y17271D01*
X7070Y17233D01*
X7046Y17216D01*
X7019Y17201D01*
X7017D01*
X7012Y17198D01*
X7005Y17194D01*
X6994Y17189D01*
X6980Y17182D01*
X6965Y17176D01*
X6946Y17169D01*
X6926Y17162D01*
X6904Y17155D01*
X6880Y17148D01*
X6827Y17135D01*
X6770Y17126D01*
X6739Y17125D01*
X6709Y17123D01*
X6692D01*
X6678Y17125D01*
X6663Y17126D01*
X6644Y17128D01*
X6622Y17130D01*
X6600Y17133D01*
X6549Y17143D01*
X6495Y17160D01*
X6468Y17169D01*
X6439Y17181D01*
X6412Y17194D01*
X6384Y17209D01*
X6383Y17211D01*
X6378Y17213D01*
X6371Y17218D01*
X6361Y17225D01*
X6349Y17235D01*
X6335Y17245D01*
X6320Y17257D01*
X6305Y17272D01*
X6288Y17288D01*
X6269Y17306D01*
X6252Y17325D01*
X6233Y17347D01*
X6200Y17393D01*
X6169Y17447D01*
Y17449D01*
X6166Y17454D01*
X6162Y17462D01*
X6157Y17474D01*
X6152Y17488D01*
X6145Y17505D01*
X6140Y17523D01*
X6133Y17544D01*
X6127Y17567D01*
X6120Y17593D01*
X6108Y17647D01*
X6099Y17705D01*
X6098Y17737D01*
X6096Y17768D01*
Y17769D01*
Y17771D01*
Y17776D01*
Y17781D01*
X6098Y17798D01*
X6099Y17820D01*
X6101Y17847D01*
X6104Y17878D01*
X6110Y17912D01*
X6118Y17949D01*
X6127Y17988D01*
X6137Y18029D01*
X6152Y18071D01*
X6167Y18112D01*
X6188Y18155D01*
X6210Y18194D01*
X6235Y18231D01*
X6266Y18267D01*
X6267Y18268D01*
X6274Y18275D01*
X6283Y18284D01*
X6296Y18295D01*
X6313Y18309D01*
X6334Y18324D01*
X6359Y18341D01*
X6386Y18358D01*
X6415Y18375D01*
X6449Y18390D01*
X6486Y18406D01*
X6525Y18419D01*
X6568Y18431D01*
X6612Y18440D01*
X6659Y18446D01*
X6709Y18448D01*
X6725D01*
X6739Y18446D01*
D02*
G37*
G36*
X9815Y18092D02*
X9830Y18090D01*
X9849Y18087D01*
X9871Y18083D01*
X9893Y18078D01*
X9917Y18071D01*
X9942Y18063D01*
X9968Y18053D01*
X9995Y18041D01*
X10021Y18026D01*
X10046Y18009D01*
X10071Y17990D01*
X10095Y17968D01*
X10097Y17966D01*
X10100Y17963D01*
X10107Y17954D01*
X10114Y17944D01*
X10124Y17932D01*
X10134Y17917D01*
X10144Y17898D01*
X10156Y17878D01*
X10168Y17854D01*
X10178Y17829D01*
X10188Y17800D01*
X10199Y17769D01*
X10205Y17735D01*
X10212Y17700D01*
X10216Y17663D01*
X10217Y17622D01*
Y17620D01*
Y17613D01*
Y17605D01*
Y17593D01*
X10216Y17578D01*
X10214Y17559D01*
X10212Y17540D01*
X10211Y17518D01*
X10204Y17474D01*
X10195Y17427D01*
X10182Y17381D01*
X10173Y17359D01*
X10163Y17338D01*
Y17337D01*
X10161Y17333D01*
X10158Y17328D01*
X10153Y17321D01*
X10141Y17303D01*
X10122Y17281D01*
X10100Y17255D01*
X10073Y17228D01*
X10043Y17204D01*
X10005Y17181D01*
X10004D01*
X10000Y17179D01*
X9995Y17176D01*
X9988Y17172D01*
X9978Y17167D01*
X9966Y17164D01*
X9939Y17153D01*
X9907Y17142D01*
X9868Y17133D01*
X9827Y17126D01*
X9783Y17125D01*
X9774D01*
X9764Y17126D01*
X9751D01*
X9734Y17128D01*
X9715Y17131D01*
X9693Y17135D01*
X9671Y17140D01*
X9646Y17147D01*
X9620Y17155D01*
X9595Y17165D01*
X9567Y17177D01*
X9542Y17191D01*
X9515Y17208D01*
X9491Y17226D01*
X9467Y17249D01*
X9466Y17250D01*
X9462Y17254D01*
X9457Y17262D01*
X9449Y17272D01*
X9440Y17284D01*
X9430Y17301D01*
X9420Y17320D01*
X9408Y17340D01*
X9398Y17364D01*
X9386Y17391D01*
X9376Y17422D01*
X9367Y17454D01*
X9359Y17488D01*
X9354Y17525D01*
X9350Y17566D01*
X9349Y17608D01*
Y17612D01*
Y17620D01*
X9350Y17634D01*
Y17651D01*
X9354Y17673D01*
X9355Y17696D01*
X9360Y17724D01*
X9367Y17752D01*
X9374Y17783D01*
X9384Y17815D01*
X9394Y17846D01*
X9408Y17878D01*
X9425Y17909D01*
X9444Y17937D01*
X9466Y17965D01*
X9491Y17990D01*
X9493Y17992D01*
X9496Y17995D01*
X9503Y18000D01*
X9513Y18007D01*
X9523Y18014D01*
X9539Y18022D01*
X9554Y18032D01*
X9573Y18043D01*
X9593Y18051D01*
X9615Y18061D01*
X9639Y18070D01*
X9664Y18078D01*
X9691Y18083D01*
X9720Y18088D01*
X9751Y18092D01*
X9783Y18093D01*
X9802D01*
X9815Y18092D01*
D02*
G37*
G36*
X8697Y18073D02*
X8857D01*
Y17951D01*
X8697D01*
Y17406D01*
Y17403D01*
Y17396D01*
Y17384D01*
X8699Y17371D01*
X8700Y17342D01*
X8702Y17330D01*
X8704Y17320D01*
X8706Y17316D01*
X8711Y17310D01*
X8719Y17299D01*
X8731Y17289D01*
X8733D01*
X8734Y17288D01*
X8739Y17286D01*
X8746Y17284D01*
X8763Y17281D01*
X8785Y17279D01*
X8795D01*
X8804Y17281D01*
X8814D01*
X8828Y17282D01*
X8841Y17284D01*
X8857Y17286D01*
X8877Y17147D01*
X8874D01*
X8865Y17145D01*
X8853Y17143D01*
X8836Y17140D01*
X8818Y17138D01*
X8797Y17135D01*
X8756Y17133D01*
X8743D01*
X8728Y17135D01*
X8709Y17137D01*
X8687Y17140D01*
X8665Y17143D01*
X8643Y17150D01*
X8624Y17159D01*
X8622Y17160D01*
X8616Y17164D01*
X8609Y17169D01*
X8599Y17177D01*
X8587Y17187D01*
X8577Y17201D01*
X8566Y17215D01*
X8558Y17230D01*
Y17232D01*
X8555Y17238D01*
X8553Y17252D01*
X8549Y17271D01*
X8548Y17281D01*
X8546Y17294D01*
X8544Y17310D01*
X8543Y17327D01*
X8541Y17347D01*
Y17367D01*
X8539Y17391D01*
Y17416D01*
Y17951D01*
X8424D01*
Y18073D01*
X8539D01*
Y18302D01*
X8697Y18395D01*
Y18073D01*
D02*
G37*
G36*
X20006Y750D02*
X18006D01*
X19006Y1750D01*
X20006Y750D01*
D02*
G37*
G36*
X76154D02*
X74154D01*
X75154Y1750D01*
X76154Y750D01*
D02*
G37*
G36*
X81728D02*
X79728D01*
X80728Y1750D01*
X81728Y750D01*
D02*
G37*
G36*
X96728D02*
X94728D01*
X95728Y1750D01*
X96728Y750D01*
D02*
G37*
G36*
X61154D02*
X59154D01*
X60154Y1750D01*
X61154Y750D01*
D02*
G37*
G36*
X35006D02*
X33006D01*
X34006Y1750D01*
X35006Y750D01*
D02*
G37*
G36*
X40580D02*
X38580D01*
X39580Y1750D01*
X40580Y750D01*
D02*
G37*
G36*
X55580D02*
X53580D01*
X54580Y1750D01*
X55580Y750D01*
D02*
G37*
G36*
X6280Y19743D02*
X6296Y19741D01*
X6314Y19738D01*
X6336Y19734D01*
X6358Y19729D01*
X6382Y19722D01*
X6408Y19714D01*
X6433Y19704D01*
X6460Y19692D01*
X6486Y19677D01*
X6511Y19660D01*
X6537Y19641D01*
X6560Y19619D01*
X6562Y19617D01*
X6565Y19614D01*
X6572Y19605D01*
X6579Y19595D01*
X6589Y19583D01*
X6599Y19568D01*
X6610Y19549D01*
X6621Y19529D01*
X6633Y19505D01*
X6643Y19480D01*
X6654Y19451D01*
X6664Y19420D01*
X6671Y19386D01*
X6677Y19351D01*
X6681Y19313D01*
X6682Y19273D01*
Y19271D01*
Y19264D01*
Y19256D01*
Y19244D01*
X6681Y19229D01*
X6679Y19210D01*
X6677Y19191D01*
X6676Y19169D01*
X6669Y19125D01*
X6660Y19078D01*
X6647Y19032D01*
X6638Y19010D01*
X6628Y18989D01*
Y18988D01*
X6626Y18984D01*
X6623Y18979D01*
X6618Y18972D01*
X6606Y18954D01*
X6587Y18932D01*
X6565Y18906D01*
X6538Y18879D01*
X6508Y18855D01*
X6470Y18832D01*
X6469D01*
X6465Y18830D01*
X6460Y18827D01*
X6453Y18823D01*
X6443Y18818D01*
X6431Y18815D01*
X6404Y18804D01*
X6372Y18793D01*
X6333Y18784D01*
X6292Y18777D01*
X6248Y18776D01*
X6240D01*
X6229Y18777D01*
X6216D01*
X6199Y18779D01*
X6180Y18782D01*
X6158Y18786D01*
X6136Y18791D01*
X6111Y18798D01*
X6085Y18806D01*
X6060Y18816D01*
X6033Y18828D01*
X6007Y18842D01*
X5980Y18859D01*
X5956Y18877D01*
X5933Y18899D01*
X5931Y18901D01*
X5927Y18905D01*
X5922Y18913D01*
X5914Y18923D01*
X5905Y18935D01*
X5895Y18952D01*
X5885Y18971D01*
X5873Y18991D01*
X5863Y19015D01*
X5851Y19042D01*
X5841Y19073D01*
X5832Y19105D01*
X5824Y19139D01*
X5819Y19176D01*
X5815Y19217D01*
X5814Y19259D01*
Y19263D01*
Y19271D01*
X5815Y19285D01*
Y19302D01*
X5819Y19324D01*
X5821Y19347D01*
X5826Y19375D01*
X5832Y19403D01*
X5839Y19434D01*
X5849Y19466D01*
X5860Y19497D01*
X5873Y19529D01*
X5890Y19560D01*
X5909Y19588D01*
X5931Y19616D01*
X5956Y19641D01*
X5958Y19643D01*
X5961Y19646D01*
X5968Y19651D01*
X5978Y19658D01*
X5989Y19665D01*
X6004Y19673D01*
X6019Y19683D01*
X6038Y19694D01*
X6058Y19702D01*
X6080Y19712D01*
X6104Y19721D01*
X6129Y19729D01*
X6156Y19734D01*
X6185Y19739D01*
X6216Y19743D01*
X6248Y19744D01*
X6267D01*
X6280Y19743D01*
D02*
G37*
G36*
X8568D02*
X8584Y19741D01*
X8601Y19738D01*
X8624Y19734D01*
X8646Y19729D01*
X8669Y19722D01*
X8693Y19714D01*
X8719Y19704D01*
X8744Y19690D01*
X8769Y19677D01*
X8795Y19660D01*
X8819Y19639D01*
X8841Y19617D01*
X8842Y19616D01*
X8846Y19612D01*
X8851Y19604D01*
X8859Y19593D01*
X8868Y19582D01*
X8878Y19565D01*
X8890Y19546D01*
X8900Y19526D01*
X8912Y19502D01*
X8922Y19475D01*
X8932Y19446D01*
X8941Y19414D01*
X8949Y19380D01*
X8954Y19342D01*
X8958Y19303D01*
X8959Y19261D01*
Y19259D01*
Y19251D01*
Y19239D01*
X8958Y19220D01*
X8267D01*
Y19218D01*
Y19213D01*
X8269Y19205D01*
X8271Y19195D01*
X8272Y19181D01*
X8274Y19168D01*
X8281Y19134D01*
X8291Y19095D01*
X8306Y19056D01*
X8327Y19018D01*
X8338Y19001D01*
X8352Y18984D01*
X8354D01*
X8355Y18981D01*
X8361Y18978D01*
X8366Y18972D01*
X8383Y18959D01*
X8406Y18945D01*
X8433Y18930D01*
X8467Y18916D01*
X8505Y18908D01*
X8525Y18906D01*
X8547Y18905D01*
X8561D01*
X8578Y18906D01*
X8598Y18910D01*
X8620Y18915D01*
X8644Y18923D01*
X8669Y18933D01*
X8693Y18949D01*
X8696Y18950D01*
X8703Y18957D01*
X8715Y18969D01*
X8729Y18984D01*
X8744Y19005D01*
X8759Y19030D01*
X8776Y19061D01*
X8790Y19096D01*
X8953Y19076D01*
Y19074D01*
X8951Y19069D01*
X8949Y19062D01*
X8946Y19052D01*
X8941Y19040D01*
X8936Y19027D01*
X8920Y18995D01*
X8902Y18959D01*
X8878Y18922D01*
X8847Y18886D01*
X8812Y18854D01*
X8810D01*
X8807Y18850D01*
X8802Y18847D01*
X8793Y18842D01*
X8783Y18835D01*
X8771Y18828D01*
X8756Y18821D01*
X8741Y18815D01*
X8722Y18808D01*
X8702Y18801D01*
X8680Y18794D01*
X8656Y18788D01*
X8603Y18779D01*
X8576Y18777D01*
X8545Y18776D01*
X8537D01*
X8527Y18777D01*
X8512D01*
X8495Y18779D01*
X8476Y18782D01*
X8454Y18786D01*
X8430Y18791D01*
X8405Y18798D01*
X8379Y18806D01*
X8352Y18816D01*
X8325Y18828D01*
X8298Y18842D01*
X8272Y18859D01*
X8249Y18877D01*
X8225Y18899D01*
X8223Y18901D01*
X8220Y18905D01*
X8215Y18913D01*
X8206Y18923D01*
X8198Y18935D01*
X8187Y18950D01*
X8177Y18969D01*
X8165Y18991D01*
X8155Y19015D01*
X8143Y19040D01*
X8133Y19069D01*
X8125Y19101D01*
X8116Y19135D01*
X8111Y19171D01*
X8108Y19210D01*
X8106Y19251D01*
Y19254D01*
Y19261D01*
Y19273D01*
X8108Y19290D01*
X8109Y19308D01*
X8113Y19332D01*
X8116Y19358D01*
X8121Y19385D01*
X8126Y19412D01*
X8135Y19442D01*
X8145Y19473D01*
X8157Y19504D01*
X8170Y19532D01*
X8186Y19561D01*
X8204Y19588D01*
X8225Y19614D01*
X8226Y19616D01*
X8230Y19619D01*
X8237Y19626D01*
X8247Y19634D01*
X8259Y19644D01*
X8272Y19655D01*
X8289Y19666D01*
X8310Y19680D01*
X8330Y19692D01*
X8354Y19704D01*
X8379Y19714D01*
X8408Y19724D01*
X8437Y19733D01*
X8469Y19739D01*
X8501Y19743D01*
X8537Y19744D01*
X8556D01*
X8568Y19743D01*
D02*
G37*
G36*
X5254Y20075D02*
X5284Y20074D01*
X5317Y20072D01*
X5349Y20069D01*
X5376Y20063D01*
X5381D01*
X5384Y20062D01*
X5391Y20060D01*
X5410Y20057D01*
X5432Y20050D01*
X5456Y20043D01*
X5483Y20031D01*
X5508Y20019D01*
X5534Y20004D01*
X5537Y20002D01*
X5544Y19996D01*
X5556Y19985D01*
X5571Y19972D01*
X5588Y19955D01*
X5605Y19933D01*
X5622Y19909D01*
X5637Y19880D01*
Y19879D01*
X5639Y19877D01*
X5644Y19867D01*
X5649Y19850D01*
X5658Y19829D01*
X5664Y19802D01*
X5670Y19773D01*
X5675Y19741D01*
X5676Y19705D01*
Y19704D01*
Y19699D01*
Y19690D01*
X5675Y19678D01*
X5673Y19665D01*
X5671Y19648D01*
X5668Y19629D01*
X5663Y19610D01*
X5651Y19566D01*
X5642Y19544D01*
X5632Y19521D01*
X5620Y19497D01*
X5605Y19473D01*
X5590Y19451D01*
X5571Y19429D01*
X5569Y19427D01*
X5566Y19424D01*
X5559Y19419D01*
X5551Y19412D01*
X5539Y19403D01*
X5524Y19393D01*
X5507Y19383D01*
X5486Y19373D01*
X5461Y19363D01*
X5434Y19353D01*
X5403Y19342D01*
X5369Y19334D01*
X5332Y19327D01*
X5289Y19322D01*
X5245Y19319D01*
X5196Y19317D01*
X4869D01*
Y18796D01*
X4699D01*
Y20077D01*
X5225D01*
X5254Y20075D01*
D02*
G37*
G36*
X6337Y21748D02*
X6352D01*
X6369Y21747D01*
X6386Y21745D01*
X6425Y21738D01*
X6467Y21731D01*
X6510Y21720D01*
X6552Y21704D01*
X6554D01*
X6557Y21703D01*
X6562Y21699D01*
X6571Y21696D01*
X6589Y21686D01*
X6613Y21670D01*
X6640Y21652D01*
X6667Y21628D01*
X6695Y21601D01*
X6718Y21569D01*
Y21567D01*
X6722Y21565D01*
X6723Y21560D01*
X6729Y21553D01*
X6737Y21535D01*
X6749Y21511D01*
X6761Y21480D01*
X6771Y21446D01*
X6779Y21409D01*
X6783Y21368D01*
X6620Y21356D01*
Y21358D01*
Y21362D01*
X6618Y21368D01*
X6617Y21377D01*
X6615Y21385D01*
X6611Y21397D01*
X6603Y21424D01*
X6593Y21453D01*
X6576Y21482D01*
X6555Y21511D01*
X6530Y21536D01*
X6527Y21540D01*
X6522Y21541D01*
X6516Y21546D01*
X6508Y21552D01*
X6499Y21557D01*
X6488Y21562D01*
X6474Y21569D01*
X6459Y21574D01*
X6443Y21579D01*
X6425Y21584D01*
X6404Y21589D01*
X6382Y21594D01*
X6360Y21596D01*
X6335Y21599D01*
X6282D01*
X6270Y21597D01*
X6255Y21596D01*
X6221Y21592D01*
X6186Y21586D01*
X6148Y21575D01*
X6113Y21560D01*
X6097Y21552D01*
X6084Y21541D01*
X6080Y21540D01*
X6074Y21531D01*
X6062Y21519D01*
X6050Y21504D01*
X6036Y21484D01*
X6024Y21460D01*
X6018Y21434D01*
X6014Y21406D01*
Y21402D01*
Y21394D01*
X6018Y21382D01*
X6021Y21367D01*
X6026Y21348D01*
X6035Y21329D01*
X6046Y21311D01*
X6063Y21292D01*
X6067Y21290D01*
X6070Y21287D01*
X6074Y21285D01*
X6080Y21280D01*
X6091Y21275D01*
X6101Y21270D01*
X6114Y21265D01*
X6130Y21258D01*
X6147Y21250D01*
X6169Y21243D01*
X6192Y21234D01*
X6218Y21226D01*
X6248Y21217D01*
X6281Y21209D01*
X6318Y21200D01*
X6320D01*
X6326Y21199D01*
X6338Y21195D01*
X6352Y21192D01*
X6369Y21188D01*
X6387Y21183D01*
X6408Y21178D01*
X6432Y21173D01*
X6477Y21160D01*
X6525Y21146D01*
X6547Y21139D01*
X6567Y21132D01*
X6586Y21126D01*
X6601Y21119D01*
X6603D01*
X6606Y21117D01*
X6611Y21114D01*
X6620Y21110D01*
X6640Y21099D01*
X6664Y21083D01*
X6691Y21065D01*
X6720Y21043D01*
X6746Y21017D01*
X6768Y20988D01*
Y20987D01*
X6769Y20985D01*
X6776Y20975D01*
X6785Y20958D01*
X6795Y20936D01*
X6805Y20910D01*
X6813Y20878D01*
X6820Y20844D01*
X6822Y20807D01*
Y20805D01*
Y20802D01*
Y20797D01*
X6820Y20790D01*
Y20780D01*
X6818Y20769D01*
X6815Y20744D01*
X6807Y20715D01*
X6796Y20683D01*
X6783Y20649D01*
X6762Y20615D01*
Y20613D01*
X6759Y20612D01*
X6756Y20606D01*
X6752Y20600D01*
X6739Y20584D01*
X6720Y20564D01*
X6696Y20540D01*
X6667Y20518D01*
X6634Y20495D01*
X6594Y20474D01*
X6593D01*
X6589Y20472D01*
X6584Y20469D01*
X6576Y20467D01*
X6566Y20462D01*
X6554Y20459D01*
X6538Y20454D01*
X6523Y20450D01*
X6488Y20440D01*
X6445Y20433D01*
X6399Y20427D01*
X6348Y20425D01*
X6320D01*
X6304Y20427D01*
X6287Y20428D01*
X6269D01*
X6247Y20432D01*
X6201Y20437D01*
X6152Y20445D01*
X6104Y20457D01*
X6057Y20474D01*
X6055D01*
X6052Y20476D01*
X6045Y20479D01*
X6038Y20484D01*
X6028Y20489D01*
X6016Y20496D01*
X5990Y20513D01*
X5960Y20534D01*
X5929Y20561D01*
X5901Y20591D01*
X5873Y20627D01*
Y20629D01*
X5870Y20632D01*
X5867Y20637D01*
X5863Y20646D01*
X5858Y20654D01*
X5853Y20666D01*
X5846Y20679D01*
X5839Y20695D01*
X5828Y20729D01*
X5816Y20769D01*
X5807Y20812D01*
X5804Y20859D01*
X5963Y20873D01*
Y20871D01*
Y20869D01*
X5965Y20864D01*
Y20858D01*
X5968Y20839D01*
X5973Y20817D01*
X5980Y20791D01*
X5989Y20764D01*
X6001Y20739D01*
X6014Y20713D01*
X6016Y20710D01*
X6023Y20703D01*
X6033Y20691D01*
X6046Y20678D01*
X6065Y20662D01*
X6087Y20646D01*
X6113Y20629D01*
X6143Y20613D01*
X6145D01*
X6147Y20612D01*
X6152Y20610D01*
X6158Y20608D01*
X6177Y20601D01*
X6201Y20595D01*
X6230Y20588D01*
X6264Y20581D01*
X6301Y20578D01*
X6340Y20576D01*
X6357D01*
X6374Y20578D01*
X6398Y20579D01*
X6425Y20583D01*
X6454Y20588D01*
X6483Y20595D01*
X6511Y20605D01*
X6513D01*
X6515Y20606D01*
X6523Y20610D01*
X6537Y20617D01*
X6554Y20625D01*
X6571Y20637D01*
X6589Y20651D01*
X6606Y20666D01*
X6622Y20683D01*
X6623Y20685D01*
X6627Y20691D01*
X6634Y20702D01*
X6640Y20715D01*
X6647Y20732D01*
X6654Y20751D01*
X6657Y20771D01*
X6659Y20793D01*
Y20797D01*
Y20803D01*
X6657Y20813D01*
X6654Y20829D01*
X6650Y20844D01*
X6644Y20863D01*
X6634Y20880D01*
X6622Y20897D01*
X6620Y20898D01*
X6615Y20905D01*
X6606Y20914D01*
X6594Y20924D01*
X6578Y20936D01*
X6557Y20948D01*
X6533Y20961D01*
X6506Y20973D01*
X6505Y20975D01*
X6496Y20976D01*
X6489Y20980D01*
X6481Y20981D01*
X6471Y20985D01*
X6459Y20988D01*
X6445Y20993D01*
X6428Y20997D01*
X6410Y21002D01*
X6389Y21009D01*
X6365Y21014D01*
X6340Y21020D01*
X6311Y21027D01*
X6279Y21036D01*
X6277D01*
X6270Y21037D01*
X6262Y21039D01*
X6250Y21043D01*
X6236Y21048D01*
X6220Y21051D01*
X6182Y21061D01*
X6141Y21073D01*
X6101Y21087D01*
X6062Y21102D01*
X6046Y21109D01*
X6031Y21116D01*
X6029D01*
X6028Y21117D01*
X6023Y21121D01*
X6016Y21124D01*
X6001Y21134D01*
X5980Y21149D01*
X5958Y21166D01*
X5936Y21187D01*
X5914Y21211D01*
X5895Y21236D01*
X5894Y21239D01*
X5889Y21248D01*
X5882Y21263D01*
X5873Y21283D01*
X5865Y21306D01*
X5858Y21333D01*
X5853Y21363D01*
X5851Y21395D01*
Y21397D01*
Y21401D01*
Y21406D01*
X5853Y21412D01*
X5855Y21431D01*
X5858Y21455D01*
X5865Y21482D01*
X5875Y21513D01*
X5887Y21545D01*
X5906Y21577D01*
Y21579D01*
X5909Y21580D01*
X5916Y21591D01*
X5928Y21606D01*
X5946Y21625D01*
X5968Y21647D01*
X5996Y21667D01*
X6028Y21687D01*
X6065Y21706D01*
X6067D01*
X6070Y21708D01*
X6075Y21709D01*
X6084Y21713D01*
X6094Y21716D01*
X6106Y21720D01*
X6119Y21725D01*
X6135Y21728D01*
X6170Y21737D01*
X6209Y21743D01*
X6253Y21748D01*
X6301Y21750D01*
X6325D01*
X6337Y21748D01*
D02*
G37*
G36*
X27419Y59761D02*
X27767D01*
Y59615D01*
X27419D01*
Y59264D01*
X27272D01*
Y59615D01*
X26924D01*
Y59761D01*
X27272D01*
Y60109D01*
X27419D01*
Y59761D01*
D02*
G37*
G36*
X7562Y21726D02*
X7575D01*
X7609Y21723D01*
X7646Y21718D01*
X7685Y21711D01*
X7725Y21703D01*
X7760Y21689D01*
X7762D01*
X7764Y21687D01*
X7769Y21686D01*
X7775Y21682D01*
X7791Y21672D01*
X7811Y21660D01*
X7833Y21643D01*
X7857Y21621D01*
X7879Y21597D01*
X7899Y21569D01*
Y21567D01*
X7901Y21565D01*
X7908Y21555D01*
X7916Y21538D01*
X7925Y21518D01*
X7935Y21492D01*
X7942Y21463D01*
X7948Y21433D01*
X7950Y21401D01*
Y21399D01*
Y21397D01*
Y21387D01*
X7948Y21370D01*
X7945Y21350D01*
X7938Y21326D01*
X7932Y21300D01*
X7920Y21272D01*
X7904Y21244D01*
X7903Y21241D01*
X7896Y21233D01*
X7886Y21219D01*
X7870Y21204D01*
X7852Y21185D01*
X7830Y21166D01*
X7803Y21146D01*
X7770Y21129D01*
X7772D01*
X7775Y21127D01*
X7782Y21126D01*
X7789Y21122D01*
X7799Y21119D01*
X7811Y21114D01*
X7836Y21102D01*
X7865Y21085D01*
X7896Y21065D01*
X7925Y21041D01*
X7950Y21012D01*
Y21010D01*
X7954Y21009D01*
X7955Y21004D01*
X7960Y20998D01*
X7971Y20980D01*
X7982Y20958D01*
X7993Y20929D01*
X8003Y20897D01*
X8010Y20859D01*
X8013Y20819D01*
Y20817D01*
Y20815D01*
Y20810D01*
Y20803D01*
X8011Y20786D01*
X8008Y20763D01*
X8003Y20737D01*
X7996Y20708D01*
X7988Y20679D01*
X7974Y20649D01*
X7972Y20646D01*
X7967Y20637D01*
X7959Y20622D01*
X7948Y20605D01*
X7935Y20586D01*
X7920Y20567D01*
X7901Y20547D01*
X7881Y20530D01*
X7879Y20528D01*
X7870Y20523D01*
X7859Y20517D01*
X7842Y20506D01*
X7821Y20496D01*
X7797Y20486D01*
X7770Y20476D01*
X7740Y20467D01*
X7736D01*
X7731Y20466D01*
X7725Y20464D01*
X7716Y20462D01*
X7706Y20461D01*
X7682Y20457D01*
X7652Y20454D01*
X7616Y20450D01*
X7577Y20449D01*
X7533Y20447D01*
X7046D01*
Y21728D01*
X7548D01*
X7562Y21726D01*
D02*
G37*
G36*
X5578Y20987D02*
Y20985D01*
Y20978D01*
Y20968D01*
Y20954D01*
X5576Y20939D01*
Y20919D01*
X5575Y20898D01*
X5573Y20876D01*
X5568Y20827D01*
X5559Y20776D01*
X5549Y20725D01*
X5543Y20702D01*
X5534Y20679D01*
Y20678D01*
X5532Y20674D01*
X5529Y20669D01*
X5526Y20661D01*
X5520Y20651D01*
X5514Y20640D01*
X5498Y20613D01*
X5476Y20584D01*
X5449Y20554D01*
X5415Y20523D01*
X5376Y20495D01*
X5375D01*
X5371Y20491D01*
X5364Y20488D01*
X5356Y20484D01*
X5344Y20479D01*
X5330Y20472D01*
X5315Y20466D01*
X5297Y20461D01*
X5276Y20454D01*
X5254Y20447D01*
X5229Y20442D01*
X5203Y20435D01*
X5174Y20432D01*
X5144Y20428D01*
X5112Y20425D01*
X5061D01*
X5047Y20427D01*
X5032D01*
X5015Y20428D01*
X4994Y20430D01*
X4974Y20433D01*
X4927Y20440D01*
X4877Y20450D01*
X4828Y20466D01*
X4782Y20486D01*
X4781D01*
X4777Y20489D01*
X4772Y20493D01*
X4764Y20498D01*
X4743Y20511D01*
X4720Y20532D01*
X4692Y20557D01*
X4665Y20588D01*
X4640Y20625D01*
X4620Y20666D01*
Y20668D01*
X4618Y20671D01*
X4614Y20678D01*
X4613Y20688D01*
X4609Y20700D01*
X4604Y20713D01*
X4601Y20730D01*
X4596Y20751D01*
X4591Y20771D01*
X4587Y20795D01*
X4584Y20822D01*
X4579Y20851D01*
X4577Y20881D01*
X4574Y20914D01*
X4572Y20949D01*
Y20987D01*
Y21728D01*
X4742D01*
Y20988D01*
Y20987D01*
Y20981D01*
Y20973D01*
Y20961D01*
X4743Y20948D01*
Y20931D01*
X4745Y20895D01*
X4748Y20854D01*
X4755Y20813D01*
X4762Y20774D01*
X4767Y20756D01*
X4772Y20741D01*
X4774Y20737D01*
X4779Y20727D01*
X4786Y20713D01*
X4798Y20696D01*
X4811Y20676D01*
X4830Y20657D01*
X4852Y20637D01*
X4877Y20620D01*
X4879D01*
X4881Y20618D01*
X4891Y20613D01*
X4908Y20606D01*
X4930Y20600D01*
X4955Y20591D01*
X4988Y20584D01*
X5023Y20579D01*
X5062Y20578D01*
X5079D01*
X5093Y20579D01*
X5108Y20581D01*
X5125Y20583D01*
X5145Y20584D01*
X5166Y20588D01*
X5210Y20598D01*
X5254Y20613D01*
X5274Y20622D01*
X5295Y20634D01*
X5313Y20646D01*
X5329Y20661D01*
X5330Y20662D01*
X5332Y20664D01*
X5336Y20671D01*
X5341Y20678D01*
X5347Y20688D01*
X5354Y20700D01*
X5361Y20715D01*
X5369Y20734D01*
X5376Y20754D01*
X5383Y20778D01*
X5390Y20805D01*
X5397Y20836D01*
X5402Y20868D01*
X5405Y20905D01*
X5408Y20944D01*
Y20988D01*
Y21728D01*
X5578D01*
Y20987D01*
D02*
G37*
G36*
X7733Y18796D02*
X7572D01*
X7424Y19351D01*
X7387Y19509D01*
X7197Y18796D01*
X7035D01*
X6752Y19724D01*
X6915D01*
X7063Y19188D01*
X7117Y18988D01*
Y18989D01*
X7119Y18993D01*
X7120Y19001D01*
X7122Y19008D01*
X7124Y19018D01*
X7127Y19028D01*
X7130Y19042D01*
X7134Y19057D01*
X7139Y19076D01*
X7144Y19096D01*
X7151Y19120D01*
X7158Y19149D01*
X7166Y19179D01*
X7314Y19724D01*
X7473D01*
X7612Y19185D01*
X7658Y19008D01*
X7711Y19186D01*
X7872Y19724D01*
X8025D01*
X7733Y18796D01*
D02*
G37*
G36*
X9521Y19741D02*
X9541Y19738D01*
X9565Y19733D01*
X9594Y19722D01*
X9623Y19711D01*
X9653Y19694D01*
X9599Y19548D01*
X9597Y19549D01*
X9589Y19553D01*
X9577Y19558D01*
X9564Y19565D01*
X9545Y19571D01*
X9526Y19576D01*
X9506Y19580D01*
X9484Y19582D01*
X9475D01*
X9465Y19580D01*
X9453Y19578D01*
X9438Y19573D01*
X9423Y19568D01*
X9406Y19560D01*
X9390Y19549D01*
X9389Y19548D01*
X9384Y19544D01*
X9377Y19537D01*
X9368Y19527D01*
X9358Y19515D01*
X9350Y19500D01*
X9340Y19483D01*
X9333Y19465D01*
Y19463D01*
X9331Y19461D01*
Y19456D01*
X9329Y19449D01*
X9324Y19432D01*
X9321Y19410D01*
X9316Y19383D01*
X9311Y19351D01*
X9309Y19317D01*
X9307Y19281D01*
Y18796D01*
X9149D01*
Y19724D01*
X9292D01*
Y19583D01*
X9294Y19587D01*
X9297Y19592D01*
X9300Y19597D01*
X9311Y19614D01*
X9324Y19634D01*
X9340Y19656D01*
X9356Y19678D01*
X9373Y19697D01*
X9390Y19712D01*
X9392Y19714D01*
X9399Y19717D01*
X9407Y19722D01*
X9421Y19729D01*
X9436Y19734D01*
X9453Y19739D01*
X9472Y19743D01*
X9492Y19744D01*
X9506D01*
X9521Y19741D01*
D02*
G37*
%LPC*%
G36*
X21807Y55232D02*
X21512D01*
Y54253D01*
X21816D01*
X21829Y54255D01*
X21856Y54256D01*
X21889Y54258D01*
X21921Y54263D01*
X21953Y54268D01*
X21982Y54275D01*
X21984D01*
X21985Y54277D01*
X21994Y54280D01*
X22007Y54285D01*
X22024Y54292D01*
X22043Y54302D01*
X22062Y54314D01*
X22080Y54328D01*
X22097Y54343D01*
X22101Y54346D01*
X22107Y54353D01*
X22118Y54367D01*
X22133Y54385D01*
X22148Y54409D01*
X22163Y54436D01*
X22179Y54468D01*
X22192Y54504D01*
Y54506D01*
X22194Y54509D01*
X22196Y54514D01*
X22197Y54523D01*
X22201Y54533D01*
X22203Y54545D01*
X22206Y54558D01*
X22209Y54574D01*
X22213Y54591D01*
X22216Y54609D01*
X22221Y54652D01*
X22225Y54699D01*
X22226Y54752D01*
Y54754D01*
Y54760D01*
Y54771D01*
X22225Y54784D01*
Y54801D01*
X22223Y54821D01*
X22221Y54842D01*
X22218Y54866D01*
X22211Y54915D01*
X22199Y54966D01*
X22182Y55015D01*
X22172Y55039D01*
X22160Y55059D01*
Y55061D01*
X22157Y55064D01*
X22153Y55069D01*
X22148Y55076D01*
X22135Y55095D01*
X22116Y55118D01*
X22092Y55142D01*
X22065Y55166D01*
X22033Y55188D01*
X21999Y55205D01*
X21996Y55207D01*
X21985Y55210D01*
X21979Y55212D01*
X21970Y55213D01*
X21958Y55217D01*
X21946Y55218D01*
X21931Y55222D01*
X21916Y55224D01*
X21897Y55225D01*
X21878Y55229D01*
X21856Y55230D01*
X21833D01*
X21807Y55232D01*
D02*
G37*
G36*
X117156Y24976D02*
X117154D01*
X117152Y24974D01*
X117147Y24973D01*
X117139Y24971D01*
X117130Y24967D01*
X117120Y24964D01*
X117107Y24959D01*
X117091Y24956D01*
X117074Y24950D01*
X117056Y24945D01*
X117034Y24940D01*
X117010Y24935D01*
X116986Y24930D01*
X116959Y24927D01*
X116928Y24922D01*
X116898Y24917D01*
X116895D01*
X116889Y24915D01*
X116883Y24913D01*
X116866Y24911D01*
X116845Y24906D01*
X116822Y24901D01*
X116800Y24896D01*
X116777Y24891D01*
X116760Y24884D01*
X116759D01*
X116754Y24881D01*
X116747Y24877D01*
X116737Y24872D01*
X116716Y24855D01*
X116706Y24845D01*
X116698Y24833D01*
Y24832D01*
X116694Y24828D01*
X116691Y24822D01*
X116688Y24813D01*
X116684Y24801D01*
X116681Y24789D01*
X116679Y24776D01*
X116677Y24760D01*
Y24757D01*
Y24750D01*
X116681Y24738D01*
X116684Y24723D01*
X116689Y24708D01*
X116698Y24689D01*
X116710Y24672D01*
X116725Y24655D01*
X116727Y24654D01*
X116733Y24648D01*
X116745Y24642D01*
X116760Y24635D01*
X116779Y24628D01*
X116803Y24621D01*
X116832Y24616D01*
X116864Y24615D01*
X116879D01*
X116896Y24616D01*
X116918Y24620D01*
X116944Y24625D01*
X116971Y24631D01*
X116998Y24640D01*
X117025Y24654D01*
X117029Y24655D01*
X117037Y24660D01*
X117049Y24669D01*
X117066Y24682D01*
X117083Y24698D01*
X117100Y24716D01*
X117117Y24738D01*
X117130Y24762D01*
X117132Y24764D01*
X117134Y24772D01*
X117139Y24784D01*
X117144Y24801D01*
X117147Y24823D01*
X117152Y24850D01*
X117154Y24883D01*
X117156Y24918D01*
Y24976D01*
D02*
G37*
G36*
X7519Y21577D02*
X7215D01*
Y21190D01*
X7529D01*
X7555Y21192D01*
X7580Y21194D01*
X7607Y21195D01*
X7633Y21199D01*
X7653Y21204D01*
X7657Y21205D01*
X7663Y21207D01*
X7675Y21212D01*
X7689Y21219D01*
X7706Y21229D01*
X7721Y21239D01*
X7736Y21253D01*
X7750Y21268D01*
X7752Y21270D01*
X7755Y21277D01*
X7760Y21285D01*
X7767Y21299D01*
X7774Y21316D01*
X7779Y21334D01*
X7782Y21356D01*
X7784Y21380D01*
Y21384D01*
Y21390D01*
X7782Y21402D01*
X7780Y21418D01*
X7775Y21434D01*
X7770Y21453D01*
X7762Y21472D01*
X7752Y21490D01*
X7750Y21492D01*
X7747Y21499D01*
X7740Y21507D01*
X7730Y21518D01*
X7718Y21530D01*
X7702Y21540D01*
X7685Y21550D01*
X7665Y21558D01*
X7662Y21560D01*
X7655Y21562D01*
X7640Y21565D01*
X7619Y21569D01*
X7607Y21570D01*
X7592Y21572D01*
X7577D01*
X7560Y21574D01*
X7540Y21575D01*
X7519Y21577D01*
D02*
G37*
G36*
X5235Y19926D02*
X4869D01*
Y19468D01*
X5213D01*
X5225Y19470D01*
X5239D01*
X5254Y19471D01*
X5289Y19476D01*
X5327Y19483D01*
X5366Y19493D01*
X5401Y19509D01*
X5418Y19519D01*
X5432Y19529D01*
X5435Y19532D01*
X5442Y19541D01*
X5454Y19554D01*
X5468Y19573D01*
X5479Y19599D01*
X5491Y19627D01*
X5498Y19661D01*
X5502Y19700D01*
Y19702D01*
Y19704D01*
Y19714D01*
X5500Y19729D01*
X5496Y19748D01*
X5491Y19768D01*
X5485Y19792D01*
X5474Y19816D01*
X5461Y19838D01*
X5459Y19841D01*
X5454Y19848D01*
X5444Y19856D01*
X5432Y19868D01*
X5417Y19882D01*
X5398Y19894D01*
X5378Y19906D01*
X5354Y19914D01*
X5352D01*
X5345Y19916D01*
X5334Y19918D01*
X5318Y19921D01*
X5296Y19923D01*
X5267Y19924D01*
X5235Y19926D01*
D02*
G37*
G36*
X8539Y19616D02*
X8528D01*
X8520Y19614D01*
X8512D01*
X8500Y19612D01*
X8476Y19607D01*
X8447Y19599D01*
X8415Y19585D01*
X8384Y19566D01*
X8369Y19556D01*
X8355Y19543D01*
X8352Y19539D01*
X8344Y19529D01*
X8332Y19514D01*
X8318Y19492D01*
X8305Y19463D01*
X8291Y19431D01*
X8281Y19392D01*
X8276Y19349D01*
X8793D01*
Y19351D01*
Y19354D01*
X8791Y19361D01*
Y19368D01*
X8790Y19378D01*
X8786Y19388D01*
X8781Y19414D01*
X8773Y19442D01*
X8763Y19471D01*
X8751Y19500D01*
X8734Y19524D01*
Y19526D01*
X8730Y19527D01*
X8720Y19537D01*
X8703Y19553D01*
X8681Y19570D01*
X8652Y19587D01*
X8620Y19602D01*
X8581Y19612D01*
X8561Y19614D01*
X8539Y19616D01*
D02*
G37*
G36*
X7511Y21039D02*
X7215D01*
Y20598D01*
X7580D01*
X7618Y20600D01*
X7635Y20601D01*
X7650Y20603D01*
X7653D01*
X7660Y20605D01*
X7670Y20608D01*
X7684Y20612D01*
X7699Y20617D01*
X7714Y20622D01*
X7731Y20629D01*
X7747Y20637D01*
X7748Y20639D01*
X7753Y20642D01*
X7760Y20647D01*
X7770Y20656D01*
X7780Y20666D01*
X7792Y20678D01*
X7803Y20691D01*
X7813Y20708D01*
X7814Y20710D01*
X7816Y20717D01*
X7821Y20727D01*
X7826Y20741D01*
X7830Y20756D01*
X7835Y20774D01*
X7836Y20797D01*
X7838Y20819D01*
Y20822D01*
Y20830D01*
X7836Y20844D01*
X7833Y20861D01*
X7830Y20880D01*
X7823Y20902D01*
X7813Y20922D01*
X7801Y20942D01*
X7799Y20944D01*
X7794Y20951D01*
X7786Y20961D01*
X7774Y20971D01*
X7758Y20983D01*
X7741Y20997D01*
X7721Y21007D01*
X7697Y21017D01*
X7694Y21019D01*
X7685Y21020D01*
X7670Y21024D01*
X7650Y21029D01*
X7623Y21032D01*
X7592Y21036D01*
X7553Y21037D01*
X7511Y21039D01*
D02*
G37*
G36*
X112067Y25329D02*
X112055D01*
X112047Y25327D01*
X112037Y25325D01*
X112025Y25324D01*
X111998Y25319D01*
X111967Y25307D01*
X111935Y25291D01*
X111918Y25281D01*
X111901Y25269D01*
X111886Y25256D01*
X111871Y25241D01*
Y25239D01*
X111867Y25237D01*
X111864Y25232D01*
X111859Y25224D01*
X111854Y25215D01*
X111847Y25203D01*
X111840Y25190D01*
X111833Y25174D01*
X111825Y25156D01*
X111818Y25137D01*
X111811Y25115D01*
X111806Y25091D01*
X111801Y25066D01*
X111798Y25037D01*
X111796Y25006D01*
X111794Y24974D01*
Y24973D01*
Y24966D01*
Y24957D01*
X111796Y24945D01*
Y24930D01*
X111798Y24913D01*
X111801Y24894D01*
X111804Y24874D01*
X111813Y24832D01*
X111826Y24788D01*
X111845Y24745D01*
X111857Y24725D01*
X111871Y24708D01*
X111872Y24706D01*
X111874Y24704D01*
X111879Y24699D01*
X111884Y24694D01*
X111901Y24681D01*
X111925Y24664D01*
X111954Y24647D01*
X111986Y24633D01*
X112025Y24623D01*
X112045Y24621D01*
X112067Y24620D01*
X112079D01*
X112088Y24621D01*
X112096Y24623D01*
X112108Y24625D01*
X112135Y24631D01*
X112166Y24642D01*
X112200Y24657D01*
X112215Y24667D01*
X112232Y24679D01*
X112247Y24693D01*
X112262Y24708D01*
X112264Y24710D01*
X112266Y24711D01*
X112269Y24718D01*
X112274Y24725D01*
X112281Y24733D01*
X112288Y24745D01*
X112295Y24759D01*
X112302Y24776D01*
X112308Y24793D01*
X112315Y24813D01*
X112322Y24835D01*
X112329Y24859D01*
X112334Y24886D01*
X112337Y24915D01*
X112341Y24945D01*
Y24979D01*
Y24981D01*
Y24986D01*
Y24996D01*
X112339Y25008D01*
Y25022D01*
X112337Y25039D01*
X112334Y25056D01*
X112330Y25076D01*
X112322Y25118D01*
X112307Y25161D01*
X112288Y25203D01*
X112274Y25222D01*
X112261Y25239D01*
X112259Y25241D01*
X112257Y25242D01*
X112252Y25247D01*
X112247Y25252D01*
X112230Y25268D01*
X112208Y25285D01*
X112179Y25300D01*
X112147Y25315D01*
X112108Y25325D01*
X112089Y25327D01*
X112067Y25329D01*
D02*
G37*
G36*
X114249Y28205D02*
Y28202D01*
X114246Y28195D01*
X114242Y28182D01*
X114239Y28161D01*
X114235Y28137D01*
X114229Y28114D01*
X114222Y28083D01*
X114212Y28049D01*
X114191Y27971D01*
X114168Y27890D01*
X114140Y27802D01*
X114107Y27710D01*
X113828Y26960D01*
X114700D01*
X114432Y27669D01*
Y27673D01*
X114426Y27683D01*
X114422Y27700D01*
X114412Y27723D01*
X114402Y27751D01*
X114392Y27781D01*
X114378Y27819D01*
X114364Y27856D01*
X114334Y27941D01*
X114303Y28032D01*
X114276Y28121D01*
X114249Y28205D01*
D02*
G37*
G36*
X6248Y19614D02*
X6236D01*
X6228Y19612D01*
X6218Y19610D01*
X6206Y19609D01*
X6179Y19604D01*
X6148Y19592D01*
X6116Y19576D01*
X6099Y19566D01*
X6082Y19554D01*
X6067Y19541D01*
X6051Y19526D01*
Y19524D01*
X6048Y19522D01*
X6044Y19517D01*
X6039Y19509D01*
X6034Y19500D01*
X6028Y19488D01*
X6021Y19475D01*
X6014Y19459D01*
X6005Y19441D01*
X5999Y19422D01*
X5992Y19400D01*
X5987Y19376D01*
X5982Y19351D01*
X5978Y19322D01*
X5977Y19291D01*
X5975Y19259D01*
Y19258D01*
Y19251D01*
Y19242D01*
X5977Y19230D01*
Y19215D01*
X5978Y19198D01*
X5982Y19179D01*
X5985Y19159D01*
X5994Y19117D01*
X6007Y19073D01*
X6026Y19030D01*
X6038Y19010D01*
X6051Y18993D01*
X6053Y18991D01*
X6055Y18989D01*
X6060Y18984D01*
X6065Y18979D01*
X6082Y18966D01*
X6106Y18949D01*
X6134Y18932D01*
X6167Y18918D01*
X6206Y18908D01*
X6226Y18906D01*
X6248Y18905D01*
X6260D01*
X6268Y18906D01*
X6277Y18908D01*
X6289Y18910D01*
X6316Y18916D01*
X6347Y18927D01*
X6380Y18942D01*
X6396Y18952D01*
X6413Y18964D01*
X6428Y18978D01*
X6443Y18993D01*
X6445Y18995D01*
X6447Y18996D01*
X6450Y19003D01*
X6455Y19010D01*
X6462Y19018D01*
X6469Y19030D01*
X6475Y19044D01*
X6482Y19061D01*
X6489Y19078D01*
X6496Y19098D01*
X6503Y19120D01*
X6509Y19144D01*
X6514Y19171D01*
X6518Y19200D01*
X6521Y19230D01*
Y19264D01*
Y19266D01*
Y19271D01*
Y19281D01*
X6520Y19293D01*
Y19307D01*
X6518Y19324D01*
X6514Y19341D01*
X6511Y19361D01*
X6503Y19403D01*
X6487Y19446D01*
X6469Y19488D01*
X6455Y19507D01*
X6442Y19524D01*
X6440Y19526D01*
X6438Y19527D01*
X6433Y19532D01*
X6428Y19537D01*
X6411Y19553D01*
X6389Y19570D01*
X6360Y19585D01*
X6328Y19600D01*
X6289Y19610D01*
X6270Y19612D01*
X6248Y19614D01*
D02*
G37*
G36*
X6710Y18302D02*
X6693D01*
X6680Y18300D01*
X6664Y18299D01*
X6646Y18295D01*
X6625Y18292D01*
X6603Y18287D01*
X6580Y18280D01*
X6554Y18272D01*
X6529Y18261D01*
X6503Y18250D01*
X6476Y18236D01*
X6451Y18219D01*
X6425Y18200D01*
X6400Y18178D01*
X6398Y18177D01*
X6395Y18173D01*
X6388Y18165D01*
X6379Y18155D01*
X6369Y18141D01*
X6359Y18124D01*
X6347Y18104D01*
X6335Y18080D01*
X6323Y18053D01*
X6311Y18022D01*
X6301Y17988D01*
X6291Y17951D01*
X6283Y17910D01*
X6276Y17866D01*
X6272Y17817D01*
X6271Y17764D01*
Y17761D01*
Y17754D01*
X6272Y17742D01*
Y17727D01*
X6274Y17707D01*
X6278Y17685D01*
X6281Y17659D01*
X6286Y17632D01*
X6293Y17603D01*
X6301Y17574D01*
X6311Y17544D01*
X6323Y17513D01*
X6337Y17483D01*
X6354Y17454D01*
X6373Y17425D01*
X6395Y17400D01*
X6396Y17398D01*
X6400Y17394D01*
X6406Y17388D01*
X6417Y17379D01*
X6429Y17369D01*
X6444Y17357D01*
X6461Y17345D01*
X6479Y17333D01*
X6502Y17321D01*
X6525Y17310D01*
X6551Y17298D01*
X6578Y17288D01*
X6608Y17279D01*
X6639Y17272D01*
X6673Y17269D01*
X6707Y17267D01*
X6715D01*
X6725Y17269D01*
X6739D01*
X6754Y17271D01*
X6775Y17274D01*
X6795Y17279D01*
X6819Y17284D01*
X6843Y17291D01*
X6868Y17299D01*
X6895Y17311D01*
X6921Y17323D01*
X6948Y17338D01*
X6973Y17357D01*
X6999Y17377D01*
X7022Y17401D01*
X7024Y17403D01*
X7028Y17408D01*
X7034Y17415D01*
X7041Y17427D01*
X7051Y17440D01*
X7061Y17457D01*
X7073Y17476D01*
X7085Y17500D01*
X7095Y17525D01*
X7107Y17554D01*
X7117Y17584D01*
X7128Y17618D01*
X7134Y17656D01*
X7141Y17695D01*
X7145Y17737D01*
X7146Y17783D01*
Y17785D01*
Y17790D01*
Y17798D01*
Y17808D01*
X7145Y17822D01*
X7143Y17839D01*
X7141Y17856D01*
X7139Y17876D01*
X7133Y17919D01*
X7124Y17965D01*
X7111Y18010D01*
X7092Y18056D01*
Y18058D01*
X7090Y18061D01*
X7087Y18068D01*
X7082Y18075D01*
X7077Y18085D01*
X7070Y18097D01*
X7053Y18122D01*
X7031Y18151D01*
X7005Y18182D01*
X6973Y18212D01*
X6938Y18238D01*
X6936D01*
X6932Y18241D01*
X6927Y18244D01*
X6921Y18248D01*
X6910Y18253D01*
X6899Y18258D01*
X6885Y18263D01*
X6871Y18270D01*
X6837Y18282D01*
X6798Y18292D01*
X6756Y18299D01*
X6710Y18302D01*
D02*
G37*
G36*
X9783Y17963D02*
X9771D01*
X9763Y17961D01*
X9752Y17959D01*
X9741Y17958D01*
X9713Y17953D01*
X9683Y17941D01*
X9651Y17925D01*
X9634Y17915D01*
X9617Y17903D01*
X9601Y17890D01*
X9586Y17875D01*
Y17873D01*
X9583Y17871D01*
X9579Y17866D01*
X9574Y17858D01*
X9569Y17849D01*
X9562Y17837D01*
X9556Y17824D01*
X9549Y17808D01*
X9540Y17790D01*
X9534Y17771D01*
X9527Y17749D01*
X9522Y17725D01*
X9517Y17700D01*
X9513Y17671D01*
X9512Y17640D01*
X9510Y17608D01*
Y17607D01*
Y17600D01*
Y17591D01*
X9512Y17579D01*
Y17564D01*
X9513Y17547D01*
X9517Y17528D01*
X9520Y17508D01*
X9528Y17466D01*
X9542Y17422D01*
X9561Y17379D01*
X9573Y17359D01*
X9586Y17342D01*
X9588Y17340D01*
X9590Y17338D01*
X9595Y17333D01*
X9600Y17328D01*
X9617Y17315D01*
X9640Y17298D01*
X9669Y17281D01*
X9702Y17267D01*
X9741Y17257D01*
X9761Y17255D01*
X9783Y17254D01*
X9795D01*
X9803Y17255D01*
X9812Y17257D01*
X9824Y17259D01*
X9851Y17265D01*
X9881Y17276D01*
X9915Y17291D01*
X9931Y17301D01*
X9948Y17313D01*
X9963Y17327D01*
X9978Y17342D01*
X9980Y17344D01*
X9981Y17345D01*
X9985Y17352D01*
X9990Y17359D01*
X9997Y17367D01*
X10004Y17379D01*
X10010Y17393D01*
X10017Y17410D01*
X10024Y17427D01*
X10031Y17447D01*
X10037Y17469D01*
X10044Y17493D01*
X10049Y17520D01*
X10053Y17549D01*
X10056Y17579D01*
Y17613D01*
Y17615D01*
Y17620D01*
Y17630D01*
X10054Y17642D01*
Y17656D01*
X10053Y17673D01*
X10049Y17690D01*
X10046Y17710D01*
X10037Y17752D01*
X10022Y17795D01*
X10004Y17837D01*
X9990Y17856D01*
X9976Y17873D01*
X9975Y17875D01*
X9973Y17876D01*
X9968Y17881D01*
X9963Y17886D01*
X9946Y17902D01*
X9924Y17919D01*
X9895Y17934D01*
X9863Y17949D01*
X9824Y17959D01*
X9805Y17961D01*
X9783Y17963D01*
D02*
G37*
G36*
X113082Y25336D02*
X113072D01*
X113065Y25334D01*
X113046Y25331D01*
X113023Y25324D01*
X112994Y25312D01*
X112965Y25295D01*
X112950Y25285D01*
X112934Y25273D01*
X112919Y25258D01*
X112904Y25241D01*
Y25239D01*
X112900Y25236D01*
X112897Y25230D01*
X112892Y25224D01*
X112887Y25213D01*
X112880Y25202D01*
X112873Y25188D01*
X112867Y25171D01*
X112858Y25154D01*
X112851Y25134D01*
X112844Y25112D01*
X112839Y25086D01*
X112834Y25061D01*
X112831Y25032D01*
X112829Y25001D01*
X112827Y24969D01*
Y24967D01*
Y24961D01*
Y24952D01*
X112829Y24940D01*
Y24925D01*
X112831Y24908D01*
X112834Y24889D01*
X112836Y24869D01*
X112844Y24825D01*
X112858Y24782D01*
X112875Y24740D01*
X112887Y24721D01*
X112899Y24704D01*
X112900Y24703D01*
X112902Y24701D01*
X112912Y24691D01*
X112928Y24677D01*
X112948Y24662D01*
X112973Y24647D01*
X113004Y24633D01*
X113038Y24623D01*
X113057Y24621D01*
X113075Y24620D01*
X113085D01*
X113092Y24621D01*
X113113Y24625D01*
X113136Y24631D01*
X113163Y24642D01*
X113194Y24657D01*
X113209Y24667D01*
X113225Y24679D01*
X113240Y24693D01*
X113253Y24708D01*
X113255Y24710D01*
X113257Y24711D01*
X113260Y24718D01*
X113265Y24725D01*
X113270Y24733D01*
X113277Y24745D01*
X113284Y24759D01*
X113292Y24776D01*
X113299Y24793D01*
X113306Y24813D01*
X113313Y24835D01*
X113318Y24861D01*
X113323Y24888D01*
X113326Y24917D01*
X113330Y24947D01*
Y24981D01*
Y24983D01*
Y24989D01*
Y24998D01*
X113328Y25010D01*
Y25025D01*
X113326Y25042D01*
X113323Y25061D01*
X113321Y25081D01*
X113313Y25125D01*
X113299Y25169D01*
X113281Y25210D01*
X113270Y25230D01*
X113257Y25247D01*
Y25249D01*
X113253Y25251D01*
X113243Y25261D01*
X113228Y25275D01*
X113208Y25291D01*
X113182Y25308D01*
X113152Y25322D01*
X113119Y25332D01*
X113101Y25334D01*
X113082Y25336D01*
D02*
G37*
G36*
X114950Y25329D02*
X114938D01*
X114930Y25327D01*
X114920Y25325D01*
X114908Y25324D01*
X114881Y25319D01*
X114850Y25307D01*
X114818Y25291D01*
X114801Y25281D01*
X114784Y25269D01*
X114769Y25256D01*
X114753Y25241D01*
Y25239D01*
X114750Y25237D01*
X114746Y25232D01*
X114741Y25224D01*
X114736Y25215D01*
X114730Y25203D01*
X114723Y25190D01*
X114716Y25174D01*
X114707Y25156D01*
X114701Y25137D01*
X114694Y25115D01*
X114689Y25091D01*
X114684Y25066D01*
X114680Y25037D01*
X114679Y25006D01*
X114677Y24974D01*
Y24973D01*
Y24966D01*
Y24957D01*
X114679Y24945D01*
Y24930D01*
X114680Y24913D01*
X114684Y24894D01*
X114687Y24874D01*
X114696Y24832D01*
X114709Y24788D01*
X114728Y24745D01*
X114740Y24725D01*
X114753Y24708D01*
X114755Y24706D01*
X114757Y24704D01*
X114762Y24699D01*
X114767Y24694D01*
X114784Y24681D01*
X114808Y24664D01*
X114836Y24647D01*
X114869Y24633D01*
X114908Y24623D01*
X114928Y24621D01*
X114950Y24620D01*
X114962D01*
X114970Y24621D01*
X114979Y24623D01*
X114991Y24625D01*
X115018Y24631D01*
X115049Y24642D01*
X115082Y24657D01*
X115098Y24667D01*
X115115Y24679D01*
X115130Y24693D01*
X115145Y24708D01*
X115147Y24710D01*
X115149Y24711D01*
X115152Y24718D01*
X115157Y24725D01*
X115164Y24733D01*
X115171Y24745D01*
X115177Y24759D01*
X115184Y24776D01*
X115191Y24793D01*
X115198Y24813D01*
X115205Y24835D01*
X115211Y24859D01*
X115216Y24886D01*
X115220Y24915D01*
X115223Y24945D01*
Y24979D01*
Y24981D01*
Y24986D01*
Y24996D01*
X115222Y25008D01*
Y25022D01*
X115220Y25039D01*
X115216Y25056D01*
X115213Y25076D01*
X115205Y25118D01*
X115189Y25161D01*
X115171Y25203D01*
X115157Y25222D01*
X115144Y25239D01*
X115142Y25241D01*
X115140Y25242D01*
X115135Y25247D01*
X115130Y25252D01*
X115113Y25268D01*
X115091Y25285D01*
X115062Y25300D01*
X115030Y25315D01*
X114991Y25325D01*
X114972Y25327D01*
X114950Y25329D01*
D02*
G37*
G36*
X7915Y17970D02*
X7905D01*
X7898Y17968D01*
X7879Y17965D01*
X7856Y17958D01*
X7827Y17946D01*
X7798Y17929D01*
X7783Y17919D01*
X7767Y17907D01*
X7752Y17892D01*
X7737Y17875D01*
Y17873D01*
X7733Y17869D01*
X7730Y17864D01*
X7725Y17858D01*
X7720Y17847D01*
X7713Y17836D01*
X7706Y17822D01*
X7699Y17805D01*
X7691Y17788D01*
X7684Y17768D01*
X7677Y17746D01*
X7672Y17720D01*
X7667Y17695D01*
X7664Y17666D01*
X7662Y17635D01*
X7660Y17603D01*
Y17601D01*
Y17595D01*
Y17586D01*
X7662Y17574D01*
Y17559D01*
X7664Y17542D01*
X7667Y17523D01*
X7669Y17503D01*
X7677Y17459D01*
X7691Y17416D01*
X7708Y17374D01*
X7720Y17355D01*
X7732Y17338D01*
X7733Y17337D01*
X7735Y17335D01*
X7745Y17325D01*
X7760Y17311D01*
X7781Y17296D01*
X7806Y17281D01*
X7837Y17267D01*
X7871Y17257D01*
X7889Y17255D01*
X7908Y17254D01*
X7918D01*
X7925Y17255D01*
X7945Y17259D01*
X7969Y17265D01*
X7996Y17276D01*
X8027Y17291D01*
X8042Y17301D01*
X8057Y17313D01*
X8073Y17327D01*
X8086Y17342D01*
X8088Y17344D01*
X8090Y17345D01*
X8093Y17352D01*
X8098Y17359D01*
X8103Y17367D01*
X8110Y17379D01*
X8117Y17393D01*
X8125Y17410D01*
X8132Y17427D01*
X8139Y17447D01*
X8146Y17469D01*
X8151Y17495D01*
X8156Y17522D01*
X8159Y17551D01*
X8163Y17581D01*
Y17615D01*
Y17617D01*
Y17623D01*
Y17632D01*
X8161Y17644D01*
Y17659D01*
X8159Y17676D01*
X8156Y17695D01*
X8154Y17715D01*
X8146Y17759D01*
X8132Y17803D01*
X8113Y17844D01*
X8103Y17864D01*
X8090Y17881D01*
Y17883D01*
X8086Y17885D01*
X8076Y17895D01*
X8061Y17909D01*
X8040Y17925D01*
X8015Y17942D01*
X7984Y17956D01*
X7952Y17966D01*
X7934Y17968D01*
X7915Y17970D01*
D02*
G37*
%LPD*%
D11*
X102552Y15969D02*
X101219D01*
Y13970D01*
X102552D01*
X101219Y14970D02*
X101885D01*
X103552Y15636D02*
Y15303D01*
X103218D01*
X103885D01*
X103552D01*
Y14303D01*
X103885Y13970D01*
X104884Y15969D02*
Y13970D01*
Y14970D01*
X105218Y15303D01*
X105884D01*
X106217Y14970D01*
Y13970D01*
X107884D02*
X107217D01*
X106884Y14303D01*
Y14970D01*
X107217Y15303D01*
X107884D01*
X108217Y14970D01*
Y14636D01*
X106884D01*
X108883Y15303D02*
Y13970D01*
Y14636D01*
X109216Y14970D01*
X109550Y15303D01*
X109883D01*
X110883Y13970D02*
Y15303D01*
X111882D01*
X112215Y14970D01*
Y13970D01*
X113882D02*
X113215D01*
X112882Y14303D01*
Y14970D01*
X113215Y15303D01*
X113882D01*
X114215Y14970D01*
Y14636D01*
X112882D01*
X115214Y15636D02*
Y15303D01*
X114881D01*
X115548D01*
X115214D01*
Y14303D01*
X115548Y13970D01*
X16090Y13208D02*
Y15207D01*
X16756Y14541D01*
X17423Y15207D01*
Y13208D01*
X18089Y15207D02*
X18756D01*
X18423D01*
Y13208D01*
X18089D01*
X18756D01*
X19755Y15207D02*
Y13208D01*
X20755D01*
X21088Y13541D01*
Y14874D01*
X20755Y15207D01*
X19755D01*
X21755D02*
X22421D01*
X22088D01*
Y13208D01*
X21755D01*
X22421D01*
X25420Y15207D02*
X26087D01*
X25754D01*
Y13208D01*
X25420D01*
X26087D01*
X27086D02*
Y15207D01*
X28419Y13208D01*
Y15207D01*
X29086Y13208D02*
X29752D01*
X29419D01*
Y15207D01*
X29086Y14874D01*
X57492Y13208D02*
Y15207D01*
X58158Y14541D01*
X58825Y15207D01*
Y13208D01*
X59491Y15207D02*
X60158D01*
X59825D01*
Y13208D01*
X59491D01*
X60158D01*
X61157Y15207D02*
Y13208D01*
X62157D01*
X62490Y13541D01*
Y14874D01*
X62157Y15207D01*
X61157D01*
X63157D02*
X63823D01*
X63490D01*
Y13208D01*
X63157D01*
X63823D01*
X66822Y15207D02*
X67489D01*
X67156D01*
Y13208D01*
X66822D01*
X67489D01*
X68488D02*
Y15207D01*
X69821Y13208D01*
Y15207D01*
X71821Y13208D02*
X70488D01*
X71821Y14541D01*
Y14874D01*
X71487Y15207D01*
X70821D01*
X70488Y14874D01*
X37299Y13208D02*
Y15207D01*
X37965Y14541D01*
X38632Y15207D01*
Y13208D01*
X39298Y15207D02*
X39965D01*
X39632D01*
Y13208D01*
X39298D01*
X39965D01*
X40964Y15207D02*
Y13208D01*
X41964D01*
X42297Y13541D01*
Y14874D01*
X41964Y15207D01*
X40964D01*
X42964D02*
X43630D01*
X43297D01*
Y13208D01*
X42964D01*
X43630D01*
X47629Y15207D02*
X46963D01*
X46629Y14874D01*
Y13541D01*
X46963Y13208D01*
X47629D01*
X47962Y13541D01*
Y14874D01*
X47629Y15207D01*
X48629D02*
Y13541D01*
X48962Y13208D01*
X49628D01*
X49962Y13541D01*
Y15207D01*
X50628D02*
X51961D01*
X51294D01*
Y13208D01*
X52627D02*
X53294D01*
X52961D01*
Y15207D01*
X52627Y14874D01*
X77179Y13208D02*
Y15207D01*
X77845Y14541D01*
X78512Y15207D01*
Y13208D01*
X79178Y15207D02*
X79845D01*
X79512D01*
Y13208D01*
X79178D01*
X79845D01*
X80844Y15207D02*
Y13208D01*
X81844D01*
X82177Y13541D01*
Y14874D01*
X81844Y15207D01*
X80844D01*
X82844D02*
X83510D01*
X83177D01*
Y13208D01*
X82844D01*
X83510D01*
X87509Y15207D02*
X86843D01*
X86509Y14874D01*
Y13541D01*
X86843Y13208D01*
X87509D01*
X87842Y13541D01*
Y14874D01*
X87509Y15207D01*
X88509D02*
Y13541D01*
X88842Y13208D01*
X89508D01*
X89842Y13541D01*
Y15207D01*
X90508D02*
X91841D01*
X91174D01*
Y13208D01*
X93840D02*
X92507D01*
X93840Y14541D01*
Y14874D01*
X93507Y15207D01*
X92841D01*
X92507Y14874D01*
D14*
X50784Y90952D02*
G03*
X50784Y90932I-1000J-20D01*
G01*
X12684Y90952D02*
G03*
X12684Y90932I-1000J-20D01*
G01*
X16006Y-3750D02*
X37006D01*
Y12250D01*
X16006Y-3750D02*
Y12250D01*
X20256D01*
X22756D02*
X30256D01*
X32756D02*
X37006D01*
X53330D02*
X57580D01*
X43330D02*
X50830D01*
X36580D02*
X40830D01*
X36580Y-3750D02*
Y12250D01*
X57580Y-3750D02*
Y12250D01*
X36580Y-3750D02*
X57580D01*
X57154D02*
X78154D01*
Y12250D01*
X57154Y-3750D02*
Y12250D01*
X61404D01*
X63904D02*
X71404D01*
X73904D02*
X78154D01*
X94478D02*
X98728D01*
X84478D02*
X91978D01*
X77728D02*
X81978D01*
X77728Y-3750D02*
Y12250D01*
X98728Y-3750D02*
Y12250D01*
X77728Y-3750D02*
X98728D01*
X111671Y21393D02*
X111271D01*
X111471D01*
Y20393D01*
X111271Y20193D01*
X111071D01*
X110871Y20393D01*
X112071Y20193D02*
X112470D01*
X112271D01*
Y21393D01*
X112071Y21193D01*
X113070D02*
X113270Y21393D01*
X113670D01*
X113870Y21193D01*
Y20993D01*
X113670Y20793D01*
X113870Y20593D01*
Y20393D01*
X113670Y20193D01*
X113270D01*
X113070Y20393D01*
Y20593D01*
X113270Y20793D01*
X113070Y20993D01*
Y21193D01*
X113270Y20793D02*
X113670D01*
X57823Y76892D02*
X57423D01*
X57623D01*
Y75892D01*
X57423Y75692D01*
X57223D01*
X57023Y75892D01*
X58822Y75692D02*
Y76892D01*
X58223Y76292D01*
X59022D01*
X59422Y75692D02*
Y76492D01*
X59822Y76892D01*
X60222Y76492D01*
Y75692D01*
Y76292D01*
X59422D01*
X21247Y60509D02*
X20847D01*
X21047D01*
Y59509D01*
X20847Y59309D01*
X20647D01*
X20447Y59509D01*
X21647Y59309D02*
X22046D01*
X21847D01*
Y60509D01*
X21647Y60309D01*
X23446Y60509D02*
X22646D01*
Y59909D01*
X23046Y60109D01*
X23246D01*
X23446Y59909D01*
Y59509D01*
X23246Y59309D01*
X22846D01*
X22646Y59509D01*
X23846Y59109D02*
X24646D01*
X25845Y60309D02*
X25645Y60509D01*
X25245D01*
X25046Y60309D01*
Y60109D01*
X25245Y59909D01*
X25645D01*
X25845Y59709D01*
Y59509D01*
X25645Y59309D01*
X25245D01*
X25046Y59509D01*
X38138Y28378D02*
X37738D01*
X37938D01*
Y27378D01*
X37738Y27178D01*
X37538D01*
X37338Y27378D01*
X38538Y27178D02*
X38937D01*
X38738D01*
Y28378D01*
X38538Y28178D01*
X40337Y28378D02*
X39937Y28178D01*
X39537Y27778D01*
Y27378D01*
X39737Y27178D01*
X40137D01*
X40337Y27378D01*
Y27578D01*
X40137Y27778D01*
X39537D01*
X29502Y48571D02*
X29102D01*
X29302D01*
Y47571D01*
X29102Y47371D01*
X28902D01*
X28702Y47571D01*
X30701Y47371D02*
X29902D01*
X30701Y48171D01*
Y48371D01*
X30501Y48571D01*
X30102D01*
X29902Y48371D01*
X31101D02*
X31301Y48571D01*
X31701D01*
X31901Y48371D01*
Y48171D01*
X31701Y47971D01*
X31901Y47771D01*
Y47571D01*
X31701Y47371D01*
X31301D01*
X31101Y47571D01*
Y47771D01*
X31301Y47971D01*
X31101Y48171D01*
Y48371D01*
X31301Y47971D02*
X31701D01*
X63792Y86290D02*
X63392D01*
X63592D01*
Y85290D01*
X63392Y85090D01*
X63192D01*
X62992Y85290D01*
X64991Y86290D02*
X64192D01*
Y85690D01*
X64591Y85890D01*
X64791D01*
X64991Y85690D01*
Y85290D01*
X64791Y85090D01*
X64392D01*
X64192Y85290D01*
X65391Y86290D02*
Y85090D01*
X65991D01*
X66191Y85290D01*
Y85490D01*
X65991Y85690D01*
X65391D01*
X65991D01*
X66191Y85890D01*
Y86090D01*
X65991Y86290D01*
X65391D01*
X71666Y75241D02*
X71266D01*
X71466D01*
Y74241D01*
X71266Y74041D01*
X71066D01*
X70866Y74241D01*
X72865Y75241D02*
X72066D01*
Y74641D01*
X72465Y74841D01*
X72665D01*
X72865Y74641D01*
Y74241D01*
X72665Y74041D01*
X72266D01*
X72066Y74241D01*
X73265Y74041D02*
Y74841D01*
X73665Y75241D01*
X74065Y74841D01*
Y74041D01*
Y74641D01*
X73265D01*
X88430Y86036D02*
X88030D01*
X88230D01*
Y85036D01*
X88030Y84836D01*
X87830D01*
X87630Y85036D01*
X88830Y84836D02*
X89229D01*
X89030D01*
Y86036D01*
X88830Y85836D01*
X89829Y85036D02*
X90029Y84836D01*
X90429D01*
X90629Y85036D01*
Y85836D01*
X90429Y86036D01*
X90029D01*
X89829Y85836D01*
Y85636D01*
X90029Y85436D01*
X90629D01*
X105067Y85909D02*
X104667D01*
X104867D01*
Y84909D01*
X104667Y84709D01*
X104467D01*
X104267Y84909D01*
X105467Y85709D02*
X105667Y85909D01*
X106066D01*
X106266Y85709D01*
Y85509D01*
X106066Y85309D01*
X106266Y85109D01*
Y84909D01*
X106066Y84709D01*
X105667D01*
X105467Y84909D01*
Y85109D01*
X105667Y85309D01*
X105467Y85509D01*
Y85709D01*
X105667Y85309D02*
X106066D01*
X106666Y84709D02*
X107466Y85509D01*
X107866Y84909D02*
X108066Y84709D01*
X108466D01*
X108666Y84909D01*
Y85709D01*
X108466Y85909D01*
X108066D01*
X107866Y85709D01*
Y85509D01*
X108066Y85309D01*
X108666D01*
X83058Y75976D02*
X83491D01*
X83275D01*
Y74676D01*
X83058D01*
X83491D01*
X85007Y75759D02*
X84791Y75976D01*
X84358D01*
X84141Y75759D01*
Y74893D01*
X84358Y74676D01*
X84791D01*
X85007Y74893D01*
X85441Y74676D02*
X85874D01*
X85657D01*
Y75976D01*
X85441Y75759D01*
X32385Y28224D02*
X32818D01*
X32602D01*
Y26924D01*
X32385D01*
X32818D01*
X34334Y28007D02*
X34118Y28224D01*
X33685D01*
X33468Y28007D01*
Y27141D01*
X33685Y26924D01*
X34118D01*
X34334Y27141D01*
X35417Y26924D02*
Y28224D01*
X34768Y27574D01*
X35634D01*
X67691Y28605D02*
X68124D01*
X67908D01*
Y27305D01*
X67691D01*
X68124D01*
X69640Y28388D02*
X69424Y28605D01*
X68991D01*
X68774Y28388D01*
Y27522D01*
X68991Y27305D01*
X69424D01*
X69640Y27522D01*
X70940Y28605D02*
X70074D01*
Y27955D01*
X70507Y28171D01*
X70723D01*
X70940Y27955D01*
Y27522D01*
X70723Y27305D01*
X70290D01*
X70074Y27522D01*
X84418Y6638D02*
X83910D01*
X84164D01*
Y5368D01*
X83910Y5114D01*
X83656D01*
X83402Y5368D01*
X85941Y5114D02*
X84926D01*
X85941Y6130D01*
Y6384D01*
X85687Y6638D01*
X85179D01*
X84926Y6384D01*
X86449D02*
X86703Y6638D01*
X87211D01*
X87465Y6384D01*
Y5368D01*
X87211Y5114D01*
X86703D01*
X86449Y5368D01*
Y6384D01*
X43143Y7019D02*
X42635D01*
X42889D01*
Y5749D01*
X42635Y5495D01*
X42381D01*
X42127Y5749D01*
X43651Y5495D02*
X44158D01*
X43904D01*
Y7019D01*
X43651Y6765D01*
X45936Y5495D02*
X44920D01*
X45936Y6511D01*
Y6765D01*
X45682Y7019D01*
X45174D01*
X44920Y6765D01*
X23077Y6892D02*
X22569D01*
X22823D01*
Y5622D01*
X22569Y5368D01*
X22315D01*
X22061Y5622D01*
X23585Y5368D02*
X24092D01*
X23838D01*
Y6892D01*
X23585Y6638D01*
X24854D02*
X25108Y6892D01*
X25616D01*
X25870Y6638D01*
Y6384D01*
X25616Y6130D01*
X25362D01*
X25616D01*
X25870Y5876D01*
Y5622D01*
X25616Y5368D01*
X25108D01*
X24854Y5622D01*
X64225Y6765D02*
X63717D01*
X63971D01*
Y5495D01*
X63717Y5241D01*
X63463D01*
X63209Y5495D01*
X65748Y5241D02*
X64733D01*
X65748Y6257D01*
Y6511D01*
X65494Y6765D01*
X64986D01*
X64733Y6511D01*
X66256Y5241D02*
X66764D01*
X66510D01*
Y6765D01*
X66256Y6511D01*
X15113Y18161D02*
X14605D01*
X14859D01*
Y16891D01*
X14605Y16637D01*
X14351D01*
X14097Y16891D01*
X15621Y16637D02*
X16128D01*
X15874D01*
Y18161D01*
X15621Y17907D01*
X16890Y18161D02*
X17906D01*
Y17907D01*
X16890Y16891D01*
Y16637D01*
X-889Y14605D02*
Y13335D01*
X-635Y13081D01*
X-127D01*
X127Y13335D01*
Y14605D01*
X1650Y14351D02*
X1396Y14605D01*
X888D01*
X635Y14351D01*
Y14097D01*
X888Y13843D01*
X1396D01*
X1650Y13589D01*
Y13335D01*
X1396Y13081D01*
X888D01*
X635Y13335D01*
X2158Y14605D02*
Y13081D01*
X2920D01*
X3174Y13335D01*
Y13589D01*
X2920Y13843D01*
X2158D01*
X2920D01*
X3174Y14097D01*
Y14351D01*
X2920Y14605D01*
X2158D01*
X111625Y75946D02*
Y74676D01*
X111879Y74422D01*
X112386D01*
X112640Y74676D01*
Y75946D01*
X113148Y74422D02*
X113656D01*
X113402D01*
Y75946D01*
X113148Y75692D01*
X104305Y28251D02*
X103905D01*
X104105D01*
Y27251D01*
X103905Y27051D01*
X103705D01*
X103505Y27251D01*
X104705Y28051D02*
X104905Y28251D01*
X105304D01*
X105504Y28051D01*
Y27851D01*
X105304Y27651D01*
X105104D01*
X105304D01*
X105504Y27451D01*
Y27251D01*
X105304Y27051D01*
X104905D01*
X104705Y27251D01*
X60617Y28505D02*
X60217D01*
X60417D01*
Y27505D01*
X60217Y27305D01*
X60017D01*
X59817Y27505D01*
X61017Y27305D02*
X61416D01*
X61217D01*
Y28505D01*
X61017Y28305D01*
X62016D02*
X62216Y28505D01*
X62616D01*
X62816Y28305D01*
Y27505D01*
X62616Y27305D01*
X62216D01*
X62016Y27505D01*
Y28305D01*
X41656Y75976D02*
X42089D01*
X41873D01*
Y74676D01*
X41656D01*
X42089D01*
X43605Y75759D02*
X43389Y75976D01*
X42956D01*
X42739Y75759D01*
Y74893D01*
X42956Y74676D01*
X43389D01*
X43605Y74893D01*
X44905Y74676D02*
X44039D01*
X44905Y75542D01*
Y75759D01*
X44688Y75976D01*
X44255D01*
X44039Y75759D01*
X46012Y86544D02*
X45612D01*
X45812D01*
Y85544D01*
X45612Y85344D01*
X45412D01*
X45212Y85544D01*
X46412Y85344D02*
X46811D01*
X46612D01*
Y86544D01*
X46412Y86344D01*
X48211Y86544D02*
X47411D01*
Y85944D01*
X47811Y86144D01*
X48011D01*
X48211Y85944D01*
Y85544D01*
X48011Y85344D01*
X47611D01*
X47411Y85544D01*
X48611Y85344D02*
Y86144D01*
X49011Y86544D01*
X49411Y86144D01*
Y85344D01*
Y85944D01*
X48611D01*
X29756Y76638D02*
X29356D01*
X29556D01*
Y75638D01*
X29356Y75438D01*
X29156D01*
X28956Y75638D01*
X30156Y75438D02*
X30555D01*
X30356D01*
Y76638D01*
X30156Y76438D01*
X31955Y76638D02*
X31155D01*
Y76038D01*
X31555Y76238D01*
X31755D01*
X31955Y76038D01*
Y75638D01*
X31755Y75438D01*
X31355D01*
X31155Y75638D01*
X32355Y76638D02*
Y75438D01*
X32955D01*
X33155Y75638D01*
Y75838D01*
X32955Y76038D01*
X32355D01*
X32955D01*
X33155Y76238D01*
Y76438D01*
X32955Y76638D01*
X32355D01*
X33820Y60509D02*
X33420D01*
X33620D01*
Y59509D01*
X33420Y59309D01*
X33220D01*
X33020Y59509D01*
X35019Y59309D02*
X34220D01*
X35019Y60109D01*
Y60309D01*
X34819Y60509D01*
X34420D01*
X34220Y60309D01*
X35419Y60509D02*
X36219D01*
Y60309D01*
X35419Y59509D01*
Y59309D01*
X10414Y84836D02*
Y86360D01*
X11176D01*
X11430Y86106D01*
Y85598D01*
X11176Y85344D01*
X10414D01*
X11938Y84836D02*
X12445D01*
X12191D01*
Y86360D01*
X11938Y86106D01*
X50038Y84709D02*
Y86233D01*
X50800D01*
X51054Y85979D01*
Y85471D01*
X50800Y85217D01*
X50038D01*
X52577Y84709D02*
X51562D01*
X52577Y85725D01*
Y85979D01*
X52323Y86233D01*
X51815D01*
X51562Y85979D01*
X5715Y85344D02*
X6731D01*
X6223D01*
Y83820D01*
X7239D02*
X7746D01*
X7492D01*
Y85344D01*
X7239Y85090D01*
X6007Y77581D02*
X5807Y77781D01*
X5407D01*
X5207Y77581D01*
Y76781D01*
X5407Y76581D01*
X5807D01*
X6007Y76781D01*
X6407Y76581D02*
X6806D01*
X6607D01*
Y77781D01*
X6407Y77581D01*
X8206Y76581D02*
X7406D01*
X8206Y77381D01*
Y77581D01*
X8006Y77781D01*
X7606D01*
X7406Y77581D01*
X-635Y35052D02*
X-127D01*
X-381D01*
Y33528D01*
X-635D01*
X-127D01*
X1650Y34798D02*
X1396Y35052D01*
X889D01*
X635Y34798D01*
Y33782D01*
X889Y33528D01*
X1396D01*
X1650Y33782D01*
X3174Y35052D02*
X2666Y34798D01*
X2158Y34290D01*
Y33782D01*
X2412Y33528D01*
X2920D01*
X3174Y33782D01*
Y34036D01*
X2920Y34290D01*
X2158D01*
X-1105Y69501D02*
X-597D01*
X-851D01*
Y67977D01*
X-1105D01*
X-597D01*
X1180Y69247D02*
X926Y69501D01*
X418D01*
X164Y69247D01*
Y68231D01*
X418Y67977D01*
X926D01*
X1180Y68231D01*
X1688Y69501D02*
X2704D01*
Y69247D01*
X1688Y68231D01*
Y67977D01*
X3429Y26543D02*
X2921D01*
X3175D01*
Y25273D01*
X2921Y25019D01*
X2667D01*
X2413Y25273D01*
X3937Y25019D02*
X4444D01*
X4190D01*
Y26543D01*
X3937Y26289D01*
X30972Y60106D02*
X30572D01*
X30772D01*
Y59106D01*
X30572Y58906D01*
X30372D01*
X30172Y59106D01*
X32171Y58906D02*
X31371D01*
X32171Y59706D01*
Y59906D01*
X31971Y60106D01*
X31571D01*
X31371Y59906D01*
X17272Y28194D02*
X18288Y26670D01*
Y28194D02*
X17272Y26670D01*
X18796D02*
X19303D01*
X19049D01*
Y28194D01*
X18796Y27940D01*
X83858Y86217D02*
X83658Y86417D01*
X83258D01*
X83058Y86217D01*
Y85417D01*
X83258Y85217D01*
X83658D01*
X83858Y85417D01*
X84258Y85217D02*
X84657D01*
X84458D01*
Y86417D01*
X84258Y86217D01*
X86057Y86417D02*
X85257D01*
Y85817D01*
X85657Y86017D01*
X85857D01*
X86057Y85817D01*
Y85417D01*
X85857Y85217D01*
X85457D01*
X85257Y85417D01*
X43472Y64627D02*
X43272Y64827D01*
X42872D01*
X42672Y64627D01*
Y63827D01*
X42872Y63627D01*
X43272D01*
X43472Y63827D01*
X43872Y63627D02*
X44271D01*
X44072D01*
Y64827D01*
X43872Y64627D01*
X45471Y63627D02*
Y64827D01*
X44871Y64227D01*
X45671D01*
X94399Y24187D02*
X93999D01*
X94199D01*
Y23187D01*
X93999Y22987D01*
X93799D01*
X93599Y23187D01*
X95598Y22987D02*
X94799D01*
X95598Y23787D01*
Y23987D01*
X95398Y24187D01*
X94999D01*
X94799Y23987D01*
X96798Y24187D02*
X96398Y23987D01*
X95998Y23587D01*
Y23187D01*
X96198Y22987D01*
X96598D01*
X96798Y23187D01*
Y23387D01*
X96598Y23587D01*
X95998D01*
D15*
X45884Y94832D02*
X53684D01*
Y87032D02*
Y94832D01*
X45884Y87032D02*
X53684D01*
X45884D02*
Y94832D01*
X7784Y87032D02*
Y94832D01*
Y87032D02*
X15584D01*
Y94832D01*
X7784D02*
X15584D01*
X42127Y39060D02*
X115307D01*
X42127D02*
Y73350D01*
X115307D01*
Y39060D02*
Y73350D01*
X500Y0D02*
G03*
X500Y0I-500J0D01*
G01*
X-1500Y-4000D02*
X118500D01*
Y96000D01*
X-1500D02*
X118500D01*
X-1500Y-4000D02*
Y96000D01*
D41*
X8673Y21116D02*
G03*
X8673Y26362I3900J2623D01*
G01*
X8673Y21125D02*
Y26359D01*
X114935Y23832D02*
Y23433D01*
X115135Y23233D01*
X115335Y23433D01*
Y23832D01*
X115535Y23233D02*
X115835D01*
X115935Y23333D01*
X115835Y23433D01*
X115635D01*
X115535Y23533D01*
X115635Y23633D01*
X115935D01*
X73787Y37811D02*
Y37411D01*
X73987Y37211D01*
X74187Y37411D01*
Y37811D01*
X74387Y37211D02*
X74687D01*
X74787Y37311D01*
X74687Y37411D01*
X74487D01*
X74387Y37511D01*
X74487Y37611D01*
X74787D01*
X82188Y37811D02*
X81788D01*
Y37511D01*
X81988Y37611D01*
X82088D01*
X82188Y37511D01*
Y37311D01*
X82088Y37211D01*
X81888D01*
X81788Y37311D01*
X82388Y37811D02*
Y37411D01*
X82588Y37211D01*
X82788Y37411D01*
Y37811D01*
X83387D02*
Y37211D01*
X83088D01*
X82988Y37311D01*
Y37511D01*
X83088Y37611D01*
X83387D01*
X79267Y37711D02*
X79167Y37811D01*
X78967D01*
X78867Y37711D01*
Y37611D01*
X78967Y37511D01*
X79167D01*
X79267Y37411D01*
Y37311D01*
X79167Y37211D01*
X78967D01*
X78867Y37311D01*
X79467Y37811D02*
Y37211D01*
X79767D01*
X79867Y37311D01*
Y37711D01*
X79767Y37811D01*
X79467D01*
X76600Y37711D02*
X76500Y37811D01*
X76300D01*
X76200Y37711D01*
Y37611D01*
X76300Y37511D01*
X76500D01*
X76600Y37411D01*
Y37311D01*
X76500Y37211D01*
X76300D01*
X76200Y37311D01*
X77200Y37711D02*
X77100Y37811D01*
X76900D01*
X76800Y37711D01*
Y37311D01*
X76900Y37211D01*
X77100D01*
X77200Y37311D01*
X46482Y74895D02*
Y74495D01*
X46682Y74295D01*
X46882Y74495D01*
Y74895D01*
X47082Y74295D02*
X47382D01*
X47482Y74395D01*
X47382Y74495D01*
X47182D01*
X47082Y74595D01*
X47182Y74695D01*
X47482D01*
X49295Y74795D02*
X49195Y74895D01*
X48995D01*
X48895Y74795D01*
Y74695D01*
X48995Y74595D01*
X49195D01*
X49295Y74495D01*
Y74395D01*
X49195Y74295D01*
X48995D01*
X48895Y74395D01*
X49895Y74795D02*
X49795Y74895D01*
X49595D01*
X49495Y74795D01*
Y74395D01*
X49595Y74295D01*
X49795D01*
X49895Y74395D01*
X51962Y74795D02*
X51862Y74895D01*
X51662D01*
X51562Y74795D01*
Y74695D01*
X51662Y74595D01*
X51862D01*
X51962Y74495D01*
Y74395D01*
X51862Y74295D01*
X51662D01*
X51562Y74395D01*
X52162Y74895D02*
Y74295D01*
X52462D01*
X52562Y74395D01*
Y74795D01*
X52462Y74895D01*
X52162D01*
X54883D02*
X54483D01*
Y74595D01*
X54683Y74695D01*
X54783D01*
X54883Y74595D01*
Y74395D01*
X54783Y74295D01*
X54583D01*
X54483Y74395D01*
X55083Y74895D02*
Y74495D01*
X55283Y74295D01*
X55483Y74495D01*
Y74895D01*
X56082D02*
Y74295D01*
X55783D01*
X55683Y74395D01*
Y74595D01*
X55783Y74695D01*
X56082D01*
X64516Y94580D02*
Y94180D01*
X64716Y93980D01*
X64916Y94180D01*
Y94580D01*
X65116Y93980D02*
X65416D01*
X65516Y94080D01*
X65416Y94180D01*
X65216D01*
X65116Y94280D01*
X65216Y94380D01*
X65516D01*
X41421Y30599D02*
X41321Y30699D01*
X41121D01*
X41021Y30599D01*
Y30499D01*
X41121Y30399D01*
X41321D01*
X41421Y30299D01*
Y30199D01*
X41321Y30099D01*
X41121D01*
X41021Y30199D01*
X41921Y30699D02*
X41721D01*
X41621Y30599D01*
Y30199D01*
X41721Y30099D01*
X41921D01*
X42021Y30199D01*
Y30599D01*
X41921Y30699D01*
X41421Y36568D02*
X41321Y36668D01*
X41121D01*
X41021Y36568D01*
Y36468D01*
X41121Y36368D01*
X41321D01*
X41421Y36268D01*
Y36168D01*
X41321Y36068D01*
X41121D01*
X41021Y36168D01*
X41621Y36668D02*
X41821D01*
X41721D01*
Y36068D01*
X41621D01*
X41821D01*
X43053Y36441D02*
X43153Y36541D01*
X43353D01*
X43453Y36441D01*
Y36341D01*
X43353Y36241D01*
X43253D01*
X43353D01*
X43453Y36141D01*
Y36041D01*
X43353Y35941D01*
X43153D01*
X43053Y36041D01*
X43653Y35941D02*
Y36041D01*
X43753D01*
Y35941D01*
X43653D01*
X44153Y36441D02*
X44253Y36541D01*
X44453D01*
X44553Y36441D01*
Y36341D01*
X44453Y36241D01*
X44353D01*
X44453D01*
X44553Y36141D01*
Y36041D01*
X44453Y35941D01*
X44253D01*
X44153Y36041D01*
X44752Y36541D02*
Y36141D01*
X44952Y35941D01*
X45152Y36141D01*
Y36541D01*
X45752D02*
Y35941D01*
X45452D01*
X45352Y36041D01*
Y36241D01*
X45452Y36341D01*
X45752D01*
X42672Y30472D02*
X42772Y30572D01*
X42972D01*
X43072Y30472D01*
Y30372D01*
X42972Y30272D01*
X42872D01*
X42972D01*
X43072Y30172D01*
Y30072D01*
X42972Y29972D01*
X42772D01*
X42672Y30072D01*
X43272Y29972D02*
Y30072D01*
X43372D01*
Y29972D01*
X43272D01*
X43772Y30472D02*
X43872Y30572D01*
X44072D01*
X44172Y30472D01*
Y30372D01*
X44072Y30272D01*
X43972D01*
X44072D01*
X44172Y30172D01*
Y30072D01*
X44072Y29972D01*
X43872D01*
X43772Y30072D01*
X44371Y30572D02*
Y30172D01*
X44571Y29972D01*
X44771Y30172D01*
Y30572D01*
X45371D02*
Y29972D01*
X45071D01*
X44971Y30072D01*
Y30272D01*
X45071Y30372D01*
X45371D01*
X46482Y30445D02*
Y30045D01*
X46682Y29845D01*
X46882Y30045D01*
Y30445D01*
X47082Y29845D02*
X47382D01*
X47482Y29945D01*
X47382Y30045D01*
X47182D01*
X47082Y30145D01*
X47182Y30245D01*
X47482D01*
X46609Y36541D02*
Y36141D01*
X46809Y35941D01*
X47009Y36141D01*
Y36541D01*
X47209Y35941D02*
X47509D01*
X47609Y36041D01*
X47509Y36141D01*
X47309D01*
X47209Y36241D01*
X47309Y36341D01*
X47609D01*
X29337Y85055D02*
Y84455D01*
X29637D01*
X29737Y84555D01*
Y84955D01*
X29637Y85055D01*
X29337D01*
X29937Y84955D02*
X30037Y85055D01*
X30237D01*
X30337Y84955D01*
Y84855D01*
X30237Y84755D01*
X30137D01*
X30237D01*
X30337Y84655D01*
Y84555D01*
X30237Y84455D01*
X30037D01*
X29937Y84555D01*
X26797Y85055D02*
Y84455D01*
X27097D01*
X27197Y84555D01*
Y84955D01*
X27097Y85055D01*
X26797D01*
X27797D02*
X27397D01*
Y84755D01*
X27597Y84855D01*
X27697D01*
X27797Y84755D01*
Y84555D01*
X27697Y84455D01*
X27497D01*
X27397Y84555D01*
X24384Y85055D02*
Y84455D01*
X24684D01*
X24784Y84555D01*
Y84955D01*
X24684Y85055D01*
X24384D01*
X24984D02*
X25384D01*
Y84955D01*
X24984Y84555D01*
Y84455D01*
X21717Y85055D02*
Y84455D01*
X22017D01*
X22117Y84555D01*
Y84655D01*
X22017Y84755D01*
X21717D01*
X22017D01*
X22117Y84855D01*
Y84955D01*
X22017Y85055D01*
X21717D01*
X22317Y84755D02*
X22717D01*
X21590Y78959D02*
Y78359D01*
X21890D01*
X21990Y78459D01*
Y78559D01*
X21890Y78659D01*
X21590D01*
X21890D01*
X21990Y78759D01*
Y78859D01*
X21890Y78959D01*
X21590D01*
X22190Y78659D02*
X22590D01*
X22390Y78859D02*
Y78459D01*
X24130Y78959D02*
Y78359D01*
X24430D01*
X24530Y78459D01*
Y78859D01*
X24430Y78959D01*
X24130D01*
X25130D02*
X24930Y78859D01*
X24730Y78659D01*
Y78459D01*
X24830Y78359D01*
X25030D01*
X25130Y78459D01*
Y78559D01*
X25030Y78659D01*
X24730D01*
X26797Y78959D02*
Y78359D01*
X27097D01*
X27197Y78459D01*
Y78859D01*
X27097Y78959D01*
X26797D01*
X27697Y78359D02*
Y78959D01*
X27397Y78659D01*
X27797D01*
X29591Y78451D02*
Y77851D01*
X29891D01*
X29991Y77951D01*
Y78351D01*
X29891Y78451D01*
X29591D01*
X30591Y77851D02*
X30191D01*
X30591Y78251D01*
Y78351D01*
X30491Y78451D01*
X30291D01*
X30191Y78351D01*
X31496Y78451D02*
Y77851D01*
X31796D01*
X31896Y77951D01*
Y78351D01*
X31796Y78451D01*
X31496D01*
X32096Y78351D02*
X32196Y78451D01*
X32396D01*
X32496Y78351D01*
Y77951D01*
X32396Y77851D01*
X32196D01*
X32096Y77951D01*
Y78351D01*
X31877Y84928D02*
Y84328D01*
X32177D01*
X32277Y84428D01*
Y84828D01*
X32177Y84928D01*
X31877D01*
X32477Y84328D02*
X32677D01*
X32577D01*
Y84928D01*
X32477Y84828D01*
X34944Y84801D02*
X34544D01*
Y84201D01*
X34944D01*
X34544Y84501D02*
X34744D01*
X36830Y84201D02*
Y84801D01*
X37130D01*
X37230Y84701D01*
Y84501D01*
X37130Y84401D01*
X36830D01*
X37030D02*
X37230Y84201D01*
X37830Y84701D02*
X37730Y84801D01*
X37530D01*
X37430Y84701D01*
Y84601D01*
X37530Y84501D01*
X37730D01*
X37830Y84401D01*
Y84301D01*
X37730Y84201D01*
X37530D01*
X37430Y84301D01*
X39243Y84801D02*
Y84401D01*
X39443Y84201D01*
X39643Y84401D01*
Y84801D01*
X40243D02*
Y84201D01*
X39943D01*
X39843Y84301D01*
Y84501D01*
X39943Y84601D01*
X40243D01*
X34544Y78359D02*
Y78959D01*
X34844D01*
X34944Y78859D01*
Y78659D01*
X34844Y78559D01*
X34544D01*
X34744D02*
X34944Y78359D01*
X35144Y78959D02*
Y78359D01*
X35344Y78559D01*
X35544Y78359D01*
Y78959D01*
X37084D02*
Y78559D01*
X37284Y78359D01*
X37484Y78559D01*
Y78959D01*
X37684Y78859D02*
X37784Y78959D01*
X37984D01*
X38084Y78859D01*
Y78459D01*
X37984Y78359D01*
X37784D01*
X37684Y78459D01*
Y78859D01*
X37084Y87976D02*
Y87576D01*
X37284Y87376D01*
X37484Y87576D01*
Y87976D01*
X37684Y87876D02*
X37784Y87976D01*
X37984D01*
X38084Y87876D01*
Y87476D01*
X37984Y87376D01*
X37784D01*
X37684Y87476D01*
Y87876D01*
X34417Y87376D02*
Y87976D01*
X34717D01*
X34817Y87876D01*
Y87676D01*
X34717Y87576D01*
X34417D01*
X34617D02*
X34817Y87376D01*
X35017Y87976D02*
Y87376D01*
X35217Y87576D01*
X35417Y87376D01*
Y87976D01*
X31623Y87595D02*
Y86995D01*
X31923D01*
X32023Y87095D01*
Y87495D01*
X31923Y87595D01*
X31623D01*
X32223Y87495D02*
X32323Y87595D01*
X32523D01*
X32623Y87495D01*
Y87095D01*
X32523Y86995D01*
X32323D01*
X32223Y87095D01*
Y87495D01*
X29591Y87595D02*
Y86995D01*
X29891D01*
X29991Y87095D01*
Y87495D01*
X29891Y87595D01*
X29591D01*
X30591Y86995D02*
X30191D01*
X30591Y87395D01*
Y87495D01*
X30491Y87595D01*
X30291D01*
X30191Y87495D01*
X26670Y87976D02*
Y87376D01*
X26970D01*
X27070Y87476D01*
Y87876D01*
X26970Y87976D01*
X26670D01*
X27570Y87376D02*
Y87976D01*
X27270Y87676D01*
X27670D01*
X24257Y87976D02*
Y87376D01*
X24557D01*
X24657Y87476D01*
Y87876D01*
X24557Y87976D01*
X24257D01*
X25257D02*
X25057Y87876D01*
X24857Y87676D01*
Y87476D01*
X24957Y87376D01*
X25157D01*
X25257Y87476D01*
Y87576D01*
X25157Y87676D01*
X24857D01*
X21844Y93945D02*
Y93345D01*
X22144D01*
X22244Y93445D01*
Y93545D01*
X22144Y93645D01*
X21844D01*
X22144D01*
X22244Y93745D01*
Y93845D01*
X22144Y93945D01*
X21844D01*
X22444Y93645D02*
X22844D01*
X24384Y93945D02*
Y93345D01*
X24684D01*
X24784Y93445D01*
Y93845D01*
X24684Y93945D01*
X24384D01*
X24984D02*
X25384D01*
Y93845D01*
X24984Y93445D01*
Y93345D01*
X26797Y93945D02*
Y93345D01*
X27097D01*
X27197Y93445D01*
Y93845D01*
X27097Y93945D01*
X26797D01*
X27797D02*
X27397D01*
Y93645D01*
X27597Y93745D01*
X27697D01*
X27797Y93645D01*
Y93445D01*
X27697Y93345D01*
X27497D01*
X27397Y93445D01*
X29337Y93945D02*
Y93345D01*
X29637D01*
X29737Y93445D01*
Y93845D01*
X29637Y93945D01*
X29337D01*
X29937Y93845D02*
X30037Y93945D01*
X30237D01*
X30337Y93845D01*
Y93745D01*
X30237Y93645D01*
X30137D01*
X30237D01*
X30337Y93545D01*
Y93445D01*
X30237Y93345D01*
X30037D01*
X29937Y93445D01*
X31877Y93945D02*
Y93345D01*
X32177D01*
X32277Y93445D01*
Y93845D01*
X32177Y93945D01*
X31877D01*
X32477Y93345D02*
X32677D01*
X32577D01*
Y93945D01*
X32477Y93845D01*
X34944Y93945D02*
X34544D01*
Y93345D01*
X34944D01*
X34544Y93645D02*
X34744D01*
X36830Y93345D02*
Y93945D01*
X37130D01*
X37230Y93845D01*
Y93645D01*
X37130Y93545D01*
X36830D01*
X37030D02*
X37230Y93345D01*
X37830Y93845D02*
X37730Y93945D01*
X37530D01*
X37430Y93845D01*
Y93745D01*
X37530Y93645D01*
X37730D01*
X37830Y93545D01*
Y93445D01*
X37730Y93345D01*
X37530D01*
X37430Y93445D01*
X39116Y93945D02*
Y93545D01*
X39316Y93345D01*
X39516Y93545D01*
Y93945D01*
X40116D02*
Y93345D01*
X39816D01*
X39716Y93445D01*
Y93645D01*
X39816Y93745D01*
X40116D01*
X21717Y87976D02*
Y87376D01*
X22017D01*
X22117Y87476D01*
Y87576D01*
X22017Y87676D01*
X21717D01*
X22017D01*
X22117Y87776D01*
Y87876D01*
X22017Y87976D01*
X21717D01*
X22317Y87676D02*
X22717D01*
X22517Y87876D02*
Y87476D01*
X39497Y87849D02*
Y87449D01*
X39697Y87249D01*
X39897Y87449D01*
Y87849D01*
X40097Y87249D02*
X40397D01*
X40497Y87349D01*
X40397Y87449D01*
X40197D01*
X40097Y87549D01*
X40197Y87649D01*
X40497D01*
X39243Y78832D02*
Y78432D01*
X39443Y78232D01*
X39643Y78432D01*
Y78832D01*
X39843Y78232D02*
X40143D01*
X40243Y78332D01*
X40143Y78432D01*
X39943D01*
X39843Y78532D01*
X39943Y78632D01*
X40243D01*
X66421Y36414D02*
Y36014D01*
X66621Y35814D01*
X66821Y36014D01*
Y36414D01*
X67021Y35814D02*
X67321D01*
X67421Y35914D01*
X67321Y36014D01*
X67121D01*
X67021Y36114D01*
X67121Y36214D01*
X67421D01*
X69088Y88257D02*
X69188Y88357D01*
X69388D01*
X69488Y88257D01*
Y88157D01*
X69388Y88057D01*
X69288D01*
X69388D01*
X69488Y87957D01*
Y87857D01*
X69388Y87757D01*
X69188D01*
X69088Y87857D01*
X69688Y87757D02*
Y87857D01*
X69788D01*
Y87757D01*
X69688D01*
X70188Y88257D02*
X70288Y88357D01*
X70488D01*
X70588Y88257D01*
Y88157D01*
X70488Y88057D01*
X70388D01*
X70488D01*
X70588Y87957D01*
Y87857D01*
X70488Y87757D01*
X70288D01*
X70188Y87857D01*
X70787Y88357D02*
Y87957D01*
X70987Y87757D01*
X71187Y87957D01*
Y88357D01*
X71787D02*
Y87757D01*
X71487D01*
X71387Y87857D01*
Y88057D01*
X71487Y88157D01*
X71787D01*
X67056Y87757D02*
Y88157D01*
X67256Y88357D01*
X67456Y88157D01*
Y87757D01*
Y88057D01*
X67056D01*
X67956Y87757D02*
Y88357D01*
X67656Y88057D01*
X68056D01*
X64389Y87757D02*
Y88157D01*
X64589Y88357D01*
X64789Y88157D01*
Y87757D01*
Y88057D01*
X64389D01*
X65389Y88357D02*
X64989D01*
Y88057D01*
X65189Y88157D01*
X65289D01*
X65389Y88057D01*
Y87857D01*
X65289Y87757D01*
X65089D01*
X64989Y87857D01*
X61976Y87757D02*
Y88157D01*
X62176Y88357D01*
X62376Y88157D01*
Y87757D01*
Y88057D01*
X61976D01*
X62976Y88357D02*
X62776Y88257D01*
X62576Y88057D01*
Y87857D01*
X62676Y87757D01*
X62876D01*
X62976Y87857D01*
Y87957D01*
X62876Y88057D01*
X62576D01*
X59436Y87757D02*
Y88157D01*
X59636Y88357D01*
X59836Y88157D01*
Y87757D01*
Y88057D01*
X59436D01*
X60036Y88357D02*
X60436D01*
Y88257D01*
X60036Y87857D01*
Y87757D01*
X74676Y76708D02*
Y77108D01*
X74876Y77308D01*
X75076Y77108D01*
Y76708D01*
Y77008D01*
X74676D01*
X75276Y77208D02*
X75376Y77308D01*
X75576D01*
X75676Y77208D01*
Y76808D01*
X75576Y76708D01*
X75376D01*
X75276Y76808D01*
Y77208D01*
X72263Y76708D02*
Y77108D01*
X72463Y77308D01*
X72663Y77108D01*
Y76708D01*
Y77008D01*
X72263D01*
X72863Y76708D02*
X73063D01*
X72963D01*
Y77308D01*
X72863Y77208D01*
X69596Y76708D02*
Y77108D01*
X69796Y77308D01*
X69996Y77108D01*
Y76708D01*
Y77008D01*
X69596D01*
X70596Y76708D02*
X70196D01*
X70596Y77108D01*
Y77208D01*
X70496Y77308D01*
X70296D01*
X70196Y77208D01*
X67056Y76708D02*
Y77108D01*
X67256Y77308D01*
X67456Y77108D01*
Y76708D01*
Y77008D01*
X67056D01*
X67656Y77208D02*
X67756Y77308D01*
X67956D01*
X68056Y77208D01*
Y77108D01*
X67956Y77008D01*
X67856D01*
X67956D01*
X68056Y76908D01*
Y76808D01*
X67956Y76708D01*
X67756D01*
X67656Y76808D01*
X76708Y77335D02*
X76808Y77435D01*
X77008D01*
X77108Y77335D01*
Y77235D01*
X77008Y77135D01*
X76908D01*
X77008D01*
X77108Y77035D01*
Y76935D01*
X77008Y76835D01*
X76808D01*
X76708Y76935D01*
X77308Y76835D02*
Y76935D01*
X77408D01*
Y76835D01*
X77308D01*
X77808Y77335D02*
X77908Y77435D01*
X78108D01*
X78208Y77335D01*
Y77235D01*
X78108Y77135D01*
X78008D01*
X78108D01*
X78208Y77035D01*
Y76935D01*
X78108Y76835D01*
X77908D01*
X77808Y76935D01*
X78407Y77435D02*
Y77035D01*
X78607Y76835D01*
X78807Y77035D01*
Y77435D01*
X79407D02*
Y76835D01*
X79107D01*
X79007Y76935D01*
Y77135D01*
X79107Y77235D01*
X79407D01*
X71882Y83531D02*
Y83131D01*
X72082Y82931D01*
X72282Y83131D01*
Y83531D01*
X72482Y82931D02*
X72782D01*
X72882Y83031D01*
X72782Y83131D01*
X72582D01*
X72482Y83231D01*
X72582Y83331D01*
X72882D01*
X90297Y88484D02*
Y88084D01*
X90497Y87884D01*
X90697Y88084D01*
Y88484D01*
X90897Y87884D02*
X91197D01*
X91297Y87984D01*
X91197Y88084D01*
X90997D01*
X90897Y88184D01*
X90997Y88284D01*
X91297D01*
X90297Y94453D02*
Y94053D01*
X90497Y93853D01*
X90697Y94053D01*
Y94453D01*
X90897Y93853D02*
X91197D01*
X91297Y93953D01*
X91197Y94053D01*
X90997D01*
X90897Y94153D01*
X90997Y94253D01*
X91297D01*
X87776Y88484D02*
X87376D01*
Y88184D01*
X87576Y88284D01*
X87676D01*
X87776Y88184D01*
Y87984D01*
X87676Y87884D01*
X87476D01*
X87376Y87984D01*
X87976Y88484D02*
Y88084D01*
X88176Y87884D01*
X88376Y88084D01*
Y88484D01*
X88975Y88284D02*
X88676D01*
X88576Y88184D01*
Y87984D01*
X88676Y87884D01*
X88975D01*
X89575Y88284D02*
X89275D01*
X89175Y88184D01*
Y87984D01*
X89275Y87884D01*
X89575D01*
X87522Y94453D02*
X87122D01*
Y94153D01*
X87322Y94253D01*
X87422D01*
X87522Y94153D01*
Y93953D01*
X87422Y93853D01*
X87222D01*
X87122Y93953D01*
X87722Y94453D02*
Y94053D01*
X87922Y93853D01*
X88122Y94053D01*
Y94453D01*
X88721D02*
Y93853D01*
X88422D01*
X88322Y93953D01*
Y94153D01*
X88422Y94253D01*
X88721D01*
X85363Y94353D02*
X85263Y94453D01*
X85063D01*
X84963Y94353D01*
Y94253D01*
X85063Y94153D01*
X85263D01*
X85363Y94053D01*
Y93953D01*
X85263Y93853D01*
X85063D01*
X84963Y93953D01*
X85563Y94453D02*
X85763D01*
X85663D01*
Y93853D01*
X85563D01*
X85763D01*
X85617Y88384D02*
X85517Y88484D01*
X85317D01*
X85217Y88384D01*
Y88284D01*
X85317Y88184D01*
X85517D01*
X85617Y88084D01*
Y87984D01*
X85517Y87884D01*
X85317D01*
X85217Y87984D01*
X86117Y88484D02*
X85917D01*
X85817Y88384D01*
Y87984D01*
X85917Y87884D01*
X86117D01*
X86217Y87984D01*
Y88384D01*
X86117Y88484D01*
X82823Y88384D02*
X82723Y88484D01*
X82523D01*
X82423Y88384D01*
Y88284D01*
X82523Y88184D01*
X82723D01*
X82823Y88084D01*
Y87984D01*
X82723Y87884D01*
X82523D01*
X82423Y87984D01*
X83423Y88384D02*
X83323Y88484D01*
X83123D01*
X83023Y88384D01*
Y87984D01*
X83123Y87884D01*
X83323D01*
X83423Y87984D01*
X82823Y94226D02*
X82723Y94326D01*
X82523D01*
X82423Y94226D01*
Y94126D01*
X82523Y94026D01*
X82723D01*
X82823Y93926D01*
Y93826D01*
X82723Y93726D01*
X82523D01*
X82423Y93826D01*
X83423Y94226D02*
X83323Y94326D01*
X83123D01*
X83023Y94226D01*
Y93826D01*
X83123Y93726D01*
X83323D01*
X83423Y93826D01*
X79629Y93726D02*
Y94326D01*
X79929D01*
X80029Y94226D01*
Y94026D01*
X79929Y93926D01*
X79629D01*
X79829D02*
X80029Y93726D01*
X80629Y94226D02*
X80529Y94326D01*
X80329D01*
X80229Y94226D01*
Y93826D01*
X80329Y93726D01*
X80529D01*
X80629Y93826D01*
X81228Y93726D02*
X80829D01*
X81228Y94126D01*
Y94226D01*
X81129Y94326D01*
X80929D01*
X80829Y94226D01*
X79883Y87884D02*
Y88484D01*
X80183D01*
X80283Y88384D01*
Y88184D01*
X80183Y88084D01*
X79883D01*
X80083D02*
X80283Y87884D01*
X80883Y88384D02*
X80783Y88484D01*
X80583D01*
X80483Y88384D01*
Y87984D01*
X80583Y87884D01*
X80783D01*
X80883Y87984D01*
X81083Y87884D02*
X81283D01*
X81183D01*
Y88484D01*
X81083Y88384D01*
X100203Y93599D02*
Y94199D01*
X100503D01*
X100603Y94099D01*
Y93899D01*
X100503Y93799D01*
X100203D01*
X100403D02*
X100603Y93599D01*
X101203Y94099D02*
X101103Y94199D01*
X100903D01*
X100803Y94099D01*
Y93699D01*
X100903Y93599D01*
X101103D01*
X101203Y93699D01*
X101802Y93599D02*
X101403D01*
X101802Y93999D01*
Y94099D01*
X101703Y94199D01*
X101503D01*
X101403Y94099D01*
X100351Y87962D02*
Y88562D01*
X100651D01*
X100751Y88462D01*
Y88262D01*
X100651Y88162D01*
X100351D01*
X100551D02*
X100751Y87962D01*
X101351Y88462D02*
X101251Y88562D01*
X101051D01*
X100951Y88462D01*
Y88062D01*
X101051Y87962D01*
X101251D01*
X101351Y88062D01*
X101551Y87962D02*
X101751D01*
X101651D01*
Y88562D01*
X101551Y88462D01*
X103524Y88511D02*
X103424Y88611D01*
X103224D01*
X103124Y88511D01*
Y88411D01*
X103224Y88311D01*
X103424D01*
X103524Y88211D01*
Y88111D01*
X103424Y88011D01*
X103224D01*
X103124Y88111D01*
X104124Y88511D02*
X104024Y88611D01*
X103824D01*
X103724Y88511D01*
Y88111D01*
X103824Y88011D01*
X104024D01*
X104124Y88111D01*
X103397Y94099D02*
X103297Y94199D01*
X103097D01*
X102997Y94099D01*
Y93999D01*
X103097Y93899D01*
X103297D01*
X103397Y93799D01*
Y93699D01*
X103297Y93599D01*
X103097D01*
X102997Y93699D01*
X103997Y94099D02*
X103897Y94199D01*
X103697D01*
X103597Y94099D01*
Y93699D01*
X103697Y93599D01*
X103897D01*
X103997Y93699D01*
X105683Y94226D02*
X105583Y94326D01*
X105383D01*
X105283Y94226D01*
Y94126D01*
X105383Y94026D01*
X105583D01*
X105683Y93926D01*
Y93826D01*
X105583Y93726D01*
X105383D01*
X105283Y93826D01*
X105883Y94326D02*
X106083D01*
X105983D01*
Y93726D01*
X105883D01*
X106083D01*
X105937Y88384D02*
X105837Y88484D01*
X105637D01*
X105537Y88384D01*
Y88284D01*
X105637Y88184D01*
X105837D01*
X105937Y88084D01*
Y87984D01*
X105837Y87884D01*
X105637D01*
X105537Y87984D01*
X106437Y88484D02*
X106237D01*
X106137Y88384D01*
Y87984D01*
X106237Y87884D01*
X106437D01*
X106537Y87984D01*
Y88384D01*
X106437Y88484D01*
X108223D02*
X107823D01*
Y88184D01*
X108023Y88284D01*
X108123D01*
X108223Y88184D01*
Y87984D01*
X108123Y87884D01*
X107923D01*
X107823Y87984D01*
X108423Y88484D02*
Y88084D01*
X108623Y87884D01*
X108823Y88084D01*
Y88484D01*
X109422D02*
Y87884D01*
X109123D01*
X109023Y87984D01*
Y88184D01*
X109123Y88284D01*
X109422D01*
X108223Y94326D02*
X107823D01*
Y94026D01*
X108023Y94126D01*
X108123D01*
X108223Y94026D01*
Y93826D01*
X108123Y93726D01*
X107923D01*
X107823Y93826D01*
X108423Y94326D02*
Y93926D01*
X108623Y93726D01*
X108823Y93926D01*
Y94326D01*
X109422D02*
Y93726D01*
X109123D01*
X109023Y93826D01*
Y94026D01*
X109123Y94126D01*
X109422D01*
X110363Y94199D02*
Y93799D01*
X110563Y93599D01*
X110763Y93799D01*
Y94199D01*
X110963Y93599D02*
X111263D01*
X111363Y93699D01*
X111263Y93799D01*
X111063D01*
X110963Y93899D01*
X111063Y93999D01*
X111363D01*
X110363Y88484D02*
Y88084D01*
X110563Y87884D01*
X110763Y88084D01*
Y88484D01*
X110963Y87884D02*
X111263D01*
X111363Y87984D01*
X111263Y88084D01*
X111063D01*
X110963Y88184D01*
X111063Y88284D01*
X111363D01*
X38881Y36441D02*
X38781Y36541D01*
X38581D01*
X38481Y36441D01*
Y36341D01*
X38581Y36241D01*
X38781D01*
X38881Y36141D01*
Y36041D01*
X38781Y35941D01*
X38581D01*
X38481Y36041D01*
X39481Y36441D02*
X39381Y36541D01*
X39181D01*
X39081Y36441D01*
Y36041D01*
X39181Y35941D01*
X39381D01*
X39481Y36041D01*
X38881Y30472D02*
X38781Y30572D01*
X38581D01*
X38481Y30472D01*
Y30372D01*
X38581Y30272D01*
X38781D01*
X38881Y30172D01*
Y30072D01*
X38781Y29972D01*
X38581D01*
X38481Y30072D01*
X39481Y30472D02*
X39381Y30572D01*
X39181D01*
X39081Y30472D01*
Y30072D01*
X39181Y29972D01*
X39381D01*
X39481Y30072D01*
X35814Y35941D02*
Y36541D01*
X36114D01*
X36214Y36441D01*
Y36241D01*
X36114Y36141D01*
X35814D01*
X36014D02*
X36214Y35941D01*
X36814Y36441D02*
X36714Y36541D01*
X36514D01*
X36414Y36441D01*
Y36041D01*
X36514Y35941D01*
X36714D01*
X36814Y36041D01*
X37413Y35941D02*
X37014D01*
X37413Y36341D01*
Y36441D01*
X37314Y36541D01*
X37114D01*
X37014Y36441D01*
X35941Y29972D02*
Y30572D01*
X36241D01*
X36341Y30472D01*
Y30272D01*
X36241Y30172D01*
X35941D01*
X36141D02*
X36341Y29972D01*
X36941Y30472D02*
X36841Y30572D01*
X36641D01*
X36541Y30472D01*
Y30072D01*
X36641Y29972D01*
X36841D01*
X36941Y30072D01*
X37141Y29972D02*
X37341D01*
X37241D01*
Y30572D01*
X37141Y30472D01*
X66294Y30345D02*
X66394Y30445D01*
X66594D01*
X66694Y30345D01*
Y30245D01*
X66594Y30145D01*
X66494D01*
X66594D01*
X66694Y30045D01*
Y29945D01*
X66594Y29845D01*
X66394D01*
X66294Y29945D01*
X66894Y29845D02*
Y29945D01*
X66994D01*
Y29845D01*
X66894D01*
X67394Y30345D02*
X67494Y30445D01*
X67694D01*
X67794Y30345D01*
Y30245D01*
X67694Y30145D01*
X67594D01*
X67694D01*
X67794Y30045D01*
Y29945D01*
X67694Y29845D01*
X67494D01*
X67394Y29945D01*
X67993Y30445D02*
Y30045D01*
X68193Y29845D01*
X68393Y30045D01*
Y30445D01*
X68993D02*
Y29845D01*
X68693D01*
X68593Y29945D01*
Y30145D01*
X68693Y30245D01*
X68993D01*
X34563Y54856D02*
X34463Y54956D01*
X34263D01*
X34163Y54856D01*
Y54456D01*
X34263Y54356D01*
X34463D01*
X34563Y54456D01*
Y54656D01*
X34363D01*
X34763Y54356D02*
Y54956D01*
X35163Y54356D01*
Y54956D01*
X35363D02*
Y54356D01*
X35663D01*
X35762Y54456D01*
Y54856D01*
X35663Y54956D01*
X35363D01*
X37230Y54856D02*
X37130Y54956D01*
X36930D01*
X36830Y54856D01*
Y54456D01*
X36930Y54356D01*
X37130D01*
X37230Y54456D01*
Y54656D01*
X37030D01*
X37430Y54356D02*
Y54956D01*
X37830Y54356D01*
Y54956D01*
X38030D02*
Y54356D01*
X38330D01*
X38429Y54456D01*
Y54856D01*
X38330Y54956D01*
X38030D01*
X34544Y51935D02*
X34644Y52035D01*
X34844D01*
X34944Y51935D01*
Y51835D01*
X34844Y51735D01*
X34744D01*
X34844D01*
X34944Y51635D01*
Y51535D01*
X34844Y51435D01*
X34644D01*
X34544Y51535D01*
X35144Y51435D02*
Y51535D01*
X35244D01*
Y51435D01*
X35144D01*
X35644Y51935D02*
X35744Y52035D01*
X35944D01*
X36044Y51935D01*
Y51835D01*
X35944Y51735D01*
X35844D01*
X35944D01*
X36044Y51635D01*
Y51535D01*
X35944Y51435D01*
X35744D01*
X35644Y51535D01*
X36243Y52035D02*
Y51635D01*
X36443Y51435D01*
X36643Y51635D01*
Y52035D01*
X37243D02*
Y51435D01*
X36943D01*
X36843Y51535D01*
Y51735D01*
X36943Y51835D01*
X37243D01*
X32512Y44415D02*
X32712D01*
X32612D01*
Y43815D01*
X32512D01*
X32712D01*
X33412D02*
X33012D01*
X33412Y44215D01*
Y44315D01*
X33312Y44415D01*
X33112D01*
X33012Y44315D01*
X34012D02*
X33912Y44415D01*
X33712D01*
X33612Y44315D01*
Y44215D01*
X33712Y44115D01*
X33912D01*
X34012Y44015D01*
Y43915D01*
X33912Y43815D01*
X33712D01*
X33612Y43915D01*
X34611Y44315D02*
X34511Y44415D01*
X34311D01*
X34211Y44315D01*
Y43915D01*
X34311Y43815D01*
X34511D01*
X34611Y43915D01*
X34811Y44415D02*
Y43815D01*
X35211D01*
X35411Y44415D02*
Y43815D01*
Y44015D01*
X35811Y44415D01*
X35511Y44115D01*
X35811Y43815D01*
X36957Y44415D02*
X37157D01*
X37057D01*
Y43815D01*
X36957D01*
X37157D01*
X37857D02*
X37457D01*
X37857Y44215D01*
Y44315D01*
X37757Y44415D01*
X37557D01*
X37457Y44315D01*
X38457D02*
X38357Y44415D01*
X38157D01*
X38057Y44315D01*
Y44215D01*
X38157Y44115D01*
X38357D01*
X38457Y44015D01*
Y43915D01*
X38357Y43815D01*
X38157D01*
X38057Y43915D01*
X39056Y44315D02*
X38956Y44415D01*
X38756D01*
X38656Y44315D01*
Y43915D01*
X38756Y43815D01*
X38956D01*
X39056Y43915D01*
X39256Y44415D02*
Y43815D01*
X39656D01*
X39856Y44415D02*
Y43815D01*
Y44015D01*
X40256Y44415D01*
X39956Y44115D01*
X40256Y43815D01*
X32512Y41875D02*
X32712D01*
X32612D01*
Y41275D01*
X32512D01*
X32712D01*
X33412D02*
X33012D01*
X33412Y41675D01*
Y41775D01*
X33312Y41875D01*
X33112D01*
X33012Y41775D01*
X34012D02*
X33912Y41875D01*
X33712D01*
X33612Y41775D01*
Y41675D01*
X33712Y41575D01*
X33912D01*
X34012Y41475D01*
Y41375D01*
X33912Y41275D01*
X33712D01*
X33612Y41375D01*
X34211Y41275D02*
Y41875D01*
X34411Y41675D01*
X34611Y41875D01*
Y41275D01*
X35211Y41775D02*
X35111Y41875D01*
X34911D01*
X34811Y41775D01*
Y41375D01*
X34911Y41275D01*
X35111D01*
X35211Y41375D01*
X35411Y41875D02*
Y41275D01*
X35811D01*
X36011Y41875D02*
Y41275D01*
Y41475D01*
X36411Y41875D01*
X36111Y41575D01*
X36411Y41275D01*
X37338Y41917D02*
X37538D01*
X37438D01*
Y41318D01*
X37338D01*
X37538D01*
X38238D02*
X37838D01*
X38238Y41718D01*
Y41818D01*
X38138Y41917D01*
X37938D01*
X37838Y41818D01*
X38838D02*
X38738Y41917D01*
X38538D01*
X38438Y41818D01*
Y41718D01*
X38538Y41618D01*
X38738D01*
X38838Y41518D01*
Y41418D01*
X38738Y41318D01*
X38538D01*
X38438Y41418D01*
X39037Y41917D02*
Y41318D01*
X39237Y41518D01*
X39437Y41318D01*
Y41917D01*
X40037Y41818D02*
X39937Y41917D01*
X39737D01*
X39637Y41818D01*
Y41718D01*
X39737Y41618D01*
X39937D01*
X40037Y41518D01*
Y41418D01*
X39937Y41318D01*
X39737D01*
X39637Y41418D01*
X36830Y46955D02*
X37030D01*
X36930D01*
Y46355D01*
X36830D01*
X37030D01*
X37730D02*
X37330D01*
X37730Y46755D01*
Y46855D01*
X37630Y46955D01*
X37430D01*
X37330Y46855D01*
X38330D02*
X38230Y46955D01*
X38030D01*
X37930Y46855D01*
Y46755D01*
X38030Y46655D01*
X38230D01*
X38330Y46555D01*
Y46455D01*
X38230Y46355D01*
X38030D01*
X37930Y46455D01*
X38929Y46855D02*
X38829Y46955D01*
X38629D01*
X38529Y46855D01*
Y46755D01*
X38629Y46655D01*
X38829D01*
X38929Y46555D01*
Y46455D01*
X38829Y46355D01*
X38629D01*
X38529Y46455D01*
X39129Y46955D02*
Y46355D01*
X39429D01*
X39529Y46455D01*
Y46855D01*
X39429Y46955D01*
X39129D01*
X39729Y46355D02*
Y46755D01*
X39929Y46955D01*
X40129Y46755D01*
Y46355D01*
Y46655D01*
X39729D01*
X64135Y36414D02*
Y35814D01*
X64435D01*
X64535Y35914D01*
Y36314D01*
X64435Y36414D01*
X64135D01*
X64735Y36314D02*
X64835Y36414D01*
X65035D01*
X65135Y36314D01*
Y35914D01*
X65035Y35814D01*
X64835D01*
X64735Y35914D01*
Y36314D01*
X64389Y30572D02*
Y29972D01*
X64689D01*
X64789Y30072D01*
Y30472D01*
X64689Y30572D01*
X64389D01*
X64989Y29972D02*
X65189D01*
X65089D01*
Y30572D01*
X64989Y30472D01*
X61595Y36541D02*
Y35941D01*
X61895D01*
X61995Y36041D01*
Y36441D01*
X61895Y36541D01*
X61595D01*
X62595Y35941D02*
X62195D01*
X62595Y36341D01*
Y36441D01*
X62495Y36541D01*
X62295D01*
X62195Y36441D01*
X61722Y30572D02*
Y29972D01*
X62022D01*
X62122Y30072D01*
Y30472D01*
X62022Y30572D01*
X61722D01*
X62322Y30472D02*
X62422Y30572D01*
X62622D01*
X62722Y30472D01*
Y30372D01*
X62622Y30272D01*
X62522D01*
X62622D01*
X62722Y30172D01*
Y30072D01*
X62622Y29972D01*
X62422D01*
X62322Y30072D01*
X59055Y36414D02*
Y35814D01*
X59355D01*
X59455Y35914D01*
Y36314D01*
X59355Y36414D01*
X59055D01*
X59955Y35814D02*
Y36414D01*
X59655Y36114D01*
X60055D01*
X59182Y30572D02*
Y29972D01*
X59482D01*
X59582Y30072D01*
Y30472D01*
X59482Y30572D01*
X59182D01*
X60182D02*
X59782D01*
Y30272D01*
X59982Y30372D01*
X60082D01*
X60182Y30272D01*
Y30072D01*
X60082Y29972D01*
X59882D01*
X59782Y30072D01*
X56515Y36414D02*
Y35814D01*
X56815D01*
X56915Y35914D01*
Y36314D01*
X56815Y36414D01*
X56515D01*
X57515D02*
X57315Y36314D01*
X57115Y36114D01*
Y35914D01*
X57215Y35814D01*
X57415D01*
X57515Y35914D01*
Y36014D01*
X57415Y36114D01*
X57115D01*
X56642Y30572D02*
Y29972D01*
X56942D01*
X57042Y30072D01*
Y30472D01*
X56942Y30572D01*
X56642D01*
X57242D02*
X57642D01*
Y30472D01*
X57242Y30072D01*
Y29972D01*
D42*
X6294Y73025D02*
G03*
X6294Y73025I-3500J0D01*
G01*
X9720Y12423D02*
G03*
X9720Y12423I-125J0D01*
G01*
X6294Y51308D02*
G03*
X6294Y51308I-3500J0D01*
G01*
D43*
X7327Y80302D02*
G03*
X11472Y80309I2071J1105D01*
G01*
X41092Y70231D02*
G03*
X41092Y68961I0J-635D01*
G01*
X69088Y26740D02*
G03*
X70358Y26740I635J0D01*
G01*
X33528Y26359D02*
G03*
X34798Y26359I635J0D01*
G01*
X86052Y78232D02*
G03*
X86052Y79502I0J635D01*
G01*
X22733Y38227D02*
G03*
X22733Y38227I-7620J0D01*
G01*
X83312Y34163D02*
Y36703D01*
X73152Y34163D02*
X83312D01*
X73152Y36703D02*
X83312D01*
X73152Y34163D02*
Y36703D01*
X23622Y50927D02*
Y58547D01*
Y50927D02*
X26162D01*
Y58547D01*
X23622D02*
X26162D01*
X29845Y53467D02*
Y58547D01*
X27305D02*
X29845D01*
X27305Y53467D02*
Y58547D01*
Y53467D02*
X29845D01*
X29210Y77461D02*
Y78740D01*
X32893D01*
Y77461D02*
Y78740D01*
Y86605D02*
Y87884D01*
X29210D02*
X32893D01*
X29210Y86605D02*
Y87884D01*
X114427Y17526D02*
Y22606D01*
Y17526D02*
X116967D01*
Y22606D01*
X114427D02*
X116967D01*
X-1300Y56567D02*
Y66967D01*
X3300D01*
Y56567D02*
Y66967D01*
X-1300Y56567D02*
X3300D01*
X-800Y56567D02*
Y66967D01*
Y35567D02*
Y45967D01*
X-1300Y35567D02*
X3300D01*
Y35567D02*
Y45967D01*
X-1300D02*
X3300D01*
X-1300Y35567D02*
Y45967D01*
X100455Y-8200D02*
Y4405D01*
X116455Y-8200D02*
Y4405D01*
X100455Y7165D02*
Y13100D01*
X116455D01*
Y7165D02*
Y13100D01*
X100455Y-8200D02*
X116455D01*
X8392Y13963D02*
X13472D01*
Y16503D01*
X8392D02*
X13472D01*
X8392Y13963D02*
Y16503D01*
X7695Y12183D02*
X8395D01*
X2295D02*
X6495D01*
X10795D02*
X14395D01*
Y8663D02*
Y12183D01*
X2295Y8663D02*
Y12183D01*
Y-3917D02*
Y4063D01*
X14395Y-3917D02*
Y4063D01*
X63844Y4733D02*
X71464D01*
X63844Y2193D02*
Y4733D01*
Y2193D02*
X71464D01*
Y4733D01*
X30316Y2193D02*
Y4733D01*
X22696Y2193D02*
X30316D01*
X22696D02*
Y4733D01*
X30316D01*
X43270Y4987D02*
X50890D01*
X43270Y2447D02*
Y4987D01*
Y2447D02*
X50890D01*
Y4987D01*
X92038Y2066D02*
Y4606D01*
X84418Y2066D02*
X92038D01*
X84418D02*
Y4606D01*
X92038D01*
X1651Y19939D02*
Y25019D01*
X-889D02*
X1651D01*
X-889Y19939D02*
Y25019D01*
Y19939D02*
X1651D01*
X7478Y82757D02*
X11148Y82757D01*
X11318D01*
X104730Y93300D02*
Y95200D01*
Y93300D02*
X107275D01*
X96000Y86800D02*
Y95200D01*
X116000Y86800D02*
Y95200D01*
X96000Y86800D02*
X116000D01*
X96000Y95200D02*
X104730D01*
X107275D02*
X116000D01*
X107275Y93300D02*
Y95200D01*
X84230Y93300D02*
Y95200D01*
Y93300D02*
X86775D01*
X75500Y86800D02*
Y95200D01*
X95500Y86800D02*
Y95200D01*
X75500Y86800D02*
X95500D01*
X75500Y95200D02*
X84230D01*
X86775D02*
X95500D01*
X86775Y93300D02*
Y95200D01*
X71330Y82300D02*
Y84200D01*
Y82300D02*
X73875D01*
X62600Y75800D02*
Y84200D01*
X82600Y75800D02*
Y84200D01*
X62600Y75800D02*
X82600D01*
X62600Y84200D02*
X71330D01*
X73875D02*
X82600D01*
X73875Y82300D02*
Y84200D01*
X63730Y93300D02*
Y95200D01*
Y93300D02*
X66275D01*
X55000Y86800D02*
Y95200D01*
X75000Y86800D02*
Y95200D01*
X55000Y86800D02*
X75000D01*
X55000Y95200D02*
X63730D01*
X66275D02*
X75000D01*
X66275Y93300D02*
Y95200D01*
X17200Y85861D02*
X44800D01*
X17200Y77461D02*
X44800D01*
X17200D02*
Y85861D01*
X44800Y77461D02*
Y85861D01*
X17200Y95005D02*
X44800D01*
X17200Y86605D02*
X44800D01*
X17200D02*
Y95005D01*
X44800Y86605D02*
Y95005D01*
X60833Y35447D02*
Y37347D01*
Y35447D02*
X63378D01*
X52103Y28947D02*
Y37347D01*
X72103Y28947D02*
Y37347D01*
X52103Y28947D02*
X72103D01*
X52103Y37347D02*
X60833D01*
X63378D02*
X72103D01*
X63378Y35447D02*
Y37347D01*
X32122Y46730D02*
X34022D01*
Y49275D01*
X32122Y38000D02*
X40522D01*
X32122Y58000D02*
X40522D01*
Y38000D02*
Y58000D01*
X32122Y38000D02*
Y46730D01*
Y49275D02*
Y58000D01*
Y49275D02*
X34022D01*
X40230Y35447D02*
Y37347D01*
Y35447D02*
X42775D01*
X31500Y28947D02*
Y37347D01*
X51500Y28947D02*
Y37347D01*
X31500Y28947D02*
X51500D01*
X31500Y37347D02*
X40230D01*
X42775D02*
X51500D01*
X42775Y35447D02*
Y37347D01*
X56261Y75311D02*
Y77851D01*
X46101Y75311D02*
X56261D01*
X46101Y77851D02*
X56261D01*
X46101Y75311D02*
Y77851D01*
X102494Y35447D02*
Y37347D01*
X117619D01*
X84819Y28947D02*
Y37347D01*
Y28947D02*
X117619D01*
X99949Y35447D02*
Y37347D01*
Y35447D02*
X102494D01*
X84819Y37347D02*
X99949D01*
X117619Y28947D02*
Y37347D01*
X39116Y58801D02*
Y63881D01*
X36576D02*
X39116D01*
X36576Y58801D02*
Y63881D01*
Y58801D02*
X39116D01*
X21392Y66946D02*
X41092D01*
X21392Y72246D02*
X41092D01*
X21392Y66946D02*
Y72246D01*
X41092Y66946D02*
Y68961D01*
Y70231D02*
Y72246D01*
X67073Y26740D02*
X69088D01*
X70358D02*
X72373D01*
X67073Y16440D02*
X72373D01*
X67073D02*
Y26740D01*
X72373Y16440D02*
Y26740D01*
X36813Y16059D02*
Y26359D01*
X31513Y16059D02*
Y26359D01*
Y16059D02*
X36813D01*
X34798Y26359D02*
X36813D01*
X31513D02*
X33528D01*
X86052Y81517D02*
X111052D01*
X86052Y76217D02*
X111052D01*
Y81517D01*
X86052Y79502D02*
Y81517D01*
Y76217D02*
Y78232D01*
X83058Y78867D02*
X85598D01*
X83058D02*
Y83947D01*
X85598D01*
Y78867D02*
Y83947D01*
X39370Y59309D02*
X41910D01*
X39370D02*
Y64389D01*
X41910D01*
Y59309D02*
Y64389D01*
X4064Y61595D02*
X6604D01*
X4064D02*
Y66675D01*
X6604D01*
Y61595D02*
Y66675D01*
X4064Y61214D02*
X6604D01*
Y56134D02*
Y61214D01*
X4064Y56134D02*
X6604D01*
X4064D02*
Y61214D01*
X14732Y76987D02*
Y77216D01*
Y82296D02*
Y82525D01*
X13970Y77216D02*
X14732D01*
X13970D02*
Y82296D01*
X15494D01*
Y77216D02*
Y82296D01*
X14732Y77216D02*
X15494D01*
X19050Y66827D02*
Y67056D01*
Y72136D02*
Y72365D01*
X18288Y67056D02*
X19050D01*
X18288D02*
Y72136D01*
X19812D01*
Y67056D02*
Y72136D01*
X19050Y67056D02*
X19812D01*
X36322Y61214D02*
Y63754D01*
X23622Y61214D02*
X36322D01*
X23622Y63754D02*
X36322D01*
X23622Y61214D02*
Y63754D01*
X101200Y25781D02*
Y28321D01*
X88500Y25781D02*
X101200D01*
X88500Y28321D02*
X101200D01*
X88500Y25781D02*
Y28321D01*
X61214Y18059D02*
Y18288D01*
Y23368D02*
Y23597D01*
X60452Y18288D02*
X61214D01*
X60452D02*
Y23368D01*
X61976D01*
Y18288D02*
Y23368D01*
X61214Y18288D02*
X61976D01*
X91186Y23495D02*
Y23724D01*
Y18186D02*
Y18415D01*
Y23495D02*
X91948D01*
Y18415D02*
Y23495D01*
X90424Y18415D02*
X91948D01*
X90424D02*
Y23495D01*
X91186D01*
X84963Y18440D02*
Y18669D01*
Y23749D02*
Y23978D01*
X84201Y18669D02*
X84963D01*
X84201D02*
Y23749D01*
X85725D01*
Y18669D02*
Y23749D01*
X84963Y18669D02*
X85725D01*
X78359Y23622D02*
Y23851D01*
Y18313D02*
Y18542D01*
Y23622D02*
X79121D01*
Y18542D02*
Y23622D01*
X77597Y18542D02*
X79121D01*
X77597D02*
Y23622D01*
X78359D01*
X81280Y18567D02*
Y18796D01*
Y23876D02*
Y24105D01*
X80518Y18796D02*
X81280D01*
X80518D02*
Y23876D01*
X82042D01*
Y18796D02*
Y23876D01*
X81280Y18796D02*
X82042D01*
X52070Y23622D02*
Y23851D01*
Y18313D02*
Y18542D01*
Y23622D02*
X52832D01*
Y18542D02*
Y23622D01*
X51308Y18542D02*
X52832D01*
X51308D02*
Y23622D01*
X52070D01*
X48895Y18313D02*
Y18542D01*
Y23622D02*
Y23851D01*
X48133Y18542D02*
X48895D01*
X48133D02*
Y23622D01*
X49657D01*
Y18542D02*
Y23622D01*
X48895Y18542D02*
X49657D01*
X42291Y23622D02*
Y23851D01*
Y18313D02*
Y18542D01*
Y23622D02*
X43053D01*
Y18542D02*
Y23622D01*
X41529Y18542D02*
X43053D01*
X41529D02*
Y23622D01*
X42291D01*
X45720Y18542D02*
X45720Y18313D01*
X45720Y23851D02*
X45720Y23622D01*
X44958Y18542D02*
X45720D01*
X44958Y23622D02*
X44958Y18542D01*
X44958Y23622D02*
X46482D01*
X46482Y18542D01*
X45720D02*
X46482D01*
X56150Y18401D02*
X58150D01*
X56150D02*
Y23001D01*
X58150Y18401D02*
Y23001D01*
X26035Y18186D02*
Y18415D01*
Y23495D02*
Y23724D01*
X25273Y18415D02*
X26035D01*
X25273D02*
Y23495D01*
X26797D01*
Y18415D02*
Y23495D01*
X26035Y18415D02*
X26797D01*
X21860Y18528D02*
X23860D01*
X21860D02*
Y23128D01*
X23860Y18528D02*
Y23128D01*
X49530Y79502D02*
Y80264D01*
Y79502D02*
X54610D01*
Y81026D01*
X49530D02*
X54610D01*
X49530Y80264D02*
Y81026D01*
X54610Y80264D02*
X54839D01*
X49301D02*
X49530D01*
Y82550D02*
Y83312D01*
Y82550D02*
X54610D01*
Y84074D01*
X49530D02*
X54610D01*
X49530Y83312D02*
Y84074D01*
X54610Y83312D02*
X54839D01*
X49301D02*
X49530D01*
X76327Y30861D02*
Y31623D01*
Y30861D02*
X81407D01*
Y32385D01*
X76327D02*
X81407D01*
X76327Y31623D02*
Y32385D01*
X81407Y31623D02*
X81636D01*
X76098D02*
X76327D01*
X108143Y19259D02*
X110043D01*
X108143D02*
Y23159D01*
X110043Y19259D02*
Y23159D01*
X105156Y24003D02*
X105918D01*
X105156Y18923D02*
Y24003D01*
Y18923D02*
X106680D01*
Y24003D01*
X105918D02*
X106680D01*
X105918Y18694D02*
Y18923D01*
Y24003D02*
Y24232D01*
X76454Y27686D02*
Y28448D01*
Y27686D02*
X81534D01*
Y29210D01*
X76454D02*
X81534D01*
X76454Y28448D02*
Y29210D01*
X81534Y28448D02*
X81763D01*
X76225D02*
X76454D01*
X7366Y31242D02*
Y40132D01*
X3556D02*
X7366D01*
X3556Y31242D02*
Y40132D01*
Y31242D02*
X7366D01*
X92837Y19939D02*
Y22479D01*
X97917D01*
Y19939D02*
Y22479D01*
X92837Y19939D02*
X97917D01*
X102489Y17272D02*
Y18272D01*
X102989D01*
X103155Y18105D01*
Y17772D01*
X102989Y17605D01*
X102489D01*
X102822D02*
X103155Y17272D01*
X103489D02*
X103822D01*
X103655D01*
Y18272D01*
X103489Y18105D01*
X104322Y17272D02*
X104655D01*
X104488D01*
Y18272D01*
X104322Y18105D01*
X110871Y23660D02*
Y22660D01*
X111371D01*
X111537Y22827D01*
Y23494D01*
X111371Y23660D01*
X110871D01*
X111871Y22660D02*
X112204D01*
X112037D01*
Y23660D01*
X111871Y23494D01*
X77470Y32766D02*
Y33766D01*
X77970D01*
X78136Y33599D01*
Y33266D01*
X77970Y33099D01*
X77470D01*
X77803D02*
X78136Y32766D01*
X78470D02*
X78803D01*
X78636D01*
Y33766D01*
X78470Y33599D01*
X79303D02*
X79469Y33766D01*
X79803D01*
X79969Y33599D01*
Y32933D01*
X79803Y32766D01*
X79469D01*
X79303Y32933D01*
Y33599D01*
X77470Y29550D02*
Y30550D01*
X77970D01*
X78136Y30383D01*
Y30050D01*
X77970Y29883D01*
X77470D01*
X77803D02*
X78136Y29550D01*
X78470Y29717D02*
X78636Y29550D01*
X78970D01*
X79136Y29717D01*
Y30383D01*
X78970Y30550D01*
X78636D01*
X78470Y30383D01*
Y30216D01*
X78636Y30050D01*
X79136D01*
X57404Y82804D02*
Y83804D01*
X57904D01*
X58070Y83637D01*
Y83304D01*
X57904Y83137D01*
X57404D01*
X57737D02*
X58070Y82804D01*
X58404Y83637D02*
X58570Y83804D01*
X58904D01*
X59070Y83637D01*
Y83470D01*
X58904Y83304D01*
X59070Y83137D01*
Y82971D01*
X58904Y82804D01*
X58570D01*
X58404Y82971D01*
Y83137D01*
X58570Y83304D01*
X58404Y83470D01*
Y83637D01*
X58570Y83304D02*
X58904D01*
X57404Y79883D02*
Y80883D01*
X57904D01*
X58070Y80716D01*
Y80383D01*
X57904Y80216D01*
X57404D01*
X57737D02*
X58070Y79883D01*
X58404Y80883D02*
X59070D01*
Y80716D01*
X58404Y80050D01*
Y79883D01*
X73310Y33766D02*
X72977D01*
X73144D01*
Y32933D01*
X72977Y32766D01*
X72811D01*
X72644Y32933D01*
X74144Y32766D02*
Y33766D01*
X73644Y33266D01*
X74310D01*
X74643Y33766D02*
Y32766D01*
X75143D01*
X75310Y32933D01*
Y33099D01*
X75143Y33266D01*
X74643D01*
X75143D01*
X75310Y33432D01*
Y33599D01*
X75143Y33766D01*
X74643D01*
X21754Y27162D02*
Y26162D01*
X22254D01*
X22420Y26329D01*
Y26995D01*
X22254Y27162D01*
X21754D01*
X23420Y26162D02*
X22754D01*
X23420Y26828D01*
Y26995D01*
X23254Y27162D01*
X22920D01*
X22754Y26995D01*
X24548Y26162D02*
Y27162D01*
X25048D01*
X25214Y26995D01*
Y26662D01*
X25048Y26495D01*
X24548D01*
X24881D02*
X25214Y26162D01*
X26214D02*
X25548D01*
X26214Y26828D01*
Y26995D01*
X26048Y27162D01*
X25714D01*
X25548Y26995D01*
X26547D02*
X26714Y27162D01*
X27047D01*
X27214Y26995D01*
Y26329D01*
X27047Y26162D01*
X26714D01*
X26547Y26329D01*
Y26995D01*
X53848Y22082D02*
Y21082D01*
X54348D01*
X54514Y21249D01*
Y21915D01*
X54348Y22082D01*
X53848D01*
X54848Y21915D02*
X55014Y22082D01*
X55348D01*
X55514Y21915D01*
Y21748D01*
X55348Y21582D01*
X55181D01*
X55348D01*
X55514Y21415D01*
Y21249D01*
X55348Y21082D01*
X55014D01*
X54848Y21249D01*
X44577Y26035D02*
Y27035D01*
X45077D01*
X45243Y26868D01*
Y26535D01*
X45077Y26368D01*
X44577D01*
X44910D02*
X45243Y26035D01*
X45577D02*
X45910D01*
X45743D01*
Y27035D01*
X45577Y26868D01*
X46410D02*
X46576Y27035D01*
X46910D01*
X47076Y26868D01*
Y26701D01*
X46910Y26535D01*
X47076Y26368D01*
Y26202D01*
X46910Y26035D01*
X46576D01*
X46410Y26202D01*
Y26368D01*
X46576Y26535D01*
X46410Y26701D01*
Y26868D01*
X46576Y26535D02*
X46910D01*
X40767Y26162D02*
Y27162D01*
X41267D01*
X41433Y26995D01*
Y26662D01*
X41267Y26495D01*
X40767D01*
X41100D02*
X41433Y26162D01*
X41767D02*
X42100D01*
X41933D01*
Y27162D01*
X41767Y26995D01*
X42600Y26329D02*
X42766Y26162D01*
X43100D01*
X43266Y26329D01*
Y26995D01*
X43100Y27162D01*
X42766D01*
X42600Y26995D01*
Y26828D01*
X42766Y26662D01*
X43266D01*
X48133Y26162D02*
Y27162D01*
X48633D01*
X48799Y26995D01*
Y26662D01*
X48633Y26495D01*
X48133D01*
X48466D02*
X48799Y26162D01*
X49799D02*
X49133D01*
X49799Y26828D01*
Y26995D01*
X49633Y27162D01*
X49299D01*
X49133Y26995D01*
X50132Y26162D02*
X50466D01*
X50299D01*
Y27162D01*
X50132Y26995D01*
X51054Y26162D02*
Y27162D01*
X51554D01*
X51720Y26995D01*
Y26662D01*
X51554Y26495D01*
X51054D01*
X51387D02*
X51720Y26162D01*
X52720D02*
X52054D01*
X52720Y26828D01*
Y26995D01*
X52554Y27162D01*
X52220D01*
X52054Y26995D01*
X53720Y26162D02*
X53053D01*
X53720Y26828D01*
Y26995D01*
X53553Y27162D01*
X53220D01*
X53053Y26995D01*
X80137Y26162D02*
Y27162D01*
X80637D01*
X80803Y26995D01*
Y26662D01*
X80637Y26495D01*
X80137D01*
X80470D02*
X80803Y26162D01*
X81803D02*
X81137D01*
X81803Y26828D01*
Y26995D01*
X81637Y27162D01*
X81303D01*
X81137Y26995D01*
X82136D02*
X82303Y27162D01*
X82636D01*
X82803Y26995D01*
Y26828D01*
X82636Y26662D01*
X82470D01*
X82636D01*
X82803Y26495D01*
Y26329D01*
X82636Y26162D01*
X82303D01*
X82136Y26329D01*
X76454Y26162D02*
Y27162D01*
X76954D01*
X77120Y26995D01*
Y26662D01*
X76954Y26495D01*
X76454D01*
X76787D02*
X77120Y26162D01*
X78120D02*
X77454D01*
X78120Y26828D01*
Y26995D01*
X77954Y27162D01*
X77620D01*
X77454Y26995D01*
X78953Y26162D02*
Y27162D01*
X78453Y26662D01*
X79120D01*
X83820Y26162D02*
Y27162D01*
X84320D01*
X84486Y26995D01*
Y26662D01*
X84320Y26495D01*
X83820D01*
X84153D02*
X84486Y26162D01*
X85486D02*
X84820D01*
X85486Y26828D01*
Y26995D01*
X85320Y27162D01*
X84986D01*
X84820Y26995D01*
X86486Y27162D02*
X86153Y26995D01*
X85819Y26662D01*
Y26329D01*
X85986Y26162D01*
X86319D01*
X86486Y26329D01*
Y26495D01*
X86319Y26662D01*
X85819D01*
X86995Y20320D02*
Y21320D01*
X87495D01*
X87661Y21153D01*
Y20820D01*
X87495Y20653D01*
X86995D01*
X87328D02*
X87661Y20320D01*
X88661D02*
X87995D01*
X88661Y20986D01*
Y21153D01*
X88495Y21320D01*
X88161D01*
X87995Y21153D01*
X88994Y21320D02*
X89661D01*
Y21153D01*
X88994Y20487D01*
Y20320D01*
X62357Y21082D02*
Y22082D01*
X62857D01*
X63023Y21915D01*
Y21582D01*
X62857Y21415D01*
X62357D01*
X62690D02*
X63023Y21082D01*
X64023D02*
X63357D01*
X64023Y21748D01*
Y21915D01*
X63857Y22082D01*
X63523D01*
X63357Y21915D01*
X65023Y22082D02*
X64356D01*
Y21582D01*
X64690Y21748D01*
X64856D01*
X65023Y21582D01*
Y21249D01*
X64856Y21082D01*
X64523D01*
X64356Y21249D01*
X99187Y23876D02*
Y24876D01*
X99687D01*
X99853Y24709D01*
Y24376D01*
X99687Y24209D01*
X99187D01*
X99520D02*
X99853Y23876D01*
X100853D02*
X100187D01*
X100853Y24542D01*
Y24709D01*
X100687Y24876D01*
X100353D01*
X100187Y24709D01*
X19685Y62103D02*
Y63103D01*
X20185D01*
X20351Y62936D01*
Y62603D01*
X20185Y62436D01*
X19685D01*
X20018D02*
X20351Y62103D01*
X20685Y62936D02*
X20851Y63103D01*
X21185D01*
X21351Y62936D01*
Y62769D01*
X21185Y62603D01*
X21018D01*
X21185D01*
X21351Y62436D01*
Y62270D01*
X21185Y62103D01*
X20851D01*
X20685Y62270D01*
X21684Y62936D02*
X21851Y63103D01*
X22184D01*
X22351Y62936D01*
Y62769D01*
X22184Y62603D01*
X22018D01*
X22184D01*
X22351Y62436D01*
Y62270D01*
X22184Y62103D01*
X21851D01*
X21684Y62270D01*
X17399Y74930D02*
Y75930D01*
X17899D01*
X18065Y75763D01*
Y75430D01*
X17899Y75263D01*
X17399D01*
X17732D02*
X18065Y74930D01*
X18399D02*
X18732D01*
X18565D01*
Y75930D01*
X18399Y75763D01*
X19898Y74930D02*
X19232D01*
X19898Y75596D01*
Y75763D01*
X19732Y75930D01*
X19398D01*
X19232Y75763D01*
X13081Y73152D02*
Y74152D01*
X13581D01*
X13747Y73985D01*
Y73652D01*
X13581Y73485D01*
X13081D01*
X13414D02*
X13747Y73152D01*
X14081D02*
X14414D01*
X14247D01*
Y74152D01*
X14081Y73985D01*
X14914D02*
X15080Y74152D01*
X15414D01*
X15580Y73985D01*
Y73818D01*
X15414Y73652D01*
X15247D01*
X15414D01*
X15580Y73485D01*
Y73319D01*
X15414Y73152D01*
X15080D01*
X14914Y73319D01*
X6889Y43251D02*
X6723Y43418D01*
X6390D01*
X6223Y43251D01*
Y42585D01*
X6390Y42418D01*
X6723D01*
X6889Y42585D01*
X7223Y43251D02*
X7389Y43418D01*
X7723D01*
X7889Y43251D01*
Y43084D01*
X7723Y42918D01*
X7889Y42751D01*
Y42585D01*
X7723Y42418D01*
X7389D01*
X7223Y42585D01*
Y42751D01*
X7389Y42918D01*
X7223Y43084D01*
Y43251D01*
X7389Y42918D02*
X7723D01*
X5238Y30551D02*
X5072Y30718D01*
X4739D01*
X4572Y30551D01*
Y29885D01*
X4739Y29718D01*
X5072D01*
X5238Y29885D01*
X5572D02*
X5738Y29718D01*
X6072D01*
X6238Y29885D01*
Y30551D01*
X6072Y30718D01*
X5738D01*
X5572Y30551D01*
Y30384D01*
X5738Y30218D01*
X6238D01*
X4730Y47188D02*
X4564Y47355D01*
X4231D01*
X4064Y47188D01*
Y46522D01*
X4231Y46355D01*
X4564D01*
X4730Y46522D01*
X5064Y46355D02*
X5397D01*
X5230D01*
Y47355D01*
X5064Y47188D01*
X5897D02*
X6063Y47355D01*
X6397D01*
X6563Y47188D01*
Y46522D01*
X6397Y46355D01*
X6063D01*
X5897Y46522D01*
Y47188D01*
X6000Y55189D02*
X5834Y55356D01*
X5501D01*
X5334Y55189D01*
Y54523D01*
X5501Y54356D01*
X5834D01*
X6000Y54523D01*
X6334Y54356D02*
X6667D01*
X6500D01*
Y55356D01*
X6334Y55189D01*
X7167Y54356D02*
X7500D01*
X7333D01*
Y55356D01*
X7167Y55189D01*
X4095Y68397D02*
X3929Y68564D01*
X3596D01*
X3429Y68397D01*
Y67731D01*
X3596Y67564D01*
X3929D01*
X4095Y67731D01*
X4429Y67564D02*
X4762D01*
X4595D01*
Y68564D01*
X4429Y68397D01*
X5262D02*
X5428Y68564D01*
X5762D01*
X5928Y68397D01*
Y68230D01*
X5762Y68064D01*
X5595D01*
X5762D01*
X5928Y67897D01*
Y67731D01*
X5762Y67564D01*
X5428D01*
X5262Y67731D01*
D44*
X34006Y1750D02*
X35006Y750D01*
X33006D02*
X35006D01*
X33006D02*
X34006Y1750D01*
X19006Y1750D02*
X20006Y750D01*
X18006D02*
X20006D01*
X18006D02*
X19006Y1750D01*
X38580Y750D02*
X39580Y1750D01*
X38580Y750D02*
X40580D01*
X39580Y1750D02*
X40580Y750D01*
X53580D02*
X54580Y1750D01*
X53580Y750D02*
X55580D01*
X54580Y1750D02*
X55580Y750D01*
X75154Y1750D02*
X76154Y750D01*
X74154D02*
X76154D01*
X74154D02*
X75154Y1750D01*
X60154Y1750D02*
X61154Y750D01*
X59154D02*
X61154D01*
X59154D02*
X60154Y1750D01*
X79728Y750D02*
X80728Y1750D01*
X79728Y750D02*
X81728D01*
X80728Y1750D02*
X81728Y750D01*
X94728D02*
X95728Y1750D01*
X94728Y750D02*
X96728D01*
X95728Y1750D02*
X96728Y750D01*
X53299Y86435D02*
X53182Y86552D01*
X52949D01*
X52832Y86435D01*
Y85969D01*
X52949Y85852D01*
X53182D01*
X53299Y85969D01*
X53532Y86552D02*
Y85852D01*
X53765Y86085D01*
X53998Y85852D01*
Y86552D01*
X14437Y86562D02*
X14320Y86679D01*
X14087D01*
X13970Y86562D01*
Y86096D01*
X14087Y85979D01*
X14320D01*
X14437Y86096D01*
X14670Y86679D02*
Y85979D01*
X14903Y86212D01*
X15136Y85979D01*
Y86679D01*
D45*
X-1706Y74325D02*
X-1040D01*
X-1373Y74658D02*
Y73992D01*
X-889Y54348D02*
X-223D01*
X-556Y54681D02*
Y54015D01*
X7366Y40906D02*
X6366D01*
X6866Y40406D02*
Y41406D01*
D46*
X113030Y91889D02*
X113453D01*
X113242D01*
Y93159D01*
X113030Y92947D01*
X92202Y91889D02*
X92625D01*
X92414D01*
Y93159D01*
X92202Y92947D01*
X79585Y81397D02*
X80008D01*
X79797D01*
Y82667D01*
X79585Y82455D01*
X71882Y92143D02*
X72305D01*
X72094D01*
Y93413D01*
X71882Y93201D01*
X41783Y79756D02*
X42206D01*
X41995D01*
Y81026D01*
X41783Y80814D01*
Y88773D02*
X42206D01*
X41995D01*
Y90043D01*
X41783Y89831D01*
X69000Y34290D02*
X69423D01*
X69212D01*
Y35560D01*
X69000Y35348D01*
X33020Y53086D02*
X33443D01*
X33232D01*
Y54356D01*
X33020Y54144D01*
X48485Y34544D02*
X48908D01*
X48697D01*
Y35814D01*
X48485Y35602D01*
X114808Y34036D02*
X115231D01*
X115020D01*
Y35306D01*
X114808Y35094D01*
D47*
X34006Y-250D02*
D03*
X19006D02*
D03*
X39580D02*
D03*
X54580D02*
D03*
X75154D02*
D03*
X60154D02*
D03*
X80728D02*
D03*
X95728D02*
D03*
D48*
X57150Y22701D02*
D03*
X22860Y22828D02*
D03*
D49*
X109093Y22859D02*
D03*
M02*
