M48
;Layer_Color=9474304
;FILE_FORMAT=4:3
METRIC,LZ
;TYPE=PLATED
T1F00S00C0.350
T2F00S00C0.700
T3F00S00C0.762
T4F00S00C0.850
T5F00S00C0.900
T6F00S00C0.920
T7F00S00C1.000
T8F00S00C1.100
T9F00S00C1.300
T10F00S00C1.600
T11F00S00C2.300
%
T01
X0043434Y0040767
X0041275Y005461
T02
X0005461Y0033147
Y0038227
X0084328Y0080137
Y0082677
X004064Y0063119
Y0060579
X0005334Y0059944
Y0057404
Y0062865
Y0065405
X0006858Y0081407
X0009398
X0011938
T03
X0010033Y0021209
X0015113
Y0026289
X0010033
T04
X0026035Y0017145
Y0024765
X0042291Y0024892
X004572
X0048895
X005207
Y0017272
X0048895
X004572
X0042291
X0061214Y0017018
Y0024638
X0078359Y0024892
X008128Y0025146
X0084963Y0025019
X0082804Y0028448
X0082677Y0031623
X0075057
X0075184Y0028448
X0078359Y0017272
X008128Y0017526
X0084963Y0017399
X0091186Y0017145
Y0024765
X0105918Y0025273
Y0017653
X005588Y0080264
Y0083312
X004826
Y0080264
X001905Y0073406
Y0065786
X0014732Y0075946
Y0083566
T05
X010401Y000885
X010655
X010909
X011163
X01129Y001139
X011036
X010782
X010528
X0090768Y0003336
X0088228
X0085688
X0070194Y0003463
X0067654
X0065114
X004962Y0003717
X004708
X004454
X0029046Y0003463
X0026506
X0023966
X0012202Y0015233
X0009662
X0000381Y0021209
Y0023749
X0001524Y0051308
X0004064
X0024892Y0052197
X0035052Y005308
X0037592
Y005054
X0035052
Y0048
X0037592
Y004546
X0035052
Y004292
X0037592
X0044667Y004414
X0047207
X0049747
X0052287
X0054827
X0049747Y004922
X0047207
X0044667
Y005176
X0047207
X0049747
X004658Y0034417
Y0031877
X004404
Y0034417
X00415
Y0031877
X003896
Y0034417
X003642
Y0031877
X0037973Y0025019
Y0022479
Y0019939
Y0017399
X0030353
Y0019939
Y0022479
Y0025019
X002286Y0024728
Y0016928
X005715Y0016801
Y0024601
X0057023Y0031877
X0059563
X0062103
X0064643
X0067183
Y0034417
X0064643
X0062103
X0059563
X0057023
X0057367Y004414
X0059907
X0062447
X0064987
X0067527
X0070067
X0072607
X0075147
X0077687
X0080227
X0082767
X0085307
X0087847
X0090387
X0092927
X0092329Y0034417
X0089789
Y0031877
X0092329
X0094869
Y0034417
X009485Y0027051
X009231
X008977
X0094107Y0021209
X0073533Y002032
Y002286
Y00254
X0065913
Y002286
Y002032
Y001778
X0073533
X0074422Y0035433
X0076962
X0079502
X0082042
X0097409Y0034417
Y0031877
X0099949
Y0034417
X0102489
Y0031877
X0105029
Y0034417
X0107569
Y0031877
X0110109
Y0034417
X0112649
Y0031877
X0109093Y0024759
Y0017659
X0115697Y0018796
Y0021336
X0096647Y0021209
X009739Y0027051
X009993
X0100547Y004414
X0098007
X0095467
X0103087
X0105627
X0108167
X0110707
X0113247Y004668
Y004922
Y005176
Y00543
Y005684
Y005938
Y006192
Y006446
X0110707Y0067
X0108167
X0105627
X0103087
X0100547
X0098007
X0095467
X0097282Y0075057
X0099822
X0102362
X0104902
X0107442
X0109982
Y0082677
X0107442
X0104902
X0102362
X0099822
X0097282
X010092Y008973
X010346
X0106
X010854
X011108
Y009227
X010854
X0106
X010346
X010092
X009058
Y008973
X008804
Y009227
X00855
Y008973
X008296
Y009227
X008042
Y008973
X007008
Y009227
X006754
Y008973
X0065
Y009227
X006246
Y008973
X005992
Y009227
X006752Y008127
X007006
X00726
X007514
X007768
Y007873
X007514
X00726
X007006
X006752
X0067527Y0067
X0064987
X0062447
X0059907
X0057367
X0070067
X0072607
X0075147
X0077687
X0080227
X0082767
X0085307
X0087847
X0090387
X0092927
X0092202Y0075057
X0094742
X0089662
X0087122
Y0082677
X0089662
X0092202
X0094742
X0054991Y0076581
X0052451
X0049911
X0047371
X0047207Y0067
X0044667
Y006192
Y005938
Y005684
Y00543
X0047207
X0049747
Y005684
X0047207
Y005938
X0049747
Y006192
X0047207
X0052287
Y0067
X0049747
X0054827
X0040132Y0065786
X0037592
X0035052
X0032512
X0029972
X0027432
X0024892
X0022352
X0024892Y0062484
X0027432
X0029972
X0032512
X0035052
X0037846Y0062611
Y0060071
X0028575Y0057277
Y0054737
X0024892
Y0057277
Y0073406
X0022352
X0027432
X0029972
X0032512
X0035052
X0037592
X0040132
X003989Y0080391
Y0082931
X003735
Y0080391
X003481
Y0082931
X003227
Y0080391
X002973
Y0082931
X002719
Y0080391
X002465
Y0082931
X002211
Y0080391
Y0089535
X002465
X002719
X002973
X003227
X003481
X003735
X003989
Y0092075
X003735
X003481
X003227
X002973
X002719
X002465
X002211
X0004064Y0073025
X0001524
T06
X0007095Y0009073
Y0011073
X0009595
Y0009073
T07
X010183Y-000156
X010437
X011254
X011508
X0012573Y0038227
X0017653
X0047244Y0088392
X0052324
X0014224
X0009144
X0011684Y0093472
X0049784
T08
X00016Y0038227
Y0040767
Y0043307
Y0059227
Y0061767
Y0064307
T09
X0095728Y000875
X0093228Y001125
X0088228Y000875
X0083228Y001125
X0080728Y000875
X0075154
X0072654Y001125
X0067654Y000875
X0060154
X0062654Y001125
Y-000125
X0065154
X0070154
X0072654
X0083228
X0085728
X0090728
X0093228
X005208
X004958
X004458
X004208
X0031506
X0029006
X0024006
X0021506
X0019006Y000875
X0021506Y001125
X0026506Y000875
X0031506Y001125
X0034006Y000875
X003958
X004208Y001125
X004708Y000875
X005458
X005208Y001125
T10
X010058Y00058
X011633
T11
X0002325Y0006363
X0014365
M30
