%FSLAX43Y43*%
%MOMM*%
G71*
G01*
G75*
%ADD10O,0.600X2.300*%
%ADD11O,2.500X0.700*%
%ADD12R,1.400X1.200*%
%ADD13R,1.300X1.500*%
%ADD14R,1.500X0.600*%
%ADD15R,1.200X1.400*%
%ADD16R,1.400X1.500*%
%ADD17R,1.500X1.300*%
G04:AMPARAMS|DCode=18|XSize=2.1mm|YSize=1.4mm|CornerRadius=0.14mm|HoleSize=0mm|Usage=FLASHONLY|Rotation=0.000|XOffset=0mm|YOffset=0mm|HoleType=Round|Shape=RoundedRectangle|*
%AMROUNDEDRECTD18*
21,1,2.100,1.120,0,0,0.0*
21,1,1.820,1.400,0,0,0.0*
1,1,0.280,0.910,-0.560*
1,1,0.280,-0.910,-0.560*
1,1,0.280,-0.910,0.560*
1,1,0.280,0.910,0.560*
%
%ADD18ROUNDEDRECTD18*%
%ADD19R,2.400X3.300*%
%ADD20R,2.400X1.000*%
G04:AMPARAMS|DCode=21|XSize=2.7mm|YSize=0.7mm|CornerRadius=0.14mm|HoleSize=0mm|Usage=FLASHONLY|Rotation=270.000|XOffset=0mm|YOffset=0mm|HoleType=Round|Shape=RoundedRectangle|*
%AMROUNDEDRECTD21*
21,1,2.700,0.420,0,0,270.0*
21,1,2.420,0.700,0,0,270.0*
1,1,0.280,-0.210,-1.210*
1,1,0.280,-0.210,1.210*
1,1,0.280,0.210,1.210*
1,1,0.280,0.210,-1.210*
%
%ADD21ROUNDEDRECTD21*%
G04:AMPARAMS|DCode=22|XSize=1.8mm|YSize=1.6mm|CornerRadius=0.16mm|HoleSize=0mm|Usage=FLASHONLY|Rotation=90.000|XOffset=0mm|YOffset=0mm|HoleType=Round|Shape=RoundedRectangle|*
%AMROUNDEDRECTD22*
21,1,1.800,1.280,0,0,90.0*
21,1,1.480,1.600,0,0,90.0*
1,1,0.320,0.640,0.740*
1,1,0.320,0.640,-0.740*
1,1,0.320,-0.640,-0.740*
1,1,0.320,-0.640,0.740*
%
%ADD22ROUNDEDRECTD22*%
%ADD23C,0.305*%
%ADD24C,1.270*%
%ADD25C,0.635*%
%ADD26C,0.508*%
%ADD27O,1.600X0.800*%
%ADD28C,1.000*%
G04:AMPARAMS|DCode=29|XSize=1.8mm|YSize=1.2mm|CornerRadius=0.48mm|HoleSize=0mm|Usage=FLASHONLY|Rotation=270.000|XOffset=0mm|YOffset=0mm|HoleType=Round|Shape=RoundedRectangle|*
%AMROUNDEDRECTD29*
21,1,1.800,0.240,0,0,270.0*
21,1,0.840,1.200,0,0,270.0*
1,1,0.960,-0.120,-0.420*
1,1,0.960,-0.120,0.420*
1,1,0.960,0.120,0.420*
1,1,0.960,0.120,-0.420*
%
%ADD29ROUNDEDRECTD29*%
G04:AMPARAMS|DCode=30|XSize=1.6mm|YSize=1.2mm|CornerRadius=0.48mm|HoleSize=0mm|Usage=FLASHONLY|Rotation=270.000|XOffset=0mm|YOffset=0mm|HoleType=Round|Shape=RoundedRectangle|*
%AMROUNDEDRECTD30*
21,1,1.600,0.240,0,0,270.0*
21,1,0.640,1.200,0,0,270.0*
1,1,0.960,-0.120,-0.320*
1,1,0.960,-0.120,0.320*
1,1,0.960,0.120,0.320*
1,1,0.960,0.120,-0.320*
%
%ADD30ROUNDEDRECTD30*%
%ADD31R,1.500X1.500*%
%ADD32C,1.500*%
%ADD33R,1.500X1.500*%
%ADD34C,1.400*%
%ADD35C,1.350*%
%ADD36R,1.350X1.350*%
G04:AMPARAMS|DCode=37|XSize=1.6mm|YSize=1mm|CornerRadius=0.25mm|HoleSize=0mm|Usage=FLASHONLY|Rotation=270.000|XOffset=0mm|YOffset=0mm|HoleType=Round|Shape=RoundedRectangle|*
%AMROUNDEDRECTD37*
21,1,1.600,0.500,0,0,270.0*
21,1,1.100,1.000,0,0,270.0*
1,1,0.500,-0.250,-0.550*
1,1,0.500,-0.250,0.550*
1,1,0.500,0.250,0.550*
1,1,0.500,0.250,-0.550*
%
%ADD37ROUNDEDRECTD37*%
%ADD38C,1.500*%
%ADD39R,1.500X1.500*%
G04:AMPARAMS|DCode=40|XSize=2.4mm|YSize=1.2mm|CornerRadius=0.54mm|HoleSize=0mm|Usage=FLASHONLY|Rotation=270.000|XOffset=0mm|YOffset=0mm|HoleType=Round|Shape=RoundedRectangle|*
%AMROUNDEDRECTD40*
21,1,2.400,0.120,0,0,270.0*
21,1,1.320,1.200,0,0,270.0*
1,1,1.080,-0.060,-0.660*
1,1,1.080,-0.060,0.660*
1,1,1.080,0.060,0.660*
1,1,1.080,0.060,-0.660*
%
%ADD40ROUNDEDRECTD40*%
%ADD41C,0.762*%
%ADD42C,0.457*%
%ADD43C,1.270*%
%ADD44C,0.200*%
%ADD45C,0.250*%
%ADD46C,0.600*%
%ADD47C,0.100*%
%ADD48C,0.102*%
%ADD49C,0.203*%
G36*
X90983Y63049D02*
X90994Y63047D01*
X91006Y63046D01*
X91030Y63040D01*
X91031D01*
X91035Y63039D01*
X91041Y63036D01*
X91048Y63033D01*
X91066Y63025D01*
X91086Y63013D01*
X91087Y63012D01*
X91090Y63011D01*
X91094Y63006D01*
X91101Y63002D01*
X91116Y62989D01*
X91130Y62972D01*
X91131Y62971D01*
X91132Y62968D01*
X91137Y62963D01*
X91141Y62957D01*
X91145Y62949D01*
X91151Y62939D01*
X91161Y62917D01*
Y62916D01*
X91162Y62912D01*
X91165Y62906D01*
X91168Y62898D01*
X91170Y62889D01*
X91175Y62878D01*
X91180Y62853D01*
Y62851D01*
X91182Y62847D01*
Y62840D01*
X91183Y62830D01*
X91185Y62819D01*
Y62805D01*
X91186Y62791D01*
Y62774D01*
Y62568D01*
Y62565D01*
X91185Y62559D01*
X91182Y62551D01*
X91178Y62541D01*
X91176Y62540D01*
X91169Y62535D01*
X91159Y62531D01*
X91144Y62530D01*
X90437D01*
X90429Y62531D01*
X90418Y62534D01*
X90408Y62541D01*
X90406Y62544D01*
X90402Y62550D01*
X90399Y62558D01*
X90398Y62568D01*
Y62748D01*
Y62750D01*
Y62751D01*
Y62760D01*
Y62774D01*
X90399Y62789D01*
X90401Y62808D01*
X90404Y62827D01*
X90408Y62846D01*
X90412Y62864D01*
Y62865D01*
X90415Y62871D01*
X90418Y62879D01*
X90422Y62891D01*
X90435Y62915D01*
X90443Y62927D01*
X90452Y62939D01*
X90453Y62940D01*
X90456Y62944D01*
X90461Y62950D01*
X90468Y62956D01*
X90478Y62964D01*
X90490Y62971D01*
X90501Y62978D01*
X90515Y62985D01*
X90516Y62987D01*
X90522Y62988D01*
X90529Y62991D01*
X90539Y62994D01*
X90552Y62996D01*
X90566Y62998D01*
X90581Y63001D01*
X90608D01*
X90615Y62999D01*
X90632Y62998D01*
X90652Y62994D01*
X90653D01*
X90656Y62992D01*
X90662Y62991D01*
X90667Y62988D01*
X90683Y62982D01*
X90700Y62972D01*
X90701D01*
X90702Y62970D01*
X90712Y62964D01*
X90725Y62954D01*
X90738Y62940D01*
Y62939D01*
X90741Y62937D01*
X90743Y62933D01*
X90748Y62927D01*
X90756Y62913D01*
X90766Y62895D01*
Y62896D01*
X90767Y62901D01*
X90769Y62906D01*
X90770Y62915D01*
X90777Y62934D01*
X90788Y62956D01*
Y62957D01*
X90791Y62960D01*
X90794Y62965D01*
X90800Y62972D01*
X90812Y62988D01*
X90829Y63003D01*
X90831Y63005D01*
X90834Y63008D01*
X90839Y63011D01*
X90846Y63016D01*
X90855Y63020D01*
X90865Y63026D01*
X90889Y63037D01*
X90890D01*
X90894Y63039D01*
X90901Y63042D01*
X90910Y63044D01*
X90921Y63046D01*
X90932Y63049D01*
X90960Y63050D01*
X90975D01*
X90983Y63049D01*
D02*
G37*
G36*
X90915Y63706D02*
X90931Y63704D01*
X90951Y63703D01*
X90970Y63700D01*
X90993Y63694D01*
X91014Y63689D01*
X91017Y63687D01*
X91024Y63686D01*
X91034Y63682D01*
X91048Y63674D01*
X91062Y63667D01*
X91079Y63659D01*
X91096Y63648D01*
X91111Y63635D01*
X91113Y63634D01*
X91118Y63629D01*
X91125Y63621D01*
X91134Y63611D01*
X91145Y63598D01*
X91155Y63584D01*
X91165Y63567D01*
X91175Y63548D01*
X91176Y63545D01*
X91178Y63538D01*
X91182Y63528D01*
X91186Y63512D01*
X91190Y63495D01*
X91193Y63474D01*
X91196Y63452D01*
X91197Y63426D01*
Y63425D01*
Y63424D01*
Y63415D01*
X91196Y63402D01*
X91194Y63387D01*
X91193Y63367D01*
X91189Y63347D01*
X91185Y63328D01*
X91178Y63308D01*
X91176Y63305D01*
X91173Y63300D01*
X91169Y63290D01*
X91163Y63278D01*
X91155Y63266D01*
X91145Y63252D01*
X91132Y63237D01*
X91120Y63223D01*
X91118Y63222D01*
X91113Y63218D01*
X91104Y63212D01*
X91094Y63205D01*
X91080Y63197D01*
X91065Y63190D01*
X91046Y63181D01*
X91027Y63174D01*
X91024D01*
X91017Y63171D01*
X91006Y63170D01*
X90990Y63167D01*
X90972Y63164D01*
X90951Y63161D01*
X90928Y63160D01*
X90903Y63159D01*
X90891D01*
X90879Y63160D01*
X90862Y63161D01*
X90842Y63163D01*
X90822Y63166D01*
X90800Y63170D01*
X90779Y63175D01*
X90776Y63177D01*
X90769Y63178D01*
X90759Y63183D01*
X90745Y63188D01*
X90731Y63195D01*
X90714Y63205D01*
X90697Y63215D01*
X90681Y63228D01*
X90680Y63229D01*
X90674Y63235D01*
X90667Y63242D01*
X90657Y63252D01*
X90647Y63264D01*
X90638Y63280D01*
X90626Y63297D01*
X90618Y63315D01*
X90616Y63318D01*
X90614Y63325D01*
X90611Y63335D01*
X90607Y63350D01*
X90602Y63369D01*
X90598Y63388D01*
X90597Y63412D01*
X90595Y63438D01*
Y63439D01*
Y63440D01*
Y63449D01*
X90597Y63462D01*
X90598Y63477D01*
X90601Y63495D01*
X90604Y63515D01*
X90609Y63535D01*
X90616Y63555D01*
X90618Y63557D01*
X90621Y63563D01*
X90625Y63573D01*
X90631Y63584D01*
X90639Y63598D01*
X90649Y63612D01*
X90660Y63627D01*
X90674Y63639D01*
X90676Y63641D01*
X90681Y63645D01*
X90690Y63651D01*
X90700Y63659D01*
X90714Y63666D01*
X90729Y63674D01*
X90748Y63683D01*
X90767Y63690D01*
X90770Y63691D01*
X90777Y63693D01*
X90788Y63696D01*
X90804Y63698D01*
X90822Y63701D01*
X90843Y63704D01*
X90866Y63707D01*
X90903D01*
X90915Y63706D01*
D02*
G37*
G36*
X91180Y56145D02*
X91182Y56144D01*
X91186Y56137D01*
Y56135D01*
X91187Y56133D01*
Y56128D01*
X91189Y56121D01*
Y56120D01*
Y56114D01*
X91190Y56107D01*
Y56097D01*
Y56095D01*
Y56089D01*
Y56080D01*
X91189Y56072D01*
Y56071D01*
X91187Y56066D01*
Y56061D01*
X91186Y56056D01*
Y56055D01*
X91185Y56054D01*
X91180Y56048D01*
X91178D01*
X91172Y56047D01*
X90827D01*
X90818Y56045D01*
X90797Y56044D01*
X90776Y56040D01*
X90774D01*
X90770Y56038D01*
X90766Y56037D01*
X90759Y56035D01*
X90742Y56028D01*
X90726Y56020D01*
X90725D01*
X90722Y56017D01*
X90714Y56011D01*
X90704Y56000D01*
X90694Y55986D01*
Y55985D01*
X90693Y55982D01*
X90690Y55978D01*
X90688Y55972D01*
X90684Y55956D01*
X90683Y55938D01*
Y55937D01*
Y55932D01*
X90684Y55925D01*
X90686Y55916D01*
X90690Y55906D01*
X90694Y55893D01*
X90701Y55880D01*
X90711Y55868D01*
X90712Y55866D01*
X90715Y55862D01*
X90722Y55855D01*
X90731Y55845D01*
X90742Y55834D01*
X90755Y55821D01*
X90770Y55807D01*
X90788Y55791D01*
X91175D01*
X91180Y55789D01*
X91182Y55787D01*
X91186Y55780D01*
Y55779D01*
X91187Y55776D01*
Y55772D01*
X91189Y55765D01*
Y55763D01*
Y55758D01*
X91190Y55751D01*
Y55741D01*
Y55738D01*
Y55732D01*
Y55725D01*
X91189Y55717D01*
Y55715D01*
X91187Y55711D01*
Y55705D01*
X91186Y55701D01*
Y55700D01*
X91185Y55698D01*
X91180Y55693D01*
X91178D01*
X91172Y55691D01*
X90827D01*
X90818Y55690D01*
X90797Y55689D01*
X90776Y55684D01*
X90774D01*
X90770Y55683D01*
X90766Y55681D01*
X90759Y55679D01*
X90742Y55673D01*
X90726Y55663D01*
X90725D01*
X90722Y55660D01*
X90714Y55655D01*
X90704Y55643D01*
X90694Y55629D01*
Y55628D01*
X90693Y55627D01*
X90690Y55622D01*
X90688Y55617D01*
X90684Y55601D01*
X90683Y55581D01*
Y55580D01*
Y55576D01*
X90684Y55569D01*
X90686Y55559D01*
X90690Y55549D01*
X90694Y55536D01*
X90701Y55524D01*
X90711Y55511D01*
X90712Y55510D01*
X90715Y55505D01*
X90722Y55498D01*
X90731Y55488D01*
X90742Y55477D01*
X90755Y55464D01*
X90770Y55450D01*
X90788Y55435D01*
X91175D01*
X91180Y55432D01*
X91182Y55431D01*
X91186Y55424D01*
Y55422D01*
X91187Y55419D01*
Y55415D01*
X91189Y55408D01*
Y55407D01*
Y55402D01*
X91190Y55394D01*
Y55384D01*
Y55381D01*
Y55376D01*
Y55367D01*
X91189Y55359D01*
Y55357D01*
X91187Y55354D01*
X91186Y55345D01*
Y55343D01*
X91185Y55342D01*
X91180Y55336D01*
X91178D01*
X91172Y55335D01*
X90621D01*
X90615Y55336D01*
X90614Y55338D01*
X90611Y55340D01*
X90609Y55343D01*
Y55345D01*
X90608Y55347D01*
X90607Y55352D01*
X90605Y55357D01*
Y55359D01*
X90604Y55363D01*
Y55370D01*
Y55380D01*
Y55383D01*
Y55387D01*
Y55394D01*
X90605Y55401D01*
Y55402D01*
X90607Y55407D01*
X90608Y55411D01*
X90609Y55415D01*
Y55416D01*
X90611Y55418D01*
X90612Y55421D01*
X90615Y55422D01*
X90616Y55424D01*
X90624Y55425D01*
X90695D01*
X90693Y55426D01*
X90687Y55433D01*
X90679Y55442D01*
X90667Y55453D01*
X90655Y55466D01*
X90642Y55481D01*
X90631Y55497D01*
X90621Y55514D01*
X90619Y55515D01*
X90616Y55521D01*
X90612Y55531D01*
X90608Y55542D01*
X90604Y55555D01*
X90600Y55570D01*
X90597Y55586D01*
X90595Y55603D01*
Y55604D01*
Y55608D01*
Y55615D01*
X90597Y55622D01*
X90598Y55642D01*
X90604Y55663D01*
Y55665D01*
X90605Y55667D01*
X90607Y55673D01*
X90609Y55680D01*
X90616Y55696D01*
X90626Y55711D01*
Y55713D01*
X90629Y55715D01*
X90636Y55724D01*
X90646Y55735D01*
X90660Y55746D01*
X90662Y55748D01*
X90663Y55749D01*
X90667Y55752D01*
X90673Y55755D01*
X90687Y55763D01*
X90704Y55772D01*
X90702Y55773D01*
X90698Y55776D01*
X90694Y55782D01*
X90687Y55789D01*
X90670Y55804D01*
X90655Y55822D01*
X90653Y55824D01*
X90650Y55827D01*
X90647Y55832D01*
X90642Y55838D01*
X90632Y55853D01*
X90621Y55870D01*
Y55872D01*
X90618Y55875D01*
X90616Y55879D01*
X90614Y55884D01*
X90608Y55900D01*
X90602Y55916D01*
Y55917D01*
X90601Y55920D01*
X90600Y55924D01*
X90598Y55930D01*
X90597Y55942D01*
X90595Y55959D01*
Y55962D01*
Y55968D01*
X90597Y55978D01*
X90598Y55990D01*
X90600Y56004D01*
X90604Y56020D01*
X90608Y56034D01*
X90615Y56048D01*
X90616Y56049D01*
X90618Y56054D01*
X90622Y56061D01*
X90628Y56069D01*
X90635Y56078D01*
X90643Y56087D01*
X90653Y56097D01*
X90664Y56106D01*
X90666Y56107D01*
X90670Y56110D01*
X90677Y56113D01*
X90686Y56119D01*
X90695Y56124D01*
X90708Y56128D01*
X90722Y56134D01*
X90738Y56138D01*
X90739D01*
X90745Y56140D01*
X90753Y56141D01*
X90765Y56144D01*
X90777Y56145D01*
X90791Y56147D01*
X90825Y56148D01*
X91175D01*
X91180Y56145D01*
D02*
G37*
G36*
X91163Y55174D02*
X91165D01*
X91168Y55173D01*
X91176Y55168D01*
X91178D01*
X91179Y55167D01*
X91185Y55161D01*
Y55160D01*
X91186Y55153D01*
Y54775D01*
Y54772D01*
X91185Y54767D01*
X91182Y54758D01*
X91178Y54748D01*
X91176Y54747D01*
X91169Y54743D01*
X91159Y54738D01*
X91144Y54737D01*
X90437D01*
X90429Y54738D01*
X90418Y54741D01*
X90408Y54748D01*
X90406Y54751D01*
X90402Y54757D01*
X90399Y54765D01*
X90398Y54775D01*
Y55150D01*
Y55151D01*
Y55153D01*
X90401Y55159D01*
Y55160D01*
X90402Y55161D01*
X90409Y55164D01*
X90411D01*
X90413Y55166D01*
X90418Y55167D01*
X90423Y55168D01*
X90425D01*
X90429Y55170D01*
X90435Y55171D01*
X90450D01*
X90456Y55170D01*
X90463Y55168D01*
X90464D01*
X90467Y55167D01*
X90477Y55164D01*
X90480Y55163D01*
X90484Y55159D01*
Y55156D01*
X90485Y55150D01*
Y54841D01*
X90732D01*
Y55105D01*
Y55106D01*
Y55108D01*
X90735Y55113D01*
Y55115D01*
X90736Y55116D01*
X90743Y55120D01*
X90745D01*
X90746Y55122D01*
X90750Y55123D01*
X90756Y55125D01*
X90757D01*
X90762Y55126D01*
X90788D01*
X90796Y55125D01*
X90797D01*
X90800Y55123D01*
X90804Y55122D01*
X90808Y55120D01*
X90811Y55119D01*
X90815Y55113D01*
Y55111D01*
X90817Y55105D01*
Y54841D01*
X91099D01*
Y55153D01*
Y55154D01*
Y55156D01*
X91101Y55161D01*
Y55163D01*
X91103Y55164D01*
X91110Y55168D01*
X91111Y55170D01*
X91113Y55171D01*
X91117Y55173D01*
X91123Y55174D01*
X91124D01*
X91128Y55175D01*
X91156D01*
X91163Y55174D01*
D02*
G37*
G36*
X91180Y64265D02*
X91183Y64262D01*
Y64261D01*
X91185Y64260D01*
X91186Y64255D01*
X91187Y64248D01*
Y64247D01*
X91189Y64243D01*
X91190Y64234D01*
Y64224D01*
Y64221D01*
Y64216D01*
X91189Y64207D01*
X91187Y64199D01*
Y64198D01*
X91186Y64193D01*
X91185Y64189D01*
X91183Y64185D01*
X91180Y64183D01*
X91178Y64182D01*
X91173Y64181D01*
X91118D01*
X91120Y64179D01*
X91124Y64175D01*
X91131Y64166D01*
X91139Y64158D01*
X91149Y64145D01*
X91159Y64131D01*
X91169Y64117D01*
X91178Y64100D01*
X91179Y64099D01*
X91180Y64093D01*
X91183Y64083D01*
X91187Y64072D01*
X91192Y64058D01*
X91194Y64042D01*
X91196Y64026D01*
X91197Y64007D01*
Y64006D01*
Y64000D01*
Y63992D01*
X91196Y63980D01*
X91194Y63969D01*
X91193Y63955D01*
X91186Y63928D01*
Y63927D01*
X91185Y63923D01*
X91182Y63916D01*
X91179Y63909D01*
X91169Y63889D01*
X91155Y63869D01*
X91154Y63868D01*
X91151Y63865D01*
X91147Y63861D01*
X91139Y63855D01*
X91132Y63849D01*
X91123Y63842D01*
X91101Y63831D01*
X91100D01*
X91096Y63830D01*
X91090Y63827D01*
X91080Y63825D01*
X91070Y63823D01*
X91059Y63820D01*
X91031Y63818D01*
X91024D01*
X91015Y63820D01*
X91004Y63821D01*
X90991Y63823D01*
X90979Y63827D01*
X90965Y63831D01*
X90952Y63837D01*
X90951Y63838D01*
X90946Y63839D01*
X90939Y63844D01*
X90931Y63851D01*
X90922Y63858D01*
X90913Y63868D01*
X90903Y63877D01*
X90894Y63890D01*
X90893Y63892D01*
X90890Y63897D01*
X90886Y63904D01*
X90882Y63914D01*
X90876Y63927D01*
X90870Y63941D01*
X90865Y63958D01*
X90860Y63976D01*
Y63979D01*
X90859Y63986D01*
X90856Y63996D01*
X90855Y64010D01*
X90852Y64027D01*
X90850Y64047D01*
X90849Y64069D01*
Y64092D01*
Y64168D01*
X90796D01*
X90788Y64166D01*
X90770Y64165D01*
X90752Y64161D01*
X90750D01*
X90748Y64159D01*
X90743Y64158D01*
X90738Y64155D01*
X90724Y64148D01*
X90711Y64138D01*
X90710D01*
X90708Y64135D01*
X90701Y64128D01*
X90693Y64116D01*
X90686Y64100D01*
Y64099D01*
X90684Y64096D01*
X90683Y64090D01*
X90681Y64085D01*
X90680Y64076D01*
X90679Y64066D01*
X90677Y64042D01*
Y64041D01*
Y64035D01*
Y64028D01*
X90679Y64020D01*
X90681Y63997D01*
X90687Y63975D01*
Y63973D01*
X90688Y63971D01*
X90690Y63965D01*
X90693Y63958D01*
X90698Y63941D01*
X90707Y63924D01*
Y63923D01*
X90708Y63920D01*
X90710Y63916D01*
X90712Y63911D01*
X90718Y63899D01*
X90725Y63886D01*
X90726Y63883D01*
X90729Y63877D01*
X90732Y63870D01*
X90733Y63865D01*
Y63863D01*
Y63862D01*
X90732Y63855D01*
X90731Y63854D01*
X90725Y63849D01*
X90724D01*
X90721Y63848D01*
X90712Y63845D01*
X90679D01*
X90671Y63846D01*
X90670D01*
X90666Y63849D01*
X90660Y63852D01*
X90655Y63856D01*
X90653Y63858D01*
X90649Y63863D01*
X90643Y63872D01*
X90636Y63885D01*
Y63886D01*
X90635Y63889D01*
X90632Y63893D01*
X90629Y63899D01*
X90624Y63913D01*
X90616Y63931D01*
Y63932D01*
X90615Y63935D01*
X90614Y63941D01*
X90611Y63948D01*
X90609Y63956D01*
X90607Y63966D01*
X90602Y63989D01*
Y63990D01*
X90601Y63994D01*
X90600Y64000D01*
X90598Y64009D01*
Y64017D01*
X90597Y64028D01*
X90595Y64051D01*
Y64054D01*
Y64061D01*
Y64072D01*
X90597Y64086D01*
X90598Y64102D01*
X90601Y64119D01*
X90605Y64135D01*
X90609Y64151D01*
Y64152D01*
X90612Y64158D01*
X90615Y64165D01*
X90619Y64175D01*
X90632Y64198D01*
X90640Y64209D01*
X90649Y64219D01*
X90650Y64220D01*
X90653Y64223D01*
X90659Y64227D01*
X90666Y64233D01*
X90676Y64238D01*
X90687Y64245D01*
X90700Y64251D01*
X90714Y64255D01*
X90715D01*
X90721Y64257D01*
X90728Y64260D01*
X90739Y64262D01*
X90752Y64264D01*
X90767Y64267D01*
X90784Y64268D01*
X91178D01*
X91180Y64265D01*
D02*
G37*
G36*
X91182Y65355D02*
X91183Y65353D01*
X91186Y65346D01*
Y65345D01*
X91187Y65344D01*
Y65339D01*
X91189Y65334D01*
Y65332D01*
Y65328D01*
X91190Y65321D01*
Y65313D01*
Y65311D01*
Y65306D01*
Y65298D01*
X91189Y65291D01*
Y65290D01*
X91187Y65287D01*
X91186Y65277D01*
Y65276D01*
X91185Y65275D01*
X91180Y65269D01*
X91178D01*
X91172Y65267D01*
X91099D01*
X91100Y65266D01*
X91106Y65260D01*
X91114Y65251D01*
X91125Y65239D01*
X91137Y65227D01*
X91149Y65211D01*
X91161Y65194D01*
X91172Y65177D01*
X91173Y65176D01*
X91176Y65169D01*
X91180Y65160D01*
X91185Y65148D01*
X91189Y65132D01*
X91193Y65115D01*
X91196Y65095D01*
X91197Y65076D01*
Y65073D01*
Y65066D01*
X91196Y65055D01*
X91194Y65040D01*
X91192Y65024D01*
X91187Y65007D01*
X91182Y64988D01*
X91175Y64971D01*
X91173Y64970D01*
X91170Y64964D01*
X91165Y64957D01*
X91158Y64947D01*
X91149Y64936D01*
X91138Y64925D01*
X91125Y64914D01*
X91111Y64902D01*
X91110Y64901D01*
X91104Y64898D01*
X91096Y64894D01*
X91085Y64888D01*
X91072Y64883D01*
X91055Y64876D01*
X91038Y64870D01*
X91018Y64864D01*
X91015D01*
X91008Y64863D01*
X90997Y64861D01*
X90983Y64859D01*
X90966Y64857D01*
X90946Y64854D01*
X90927Y64853D01*
X90893D01*
X90879Y64854D01*
X90862D01*
X90842Y64856D01*
X90821Y64859D01*
X90777Y64867D01*
X90774Y64869D01*
X90767Y64870D01*
X90757Y64874D01*
X90743Y64878D01*
X90728Y64885D01*
X90712Y64892D01*
X90695Y64902D01*
X90680Y64912D01*
X90679Y64914D01*
X90673Y64918D01*
X90666Y64923D01*
X90657Y64932D01*
X90646Y64943D01*
X90636Y64956D01*
X90626Y64970D01*
X90618Y64986D01*
X90616Y64987D01*
X90614Y64994D01*
X90611Y65002D01*
X90607Y65015D01*
X90602Y65031D01*
X90598Y65048D01*
X90597Y65067D01*
X90595Y65088D01*
Y65091D01*
Y65097D01*
X90597Y65105D01*
X90598Y65118D01*
X90601Y65131D01*
X90604Y65146D01*
X90609Y65160D01*
X90616Y65176D01*
X90618Y65177D01*
X90621Y65183D01*
X90625Y65191D01*
X90632Y65201D01*
X90640Y65214D01*
X90652Y65227D01*
X90664Y65242D01*
X90679Y65256D01*
X90357D01*
X90353Y65258D01*
X90351D01*
X90350Y65260D01*
X90347Y65266D01*
Y65267D01*
X90346Y65270D01*
X90344Y65275D01*
X90343Y65282D01*
Y65283D01*
X90342Y65289D01*
X90340Y65296D01*
Y65306D01*
Y65307D01*
Y65308D01*
Y65314D01*
X90342Y65322D01*
X90343Y65331D01*
Y65332D01*
X90344Y65337D01*
X90346Y65342D01*
X90347Y65346D01*
Y65348D01*
X90349Y65349D01*
X90353Y65355D01*
X90354Y65356D01*
X90360Y65358D01*
X91175D01*
X91182Y65355D01*
D02*
G37*
G36*
X92456Y58634D02*
X92339D01*
Y58732D01*
X92456D01*
Y58634D01*
D02*
G37*
G36*
Y59309D02*
X92287Y59250D01*
Y58986D01*
X92456Y58927D01*
Y58845D01*
X91849Y59066D01*
Y59174D01*
X92456Y59396D01*
Y59309D01*
D02*
G37*
G36*
X90681Y64771D02*
X90686D01*
X90695Y64768D01*
X90697D01*
X90698Y64767D01*
X90704Y64764D01*
X90705Y64763D01*
X90707Y64757D01*
Y64756D01*
Y64753D01*
X90704Y64744D01*
Y64743D01*
X90702Y64740D01*
X90700Y64735D01*
X90698Y64729D01*
Y64728D01*
X90697Y64723D01*
X90694Y64718D01*
X90693Y64709D01*
Y64708D01*
X90691Y64702D01*
X90690Y64694D01*
Y64685D01*
Y64682D01*
X90691Y64675D01*
X90693Y64667D01*
X90697Y64656D01*
X90698Y64653D01*
X90701Y64647D01*
X90708Y64637D01*
X90717Y64625D01*
X90719Y64622D01*
X90726Y64615D01*
X90739Y64603D01*
X90755Y64591D01*
X90756Y64589D01*
X90759Y64588D01*
X90763Y64584D01*
X90770Y64580D01*
X90779Y64574D01*
X90788Y64568D01*
X90811Y64553D01*
X91175D01*
X91180Y64550D01*
X91182Y64549D01*
X91186Y64541D01*
Y64540D01*
X91187Y64537D01*
Y64533D01*
X91189Y64526D01*
Y64525D01*
Y64520D01*
X91190Y64512D01*
Y64502D01*
Y64499D01*
Y64494D01*
Y64485D01*
X91189Y64477D01*
Y64475D01*
X91187Y64472D01*
X91186Y64463D01*
Y64461D01*
X91185Y64460D01*
X91180Y64454D01*
X91178D01*
X91172Y64453D01*
X90621D01*
X90615Y64454D01*
X90614Y64455D01*
X90611Y64458D01*
X90609Y64461D01*
Y64463D01*
X90608Y64465D01*
X90607Y64470D01*
X90605Y64475D01*
Y64477D01*
X90604Y64481D01*
Y64488D01*
Y64498D01*
Y64501D01*
Y64505D01*
Y64512D01*
X90605Y64519D01*
Y64520D01*
X90607Y64525D01*
X90608Y64529D01*
X90609Y64533D01*
Y64534D01*
X90611Y64536D01*
X90612Y64539D01*
X90615Y64540D01*
X90616Y64541D01*
X90624Y64543D01*
X90704D01*
X90702Y64544D01*
X90698Y64547D01*
X90693Y64551D01*
X90684Y64557D01*
X90667Y64570D01*
X90650Y64585D01*
X90649Y64587D01*
X90646Y64588D01*
X90638Y64598D01*
X90628Y64609D01*
X90618Y64622D01*
Y64623D01*
X90616Y64625D01*
X90611Y64633D01*
X90605Y64644D01*
X90601Y64657D01*
Y64658D01*
X90600Y64660D01*
X90598Y64668D01*
X90597Y64680D01*
X90595Y64692D01*
Y64694D01*
Y64698D01*
Y64704D01*
X90597Y64711D01*
Y64712D01*
X90598Y64716D01*
X90600Y64723D01*
X90601Y64730D01*
Y64732D01*
X90602Y64737D01*
X90604Y64743D01*
X90607Y64750D01*
Y64752D01*
X90608Y64756D01*
X90609Y64760D01*
X90612Y64763D01*
Y64764D01*
X90614Y64766D01*
X90618Y64768D01*
X90619Y64770D01*
X90626D01*
X90628Y64771D01*
X90639D01*
X90643Y64773D01*
X90674D01*
X90681Y64771D01*
D02*
G37*
G36*
X91180Y62051D02*
X91182Y62049D01*
X91186Y62042D01*
Y62041D01*
X91187Y62038D01*
Y62034D01*
X91189Y62027D01*
Y62025D01*
Y62021D01*
X91190Y62012D01*
Y62003D01*
Y62000D01*
Y61994D01*
Y61986D01*
X91189Y61977D01*
Y61976D01*
X91187Y61973D01*
X91186Y61963D01*
Y61962D01*
X91185Y61960D01*
X91180Y61955D01*
X91178D01*
X91172Y61953D01*
X90834D01*
X90824Y61952D01*
X90800Y61950D01*
X90787Y61948D01*
X90776Y61945D01*
X90774D01*
X90770Y61943D01*
X90766Y61942D01*
X90759Y61939D01*
X90742Y61934D01*
X90726Y61924D01*
X90725D01*
X90722Y61921D01*
X90714Y61914D01*
X90704Y61903D01*
X90694Y61887D01*
Y61886D01*
X90693Y61883D01*
X90690Y61879D01*
X90688Y61873D01*
X90684Y61856D01*
X90683Y61836D01*
Y61835D01*
Y61829D01*
X90684Y61822D01*
X90686Y61812D01*
X90690Y61801D01*
X90694Y61788D01*
X90701Y61774D01*
X90711Y61760D01*
X90712Y61759D01*
X90715Y61753D01*
X90722Y61746D01*
X90731Y61736D01*
X90742Y61723D01*
X90755Y61711D01*
X90770Y61697D01*
X90788Y61681D01*
X91175D01*
X91180Y61678D01*
X91182Y61677D01*
X91186Y61670D01*
Y61668D01*
X91187Y61666D01*
Y61661D01*
X91189Y61654D01*
Y61653D01*
Y61649D01*
X91190Y61640D01*
Y61630D01*
Y61628D01*
Y61622D01*
Y61614D01*
X91189Y61605D01*
Y61604D01*
X91187Y61601D01*
X91186Y61591D01*
Y61590D01*
X91185Y61588D01*
X91180Y61583D01*
X91178D01*
X91172Y61581D01*
X90621D01*
X90615Y61583D01*
X90614Y61584D01*
X90611Y61587D01*
X90609Y61590D01*
Y61591D01*
X90608Y61594D01*
X90607Y61598D01*
X90605Y61604D01*
Y61605D01*
X90604Y61609D01*
Y61616D01*
Y61626D01*
Y61629D01*
Y61633D01*
Y61640D01*
X90605Y61647D01*
Y61649D01*
X90607Y61653D01*
X90608Y61657D01*
X90609Y61661D01*
Y61663D01*
X90611Y61664D01*
X90612Y61667D01*
X90615Y61668D01*
X90616Y61670D01*
X90624Y61671D01*
X90695D01*
X90693Y61674D01*
X90687Y61680D01*
X90679Y61688D01*
X90667Y61701D01*
X90655Y61714D01*
X90642Y61729D01*
X90631Y61746D01*
X90621Y61763D01*
X90619Y61766D01*
X90616Y61771D01*
X90612Y61780D01*
X90608Y61793D01*
X90604Y61807D01*
X90600Y61822D01*
X90597Y61839D01*
X90595Y61856D01*
Y61859D01*
Y61866D01*
X90597Y61876D01*
X90598Y61888D01*
X90600Y61903D01*
X90604Y61918D01*
X90608Y61934D01*
X90615Y61948D01*
X90616Y61949D01*
X90618Y61955D01*
X90622Y61960D01*
X90628Y61970D01*
X90635Y61979D01*
X90643Y61990D01*
X90653Y62000D01*
X90664Y62008D01*
X90666Y62010D01*
X90670Y62012D01*
X90677Y62017D01*
X90686Y62021D01*
X90695Y62027D01*
X90708Y62032D01*
X90722Y62038D01*
X90738Y62042D01*
X90739D01*
X90745Y62043D01*
X90753Y62046D01*
X90766Y62048D01*
X90780Y62051D01*
X90797Y62052D01*
X90817Y62053D01*
X91175D01*
X91180Y62051D01*
D02*
G37*
G36*
X91038Y58583D02*
X91048D01*
X91059Y58580D01*
X91072Y58577D01*
X91085Y58573D01*
X91097Y58567D01*
X91099D01*
X91103Y58564D01*
X91108Y58560D01*
X91116Y58556D01*
X91134Y58542D01*
X91152Y58523D01*
X91154Y58522D01*
X91156Y58518D01*
X91159Y58512D01*
X91165Y58505D01*
X91170Y58495D01*
X91176Y58483D01*
X91182Y58470D01*
X91186Y58456D01*
Y58454D01*
X91187Y58449D01*
X91189Y58440D01*
X91192Y58430D01*
X91193Y58418D01*
X91196Y58402D01*
X91197Y58385D01*
Y58368D01*
Y58367D01*
Y58363D01*
Y58357D01*
X91196Y58350D01*
X91194Y58332D01*
X91192Y58312D01*
Y58311D01*
X91190Y58308D01*
Y58304D01*
X91189Y58296D01*
X91186Y58282D01*
X91182Y58265D01*
Y58264D01*
X91180Y58263D01*
X91178Y58253D01*
X91173Y58242D01*
X91168Y58229D01*
X91166Y58226D01*
X91162Y58220D01*
X91158Y58213D01*
X91154Y58208D01*
X91152Y58206D01*
X91149Y58205D01*
X91144Y58202D01*
X91137Y58199D01*
X91135D01*
X91128Y58198D01*
X91120Y58196D01*
X91086D01*
X91083Y58198D01*
X91079D01*
X91075Y58199D01*
X91073D01*
X91072Y58201D01*
X91069Y58203D01*
X91068Y58205D01*
Y58206D01*
X91066Y58208D01*
X91065Y58213D01*
Y58215D01*
X91066Y58218D01*
X91068Y58223D01*
X91073Y58232D01*
X91075Y58234D01*
X91079Y58242D01*
X91085Y58251D01*
X91092Y58264D01*
Y58265D01*
X91093Y58268D01*
X91094Y58271D01*
X91097Y58277D01*
X91103Y58291D01*
X91110Y58309D01*
Y58311D01*
X91111Y58313D01*
X91113Y58319D01*
Y58328D01*
X91114Y58336D01*
X91116Y58347D01*
X91117Y58371D01*
Y58373D01*
Y58375D01*
Y58380D01*
Y58387D01*
X91116Y58401D01*
X91113Y58416D01*
Y58418D01*
X91111Y58421D01*
X91108Y58429D01*
X91104Y58440D01*
X91097Y58453D01*
Y58454D01*
X91096Y58456D01*
X91089Y58461D01*
X91080Y58470D01*
X91069Y58477D01*
X91068D01*
X91066Y58478D01*
X91058Y58481D01*
X91045Y58484D01*
X91030Y58485D01*
X91021D01*
X91017Y58484D01*
X91004Y58480D01*
X90991Y58473D01*
X90990D01*
X90989Y58471D01*
X90982Y58464D01*
X90972Y58454D01*
X90963Y58442D01*
Y58440D01*
X90960Y58439D01*
X90959Y58435D01*
X90956Y58429D01*
X90949Y58415D01*
X90942Y58398D01*
Y58397D01*
X90941Y58394D01*
X90938Y58390D01*
X90936Y58382D01*
X90929Y58367D01*
X90922Y58347D01*
Y58346D01*
X90921Y58343D01*
X90918Y58337D01*
X90915Y58332D01*
X90907Y58315D01*
X90898Y58296D01*
Y58295D01*
X90896Y58292D01*
X90893Y58288D01*
X90890Y58282D01*
X90880Y58268D01*
X90867Y58253D01*
X90866Y58251D01*
X90863Y58250D01*
X90860Y58246D01*
X90855Y58242D01*
X90841Y58232D01*
X90822Y58222D01*
X90821D01*
X90818Y58220D01*
X90812Y58219D01*
X90804Y58216D01*
X90796Y58215D01*
X90784Y58212D01*
X90759Y58210D01*
X90748D01*
X90739Y58212D01*
X90719Y58215D01*
X90697Y58222D01*
X90695D01*
X90691Y58225D01*
X90686Y58227D01*
X90679Y58232D01*
X90662Y58243D01*
X90645Y58258D01*
X90643Y58260D01*
X90640Y58263D01*
X90636Y58268D01*
X90632Y58275D01*
X90626Y58285D01*
X90621Y58295D01*
X90609Y58320D01*
Y58322D01*
X90607Y58328D01*
X90605Y58335D01*
X90602Y58346D01*
X90600Y58359D01*
X90598Y58374D01*
X90595Y58391D01*
Y58409D01*
Y58411D01*
Y58414D01*
Y58418D01*
Y58422D01*
X90597Y58436D01*
X90600Y58452D01*
Y58453D01*
Y58456D01*
X90601Y58460D01*
X90602Y58466D01*
X90605Y58478D01*
X90609Y58491D01*
Y58492D01*
X90611Y58494D01*
X90612Y58502D01*
X90616Y58512D01*
X90621Y58522D01*
X90622Y58525D01*
X90625Y58529D01*
X90628Y58535D01*
X90632Y58540D01*
Y58542D01*
X90635Y58545D01*
X90638Y58547D01*
X90640Y58549D01*
X90643Y58550D01*
X90649Y58552D01*
X90650D01*
X90652Y58553D01*
X90660Y58554D01*
X90662D01*
X90664Y58556D01*
X90688D01*
X90695Y58554D01*
X90697D01*
X90700Y58553D01*
X90707Y58550D01*
X90710Y58549D01*
X90714Y58546D01*
Y58545D01*
X90715Y58539D01*
Y58538D01*
X90714Y58535D01*
X90712Y58530D01*
X90710Y58523D01*
X90708Y58522D01*
X90705Y58516D01*
X90701Y58508D01*
X90695Y58497D01*
X90694Y58494D01*
X90690Y58487D01*
X90686Y58474D01*
X90680Y58459D01*
Y58457D01*
X90679Y58454D01*
X90677Y58450D01*
X90676Y58445D01*
X90674Y58428D01*
X90673Y58408D01*
Y58406D01*
Y58404D01*
Y58399D01*
X90674Y58392D01*
X90676Y58378D01*
X90680Y58363D01*
Y58361D01*
X90681Y58360D01*
X90684Y58351D01*
X90690Y58340D01*
X90697Y58330D01*
X90698Y58329D01*
X90704Y58323D01*
X90712Y58318D01*
X90722Y58312D01*
X90725Y58311D01*
X90731Y58309D01*
X90741Y58308D01*
X90753Y58306D01*
X90762D01*
X90767Y58308D01*
X90780Y58311D01*
X90794Y58318D01*
X90797Y58320D01*
X90804Y58326D01*
X90812Y58336D01*
X90822Y58349D01*
Y58350D01*
X90824Y58353D01*
X90827Y58356D01*
X90829Y58361D01*
X90836Y58375D01*
X90843Y58394D01*
Y58395D01*
X90845Y58398D01*
X90848Y58404D01*
X90849Y58409D01*
X90856Y58426D01*
X90863Y58445D01*
Y58446D01*
X90865Y58449D01*
X90867Y58454D01*
X90870Y58460D01*
X90877Y58477D01*
X90887Y58495D01*
Y58497D01*
X90890Y58499D01*
X90893Y58504D01*
X90896Y58511D01*
X90905Y58525D01*
X90918Y58540D01*
X90920Y58542D01*
X90921Y58543D01*
X90925Y58547D01*
X90929Y58552D01*
X90944Y58562D01*
X90962Y58571D01*
X90963D01*
X90966Y58573D01*
X90972Y58576D01*
X90979Y58578D01*
X90987Y58580D01*
X90999Y58583D01*
X91022Y58584D01*
X91030D01*
X91038Y58583D01*
D02*
G37*
G36*
X90886Y59194D02*
X90897Y59190D01*
X90907Y59183D01*
X90908Y59182D01*
X90911Y59176D01*
X90915Y59168D01*
X90917Y59156D01*
Y58796D01*
X90934D01*
X90945Y58797D01*
X90958D01*
X90972Y58800D01*
X91000Y58804D01*
X91001D01*
X91006Y58805D01*
X91013Y58808D01*
X91021Y58811D01*
X91042Y58821D01*
X91063Y58835D01*
X91065Y58836D01*
X91068Y58839D01*
X91072Y58843D01*
X91077Y58850D01*
X91085Y58858D01*
X91090Y58867D01*
X91103Y58890D01*
Y58891D01*
X91104Y58896D01*
X91107Y58904D01*
X91108Y58914D01*
X91111Y58927D01*
X91114Y58941D01*
X91116Y58956D01*
Y58975D01*
Y58976D01*
Y58982D01*
Y58989D01*
X91114Y58999D01*
X91113Y59021D01*
X91110Y59044D01*
Y59045D01*
X91108Y59049D01*
X91107Y59055D01*
X91106Y59062D01*
X91101Y59079D01*
X91096Y59097D01*
Y59099D01*
X91094Y59101D01*
X91090Y59110D01*
X91086Y59123D01*
X91082Y59134D01*
Y59135D01*
X91080Y59137D01*
X91077Y59142D01*
X91076Y59149D01*
X91075Y59156D01*
Y59158D01*
Y59159D01*
X91077Y59163D01*
Y59165D01*
X91079Y59166D01*
X91085Y59169D01*
X91086D01*
X91087Y59171D01*
X91096Y59172D01*
X91097D01*
X91100Y59173D01*
X91118D01*
X91128Y59172D01*
X91131D01*
X91139Y59171D01*
X91142Y59169D01*
X91148Y59166D01*
X91149Y59165D01*
X91154Y59162D01*
X91156Y59159D01*
X91159Y59152D01*
X91165Y59142D01*
Y59141D01*
X91166Y59139D01*
X91168Y59135D01*
X91169Y59131D01*
X91173Y59117D01*
X91179Y59099D01*
Y59097D01*
X91180Y59094D01*
X91182Y59089D01*
X91183Y59082D01*
X91185Y59073D01*
X91187Y59062D01*
X91192Y59038D01*
Y59037D01*
X91193Y59032D01*
Y59025D01*
X91194Y59017D01*
X91196Y59006D01*
Y58993D01*
X91197Y58965D01*
Y58963D01*
Y58962D01*
Y58953D01*
X91196Y58941D01*
X91194Y58925D01*
X91193Y58905D01*
X91189Y58886D01*
X91185Y58866D01*
X91179Y58846D01*
X91178Y58843D01*
X91176Y58838D01*
X91170Y58828D01*
X91165Y58817D01*
X91158Y58803D01*
X91148Y58788D01*
X91137Y58774D01*
X91124Y58760D01*
X91123Y58759D01*
X91117Y58755D01*
X91108Y58749D01*
X91099Y58741D01*
X91085Y58732D01*
X91069Y58724D01*
X91051Y58715D01*
X91031Y58708D01*
X91028D01*
X91021Y58705D01*
X91010Y58702D01*
X90993Y58700D01*
X90975Y58697D01*
X90952Y58694D01*
X90927Y58693D01*
X90900Y58691D01*
X90889D01*
X90874Y58693D01*
X90858Y58694D01*
X90838Y58695D01*
X90817Y58698D01*
X90794Y58702D01*
X90773Y58708D01*
X90770Y58710D01*
X90763Y58711D01*
X90753Y58715D01*
X90739Y58722D01*
X90725Y58729D01*
X90708Y58738D01*
X90693Y58749D01*
X90677Y58760D01*
X90676Y58762D01*
X90670Y58766D01*
X90663Y58774D01*
X90655Y58784D01*
X90645Y58796D01*
X90635Y58810D01*
X90625Y58827D01*
X90616Y58843D01*
X90615Y58846D01*
X90614Y58852D01*
X90609Y58862D01*
X90605Y58876D01*
X90602Y58891D01*
X90598Y58911D01*
X90597Y58931D01*
X90595Y58953D01*
Y58955D01*
Y58956D01*
Y58965D01*
X90597Y58976D01*
X90598Y58991D01*
X90601Y59008D01*
X90604Y59027D01*
X90609Y59045D01*
X90616Y59063D01*
X90618Y59065D01*
X90621Y59072D01*
X90625Y59080D01*
X90632Y59090D01*
X90639Y59101D01*
X90649Y59114D01*
X90660Y59127D01*
X90673Y59138D01*
X90674Y59139D01*
X90679Y59142D01*
X90687Y59148D01*
X90697Y59155D01*
X90708Y59162D01*
X90722Y59169D01*
X90738Y59176D01*
X90755Y59182D01*
X90756D01*
X90763Y59185D01*
X90772Y59186D01*
X90784Y59189D01*
X90800Y59192D01*
X90817Y59193D01*
X90835Y59196D01*
X90877D01*
X90886Y59194D01*
D02*
G37*
G36*
X91180Y58053D02*
X91183Y58050D01*
Y58048D01*
X91185Y58047D01*
X91186Y58043D01*
X91187Y58036D01*
Y58034D01*
X91189Y58030D01*
X91190Y58022D01*
Y58012D01*
Y58009D01*
Y58003D01*
X91189Y57995D01*
X91187Y57986D01*
Y57985D01*
X91186Y57981D01*
X91185Y57976D01*
X91183Y57972D01*
X91180Y57971D01*
X91178Y57969D01*
X91173Y57968D01*
X91118D01*
X91120Y57967D01*
X91124Y57962D01*
X91131Y57954D01*
X91139Y57945D01*
X91149Y57933D01*
X91159Y57919D01*
X91169Y57905D01*
X91178Y57888D01*
X91179Y57886D01*
X91180Y57881D01*
X91183Y57871D01*
X91187Y57859D01*
X91192Y57845D01*
X91194Y57830D01*
X91196Y57813D01*
X91197Y57795D01*
Y57793D01*
Y57788D01*
Y57779D01*
X91196Y57768D01*
X91194Y57757D01*
X91193Y57742D01*
X91186Y57716D01*
Y57714D01*
X91185Y57710D01*
X91182Y57703D01*
X91179Y57696D01*
X91169Y57676D01*
X91155Y57656D01*
X91154Y57655D01*
X91151Y57652D01*
X91147Y57648D01*
X91139Y57642D01*
X91132Y57637D01*
X91123Y57630D01*
X91101Y57618D01*
X91100D01*
X91096Y57617D01*
X91090Y57614D01*
X91080Y57613D01*
X91070Y57610D01*
X91059Y57607D01*
X91031Y57606D01*
X91024D01*
X91015Y57607D01*
X91004Y57609D01*
X90991Y57610D01*
X90979Y57614D01*
X90965Y57618D01*
X90952Y57624D01*
X90951Y57625D01*
X90946Y57627D01*
X90939Y57631D01*
X90931Y57638D01*
X90922Y57645D01*
X90913Y57655D01*
X90903Y57665D01*
X90894Y57678D01*
X90893Y57679D01*
X90890Y57685D01*
X90886Y57692D01*
X90882Y57702D01*
X90876Y57714D01*
X90870Y57728D01*
X90865Y57745D01*
X90860Y57764D01*
Y57766D01*
X90859Y57773D01*
X90856Y57783D01*
X90855Y57797D01*
X90852Y57814D01*
X90850Y57834D01*
X90849Y57857D01*
Y57879D01*
Y57955D01*
X90796D01*
X90788Y57954D01*
X90770Y57953D01*
X90752Y57948D01*
X90750D01*
X90748Y57947D01*
X90743Y57945D01*
X90738Y57943D01*
X90724Y57936D01*
X90711Y57926D01*
X90710D01*
X90708Y57923D01*
X90701Y57916D01*
X90693Y57903D01*
X90686Y57888D01*
Y57886D01*
X90684Y57883D01*
X90683Y57878D01*
X90681Y57872D01*
X90680Y57864D01*
X90679Y57854D01*
X90677Y57830D01*
Y57828D01*
Y57823D01*
Y57816D01*
X90679Y57807D01*
X90681Y57785D01*
X90687Y57762D01*
Y57761D01*
X90688Y57758D01*
X90690Y57752D01*
X90693Y57745D01*
X90698Y57728D01*
X90707Y57711D01*
Y57710D01*
X90708Y57707D01*
X90710Y57703D01*
X90712Y57699D01*
X90718Y57686D01*
X90725Y57673D01*
X90726Y57671D01*
X90729Y57665D01*
X90732Y57658D01*
X90733Y57652D01*
Y57651D01*
Y57649D01*
X90732Y57642D01*
X90731Y57641D01*
X90725Y57637D01*
X90724D01*
X90721Y57635D01*
X90712Y57633D01*
X90679D01*
X90671Y57634D01*
X90670D01*
X90666Y57637D01*
X90660Y57640D01*
X90655Y57644D01*
X90653Y57645D01*
X90649Y57651D01*
X90643Y57659D01*
X90636Y57672D01*
Y57673D01*
X90635Y57676D01*
X90632Y57680D01*
X90629Y57686D01*
X90624Y57700D01*
X90616Y57719D01*
Y57720D01*
X90615Y57723D01*
X90614Y57728D01*
X90611Y57735D01*
X90609Y57744D01*
X90607Y57754D01*
X90602Y57776D01*
Y57778D01*
X90601Y57782D01*
X90600Y57788D01*
X90598Y57796D01*
Y57805D01*
X90597Y57816D01*
X90595Y57838D01*
Y57841D01*
Y57848D01*
Y57859D01*
X90597Y57874D01*
X90598Y57889D01*
X90601Y57906D01*
X90605Y57923D01*
X90609Y57938D01*
Y57940D01*
X90612Y57945D01*
X90615Y57953D01*
X90619Y57962D01*
X90632Y57985D01*
X90640Y57996D01*
X90649Y58006D01*
X90650Y58007D01*
X90653Y58010D01*
X90659Y58015D01*
X90666Y58020D01*
X90676Y58026D01*
X90687Y58033D01*
X90700Y58039D01*
X90714Y58043D01*
X90715D01*
X90721Y58044D01*
X90728Y58047D01*
X90739Y58050D01*
X90752Y58051D01*
X90767Y58054D01*
X90784Y58055D01*
X91178D01*
X91180Y58053D01*
D02*
G37*
G36*
Y57456D02*
X91182Y57455D01*
X91186Y57448D01*
Y57446D01*
X91187Y57444D01*
Y57439D01*
X91189Y57432D01*
Y57431D01*
Y57427D01*
X91190Y57418D01*
Y57408D01*
Y57406D01*
Y57400D01*
Y57391D01*
X91189Y57383D01*
Y57382D01*
X91187Y57379D01*
X91186Y57369D01*
Y57368D01*
X91185Y57366D01*
X91180Y57360D01*
X91178D01*
X91172Y57359D01*
X90834D01*
X90824Y57358D01*
X90800Y57356D01*
X90787Y57353D01*
X90776Y57351D01*
X90774D01*
X90770Y57349D01*
X90766Y57348D01*
X90759Y57345D01*
X90742Y57339D01*
X90726Y57329D01*
X90725D01*
X90722Y57327D01*
X90714Y57320D01*
X90704Y57308D01*
X90694Y57293D01*
Y57291D01*
X90693Y57289D01*
X90690Y57284D01*
X90688Y57279D01*
X90684Y57262D01*
X90683Y57242D01*
Y57241D01*
Y57235D01*
X90684Y57228D01*
X90686Y57218D01*
X90690Y57207D01*
X90694Y57194D01*
X90701Y57180D01*
X90711Y57166D01*
X90712Y57165D01*
X90715Y57159D01*
X90722Y57152D01*
X90731Y57142D01*
X90742Y57129D01*
X90755Y57117D01*
X90770Y57102D01*
X90788Y57087D01*
X91175D01*
X91180Y57084D01*
X91182Y57083D01*
X91186Y57076D01*
Y57074D01*
X91187Y57071D01*
Y57067D01*
X91189Y57060D01*
Y57059D01*
Y57055D01*
X91190Y57046D01*
Y57036D01*
Y57033D01*
Y57028D01*
Y57019D01*
X91189Y57011D01*
Y57009D01*
X91187Y57007D01*
X91186Y56997D01*
Y56995D01*
X91185Y56994D01*
X91180Y56988D01*
X91178D01*
X91172Y56987D01*
X90354D01*
X90350Y56988D01*
X90349D01*
X90347Y56991D01*
X90343Y56997D01*
Y56998D01*
X90342Y57001D01*
X90340Y57005D01*
X90339Y57011D01*
Y57012D01*
X90337Y57018D01*
Y57026D01*
Y57036D01*
Y57038D01*
Y57039D01*
Y57045D01*
Y57053D01*
X90339Y57060D01*
Y57062D01*
X90340Y57066D01*
X90342Y57071D01*
X90343Y57076D01*
Y57077D01*
X90344Y57079D01*
X90350Y57084D01*
X90351Y57086D01*
X90357Y57087D01*
X90686D01*
X90684Y57088D01*
X90679Y57094D01*
X90670Y57102D01*
X90660Y57114D01*
X90649Y57126D01*
X90638Y57141D01*
X90628Y57157D01*
X90618Y57173D01*
X90616Y57174D01*
X90614Y57181D01*
X90611Y57190D01*
X90607Y57201D01*
X90602Y57214D01*
X90598Y57229D01*
X90597Y57245D01*
X90595Y57262D01*
Y57265D01*
Y57272D01*
X90597Y57282D01*
X90598Y57294D01*
X90600Y57308D01*
X90604Y57324D01*
X90608Y57339D01*
X90615Y57353D01*
X90616Y57355D01*
X90618Y57360D01*
X90622Y57366D01*
X90628Y57376D01*
X90635Y57384D01*
X90643Y57396D01*
X90653Y57406D01*
X90664Y57414D01*
X90666Y57415D01*
X90670Y57418D01*
X90677Y57422D01*
X90686Y57427D01*
X90695Y57432D01*
X90708Y57438D01*
X90722Y57444D01*
X90738Y57448D01*
X90739D01*
X90745Y57449D01*
X90753Y57452D01*
X90766Y57453D01*
X90780Y57456D01*
X90797Y57458D01*
X90817Y57459D01*
X91175D01*
X91180Y57456D01*
D02*
G37*
G36*
Y60496D02*
X91182Y60493D01*
X91183Y60490D01*
X91185Y60486D01*
Y60484D01*
X91186Y60482D01*
Y60477D01*
X91187Y60470D01*
Y60469D01*
X91189Y60463D01*
X91190Y60455D01*
Y60445D01*
Y60442D01*
Y60436D01*
X91189Y60428D01*
X91187Y60419D01*
Y60418D01*
X91186Y60414D01*
Y60408D01*
X91185Y60404D01*
Y60403D01*
X91183Y60401D01*
X91180Y60396D01*
X91178D01*
X91172Y60394D01*
X90484D01*
Y60393D01*
X91175Y60114D01*
X91178Y60112D01*
X91182Y60108D01*
X91183Y60105D01*
X91185Y60102D01*
X91186Y60098D01*
Y60097D01*
X91187Y60094D01*
Y60090D01*
X91189Y60084D01*
Y60083D01*
Y60078D01*
X91190Y60071D01*
Y60063D01*
Y60061D01*
Y60056D01*
Y60047D01*
X91189Y60040D01*
Y60039D01*
X91187Y60035D01*
X91186Y60025D01*
Y60023D01*
X91185Y60022D01*
X91182Y60015D01*
X91180D01*
X91179Y60014D01*
X91175Y60012D01*
X90484Y59746D01*
X91175D01*
X91180Y59743D01*
X91182Y59740D01*
X91183Y59737D01*
X91185Y59733D01*
Y59732D01*
X91186Y59729D01*
Y59725D01*
X91187Y59717D01*
Y59716D01*
X91189Y59710D01*
X91190Y59702D01*
Y59692D01*
Y59689D01*
Y59684D01*
X91189Y59675D01*
X91187Y59667D01*
Y59665D01*
X91186Y59661D01*
Y59655D01*
X91185Y59651D01*
Y59650D01*
X91183Y59648D01*
X91180Y59643D01*
X91178D01*
X91172Y59641D01*
X90442D01*
X90437Y59643D01*
X90432D01*
X90419Y59647D01*
X90409Y59654D01*
X90408Y59657D01*
X90404Y59664D01*
X90399Y59674D01*
X90398Y59685D01*
Y59748D01*
Y59750D01*
Y59751D01*
Y59760D01*
X90399Y59771D01*
X90402Y59782D01*
Y59784D01*
X90404Y59785D01*
X90405Y59792D01*
X90409Y59801D01*
X90415Y59809D01*
X90416Y59811D01*
X90421Y59816D01*
X90426Y59822D01*
X90435Y59827D01*
X90436Y59829D01*
X90442Y59832D01*
X90452Y59836D01*
X90463Y59840D01*
X91034Y60067D01*
Y60070D01*
X90464Y60304D01*
X90463D01*
X90461Y60305D01*
X90453Y60308D01*
X90443Y60314D01*
X90433Y60319D01*
X90430Y60321D01*
X90426Y60325D01*
X90419Y60331D01*
X90413Y60336D01*
X90412Y60338D01*
X90409Y60343D01*
X90405Y60349D01*
X90402Y60357D01*
X90401Y60360D01*
X90399Y60366D01*
X90398Y60374D01*
Y60386D01*
Y60453D01*
Y60455D01*
Y60459D01*
X90399Y60465D01*
X90401Y60470D01*
Y60472D01*
X90404Y60476D01*
X90406Y60480D01*
X90411Y60484D01*
X90412Y60486D01*
X90415Y60487D01*
X90419Y60491D01*
X90425Y60494D01*
X90426Y60496D01*
X90430Y60497D01*
X90437Y60498D01*
X91175D01*
X91180Y60496D01*
D02*
G37*
G36*
X90457Y61405D02*
X90473Y61401D01*
X90480Y61396D01*
X90485Y61392D01*
X90487Y61389D01*
X90490Y61387D01*
X90491Y61381D01*
X90494Y61375D01*
X90497Y61365D01*
X90498Y61356D01*
Y61343D01*
Y61341D01*
Y61337D01*
Y61332D01*
X90497Y61323D01*
X90494Y61308D01*
X90491Y61301D01*
X90487Y61295D01*
X90484Y61294D01*
X90481Y61291D01*
X90476Y61289D01*
X90470Y61286D01*
X90461Y61284D01*
X90452Y61282D01*
X90433D01*
X90428Y61284D01*
X90419D01*
X90404Y61288D01*
X90397Y61291D01*
X90391Y61295D01*
X90388Y61298D01*
X90387Y61301D01*
X90384Y61306D01*
X90381Y61313D01*
X90380Y61322D01*
X90377Y61332D01*
Y61344D01*
Y61346D01*
Y61350D01*
Y61356D01*
X90378Y61364D01*
X90382Y61380D01*
X90385Y61387D01*
X90390Y61392D01*
X90392Y61395D01*
X90395Y61396D01*
X90401Y61399D01*
X90406Y61402D01*
X90415Y61403D01*
X90425Y61406D01*
X90449D01*
X90457Y61405D01*
D02*
G37*
G36*
X91180Y61392D02*
X91182Y61391D01*
X91186Y61384D01*
Y61382D01*
X91187Y61380D01*
Y61375D01*
X91189Y61368D01*
Y61367D01*
Y61363D01*
X91190Y61354D01*
Y61344D01*
Y61341D01*
Y61336D01*
Y61327D01*
X91189Y61319D01*
Y61317D01*
X91187Y61315D01*
X91186Y61305D01*
Y61303D01*
X91185Y61302D01*
X91180Y61296D01*
X91178D01*
X91172Y61295D01*
X90621D01*
X90616Y61296D01*
X90615D01*
X90614Y61299D01*
X90609Y61305D01*
Y61306D01*
X90608Y61309D01*
X90607Y61313D01*
X90605Y61319D01*
Y61320D01*
X90604Y61326D01*
Y61334D01*
Y61344D01*
Y61346D01*
Y61347D01*
Y61353D01*
Y61361D01*
X90605Y61368D01*
Y61370D01*
X90607Y61374D01*
X90608Y61380D01*
X90609Y61384D01*
Y61385D01*
X90611Y61387D01*
X90616Y61392D01*
X90618Y61394D01*
X90624Y61395D01*
X91175D01*
X91180Y61392D01*
D02*
G37*
G36*
Y61107D02*
X91183Y61105D01*
Y61103D01*
X91185Y61102D01*
X91186Y61098D01*
X91187Y61091D01*
Y61089D01*
X91189Y61085D01*
X91190Y61076D01*
Y61067D01*
Y61064D01*
Y61058D01*
X91189Y61050D01*
X91187Y61041D01*
Y61040D01*
X91186Y61036D01*
X91185Y61031D01*
X91183Y61027D01*
X91180Y61026D01*
X91178Y61024D01*
X91173Y61023D01*
X91118D01*
X91120Y61021D01*
X91124Y61017D01*
X91131Y61009D01*
X91139Y61000D01*
X91149Y60988D01*
X91159Y60974D01*
X91169Y60959D01*
X91178Y60943D01*
X91179Y60941D01*
X91180Y60935D01*
X91183Y60926D01*
X91187Y60914D01*
X91192Y60900D01*
X91194Y60885D01*
X91196Y60868D01*
X91197Y60849D01*
Y60848D01*
Y60842D01*
Y60834D01*
X91196Y60823D01*
X91194Y60811D01*
X91193Y60797D01*
X91186Y60771D01*
Y60769D01*
X91185Y60765D01*
X91182Y60758D01*
X91179Y60751D01*
X91169Y60731D01*
X91155Y60711D01*
X91154Y60710D01*
X91151Y60707D01*
X91147Y60703D01*
X91139Y60697D01*
X91132Y60692D01*
X91123Y60685D01*
X91101Y60673D01*
X91100D01*
X91096Y60672D01*
X91090Y60669D01*
X91080Y60668D01*
X91070Y60665D01*
X91059Y60662D01*
X91031Y60661D01*
X91024D01*
X91015Y60662D01*
X91004Y60663D01*
X90991Y60665D01*
X90979Y60669D01*
X90965Y60673D01*
X90952Y60679D01*
X90951Y60680D01*
X90946Y60682D01*
X90939Y60686D01*
X90931Y60693D01*
X90922Y60700D01*
X90913Y60710D01*
X90903Y60720D01*
X90894Y60732D01*
X90893Y60734D01*
X90890Y60739D01*
X90886Y60747D01*
X90882Y60756D01*
X90876Y60769D01*
X90870Y60783D01*
X90865Y60800D01*
X90860Y60818D01*
Y60821D01*
X90859Y60828D01*
X90856Y60838D01*
X90855Y60852D01*
X90852Y60869D01*
X90850Y60889D01*
X90849Y60911D01*
Y60934D01*
Y61010D01*
X90796D01*
X90788Y61009D01*
X90770Y61007D01*
X90752Y61003D01*
X90750D01*
X90748Y61002D01*
X90743Y61000D01*
X90738Y60997D01*
X90724Y60990D01*
X90711Y60981D01*
X90710D01*
X90708Y60978D01*
X90701Y60971D01*
X90693Y60958D01*
X90686Y60943D01*
Y60941D01*
X90684Y60938D01*
X90683Y60933D01*
X90681Y60927D01*
X90680Y60919D01*
X90679Y60909D01*
X90677Y60885D01*
Y60883D01*
Y60878D01*
Y60871D01*
X90679Y60862D01*
X90681Y60840D01*
X90687Y60817D01*
Y60816D01*
X90688Y60813D01*
X90690Y60807D01*
X90693Y60800D01*
X90698Y60783D01*
X90707Y60766D01*
Y60765D01*
X90708Y60762D01*
X90710Y60758D01*
X90712Y60754D01*
X90718Y60741D01*
X90725Y60728D01*
X90726Y60725D01*
X90729Y60720D01*
X90732Y60713D01*
X90733Y60707D01*
Y60706D01*
Y60704D01*
X90732Y60697D01*
X90731Y60696D01*
X90725Y60692D01*
X90724D01*
X90721Y60690D01*
X90712Y60687D01*
X90679D01*
X90671Y60689D01*
X90670D01*
X90666Y60692D01*
X90660Y60694D01*
X90655Y60699D01*
X90653Y60700D01*
X90649Y60706D01*
X90643Y60714D01*
X90636Y60727D01*
Y60728D01*
X90635Y60731D01*
X90632Y60735D01*
X90629Y60741D01*
X90624Y60755D01*
X90616Y60773D01*
Y60775D01*
X90615Y60778D01*
X90614Y60783D01*
X90611Y60790D01*
X90609Y60799D01*
X90607Y60809D01*
X90602Y60831D01*
Y60833D01*
X90601Y60837D01*
X90600Y60842D01*
X90598Y60851D01*
Y60859D01*
X90597Y60871D01*
X90595Y60893D01*
Y60896D01*
Y60903D01*
Y60914D01*
X90597Y60928D01*
X90598Y60944D01*
X90601Y60961D01*
X90605Y60978D01*
X90609Y60993D01*
Y60995D01*
X90612Y61000D01*
X90615Y61007D01*
X90619Y61017D01*
X90632Y61040D01*
X90640Y61051D01*
X90649Y61061D01*
X90650Y61062D01*
X90653Y61065D01*
X90659Y61069D01*
X90666Y61075D01*
X90676Y61081D01*
X90687Y61088D01*
X90700Y61093D01*
X90714Y61098D01*
X90715D01*
X90721Y61099D01*
X90728Y61102D01*
X90739Y61105D01*
X90752Y61106D01*
X90767Y61109D01*
X90784Y61110D01*
X91178D01*
X91180Y61107D01*
D02*
G37*
G36*
X90914Y56835D02*
X90932D01*
X90952Y56832D01*
X90973Y56829D01*
X90996Y56825D01*
X91018Y56819D01*
X91021D01*
X91028Y56816D01*
X91038Y56812D01*
X91052Y56808D01*
X91066Y56801D01*
X91083Y56794D01*
X91100Y56784D01*
X91116Y56774D01*
X91117Y56773D01*
X91123Y56768D01*
X91130Y56763D01*
X91138Y56754D01*
X91148Y56743D01*
X91158Y56730D01*
X91168Y56715D01*
X91176Y56699D01*
X91178Y56698D01*
X91179Y56691D01*
X91183Y56682D01*
X91186Y56670D01*
X91190Y56654D01*
X91194Y56637D01*
X91196Y56619D01*
X91197Y56598D01*
Y56596D01*
Y56594D01*
Y56589D01*
X91196Y56582D01*
X91194Y56568D01*
X91192Y56551D01*
Y56550D01*
X91190Y56548D01*
X91189Y56539D01*
X91183Y56526D01*
X91178Y56512D01*
Y56510D01*
X91176Y56509D01*
X91170Y56499D01*
X91162Y56486D01*
X91152Y56472D01*
X91151Y56471D01*
X91149Y56470D01*
X91145Y56465D01*
X91141Y56460D01*
X91130Y56447D01*
X91114Y56431D01*
X91390D01*
X91395Y56429D01*
X91397Y56427D01*
X91402Y56420D01*
Y56419D01*
X91403Y56416D01*
X91405Y56412D01*
X91406Y56405D01*
Y56403D01*
Y56399D01*
X91407Y56391D01*
Y56381D01*
Y56378D01*
Y56372D01*
Y56364D01*
X91406Y56355D01*
Y56354D01*
X91405Y56351D01*
X91402Y56341D01*
Y56340D01*
X91400Y56338D01*
X91395Y56333D01*
X91393D01*
X91388Y56331D01*
X90621D01*
X90615Y56333D01*
X90614D01*
X90612Y56334D01*
X90611Y56337D01*
X90609Y56340D01*
Y56341D01*
X90608Y56344D01*
X90607Y56348D01*
X90605Y56354D01*
Y56355D01*
X90604Y56360D01*
Y56365D01*
Y56374D01*
Y56376D01*
Y56382D01*
Y56389D01*
X90605Y56395D01*
Y56396D01*
X90607Y56400D01*
X90609Y56409D01*
Y56410D01*
X90611Y56412D01*
X90612Y56415D01*
X90615Y56416D01*
X90616Y56417D01*
X90624Y56419D01*
X90697D01*
X90695Y56420D01*
X90693Y56423D01*
X90688Y56429D01*
X90681Y56434D01*
X90667Y56450D01*
X90653Y56467D01*
X90652Y56468D01*
X90650Y56471D01*
X90646Y56475D01*
X90642Y56482D01*
X90632Y56496D01*
X90622Y56513D01*
Y56515D01*
X90619Y56517D01*
X90618Y56522D01*
X90615Y56529D01*
X90608Y56544D01*
X90602Y56561D01*
Y56563D01*
X90601Y56565D01*
X90600Y56571D01*
X90598Y56577D01*
X90597Y56594D01*
X90595Y56613D01*
Y56615D01*
Y56616D01*
Y56623D01*
X90597Y56634D01*
X90598Y56649D01*
X90601Y56665D01*
X90605Y56682D01*
X90611Y56699D01*
X90619Y56716D01*
X90621Y56718D01*
X90624Y56723D01*
X90629Y56730D01*
X90636Y56740D01*
X90645Y56751D01*
X90656Y56763D01*
X90669Y56774D01*
X90683Y56784D01*
X90684Y56785D01*
X90690Y56788D01*
X90698Y56794D01*
X90710Y56799D01*
X90722Y56805D01*
X90739Y56812D01*
X90756Y56818D01*
X90776Y56823D01*
X90779D01*
X90786Y56825D01*
X90796Y56828D01*
X90810Y56830D01*
X90827Y56832D01*
X90846Y56835D01*
X90866Y56836D01*
X90901D01*
X90914Y56835D01*
D02*
G37*
G36*
X89552Y63852D02*
X89796D01*
Y54652D01*
X88087D01*
Y63627D01*
X87844D01*
Y67844D01*
X89552D01*
Y63852D01*
D02*
G37*
G36*
X92456Y63968D02*
X92382D01*
X91920Y64341D01*
Y63982D01*
X91849D01*
Y64433D01*
X91921D01*
X92385Y64055D01*
Y64442D01*
X92456D01*
Y63968D01*
D02*
G37*
G36*
X91920Y63699D02*
X92456D01*
Y63618D01*
X91920D01*
Y63401D01*
X91849D01*
Y63916D01*
X91920D01*
Y63699D01*
D02*
G37*
G36*
X92456Y55401D02*
X92339D01*
Y55499D01*
X92456D01*
Y55401D01*
D02*
G37*
G36*
Y55066D02*
Y54958D01*
X91849Y54737D01*
Y54823D01*
X92385Y55014D01*
X91849Y55205D01*
Y55288D01*
X92456Y55066D01*
D02*
G37*
G36*
X92167Y63351D02*
X92175D01*
X92183Y63350D01*
X92193Y63349D01*
X92203Y63348D01*
X92227Y63344D01*
X92252Y63337D01*
X92277Y63328D01*
X92304Y63316D01*
X92305D01*
X92307Y63314D01*
X92310Y63312D01*
X92315Y63309D01*
X92321Y63305D01*
X92327Y63301D01*
X92341Y63290D01*
X92358Y63276D01*
X92376Y63260D01*
X92393Y63241D01*
X92408Y63220D01*
X92409Y63218D01*
X92412Y63212D01*
X92417Y63204D01*
X92422Y63192D01*
X92428Y63179D01*
X92434Y63163D01*
X92440Y63145D01*
X92445Y63127D01*
Y63126D01*
Y63125D01*
X92446Y63121D01*
X92447Y63117D01*
X92448Y63113D01*
X92448Y63106D01*
X92449Y63099D01*
X92450Y63091D01*
X92451Y63082D01*
X92452Y63071D01*
X92454Y63049D01*
X92455Y63022D01*
X92456Y62992D01*
Y62839D01*
X91849D01*
Y62990D01*
Y62991D01*
Y62994D01*
Y62999D01*
Y63005D01*
Y63013D01*
X91850Y63021D01*
Y63031D01*
X91851Y63041D01*
X91852Y63064D01*
X91855Y63087D01*
X91857Y63111D01*
X91862Y63131D01*
Y63132D01*
X91863Y63134D01*
Y63136D01*
X91865Y63140D01*
X91868Y63150D01*
X91871Y63162D01*
X91876Y63176D01*
X91883Y63192D01*
X91889Y63207D01*
X91898Y63221D01*
Y63222D01*
X91900Y63223D01*
X91902Y63226D01*
X91904Y63231D01*
X91914Y63242D01*
X91925Y63256D01*
X91940Y63271D01*
X91958Y63287D01*
X91978Y63303D01*
X92001Y63317D01*
X92002D01*
X92004Y63319D01*
X92008Y63320D01*
X92012Y63323D01*
X92019Y63326D01*
X92026Y63329D01*
X92034Y63332D01*
X92044Y63335D01*
X92055Y63338D01*
X92066Y63341D01*
X92092Y63347D01*
X92121Y63350D01*
X92153Y63352D01*
X92162D01*
X92167Y63351D01*
D02*
G37*
G36*
X92456Y60936D02*
X92370D01*
Y60937D01*
X92369Y60938D01*
X92364Y60944D01*
X92357Y60952D01*
X92348Y60962D01*
X92337Y60975D01*
X92324Y60990D01*
X92311Y61005D01*
X92297Y61021D01*
Y61022D01*
X92295Y61022D01*
X92291Y61028D01*
X92284Y61037D01*
X92275Y61047D01*
X92263Y61059D01*
X92251Y61073D01*
X92225Y61101D01*
X92224Y61102D01*
X92221Y61105D01*
X92217Y61109D01*
X92213Y61114D01*
X92206Y61120D01*
X92198Y61128D01*
X92182Y61144D01*
X92162Y61162D01*
X92142Y61179D01*
X92122Y61195D01*
X92113Y61203D01*
X92105Y61209D01*
X92104D01*
X92103Y61209D01*
X92100Y61211D01*
X92097Y61213D01*
X92088Y61218D01*
X92075Y61224D01*
X92061Y61228D01*
X92044Y61233D01*
X92027Y61237D01*
X92008Y61238D01*
X92000D01*
X91992Y61236D01*
X91980Y61234D01*
X91969Y61230D01*
X91957Y61225D01*
X91945Y61216D01*
X91934Y61206D01*
X91933Y61204D01*
X91930Y61200D01*
X91926Y61193D01*
X91920Y61183D01*
X91916Y61171D01*
X91911Y61156D01*
X91908Y61139D01*
X91907Y61119D01*
Y61117D01*
Y61113D01*
X91908Y61105D01*
X91909Y61095D01*
X91911Y61083D01*
X91913Y61069D01*
X91917Y61054D01*
X91921Y61038D01*
X91922Y61037D01*
X91924Y61031D01*
X91927Y61022D01*
X91931Y61012D01*
X91936Y61000D01*
X91944Y60986D01*
X91951Y60970D01*
X91961Y60955D01*
Y60951D01*
X91875D01*
X91874Y60952D01*
X91872Y60957D01*
X91870Y60962D01*
X91867Y60971D01*
X91863Y60982D01*
X91858Y60995D01*
X91854Y61010D01*
X91849Y61027D01*
Y61028D01*
X91848Y61029D01*
Y61032D01*
X91847Y61036D01*
X91845Y61045D01*
X91842Y61057D01*
X91840Y61071D01*
X91839Y61087D01*
X91838Y61104D01*
X91837Y61121D01*
Y61122D01*
Y61125D01*
Y61131D01*
X91838Y61136D01*
Y61145D01*
X91839Y61153D01*
X91840Y61163D01*
X91842Y61175D01*
X91848Y61197D01*
X91855Y61222D01*
X91867Y61245D01*
X91874Y61256D01*
X91882Y61267D01*
X91883Y61268D01*
X91884Y61269D01*
X91886Y61272D01*
X91890Y61275D01*
X91895Y61279D01*
X91900Y61284D01*
X91906Y61288D01*
X91914Y61294D01*
X91932Y61303D01*
X91952Y61312D01*
X91964Y61316D01*
X91977Y61319D01*
X91990Y61319D01*
X92004Y61320D01*
X92016D01*
X92025Y61319D01*
X92035Y61319D01*
X92046Y61317D01*
X92069Y61311D01*
X92070D01*
X92074Y61309D01*
X92079Y61307D01*
X92087Y61304D01*
X92095Y61301D01*
X92105Y61297D01*
X92125Y61286D01*
X92126Y61285D01*
X92130Y61283D01*
X92135Y61279D01*
X92141Y61275D01*
X92149Y61270D01*
X92157Y61263D01*
X92175Y61248D01*
X92176Y61247D01*
X92180Y61244D01*
X92184Y61240D01*
X92191Y61234D01*
X92198Y61225D01*
X92208Y61217D01*
X92218Y61208D01*
X92229Y61196D01*
X92230Y61194D01*
X92236Y61189D01*
X92245Y61180D01*
X92255Y61169D01*
X92268Y61155D01*
X92282Y61140D01*
X92297Y61124D01*
X92312Y61106D01*
Y61105D01*
X92314Y61104D01*
X92319Y61099D01*
X92326Y61089D01*
X92336Y61078D01*
X92347Y61065D01*
X92360Y61051D01*
X92386Y61020D01*
Y61346D01*
X92456D01*
Y60936D01*
D02*
G37*
G36*
Y60452D02*
X92394D01*
Y60579D01*
X91986D01*
Y60452D01*
X91931D01*
Y60453D01*
Y60457D01*
Y60461D01*
X91930Y60468D01*
Y60476D01*
X91929Y60486D01*
X91927Y60507D01*
Y60507D01*
X91926Y60511D01*
X91925Y60517D01*
X91923Y60523D01*
X91919Y60538D01*
X91917Y60545D01*
X91915Y60552D01*
X91914Y60553D01*
X91913Y60554D01*
X91911Y60558D01*
X91907Y60562D01*
X91900Y60572D01*
X91889Y60581D01*
X91888Y60582D01*
X91886Y60583D01*
X91883Y60585D01*
X91878Y60586D01*
X91871Y60589D01*
X91864Y60591D01*
X91855Y60593D01*
X91846Y60594D01*
Y60657D01*
X92394D01*
Y60781D01*
X92456D01*
Y60452D01*
D02*
G37*
G36*
X92275Y62417D02*
X92283Y62416D01*
X92292Y62415D01*
X92302Y62413D01*
X92313Y62411D01*
X92337Y62403D01*
X92349Y62398D01*
X92362Y62393D01*
X92374Y62385D01*
X92386Y62377D01*
X92399Y62367D01*
X92410Y62357D01*
X92411Y62356D01*
X92413Y62354D01*
X92416Y62350D01*
X92419Y62346D01*
X92423Y62340D01*
X92429Y62333D01*
X92433Y62325D01*
X92439Y62316D01*
X92445Y62305D01*
X92449Y62293D01*
X92455Y62281D01*
X92459Y62268D01*
X92463Y62254D01*
X92465Y62239D01*
X92467Y62223D01*
X92468Y62207D01*
Y62206D01*
Y62205D01*
Y62199D01*
X92467Y62191D01*
X92466Y62179D01*
X92465Y62167D01*
X92463Y62153D01*
X92460Y62139D01*
X92455Y62125D01*
X92454Y62123D01*
X92452Y62118D01*
X92449Y62112D01*
X92445Y62103D01*
X92439Y62093D01*
X92432Y62082D01*
X92423Y62071D01*
X92414Y62060D01*
X92412Y62058D01*
X92407Y62054D01*
X92400Y62048D01*
X92390Y62040D01*
X92377Y62032D01*
X92362Y62022D01*
X92344Y62014D01*
X92324Y62006D01*
X92323D01*
X92322Y62005D01*
X92319Y62005D01*
X92314Y62004D01*
X92308Y62002D01*
X92303Y62001D01*
X92295Y61999D01*
X92286Y61997D01*
X92266Y61993D01*
X92244Y61990D01*
X92217Y61989D01*
X92189Y61988D01*
X92175D01*
X92168Y61989D01*
X92160D01*
X92151Y61990D01*
X92141D01*
X92119Y61991D01*
X92095Y61995D01*
X92070Y61999D01*
X92046Y62005D01*
X92045D01*
X92043Y62005D01*
X92040Y62006D01*
X92036Y62007D01*
X92030Y62009D01*
X92024Y62012D01*
X92009Y62018D01*
X91992Y62025D01*
X91973Y62036D01*
X91954Y62047D01*
X91935Y62060D01*
X91934D01*
X91933Y62062D01*
X91928Y62067D01*
X91919Y62074D01*
X91909Y62085D01*
X91898Y62099D01*
X91886Y62114D01*
X91873Y62132D01*
X91863Y62152D01*
Y62153D01*
X91862Y62155D01*
X91860Y62158D01*
X91859Y62162D01*
X91856Y62168D01*
X91855Y62175D01*
X91853Y62182D01*
X91850Y62191D01*
X91845Y62209D01*
X91840Y62232D01*
X91838Y62257D01*
X91837Y62285D01*
Y62286D01*
Y62288D01*
Y62293D01*
Y62299D01*
X91838Y62312D01*
X91839Y62325D01*
Y62326D01*
Y62328D01*
X91840Y62332D01*
X91841Y62335D01*
X91843Y62347D01*
X91846Y62359D01*
X91924D01*
Y62354D01*
Y62353D01*
X91923Y62352D01*
X91922Y62349D01*
X91920Y62346D01*
X91918Y62341D01*
X91917Y62334D01*
X91915Y62328D01*
X91913Y62319D01*
Y62318D01*
X91912Y62316D01*
X91911Y62311D01*
X91910Y62305D01*
X91909Y62298D01*
X91908Y62290D01*
X91907Y62272D01*
Y62271D01*
Y62269D01*
Y62264D01*
X91908Y62258D01*
X91909Y62251D01*
X91910Y62242D01*
X91912Y62233D01*
X91914Y62223D01*
X91920Y62200D01*
X91925Y62188D01*
X91931Y62177D01*
X91937Y62165D01*
X91944Y62154D01*
X91953Y62143D01*
X91963Y62132D01*
X91964Y62131D01*
X91965Y62130D01*
X91968Y62128D01*
X91973Y62124D01*
X91978Y62120D01*
X91985Y62115D01*
X91993Y62111D01*
X92001Y62105D01*
X92011Y62100D01*
X92023Y62095D01*
X92035Y62090D01*
X92048Y62085D01*
X92062Y62081D01*
X92077Y62077D01*
X92094Y62074D01*
X92111Y62072D01*
X92110Y62074D01*
X92107Y62078D01*
X92104Y62084D01*
X92099Y62093D01*
X92094Y62103D01*
X92089Y62115D01*
X92084Y62127D01*
X92079Y62139D01*
X92078Y62141D01*
X92077Y62145D01*
X92075Y62152D01*
X92074Y62161D01*
X92072Y62173D01*
X92070Y62186D01*
X92068Y62200D01*
Y62216D01*
Y62218D01*
Y62223D01*
Y62230D01*
X92069Y62239D01*
X92070Y62250D01*
X92071Y62262D01*
X92073Y62273D01*
X92075Y62285D01*
Y62286D01*
X92077Y62290D01*
X92079Y62296D01*
X92082Y62303D01*
X92086Y62313D01*
X92090Y62323D01*
X92097Y62334D01*
X92105Y62346D01*
X92105Y62348D01*
X92109Y62351D01*
X92114Y62358D01*
X92121Y62365D01*
X92131Y62375D01*
X92141Y62383D01*
X92153Y62392D01*
X92167Y62399D01*
X92169Y62400D01*
X92174Y62402D01*
X92183Y62405D01*
X92193Y62409D01*
X92206Y62412D01*
X92222Y62415D01*
X92240Y62417D01*
X92260Y62418D01*
X92268D01*
X92275Y62417D01*
D02*
G37*
G36*
X92456Y61467D02*
X92370D01*
Y61468D01*
X92369Y61469D01*
X92364Y61474D01*
X92357Y61483D01*
X92348Y61493D01*
X92337Y61506D01*
X92324Y61521D01*
X92311Y61536D01*
X92297Y61552D01*
Y61553D01*
X92295Y61553D01*
X92291Y61559D01*
X92284Y61568D01*
X92275Y61578D01*
X92263Y61590D01*
X92251Y61604D01*
X92225Y61632D01*
X92224Y61633D01*
X92221Y61636D01*
X92217Y61640D01*
X92213Y61645D01*
X92206Y61651D01*
X92198Y61659D01*
X92182Y61675D01*
X92162Y61693D01*
X92142Y61710D01*
X92122Y61726D01*
X92113Y61734D01*
X92105Y61740D01*
X92104D01*
X92103Y61740D01*
X92100Y61742D01*
X92097Y61744D01*
X92088Y61749D01*
X92075Y61755D01*
X92061Y61759D01*
X92044Y61764D01*
X92027Y61768D01*
X92008Y61769D01*
X92000D01*
X91992Y61767D01*
X91980Y61765D01*
X91969Y61761D01*
X91957Y61756D01*
X91945Y61747D01*
X91934Y61737D01*
X91933Y61735D01*
X91930Y61731D01*
X91926Y61724D01*
X91920Y61714D01*
X91916Y61702D01*
X91911Y61687D01*
X91908Y61670D01*
X91907Y61650D01*
Y61648D01*
Y61644D01*
X91908Y61636D01*
X91909Y61626D01*
X91911Y61614D01*
X91913Y61600D01*
X91917Y61585D01*
X91921Y61569D01*
X91922Y61568D01*
X91924Y61562D01*
X91927Y61553D01*
X91931Y61543D01*
X91936Y61531D01*
X91944Y61517D01*
X91951Y61501D01*
X91961Y61486D01*
Y61482D01*
X91875D01*
X91874Y61483D01*
X91872Y61488D01*
X91870Y61493D01*
X91867Y61502D01*
X91863Y61513D01*
X91858Y61526D01*
X91854Y61541D01*
X91849Y61558D01*
Y61559D01*
X91848Y61560D01*
Y61563D01*
X91847Y61567D01*
X91845Y61576D01*
X91842Y61588D01*
X91840Y61602D01*
X91839Y61618D01*
X91838Y61635D01*
X91837Y61652D01*
Y61653D01*
Y61656D01*
Y61662D01*
X91838Y61667D01*
Y61676D01*
X91839Y61684D01*
X91840Y61694D01*
X91842Y61706D01*
X91848Y61728D01*
X91855Y61753D01*
X91867Y61776D01*
X91874Y61787D01*
X91882Y61798D01*
X91883Y61799D01*
X91884Y61800D01*
X91886Y61802D01*
X91890Y61806D01*
X91895Y61810D01*
X91900Y61815D01*
X91906Y61819D01*
X91914Y61825D01*
X91932Y61834D01*
X91952Y61843D01*
X91964Y61847D01*
X91977Y61849D01*
X91990Y61850D01*
X92004Y61851D01*
X92016D01*
X92025Y61850D01*
X92035Y61849D01*
X92046Y61848D01*
X92069Y61842D01*
X92070D01*
X92074Y61840D01*
X92079Y61838D01*
X92087Y61835D01*
X92095Y61832D01*
X92105Y61828D01*
X92125Y61817D01*
X92126Y61816D01*
X92130Y61814D01*
X92135Y61810D01*
X92141Y61806D01*
X92149Y61801D01*
X92157Y61794D01*
X92175Y61779D01*
X92176Y61778D01*
X92180Y61775D01*
X92184Y61771D01*
X92191Y61765D01*
X92198Y61756D01*
X92208Y61748D01*
X92218Y61739D01*
X92229Y61727D01*
X92230Y61725D01*
X92236Y61720D01*
X92245Y61711D01*
X92255Y61700D01*
X92268Y61686D01*
X92282Y61671D01*
X92297Y61655D01*
X92312Y61637D01*
Y61636D01*
X92314Y61635D01*
X92319Y61630D01*
X92326Y61620D01*
X92336Y61609D01*
X92347Y61596D01*
X92360Y61582D01*
X92386Y61551D01*
Y61877D01*
X92456D01*
Y61467D01*
D02*
G37*
G36*
Y57437D02*
X92214Y57233D01*
Y57120D01*
X92456D01*
Y57040D01*
X91849D01*
Y57210D01*
Y57211D01*
Y57212D01*
Y57215D01*
Y57219D01*
Y57228D01*
X91850Y57242D01*
X91851Y57256D01*
X91852Y57271D01*
X91854Y57287D01*
X91856Y57301D01*
Y57303D01*
X91858Y57307D01*
X91860Y57314D01*
X91862Y57323D01*
X91866Y57334D01*
X91870Y57345D01*
X91875Y57356D01*
X91882Y57368D01*
X91883Y57369D01*
X91886Y57373D01*
X91890Y57379D01*
X91896Y57386D01*
X91903Y57395D01*
X91913Y57403D01*
X91923Y57412D01*
X91934Y57419D01*
X91936Y57420D01*
X91940Y57422D01*
X91947Y57425D01*
X91956Y57429D01*
X91968Y57432D01*
X91981Y57435D01*
X91997Y57437D01*
X92014Y57438D01*
X92021D01*
X92026Y57437D01*
X92031D01*
X92038Y57436D01*
X92053Y57434D01*
X92070Y57430D01*
X92089Y57424D01*
X92106Y57415D01*
X92124Y57404D01*
X92125D01*
X92126Y57402D01*
X92132Y57399D01*
X92139Y57391D01*
X92149Y57381D01*
X92160Y57368D01*
X92171Y57352D01*
X92182Y57334D01*
X92191Y57313D01*
X92456Y57542D01*
Y57437D01*
D02*
G37*
G36*
X92237Y57660D02*
X92245D01*
X92252Y57661D01*
X92262Y57662D01*
X92274Y57663D01*
X92286Y57665D01*
X92298Y57668D01*
X92310Y57672D01*
X92311Y57673D01*
X92315Y57674D01*
X92322Y57677D01*
X92328Y57681D01*
X92337Y57686D01*
X92345Y57692D01*
X92354Y57699D01*
X92361Y57707D01*
X92362Y57708D01*
X92364Y57711D01*
X92368Y57715D01*
X92372Y57721D01*
X92377Y57728D01*
X92382Y57737D01*
X92386Y57746D01*
X92390Y57757D01*
Y57758D01*
X92392Y57762D01*
X92393Y57768D01*
X92395Y57776D01*
X92397Y57786D01*
X92398Y57797D01*
X92400Y57808D01*
Y57821D01*
Y57822D01*
Y57823D01*
Y57826D01*
Y57830D01*
X92399Y57838D01*
X92398Y57851D01*
X92395Y57865D01*
X92392Y57881D01*
X92387Y57898D01*
X92382Y57915D01*
Y57916D01*
X92381Y57917D01*
X92379Y57923D01*
X92375Y57931D01*
X92370Y57942D01*
X92358Y57963D01*
X92351Y57974D01*
X92344Y57982D01*
Y57987D01*
X92429D01*
X92430Y57985D01*
X92432Y57980D01*
X92434Y57972D01*
X92438Y57962D01*
X92443Y57950D01*
X92447Y57936D01*
X92451Y57922D01*
X92456Y57907D01*
Y57905D01*
X92458Y57900D01*
X92459Y57892D01*
X92461Y57882D01*
X92463Y57868D01*
X92464Y57854D01*
X92465Y57838D01*
X92466Y57822D01*
Y57821D01*
Y57818D01*
Y57811D01*
X92465Y57804D01*
X92464Y57794D01*
X92464Y57783D01*
X92462Y57771D01*
X92459Y57758D01*
X92451Y57729D01*
X92447Y57714D01*
X92441Y57699D01*
X92433Y57685D01*
X92425Y57671D01*
X92416Y57657D01*
X92405Y57645D01*
X92404Y57644D01*
X92402Y57642D01*
X92399Y57639D01*
X92394Y57635D01*
X92387Y57630D01*
X92380Y57625D01*
X92370Y57619D01*
X92360Y57614D01*
X92349Y57607D01*
X92336Y57602D01*
X92322Y57597D01*
X92306Y57592D01*
X92290Y57587D01*
X92271Y57585D01*
X92252Y57583D01*
X92231Y57582D01*
X92221D01*
X92213Y57583D01*
X92203Y57584D01*
X92193Y57585D01*
X92181Y57586D01*
X92167Y57589D01*
X92139Y57597D01*
X92124Y57602D01*
X92109Y57607D01*
X92094Y57615D01*
X92080Y57623D01*
X92067Y57633D01*
X92054Y57643D01*
X92053Y57644D01*
X92051Y57646D01*
X92048Y57649D01*
X92043Y57654D01*
X92039Y57660D01*
X92033Y57667D01*
X92027Y57676D01*
X92021Y57686D01*
X92014Y57696D01*
X92009Y57709D01*
X92003Y57722D01*
X91998Y57737D01*
X91994Y57752D01*
X91991Y57768D01*
X91989Y57786D01*
X91988Y57804D01*
Y57805D01*
Y57807D01*
Y57812D01*
X91989Y57819D01*
X91990Y57826D01*
X91991Y57836D01*
X91993Y57845D01*
X91995Y57856D01*
X92001Y57879D01*
X92006Y57891D01*
X92011Y57902D01*
X92017Y57914D01*
X92025Y57925D01*
X92033Y57936D01*
X92042Y57945D01*
X92043Y57946D01*
X92045Y57947D01*
X92048Y57950D01*
X92053Y57953D01*
X92058Y57958D01*
X92065Y57961D01*
X92073Y57966D01*
X92082Y57971D01*
X92092Y57976D01*
X92104Y57980D01*
X92116Y57985D01*
X92130Y57989D01*
X92145Y57992D01*
X92161Y57994D01*
X92178Y57995D01*
X92196Y57996D01*
X92237D01*
Y57660D01*
D02*
G37*
G36*
X92456Y56245D02*
X92394D01*
Y56372D01*
X91986D01*
Y56245D01*
X91931D01*
Y56246D01*
Y56250D01*
Y56255D01*
X91930Y56261D01*
Y56270D01*
X91929Y56279D01*
X91927Y56300D01*
Y56301D01*
X91926Y56305D01*
X91925Y56310D01*
X91923Y56317D01*
X91919Y56332D01*
X91917Y56338D01*
X91915Y56345D01*
X91914Y56346D01*
X91913Y56348D01*
X91911Y56352D01*
X91907Y56355D01*
X91900Y56366D01*
X91889Y56374D01*
X91888Y56375D01*
X91886Y56376D01*
X91883Y56378D01*
X91878Y56380D01*
X91871Y56383D01*
X91864Y56384D01*
X91855Y56386D01*
X91846Y56387D01*
Y56450D01*
X92394D01*
Y56574D01*
X92456D01*
Y56245D01*
D02*
G37*
G36*
X92179Y56076D02*
X92193Y56075D01*
X92208Y56074D01*
X92226Y56072D01*
X92244Y56071D01*
X92283Y56065D01*
X92323Y56056D01*
X92341Y56050D01*
X92360Y56042D01*
X92377Y56035D01*
X92392Y56025D01*
X92393Y56025D01*
X92395Y56023D01*
X92399Y56020D01*
X92404Y56016D01*
X92410Y56010D01*
X92417Y56004D01*
X92423Y55995D01*
X92430Y55987D01*
X92437Y55977D01*
X92444Y55964D01*
X92450Y55951D01*
X92456Y55937D01*
X92461Y55921D01*
X92464Y55904D01*
X92467Y55886D01*
X92468Y55867D01*
Y55866D01*
Y55862D01*
X92467Y55856D01*
Y55849D01*
X92465Y55839D01*
X92464Y55829D01*
X92462Y55818D01*
X92459Y55806D01*
X92454Y55793D01*
X92449Y55780D01*
X92443Y55766D01*
X92435Y55753D01*
X92427Y55741D01*
X92417Y55728D01*
X92404Y55717D01*
X92391Y55707D01*
X92390Y55706D01*
X92387Y55705D01*
X92383Y55702D01*
X92376Y55699D01*
X92369Y55696D01*
X92358Y55691D01*
X92346Y55686D01*
X92333Y55682D01*
X92317Y55678D01*
X92299Y55673D01*
X92279Y55668D01*
X92259Y55665D01*
X92235Y55662D01*
X92210Y55659D01*
X92183Y55658D01*
X92153Y55657D01*
X92138D01*
X92127Y55658D01*
X92114Y55659D01*
X92098Y55660D01*
X92081Y55662D01*
X92063Y55664D01*
X92024Y55669D01*
X91984Y55679D01*
X91965Y55684D01*
X91947Y55691D01*
X91930Y55699D01*
X91915Y55708D01*
X91914Y55709D01*
X91911Y55711D01*
X91907Y55713D01*
X91902Y55717D01*
X91897Y55723D01*
X91890Y55729D01*
X91883Y55738D01*
X91875Y55746D01*
X91869Y55758D01*
X91861Y55769D01*
X91855Y55782D01*
X91849Y55796D01*
X91844Y55812D01*
X91840Y55829D01*
X91838Y55847D01*
X91837Y55867D01*
Y55868D01*
Y55871D01*
X91838Y55877D01*
Y55884D01*
X91839Y55894D01*
X91840Y55904D01*
X91843Y55916D01*
X91846Y55928D01*
X91851Y55940D01*
X91855Y55954D01*
X91862Y55967D01*
X91870Y55980D01*
X91879Y55993D01*
X91889Y56005D01*
X91902Y56016D01*
X91916Y56026D01*
X91917Y56027D01*
X91919Y56028D01*
X91924Y56031D01*
X91931Y56034D01*
X91938Y56039D01*
X91949Y56042D01*
X91961Y56047D01*
X91975Y56052D01*
X91990Y56056D01*
X92008Y56061D01*
X92027Y56066D01*
X92048Y56070D01*
X92072Y56072D01*
X92097Y56075D01*
X92123Y56076D01*
X92152Y56077D01*
X92168D01*
X92179Y56076D01*
D02*
G37*
G36*
X92456Y58321D02*
Y58244D01*
X92000Y58061D01*
Y58144D01*
X92363Y58286D01*
X92000Y58426D01*
Y58507D01*
X92456Y58321D01*
D02*
G37*
%LPC*%
G36*
X92262Y62335D02*
X92256D01*
X92249Y62334D01*
X92241D01*
X92230Y62333D01*
X92220Y62331D01*
X92210Y62328D01*
X92200Y62324D01*
X92199Y62323D01*
X92196Y62322D01*
X92191Y62319D01*
X92185Y62316D01*
X92179Y62310D01*
X92171Y62303D01*
X92164Y62296D01*
X92157Y62286D01*
X92156Y62286D01*
X92155Y62284D01*
X92152Y62279D01*
X92150Y62274D01*
X92147Y62269D01*
X92144Y62261D01*
X92140Y62245D01*
Y62244D01*
X92139Y62241D01*
X92138Y62237D01*
X92137Y62231D01*
Y62224D01*
X92136Y62215D01*
X92136Y62197D01*
Y62195D01*
Y62192D01*
Y62185D01*
X92136Y62177D01*
X92137Y62166D01*
X92139Y62155D01*
X92144Y62132D01*
Y62131D01*
X92146Y62128D01*
X92148Y62121D01*
X92151Y62114D01*
X92154Y62105D01*
X92158Y62095D01*
X92169Y62071D01*
X92175D01*
X92180Y62070D01*
X92223D01*
X92230Y62071D01*
X92244Y62072D01*
X92260Y62073D01*
X92276Y62076D01*
X92293Y62079D01*
X92308Y62083D01*
X92310Y62084D01*
X92314Y62086D01*
X92322Y62089D01*
X92329Y62093D01*
X92339Y62099D01*
X92349Y62104D01*
X92358Y62112D01*
X92367Y62120D01*
X92368Y62121D01*
X92370Y62124D01*
X92372Y62128D01*
X92377Y62132D01*
X92381Y62138D01*
X92386Y62146D01*
X92393Y62161D01*
Y62161D01*
X92394Y62164D01*
X92395Y62169D01*
X92397Y62175D01*
X92398Y62181D01*
X92400Y62190D01*
X92401Y62208D01*
Y62208D01*
Y62210D01*
Y62213D01*
X92400Y62217D01*
X92399Y62228D01*
X92396Y62241D01*
X92392Y62256D01*
X92386Y62271D01*
X92377Y62286D01*
X92365Y62301D01*
X92363Y62302D01*
X92358Y62306D01*
X92350Y62312D01*
X92339Y62318D01*
X92324Y62324D01*
X92307Y62330D01*
X92286Y62333D01*
X92262Y62335D01*
D02*
G37*
G36*
X92178Y57922D02*
X92172D01*
X92167Y57921D01*
X92157Y57920D01*
X92144Y57918D01*
X92129Y57914D01*
X92113Y57909D01*
X92098Y57901D01*
X92085Y57891D01*
X92083Y57890D01*
X92079Y57885D01*
X92074Y57878D01*
X92068Y57868D01*
X92061Y57855D01*
X92057Y57840D01*
X92053Y57821D01*
X92051Y57800D01*
Y57799D01*
Y57797D01*
Y57794D01*
X92052Y57789D01*
Y57785D01*
X92053Y57778D01*
X92056Y57764D01*
X92059Y57748D01*
X92066Y57732D01*
X92075Y57716D01*
X92088Y57701D01*
X92089Y57699D01*
X92094Y57695D01*
X92102Y57689D01*
X92113Y57682D01*
X92126Y57675D01*
X92141Y57668D01*
X92158Y57663D01*
X92178Y57660D01*
Y57922D01*
D02*
G37*
G36*
X90900Y56732D02*
X90884D01*
X90874Y56730D01*
X90862D01*
X90849Y56729D01*
X90819Y56725D01*
X90818D01*
X90812Y56723D01*
X90805Y56722D01*
X90796Y56719D01*
X90784Y56716D01*
X90773Y56712D01*
X90749Y56702D01*
X90748D01*
X90743Y56699D01*
X90738Y56696D01*
X90731Y56691D01*
X90715Y56678D01*
X90700Y56660D01*
X90698Y56658D01*
X90697Y56656D01*
X90694Y56650D01*
X90690Y56643D01*
X90687Y56633D01*
X90684Y56622D01*
X90683Y56609D01*
X90681Y56595D01*
Y56594D01*
Y56592D01*
X90683Y56582D01*
X90684Y56570D01*
X90688Y56556D01*
Y56554D01*
X90690Y56553D01*
X90693Y56544D01*
X90698Y56532D01*
X90707Y56517D01*
Y56516D01*
X90710Y56515D01*
X90712Y56510D01*
X90715Y56505D01*
X90726Y56491D01*
X90741Y56475D01*
X90742Y56474D01*
X90743Y56471D01*
X90749Y56467D01*
X90755Y56462D01*
X90770Y56448D01*
X90790Y56431D01*
X91007D01*
X91010Y56433D01*
X91015Y56439D01*
X91024Y56447D01*
X91035Y56457D01*
X91048Y56468D01*
X91061Y56481D01*
X91073Y56495D01*
X91085Y56509D01*
X91086Y56510D01*
X91089Y56516D01*
X91093Y56523D01*
X91097Y56533D01*
X91103Y56546D01*
X91107Y56558D01*
X91110Y56572D01*
X91111Y56588D01*
Y56589D01*
Y56595D01*
X91110Y56602D01*
X91108Y56610D01*
X91104Y56632D01*
X91100Y56643D01*
X91094Y56653D01*
X91093Y56654D01*
X91092Y56657D01*
X91087Y56663D01*
X91082Y56670D01*
X91075Y56677D01*
X91066Y56684D01*
X91045Y56698D01*
X91044Y56699D01*
X91039Y56701D01*
X91034Y56704D01*
X91025Y56708D01*
X91015Y56712D01*
X91003Y56716D01*
X90977Y56723D01*
X90976D01*
X90970Y56725D01*
X90963Y56726D01*
X90953Y56728D01*
X90942Y56729D01*
X90928Y56730D01*
X90900Y56732D01*
D02*
G37*
G36*
X92217Y59225D02*
X91920Y59117D01*
X92217Y59011D01*
Y59225D01*
D02*
G37*
G36*
X92175Y55994D02*
X92131D01*
X92116Y55994D01*
X92099D01*
X92081Y55993D01*
X92063Y55991D01*
X92045Y55989D01*
X92043D01*
X92038Y55988D01*
X92029Y55987D01*
X92018Y55985D01*
X92006Y55982D01*
X91994Y55978D01*
X91980Y55975D01*
X91968Y55969D01*
X91966Y55968D01*
X91963Y55966D01*
X91957Y55963D01*
X91950Y55959D01*
X91943Y55953D01*
X91934Y55947D01*
X91927Y55939D01*
X91920Y55930D01*
X91919Y55929D01*
X91917Y55925D01*
X91916Y55920D01*
X91912Y55913D01*
X91909Y55903D01*
X91907Y55893D01*
X91905Y55881D01*
X91904Y55867D01*
Y55865D01*
Y55860D01*
X91905Y55853D01*
X91906Y55844D01*
X91908Y55834D01*
X91911Y55823D01*
X91915Y55813D01*
X91920Y55803D01*
X91921Y55802D01*
X91923Y55799D01*
X91927Y55794D01*
X91933Y55789D01*
X91939Y55782D01*
X91948Y55775D01*
X91957Y55769D01*
X91968Y55763D01*
X91969Y55762D01*
X91974Y55761D01*
X91980Y55759D01*
X91989Y55756D01*
X92001Y55753D01*
X92014Y55749D01*
X92029Y55746D01*
X92047Y55744D01*
X92052D01*
X92056Y55744D01*
X92065Y55743D01*
X92078D01*
X92094Y55742D01*
X92112Y55741D01*
X92132Y55740D01*
X92176D01*
X92190Y55741D01*
X92207D01*
X92225Y55742D01*
X92243Y55743D01*
X92260Y55744D01*
X92261D01*
X92267Y55744D01*
X92275Y55745D01*
X92285Y55748D01*
X92297Y55750D01*
X92309Y55754D01*
X92323Y55759D01*
X92336Y55763D01*
X92337Y55764D01*
X92341Y55766D01*
X92347Y55769D01*
X92354Y55773D01*
X92362Y55778D01*
X92370Y55785D01*
X92378Y55792D01*
X92385Y55801D01*
X92386Y55802D01*
X92387Y55806D01*
X92389Y55811D01*
X92392Y55819D01*
X92396Y55828D01*
X92398Y55839D01*
X92400Y55853D01*
X92401Y55867D01*
Y55869D01*
Y55873D01*
X92400Y55880D01*
X92399Y55889D01*
X92397Y55900D01*
X92394Y55910D01*
X92390Y55920D01*
X92386Y55931D01*
X92385Y55931D01*
X92383Y55934D01*
X92379Y55939D01*
X92373Y55945D01*
X92367Y55951D01*
X92358Y55958D01*
X92349Y55963D01*
X92338Y55969D01*
X92336Y55970D01*
X92332Y55972D01*
X92324Y55974D01*
X92315Y55978D01*
X92304Y55980D01*
X92291Y55984D01*
X92276Y55987D01*
X92260Y55989D01*
X92258D01*
X92255Y55990D01*
X92252D01*
X92243Y55991D01*
X92230Y55992D01*
X92214Y55993D01*
X92196Y55994D01*
X92175Y55994D01*
D02*
G37*
G36*
X92032Y57354D02*
X92011D01*
X92004Y57353D01*
X91989Y57351D01*
X91974Y57345D01*
X91973D01*
X91970Y57343D01*
X91967Y57341D01*
X91963Y57337D01*
X91957Y57334D01*
X91951Y57328D01*
X91946Y57321D01*
X91940Y57314D01*
X91939Y57313D01*
X91938Y57311D01*
X91936Y57307D01*
X91933Y57302D01*
X91931Y57296D01*
X91928Y57289D01*
X91923Y57272D01*
Y57271D01*
X91922Y57268D01*
X91921Y57262D01*
X91920Y57256D01*
Y57247D01*
X91919Y57238D01*
X91918Y57227D01*
Y57215D01*
Y57120D01*
X92147D01*
Y57202D01*
Y57204D01*
Y57209D01*
Y57216D01*
X92146Y57225D01*
X92145Y57235D01*
X92144Y57246D01*
X92142Y57258D01*
X92140Y57269D01*
Y57270D01*
X92139Y57274D01*
X92137Y57279D01*
X92135Y57286D01*
X92132Y57293D01*
X92127Y57302D01*
X92122Y57310D01*
X92116Y57318D01*
X92115Y57319D01*
X92113Y57321D01*
X92109Y57324D01*
X92105Y57328D01*
X92099Y57333D01*
X92092Y57337D01*
X92085Y57341D01*
X92076Y57345D01*
X92075D01*
X92073Y57347D01*
X92067Y57348D01*
X92060Y57350D01*
X92053Y57352D01*
X92043Y57352D01*
X92032Y57354D01*
D02*
G37*
G36*
X92152Y63269D02*
X92140D01*
X92135Y63268D01*
X92127D01*
X92110Y63266D01*
X92091Y63262D01*
X92072Y63258D01*
X92051Y63252D01*
X92032Y63243D01*
X92031D01*
X92030Y63242D01*
X92027Y63240D01*
X92024Y63239D01*
X92015Y63233D01*
X92004Y63224D01*
X91992Y63214D01*
X91979Y63201D01*
X91966Y63186D01*
X91955Y63169D01*
X91954Y63167D01*
X91951Y63162D01*
X91949Y63156D01*
X91944Y63146D01*
X91939Y63134D01*
X91934Y63121D01*
X91931Y63107D01*
X91927Y63092D01*
Y63090D01*
X91926Y63084D01*
X91924Y63076D01*
X91922Y63065D01*
X91921Y63051D01*
X91919Y63034D01*
X91918Y63016D01*
Y62995D01*
Y62920D01*
X92386D01*
Y62995D01*
Y62996D01*
Y62998D01*
Y63001D01*
Y63005D01*
Y63010D01*
X92386Y63016D01*
Y63030D01*
X92385Y63046D01*
X92383Y63064D01*
X92381Y63081D01*
X92378Y63098D01*
Y63098D01*
Y63099D01*
X92376Y63105D01*
X92374Y63114D01*
X92370Y63124D01*
X92367Y63136D01*
X92361Y63149D01*
X92354Y63163D01*
X92347Y63177D01*
Y63178D01*
X92346Y63179D01*
X92341Y63185D01*
X92336Y63192D01*
X92326Y63203D01*
X92316Y63214D01*
X92303Y63225D01*
X92288Y63236D01*
X92271Y63245D01*
X92270D01*
X92269Y63246D01*
X92266Y63247D01*
X92262Y63249D01*
X92258Y63251D01*
X92252Y63253D01*
X92238Y63257D01*
X92221Y63261D01*
X92200Y63265D01*
X92178Y63268D01*
X92152Y63269D01*
D02*
G37*
G36*
X89397Y60534D02*
X88486D01*
Y60318D01*
X89009D01*
X88486Y59984D01*
Y59703D01*
X89397D01*
Y59919D01*
X88772D01*
X89397Y60307D01*
Y60534D01*
D02*
G37*
G36*
Y61425D02*
X89221D01*
Y61000D01*
X88995D01*
Y61394D01*
X88819D01*
Y61000D01*
X88663D01*
Y61425D01*
X88486D01*
Y60765D01*
X89397D01*
Y61425D01*
D02*
G37*
G36*
Y59513D02*
X89235D01*
Y59364D01*
X88648D01*
Y59513D01*
X88486D01*
Y58979D01*
X88648D01*
Y59128D01*
X89235D01*
Y58979D01*
X89397D01*
Y59513D01*
D02*
G37*
G36*
Y57991D02*
X88486D01*
Y57775D01*
X89009D01*
X88486Y57441D01*
Y57160D01*
X89397D01*
Y57376D01*
X88772D01*
X89397Y57764D01*
Y57991D01*
D02*
G37*
G36*
Y58879D02*
X89221D01*
Y58457D01*
X88486D01*
Y58222D01*
X89397D01*
Y58879D01*
D02*
G37*
G36*
Y62464D02*
X88486Y62127D01*
Y61855D01*
X89397Y61519D01*
Y61756D01*
X89214Y61819D01*
Y62155D01*
X89397Y62218D01*
Y62464D01*
D02*
G37*
G36*
X88888Y66558D02*
X88876D01*
X88844Y66555D01*
X88814Y66550D01*
X88789Y66541D01*
X88769Y66531D01*
X88752Y66521D01*
X88740Y66513D01*
X88732Y66507D01*
X88730Y66505D01*
X88710Y66483D01*
X88694Y66461D01*
X88682Y66437D01*
X88672Y66414D01*
X88665Y66395D01*
X88659Y66378D01*
X88658Y66372D01*
Y66368D01*
X88656Y66365D01*
Y66364D01*
X88651D01*
X88639Y66386D01*
X88627Y66406D01*
X88613Y66423D01*
X88600Y66437D01*
X88589Y66448D01*
X88580Y66455D01*
X88575Y66461D01*
X88572Y66462D01*
X88552Y66474D01*
X88532Y66482D01*
X88513Y66489D01*
X88494Y66493D01*
X88479Y66496D01*
X88467Y66498D01*
X88456D01*
X88435Y66496D01*
X88415Y66493D01*
X88398Y66489D01*
X88384Y66485D01*
X88372Y66479D01*
X88362Y66475D01*
X88356Y66472D01*
X88355Y66471D01*
X88339Y66461D01*
X88325Y66448D01*
X88312Y66436D01*
X88303Y66423D01*
X88294Y66412D01*
X88288Y66403D01*
X88286Y66397D01*
X88284Y66395D01*
X88276Y66376D01*
X88269Y66358D01*
X88263Y66340D01*
X88259Y66326D01*
X88255Y66311D01*
X88253Y66302D01*
X88252Y66296D01*
Y66293D01*
X88250Y66283D01*
X88249Y66272D01*
X88246Y66247D01*
X88245Y66220D01*
Y66193D01*
X88243Y66169D01*
Y66158D01*
Y66149D01*
Y66142D01*
Y66135D01*
Y66132D01*
Y66131D01*
Y65779D01*
X89154D01*
Y66176D01*
X89153Y66211D01*
X89151Y66244D01*
X89148Y66271D01*
X89146Y66295D01*
X89143Y66314D01*
X89140Y66328D01*
X89138Y66333D01*
X89137Y66337D01*
Y66338D01*
Y66340D01*
X89130Y66364D01*
X89122Y66386D01*
X89112Y66406D01*
X89102Y66423D01*
X89093Y66438D01*
X89088Y66448D01*
X89082Y66455D01*
X89081Y66458D01*
X89067Y66475D01*
X89052Y66489D01*
X89038Y66502D01*
X89024Y66512D01*
X89013Y66520D01*
X89003Y66527D01*
X88998Y66530D01*
X88995Y66531D01*
X88975Y66540D01*
X88954Y66547D01*
X88934Y66551D01*
X88916Y66555D01*
X88900Y66557D01*
X88888Y66558D01*
D02*
G37*
G36*
X88873Y67463D02*
X88868D01*
X88834Y67460D01*
X88804Y67455D01*
X88778Y67448D01*
X88755Y67438D01*
X88738Y67428D01*
X88725Y67421D01*
X88717Y67415D01*
X88714Y67412D01*
X88693Y67391D01*
X88675Y67367D01*
X88659Y67342D01*
X88645Y67317D01*
X88635Y67294D01*
X88631Y67283D01*
X88627Y67274D01*
X88624Y67267D01*
X88623Y67262D01*
X88621Y67259D01*
Y67257D01*
X88615Y67238D01*
X88610Y67219D01*
X88606Y67202D01*
X88601Y67187D01*
X88599Y67174D01*
X88596Y67166D01*
X88594Y67160D01*
Y67157D01*
X88587Y67123D01*
X88583Y67107D01*
X88580Y67092D01*
X88577Y67080D01*
X88575Y67070D01*
X88573Y67064D01*
Y67061D01*
X88568Y67035D01*
X88562Y67013D01*
X88556Y66995D01*
X88551Y66981D01*
X88546Y66970D01*
X88542Y66963D01*
X88541Y66959D01*
X88539Y66957D01*
X88531Y66949D01*
X88522Y66942D01*
X88513Y66937D01*
X88504Y66933D01*
X88496Y66932D01*
X88489Y66930D01*
X88483D01*
X88475Y66932D01*
X88466Y66933D01*
X88453Y66939D01*
X88448Y66942D01*
X88444Y66944D01*
X88442Y66947D01*
X88441D01*
X88428Y66961D01*
X88420Y66974D01*
X88417Y66980D01*
X88414Y66984D01*
X88412Y66987D01*
Y66988D01*
X88405Y67008D01*
X88400Y67026D01*
X88398Y67033D01*
Y67039D01*
X88397Y67042D01*
Y67043D01*
X88394Y67064D01*
X88393Y67084D01*
Y67091D01*
Y67097D01*
Y67101D01*
Y67102D01*
X88394Y67133D01*
X88397Y67163D01*
X88403Y67191D01*
X88407Y67215D01*
X88412Y67236D01*
X88415Y67245D01*
X88418Y67252D01*
X88420Y67257D01*
X88421Y67262D01*
X88422Y67264D01*
Y67266D01*
X88434Y67295D01*
X88446Y67321D01*
X88459Y67343D01*
X88470Y67363D01*
X88480Y67380D01*
X88489Y67391D01*
X88494Y67398D01*
X88496Y67401D01*
Y67427D01*
X88287D01*
X88277Y67401D01*
X88269Y67376D01*
X88262Y67349D01*
X88255Y67325D01*
X88250Y67304D01*
X88248Y67295D01*
X88246Y67288D01*
X88245Y67281D01*
Y67277D01*
X88243Y67274D01*
Y67273D01*
X88238Y67240D01*
X88232Y67208D01*
X88229Y67178D01*
X88228Y67152D01*
X88226Y67129D01*
X88225Y67121D01*
Y67112D01*
Y67105D01*
Y67101D01*
Y67098D01*
Y67097D01*
X88226Y67064D01*
X88228Y67032D01*
X88232Y67002D01*
X88238Y66974D01*
X88243Y66949D01*
X88250Y66925D01*
X88259Y66902D01*
X88266Y66882D01*
X88273Y66864D01*
X88281Y66847D01*
X88288Y66834D01*
X88294Y66823D01*
X88300Y66813D01*
X88303Y66808D01*
X88305Y66803D01*
X88307Y66802D01*
X88322Y66782D01*
X88339Y66765D01*
X88356Y66750D01*
X88373Y66737D01*
X88390Y66726D01*
X88408Y66717D01*
X88424Y66709D01*
X88441Y66703D01*
X88456Y66699D01*
X88469Y66695D01*
X88482Y66692D01*
X88493Y66691D01*
X88501D01*
X88508Y66689D01*
X88514D01*
X88548Y66692D01*
X88579Y66698D01*
X88607Y66705D01*
X88630Y66715D01*
X88649Y66723D01*
X88663Y66732D01*
X88668Y66734D01*
X88672Y66737D01*
X88673Y66739D01*
X88675D01*
X88686Y66748D01*
X88697Y66760D01*
X88717Y66787D01*
X88734Y66813D01*
X88748Y66841D01*
X88759Y66865D01*
X88765Y66877D01*
X88768Y66887D01*
X88771Y66894D01*
X88773Y66899D01*
X88775Y66904D01*
Y66905D01*
X88786Y66943D01*
X88792Y66961D01*
X88795Y66978D01*
X88799Y66991D01*
X88802Y67002D01*
X88803Y67009D01*
Y67012D01*
X88807Y67033D01*
X88810Y67054D01*
X88814Y67073D01*
X88818Y67088D01*
X88821Y67102D01*
X88823Y67114D01*
X88826Y67119D01*
Y67122D01*
X88830Y67139D01*
X88835Y67154D01*
X88841Y67166D01*
X88847Y67177D01*
X88851Y67185D01*
X88855Y67191D01*
X88858Y67194D01*
X88859Y67195D01*
X88868Y67204D01*
X88876Y67211D01*
X88885Y67215D01*
X88893Y67219D01*
X88900Y67221D01*
X88904Y67222D01*
X88910D01*
X88921Y67221D01*
X88931Y67219D01*
X88940Y67216D01*
X88947Y67214D01*
X88952Y67209D01*
X88957Y67207D01*
X88958Y67205D01*
X88959Y67204D01*
X88971Y67190D01*
X88979Y67176D01*
X88983Y67170D01*
X88986Y67164D01*
X88988Y67161D01*
Y67160D01*
X88993Y67142D01*
X88998Y67123D01*
X88999Y67115D01*
Y67108D01*
X89000Y67104D01*
Y67102D01*
X89002Y67090D01*
Y67078D01*
Y67068D01*
X89003Y67061D01*
Y67054D01*
Y67050D01*
Y67047D01*
Y67046D01*
X89002Y67015D01*
X88999Y66984D01*
X88993Y66954D01*
X88988Y66927D01*
X88982Y66905D01*
X88979Y66896D01*
X88976Y66888D01*
X88975Y66881D01*
X88974Y66877D01*
X88972Y66874D01*
Y66873D01*
X88959Y66840D01*
X88945Y66809D01*
X88930Y66781D01*
X88916Y66757D01*
X88902Y66737D01*
X88892Y66722D01*
X88888Y66716D01*
X88885Y66712D01*
X88882Y66710D01*
Y66709D01*
Y66684D01*
X89102D01*
X89122Y66739D01*
X89130Y66765D01*
X89137Y66789D01*
X89143Y66810D01*
X89147Y66826D01*
X89150Y66832D01*
Y66836D01*
X89151Y66839D01*
Y66840D01*
X89158Y66873D01*
X89162Y66906D01*
X89167Y66940D01*
X89168Y66971D01*
X89170Y66998D01*
X89171Y67009D01*
Y67019D01*
Y67026D01*
Y67032D01*
Y67036D01*
Y67037D01*
X89170Y67073D01*
X89167Y67107D01*
X89164Y67139D01*
X89158Y67169D01*
X89151Y67197D01*
X89144Y67222D01*
X89137Y67245D01*
X89129Y67266D01*
X89122Y67284D01*
X89115Y67301D01*
X89107Y67315D01*
X89100Y67326D01*
X89095Y67336D01*
X89092Y67342D01*
X89089Y67346D01*
X89088Y67348D01*
X89071Y67367D01*
X89054Y67386D01*
X89036Y67401D01*
X89017Y67414D01*
X88999Y67425D01*
X88981Y67435D01*
X88964Y67442D01*
X88945Y67449D01*
X88930Y67453D01*
X88916Y67458D01*
X88902Y67460D01*
X88890Y67462D01*
X88881D01*
X88873Y67463D01*
D02*
G37*
G36*
X89154Y65649D02*
X88243Y65312D01*
Y65040D01*
X89154Y64704D01*
Y64941D01*
X88971Y65005D01*
Y65340D01*
X89154Y65404D01*
Y65649D01*
D02*
G37*
G36*
X89397Y63471D02*
X89008Y63167D01*
X88991Y63198D01*
X88974Y63223D01*
X88956Y63247D01*
X88939Y63266D01*
X88925Y63280D01*
X88912Y63291D01*
X88905Y63297D01*
X88902Y63299D01*
X88877Y63315D01*
X88849Y63328D01*
X88822Y63336D01*
X88795Y63342D01*
X88772Y63345D01*
X88763Y63346D01*
X88754Y63347D01*
X88737D01*
X88710Y63346D01*
X88688Y63343D01*
X88667Y63338D01*
X88648Y63332D01*
X88634Y63326D01*
X88624Y63321D01*
X88619Y63318D01*
X88616Y63316D01*
X88598Y63305D01*
X88582Y63291D01*
X88570Y63277D01*
X88557Y63264D01*
X88548Y63253D01*
X88541Y63243D01*
X88537Y63237D01*
X88536Y63235D01*
X88526Y63215D01*
X88517Y63197D01*
X88510Y63178D01*
X88505Y63161D01*
X88500Y63146D01*
X88498Y63135D01*
X88496Y63127D01*
Y63125D01*
X88493Y63102D01*
X88491Y63078D01*
X88489Y63056D01*
X88488Y63034D01*
X88486Y63015D01*
Y63001D01*
Y62995D01*
Y62991D01*
Y62988D01*
Y62987D01*
Y62593D01*
X89397D01*
Y62829D01*
X89063D01*
Y62934D01*
X89397Y63182D01*
Y63471D01*
D02*
G37*
G36*
X89154Y64665D02*
X88978D01*
Y64243D01*
X88243D01*
Y64008D01*
X89154D01*
Y64665D01*
D02*
G37*
G36*
X90843Y59094D02*
X90831D01*
X90817Y59093D01*
X90798Y59090D01*
X90779Y59086D01*
X90757Y59079D01*
X90738Y59070D01*
X90719Y59058D01*
X90718Y59056D01*
X90712Y59051D01*
X90705Y59042D01*
X90697Y59031D01*
X90688Y59015D01*
X90681Y58997D01*
X90676Y58975D01*
X90674Y58949D01*
Y58948D01*
Y58944D01*
Y58935D01*
X90676Y58927D01*
X90680Y58905D01*
X90688Y58883D01*
Y58882D01*
X90691Y58879D01*
X90694Y58873D01*
X90698Y58866D01*
X90711Y58850D01*
X90726Y58835D01*
X90728Y58834D01*
X90731Y58832D01*
X90735Y58828D01*
X90742Y58825D01*
X90749Y58819D01*
X90759Y58815D01*
X90780Y58805D01*
X90781D01*
X90786Y58804D01*
X90791Y58803D01*
X90800Y58801D01*
X90810Y58798D01*
X90819Y58797D01*
X90843Y58796D01*
Y59094D01*
D02*
G37*
G36*
X90898Y63603D02*
X90882D01*
X90870Y63601D01*
X90858D01*
X90843Y63600D01*
X90814Y63594D01*
X90812D01*
X90807Y63593D01*
X90800Y63590D01*
X90790Y63587D01*
X90767Y63579D01*
X90745Y63566D01*
X90743Y63565D01*
X90739Y63563D01*
X90735Y63559D01*
X90728Y63553D01*
X90721Y63546D01*
X90712Y63536D01*
X90705Y63526D01*
X90698Y63515D01*
X90697Y63514D01*
X90695Y63510D01*
X90693Y63503D01*
X90688Y63493D01*
X90686Y63481D01*
X90683Y63467D01*
X90681Y63452D01*
X90680Y63433D01*
Y63432D01*
Y63426D01*
X90681Y63418D01*
Y63407D01*
X90684Y63395D01*
X90687Y63381D01*
X90691Y63369D01*
X90697Y63356D01*
Y63354D01*
X90700Y63350D01*
X90704Y63345D01*
X90708Y63338D01*
X90722Y63321D01*
X90742Y63304D01*
X90743Y63302D01*
X90748Y63301D01*
X90753Y63297D01*
X90760Y63292D01*
X90770Y63287D01*
X90783Y63281D01*
X90796Y63277D01*
X90810Y63273D01*
X90811D01*
X90817Y63271D01*
X90825Y63270D01*
X90835Y63269D01*
X90848Y63266D01*
X90863Y63264D01*
X90879Y63263D01*
X90913D01*
X90922Y63264D01*
X90936D01*
X90951Y63266D01*
X90980Y63270D01*
X90982D01*
X90987Y63271D01*
X90994Y63274D01*
X91004Y63277D01*
X91025Y63285D01*
X91049Y63298D01*
X91051Y63300D01*
X91053Y63302D01*
X91059Y63307D01*
X91066Y63312D01*
X91073Y63319D01*
X91082Y63329D01*
X91096Y63350D01*
Y63352D01*
X91099Y63356D01*
X91101Y63363D01*
X91104Y63373D01*
X91107Y63384D01*
X91110Y63398D01*
X91111Y63414D01*
X91113Y63431D01*
Y63432D01*
Y63438D01*
X91111Y63446D01*
Y63457D01*
X91108Y63470D01*
X91106Y63483D01*
X91103Y63495D01*
X91097Y63508D01*
X91096Y63510D01*
X91094Y63514D01*
X91090Y63519D01*
X91086Y63526D01*
X91072Y63545D01*
X91053Y63562D01*
X91052Y63563D01*
X91048Y63565D01*
X91042Y63569D01*
X91034Y63573D01*
X91024Y63579D01*
X91013Y63584D01*
X91000Y63589D01*
X90986Y63593D01*
X90984D01*
X90979Y63594D01*
X90970Y63596D01*
X90959Y63598D01*
X90946Y63600D01*
X90932Y63601D01*
X90898Y63603D01*
D02*
G37*
G36*
X90967Y62940D02*
X90955D01*
X90946Y62939D01*
X90927Y62936D01*
X90905Y62929D01*
X90904D01*
X90901Y62927D01*
X90896Y62925D01*
X90890Y62920D01*
X90874Y62910D01*
X90860Y62895D01*
X90859Y62894D01*
X90858Y62891D01*
X90853Y62886D01*
X90850Y62881D01*
X90845Y62872D01*
X90841Y62864D01*
X90832Y62841D01*
Y62840D01*
X90831Y62836D01*
X90829Y62829D01*
X90827Y62819D01*
X90825Y62808D01*
X90824Y62793D01*
X90822Y62778D01*
Y62760D01*
Y62634D01*
X91100D01*
Y62786D01*
Y62788D01*
Y62792D01*
Y62799D01*
X91099Y62808D01*
X91096Y62827D01*
X91092Y62848D01*
Y62850D01*
X91090Y62853D01*
X91087Y62858D01*
X91086Y62864D01*
X91077Y62879D01*
X91068Y62895D01*
X91066Y62896D01*
X91065Y62899D01*
X91056Y62908D01*
X91042Y62917D01*
X91025Y62927D01*
X91024D01*
X91021Y62929D01*
X91015Y62932D01*
X91008Y62934D01*
X91000Y62936D01*
X90990Y62939D01*
X90967Y62940D01*
D02*
G37*
G36*
X91038Y61010D02*
X90921D01*
Y60924D01*
Y60923D01*
Y60917D01*
Y60909D01*
X90922Y60899D01*
Y60888D01*
X90924Y60875D01*
X90928Y60851D01*
Y60849D01*
X90929Y60847D01*
X90931Y60841D01*
X90934Y60834D01*
X90939Y60817D01*
X90949Y60802D01*
Y60800D01*
X90952Y60799D01*
X90959Y60790D01*
X90969Y60780D01*
X90983Y60772D01*
X90984D01*
X90986Y60771D01*
X90990Y60769D01*
X90996Y60768D01*
X91010Y60765D01*
X91027Y60763D01*
X91034D01*
X91041Y60765D01*
X91051Y60766D01*
X91062Y60771D01*
X91073Y60775D01*
X91085Y60782D01*
X91094Y60790D01*
X91096Y60792D01*
X91099Y60796D01*
X91101Y60802D01*
X91106Y60810D01*
X91111Y60820D01*
X91114Y60833D01*
X91117Y60848D01*
X91118Y60865D01*
Y60866D01*
Y60872D01*
X91117Y60879D01*
X91116Y60889D01*
X91114Y60900D01*
X91110Y60913D01*
X91106Y60926D01*
X91099Y60938D01*
X91097Y60940D01*
X91094Y60944D01*
X91090Y60951D01*
X91083Y60959D01*
X91075Y60971D01*
X91065Y60983D01*
X91052Y60996D01*
X91038Y61010D01*
D02*
G37*
G36*
X90609Y62894D02*
X90598D01*
X90591Y62892D01*
X90574Y62891D01*
X90557Y62885D01*
X90556D01*
X90553Y62884D01*
X90549Y62882D01*
X90543Y62879D01*
X90530Y62871D01*
X90518Y62860D01*
X90516Y62858D01*
X90515Y62857D01*
X90512Y62853D01*
X90509Y62848D01*
X90501Y62833D01*
X90494Y62815D01*
Y62813D01*
X90492Y62810D01*
X90491Y62803D01*
X90488Y62796D01*
X90487Y62785D01*
X90485Y62774D01*
X90484Y62758D01*
Y62743D01*
Y62634D01*
X90739D01*
Y62754D01*
Y62755D01*
Y62761D01*
Y62768D01*
X90738Y62778D01*
X90735Y62799D01*
X90732Y62809D01*
X90729Y62819D01*
Y62820D01*
X90728Y62823D01*
X90725Y62827D01*
X90721Y62834D01*
X90712Y62847D01*
X90701Y62861D01*
X90700Y62863D01*
X90698Y62864D01*
X90694Y62867D01*
X90688Y62871D01*
X90676Y62878D01*
X90659Y62885D01*
X90657D01*
X90655Y62886D01*
X90650Y62888D01*
X90643Y62889D01*
X90628Y62892D01*
X90609Y62894D01*
D02*
G37*
G36*
X89397Y55863D02*
X88486D01*
Y55648D01*
X89009D01*
X88486Y55314D01*
Y55033D01*
X89397D01*
Y55249D01*
X88772D01*
X89397Y55636D01*
Y55863D01*
D02*
G37*
G36*
X88953Y56981D02*
X88943D01*
X88902Y56980D01*
X88866Y56976D01*
X88829Y56970D01*
X88796Y56961D01*
X88765Y56952D01*
X88737Y56942D01*
X88710Y56930D01*
X88687Y56919D01*
X88667Y56906D01*
X88648Y56895D01*
X88633Y56885D01*
X88619Y56875D01*
X88609Y56867D01*
X88602Y56861D01*
X88598Y56857D01*
X88596Y56856D01*
X88574Y56832D01*
X88554Y56805D01*
X88537Y56777D01*
X88522Y56749D01*
X88510Y56720D01*
X88499Y56691D01*
X88491Y56663D01*
X88484Y56636D01*
X88479Y56610D01*
X88475Y56586D01*
X88472Y56565D01*
X88469Y56547D01*
Y56532D01*
X88468Y56520D01*
Y56513D01*
Y56510D01*
X88469Y56471D01*
X88474Y56433D01*
X88479Y56398D01*
X88488Y56365D01*
X88498Y56334D01*
X88509Y56306D01*
X88520Y56279D01*
X88531Y56257D01*
X88544Y56235D01*
X88555Y56217D01*
X88567Y56202D01*
X88577Y56189D01*
X88585Y56179D01*
X88591Y56172D01*
X88595Y56168D01*
X88596Y56166D01*
X88622Y56145D01*
X88647Y56126D01*
X88675Y56109D01*
X88703Y56095D01*
X88733Y56083D01*
X88761Y56073D01*
X88789Y56065D01*
X88818Y56058D01*
X88843Y56052D01*
X88867Y56049D01*
X88888Y56047D01*
X88906Y56044D01*
X88922D01*
X88933Y56042D01*
X88943D01*
X88983Y56044D01*
X89021Y56048D01*
X89056Y56054D01*
X89088Y56062D01*
X89119Y56071D01*
X89147Y56082D01*
X89174Y56093D01*
X89197Y56104D01*
X89218Y56116D01*
X89236Y56127D01*
X89252Y56138D01*
X89264Y56147D01*
X89276Y56155D01*
X89283Y56161D01*
X89287Y56165D01*
X89288Y56166D01*
X89311Y56190D01*
X89331Y56217D01*
X89348Y56245D01*
X89362Y56274D01*
X89374Y56302D01*
X89384Y56330D01*
X89393Y56358D01*
X89400Y56385D01*
X89404Y56412D01*
X89408Y56434D01*
X89411Y56455D01*
X89414Y56474D01*
Y56489D01*
X89415Y56500D01*
Y56508D01*
Y56510D01*
X89414Y56550D01*
X89410Y56588D01*
X89404Y56625D01*
X89396Y56657D01*
X89386Y56688D01*
X89374Y56716D01*
X89363Y56742D01*
X89352Y56766D01*
X89341Y56787D01*
X89328Y56805D01*
X89318Y56820D01*
X89308Y56833D01*
X89300Y56843D01*
X89294Y56850D01*
X89290Y56854D01*
X89288Y56856D01*
X89263Y56878D01*
X89236Y56897D01*
X89210Y56914D01*
X89180Y56928D01*
X89152Y56940D01*
X89122Y56950D01*
X89095Y56959D01*
X89067Y56966D01*
X89042Y56971D01*
X89018Y56974D01*
X88997Y56977D01*
X88978Y56980D01*
X88964D01*
X88953Y56981D01*
D02*
G37*
G36*
X91038Y57955D02*
X90921D01*
Y57869D01*
Y57868D01*
Y57862D01*
Y57854D01*
X90922Y57844D01*
Y57833D01*
X90924Y57820D01*
X90928Y57796D01*
Y57795D01*
X90929Y57792D01*
X90931Y57786D01*
X90934Y57779D01*
X90939Y57762D01*
X90949Y57747D01*
Y57745D01*
X90952Y57744D01*
X90959Y57735D01*
X90969Y57726D01*
X90983Y57717D01*
X90984D01*
X90986Y57716D01*
X90990Y57714D01*
X90996Y57713D01*
X91010Y57710D01*
X91027Y57709D01*
X91034D01*
X91041Y57710D01*
X91051Y57711D01*
X91062Y57716D01*
X91073Y57720D01*
X91085Y57727D01*
X91094Y57735D01*
X91096Y57737D01*
X91099Y57741D01*
X91101Y57747D01*
X91106Y57755D01*
X91111Y57765D01*
X91114Y57778D01*
X91117Y57793D01*
X91118Y57810D01*
Y57812D01*
Y57817D01*
X91117Y57824D01*
X91116Y57834D01*
X91114Y57845D01*
X91110Y57858D01*
X91106Y57871D01*
X91099Y57883D01*
X91097Y57885D01*
X91094Y57889D01*
X91090Y57896D01*
X91083Y57905D01*
X91075Y57916D01*
X91065Y57929D01*
X91052Y57941D01*
X91038Y57955D01*
D02*
G37*
G36*
Y64168D02*
X90921D01*
Y64082D01*
Y64080D01*
Y64075D01*
Y64066D01*
X90922Y64057D01*
Y64045D01*
X90924Y64033D01*
X90928Y64009D01*
Y64007D01*
X90929Y64004D01*
X90931Y63999D01*
X90934Y63992D01*
X90939Y63975D01*
X90949Y63959D01*
Y63958D01*
X90952Y63956D01*
X90959Y63948D01*
X90969Y63938D01*
X90983Y63930D01*
X90984D01*
X90986Y63928D01*
X90990Y63927D01*
X90996Y63925D01*
X91010Y63923D01*
X91027Y63921D01*
X91034D01*
X91041Y63923D01*
X91051Y63924D01*
X91062Y63928D01*
X91073Y63932D01*
X91085Y63940D01*
X91094Y63948D01*
X91096Y63949D01*
X91099Y63954D01*
X91101Y63959D01*
X91106Y63968D01*
X91111Y63978D01*
X91114Y63990D01*
X91117Y64006D01*
X91118Y64023D01*
Y64024D01*
Y64030D01*
X91117Y64037D01*
X91116Y64047D01*
X91114Y64058D01*
X91110Y64071D01*
X91106Y64083D01*
X91099Y64096D01*
X91097Y64097D01*
X91094Y64102D01*
X91090Y64109D01*
X91083Y64117D01*
X91075Y64128D01*
X91065Y64141D01*
X91052Y64154D01*
X91038Y64168D01*
D02*
G37*
G36*
X91006Y65256D02*
X90786D01*
X90783Y65255D01*
X90777Y65249D01*
X90769Y65241D01*
X90757Y65231D01*
X90745Y65220D01*
X90732Y65205D01*
X90719Y65191D01*
X90708Y65177D01*
X90707Y65176D01*
X90704Y65170D01*
X90700Y65163D01*
X90694Y65153D01*
X90690Y65141D01*
X90686Y65128D01*
X90683Y65112D01*
X90681Y65097D01*
Y65095D01*
Y65091D01*
X90683Y65083D01*
X90684Y65074D01*
X90688Y65053D01*
X90694Y65042D01*
X90700Y65032D01*
X90701Y65031D01*
X90702Y65028D01*
X90707Y65022D01*
X90712Y65017D01*
X90719Y65009D01*
X90728Y65002D01*
X90749Y64988D01*
X90750D01*
X90755Y64986D01*
X90760Y64983D01*
X90769Y64978D01*
X90779Y64976D01*
X90790Y64971D01*
X90817Y64964D01*
X90818D01*
X90822Y64963D01*
X90831Y64962D01*
X90839D01*
X90852Y64960D01*
X90865Y64959D01*
X90893Y64957D01*
X90908D01*
X90918Y64959D01*
X90931D01*
X90945Y64960D01*
X90975Y64963D01*
X90976D01*
X90982Y64964D01*
X90989Y64966D01*
X90999Y64969D01*
X91008Y64971D01*
X91021Y64976D01*
X91045Y64986D01*
X91046Y64987D01*
X91049Y64988D01*
X91055Y64991D01*
X91062Y64997D01*
X91077Y65009D01*
X91093Y65026D01*
X91094Y65028D01*
X91096Y65031D01*
X91099Y65038D01*
X91101Y65045D01*
X91106Y65055D01*
X91108Y65066D01*
X91110Y65079D01*
X91111Y65093D01*
Y65094D01*
Y65095D01*
Y65105D01*
X91110Y65117D01*
X91107Y65131D01*
Y65132D01*
X91106Y65134D01*
X91103Y65143D01*
X91097Y65155D01*
X91089Y65169D01*
Y65170D01*
X91086Y65172D01*
X91083Y65176D01*
X91080Y65181D01*
X91069Y65194D01*
X91056Y65210D01*
X91055Y65211D01*
X91052Y65214D01*
X91048Y65218D01*
X91042Y65224D01*
X91025Y65239D01*
X91006Y65256D01*
D02*
G37*
%LPD*%
G36*
X88522Y66255D02*
X88538Y66252D01*
X88545Y66249D01*
X88549Y66248D01*
X88552Y66247D01*
X88553D01*
X88562Y66242D01*
X88569Y66235D01*
X88580Y66221D01*
X88584Y66216D01*
X88587Y66210D01*
X88590Y66206D01*
Y66204D01*
X88593Y66196D01*
X88596Y66185D01*
X88600Y66165D01*
Y66156D01*
X88601Y66149D01*
Y66144D01*
Y66142D01*
Y66127D01*
X88603Y66111D01*
Y66096D01*
Y66082D01*
Y66069D01*
Y66059D01*
Y66052D01*
Y66049D01*
Y66014D01*
X88411D01*
Y66035D01*
Y66059D01*
Y66080D01*
Y66099D01*
Y66114D01*
X88412Y66125D01*
Y66134D01*
Y66139D01*
Y66141D01*
X88414Y66155D01*
X88415Y66166D01*
X88417Y66178D01*
X88418Y66187D01*
X88421Y66194D01*
X88422Y66200D01*
X88424Y66203D01*
Y66204D01*
X88428Y66214D01*
X88434Y66223D01*
X88438Y66230D01*
X88444Y66235D01*
X88452Y66242D01*
X88455Y66245D01*
X88456D01*
X88473Y66252D01*
X88487Y66255D01*
X88493Y66256D01*
X88501D01*
X88522Y66255D01*
D02*
G37*
G36*
X88895Y66311D02*
X88904Y66310D01*
X88913Y66307D01*
X88920Y66304D01*
X88926Y66303D01*
X88928Y66300D01*
X88930D01*
X88938Y66295D01*
X88947Y66286D01*
X88959Y66269D01*
X88965Y66262D01*
X88968Y66255D01*
X88969Y66251D01*
X88971Y66249D01*
X88976Y66235D01*
X88979Y66223D01*
X88982Y66209D01*
X88985Y66197D01*
Y66186D01*
X88986Y66178D01*
Y66172D01*
Y66170D01*
Y66152D01*
Y66131D01*
Y66108D01*
Y66084D01*
Y66063D01*
Y66046D01*
Y66041D01*
Y66035D01*
Y66032D01*
Y66031D01*
Y66014D01*
X88761D01*
Y66065D01*
Y66084D01*
Y66103D01*
Y66120D01*
Y66134D01*
X88762Y66147D01*
Y66156D01*
Y66162D01*
Y66165D01*
Y66182D01*
X88764Y66197D01*
X88765Y66210D01*
X88766Y66220D01*
X88768Y66228D01*
X88769Y66235D01*
X88771Y66238D01*
Y66240D01*
X88775Y66254D01*
X88780Y66266D01*
X88786Y66276D01*
X88792Y66283D01*
X88797Y66290D01*
X88802Y66295D01*
X88804Y66296D01*
X88806Y66297D01*
X88816Y66303D01*
X88826Y66307D01*
X88847Y66313D01*
X88857D01*
X88865Y66314D01*
X88872D01*
X88895Y66311D01*
D02*
G37*
G36*
X89046Y61876D02*
X88725Y61987D01*
X89046Y62098D01*
Y61876D01*
D02*
G37*
G36*
X88994Y56735D02*
X89016Y56732D01*
X89036Y56729D01*
X89052Y56726D01*
X89064Y56723D01*
X89071Y56722D01*
X89074Y56720D01*
X89094Y56713D01*
X89114Y56705D01*
X89131Y56696D01*
X89145Y56689D01*
X89156Y56681D01*
X89166Y56675D01*
X89171Y56671D01*
X89173Y56670D01*
X89186Y56658D01*
X89197Y56646D01*
X89205Y56633D01*
X89214Y56622D01*
X89219Y56612D01*
X89224Y56605D01*
X89225Y56599D01*
X89226Y56598D01*
X89232Y56582D01*
X89236Y56567D01*
X89239Y56553D01*
X89241Y56540D01*
X89242Y56529D01*
X89243Y56519D01*
Y56513D01*
Y56512D01*
X89242Y56495D01*
X89241Y56479D01*
X89238Y56464D01*
X89235Y56451D01*
X89232Y56440D01*
X89229Y56431D01*
X89226Y56426D01*
Y56424D01*
X89219Y56410D01*
X89211Y56396D01*
X89202Y56383D01*
X89194Y56374D01*
X89187Y56365D01*
X89180Y56360D01*
X89176Y56355D01*
X89174Y56354D01*
X89160Y56343D01*
X89145Y56333D01*
X89129Y56324D01*
X89114Y56317D01*
X89101Y56312D01*
X89091Y56307D01*
X89084Y56306D01*
X89081Y56305D01*
X89059Y56299D01*
X89035Y56295D01*
X89012Y56290D01*
X88991Y56289D01*
X88971Y56288D01*
X88957Y56286D01*
X88943D01*
X88913Y56288D01*
X88887Y56289D01*
X88864Y56292D01*
X88843Y56296D01*
X88826Y56299D01*
X88813Y56302D01*
X88806Y56303D01*
X88804Y56305D01*
X88782Y56313D01*
X88763Y56321D01*
X88747Y56330D01*
X88733Y56337D01*
X88723Y56344D01*
X88715Y56350D01*
X88710Y56354D01*
X88709Y56355D01*
X88696Y56368D01*
X88685Y56381D01*
X88677Y56392D01*
X88670Y56403D01*
X88664Y56413D01*
X88660Y56420D01*
X88657Y56426D01*
Y56427D01*
X88651Y56443D01*
X88647Y56457D01*
X88644Y56471D01*
X88641Y56485D01*
Y56495D01*
X88640Y56505D01*
Y56510D01*
Y56512D01*
Y56529D01*
X88643Y56543D01*
X88646Y56558D01*
X88648Y56571D01*
X88651Y56581D01*
X88654Y56589D01*
X88656Y56595D01*
X88657Y56596D01*
X88664Y56612D01*
X88672Y56625D01*
X88681Y56637D01*
X88689Y56647D01*
X88698Y56657D01*
X88705Y56663D01*
X88709Y56667D01*
X88710Y56668D01*
X88725Y56680D01*
X88740Y56689D01*
X88756Y56698D01*
X88770Y56705D01*
X88784Y56711D01*
X88794Y56715D01*
X88801Y56716D01*
X88804Y56718D01*
X88826Y56725D01*
X88849Y56729D01*
X88873Y56733D01*
X88894Y56735D01*
X88913Y56736D01*
X88928Y56737D01*
X88970D01*
X88994Y56735D01*
D02*
G37*
G36*
X88803Y65061D02*
X88482Y65172D01*
X88803Y65284D01*
Y65061D01*
D02*
G37*
G36*
X88791Y63102D02*
X88802Y63101D01*
X88811Y63098D01*
X88818Y63096D01*
X88823Y63094D01*
X88826Y63092D01*
X88827D01*
X88843Y63082D01*
X88856Y63070D01*
X88861Y63064D01*
X88866Y63060D01*
X88867Y63057D01*
X88868Y63056D01*
X88881Y63034D01*
X88888Y63015D01*
X88891Y63006D01*
X88892Y62999D01*
X88894Y62994D01*
Y62992D01*
X88895Y62978D01*
X88897Y62963D01*
Y62947D01*
X88898Y62932D01*
Y62919D01*
Y62909D01*
Y62902D01*
Y62899D01*
Y62829D01*
X88654D01*
Y62912D01*
Y62927D01*
Y62941D01*
X88656Y62954D01*
Y62964D01*
Y62972D01*
X88657Y62979D01*
Y62984D01*
Y62985D01*
X88660Y63008D01*
X88661Y63018D01*
X88664Y63026D01*
X88665Y63032D01*
X88667Y63037D01*
X88668Y63040D01*
Y63042D01*
X88674Y63053D01*
X88681Y63063D01*
X88687Y63071D01*
X88694Y63078D01*
X88699Y63084D01*
X88703Y63087D01*
X88706Y63089D01*
X88708D01*
X88727Y63098D01*
X88746Y63102D01*
X88753Y63104D01*
X88780D01*
X88791Y63102D01*
D02*
G37*
D44*
X45335Y36461D02*
G03*
X45335Y32119I-1520J-2171D01*
G01*
X123165Y59690D02*
G03*
X123165Y59690I-3150J0D01*
G01*
X59502Y107950D02*
G03*
X59502Y107950I-224J0D01*
G01*
X117030Y85090D02*
G03*
X117030Y85090I-4000J0D01*
G01*
X109195Y59690D02*
G03*
X109195Y59690I-3150J0D01*
G01*
X45335Y32119D02*
Y36461D01*
X85973Y35550D02*
X101945D01*
X85973Y27950D02*
X101945D01*
Y35550D01*
X28410Y17860D02*
Y27860D01*
X30010Y17860D02*
Y27860D01*
X28410D02*
X30010D01*
X28410Y17860D02*
X30010D01*
X16545Y93980D02*
X17745D01*
X14640D02*
X15840D01*
X37530Y48030D02*
Y48830D01*
X37030Y48030D02*
X37530D01*
Y50230D02*
Y51030D01*
X37030D02*
X37530D01*
Y52475D02*
Y53275D01*
X37030Y52475D02*
X37530D01*
Y54675D02*
Y55475D01*
X37030D02*
X37530D01*
Y56920D02*
Y57720D01*
X37030Y56920D02*
X37530D01*
Y59120D02*
Y59920D01*
X37030D02*
X37530D01*
Y61365D02*
Y62165D01*
X37030Y61365D02*
X37530D01*
Y63565D02*
Y64365D01*
X37030D02*
X37530D01*
Y65810D02*
Y66610D01*
X37030Y65810D02*
X37530D01*
Y68010D02*
Y68810D01*
X37030D02*
X37530D01*
Y70255D02*
Y71055D01*
X37030Y70255D02*
X37530D01*
Y72455D02*
Y73255D01*
X37030D02*
X37530D01*
Y74700D02*
Y75500D01*
X37030Y74700D02*
X37530D01*
Y76900D02*
Y77700D01*
X37030D02*
X37530D01*
X60325Y51470D02*
Y52670D01*
X102270Y11430D02*
X103470D01*
X104810Y10795D02*
X106010D01*
X107365D02*
X108565D01*
X109905D02*
X111105D01*
X112445D02*
X113645D01*
X114985D02*
X116185D01*
X117525D02*
X118725D01*
X120065D02*
X121265D01*
X140385Y11695D02*
X141585D01*
X137845Y10795D02*
X139045D01*
X135305D02*
X136505D01*
X132765D02*
X133965D01*
X130225D02*
X131425D01*
X127685D02*
X128885D01*
X125145D02*
X126345D01*
X122605D02*
X123805D01*
X70485Y92110D02*
Y93310D01*
Y89570D02*
Y90770D01*
X108505Y71790D02*
Y72990D01*
X100885Y71790D02*
Y72990D01*
X101600Y20990D02*
Y22190D01*
Y19085D02*
Y20285D01*
X122475Y71790D02*
Y72990D01*
X114855Y71790D02*
Y72990D01*
X32385Y29245D02*
Y30445D01*
Y31785D02*
Y32985D01*
X140970Y52055D02*
Y53355D01*
Y65390D02*
Y66690D01*
Y60945D02*
Y62245D01*
X41275Y5080D02*
Y12700D01*
X38735D02*
X41275D01*
X38735Y5080D02*
Y12700D01*
Y5080D02*
X41275D01*
X69215D02*
Y12700D01*
X66675D02*
X69215D01*
X66675Y5080D02*
Y12700D01*
Y5080D02*
X69215D01*
X103425Y76200D02*
X108505D01*
X103425D02*
Y78740D01*
X108505D01*
Y76200D02*
Y78740D01*
X100250Y50800D02*
Y55880D01*
X102790D01*
Y50800D02*
Y55880D01*
X100250Y50800D02*
X102790D01*
X117395Y78740D02*
X122475D01*
Y76200D02*
Y78740D01*
X117395Y76200D02*
X122475D01*
X117395D02*
Y78740D01*
X114220Y50800D02*
Y55880D01*
X116760D01*
Y50800D02*
Y55880D01*
X114220Y50800D02*
X116760D01*
X96520Y17780D02*
X104140D01*
X96520Y15240D02*
Y17780D01*
Y15240D02*
X104140D01*
Y17780D01*
X5080Y43815D02*
X12700D01*
Y46355D01*
X5080D02*
X12700D01*
X5080Y43815D02*
Y46355D01*
X117395Y50800D02*
X122475D01*
X117395D02*
Y53340D01*
X122475D01*
Y50800D02*
Y53340D01*
X117265Y63960D02*
X120065D01*
X117265Y70660D02*
X120065D01*
Y63960D02*
Y70660D01*
X117265Y63960D02*
Y70660D01*
X108585Y95250D02*
Y100330D01*
X106045D02*
X108585D01*
X106045Y95250D02*
Y100330D01*
Y95250D02*
X108585D01*
X106045Y89535D02*
Y94615D01*
Y89535D02*
X108585D01*
Y94615D01*
X106045D02*
X108585D01*
X81788Y100584D02*
Y105664D01*
Y100584D02*
X84328D01*
Y105664D01*
X81788D02*
X84328D01*
X70485Y100965D02*
Y106045D01*
X67945D02*
X70485D01*
X67945Y100965D02*
Y106045D01*
Y100965D02*
X70485D01*
X60325Y56550D02*
Y57750D01*
Y54010D02*
Y55210D01*
Y48930D02*
Y50130D01*
Y46390D02*
Y47590D01*
Y43850D02*
Y45050D01*
Y41310D02*
Y42510D01*
X31265Y85265D02*
Y91265D01*
X18265Y85265D02*
Y91265D01*
X31265D01*
X18265Y85265D02*
X31265D01*
X64770Y100965D02*
Y106045D01*
X62230D02*
X64770D01*
X62230Y100965D02*
Y106045D01*
Y100965D02*
X64770D01*
X37530Y43585D02*
Y44385D01*
X37030Y43585D02*
X37530D01*
Y45785D02*
Y46585D01*
X37030D02*
X37530D01*
X60325Y38770D02*
Y39970D01*
X140970Y56500D02*
Y57800D01*
X5080Y94615D02*
X12700D01*
Y97155D01*
X5080D02*
X12700D01*
X5080Y94615D02*
Y97155D01*
X103425Y50800D02*
X108505D01*
X103425D02*
Y53340D01*
X108505D01*
Y50800D02*
Y53340D01*
X103295Y70660D02*
X106095D01*
Y63960D02*
Y70660D01*
X103295Y63960D02*
Y70660D01*
Y63960D02*
X106095D01*
D45*
X45311Y31287D02*
G03*
X45311Y31287I-125J0D01*
G01*
X101955Y37100D02*
G03*
X101955Y37100I-125J0D01*
G01*
X26885Y28205D02*
G03*
X26885Y28205I-125J0D01*
G01*
X36005Y51330D02*
G03*
X36005Y51330I-125J0D01*
G01*
Y55775D02*
G03*
X36005Y55775I-125J0D01*
G01*
Y60220D02*
G03*
X36005Y60220I-125J0D01*
G01*
Y64665D02*
G03*
X36005Y64665I-125J0D01*
G01*
Y69110D02*
G03*
X36005Y69110I-125J0D01*
G01*
Y73555D02*
G03*
X36005Y73555I-125J0D01*
G01*
Y78000D02*
G03*
X36005Y78000I-125J0D01*
G01*
X121690Y63960D02*
G03*
X121690Y63960I-125J0D01*
G01*
X18325Y83715D02*
G03*
X18325Y83715I-125J0D01*
G01*
X36005Y46885D02*
G03*
X36005Y46885I-125J0D01*
G01*
X107720Y63960D02*
G03*
X107720Y63960I-125J0D01*
G01*
D46*
X101245Y34550D02*
G03*
X101245Y34550I-300J0D01*
G01*
X19565Y86265D02*
G03*
X19565Y86265I-300J0D01*
G01*
D47*
X140230Y85090D02*
G03*
X140230Y85090I-1800J0D01*
G01*
Y74930D02*
G03*
X140230Y74930I-1800J0D01*
G01*
X119110Y89170D02*
G03*
X119110Y91170I0J1000D01*
G01*
X140230Y95250D02*
G03*
X140230Y95250I-1800J0D01*
G01*
X72327Y100219D02*
X80327D01*
X72327Y109919D02*
X80327D01*
X72327Y107969D02*
Y109919D01*
X80327Y107969D02*
Y109919D01*
X72327Y103469D02*
Y105469D01*
X80327Y103469D02*
Y105469D01*
Y100219D02*
Y100719D01*
X72327Y100219D02*
Y100719D01*
X73827Y103719D02*
Y109919D01*
Y103719D02*
X78827D01*
Y109919D01*
X26130Y97100D02*
Y98100D01*
X22130Y97100D02*
Y98100D01*
X14130Y97100D02*
X34130D01*
X22130Y98100D02*
X26130D01*
X34130Y97100D02*
Y106100D01*
X14130Y97100D02*
Y106100D01*
X34130D01*
X4390Y81820D02*
X5390D01*
X4390Y85820D02*
X5390D01*
X4390Y73820D02*
Y93820D01*
X5390Y81820D02*
Y85820D01*
X4390Y73820D02*
X13390D01*
X4390Y93820D02*
X13390D01*
Y73820D02*
Y93820D01*
X4390Y50960D02*
Y70960D01*
Y50960D02*
X13390D01*
Y70960D01*
X4390D02*
X13390D01*
X4390Y62960D02*
X5390D01*
Y58960D02*
Y62960D01*
X4390Y58960D02*
X5390D01*
X17940Y4390D02*
X37940D01*
Y13390D01*
X17940D02*
X37940D01*
X17940Y4390D02*
Y13390D01*
X25940Y4390D02*
Y5390D01*
X29940D01*
Y4390D02*
Y5390D01*
X14550Y50960D02*
Y70960D01*
Y50960D02*
X23550D01*
Y70960D01*
X14550D02*
X23550D01*
X14550Y62960D02*
X15550D01*
Y58960D02*
Y62960D01*
X14550Y58960D02*
X15550D01*
X45880Y4390D02*
X65880D01*
Y13390D01*
X45880D02*
X65880D01*
X45880Y4390D02*
Y13390D01*
X53880Y4390D02*
Y5390D01*
X57880D01*
Y4390D02*
Y5390D01*
X22550Y31210D02*
X23550D01*
X22550Y27210D02*
Y31210D01*
Y27210D02*
X23550D01*
X14550Y15210D02*
X23550D01*
X14550D02*
Y43210D01*
X23550D01*
Y15210D02*
Y43210D01*
X111085Y29750D02*
X112085D01*
Y33750D01*
X111085D02*
X112085D01*
X111085Y45750D02*
X120085D01*
Y17750D02*
Y45750D01*
X111085Y17750D02*
X120085D01*
X111085D02*
Y45750D01*
X12390Y31210D02*
X13390D01*
X12390Y27210D02*
Y31210D01*
Y27210D02*
X13390D01*
X4390Y15210D02*
X13390D01*
X4390D02*
Y43210D01*
X13390D01*
Y15210D02*
Y43210D01*
X32695Y35830D02*
X39695D01*
Y42830D01*
X32695D02*
X39695D01*
X32695Y35830D02*
Y42830D01*
X135430Y81990D02*
X141430D01*
Y88190D01*
X135430Y81990D02*
Y88190D01*
X141430D01*
X135430Y71830D02*
X141430D01*
Y78030D01*
X135430Y71830D02*
Y78030D01*
X141430D01*
X108585Y97790D02*
X109855D01*
X108585Y92202D02*
X111125D01*
X83058Y98298D02*
Y100076D01*
Y98298D02*
X84582Y96774D01*
X102743Y84328D02*
Y94742D01*
Y97282D02*
Y102362D01*
X103505Y103124D01*
Y109982D01*
X85471D02*
X103505D01*
X85471Y103378D02*
Y109982D01*
Y103378D02*
X86487Y102362D01*
Y97282D02*
Y102362D01*
Y84328D02*
Y94742D01*
Y84328D02*
X88265D01*
X89535D02*
X90805D01*
X92075D02*
X96901D01*
X98171D02*
X99441D01*
X100711D02*
X102743D01*
X100965Y101600D02*
Y109982D01*
X88265Y101600D02*
X100965D01*
X88265D02*
Y109982D01*
X59180Y102440D02*
Y105840D01*
X52580Y102440D02*
Y105840D01*
X119110Y87170D02*
Y93170D01*
X127110Y87170D02*
Y93170D01*
X119110D02*
X127110D01*
X119110Y87170D02*
X127110D01*
X49675Y24690D02*
X83675D01*
X49675D02*
Y96690D01*
X83675Y24690D02*
Y96690D01*
X49675D02*
X83675D01*
X73820Y13390D02*
X93820D01*
X73820Y4390D02*
Y13390D01*
Y4390D02*
X93820D01*
Y13390D01*
X85820Y12390D02*
Y13390D01*
X81820Y12390D02*
X85820D01*
X81820D02*
Y13390D01*
X113430Y97000D02*
X116430D01*
X113430D02*
Y110000D01*
X122430D01*
Y97000D02*
Y110000D01*
X118930Y97000D02*
X122430D01*
X124420Y29750D02*
X125420D01*
Y33750D01*
X124420D02*
X125420D01*
X124420Y45750D02*
X133420D01*
Y17750D02*
Y45750D01*
X124420Y17750D02*
X133420D01*
X124420D02*
Y45750D01*
X24440Y36465D02*
X31440D01*
Y43465D01*
X24440D02*
X31440D01*
X24440Y36465D02*
Y43465D01*
X135430Y92150D02*
X141430D01*
Y98350D01*
X135430Y92150D02*
Y98350D01*
X141430D01*
X63398Y54641D02*
X63265Y54775D01*
X62998D01*
X62865Y54641D01*
Y54108D01*
X62998Y53975D01*
X63265D01*
X63398Y54108D01*
X64065Y53975D02*
Y54775D01*
X63665Y54375D01*
X64198D01*
X64464Y54641D02*
X64598Y54775D01*
X64864D01*
X64998Y54641D01*
Y54108D01*
X64864Y53975D01*
X64598D01*
X64464Y54108D01*
Y54641D01*
X117999Y65310D02*
X117865Y65443D01*
Y65710D01*
X117999Y65843D01*
X118132D01*
X118265Y65710D01*
Y65577D01*
Y65710D01*
X118398Y65843D01*
X118532D01*
X118665Y65710D01*
Y65443D01*
X118532Y65310D01*
X118665Y66110D02*
X118532D01*
Y66243D01*
X118665D01*
Y66110D01*
X117999Y66776D02*
X117865Y66909D01*
Y67176D01*
X117999Y67309D01*
X118132D01*
X118265Y67176D01*
Y67043D01*
Y67176D01*
X118398Y67309D01*
X118532D01*
X118665Y67176D01*
Y66909D01*
X118532Y66776D01*
X117865Y68376D02*
X118398D01*
X118665Y68642D01*
X118398Y68909D01*
X117865D01*
X103895Y65843D02*
Y65310D01*
X104295D01*
X104162Y65577D01*
Y65710D01*
X104295Y65843D01*
X104562D01*
X104695Y65710D01*
Y65443D01*
X104562Y65310D01*
X103895Y66909D02*
X104428D01*
X104695Y67176D01*
X104428Y67443D01*
X103895D01*
X89433Y31781D02*
X89300Y31915D01*
X89033D01*
X88900Y31781D01*
Y31648D01*
X89033Y31515D01*
X89300D01*
X89433Y31382D01*
Y31248D01*
X89300Y31115D01*
X89033D01*
X88900Y31248D01*
X89700Y31115D02*
Y31915D01*
X90233Y31115D01*
Y31915D01*
X90499D02*
X91033D01*
Y31781D01*
X90499Y31248D01*
Y31115D01*
X91699D02*
Y31915D01*
X91299Y31515D01*
X91832D01*
X92099Y31915D02*
Y31115D01*
Y31515D01*
X92632D01*
Y31915D01*
Y31115D01*
X93432Y31781D02*
X93299Y31915D01*
X93032D01*
X92899Y31781D01*
Y31248D01*
X93032Y31115D01*
X93299D01*
X93432Y31248D01*
X93698Y31115D02*
X93965D01*
X93832D01*
Y31915D01*
X93698Y31781D01*
X94898Y31915D02*
X94365D01*
Y31515D01*
X94631Y31648D01*
X94765D01*
X94898Y31515D01*
Y31248D01*
X94765Y31115D01*
X94498D01*
X94365Y31248D01*
X95565Y31115D02*
Y31915D01*
X95165Y31515D01*
X95698D01*
X95964Y31915D02*
Y31115D01*
X96364D01*
X96498Y31248D01*
Y31781D01*
X96364Y31915D01*
X95964D01*
X96764D02*
Y31115D01*
X97031Y31382D01*
X97297Y31115D01*
Y31915D01*
X86614Y39789D02*
Y39122D01*
X86747Y38989D01*
X87014D01*
X87147Y39122D01*
Y39789D01*
X87414Y39655D02*
X87547Y39789D01*
X87814D01*
X87947Y39655D01*
Y39522D01*
X87814Y39389D01*
X87680D01*
X87814D01*
X87947Y39256D01*
Y39122D01*
X87814Y38989D01*
X87547D01*
X87414Y39122D01*
X28925Y19456D02*
X28791Y19323D01*
Y19056D01*
X28925Y18923D01*
X29058D01*
X29191Y19056D01*
Y19323D01*
X29324Y19456D01*
X29458D01*
X29591Y19323D01*
Y19056D01*
X29458Y18923D01*
X29591Y19723D02*
X28791D01*
X29591Y20256D01*
X28791D01*
Y20522D02*
Y21056D01*
X28925D01*
X29458Y20522D01*
X29591D01*
Y21722D02*
X28791D01*
X29191Y21322D01*
Y21855D01*
X28791Y22122D02*
X29591D01*
X29191D01*
Y22655D01*
X28791D01*
X29591D01*
X28925Y23455D02*
X28791Y23322D01*
Y23055D01*
X28925Y22922D01*
X29458D01*
X29591Y23055D01*
Y23322D01*
X29458Y23455D01*
X28791Y24255D02*
Y23721D01*
X29191D01*
X29058Y23988D01*
Y24121D01*
X29191Y24255D01*
X29458D01*
X29591Y24121D01*
Y23855D01*
X29458Y23721D01*
Y24521D02*
X29591Y24654D01*
Y24921D01*
X29458Y25054D01*
X28925D01*
X28791Y24921D01*
Y24654D01*
X28925Y24521D01*
X29058D01*
X29191Y24654D01*
Y25054D01*
X28791Y25854D02*
Y25321D01*
X29191D01*
X29058Y25588D01*
Y25721D01*
X29191Y25854D01*
X29458D01*
X29591Y25721D01*
Y25454D01*
X29458Y25321D01*
X28791Y26121D02*
X29591D01*
Y26521D01*
X29458Y26654D01*
X28925D01*
X28791Y26521D01*
Y26121D01*
X28575Y16929D02*
Y16262D01*
X28708Y16129D01*
X28975D01*
X29108Y16262D01*
Y16929D01*
X29908Y16129D02*
X29375D01*
X29908Y16662D01*
Y16795D01*
X29775Y16929D01*
X29508D01*
X29375Y16795D01*
X20218Y88296D02*
X20085Y88430D01*
X19818D01*
X19685Y88296D01*
Y88163D01*
X19818Y88030D01*
X20085D01*
X20218Y87897D01*
Y87763D01*
X20085Y87630D01*
X19818D01*
X19685Y87763D01*
X20485Y87630D02*
Y88430D01*
X21018Y87630D01*
Y88430D01*
X21284D02*
X21818D01*
Y88296D01*
X21284Y87763D01*
Y87630D01*
X22484D02*
Y88430D01*
X22084Y88030D01*
X22617D01*
X22884Y88430D02*
Y87630D01*
Y88030D01*
X23417D01*
Y88430D01*
Y87630D01*
X24217Y88296D02*
X24084Y88430D01*
X23817D01*
X23684Y88296D01*
Y87763D01*
X23817Y87630D01*
X24084D01*
X24217Y87763D01*
X25017Y88430D02*
X24483D01*
Y88030D01*
X24750Y88163D01*
X24883D01*
X25017Y88030D01*
Y87763D01*
X24883Y87630D01*
X24617D01*
X24483Y87763D01*
X25683Y87630D02*
Y88430D01*
X25283Y88030D01*
X25816D01*
X26083Y87630D02*
X26350D01*
X26216D01*
Y88430D01*
X26083Y88296D01*
X26749Y88430D02*
Y87630D01*
X27149D01*
X27283Y87763D01*
Y88296D01*
X27149Y88430D01*
X26749D01*
X27549D02*
Y87630D01*
X27816Y87897D01*
X28082Y87630D01*
Y88430D01*
X31750Y90970D02*
Y90303D01*
X31883Y90170D01*
X32150D01*
X32283Y90303D01*
Y90970D01*
X32550Y90170D02*
X32816D01*
X32683D01*
Y90970D01*
X32550Y90836D01*
X133350Y70650D02*
X133883D01*
X133617D01*
Y69850D01*
X134283Y70383D02*
X134550D01*
X134683Y70250D01*
Y69850D01*
X134283D01*
X134150Y69983D01*
X134283Y70117D01*
X134683D01*
X134949Y69850D02*
X135349D01*
X135483Y69983D01*
X135349Y70117D01*
X135083D01*
X134949Y70250D01*
X135083Y70383D01*
X135483D01*
X135749Y69850D02*
Y70650D01*
Y70117D02*
X136149Y70383D01*
X135749Y70117D02*
X136149Y69850D01*
X136549Y69717D02*
X137082D01*
X137882Y70650D02*
X137349D01*
Y69850D01*
X137882D01*
X137349Y70250D02*
X137615D01*
X138148Y70383D02*
Y69850D01*
Y70117D01*
X138282Y70250D01*
X138415Y70383D01*
X138548D01*
X138948D02*
Y69850D01*
Y70117D01*
X139081Y70250D01*
X139215Y70383D01*
X139348D01*
X139881Y69850D02*
X140148D01*
X140281Y69983D01*
Y70250D01*
X140148Y70383D01*
X139881D01*
X139748Y70250D01*
Y69983D01*
X139881Y69850D01*
X140548Y70383D02*
Y69850D01*
Y70117D01*
X140681Y70250D01*
X140814Y70383D01*
X140948D01*
X141347Y69717D02*
X141881D01*
X142147Y69850D02*
Y70650D01*
X142547D01*
X142680Y70516D01*
Y70250D01*
X142547Y70117D01*
X142147D01*
X142414D02*
X142680Y69850D01*
X143347D02*
X143080D01*
X142947Y69983D01*
Y70250D01*
X143080Y70383D01*
X143347D01*
X143480Y70250D01*
Y70117D01*
X142947D01*
X143747Y69850D02*
X144147D01*
X144280Y69983D01*
X144147Y70117D01*
X143880D01*
X143747Y70250D01*
X143880Y70383D01*
X144280D01*
X144946Y69850D02*
X144680D01*
X144546Y69983D01*
Y70250D01*
X144680Y70383D01*
X144946D01*
X145080Y70250D01*
Y70117D01*
X144546D01*
X145479Y70516D02*
Y70383D01*
X145346D01*
X145613D01*
X145479D01*
Y69983D01*
X145613Y69850D01*
X133430Y80890D02*
X133697D01*
X133563D01*
Y80090D01*
X133430D01*
X133697D01*
X134630Y80756D02*
X134496Y80890D01*
X134230D01*
X134096Y80756D01*
Y80623D01*
X134230Y80490D01*
X134496D01*
X134630Y80357D01*
Y80223D01*
X134496Y80090D01*
X134230D01*
X134096Y80223D01*
X134896Y80090D02*
Y80890D01*
X135296D01*
X135429Y80756D01*
Y80490D01*
X135296Y80357D01*
X134896D01*
X135696Y79957D02*
X136229D01*
X136496Y80090D02*
Y80890D01*
X136896D01*
X137029Y80756D01*
Y80490D01*
X136896Y80357D01*
X136496D01*
X136762D02*
X137029Y80090D01*
X137695D02*
X137429D01*
X137295Y80223D01*
Y80490D01*
X137429Y80623D01*
X137695D01*
X137829Y80490D01*
Y80357D01*
X137295D01*
X138095Y80090D02*
X138495D01*
X138628Y80223D01*
X138495Y80357D01*
X138228D01*
X138095Y80490D01*
X138228Y80623D01*
X138628D01*
X139295Y80090D02*
X139028D01*
X138895Y80223D01*
Y80490D01*
X139028Y80623D01*
X139295D01*
X139428Y80490D01*
Y80357D01*
X138895D01*
X139828Y80756D02*
Y80623D01*
X139695D01*
X139961D01*
X139828D01*
Y80223D01*
X139961Y80090D01*
X133963Y90916D02*
X133830Y91050D01*
X133563D01*
X133430Y90916D01*
Y90383D01*
X133563Y90250D01*
X133830D01*
X133963Y90383D01*
X134230Y90250D02*
Y91050D01*
X134630D01*
X134763Y90916D01*
Y90650D01*
X134630Y90517D01*
X134230D01*
X135029Y91050D02*
Y90383D01*
X135163Y90250D01*
X135429D01*
X135563Y90383D01*
Y91050D01*
X135829Y90117D02*
X136362D01*
X136629Y90250D02*
Y91050D01*
X137029D01*
X137162Y90916D01*
Y90650D01*
X137029Y90517D01*
X136629D01*
X136896D02*
X137162Y90250D01*
X137829D02*
X137562D01*
X137429Y90383D01*
Y90650D01*
X137562Y90783D01*
X137829D01*
X137962Y90650D01*
Y90517D01*
X137429D01*
X138228Y90250D02*
X138628D01*
X138762Y90383D01*
X138628Y90517D01*
X138362D01*
X138228Y90650D01*
X138362Y90783D01*
X138762D01*
X139428Y90250D02*
X139161D01*
X139028Y90383D01*
Y90650D01*
X139161Y90783D01*
X139428D01*
X139561Y90650D01*
Y90517D01*
X139028D01*
X139961Y90916D02*
Y90783D01*
X139828D01*
X140095D01*
X139961D01*
Y90383D01*
X140095Y90250D01*
X23241Y34036D02*
X22441D01*
Y34436D01*
X22575Y34569D01*
X22841D01*
X22974Y34436D01*
Y34036D01*
Y34303D02*
X23241Y34569D01*
Y35369D02*
Y34836D01*
X22708Y35369D01*
X22575D01*
X22441Y35236D01*
Y34969D01*
X22575Y34836D01*
X23241Y36169D02*
Y35635D01*
X22708Y36169D01*
X22575D01*
X22441Y36035D01*
Y35769D01*
X22575Y35635D01*
X23241Y31623D02*
X22441D01*
Y32023D01*
X22575Y32156D01*
X22841D01*
X22974Y32023D01*
Y31623D01*
Y31890D02*
X23241Y32156D01*
Y32956D02*
Y32423D01*
X22708Y32956D01*
X22575D01*
X22441Y32823D01*
Y32556D01*
X22575Y32423D01*
X23241Y33222D02*
Y33489D01*
Y33356D01*
X22441D01*
X22575Y33222D01*
X18415Y44196D02*
X17615D01*
Y44596D01*
X17749Y44729D01*
X18015D01*
X18148Y44596D01*
Y44196D01*
Y44463D02*
X18415Y44729D01*
Y45529D02*
Y44996D01*
X17882Y45529D01*
X17749D01*
X17615Y45396D01*
Y45129D01*
X17749Y44996D01*
Y45795D02*
X17615Y45929D01*
Y46195D01*
X17749Y46329D01*
X18282D01*
X18415Y46195D01*
Y45929D01*
X18282Y45795D01*
X17749D01*
X25019Y28829D02*
X24219D01*
Y29229D01*
X24353Y29362D01*
X24619D01*
X24752Y29229D01*
Y28829D01*
Y29096D02*
X25019Y29362D01*
Y29629D02*
Y29895D01*
Y29762D01*
X24219D01*
X24353Y29629D01*
X24886Y30295D02*
X25019Y30428D01*
Y30695D01*
X24886Y30828D01*
X24353D01*
X24219Y30695D01*
Y30428D01*
X24353Y30295D01*
X24486D01*
X24619Y30428D01*
Y30828D01*
X131445Y60325D02*
Y61125D01*
X131845D01*
X131978Y60991D01*
Y60725D01*
X131845Y60592D01*
X131445D01*
X131712D02*
X131978Y60325D01*
X132245D02*
X132511D01*
X132378D01*
Y61125D01*
X132245Y60991D01*
X132911D02*
X133044Y61125D01*
X133311D01*
X133444Y60991D01*
Y60858D01*
X133311Y60725D01*
X133444Y60592D01*
Y60458D01*
X133311Y60325D01*
X133044D01*
X132911Y60458D01*
Y60592D01*
X133044Y60725D01*
X132911Y60858D01*
Y60991D01*
X133044Y60725D02*
X133311D01*
X41110Y42723D02*
X40310D01*
Y42190D01*
X40843Y41923D02*
X40443D01*
X40310Y41790D01*
Y41390D01*
X40843D01*
X40310Y41123D02*
X40843D01*
Y40990D01*
X40710Y40857D01*
X40310D01*
X40710D01*
X40843Y40723D01*
X40710Y40590D01*
X40310D01*
Y40324D02*
Y40057D01*
Y40190D01*
X40843D01*
Y40324D01*
X40310Y39657D02*
X40843D01*
Y39257D01*
X40710Y39124D01*
X40310D01*
X40843Y38724D02*
Y38458D01*
X40710Y38324D01*
X40310D01*
Y38724D01*
X40443Y38857D01*
X40576Y38724D01*
Y38324D01*
X40310Y38058D02*
X40843D01*
Y37658D01*
X40710Y37524D01*
X40310D01*
X40843Y36725D02*
Y37125D01*
X40710Y37258D01*
X40443D01*
X40310Y37125D01*
Y36725D01*
Y36058D02*
Y36325D01*
X40443Y36458D01*
X40710D01*
X40843Y36325D01*
Y36058D01*
X40710Y35925D01*
X40576D01*
Y36458D01*
X37592Y32258D02*
Y33058D01*
X37992D01*
X38125Y32924D01*
Y32658D01*
X37992Y32525D01*
X37592D01*
X37859D02*
X38125Y32258D01*
X38392D02*
X38658D01*
X38525D01*
Y33058D01*
X38392Y32924D01*
X39591Y33058D02*
X39325Y32924D01*
X39058Y32658D01*
Y32391D01*
X39191Y32258D01*
X39458D01*
X39591Y32391D01*
Y32525D01*
X39458Y32658D01*
X39058D01*
X22098Y45294D02*
X21964Y45428D01*
X21698D01*
X21565Y45294D01*
Y44761D01*
X21698Y44628D01*
X21964D01*
X22098Y44761D01*
X22498Y44628D02*
X22764D01*
X22897Y44761D01*
Y45028D01*
X22764Y45161D01*
X22498D01*
X22364Y45028D01*
Y44761D01*
X22498Y44628D01*
X23164D02*
Y45161D01*
X23564D01*
X23697Y45028D01*
Y44628D01*
X24097Y45294D02*
Y45161D01*
X23964D01*
X24230D01*
X24097D01*
Y44761D01*
X24230Y44628D01*
X24630Y45161D02*
Y44628D01*
Y44894D01*
X24764Y45028D01*
X24897Y45161D01*
X25030D01*
X25563D02*
X25830D01*
X25963Y45028D01*
Y44628D01*
X25563D01*
X25430Y44761D01*
X25563Y44894D01*
X25963D01*
X26230Y44628D02*
X26630D01*
X26763Y44761D01*
X26630Y44894D01*
X26363D01*
X26230Y45028D01*
X26363Y45161D01*
X26763D01*
X27163Y45294D02*
Y45161D01*
X27029D01*
X27296D01*
X27163D01*
Y44761D01*
X27296Y44628D01*
X49149Y33147D02*
X48349D01*
Y33547D01*
X48483Y33680D01*
X48749D01*
X48882Y33547D01*
Y33147D01*
Y33414D02*
X49149Y33680D01*
Y33947D02*
Y34213D01*
Y34080D01*
X48349D01*
X48483Y33947D01*
X49149Y35013D02*
X48349D01*
X48749Y34613D01*
Y35146D01*
X131445Y64135D02*
Y64935D01*
X131845D01*
X131978Y64801D01*
Y64535D01*
X131845Y64402D01*
X131445D01*
X131712D02*
X131978Y64135D01*
X132245D02*
X132511D01*
X132378D01*
Y64935D01*
X132245Y64801D01*
X132911D02*
X133044Y64935D01*
X133311D01*
X133444Y64801D01*
Y64668D01*
X133311Y64535D01*
X133178D01*
X133311D01*
X133444Y64402D01*
Y64268D01*
X133311Y64135D01*
X133044D01*
X132911Y64268D01*
X131445Y50800D02*
Y51600D01*
X131845D01*
X131978Y51466D01*
Y51200D01*
X131845Y51067D01*
X131445D01*
X131712D02*
X131978Y50800D01*
X132245D02*
X132511D01*
X132378D01*
Y51600D01*
X132245Y51466D01*
X133444Y50800D02*
X132911D01*
X133444Y51333D01*
Y51466D01*
X133311Y51600D01*
X133044D01*
X132911Y51466D01*
X131445Y55245D02*
Y56045D01*
X131845D01*
X131978Y55911D01*
Y55645D01*
X131845Y55512D01*
X131445D01*
X131712D02*
X131978Y55245D01*
X132245D02*
X132511D01*
X132378D01*
Y56045D01*
X132245Y55911D01*
X132911Y55245D02*
X133178D01*
X133044D01*
Y56045D01*
X132911Y55911D01*
X74929Y39014D02*
Y39814D01*
X75329D01*
X75462Y39680D01*
Y39414D01*
X75329Y39280D01*
X74929D01*
X75196D02*
X75462Y39014D01*
X75729Y39147D02*
X75862Y39014D01*
X76129D01*
X76262Y39147D01*
Y39680D01*
X76129Y39814D01*
X75862D01*
X75729Y39680D01*
Y39547D01*
X75862Y39414D01*
X76262D01*
X74929Y44094D02*
Y44894D01*
X75329D01*
X75462Y44760D01*
Y44494D01*
X75329Y44360D01*
X74929D01*
X75196D02*
X75462Y44094D01*
X75729Y44760D02*
X75862Y44894D01*
X76129D01*
X76262Y44760D01*
Y44627D01*
X76129Y44494D01*
X76262Y44360D01*
Y44227D01*
X76129Y44094D01*
X75862D01*
X75729Y44227D01*
Y44360D01*
X75862Y44494D01*
X75729Y44627D01*
Y44760D01*
X75862Y44494D02*
X76129D01*
X74929Y41554D02*
Y42354D01*
X75329D01*
X75462Y42220D01*
Y41954D01*
X75329Y41820D01*
X74929D01*
X75196D02*
X75462Y41554D01*
X75729Y42354D02*
X76262D01*
Y42220D01*
X75729Y41687D01*
Y41554D01*
X74929Y46634D02*
Y47434D01*
X75329D01*
X75462Y47300D01*
Y47034D01*
X75329Y46900D01*
X74929D01*
X75196D02*
X75462Y46634D01*
X76262Y47434D02*
X75996Y47300D01*
X75729Y47034D01*
Y46767D01*
X75862Y46634D01*
X76129D01*
X76262Y46767D01*
Y46900D01*
X76129Y47034D01*
X75729D01*
X74929Y49174D02*
Y49974D01*
X75329D01*
X75462Y49840D01*
Y49574D01*
X75329Y49440D01*
X74929D01*
X75196D02*
X75462Y49174D01*
X76262Y49974D02*
X75729D01*
Y49574D01*
X75996Y49707D01*
X76129D01*
X76262Y49574D01*
Y49307D01*
X76129Y49174D01*
X75862D01*
X75729Y49307D01*
X74929Y51714D02*
Y52514D01*
X75329D01*
X75462Y52380D01*
Y52114D01*
X75329Y51980D01*
X74929D01*
X75196D02*
X75462Y51714D01*
X76129D02*
Y52514D01*
X75729Y52114D01*
X76262D01*
X74929Y54254D02*
Y55054D01*
X75329D01*
X75462Y54920D01*
Y54654D01*
X75329Y54520D01*
X74929D01*
X75196D02*
X75462Y54254D01*
X75729Y54920D02*
X75862Y55054D01*
X76129D01*
X76262Y54920D01*
Y54787D01*
X76129Y54654D01*
X75996D01*
X76129D01*
X76262Y54520D01*
Y54387D01*
X76129Y54254D01*
X75862D01*
X75729Y54387D01*
X74929Y56794D02*
Y57594D01*
X75329D01*
X75462Y57460D01*
Y57194D01*
X75329Y57060D01*
X74929D01*
X75196D02*
X75462Y56794D01*
X76262D02*
X75729D01*
X76262Y57327D01*
Y57460D01*
X76129Y57594D01*
X75862D01*
X75729Y57460D01*
X48260Y102108D02*
Y102908D01*
X48660D01*
X48793Y102774D01*
Y102508D01*
X48660Y102375D01*
X48260D01*
X48527D02*
X48793Y102108D01*
X49060D02*
X49326D01*
X49193D01*
Y102908D01*
X49060Y102774D01*
X44729Y37598D02*
Y38131D01*
X44596Y38265D01*
X44329D01*
X44196Y38131D01*
Y37598D01*
X44329Y37465D01*
X44596D01*
X44463Y37732D02*
X44729Y37465D01*
X44596D02*
X44729Y37598D01*
X44996Y37465D02*
X45262D01*
X45129D01*
Y38265D01*
X44996Y38131D01*
X5372Y14732D02*
X4572D01*
Y14199D01*
X5238Y13399D02*
X5372Y13532D01*
Y13799D01*
X5238Y13932D01*
X4705D01*
X4572Y13799D01*
Y13532D01*
X4705Y13399D01*
X5372Y13133D02*
X4572D01*
Y12733D01*
X4705Y12599D01*
X5238D01*
X5372Y12733D01*
Y13133D01*
X4439Y12333D02*
Y11800D01*
X4572Y11000D02*
Y11533D01*
X5105Y11000D01*
X5238D01*
X5372Y11133D01*
Y11400D01*
X5238Y11533D01*
X111657Y16947D02*
X111524Y17081D01*
X111257D01*
X111124Y16947D01*
Y16414D01*
X111257Y16281D01*
X111524D01*
X111657Y16414D01*
X111924Y16281D02*
X112191D01*
X112057D01*
Y17081D01*
X111924D01*
X112724Y16814D02*
X112990D01*
X113124Y16681D01*
Y16281D01*
X112724D01*
X112590Y16414D01*
X112724Y16547D01*
X113124D01*
X113390Y16814D02*
X113657Y16281D01*
X113923Y16814D01*
X114190Y16281D02*
X114456D01*
X114323D01*
Y16814D01*
X114190D01*
X114990D02*
X115256D01*
X115389Y16681D01*
Y16281D01*
X114990D01*
X114856Y16414D01*
X114990Y16547D01*
X115389D01*
X115789Y16947D02*
Y16814D01*
X115656D01*
X115923D01*
X115789D01*
Y16414D01*
X115923Y16281D01*
X116323Y16814D02*
Y16414D01*
X116456Y16281D01*
X116856D01*
Y16814D01*
X117122D02*
Y16281D01*
Y16547D01*
X117256Y16681D01*
X117389Y16814D01*
X117522D01*
X118322Y16281D02*
X118055D01*
X117922Y16414D01*
Y16681D01*
X118055Y16814D01*
X118322D01*
X118455Y16681D01*
Y16547D01*
X117922D01*
X118722Y16148D02*
X119255D01*
X120055Y16281D02*
X119521D01*
X120055Y16814D01*
Y16947D01*
X119921Y17081D01*
X119655D01*
X119521Y16947D01*
X15532Y14732D02*
X14732D01*
Y14199D01*
X15398Y13399D02*
X15532Y13532D01*
Y13799D01*
X15398Y13932D01*
X14865D01*
X14732Y13799D01*
Y13532D01*
X14865Y13399D01*
X15532Y13133D02*
X14732D01*
Y12733D01*
X14865Y12599D01*
X15398D01*
X15532Y12733D01*
Y13133D01*
X14599Y12333D02*
Y11800D01*
X14732Y11533D02*
Y11266D01*
Y11400D01*
X15532D01*
X15398Y11533D01*
X124992Y16947D02*
X124859Y17081D01*
X124592D01*
X124459Y16947D01*
Y16414D01*
X124592Y16281D01*
X124859D01*
X124992Y16414D01*
X125259Y16281D02*
X125526D01*
X125392D01*
Y17081D01*
X125259D01*
X126059Y16814D02*
X126325D01*
X126459Y16681D01*
Y16281D01*
X126059D01*
X125925Y16414D01*
X126059Y16547D01*
X126459D01*
X126725Y16814D02*
X126992Y16281D01*
X127258Y16814D01*
X127525Y16281D02*
X127791D01*
X127658D01*
Y16814D01*
X127525D01*
X128325D02*
X128591D01*
X128724Y16681D01*
Y16281D01*
X128325D01*
X128191Y16414D01*
X128325Y16547D01*
X128724D01*
X129124Y16947D02*
Y16814D01*
X128991D01*
X129258D01*
X129124D01*
Y16414D01*
X129258Y16281D01*
X129658Y16814D02*
Y16414D01*
X129791Y16281D01*
X130191D01*
Y16814D01*
X130457D02*
Y16281D01*
Y16547D01*
X130591Y16681D01*
X130724Y16814D01*
X130857D01*
X131657Y16281D02*
X131390D01*
X131257Y16414D01*
Y16681D01*
X131390Y16814D01*
X131657D01*
X131790Y16681D01*
Y16547D01*
X131257D01*
X132057Y16148D02*
X132590D01*
X132856Y16281D02*
X133123D01*
X132990D01*
Y17081D01*
X132856Y16947D01*
X117983Y50196D02*
X118116Y50330D01*
X118383D01*
X118516Y50196D01*
Y50063D01*
X118383Y49930D01*
X118250D01*
X118383D01*
X118516Y49797D01*
Y49663D01*
X118383Y49530D01*
X118116D01*
X117983Y49663D01*
X118783Y50330D02*
Y49797D01*
X119049Y49530D01*
X119316Y49797D01*
Y50330D01*
X119582Y50196D02*
X119716Y50330D01*
X119982D01*
X120116Y50196D01*
Y50063D01*
X119982Y49930D01*
X119849D01*
X119982D01*
X120116Y49797D01*
Y49663D01*
X119982Y49530D01*
X119716D01*
X119582Y49663D01*
X121715Y50196D02*
X121582Y50330D01*
X121315D01*
X121182Y50196D01*
Y50063D01*
X121315Y49930D01*
X121582D01*
X121715Y49797D01*
Y49663D01*
X121582Y49530D01*
X121315D01*
X121182Y49663D01*
X121982Y50063D02*
Y49663D01*
X122115Y49530D01*
X122515D01*
Y50063D01*
X122781Y49263D02*
Y50063D01*
X123181D01*
X123315Y49930D01*
Y49663D01*
X123181Y49530D01*
X122781D01*
X123581Y49263D02*
Y50063D01*
X123981D01*
X124114Y49930D01*
Y49663D01*
X123981Y49530D01*
X123581D01*
X124381D02*
X124648D01*
X124514D01*
Y50330D01*
X124381D01*
X125047Y50063D02*
Y49663D01*
X125181Y49530D01*
X125581D01*
Y49397D01*
X125447Y49263D01*
X125314D01*
X125581Y49530D02*
Y50063D01*
X105054Y50330D02*
X104521D01*
Y49930D01*
X104788Y50063D01*
X104921D01*
X105054Y49930D01*
Y49663D01*
X104921Y49530D01*
X104654D01*
X104521Y49663D01*
X105321Y50330D02*
Y49797D01*
X105587Y49530D01*
X105854Y49797D01*
Y50330D01*
X107453Y50196D02*
X107320Y50330D01*
X107054D01*
X106920Y50196D01*
Y50063D01*
X107054Y49930D01*
X107320D01*
X107453Y49797D01*
Y49663D01*
X107320Y49530D01*
X107054D01*
X106920Y49663D01*
X107720Y50063D02*
Y49663D01*
X107853Y49530D01*
X108253D01*
Y50063D01*
X108520Y49263D02*
Y50063D01*
X108920D01*
X109053Y49930D01*
Y49663D01*
X108920Y49530D01*
X108520D01*
X109319Y49263D02*
Y50063D01*
X109719D01*
X109853Y49930D01*
Y49663D01*
X109719Y49530D01*
X109319D01*
X110119D02*
X110386D01*
X110252D01*
Y50330D01*
X110119D01*
X110786Y50063D02*
Y49663D01*
X110919Y49530D01*
X111319D01*
Y49397D01*
X111186Y49263D01*
X111052D01*
X111319Y49530D02*
Y50063D01*
X46507Y3714D02*
X46374Y3848D01*
X46107D01*
X45974Y3714D01*
Y3581D01*
X46107Y3448D01*
X46374D01*
X46507Y3315D01*
Y3181D01*
X46374Y3048D01*
X46107D01*
X45974Y3181D01*
X46774Y3048D02*
Y3848D01*
X47174D01*
X47307Y3714D01*
Y3448D01*
X47174Y3315D01*
X46774D01*
X47573Y3048D02*
Y3581D01*
X47840Y3848D01*
X48107Y3581D01*
Y3048D01*
Y3448D01*
X47573D01*
X48373Y3048D02*
Y3848D01*
X48773D01*
X48906Y3714D01*
Y3448D01*
X48773Y3315D01*
X48373D01*
X48640D02*
X48906Y3048D01*
X49706Y3848D02*
X49173D01*
Y3048D01*
X49706D01*
X49173Y3448D02*
X49440D01*
X49973Y2915D02*
X50506D01*
X50772Y3848D02*
Y3048D01*
X51172D01*
X51306Y3181D01*
Y3315D01*
X51172Y3448D01*
X50772D01*
X51172D01*
X51306Y3581D01*
Y3714D01*
X51172Y3848D01*
X50772D01*
X15240Y49530D02*
Y50063D01*
X15507Y50330D01*
X15773Y50063D01*
Y49530D01*
Y49930D01*
X15240D01*
X16040Y50330D02*
Y49530D01*
X16440D01*
X16573Y49663D01*
Y50196D01*
X16440Y50330D01*
X16040D01*
X17373Y50196D02*
X17239Y50330D01*
X16973D01*
X16839Y50196D01*
Y49663D01*
X16973Y49530D01*
X17239D01*
X17373Y49663D01*
X17639Y49397D02*
X18172D01*
X18439Y50330D02*
Y49530D01*
X18839D01*
X18972Y49663D01*
Y49797D01*
X18839Y49930D01*
X18439D01*
X18839D01*
X18972Y50063D01*
Y50196D01*
X18839Y50330D01*
X18439D01*
X18567Y3714D02*
X18434Y3848D01*
X18167D01*
X18034Y3714D01*
Y3581D01*
X18167Y3448D01*
X18434D01*
X18567Y3315D01*
Y3181D01*
X18434Y3048D01*
X18167D01*
X18034Y3181D01*
X18834Y3048D02*
Y3848D01*
X19234D01*
X19367Y3714D01*
Y3448D01*
X19234Y3315D01*
X18834D01*
X19633Y3048D02*
Y3581D01*
X19900Y3848D01*
X20167Y3581D01*
Y3048D01*
Y3448D01*
X19633D01*
X20433Y3048D02*
Y3848D01*
X20833D01*
X20966Y3714D01*
Y3448D01*
X20833Y3315D01*
X20433D01*
X20700D02*
X20966Y3048D01*
X21766Y3848D02*
X21233D01*
Y3048D01*
X21766D01*
X21233Y3448D02*
X21500D01*
X22033Y2915D02*
X22566D01*
X22832Y3048D02*
Y3581D01*
X23099Y3848D01*
X23366Y3581D01*
Y3048D01*
Y3448D01*
X22832D01*
X4707Y49530D02*
Y50063D01*
X4973Y50330D01*
X5240Y50063D01*
Y49530D01*
Y49930D01*
X4707D01*
X5506Y50330D02*
Y49530D01*
X5906D01*
X6040Y49663D01*
Y50196D01*
X5906Y50330D01*
X5506D01*
X6839Y50196D02*
X6706Y50330D01*
X6439D01*
X6306Y50196D01*
Y49663D01*
X6439Y49530D01*
X6706D01*
X6839Y49663D01*
X7106Y49397D02*
X7639D01*
X7906Y49530D02*
Y50063D01*
X8172Y50330D01*
X8439Y50063D01*
Y49530D01*
Y49930D01*
X7906D01*
X3206Y85827D02*
X3340Y85960D01*
Y86227D01*
X3206Y86360D01*
X3073D01*
X2940Y86227D01*
Y85960D01*
X2807Y85827D01*
X2673D01*
X2540Y85960D01*
Y86227D01*
X2673Y86360D01*
X2540Y85560D02*
X3340D01*
Y85160D01*
X3206Y85027D01*
X2940D01*
X2807Y85160D01*
Y85560D01*
X3340Y84761D02*
Y84494D01*
Y84627D01*
X2540D01*
Y84761D01*
Y84494D01*
X2407Y84094D02*
Y83561D01*
X2540Y83294D02*
X3073D01*
X3340Y83028D01*
X3073Y82761D01*
X2540D01*
X2940D01*
Y83294D01*
X3340Y82495D02*
X2540D01*
Y82095D01*
X2673Y81961D01*
X3206D01*
X3340Y82095D01*
Y82495D01*
X3206Y81162D02*
X3340Y81295D01*
Y81562D01*
X3206Y81695D01*
X2673D01*
X2540Y81562D01*
Y81295D01*
X2673Y81162D01*
X73406Y99060D02*
Y99860D01*
X73673Y99593D01*
X73939Y99860D01*
Y99060D01*
X74206D02*
X74472D01*
X74339D01*
Y99593D01*
X74206D01*
X74872Y99060D02*
Y99593D01*
X75272D01*
X75405Y99460D01*
Y99060D01*
X75672D02*
X75939D01*
X75805D01*
Y99593D01*
X75672D01*
X77138Y99860D02*
Y99193D01*
X77271Y99060D01*
X77538D01*
X77671Y99193D01*
Y99860D01*
X78471Y99726D02*
X78338Y99860D01*
X78071D01*
X77938Y99726D01*
Y99593D01*
X78071Y99460D01*
X78338D01*
X78471Y99327D01*
Y99193D01*
X78338Y99060D01*
X78071D01*
X77938Y99193D01*
X78738Y99860D02*
Y99060D01*
X79137D01*
X79271Y99193D01*
Y99327D01*
X79137Y99460D01*
X78738D01*
X79137D01*
X79271Y99593D01*
Y99726D01*
X79137Y99860D01*
X78738D01*
X25146Y106388D02*
Y107188D01*
X24746D01*
X24613Y107055D01*
Y106522D01*
X24746Y106388D01*
X25146D01*
X24346D02*
X24080D01*
X24213D01*
Y107188D01*
X24346D01*
X24080D01*
X23280Y106388D02*
X23547D01*
X23680Y106522D01*
Y107055D01*
X23547Y107188D01*
X23280D01*
X23147Y107055D01*
Y106522D01*
X23280Y106388D01*
X74447Y3968D02*
X74314Y4102D01*
X74047D01*
X73914Y3968D01*
Y3835D01*
X74047Y3702D01*
X74314D01*
X74447Y3569D01*
Y3435D01*
X74314Y3302D01*
X74047D01*
X73914Y3435D01*
X74714Y3302D02*
Y4102D01*
X75114D01*
X75247Y3968D01*
Y3702D01*
X75114Y3569D01*
X74714D01*
X75513Y3302D02*
Y3835D01*
X75780Y4102D01*
X76047Y3835D01*
Y3302D01*
Y3702D01*
X75513D01*
X76313Y3302D02*
Y4102D01*
X76713D01*
X76846Y3968D01*
Y3702D01*
X76713Y3569D01*
X76313D01*
X76580D02*
X76846Y3302D01*
X77646Y4102D02*
X77113D01*
Y3302D01*
X77646D01*
X77113Y3702D02*
X77380D01*
X77913Y3169D02*
X78446D01*
X78712Y4102D02*
Y3435D01*
X78846Y3302D01*
X79112D01*
X79246Y3435D01*
Y4102D01*
X79512Y3302D02*
Y3835D01*
X79779Y4102D01*
X80045Y3835D01*
Y3302D01*
Y3702D01*
X79512D01*
X80312Y3302D02*
Y4102D01*
X80712D01*
X80845Y3968D01*
Y3702D01*
X80712Y3569D01*
X80312D01*
X80579D02*
X80845Y3302D01*
X81112Y4102D02*
X81645D01*
X81378D01*
Y3302D01*
X82445Y3968D02*
X82311Y4102D01*
X82045D01*
X81911Y3968D01*
Y3835D01*
X82045Y3702D01*
X82311D01*
X82445Y3569D01*
Y3435D01*
X82311Y3302D01*
X82045D01*
X81911Y3435D01*
X5715Y47790D02*
Y47257D01*
X5982Y46990D01*
X6248Y47257D01*
Y47790D01*
X7048Y47656D02*
X6915Y47790D01*
X6648D01*
X6515Y47656D01*
Y47523D01*
X6648Y47390D01*
X6915D01*
X7048Y47257D01*
Y47123D01*
X6915Y46990D01*
X6648D01*
X6515Y47123D01*
X7848Y47790D02*
X7314D01*
Y46990D01*
X7848D01*
X7314Y47390D02*
X7581D01*
X8114Y47790D02*
Y46990D01*
X8647D01*
X8914Y46857D02*
X9447D01*
X9714Y47790D02*
Y46990D01*
X10247D01*
X11047Y47656D02*
X10913Y47790D01*
X10647D01*
X10513Y47656D01*
Y47123D01*
X10647Y46990D01*
X10913D01*
X11047Y47123D01*
X11313Y47790D02*
Y46990D01*
X11713D01*
X11846Y47123D01*
Y47656D01*
X11713Y47790D01*
X11313D01*
X96774Y14770D02*
Y14237D01*
X97041Y13970D01*
X97307Y14237D01*
Y14770D01*
X98107Y14636D02*
X97974Y14770D01*
X97707D01*
X97574Y14636D01*
Y14503D01*
X97707Y14370D01*
X97974D01*
X98107Y14237D01*
Y14103D01*
X97974Y13970D01*
X97707D01*
X97574Y14103D01*
X98907Y14770D02*
X98373D01*
Y13970D01*
X98907D01*
X98373Y14370D02*
X98640D01*
X99173Y14770D02*
Y13970D01*
X99706D01*
X99973Y13837D02*
X100506D01*
X101306Y14636D02*
X101173Y14770D01*
X100906D01*
X100773Y14636D01*
Y14103D01*
X100906Y13970D01*
X101173D01*
X101306Y14103D01*
X101572Y14770D02*
Y13970D01*
X102106D01*
X102372D02*
Y14503D01*
X102639Y14770D01*
X102905Y14503D01*
Y13970D01*
Y14370D01*
X102372D01*
X103172Y14770D02*
Y14237D01*
X103439Y13970D01*
X103705Y14237D01*
Y14770D01*
X112999Y50800D02*
X112865Y50933D01*
Y51200D01*
X112999Y51333D01*
X113132D01*
X113265Y51200D01*
Y51067D01*
Y51200D01*
X113398Y51333D01*
X113532D01*
X113665Y51200D01*
Y50933D01*
X113532Y50800D01*
X113665Y51600D02*
X113532D01*
Y51733D01*
X113665D01*
Y51600D01*
X112999Y52266D02*
X112865Y52399D01*
Y52666D01*
X112999Y52799D01*
X113132D01*
X113265Y52666D01*
Y52533D01*
Y52666D01*
X113398Y52799D01*
X113532D01*
X113665Y52666D01*
Y52399D01*
X113532Y52266D01*
X112865Y53066D02*
X113398D01*
X113665Y53333D01*
X113398Y53599D01*
X112865D01*
X112999Y55199D02*
X112865Y55065D01*
Y54799D01*
X112999Y54665D01*
X113532D01*
X113665Y54799D01*
Y55065D01*
X113532Y55199D01*
X113132Y55465D02*
X113532D01*
X113665Y55598D01*
Y55998D01*
X113132D01*
Y56265D02*
X113665D01*
X113398D01*
X113265Y56398D01*
X113132Y56531D01*
Y56665D01*
Y57065D02*
X113665D01*
X113398D01*
X113265Y57198D01*
X113132Y57331D01*
Y57465D01*
X113665Y58264D02*
Y57998D01*
X113532Y57864D01*
X113265D01*
X113132Y57998D01*
Y58264D01*
X113265Y58398D01*
X113398D01*
Y57864D01*
X113665Y58664D02*
X113132D01*
Y59064D01*
X113265Y59197D01*
X113665D01*
X112999Y59597D02*
X113132D01*
Y59464D01*
Y59730D01*
Y59597D01*
X113532D01*
X113665Y59730D01*
X116967Y80175D02*
X117234D01*
X117100D01*
Y79375D01*
X116967D01*
X117234D01*
X117633D02*
Y79908D01*
X118033D01*
X118167Y79775D01*
Y79375D01*
X118966Y80041D02*
X118833Y80175D01*
X118566D01*
X118433Y80041D01*
Y79508D01*
X118566Y79375D01*
X118833D01*
X118966Y79508D01*
X119233Y79908D02*
Y79508D01*
X119366Y79375D01*
X119766D01*
Y79908D01*
X120033D02*
Y79375D01*
Y79642D01*
X120166Y79775D01*
X120299Y79908D01*
X120433D01*
X120832D02*
Y79375D01*
Y79642D01*
X120966Y79775D01*
X121099Y79908D01*
X121232D01*
X122032Y79375D02*
X121765D01*
X121632Y79508D01*
Y79775D01*
X121765Y79908D01*
X122032D01*
X122165Y79775D01*
Y79642D01*
X121632D01*
X122432Y79375D02*
Y79908D01*
X122832D01*
X122965Y79775D01*
Y79375D01*
X123365Y80041D02*
Y79908D01*
X123232D01*
X123498D01*
X123365D01*
Y79508D01*
X123498Y79375D01*
X98768Y51333D02*
Y50800D01*
X99168D01*
X99035Y51067D01*
Y51200D01*
X99168Y51333D01*
X99435D01*
X99568Y51200D01*
Y50933D01*
X99435Y50800D01*
X98768Y51600D02*
X99301D01*
X99568Y51866D01*
X99301Y52133D01*
X98768D01*
X98902Y53732D02*
X98768Y53599D01*
Y53333D01*
X98902Y53199D01*
X99435D01*
X99568Y53333D01*
Y53599D01*
X99435Y53732D01*
X99035Y53999D02*
X99435D01*
X99568Y54132D01*
Y54532D01*
X99035D01*
Y54799D02*
X99568D01*
X99301D01*
X99168Y54932D01*
X99035Y55065D01*
Y55199D01*
Y55598D02*
X99568D01*
X99301D01*
X99168Y55732D01*
X99035Y55865D01*
Y55998D01*
X99568Y56798D02*
Y56531D01*
X99435Y56398D01*
X99168D01*
X99035Y56531D01*
Y56798D01*
X99168Y56931D01*
X99301D01*
Y56398D01*
X99568Y57198D02*
X99035D01*
Y57598D01*
X99168Y57731D01*
X99568D01*
X98902Y58131D02*
X99035D01*
Y57998D01*
Y58264D01*
Y58131D01*
X99435D01*
X99568Y58264D01*
X102743Y80175D02*
X103010D01*
X102876D01*
Y79375D01*
X102743D01*
X103010D01*
X103409D02*
Y79908D01*
X103809D01*
X103943Y79775D01*
Y79375D01*
X104742Y80041D02*
X104609Y80175D01*
X104342D01*
X104209Y80041D01*
Y79508D01*
X104342Y79375D01*
X104609D01*
X104742Y79508D01*
X105009Y79908D02*
Y79508D01*
X105142Y79375D01*
X105542D01*
Y79908D01*
X105809D02*
Y79375D01*
Y79642D01*
X105942Y79775D01*
X106075Y79908D01*
X106209D01*
X106608D02*
Y79375D01*
Y79642D01*
X106742Y79775D01*
X106875Y79908D01*
X107008D01*
X107808Y79375D02*
X107541D01*
X107408Y79508D01*
Y79775D01*
X107541Y79908D01*
X107808D01*
X107941Y79775D01*
Y79642D01*
X107408D01*
X108208Y79375D02*
Y79908D01*
X108608D01*
X108741Y79775D01*
Y79375D01*
X109141Y80041D02*
Y79908D01*
X109008D01*
X109274D01*
X109141D01*
Y79508D01*
X109274Y79375D01*
X69685Y3175D02*
X70218D01*
X70485Y3442D01*
X70218Y3708D01*
X69685D01*
X69819Y4508D02*
X69685Y4375D01*
Y4108D01*
X69819Y3975D01*
X69952D01*
X70085Y4108D01*
Y4375D01*
X70218Y4508D01*
X70352D01*
X70485Y4375D01*
Y4108D01*
X70352Y3975D01*
X69685Y5308D02*
Y4774D01*
X70485D01*
Y5308D01*
X70085Y4774D02*
Y5041D01*
X69685Y5574D02*
X70485D01*
Y6107D01*
X70618Y6374D02*
Y6907D01*
X69819Y7707D02*
X69685Y7574D01*
Y7307D01*
X69819Y7174D01*
X69952D01*
X70085Y7307D01*
Y7574D01*
X70218Y7707D01*
X70352D01*
X70485Y7574D01*
Y7307D01*
X70352Y7174D01*
X70485Y7973D02*
X69685D01*
Y8373D01*
X69819Y8507D01*
X70085D01*
X70218Y8373D01*
Y7973D01*
X70485Y8773D02*
X69952D01*
X69685Y9040D01*
X69952Y9306D01*
X70485D01*
X70085D01*
Y8773D01*
X70485Y9573D02*
X69685D01*
Y9973D01*
X69819Y10106D01*
X70085D01*
X70218Y9973D01*
Y9573D01*
Y9840D02*
X70485Y10106D01*
X69685Y10906D02*
Y10373D01*
X70485D01*
Y10906D01*
X70085Y10373D02*
Y10639D01*
X70618Y11172D02*
Y11706D01*
X69685Y11972D02*
X70485D01*
Y12372D01*
X70352Y12505D01*
X70218D01*
X70085Y12372D01*
Y11972D01*
Y12372D01*
X69952Y12505D01*
X69819D01*
X69685Y12372D01*
Y11972D01*
X41745Y3175D02*
X42278D01*
X42545Y3442D01*
X42278Y3708D01*
X41745D01*
X41879Y4508D02*
X41745Y4375D01*
Y4108D01*
X41879Y3975D01*
X42012D01*
X42145Y4108D01*
Y4375D01*
X42278Y4508D01*
X42412D01*
X42545Y4375D01*
Y4108D01*
X42412Y3975D01*
X41745Y5308D02*
Y4774D01*
X42545D01*
Y5308D01*
X42145Y4774D02*
Y5041D01*
X41745Y5574D02*
X42545D01*
Y6107D01*
X42678Y6374D02*
Y6907D01*
X41879Y7707D02*
X41745Y7574D01*
Y7307D01*
X41879Y7174D01*
X42012D01*
X42145Y7307D01*
Y7574D01*
X42278Y7707D01*
X42412D01*
X42545Y7574D01*
Y7307D01*
X42412Y7174D01*
X42545Y7973D02*
X41745D01*
Y8373D01*
X41879Y8507D01*
X42145D01*
X42278Y8373D01*
Y7973D01*
X42545Y8773D02*
X42012D01*
X41745Y9040D01*
X42012Y9306D01*
X42545D01*
X42145D01*
Y8773D01*
X42545Y9573D02*
X41745D01*
Y9973D01*
X41879Y10106D01*
X42145D01*
X42278Y9973D01*
Y9573D01*
Y9840D02*
X42545Y10106D01*
X41745Y10906D02*
Y10373D01*
X42545D01*
Y10906D01*
X42145Y10373D02*
Y10639D01*
X42678Y11172D02*
Y11706D01*
X42545Y11972D02*
X42012D01*
X41745Y12239D01*
X42012Y12505D01*
X42545D01*
X42145D01*
Y11972D01*
X1524Y98463D02*
Y97930D01*
X1791Y97663D01*
X2057Y97930D01*
Y98463D01*
X2857Y98329D02*
X2724Y98463D01*
X2457D01*
X2324Y98329D01*
Y98196D01*
X2457Y98063D01*
X2724D01*
X2857Y97930D01*
Y97796D01*
X2724Y97663D01*
X2457D01*
X2324Y97796D01*
X3657Y98463D02*
X3123D01*
Y97663D01*
X3657D01*
X3123Y98063D02*
X3390D01*
X3923Y98463D02*
Y97663D01*
X4456D01*
X4723Y97530D02*
X5256D01*
X5523Y98463D02*
Y97663D01*
X5923D01*
X6056Y97796D01*
Y98329D01*
X5923Y98463D01*
X5523D01*
X6322D02*
X6589D01*
X6456D01*
Y97663D01*
X6322D01*
X6589D01*
X7389Y98463D02*
X7122D01*
X6989Y98329D01*
Y97796D01*
X7122Y97663D01*
X7389D01*
X7522Y97796D01*
Y98329D01*
X7389Y98463D01*
X7789Y97530D02*
X8322D01*
X9122Y98329D02*
X8988Y98463D01*
X8722D01*
X8588Y98329D01*
Y98196D01*
X8722Y98063D01*
X8988D01*
X9122Y97930D01*
Y97796D01*
X8988Y97663D01*
X8722D01*
X8588Y97796D01*
X9388Y97663D02*
Y98463D01*
X9788D01*
X9921Y98329D01*
Y98063D01*
X9788Y97930D01*
X9388D01*
X10188Y98463D02*
X10454D01*
X10321D01*
Y97663D01*
X10188D01*
X10454D01*
X10854Y97530D02*
X11387D01*
X11654Y97663D02*
Y98196D01*
X11921Y98463D01*
X12187Y98196D01*
Y97663D01*
Y98063D01*
X11654D01*
X12454Y98463D02*
Y97663D01*
X12854D01*
X12987Y97796D01*
Y98329D01*
X12854Y98463D01*
X12454D01*
X13787Y98329D02*
X13653Y98463D01*
X13387D01*
X13254Y98329D01*
Y97796D01*
X13387Y97663D01*
X13653D01*
X13787Y97796D01*
X138430Y59721D02*
X138563Y59855D01*
X138830D01*
X138963Y59721D01*
Y59588D01*
X138830Y59455D01*
X138697D01*
X138830D01*
X138963Y59322D01*
Y59188D01*
X138830Y59055D01*
X138563D01*
X138430Y59188D01*
X139230Y59855D02*
Y59322D01*
X139496Y59055D01*
X139763Y59322D01*
Y59855D01*
X140029Y59721D02*
X140163Y59855D01*
X140429D01*
X140563Y59721D01*
Y59588D01*
X140429Y59455D01*
X140296D01*
X140429D01*
X140563Y59322D01*
Y59188D01*
X140429Y59055D01*
X140163D01*
X140029Y59188D01*
X140829Y58922D02*
X141362D01*
X142162Y59721D02*
X142029Y59855D01*
X141762D01*
X141629Y59721D01*
Y59188D01*
X141762Y59055D01*
X142029D01*
X142162Y59188D01*
Y59455D01*
X141896D01*
X142562Y59055D02*
X142829D01*
X142962Y59188D01*
Y59455D01*
X142829Y59588D01*
X142562D01*
X142429Y59455D01*
Y59188D01*
X142562Y59055D01*
X143362D02*
X143628D01*
X143762Y59188D01*
Y59455D01*
X143628Y59588D01*
X143362D01*
X143228Y59455D01*
Y59188D01*
X143362Y59055D01*
X144561Y59855D02*
Y59055D01*
X144161D01*
X144028Y59188D01*
Y59455D01*
X144161Y59588D01*
X144561D01*
X138978Y64450D02*
X138445D01*
Y64050D01*
X138712Y64183D01*
X138845D01*
X138978Y64050D01*
Y63783D01*
X138845Y63650D01*
X138578D01*
X138445Y63783D01*
X139245Y64450D02*
Y63917D01*
X139511Y63650D01*
X139778Y63917D01*
Y64450D01*
X140044Y63517D02*
X140578D01*
X141377Y64316D02*
X141244Y64450D01*
X140978D01*
X140844Y64316D01*
Y63783D01*
X140978Y63650D01*
X141244D01*
X141377Y63783D01*
Y64050D01*
X141111D01*
X141777Y63650D02*
X142044D01*
X142177Y63783D01*
Y64050D01*
X142044Y64183D01*
X141777D01*
X141644Y64050D01*
Y63783D01*
X141777Y63650D01*
X142577D02*
X142844D01*
X142977Y63783D01*
Y64050D01*
X142844Y64183D01*
X142577D01*
X142444Y64050D01*
Y63783D01*
X142577Y63650D01*
X143777Y64450D02*
Y63650D01*
X143377D01*
X143243Y63783D01*
Y64050D01*
X143377Y64183D01*
X143777D01*
X138963Y50965D02*
X138430D01*
Y50165D01*
X138963D01*
X138430Y50565D02*
X138697D01*
X139230Y50698D02*
Y50165D01*
Y50432D01*
X139363Y50565D01*
X139496Y50698D01*
X139630D01*
X140029D02*
Y50165D01*
Y50432D01*
X140163Y50565D01*
X140296Y50698D01*
X140429D01*
X140963Y50165D02*
X141229D01*
X141362Y50298D01*
Y50565D01*
X141229Y50698D01*
X140963D01*
X140829Y50565D01*
Y50298D01*
X140963Y50165D01*
X141629Y50698D02*
Y50165D01*
Y50432D01*
X141762Y50565D01*
X141896Y50698D01*
X142029D01*
X138430Y55410D02*
X138963D01*
X138697D01*
Y54610D01*
X139363Y55143D02*
X139630D01*
X139763Y55010D01*
Y54610D01*
X139363D01*
X139230Y54743D01*
X139363Y54877D01*
X139763D01*
X140029Y54610D02*
X140429D01*
X140563Y54743D01*
X140429Y54877D01*
X140163D01*
X140029Y55010D01*
X140163Y55143D01*
X140563D01*
X140829Y54610D02*
Y55410D01*
Y54877D02*
X141229Y55143D01*
X140829Y54877D02*
X141229Y54610D01*
X141629Y54477D02*
X142162D01*
X142829Y55410D02*
X142562D01*
X142429Y55276D01*
Y54743D01*
X142562Y54610D01*
X142829D01*
X142962Y54743D01*
Y55276D01*
X142829Y55410D01*
X143228Y55143D02*
X143495Y54610D01*
X143762Y55143D01*
X144428Y54610D02*
X144161D01*
X144028Y54743D01*
Y55010D01*
X144161Y55143D01*
X144428D01*
X144561Y55010D01*
Y54877D01*
X144028D01*
X144828Y55143D02*
Y54610D01*
Y54877D01*
X144961Y55010D01*
X145095Y55143D01*
X145228D01*
X145628D02*
Y54610D01*
Y54877D01*
X145761Y55010D01*
X145894Y55143D01*
X146028D01*
X146427D02*
Y54743D01*
X146561Y54610D01*
X146961D01*
Y55143D01*
X147227Y54610D02*
Y55143D01*
X147627D01*
X147760Y55010D01*
Y54610D01*
X31648Y34321D02*
X31515Y34455D01*
X31248D01*
X31115Y34321D01*
Y33788D01*
X31248Y33655D01*
X31515D01*
X31648Y33788D01*
X32448Y33655D02*
X31915D01*
X32448Y34188D01*
Y34321D01*
X32315Y34455D01*
X32048D01*
X31915Y34321D01*
X33248Y33655D02*
X32714D01*
X33248Y34188D01*
Y34321D01*
X33114Y34455D01*
X32848D01*
X32714Y34321D01*
X33553Y28606D02*
X33420Y28740D01*
X33153D01*
X33020Y28606D01*
Y28073D01*
X33153Y27940D01*
X33420D01*
X33553Y28073D01*
X34353Y27940D02*
X33820D01*
X34353Y28473D01*
Y28606D01*
X34220Y28740D01*
X33953D01*
X33820Y28606D01*
X34619Y27940D02*
X34886D01*
X34753D01*
Y28740D01*
X34619Y28606D01*
X123874Y58953D02*
X123740Y58820D01*
Y58553D01*
X123874Y58420D01*
X124407D01*
X124540Y58553D01*
Y58820D01*
X124407Y58953D01*
X124540Y59753D02*
Y59220D01*
X124007Y59753D01*
X123874D01*
X123740Y59620D01*
Y59353D01*
X123874Y59220D01*
Y60019D02*
X123740Y60153D01*
Y60419D01*
X123874Y60553D01*
X124407D01*
X124540Y60419D01*
Y60153D01*
X124407Y60019D01*
X123874D01*
X113689Y74656D02*
X113556Y74789D01*
X113289D01*
X113156Y74656D01*
Y74123D01*
X113289Y73990D01*
X113556D01*
X113689Y74123D01*
X113956Y73990D02*
X114223D01*
X114089D01*
Y74789D01*
X113956Y74656D01*
X114622D02*
X114756Y74789D01*
X115022D01*
X115156Y74656D01*
Y74523D01*
X115022Y74389D01*
X115156Y74256D01*
Y74123D01*
X115022Y73990D01*
X114756D01*
X114622Y74123D01*
Y74256D01*
X114756Y74389D01*
X114622Y74523D01*
Y74656D01*
X114756Y74389D02*
X115022D01*
X121309Y74656D02*
X121176Y74789D01*
X120909D01*
X120776Y74656D01*
Y74123D01*
X120909Y73990D01*
X121176D01*
X121309Y74123D01*
X121576Y73990D02*
X121843D01*
X121709D01*
Y74789D01*
X121576Y74656D01*
X122242Y74789D02*
X122776D01*
Y74656D01*
X122242Y74123D01*
Y73990D01*
X97815Y19970D02*
X97682Y20104D01*
X97415D01*
X97282Y19970D01*
Y19437D01*
X97415Y19304D01*
X97682D01*
X97815Y19437D01*
X98082Y19304D02*
X98348D01*
X98215D01*
Y20104D01*
X98082Y19970D01*
X99281Y20104D02*
X99015Y19970D01*
X98748Y19704D01*
Y19437D01*
X98881Y19304D01*
X99148D01*
X99281Y19437D01*
Y19571D01*
X99148Y19704D01*
X98748D01*
X97942Y21875D02*
X97809Y22009D01*
X97542D01*
X97409Y21875D01*
Y21342D01*
X97542Y21209D01*
X97809D01*
X97942Y21342D01*
X98209Y21209D02*
X98475D01*
X98342D01*
Y22009D01*
X98209Y21875D01*
X99408Y22009D02*
X98875D01*
Y21609D01*
X99142Y21742D01*
X99275D01*
X99408Y21609D01*
Y21342D01*
X99275Y21209D01*
X99008D01*
X98875Y21342D01*
X109904Y58953D02*
X109770Y58820D01*
Y58553D01*
X109904Y58420D01*
X110437D01*
X110570Y58553D01*
Y58820D01*
X110437Y58953D01*
X110570Y59220D02*
Y59486D01*
Y59353D01*
X109770D01*
X109904Y59220D01*
X110570Y60286D02*
X109770D01*
X110170Y59886D01*
Y60419D01*
X118643Y83851D02*
X118510Y83985D01*
X118243D01*
X118110Y83851D01*
Y83318D01*
X118243Y83185D01*
X118510D01*
X118643Y83318D01*
X118910Y83185D02*
X119176D01*
X119043D01*
Y83985D01*
X118910Y83851D01*
X119576D02*
X119709Y83985D01*
X119976D01*
X120109Y83851D01*
Y83718D01*
X119976Y83585D01*
X119843D01*
X119976D01*
X120109Y83452D01*
Y83318D01*
X119976Y83185D01*
X119709D01*
X119576Y83318D01*
X99719Y74656D02*
X99586Y74789D01*
X99319D01*
X99186Y74656D01*
Y74123D01*
X99319Y73990D01*
X99586D01*
X99719Y74123D01*
X99986Y73990D02*
X100253D01*
X100119D01*
Y74789D01*
X99986Y74656D01*
X101186Y73990D02*
X100652D01*
X101186Y74523D01*
Y74656D01*
X101052Y74789D01*
X100786D01*
X100652Y74656D01*
X107339D02*
X107206Y74789D01*
X106939D01*
X106806Y74656D01*
Y74123D01*
X106939Y73990D01*
X107206D01*
X107339Y74123D01*
X107606Y73990D02*
X107873D01*
X107739D01*
Y74789D01*
X107606Y74656D01*
X108272Y73990D02*
X108539D01*
X108406D01*
Y74789D01*
X108272Y74656D01*
X15138Y96678D02*
X15005Y96812D01*
X14738D01*
X14605Y96678D01*
Y96145D01*
X14738Y96012D01*
X15005D01*
X15138Y96145D01*
X15805Y96012D02*
Y96812D01*
X15405Y96412D01*
X15938D01*
X17043Y96678D02*
X16910Y96812D01*
X16643D01*
X16510Y96678D01*
Y96145D01*
X16643Y96012D01*
X16910D01*
X17043Y96145D01*
X17310Y96678D02*
X17443Y96812D01*
X17710D01*
X17843Y96678D01*
Y96545D01*
X17710Y96412D01*
X17576D01*
X17710D01*
X17843Y96279D01*
Y96145D01*
X17710Y96012D01*
X17443D01*
X17310Y96145D01*
X67589Y90455D02*
X67456Y90589D01*
X67189D01*
X67056Y90455D01*
Y89922D01*
X67189Y89789D01*
X67456D01*
X67589Y89922D01*
X68389Y89789D02*
X67856D01*
X68389Y90322D01*
Y90455D01*
X68256Y90589D01*
X67989D01*
X67856Y90455D01*
X67589Y92868D02*
X67456Y93002D01*
X67189D01*
X67056Y92868D01*
Y92335D01*
X67189Y92202D01*
X67456D01*
X67589Y92335D01*
X67856Y92202D02*
X68122D01*
X67989D01*
Y93002D01*
X67856Y92868D01*
X51143Y101498D02*
Y101232D01*
Y101365D01*
X51810D01*
X51943Y101232D01*
Y101098D01*
X51810Y100965D01*
X51143Y101765D02*
Y102298D01*
Y102031D01*
X51943D01*
Y102564D02*
X51410D01*
X51143Y102831D01*
X51410Y103098D01*
X51943D01*
X51543D01*
Y102564D01*
X51277Y103897D02*
X51143Y103764D01*
Y103498D01*
X51277Y103364D01*
X51810D01*
X51943Y103498D01*
Y103764D01*
X51810Y103897D01*
X51543D01*
Y103631D01*
X51943Y104964D02*
X51410D01*
Y105097D01*
X51543Y105230D01*
X51943D01*
X51543D01*
X51410Y105364D01*
X51543Y105497D01*
X51943D01*
Y105763D02*
Y106030D01*
Y105897D01*
X51410D01*
Y105763D01*
X51943Y106430D02*
X51410D01*
Y106830D01*
X51543Y106963D01*
X51943D01*
Y107230D02*
Y107496D01*
Y107363D01*
X51410D01*
Y107230D01*
X52959Y99187D02*
Y99987D01*
X53359D01*
X53492Y99853D01*
Y99587D01*
X53359Y99454D01*
X52959D01*
X53759Y99187D02*
X54025D01*
X53892D01*
Y99987D01*
X53759Y99853D01*
X54425Y99987D02*
Y99187D01*
X54825D01*
X54958Y99320D01*
Y99454D01*
Y99587D01*
X54825Y99720D01*
X54425D01*
X63119Y98209D02*
Y97542D01*
X63252Y97409D01*
X63519D01*
X63652Y97542D01*
Y98209D01*
X64452Y98075D02*
X64319Y98209D01*
X64052D01*
X63919Y98075D01*
Y97942D01*
X64052Y97809D01*
X64319D01*
X64452Y97676D01*
Y97542D01*
X64319Y97409D01*
X64052D01*
X63919Y97542D01*
X64718Y98209D02*
Y97409D01*
X65118D01*
X65252Y97542D01*
Y97676D01*
X65118Y97809D01*
X64718D01*
X65118D01*
X65252Y97942D01*
Y98075D01*
X65118Y98209D01*
X64718D01*
X65518Y97276D02*
X66051D01*
X66851Y98075D02*
X66718Y98209D01*
X66451D01*
X66318Y98075D01*
Y97942D01*
X66451Y97809D01*
X66718D01*
X66851Y97676D01*
Y97542D01*
X66718Y97409D01*
X66451D01*
X66318Y97542D01*
X67118Y98209D02*
Y97409D01*
Y97809D01*
X67251Y97942D01*
X67518D01*
X67651Y97809D01*
Y97409D01*
X67917D02*
X68184D01*
X68051D01*
Y97942D01*
X67917D01*
X68984Y97409D02*
X68717D01*
X68584Y97542D01*
Y97809D01*
X68717Y97942D01*
X68984D01*
X69117Y97809D01*
Y97676D01*
X68584D01*
X69384Y97409D02*
X69650D01*
X69517D01*
Y98209D01*
X69384D01*
X70583D02*
Y97409D01*
X70183D01*
X70050Y97542D01*
Y97809D01*
X70183Y97942D01*
X70583D01*
X71783Y98075D02*
Y97942D01*
X71650D01*
X71916D01*
X71783D01*
Y97542D01*
X71916Y97409D01*
X72449D02*
X72716D01*
X72849Y97542D01*
Y97809D01*
X72716Y97942D01*
X72449D01*
X72316Y97809D01*
Y97542D01*
X72449Y97409D01*
X74449Y98075D02*
X74315Y98209D01*
X74049D01*
X73916Y98075D01*
Y97542D01*
X74049Y97409D01*
X74315D01*
X74449Y97542D01*
Y97809D01*
X74182D01*
X74715Y97409D02*
Y98209D01*
X75248Y97409D01*
Y98209D01*
X75515D02*
Y97409D01*
X75915D01*
X76048Y97542D01*
Y98075D01*
X75915Y98209D01*
X75515D01*
X68796Y106959D02*
Y106693D01*
Y106826D01*
X69463D01*
X69596Y106693D01*
Y106559D01*
X69463Y106426D01*
X69596Y107226D02*
Y107492D01*
Y107359D01*
X68796D01*
X68930Y107226D01*
Y107892D02*
X68796Y108025D01*
Y108292D01*
X68930Y108425D01*
X69063D01*
X69196Y108292D01*
Y108159D01*
Y108292D01*
X69329Y108425D01*
X69463D01*
X69596Y108292D01*
Y108025D01*
X69463Y107892D01*
X84925Y91440D02*
X85592D01*
X85725Y91573D01*
Y91840D01*
X85592Y91973D01*
X84925D01*
X85059Y92773D02*
X84925Y92640D01*
Y92373D01*
X85059Y92240D01*
X85192D01*
X85325Y92373D01*
Y92640D01*
X85458Y92773D01*
X85592D01*
X85725Y92640D01*
Y92373D01*
X85592Y92240D01*
X84925Y93039D02*
X85725D01*
Y93439D01*
X85592Y93573D01*
X85458D01*
X85325Y93439D01*
Y93039D01*
Y93439D01*
X85192Y93573D01*
X85059D01*
X84925Y93439D01*
Y93039D01*
X85858Y93839D02*
Y94372D01*
X85059Y95172D02*
X84925Y95039D01*
Y94772D01*
X85059Y94639D01*
X85592D01*
X85725Y94772D01*
Y95039D01*
X85592Y95172D01*
X85325D01*
Y94906D01*
X85725Y95439D02*
X84925D01*
X85725Y95972D01*
X84925D01*
Y96238D02*
X85725D01*
Y96638D01*
X85592Y96772D01*
X85059D01*
X84925Y96638D01*
Y96238D01*
X85059Y97971D02*
X85192D01*
Y97838D01*
Y98105D01*
Y97971D01*
X85592D01*
X85725Y98105D01*
Y98638D02*
Y98904D01*
X85592Y99038D01*
X85325D01*
X85192Y98904D01*
Y98638D01*
X85325Y98504D01*
X85592D01*
X85725Y98638D01*
X85059Y100637D02*
X84925Y100504D01*
Y100237D01*
X85059Y100104D01*
X85592D01*
X85725Y100237D01*
Y100504D01*
X85592Y100637D01*
X85325D01*
Y100370D01*
X85725Y100904D02*
X84925D01*
X85725Y101437D01*
X84925D01*
Y101703D02*
X85725D01*
Y102103D01*
X85592Y102237D01*
X85059D01*
X84925Y102103D01*
Y101703D01*
X82766Y106705D02*
Y106439D01*
Y106572D01*
X83433D01*
X83566Y106439D01*
Y106305D01*
X83433Y106172D01*
X83566Y106972D02*
Y107238D01*
Y107105D01*
X82766D01*
X82900Y106972D01*
X83566Y108038D02*
X82766D01*
X83166Y107638D01*
Y108171D01*
X123159Y6883D02*
X123025Y6750D01*
Y6483D01*
X123159Y6350D01*
X123692D01*
X123825Y6483D01*
Y6750D01*
X123692Y6883D01*
X123825Y7683D02*
Y7150D01*
X123292Y7683D01*
X123159D01*
X123025Y7550D01*
Y7283D01*
X123159Y7150D01*
Y7949D02*
X123025Y8083D01*
Y8349D01*
X123159Y8483D01*
X123292D01*
X123425Y8349D01*
Y8216D01*
Y8349D01*
X123558Y8483D01*
X123692D01*
X123825Y8349D01*
Y8083D01*
X123692Y7949D01*
X125699Y6883D02*
X125565Y6750D01*
Y6483D01*
X125699Y6350D01*
X126232D01*
X126365Y6483D01*
Y6750D01*
X126232Y6883D01*
X126365Y7683D02*
Y7150D01*
X125832Y7683D01*
X125699D01*
X125565Y7550D01*
Y7283D01*
X125699Y7150D01*
X126365Y8349D02*
X125565D01*
X125965Y7949D01*
Y8483D01*
X128239Y6883D02*
X128105Y6750D01*
Y6483D01*
X128239Y6350D01*
X128772D01*
X128905Y6483D01*
Y6750D01*
X128772Y6883D01*
X128905Y7683D02*
Y7150D01*
X128372Y7683D01*
X128239D01*
X128105Y7550D01*
Y7283D01*
X128239Y7150D01*
X128105Y8483D02*
Y7949D01*
X128505D01*
X128372Y8216D01*
Y8349D01*
X128505Y8483D01*
X128772D01*
X128905Y8349D01*
Y8083D01*
X128772Y7949D01*
X130144Y6883D02*
X130010Y6750D01*
Y6483D01*
X130144Y6350D01*
X130677D01*
X130810Y6483D01*
Y6750D01*
X130677Y6883D01*
X130810Y7683D02*
Y7150D01*
X130277Y7683D01*
X130144D01*
X130010Y7550D01*
Y7283D01*
X130144Y7150D01*
X130010Y8483D02*
X130144Y8216D01*
X130410Y7949D01*
X130677D01*
X130810Y8083D01*
Y8349D01*
X130677Y8483D01*
X130543D01*
X130410Y8349D01*
Y7949D01*
X133319Y6883D02*
X133185Y6750D01*
Y6483D01*
X133319Y6350D01*
X133852D01*
X133985Y6483D01*
Y6750D01*
X133852Y6883D01*
X133985Y7683D02*
Y7150D01*
X133452Y7683D01*
X133319D01*
X133185Y7550D01*
Y7283D01*
X133319Y7150D01*
X133185Y7949D02*
Y8483D01*
X133319D01*
X133852Y7949D01*
X133985D01*
X135859Y6883D02*
X135725Y6750D01*
Y6483D01*
X135859Y6350D01*
X136392D01*
X136525Y6483D01*
Y6750D01*
X136392Y6883D01*
X136525Y7683D02*
Y7150D01*
X135992Y7683D01*
X135859D01*
X135725Y7550D01*
Y7283D01*
X135859Y7150D01*
Y7949D02*
X135725Y8083D01*
Y8349D01*
X135859Y8483D01*
X135992D01*
X136125Y8349D01*
X136258Y8483D01*
X136392D01*
X136525Y8349D01*
Y8083D01*
X136392Y7949D01*
X136258D01*
X136125Y8083D01*
X135992Y7949D01*
X135859D01*
X136125Y8083D02*
Y8349D01*
X138399Y6883D02*
X138265Y6750D01*
Y6483D01*
X138399Y6350D01*
X138932D01*
X139065Y6483D01*
Y6750D01*
X138932Y6883D01*
X139065Y7683D02*
Y7150D01*
X138532Y7683D01*
X138399D01*
X138265Y7550D01*
Y7283D01*
X138399Y7150D01*
X138932Y7949D02*
X139065Y8083D01*
Y8349D01*
X138932Y8483D01*
X138399D01*
X138265Y8349D01*
Y8083D01*
X138399Y7949D01*
X138532D01*
X138665Y8083D01*
Y8483D01*
X140939Y7518D02*
X140805Y7385D01*
Y7118D01*
X140939Y6985D01*
X141472D01*
X141605Y7118D01*
Y7385D01*
X141472Y7518D01*
X140939Y7785D02*
X140805Y7918D01*
Y8185D01*
X140939Y8318D01*
X141072D01*
X141205Y8185D01*
Y8051D01*
Y8185D01*
X141338Y8318D01*
X141472D01*
X141605Y8185D01*
Y7918D01*
X141472Y7785D01*
X140939Y8584D02*
X140805Y8718D01*
Y8984D01*
X140939Y9118D01*
X141472D01*
X141605Y8984D01*
Y8718D01*
X141472Y8584D01*
X140939D01*
X119984Y6883D02*
X119850Y6750D01*
Y6483D01*
X119984Y6350D01*
X120517D01*
X120650Y6483D01*
Y6750D01*
X120517Y6883D01*
X119984Y7150D02*
X119850Y7283D01*
Y7550D01*
X119984Y7683D01*
X120117D01*
X120250Y7550D01*
Y7416D01*
Y7550D01*
X120383Y7683D01*
X120517D01*
X120650Y7550D01*
Y7283D01*
X120517Y7150D01*
X120650Y7949D02*
Y8216D01*
Y8083D01*
X119850D01*
X119984Y7949D01*
X118079Y6883D02*
X117945Y6750D01*
Y6483D01*
X118079Y6350D01*
X118612D01*
X118745Y6483D01*
Y6750D01*
X118612Y6883D01*
X118079Y7150D02*
X117945Y7283D01*
Y7550D01*
X118079Y7683D01*
X118212D01*
X118345Y7550D01*
Y7416D01*
Y7550D01*
X118478Y7683D01*
X118612D01*
X118745Y7550D01*
Y7283D01*
X118612Y7150D01*
X118745Y8483D02*
Y7949D01*
X118212Y8483D01*
X118079D01*
X117945Y8349D01*
Y8083D01*
X118079Y7949D01*
X115539Y6883D02*
X115405Y6750D01*
Y6483D01*
X115539Y6350D01*
X116072D01*
X116205Y6483D01*
Y6750D01*
X116072Y6883D01*
X115539Y7150D02*
X115405Y7283D01*
Y7550D01*
X115539Y7683D01*
X115672D01*
X115805Y7550D01*
Y7416D01*
Y7550D01*
X115938Y7683D01*
X116072D01*
X116205Y7550D01*
Y7283D01*
X116072Y7150D01*
X115539Y7949D02*
X115405Y8083D01*
Y8349D01*
X115539Y8483D01*
X115672D01*
X115805Y8349D01*
Y8216D01*
Y8349D01*
X115938Y8483D01*
X116072D01*
X116205Y8349D01*
Y8083D01*
X116072Y7949D01*
X112999Y6883D02*
X112865Y6750D01*
Y6483D01*
X112999Y6350D01*
X113532D01*
X113665Y6483D01*
Y6750D01*
X113532Y6883D01*
X112999Y7150D02*
X112865Y7283D01*
Y7550D01*
X112999Y7683D01*
X113132D01*
X113265Y7550D01*
Y7416D01*
Y7550D01*
X113398Y7683D01*
X113532D01*
X113665Y7550D01*
Y7283D01*
X113532Y7150D01*
X113665Y8349D02*
X112865D01*
X113265Y7949D01*
Y8483D01*
X109824Y6883D02*
X109690Y6750D01*
Y6483D01*
X109824Y6350D01*
X110357D01*
X110490Y6483D01*
Y6750D01*
X110357Y6883D01*
X109824Y7150D02*
X109690Y7283D01*
Y7550D01*
X109824Y7683D01*
X109957D01*
X110090Y7550D01*
Y7416D01*
Y7550D01*
X110223Y7683D01*
X110357D01*
X110490Y7550D01*
Y7283D01*
X110357Y7150D01*
X109690Y8483D02*
Y7949D01*
X110090D01*
X109957Y8216D01*
Y8349D01*
X110090Y8483D01*
X110357D01*
X110490Y8349D01*
Y8083D01*
X110357Y7949D01*
X107919Y6883D02*
X107785Y6750D01*
Y6483D01*
X107919Y6350D01*
X108452D01*
X108585Y6483D01*
Y6750D01*
X108452Y6883D01*
X107919Y7150D02*
X107785Y7283D01*
Y7550D01*
X107919Y7683D01*
X108052D01*
X108185Y7550D01*
Y7416D01*
Y7550D01*
X108318Y7683D01*
X108452D01*
X108585Y7550D01*
Y7283D01*
X108452Y7150D01*
X107785Y8483D02*
X107919Y8216D01*
X108185Y7949D01*
X108452D01*
X108585Y8083D01*
Y8349D01*
X108452Y8483D01*
X108318D01*
X108185Y8349D01*
Y7949D01*
X105379Y6883D02*
X105245Y6750D01*
Y6483D01*
X105379Y6350D01*
X105912D01*
X106045Y6483D01*
Y6750D01*
X105912Y6883D01*
X105379Y7150D02*
X105245Y7283D01*
Y7550D01*
X105379Y7683D01*
X105512D01*
X105645Y7550D01*
Y7416D01*
Y7550D01*
X105778Y7683D01*
X105912D01*
X106045Y7550D01*
Y7283D01*
X105912Y7150D01*
X105245Y7949D02*
Y8483D01*
X105379D01*
X105912Y7949D01*
X106045D01*
X102839Y7518D02*
X102705Y7385D01*
Y7118D01*
X102839Y6985D01*
X103372D01*
X103505Y7118D01*
Y7385D01*
X103372Y7518D01*
X102839Y7785D02*
X102705Y7918D01*
Y8185D01*
X102839Y8318D01*
X102972D01*
X103105Y8185D01*
Y8051D01*
Y8185D01*
X103238Y8318D01*
X103372D01*
X103505Y8185D01*
Y7918D01*
X103372Y7785D01*
X102839Y8584D02*
X102705Y8718D01*
Y8984D01*
X102839Y9118D01*
X102972D01*
X103105Y8984D01*
X103238Y9118D01*
X103372D01*
X103505Y8984D01*
Y8718D01*
X103372Y8584D01*
X103238D01*
X103105Y8718D01*
X102972Y8584D01*
X102839D01*
X103105Y8718D02*
Y8984D01*
X139715Y40005D02*
Y40805D01*
X140115D01*
X140248Y40671D01*
Y40405D01*
X140115Y40272D01*
X139715D01*
X139982D02*
X140248Y40005D01*
X141048D02*
X140515D01*
X141048Y40538D01*
Y40671D01*
X140915Y40805D01*
X140648D01*
X140515Y40671D01*
X141314D02*
X141448Y40805D01*
X141714D01*
X141848Y40671D01*
Y40538D01*
X141714Y40405D01*
X141581D01*
X141714D01*
X141848Y40272D01*
Y40138D01*
X141714Y40005D01*
X141448D01*
X141314Y40138D01*
X139700Y37465D02*
Y38265D01*
X140100D01*
X140233Y38131D01*
Y37865D01*
X140100Y37732D01*
X139700D01*
X139967D02*
X140233Y37465D01*
X141033D02*
X140500D01*
X141033Y37998D01*
Y38131D01*
X140900Y38265D01*
X140633D01*
X140500Y38131D01*
X141699Y37465D02*
Y38265D01*
X141299Y37865D01*
X141833D01*
X139715Y35560D02*
Y36360D01*
X140115D01*
X140248Y36226D01*
Y35960D01*
X140115Y35827D01*
X139715D01*
X139982D02*
X140248Y35560D01*
X141048D02*
X140515D01*
X141048Y36093D01*
Y36226D01*
X140915Y36360D01*
X140648D01*
X140515Y36226D01*
X141848Y36360D02*
X141314D01*
Y35960D01*
X141581Y36093D01*
X141714D01*
X141848Y35960D01*
Y35693D01*
X141714Y35560D01*
X141448D01*
X141314Y35693D01*
X139700Y33020D02*
Y33820D01*
X140100D01*
X140233Y33686D01*
Y33420D01*
X140100Y33287D01*
X139700D01*
X139967D02*
X140233Y33020D01*
X141033D02*
X140500D01*
X141033Y33553D01*
Y33686D01*
X140900Y33820D01*
X140633D01*
X140500Y33686D01*
X141833Y33820D02*
X141566Y33686D01*
X141299Y33420D01*
Y33153D01*
X141433Y33020D01*
X141699D01*
X141833Y33153D01*
Y33287D01*
X141699Y33420D01*
X141299D01*
X139700Y30480D02*
Y31280D01*
X140100D01*
X140233Y31146D01*
Y30880D01*
X140100Y30747D01*
X139700D01*
X139967D02*
X140233Y30480D01*
X141033D02*
X140500D01*
X141033Y31013D01*
Y31146D01*
X140900Y31280D01*
X140633D01*
X140500Y31146D01*
X141299Y31280D02*
X141833D01*
Y31146D01*
X141299Y30613D01*
Y30480D01*
X139700Y27940D02*
Y28740D01*
X140100D01*
X140233Y28606D01*
Y28340D01*
X140100Y28207D01*
X139700D01*
X139967D02*
X140233Y27940D01*
X141033D02*
X140500D01*
X141033Y28473D01*
Y28606D01*
X140900Y28740D01*
X140633D01*
X140500Y28606D01*
X141299D02*
X141433Y28740D01*
X141699D01*
X141833Y28606D01*
Y28473D01*
X141699Y28340D01*
X141833Y28207D01*
Y28073D01*
X141699Y27940D01*
X141433D01*
X141299Y28073D01*
Y28207D01*
X141433Y28340D01*
X141299Y28473D01*
Y28606D01*
X141433Y28340D02*
X141699D01*
X139700Y25400D02*
Y26200D01*
X140100D01*
X140233Y26066D01*
Y25800D01*
X140100Y25667D01*
X139700D01*
X139967D02*
X140233Y25400D01*
X141033D02*
X140500D01*
X141033Y25933D01*
Y26066D01*
X140900Y26200D01*
X140633D01*
X140500Y26066D01*
X141299Y25533D02*
X141433Y25400D01*
X141699D01*
X141833Y25533D01*
Y26066D01*
X141699Y26200D01*
X141433D01*
X141299Y26066D01*
Y25933D01*
X141433Y25800D01*
X141833D01*
X139700Y22860D02*
Y23660D01*
X140100D01*
X140233Y23526D01*
Y23260D01*
X140100Y23127D01*
X139700D01*
X139967D02*
X140233Y22860D01*
X140500Y23526D02*
X140633Y23660D01*
X140900D01*
X141033Y23526D01*
Y23393D01*
X140900Y23260D01*
X140766D01*
X140900D01*
X141033Y23127D01*
Y22993D01*
X140900Y22860D01*
X140633D01*
X140500Y22993D01*
X141299Y23526D02*
X141433Y23660D01*
X141699D01*
X141833Y23526D01*
Y22993D01*
X141699Y22860D01*
X141433D01*
X141299Y22993D01*
Y23526D01*
X102870Y40005D02*
Y40805D01*
X103270D01*
X103403Y40671D01*
Y40405D01*
X103270Y40272D01*
X102870D01*
X103137D02*
X103403Y40005D01*
X103670Y40671D02*
X103803Y40805D01*
X104070D01*
X104203Y40671D01*
Y40538D01*
X104070Y40405D01*
X103936D01*
X104070D01*
X104203Y40272D01*
Y40138D01*
X104070Y40005D01*
X103803D01*
X103670Y40138D01*
X104469Y40005D02*
X104736D01*
X104603D01*
Y40805D01*
X104469Y40671D01*
X102870Y37465D02*
Y38265D01*
X103270D01*
X103403Y38131D01*
Y37865D01*
X103270Y37732D01*
X102870D01*
X103137D02*
X103403Y37465D01*
X103670Y38131D02*
X103803Y38265D01*
X104070D01*
X104203Y38131D01*
Y37998D01*
X104070Y37865D01*
X103936D01*
X104070D01*
X104203Y37732D01*
Y37598D01*
X104070Y37465D01*
X103803D01*
X103670Y37598D01*
X105003Y37465D02*
X104469D01*
X105003Y37998D01*
Y38131D01*
X104869Y38265D01*
X104603D01*
X104469Y38131D01*
X102870Y34925D02*
Y35725D01*
X103270D01*
X103403Y35591D01*
Y35325D01*
X103270Y35192D01*
X102870D01*
X103137D02*
X103403Y34925D01*
X103670Y35591D02*
X103803Y35725D01*
X104070D01*
X104203Y35591D01*
Y35458D01*
X104070Y35325D01*
X103936D01*
X104070D01*
X104203Y35192D01*
Y35058D01*
X104070Y34925D01*
X103803D01*
X103670Y35058D01*
X104469Y35591D02*
X104603Y35725D01*
X104869D01*
X105003Y35591D01*
Y35458D01*
X104869Y35325D01*
X104736D01*
X104869D01*
X105003Y35192D01*
Y35058D01*
X104869Y34925D01*
X104603D01*
X104469Y35058D01*
X102870Y32385D02*
Y33185D01*
X103270D01*
X103403Y33051D01*
Y32785D01*
X103270Y32652D01*
X102870D01*
X103137D02*
X103403Y32385D01*
X103670Y33051D02*
X103803Y33185D01*
X104070D01*
X104203Y33051D01*
Y32918D01*
X104070Y32785D01*
X103936D01*
X104070D01*
X104203Y32652D01*
Y32518D01*
X104070Y32385D01*
X103803D01*
X103670Y32518D01*
X104869Y32385D02*
Y33185D01*
X104469Y32785D01*
X105003D01*
X102870Y29845D02*
Y30645D01*
X103270D01*
X103403Y30511D01*
Y30245D01*
X103270Y30112D01*
X102870D01*
X103137D02*
X103403Y29845D01*
X103670Y30511D02*
X103803Y30645D01*
X104070D01*
X104203Y30511D01*
Y30378D01*
X104070Y30245D01*
X103936D01*
X104070D01*
X104203Y30112D01*
Y29978D01*
X104070Y29845D01*
X103803D01*
X103670Y29978D01*
X105003Y30645D02*
X104469D01*
Y30245D01*
X104736Y30378D01*
X104869D01*
X105003Y30245D01*
Y29978D01*
X104869Y29845D01*
X104603D01*
X104469Y29978D01*
X102870Y27305D02*
Y28105D01*
X103270D01*
X103403Y27971D01*
Y27705D01*
X103270Y27572D01*
X102870D01*
X103137D02*
X103403Y27305D01*
X103670Y27971D02*
X103803Y28105D01*
X104070D01*
X104203Y27971D01*
Y27838D01*
X104070Y27705D01*
X103936D01*
X104070D01*
X104203Y27572D01*
Y27438D01*
X104070Y27305D01*
X103803D01*
X103670Y27438D01*
X105003Y28105D02*
X104736Y27971D01*
X104469Y27705D01*
Y27438D01*
X104603Y27305D01*
X104869D01*
X105003Y27438D01*
Y27572D01*
X104869Y27705D01*
X104469D01*
X102870Y24765D02*
Y25565D01*
X103270D01*
X103403Y25431D01*
Y25165D01*
X103270Y25032D01*
X102870D01*
X103137D02*
X103403Y24765D01*
X103670Y25431D02*
X103803Y25565D01*
X104070D01*
X104203Y25431D01*
Y25298D01*
X104070Y25165D01*
X103936D01*
X104070D01*
X104203Y25032D01*
Y24898D01*
X104070Y24765D01*
X103803D01*
X103670Y24898D01*
X104469Y25565D02*
X105003D01*
Y25431D01*
X104469Y24898D01*
Y24765D01*
X106045Y20320D02*
Y21120D01*
X106445D01*
X106578Y20986D01*
Y20720D01*
X106445Y20587D01*
X106045D01*
X106312D02*
X106578Y20320D01*
X106845Y20986D02*
X106978Y21120D01*
X107245D01*
X107378Y20986D01*
Y20853D01*
X107245Y20720D01*
X107111D01*
X107245D01*
X107378Y20587D01*
Y20453D01*
X107245Y20320D01*
X106978D01*
X106845Y20453D01*
X107644Y20986D02*
X107778Y21120D01*
X108044D01*
X108178Y20986D01*
Y20853D01*
X108044Y20720D01*
X108178Y20587D01*
Y20453D01*
X108044Y20320D01*
X107778D01*
X107644Y20453D01*
Y20587D01*
X107778Y20720D01*
X107644Y20853D01*
Y20986D01*
X107778Y20720D02*
X108044D01*
X63398Y57181D02*
X63265Y57315D01*
X62998D01*
X62865Y57181D01*
Y56648D01*
X62998Y56515D01*
X63265D01*
X63398Y56648D01*
X63665Y57181D02*
X63798Y57315D01*
X64065D01*
X64198Y57181D01*
Y57048D01*
X64065Y56915D01*
X63931D01*
X64065D01*
X64198Y56782D01*
Y56648D01*
X64065Y56515D01*
X63798D01*
X63665Y56648D01*
X64464D02*
X64598Y56515D01*
X64864D01*
X64998Y56648D01*
Y57181D01*
X64864Y57315D01*
X64598D01*
X64464Y57181D01*
Y57048D01*
X64598Y56915D01*
X64998D01*
X63398Y52101D02*
X63265Y52235D01*
X62998D01*
X62865Y52101D01*
Y51568D01*
X62998Y51435D01*
X63265D01*
X63398Y51568D01*
X64065Y51435D02*
Y52235D01*
X63665Y51835D01*
X64198D01*
X64464Y51435D02*
X64731D01*
X64598D01*
Y52235D01*
X64464Y52101D01*
X63398Y49561D02*
X63265Y49695D01*
X62998D01*
X62865Y49561D01*
Y49028D01*
X62998Y48895D01*
X63265D01*
X63398Y49028D01*
X64065Y48895D02*
Y49695D01*
X63665Y49295D01*
X64198D01*
X64998Y48895D02*
X64464D01*
X64998Y49428D01*
Y49561D01*
X64864Y49695D01*
X64598D01*
X64464Y49561D01*
X63398Y47021D02*
X63265Y47155D01*
X62998D01*
X62865Y47021D01*
Y46488D01*
X62998Y46355D01*
X63265D01*
X63398Y46488D01*
X64065Y46355D02*
Y47155D01*
X63665Y46755D01*
X64198D01*
X64464Y47021D02*
X64598Y47155D01*
X64864D01*
X64998Y47021D01*
Y46888D01*
X64864Y46755D01*
X64731D01*
X64864D01*
X64998Y46622D01*
Y46488D01*
X64864Y46355D01*
X64598D01*
X64464Y46488D01*
X63398Y44481D02*
X63265Y44615D01*
X62998D01*
X62865Y44481D01*
Y43948D01*
X62998Y43815D01*
X63265D01*
X63398Y43948D01*
X64065Y43815D02*
Y44615D01*
X63665Y44215D01*
X64198D01*
X64864Y43815D02*
Y44615D01*
X64464Y44215D01*
X64998D01*
X63398Y41941D02*
X63265Y42075D01*
X62998D01*
X62865Y41941D01*
Y41408D01*
X62998Y41275D01*
X63265D01*
X63398Y41408D01*
X64065Y41275D02*
Y42075D01*
X63665Y41675D01*
X64198D01*
X64998Y42075D02*
X64464D01*
Y41675D01*
X64731Y41808D01*
X64864D01*
X64998Y41675D01*
Y41408D01*
X64864Y41275D01*
X64598D01*
X64464Y41408D01*
X63398Y39401D02*
X63265Y39535D01*
X62998D01*
X62865Y39401D01*
Y38868D01*
X62998Y38735D01*
X63265D01*
X63398Y38868D01*
X64065Y38735D02*
Y39535D01*
X63665Y39135D01*
X64198D01*
X64998Y39535D02*
X64731Y39401D01*
X64464Y39135D01*
Y38868D01*
X64598Y38735D01*
X64864D01*
X64998Y38868D01*
Y39002D01*
X64864Y39135D01*
X64464D01*
X39370Y77000D02*
Y76200D01*
X39770D01*
X39903Y76333D01*
Y76866D01*
X39770Y77000D01*
X39370D01*
X40703D02*
X40436Y76866D01*
X40170Y76600D01*
Y76333D01*
X40303Y76200D01*
X40570D01*
X40703Y76333D01*
Y76467D01*
X40570Y76600D01*
X40170D01*
X39370Y72555D02*
Y71755D01*
X39770D01*
X39903Y71888D01*
Y72421D01*
X39770Y72555D01*
X39370D01*
X40170D02*
X40703D01*
Y72421D01*
X40170Y71888D01*
Y71755D01*
X39370Y68110D02*
Y67310D01*
X39770D01*
X39903Y67443D01*
Y67976D01*
X39770Y68110D01*
X39370D01*
X40170Y67976D02*
X40303Y68110D01*
X40570D01*
X40703Y67976D01*
Y67843D01*
X40570Y67710D01*
X40703Y67577D01*
Y67443D01*
X40570Y67310D01*
X40303D01*
X40170Y67443D01*
Y67577D01*
X40303Y67710D01*
X40170Y67843D01*
Y67976D01*
X40303Y67710D02*
X40570D01*
X39370Y63665D02*
Y62865D01*
X39770D01*
X39903Y62998D01*
Y63531D01*
X39770Y63665D01*
X39370D01*
X40170Y62998D02*
X40303Y62865D01*
X40570D01*
X40703Y62998D01*
Y63531D01*
X40570Y63665D01*
X40303D01*
X40170Y63531D01*
Y63398D01*
X40303Y63265D01*
X40703D01*
X39370Y59220D02*
Y58420D01*
X39770D01*
X39903Y58553D01*
Y59086D01*
X39770Y59220D01*
X39370D01*
X40170Y58420D02*
X40436D01*
X40303D01*
Y59220D01*
X40170Y59086D01*
X40836D02*
X40969Y59220D01*
X41236D01*
X41369Y59086D01*
Y58553D01*
X41236Y58420D01*
X40969D01*
X40836Y58553D01*
Y59086D01*
X39370Y54775D02*
Y53975D01*
X39770D01*
X39903Y54108D01*
Y54641D01*
X39770Y54775D01*
X39370D01*
X40170Y53975D02*
X40436D01*
X40303D01*
Y54775D01*
X40170Y54641D01*
X40836Y53975D02*
X41103D01*
X40969D01*
Y54775D01*
X40836Y54641D01*
X39370Y50330D02*
Y49530D01*
X39770D01*
X39903Y49663D01*
Y50196D01*
X39770Y50330D01*
X39370D01*
X40170Y49530D02*
X40436D01*
X40303D01*
Y50330D01*
X40170Y50196D01*
X41369Y49530D02*
X40836D01*
X41369Y50063D01*
Y50196D01*
X41236Y50330D01*
X40969D01*
X40836Y50196D01*
X39370Y45885D02*
Y45085D01*
X39770D01*
X39903Y45218D01*
Y45751D01*
X39770Y45885D01*
X39370D01*
X40170Y45085D02*
X40436D01*
X40303D01*
Y45885D01*
X40170Y45751D01*
X40836D02*
X40969Y45885D01*
X41236D01*
X41369Y45751D01*
Y45618D01*
X41236Y45485D01*
X41103D01*
X41236D01*
X41369Y45352D01*
Y45218D01*
X41236Y45085D01*
X40969D01*
X40836Y45218D01*
X29514Y77647D02*
Y78447D01*
X29914D01*
X30047Y78314D01*
Y78047D01*
X29914Y77914D01*
X29514D01*
X29781D02*
X30047Y77647D01*
X30314Y78314D02*
X30447Y78447D01*
X30714D01*
X30847Y78314D01*
Y78180D01*
X30714Y78047D01*
X30580D01*
X30714D01*
X30847Y77914D01*
Y77780D01*
X30714Y77647D01*
X30447D01*
X30314Y77780D01*
X31113D02*
X31247Y77647D01*
X31513D01*
X31647Y77780D01*
Y78314D01*
X31513Y78447D01*
X31247D01*
X31113Y78314D01*
Y78180D01*
X31247Y78047D01*
X31647D01*
X29514Y73202D02*
Y74002D01*
X29914D01*
X30047Y73869D01*
Y73602D01*
X29914Y73469D01*
X29514D01*
X29781D02*
X30047Y73202D01*
X30714D02*
Y74002D01*
X30314Y73602D01*
X30847D01*
X31113Y73869D02*
X31247Y74002D01*
X31513D01*
X31647Y73869D01*
Y73335D01*
X31513Y73202D01*
X31247D01*
X31113Y73335D01*
Y73869D01*
X29514Y68757D02*
Y69557D01*
X29914D01*
X30047Y69424D01*
Y69157D01*
X29914Y69024D01*
X29514D01*
X29781D02*
X30047Y68757D01*
X30714D02*
Y69557D01*
X30314Y69157D01*
X30847D01*
X31113Y68757D02*
X31380D01*
X31247D01*
Y69557D01*
X31113Y69424D01*
X29514Y64312D02*
Y65112D01*
X29914D01*
X30047Y64979D01*
Y64712D01*
X29914Y64579D01*
X29514D01*
X29781D02*
X30047Y64312D01*
X30714D02*
Y65112D01*
X30314Y64712D01*
X30847D01*
X31647Y64312D02*
X31113D01*
X31647Y64845D01*
Y64979D01*
X31513Y65112D01*
X31247D01*
X31113Y64979D01*
X29514Y59867D02*
Y60667D01*
X29914D01*
X30047Y60534D01*
Y60267D01*
X29914Y60134D01*
X29514D01*
X29781D02*
X30047Y59867D01*
X30714D02*
Y60667D01*
X30314Y60267D01*
X30847D01*
X31113Y60534D02*
X31247Y60667D01*
X31513D01*
X31647Y60534D01*
Y60400D01*
X31513Y60267D01*
X31380D01*
X31513D01*
X31647Y60134D01*
Y60000D01*
X31513Y59867D01*
X31247D01*
X31113Y60000D01*
X29514Y55422D02*
Y56222D01*
X29914D01*
X30047Y56089D01*
Y55822D01*
X29914Y55689D01*
X29514D01*
X29781D02*
X30047Y55422D01*
X30714D02*
Y56222D01*
X30314Y55822D01*
X30847D01*
X31513Y55422D02*
Y56222D01*
X31113Y55822D01*
X31647D01*
X29514Y50977D02*
Y51777D01*
X29914D01*
X30047Y51644D01*
Y51377D01*
X29914Y51244D01*
X29514D01*
X29781D02*
X30047Y50977D01*
X30714D02*
Y51777D01*
X30314Y51377D01*
X30847D01*
X31647Y51777D02*
X31113D01*
Y51377D01*
X31380Y51510D01*
X31513D01*
X31647Y51377D01*
Y51110D01*
X31513Y50977D01*
X31247D01*
X31113Y51110D01*
X29514Y46532D02*
Y47332D01*
X29914D01*
X30047Y47199D01*
Y46932D01*
X29914Y46799D01*
X29514D01*
X29781D02*
X30047Y46532D01*
X30714D02*
Y47332D01*
X30314Y46932D01*
X30847D01*
X31647Y47332D02*
X31380Y47199D01*
X31113Y46932D01*
Y46665D01*
X31247Y46532D01*
X31513D01*
X31647Y46665D01*
Y46799D01*
X31513Y46932D01*
X31113D01*
X110960Y90068D02*
Y89535D01*
X111760D01*
Y90068D01*
X111360Y89535D02*
Y89802D01*
X110960Y90335D02*
Y90868D01*
Y90601D01*
X111760D01*
X110960Y91134D02*
X111760D01*
X111360D01*
Y91668D01*
X110960D01*
X111760D01*
X111893Y91934D02*
Y92467D01*
X111094Y93267D02*
X110960Y93134D01*
Y92867D01*
X111094Y92734D01*
X111627D01*
X111760Y92867D01*
Y93134D01*
X111627Y93267D01*
X111360D01*
Y93001D01*
X111760Y93534D02*
X110960D01*
X111760Y94067D01*
X110960D01*
Y94333D02*
X111760D01*
Y94733D01*
X111627Y94867D01*
X111094D01*
X110960Y94733D01*
Y94333D01*
X111094Y96066D02*
X111227D01*
Y95933D01*
Y96200D01*
Y96066D01*
X111627D01*
X111760Y96200D01*
Y96733D02*
Y96999D01*
X111627Y97133D01*
X111360D01*
X111227Y96999D01*
Y96733D01*
X111360Y96599D01*
X111627D01*
X111760Y96733D01*
X111094Y98732D02*
X110960Y98599D01*
Y98332D01*
X111094Y98199D01*
X111627D01*
X111760Y98332D01*
Y98599D01*
X111627Y98732D01*
X111360D01*
Y98465D01*
X111760Y98999D02*
X110960D01*
X111760Y99532D01*
X110960D01*
Y99798D02*
X111760D01*
Y100198D01*
X111627Y100332D01*
X111094D01*
X110960Y100198D01*
Y99798D01*
X104610Y90068D02*
Y89802D01*
Y89935D01*
X105277D01*
X105410Y89802D01*
Y89668D01*
X105277Y89535D01*
X105410Y90335D02*
Y90601D01*
Y90468D01*
X104610D01*
X104744Y90335D01*
X104610Y91534D02*
X104744Y91268D01*
X105010Y91001D01*
X105277D01*
X105410Y91134D01*
Y91401D01*
X105277Y91534D01*
X105143D01*
X105010Y91401D01*
Y91001D01*
X109690Y95656D02*
Y95123D01*
X110490D01*
Y95656D01*
X110090Y95123D02*
Y95390D01*
X109690Y95923D02*
Y96456D01*
Y96189D01*
X110490D01*
X109690Y96722D02*
X110490D01*
X110090D01*
Y97256D01*
X109690D01*
X110490D01*
X110623Y97522D02*
Y98055D01*
X109824Y98855D02*
X109690Y98722D01*
Y98455D01*
X109824Y98322D01*
X109957D01*
X110090Y98455D01*
Y98722D01*
X110223Y98855D01*
X110357D01*
X110490Y98722D01*
Y98455D01*
X110357Y98322D01*
X109690Y99122D02*
X110490D01*
X110090D01*
Y99655D01*
X109690D01*
X110490D01*
X109690Y99921D02*
Y100188D01*
Y100055D01*
X110490D01*
Y99921D01*
Y100188D01*
X109690Y101121D02*
Y100588D01*
X110490D01*
Y101121D01*
X110090Y100588D02*
Y100854D01*
X109690Y101388D02*
X110490D01*
Y101921D01*
X109690Y102187D02*
X110490D01*
Y102587D01*
X110357Y102721D01*
X109824D01*
X109690Y102587D01*
Y102187D01*
X109824Y103920D02*
X109957D01*
Y103787D01*
Y104053D01*
Y103920D01*
X110357D01*
X110490Y104053D01*
Y104587D02*
Y104853D01*
X110357Y104986D01*
X110090D01*
X109957Y104853D01*
Y104587D01*
X110090Y104453D01*
X110357D01*
X110490Y104587D01*
X109824Y106586D02*
X109690Y106453D01*
Y106186D01*
X109824Y106053D01*
X110357D01*
X110490Y106186D01*
Y106453D01*
X110357Y106586D01*
X110090D01*
Y106319D01*
X110490Y106853D02*
X109690D01*
X110490Y107386D01*
X109690D01*
Y107652D02*
X110490D01*
Y108052D01*
X110357Y108185D01*
X109824D01*
X109690Y108052D01*
Y107652D01*
X104610Y95783D02*
Y95517D01*
Y95650D01*
X105277D01*
X105410Y95517D01*
Y95383D01*
X105277Y95250D01*
X105410Y96050D02*
Y96316D01*
Y96183D01*
X104610D01*
X104744Y96050D01*
X104610Y96716D02*
Y97249D01*
X104744D01*
X105277Y96716D01*
X105410D01*
X106000Y104000D02*
X105200D01*
Y104400D01*
X105334Y104533D01*
X105600D01*
X105733Y104400D01*
Y104000D01*
X106000Y104800D02*
Y105066D01*
Y104933D01*
X105200D01*
X105334Y104800D01*
X105200Y105466D02*
Y105999D01*
X105334D01*
X105867Y105466D01*
X106000D01*
X61049Y100482D02*
Y99949D01*
X61449D01*
X61316Y100216D01*
Y100349D01*
X61449Y100482D01*
X61716D01*
X61849Y100349D01*
Y100082D01*
X61716Y99949D01*
X61049Y100749D02*
X61582D01*
X61849Y101015D01*
X61582Y101282D01*
X61049D01*
X61183Y102482D02*
X61316D01*
Y102348D01*
Y102615D01*
Y102482D01*
X61716D01*
X61849Y102615D01*
Y103148D02*
Y103415D01*
X61716Y103548D01*
X61449D01*
X61316Y103415D01*
Y103148D01*
X61449Y103015D01*
X61716D01*
X61849Y103148D01*
X61049Y105147D02*
Y104881D01*
Y105014D01*
X61716D01*
X61849Y104881D01*
Y104747D01*
X61716Y104614D01*
X61049Y105414D02*
Y105947D01*
Y105680D01*
X61849D01*
Y106214D02*
X61316D01*
X61049Y106480D01*
X61316Y106747D01*
X61849D01*
X61449D01*
Y106214D01*
X61183Y107547D02*
X61049Y107413D01*
Y107147D01*
X61183Y107013D01*
X61716D01*
X61849Y107147D01*
Y107413D01*
X61716Y107547D01*
X61449D01*
Y107280D01*
X63208Y106959D02*
Y106693D01*
Y106826D01*
X63875D01*
X64008Y106693D01*
Y106559D01*
X63875Y106426D01*
X64008Y107226D02*
Y107492D01*
Y107359D01*
X63208D01*
X63342Y107226D01*
Y107892D02*
X63208Y108025D01*
Y108292D01*
X63342Y108425D01*
X63475D01*
X63608Y108292D01*
X63741Y108425D01*
X63875D01*
X64008Y108292D01*
Y108025D01*
X63875Y107892D01*
X63741D01*
X63608Y108025D01*
X63475Y107892D01*
X63342D01*
X63608Y108025D02*
Y108292D01*
X31530Y99733D02*
X31663Y99600D01*
X31930D01*
X32063Y99733D01*
Y100266D01*
X31930Y100400D01*
X31663D01*
X31530Y100266D01*
Y100133D01*
X31663Y100000D01*
X32063D01*
X16630Y99600D02*
X16897D01*
X16763D01*
Y100400D01*
X16630Y100266D01*
X30730Y102600D02*
X30997D01*
X30863D01*
Y103400D01*
X30730Y103266D01*
X31396D02*
X31530Y103400D01*
X31796D01*
X31930Y103266D01*
Y102733D01*
X31796Y102600D01*
X31530D01*
X31396Y102733D01*
Y103266D01*
X17163Y102600D02*
X16630D01*
X17163Y103133D01*
Y103266D01*
X17030Y103400D01*
X16763D01*
X16630Y103266D01*
X7023Y76420D02*
X6890Y76287D01*
Y76020D01*
X7023Y75887D01*
X7556D01*
X7690Y76020D01*
Y76287D01*
X7556Y76420D01*
X7423D01*
X7290Y76287D01*
Y75887D01*
X6890Y91320D02*
Y91053D01*
Y91187D01*
X7690D01*
X7556Y91320D01*
X9890Y77220D02*
Y76953D01*
Y77087D01*
X10690D01*
X10556Y77220D01*
Y76554D02*
X10690Y76420D01*
Y76154D01*
X10556Y76020D01*
X10023D01*
X9890Y76154D01*
Y76420D01*
X10023Y76554D01*
X10556D01*
X9890Y90787D02*
Y91320D01*
X10423Y90787D01*
X10556D01*
X10690Y90920D01*
Y91187D01*
X10556Y91320D01*
X6890Y68460D02*
Y68193D01*
Y68327D01*
X7690D01*
X7556Y68460D01*
X9890Y67927D02*
Y68460D01*
X10423Y67927D01*
X10556D01*
X10690Y68060D01*
Y68327D01*
X10556Y68460D01*
X7023Y53560D02*
X6890Y53427D01*
Y53160D01*
X7023Y53027D01*
X7556D01*
X7690Y53160D01*
Y53427D01*
X7556Y53560D01*
X7423D01*
X7290Y53427D01*
Y53027D01*
X9890Y54360D02*
Y54093D01*
Y54227D01*
X10690D01*
X10556Y54360D01*
Y53694D02*
X10690Y53560D01*
Y53294D01*
X10556Y53160D01*
X10023D01*
X9890Y53294D01*
Y53560D01*
X10023Y53694D01*
X10556D01*
X20440Y6890D02*
X20707D01*
X20573D01*
Y7690D01*
X20440Y7556D01*
X20973Y9890D02*
X20440D01*
X20973Y10423D01*
Y10556D01*
X20840Y10690D01*
X20573D01*
X20440Y10556D01*
X35340Y7023D02*
X35473Y6890D01*
X35740D01*
X35873Y7023D01*
Y7556D01*
X35740Y7690D01*
X35473D01*
X35340Y7556D01*
Y7423D01*
X35473Y7290D01*
X35873D01*
X34540Y9890D02*
X34807D01*
X34673D01*
Y10690D01*
X34540Y10556D01*
X35206D02*
X35340Y10690D01*
X35606D01*
X35740Y10556D01*
Y10023D01*
X35606Y9890D01*
X35340D01*
X35206Y10023D01*
Y10556D01*
X17050Y68460D02*
Y68193D01*
Y68327D01*
X17850D01*
X17716Y68460D01*
X20050Y67927D02*
Y68460D01*
X20583Y67927D01*
X20716D01*
X20850Y68060D01*
Y68327D01*
X20716Y68460D01*
X17183Y53560D02*
X17050Y53427D01*
Y53160D01*
X17183Y53027D01*
X17716D01*
X17850Y53160D01*
Y53427D01*
X17716Y53560D01*
X17583D01*
X17450Y53427D01*
Y53027D01*
X20050Y54360D02*
Y54093D01*
Y54227D01*
X20850D01*
X20716Y54360D01*
Y53694D02*
X20850Y53560D01*
Y53294D01*
X20716Y53160D01*
X20183D01*
X20050Y53294D01*
Y53560D01*
X20183Y53694D01*
X20716D01*
X48380Y6890D02*
X48647D01*
X48513D01*
Y7690D01*
X48380Y7556D01*
X48913Y9890D02*
X48380D01*
X48913Y10423D01*
Y10556D01*
X48780Y10690D01*
X48513D01*
X48380Y10556D01*
X63280Y7023D02*
X63413Y6890D01*
X63680D01*
X63813Y7023D01*
Y7556D01*
X63680Y7690D01*
X63413D01*
X63280Y7556D01*
Y7423D01*
X63413Y7290D01*
X63813D01*
X62480Y9890D02*
X62747D01*
X62613D01*
Y10690D01*
X62480Y10556D01*
X63146D02*
X63280Y10690D01*
X63546D01*
X63680Y10556D01*
Y10023D01*
X63546Y9890D01*
X63280D01*
X63146Y10023D01*
Y10556D01*
X18050Y39960D02*
Y40227D01*
Y40093D01*
X17250D01*
X17384Y39960D01*
X17250Y41160D02*
X17384Y40893D01*
X17650Y40626D01*
X17917D01*
X18050Y40760D01*
Y41026D01*
X17917Y41160D01*
X17783D01*
X17650Y41026D01*
Y40626D01*
X21050Y39960D02*
Y40227D01*
Y40093D01*
X20250D01*
X20384Y39960D01*
X20250Y41160D02*
Y40626D01*
X20650D01*
X20517Y40893D01*
Y41026D01*
X20650Y41160D01*
X20917D01*
X21050Y41026D01*
Y40760D01*
X20917Y40626D01*
X18050Y17993D02*
Y17460D01*
X17517Y17993D01*
X17384D01*
X17250Y17860D01*
Y17593D01*
X17384Y17460D01*
X21050Y17710D02*
Y17977D01*
Y17843D01*
X20250D01*
X20384Y17710D01*
X116585Y21000D02*
Y20733D01*
Y20867D01*
X117385D01*
X117251Y21000D01*
X117385Y19800D02*
X117251Y20067D01*
X116985Y20334D01*
X116718D01*
X116585Y20200D01*
Y19934D01*
X116718Y19800D01*
X116852D01*
X116985Y19934D01*
Y20334D01*
X113585Y21000D02*
Y20733D01*
Y20867D01*
X114385D01*
X114251Y21000D01*
X114385Y19800D02*
Y20334D01*
X113985D01*
X114118Y20067D01*
Y19934D01*
X113985Y19800D01*
X113718D01*
X113585Y19934D01*
Y20200D01*
X113718Y20334D01*
X116585Y42967D02*
Y43500D01*
X117118Y42967D01*
X117251D01*
X117385Y43100D01*
Y43367D01*
X117251Y43500D01*
X113585Y43250D02*
Y42983D01*
Y43117D01*
X114385D01*
X114251Y43250D01*
X7890Y39960D02*
Y40227D01*
Y40093D01*
X7090D01*
X7224Y39960D01*
X7090Y41160D02*
X7224Y40893D01*
X7490Y40626D01*
X7757D01*
X7890Y40760D01*
Y41026D01*
X7757Y41160D01*
X7623D01*
X7490Y41026D01*
Y40626D01*
X10890Y39960D02*
Y40227D01*
Y40093D01*
X10090D01*
X10224Y39960D01*
X10090Y41160D02*
Y40626D01*
X10490D01*
X10357Y40893D01*
Y41026D01*
X10490Y41160D01*
X10757D01*
X10890Y41026D01*
Y40760D01*
X10757Y40626D01*
X7890Y17993D02*
Y17460D01*
X7357Y17993D01*
X7224D01*
X7090Y17860D01*
Y17593D01*
X7224Y17460D01*
X10890Y17710D02*
Y17977D01*
Y17843D01*
X10090D01*
X10224Y17710D01*
X115390Y59340D02*
X115923D01*
X115657Y59606D02*
Y59073D01*
X113011Y81407D02*
Y81940D01*
X112745Y81674D02*
X113278D01*
X101420Y59340D02*
X101953D01*
X101687Y59606D02*
Y59073D01*
X57620Y92265D02*
X57658Y92151D01*
X57734Y92113D01*
X57811D01*
X57887Y92151D01*
X57925Y92227D01*
X57963Y92380D01*
X58001Y92494D01*
X58077Y92570D01*
X58153Y92608D01*
X58268D01*
X58344Y92570D01*
X58382Y92532D01*
X58420Y92418D01*
Y92265D01*
X58382Y92151D01*
X58344Y92113D01*
X58268Y92075D01*
X58153D01*
X58077Y92113D01*
X58001Y92189D01*
X57963Y92304D01*
X57925Y92456D01*
X57887Y92532D01*
X57811Y92570D01*
X57734D01*
X57658Y92532D01*
X57620Y92418D01*
Y92265D01*
X57773Y92787D02*
X57734Y92863D01*
X57620Y92978D01*
X58420D01*
X75400Y92608D02*
X76200Y92227D01*
X75400Y92075D02*
Y92608D01*
Y93168D02*
X75933Y92787D01*
Y93359D01*
X75400Y93168D02*
X76200D01*
X57620Y34188D02*
X58420Y33807D01*
X57620Y33655D02*
Y34188D01*
Y34443D02*
Y34862D01*
X57925Y34634D01*
Y34748D01*
X57963Y34824D01*
X58001Y34862D01*
X58115Y34900D01*
X58191D01*
X58306Y34862D01*
X58382Y34786D01*
X58420Y34672D01*
Y34558D01*
X58382Y34443D01*
X58344Y34405D01*
X58268Y34367D01*
X57620Y26568D02*
X58420Y26187D01*
X57620Y26035D02*
Y26568D01*
Y26976D02*
X57658Y26861D01*
X57773Y26785D01*
X57963Y26747D01*
X58077D01*
X58268Y26785D01*
X58382Y26861D01*
X58420Y26976D01*
Y27052D01*
X58382Y27166D01*
X58268Y27242D01*
X58077Y27280D01*
X57963D01*
X57773Y27242D01*
X57658Y27166D01*
X57620Y27052D01*
Y26976D01*
Y29108D02*
X58420Y28727D01*
X57620Y28575D02*
Y29108D01*
X57773Y29287D02*
X57734Y29363D01*
X57620Y29478D01*
X58420D01*
X57620Y31648D02*
X58420Y31267D01*
X57620Y31115D02*
Y31648D01*
X57811Y31865D02*
X57773D01*
X57696Y31903D01*
X57658Y31941D01*
X57620Y32018D01*
Y32170D01*
X57658Y32246D01*
X57696Y32284D01*
X57773Y32322D01*
X57849D01*
X57925Y32284D01*
X58039Y32208D01*
X58420Y31827D01*
Y32360D01*
X74765Y31572D02*
Y31191D01*
X75108Y31153D01*
X75070Y31191D01*
X75032Y31305D01*
Y31420D01*
X75070Y31534D01*
X75146Y31610D01*
X75260Y31648D01*
X75336D01*
X75451Y31610D01*
X75527Y31534D01*
X75565Y31420D01*
Y31305D01*
X75527Y31191D01*
X75489Y31153D01*
X75413Y31115D01*
X74765Y32360D02*
X75565Y31980D01*
X74765Y31827D02*
Y32360D01*
Y29032D02*
Y28651D01*
X75108Y28613D01*
X75070Y28651D01*
X75032Y28765D01*
Y28880D01*
X75070Y28994D01*
X75146Y29070D01*
X75260Y29108D01*
X75336D01*
X75451Y29070D01*
X75527Y28994D01*
X75565Y28880D01*
Y28765D01*
X75527Y28651D01*
X75489Y28613D01*
X75413Y28575D01*
X74879Y29744D02*
X74803Y29706D01*
X74765Y29592D01*
Y29516D01*
X74803Y29401D01*
X74918Y29325D01*
X75108Y29287D01*
X75298D01*
X75451Y29325D01*
X75527Y29401D01*
X75565Y29516D01*
Y29554D01*
X75527Y29668D01*
X75451Y29744D01*
X75336Y29782D01*
X75298D01*
X75184Y29744D01*
X75108Y29668D01*
X75070Y29554D01*
Y29516D01*
X75108Y29401D01*
X75184Y29325D01*
X75298Y29287D01*
X74765Y26492D02*
Y26111D01*
X75108Y26073D01*
X75070Y26111D01*
X75032Y26225D01*
Y26340D01*
X75070Y26454D01*
X75146Y26530D01*
X75260Y26568D01*
X75336D01*
X75451Y26530D01*
X75527Y26454D01*
X75565Y26340D01*
Y26225D01*
X75527Y26111D01*
X75489Y26073D01*
X75413Y26035D01*
X74765Y27204D02*
Y26823D01*
X75108Y26785D01*
X75070Y26823D01*
X75032Y26938D01*
Y27052D01*
X75070Y27166D01*
X75146Y27242D01*
X75260Y27280D01*
X75336D01*
X75451Y27242D01*
X75527Y27166D01*
X75565Y27052D01*
Y26938D01*
X75527Y26823D01*
X75489Y26785D01*
X75413Y26747D01*
X80713Y93299D02*
Y93337D01*
X80751Y93414D01*
X80789Y93452D01*
X80865Y93490D01*
X81018D01*
X81094Y93452D01*
X81132Y93414D01*
X81170Y93337D01*
Y93261D01*
X81132Y93185D01*
X81056Y93071D01*
X80675Y92690D01*
X81208D01*
X81578Y93490D02*
X81463Y93452D01*
X81425Y93376D01*
Y93299D01*
X81463Y93223D01*
X81540Y93185D01*
X81692Y93147D01*
X81806Y93109D01*
X81882Y93033D01*
X81920Y92957D01*
Y92842D01*
X81882Y92766D01*
X81844Y92728D01*
X81730Y92690D01*
X81578D01*
X81463Y92728D01*
X81425Y92766D01*
X81387Y92842D01*
Y92957D01*
X81425Y93033D01*
X81501Y93109D01*
X81616Y93147D01*
X81768Y93185D01*
X81844Y93223D01*
X81882Y93299D01*
Y93376D01*
X81844Y93452D01*
X81730Y93490D01*
X81578D01*
X80132Y26490D02*
X79751D01*
X79713Y26147D01*
X79751Y26185D01*
X79865Y26223D01*
X79980D01*
X80094Y26185D01*
X80170Y26109D01*
X80208Y25995D01*
Y25919D01*
X80170Y25804D01*
X80094Y25728D01*
X79980Y25690D01*
X79865D01*
X79751Y25728D01*
X79713Y25766D01*
X79675Y25842D01*
X80768Y26490D02*
X80387Y25957D01*
X80959D01*
X80768Y26490D02*
Y25690D01*
X51713Y26299D02*
Y26337D01*
X51751Y26414D01*
X51789Y26452D01*
X51865Y26490D01*
X52018D01*
X52094Y26452D01*
X52132Y26414D01*
X52170Y26337D01*
Y26261D01*
X52132Y26185D01*
X52056Y26071D01*
X51675Y25690D01*
X52208D01*
X52920Y26490D02*
X52540Y25690D01*
X52387Y26490D02*
X52920D01*
X52675Y93337D02*
X52751Y93376D01*
X52865Y93490D01*
Y92690D01*
X66028Y73152D02*
X65989Y73228D01*
X65875Y73342D01*
X66675D01*
X65875Y74272D02*
X66675Y73891D01*
X65875Y73739D02*
Y74272D01*
X65989Y74908D02*
X65913Y74870D01*
X65875Y74755D01*
Y74679D01*
X65913Y74565D01*
X66028Y74489D01*
X66218Y74451D01*
X66408D01*
X66561Y74489D01*
X66637Y74565D01*
X66675Y74679D01*
Y74717D01*
X66637Y74832D01*
X66561Y74908D01*
X66446Y74946D01*
X66408D01*
X66294Y74908D01*
X66218Y74832D01*
X66180Y74717D01*
Y74679D01*
X66218Y74565D01*
X66294Y74489D01*
X66408Y74451D01*
X66142Y75616D02*
X66256Y75578D01*
X66332Y75502D01*
X66370Y75388D01*
Y75350D01*
X66332Y75235D01*
X66256Y75159D01*
X66142Y75121D01*
X66104D01*
X65989Y75159D01*
X65913Y75235D01*
X65875Y75350D01*
Y75388D01*
X65913Y75502D01*
X65989Y75578D01*
X66142Y75616D01*
X66332D01*
X66523Y75578D01*
X66637Y75502D01*
X66675Y75388D01*
Y75312D01*
X66637Y75197D01*
X66561Y75159D01*
X65748Y66548D02*
X66548D01*
Y67005D01*
X66167Y67093D02*
Y67435D01*
X66129Y67550D01*
X66091Y67588D01*
X66015Y67626D01*
X65901D01*
X65824Y67588D01*
X65786Y67550D01*
X65748Y67435D01*
Y67093D01*
X66548D01*
X65939Y68376D02*
X65862Y68338D01*
X65786Y68262D01*
X65748Y68186D01*
Y68033D01*
X65786Y67957D01*
X65862Y67881D01*
X65939Y67843D01*
X66053Y67805D01*
X66243D01*
X66358Y67843D01*
X66434Y67881D01*
X66510Y67957D01*
X66548Y68033D01*
Y68186D01*
X66510Y68262D01*
X66434Y68338D01*
X66358Y68376D01*
X65748Y68601D02*
X66548Y69134D01*
X65748D02*
X66548Y68601D01*
X66015Y69313D02*
X66815D01*
X66129D02*
X66053Y69389D01*
X66015Y69465D01*
Y69580D01*
X66053Y69656D01*
X66129Y69732D01*
X66243Y69770D01*
X66319D01*
X66434Y69732D01*
X66510Y69656D01*
X66548Y69580D01*
Y69465D01*
X66510Y69389D01*
X66434Y69313D01*
X66015Y69942D02*
X66548D01*
X66243D02*
X66129Y69980D01*
X66053Y70056D01*
X66015Y70132D01*
Y70246D01*
X66243Y70319D02*
Y70776D01*
X66167D01*
X66091Y70738D01*
X66053Y70699D01*
X66015Y70623D01*
Y70509D01*
X66053Y70433D01*
X66129Y70357D01*
X66243Y70319D01*
X66319D01*
X66434Y70357D01*
X66510Y70433D01*
X66548Y70509D01*
Y70623D01*
X66510Y70699D01*
X66434Y70776D01*
X66129Y71366D02*
X66053Y71328D01*
X66015Y71214D01*
Y71099D01*
X66053Y70985D01*
X66129Y70947D01*
X66205Y70985D01*
X66243Y71061D01*
X66281Y71252D01*
X66319Y71328D01*
X66396Y71366D01*
X66434D01*
X66510Y71328D01*
X66548Y71214D01*
Y71099D01*
X66510Y70985D01*
X66434Y70947D01*
X66129Y71953D02*
X66053Y71914D01*
X66015Y71800D01*
Y71686D01*
X66053Y71572D01*
X66129Y71534D01*
X66205Y71572D01*
X66243Y71648D01*
X66281Y71838D01*
X66319Y71914D01*
X66396Y71953D01*
X66434D01*
X66510Y71914D01*
X66548Y71800D01*
Y71686D01*
X66510Y71572D01*
X66434Y71534D01*
X66015Y72311D02*
X66053Y72234D01*
X66129Y72158D01*
X66243Y72120D01*
X66319D01*
X66434Y72158D01*
X66510Y72234D01*
X66548Y72311D01*
Y72425D01*
X66510Y72501D01*
X66434Y72577D01*
X66319Y72615D01*
X66243D01*
X66129Y72577D01*
X66053Y72501D01*
X66015Y72425D01*
Y72311D01*
X91320Y10890D02*
X91053D01*
X91187D01*
Y10090D01*
X91320Y10224D01*
X90787Y7890D02*
X91320D01*
X90787Y7357D01*
Y7224D01*
X90920Y7090D01*
X91187D01*
X91320Y7224D01*
X76420Y10757D02*
X76287Y10890D01*
X76020D01*
X75887Y10757D01*
Y10224D01*
X76020Y10090D01*
X76287D01*
X76420Y10224D01*
Y10357D01*
X76287Y10490D01*
X75887D01*
X77220Y7890D02*
X76953D01*
X77087D01*
Y7090D01*
X77220Y7224D01*
X76554D02*
X76420Y7090D01*
X76154D01*
X76020Y7224D01*
Y7757D01*
X76154Y7890D01*
X76420D01*
X76554Y7757D01*
Y7224D01*
X129920Y21000D02*
Y20733D01*
Y20867D01*
X130720D01*
X130586Y21000D01*
X130720Y19800D02*
X130586Y20067D01*
X130320Y20334D01*
X130053D01*
X129920Y20200D01*
Y19934D01*
X130053Y19800D01*
X130187D01*
X130320Y19934D01*
Y20334D01*
X126920Y21000D02*
Y20733D01*
Y20867D01*
X127720D01*
X127586Y21000D01*
X127720Y19800D02*
Y20334D01*
X127320D01*
X127453Y20067D01*
Y19934D01*
X127320Y19800D01*
X127053D01*
X126920Y19934D01*
Y20200D01*
X127053Y20334D01*
X129920Y42967D02*
Y43500D01*
X130453Y42967D01*
X130586D01*
X130720Y43100D01*
Y43367D01*
X130586Y43500D01*
X126920Y43250D02*
Y42983D01*
Y43117D01*
X127720D01*
X127586Y43250D01*
D48*
X69215Y98552D02*
Y100584D01*
D49*
X27788Y43586D02*
Y44983D01*
X85973Y27950D02*
Y30728D01*
M02*
