M48
;Layer_Color=9474304
;FILE_FORMAT=4:3
METRIC,LZ
;TYPE=PLATED
T1F00S00C0.457
T2F00S00C0.600
T4F00S00C0.762
T5F00S00C0.800
T7F00S00C0.900
T8F00S00C1.300
T9F00S00C3.200
T10F00S00C3.400
%
T01
X053208Y030635
X052192
X051176
X049017Y031651
X047747
X0459055Y0314605
X0457785Y0317145
X044445Y031524
X044318Y031651
X044191Y031397
X0445085Y031016
X041778
X042286Y031651
X041397Y032032
Y032286
Y03254
Y032794
Y033048
Y033302
X0424765Y0332385
Y0334925
X042159Y034699
X042794
Y0351435
Y035588
X0433655
Y0351435
Y034699
X0436195Y0329845
X043429Y032667
Y0319685
X041397Y03508
Y035715
X043937Y035588
Y0351435
Y034699
Y0342545
X04381Y0331115
X043937Y032794
X044699Y031778
X0459055Y0318415
Y0320955
X0457785Y0322225
X0459055Y0323495
X0457705Y0324765
X0457785Y0319685
X047366Y032286
X0471755Y0337465
X0465405Y0336195
X045207Y033556
X046604Y035588
X0497155Y0356515
X0503505Y0348895
X0485725Y033429
Y033175
X0484455Y032667
X0483185Y032794
X0481915Y032667
X0480645Y032794
X052192Y034064
X053462Y033937
Y033683
Y033429
Y033175
Y032921
Y032667
Y032413
X054224Y0319685
X0544526Y0333274
X0541732Y0348006
X0531445Y0352705
Y035715
Y036604
X0533985Y037493
Y038509
X052827Y0383185
X052319
Y0388265
X052827
X0533985Y039525
X051303Y037747
X0497155Y0381915
X049398Y038255
X049271Y038128
Y037874
X048763
X0481915
X048509Y0383185
X049017
Y038763
X0495885
X048509Y0390805
X0480645Y039271
Y038763
X0481915Y037112
Y036604
X0485725
X0497155
Y035969
X047239
Y036223
Y037112
Y03762
Y0380645
Y038636
X04762Y03889
Y038382
Y037493
X0466675Y038255
X0451435Y038509
X04381Y0392075
X043937Y037366
Y0369215
Y036477
Y0360325
X0461595Y036858
X0433655Y0369215
Y036477
Y0360325
X042794
Y036477
Y0369215
Y037366
X0433655
Y0378105
X042413Y037747
X042286Y037874
Y038128
X042667
X04254Y038001
X042159Y03762
X041778
X040889Y037239
X042032Y038636
X042794
X04381Y04016
X0449911Y0400076
X04762Y040668
X048001Y0397155
X0494615Y0398425
T02
X0436195Y033683
X0433655Y033937
X043048Y0340005
X042794Y0337465
X04254Y0340005
X0438735Y033937
X0443815Y033556
Y033429
Y033302
X0474727Y0401219
X0475527Y0402419
X0477127
X0477927Y0401219
X0476327
T04
X0446355Y0402235
T05
X0473025Y032667
X0470485
X0467945
X0465405
X0462865
X0460325
Y032921
Y033175
Y033429
X0462865Y033175
Y032921
X0465405
Y033175
X0467945
Y032921
X0470485
Y033175
X0473025
Y032921
X0455245
Y032667
Y033175
Y033429
Y033683
Y033937
Y034191
Y034445
Y034699
Y034953
Y035207
Y035461
Y035715
X0478105
Y035461
Y035207
Y034953
Y034699
Y034445
Y034191
Y033937
Y033683
Y033429
Y033175
Y032921
Y032667
X0518765Y035969
X0521265
X0507295
X0504795
X0478105
Y036223
Y036477
Y036731
Y036985
Y037239
Y037493
Y037747
Y038001
Y038255
Y038509
Y038763
Y039017
Y039271
X04889
X049144
X049398
X049271Y039017
X049017
X049144Y0385344
X04889
X0497536
X0500076
X049906Y038763
X050033Y039017
X049779
X049906Y039271
X0475565Y039525
X0473025
X0470485
X0467945
X0465405
X0462865
X0460325
X0457785
X0455245Y039271
Y039017
Y038763
Y038509
Y038255
Y038001
Y037747
Y037493
Y037239
Y036985
Y036731
Y036477
Y036223
Y035969
T07
X050287Y031651
X050033
X049779
X04889Y031016
Y030762
X048636
Y031016
X048382
Y030762
X048128
Y031016
X047874
Y030762
X0467945Y030635
Y030889
Y031143
X046096Y031016
X045842
X045588
X045334
X04508
Y030762
X045334
X045588
X045842
X046096
X0440005Y030635
Y030889
Y031143
X043302Y031016
X043048
X042794
X04254
X042286
Y030762
X04254
X042794
X043048
X043302
X042032Y032032
Y032286
Y03254
Y032794
Y033048
X041778
Y032794
Y03254
Y032286
Y032032
X041016
Y032286
Y03254
Y032794
Y033048
X040762
Y032794
Y03254
Y032286
Y032032
Y033302
X041016
Y033556
X040762
Y03381
X041016
X041778
Y033556
Y033302
X042032
Y033556
Y03381
X041143Y0345085
X040889
X040635
X040762Y035588
X041016
X041778
X042032
X050152Y035461
Y035207
X0504695
X0507235
X051549
Y035461
X0514315Y034064
Y03381
Y033556
Y033302
Y033048
Y032794
Y03254
Y032286
X0516855
Y03254
Y032794
Y033048
Y033302
Y033556
Y03381
Y034064
X052765
Y03381
Y033556
Y033302
Y033048
X053019
Y033302
Y033556
Y03381
Y034064
Y032794
X052765
Y03254
X053019
Y032286
X052765
X0521205Y035207
X0518665
Y037747
X0521205
X0507235
X0504695
X051303Y038334
Y038684
X0507315Y0390805
Y0393345
Y039652
X041143Y0395885
X040889
X040635
X040762Y03889
Y038636
Y038382
Y038128
Y037874
X041016
Y038128
Y038382
Y038636
Y03889
Y036604
X040762
Y03635
X041016
Y036096
X040762
Y035842
X041016
X041778
Y036096
Y03635
Y036604
X042032
Y03635
Y036096
Y035842
X042159Y040033
X042413
X042667
X042921
Y040287
X042667
X042413
X042159
X041905
Y040033
X04635Y0402235
Y0404775
X0469215
Y0402235
X0483058Y0401854
Y0404394
X0507315Y039906
T08
X051843Y0406
Y0401
T09
X0545Y0305
X0405
Y0405
X0545
T10
X050033Y039906
X04889
M30
