M48
;Layer_Color=9474304
;FILE_FORMAT=4:4
METRIC,LZ
;TYPE=PLATED
T1F00S00C0.4572
T2F00S00C0.8000
T3F00S00C0.9000
T4F00S00C1.0000
T5F00S00C3.2000
%
T01
X0497Y0019
X0493Y0033
Y00405
Y0048
X04878
X04865
X0484Y0045
X0483Y0044
X0482Y0043
X0481Y0042
X048Y0041
X0481Y004
X0482Y0039
X0483Y0038
X0484Y0037
X0485Y0036
X04865Y0033
X04878
X0485Y003
X0484Y0029
X0483Y0028
X0482Y0027
X0481Y0026
X0479442Y0038178
X0484Y0051
X0483Y0052
X0482Y0053
X0481Y0054
X0461Y0048
X04558
X04545
X0452Y0045
Y0051
X0452Y0037
X0453Y0036
X04545Y0033
X04558
X0461
Y00405
X0453Y003
X0452Y0029
X0465Y0019
X0471
X0451Y0028
X045Y0027
X0449Y0026
X0447442Y0038178
X045Y0039
X0449Y004
Y0042
X0448Y0041
X045Y0043
X0451Y0044
Y0038
Y0052
X045Y0053
X0449Y0054
X04275Y00499
X04225Y0048
X04215Y00455
X04265Y00435
Y00369
X04225Y0035
X04215Y00325
X04275Y00305
X04265Y0027
X0439Y0019
X03945Y0027
X03955Y00305
X03945Y00369
X03905Y0035
X03895Y00325
Y00455
X03905Y0048
X03955Y00499
X03945Y00435
X03955Y00566
X03945Y00629
X03905Y0061
X03895Y00585
X03929Y007
X04249
X04265Y00629
X04225Y0061
X04215Y00585
X04275Y00566
X0448Y0055
X0449Y0056
X045Y0057
X0451Y0058
Y0068
X045Y0069
X0449Y007
X045Y0071
X0439Y0077
X0452Y0067
X0453Y0066
X04545Y0063
X04558
X0461
Y00555
X0452Y0059
X0453Y006
X0465Y0077
X0471
X0481Y007
X0482Y0069
Y0071
X0483Y0068
X0484Y0067
X0485Y0066
X04865Y0063
X04878
X0485Y006
X0484Y0059
X0483Y0058
X0482Y0057
X0481Y0056
X048Y0055
X0493Y00555
Y0063
X0497Y0077
Y0095
X0493Y0109
Y01165
Y0124
Y01315
X0481Y0132
Y013
X0482Y0129
X0483Y0128
X0484Y0127
X04865Y0124
X04878
X0484Y0121
X0483Y012
X0482Y0119
X0481Y0118
X048Y0117
X0481Y0116
X0482Y0115
X0483Y0114
X0484Y0113
X0485Y0112
X04865Y0109
X04878
X0485Y0106
X0484Y0105
X0483Y0104
X0482Y0103
X0481Y0102
X0479442Y0114178
X048Y0131
X0482Y0133
X0461Y01315
Y0124
X04558
X04545
X0452Y0121
Y0127
X0452Y0113
X0453Y0112
X04545Y0109
X04558
X0461
Y01165
X0453Y0106
X0452Y0105
X0465Y0095
X0471
X0451Y0104
X045Y0103
X0449Y0102
X0447442Y0114178
X045Y0115
X0449Y0116
Y0118
X0448Y0117
X045Y0119
X0451Y012
Y0114
Y0128
X045Y0129
X0449Y013
Y0132
X0448Y0131
X045Y0133
X04275Y01326
Y01259
X04225Y0124
X04215Y01215
X04265Y01195
Y01129
X04225Y0111
X04215Y01085
X04275Y01065
X04265Y0103
X0439Y0095
X03945Y0103
X03955Y01065
X03945Y01129
X03905Y0111
X03895Y01085
Y01215
X03905Y0124
X03955Y01259
Y01326
X03945Y01195
X0323Y01085
X0254Y01205
X02255Y01225
X0146Y01085
X0077Y01205
X00485Y01225
X03895Y01345
X03905Y0137
X03945Y01389
X03929Y0146
X04249
X04265Y01389
X04225Y0137
X04215Y01345
X0451Y0134
Y0144
X045Y0145
X0449Y0146
X045Y0147
X0439Y0153
Y0171
X0465
X0471
Y0153
X0465
X0461Y0139
X04558
X04545
X0453Y0136
X0452Y0135
X0453Y0142
X0452Y0143
X0484
X0483Y0144
X0482Y0145
X0481Y0146
X0482Y0147
X0485Y0142
X04865Y0139
X04878
X0485Y0136
X0484Y0135
X0483Y0134
X0493Y0139
X0497Y0153
Y0171
X0493Y0185
Y01925
Y02
Y02075
X0481Y0208
Y0206
X0482Y0205
X0483Y0204
X0484Y0203
X04865Y02
X04878
X0484Y0197
X0483Y0196
X0482Y0195
X0481Y0194
X048Y0193
X0481Y0192
X0482Y0191
X0483Y019
X0484Y0189
X0485Y0188
X04865Y0185
X04878
X0485Y0182
X0484Y0181
X0483Y018
X0482Y0179
X0481Y0178
X0479442Y0190178
X048Y0207
X0482Y0209
X0483Y021
X0484Y0211
X0485Y0212
X0461Y02075
Y02
X04558
X04545
X0452Y0197
Y0203
X0452Y0211
X0453Y0212
X0452Y0189
X0453Y0188
X04545Y0185
X04558
X0461
Y01925
X0453Y0182
X0452Y0181
X0451Y018
X045Y0179
X0449Y0178
X0447442Y0190178
X045Y0191
X0449Y0192
Y0194
X0448Y0193
X045Y0195
X0451Y0196
Y019
Y0204
X045Y0205
X0449Y0206
Y0208
X0448Y0207
X045Y0209
X0451Y021
X04275Y02086
Y02019
X04225Y02
X04215Y01975
X04265Y01955
Y01889
X04225Y0187
X04215Y01845
X04275Y01825
X04265Y0179
X04215Y02105
X04225Y0213
X03955Y02086
Y02019
X03905Y02
X03895Y01975
X03945Y01955
Y01889
X03905Y0187
X03895Y01845
X03955Y01825
X03945Y0179
X03895Y02105
X03905Y0213
X00485Y02495
X0077Y02475
X0146Y02355
X02255Y02495
X0254Y02475
X0323Y02355
X03929Y0222
X03945Y02149
X04265
X04249Y0222
X0439Y0229
X0449Y0222
X045Y0221
Y0223
X0451Y022
X0452Y0219
X0453Y0218
X04545Y0215
X04558
X0461
X0465Y0229
X0471
X0481Y0222
X0482Y0221
Y0223
X0483Y022
X0484Y0219
X0485Y0218
X04865Y0215
X04878
X0493
X0497Y0229
T02
X033534Y002473
Y002727
Y004773
Y005027
X030734Y005027
Y004773
X030734Y002727
Y002473
X027934Y002473
Y002727
Y004773
Y005027
X025134
Y004773
X025134Y002727
Y002473
X022334
Y002727
X022334Y004773
Y005027
X019534Y005027
Y004773
Y002727
Y002473
X015834
Y002727
Y004773
Y005027
X013034Y005027
Y004773
X013034Y002727
Y002473
X010234Y002473
Y002727
Y004773
Y005027
X007434
Y004773
X007434Y002727
Y002473
X004634
Y002727
X004634Y004773
Y005027
X001834Y005027
Y004773
Y002727
Y002473
Y008173
Y008427
X004634Y008427
Y008173
X007434
Y008427
X010234
Y008173
X013034
Y008427
X015834Y008427
Y008173
X019534
Y008427
X022334Y008427
Y008173
X025134
Y008427
X027934
Y008173
X030734
Y008427
X033534Y008427
Y008173
Y010473
Y010727
X030734Y010727
Y010473
X027934
Y010727
X025134Y010727
Y010473
X022334
Y010727
X019534Y010727
Y010473
X015834Y010473
Y010727
X013034Y010727
Y010473
X010234
Y010727
X007434Y010727
Y010473
X004634
Y010727
X001834Y010727
Y010473
X001834Y015173
Y015427
X004634
Y015173
X007434
Y015427
X010234Y015427
Y015173
X013034Y015173
Y015427
X015834
Y015173
X019534
Y015427
X022334
Y015173
X025134
Y015427
X027934Y015427
Y015173
X030734Y015173
Y015427
X033534
Y015173
Y017473
Y017727
Y020873
Y021127
X030734Y021127
Y020873
Y017727
Y017473
X027934
Y017727
Y020873
Y021127
X025134
Y020873
X022334
Y021127
Y017727
Y017473
X025134
Y017727
X019534Y017727
Y017473
Y020873
Y021127
X015834
Y020873
Y017727
Y017473
X013034Y017473
Y017727
X010234
Y017473
Y020873
Y021127
X013034
Y020873
X007434
Y021127
Y017727
Y017473
X004634
Y017727
X001834Y017727
Y017473
Y020873
Y021127
X004634Y021127
Y020873
X004634Y023173
Y023427
X001834Y023427
Y023173
X007434Y023173
Y023427
X010234Y023427
Y023173
X013034
Y023427
X015834Y023427
Y023173
X019534Y023173
Y023427
X022334Y023427
Y023173
X025134
Y023427
X027934Y023427
Y023173
X030734
Y023427
X033534Y023427
Y023173
T03
X033292Y01225
Y012504
X033546
Y01225
X0338
Y012504
X034054
Y01225
X034308
Y012504
X032258
X032004
X03175
X031496
X031242
Y01225
X031496
X03175
X032004
X032258
X030208
X029954
X0297
X029446
Y012504
X0297
X029954
X030208
X029192
Y01225
X025908
X025654
X0254
Y012504
X025654
X025908
X025146
X024892
Y01225
X025146
X023858
X023604
X02335
X023096
X022842
Y012504
X023096
X02335
X023604
X023858
X021808
X021554
Y01225
X021808
X0213
X021046
X020792
Y012504
X021046
X0213
X016608
X016354
X0161
X015846
X015592
Y01225
X015846
X0161
X016354
X016608
X014558
X014304
X01405
X013796
X013542
Y012504
X013796
X01405
X014304
X014558
X012508
X012254
X012
X011746
X011492
Y01225
X011746
X012
X012254
X012508
X008208
X007954
X0077
X007446
X007192
Y012504
X007446
X0077
X007954
X008208
X006158
X005904
X00565
Y01225
X005904
X006158
X005396
X005142
Y012504
X005396
X004108
X003854
X0036
X003346
X003092
Y01225
X003346
X0036
X003854
X004108
Y02495
X003854
X0036
X003346
X003092
Y025204
X003346
X0036
X003854
X004108
X005142
Y02495
X005396
Y025204
X00565
Y02495
X005904
Y025204
X006158
Y02495
X007192
Y025204
X007446
Y02495
X0077
Y025204
X007954
Y02495
X008208
Y025204
X011492
Y02495
X011746
Y025204
X012
Y02495
X012254
Y025204
X012508
Y02495
X013542
Y025204
X013796
Y02495
X01405
Y025204
X014304
Y02495
X014558
Y025204
X015592
Y02495
X015846
Y025204
X0161
Y02495
X016354
Y025204
X016608
Y02495
X020792
Y025204
X021046
Y02495
X0213
Y025204
X021554
Y02495
X021808
Y025204
X022842
Y02495
X023096
Y025204
X02335
Y02495
X023604
Y025204
X023858
Y02495
X024892
Y025204
X025146
Y02495
X0254
Y025204
X025654
Y02495
X025908
Y025204
X029192
Y02495
X029446
Y025204
X0297
Y02495
X029954
Y025204
X030208
Y02495
X031242
Y025204
X031496
Y02495
X03175
Y025204
X032004
Y02495
X032258
Y025204
X033292
Y02495
X033546
Y025204
X0338
Y02495
X034054
Y025204
X034308
Y02495
X0452605Y027895
Y028149
X0455145
Y027895
X0457685
Y028149
X0460225
Y027895
X0462765
Y028149
X0465305
Y027895
X0467845
Y028149
X0470385
Y027895
X0466575Y0289745
X0464035
X0461495
X0458955
X0456415
Y0292285
X0458955
X0461495
X0464035
X0466575
X0399465Y028298
X0396925
X0394385
X0391845
X0389305
Y028044
X0391845
X0394385
X0396925
X0399465
Y025798
X0396925
X0394385
X0391845
X0389305
Y025544
X0391845
X0394385
X0396925
X0399465
X0362465Y028044
X0359925
X0357385
X0354845
X0352305
Y028298
X0354845
X0357385
X0359925
X0362465
X0325465
X0322925
X0320385
X0317845
X0315305
Y028044
X0317845
X0320385
X0322925
X0325465
X0288465
X0285925
X0283385
X0280845
X0278305
Y028298
X0280845
X0283385
X0285925
X0288465
X023521Y028402
Y028656
Y02891
X023267
Y028656
Y028402
Y028148
X023521
Y027894
X023267
X022251Y027767
Y027513
Y027259
Y028021
Y028275
Y028529
Y028783
Y029037
X021154
Y028783
Y028529
Y028275
Y028021
Y027767
Y027513
Y027259
X020138Y027894
Y028148
Y028402
Y028656
Y02891
X019884
Y028656
Y028402
Y028148
Y027894
X018521
Y028148
Y028402
Y028656
Y02891
X018267
Y028656
Y028402
Y028148
Y027894
X017251Y027767
Y027513
Y027259
Y028021
Y028275
Y028529
Y028783
Y029037
X016154
Y028783
Y028529
Y028275
Y028021
Y027767
Y027513
Y027259
X015138Y027894
Y028148
Y028402
Y028656
Y02891
X014884
Y028656
Y028402
Y028148
Y027894
X013093Y028142
X012839
Y028396
X013093
Y02865
X012839
Y028904
X013093
Y029158
X012839
X011569
X011315
Y028904
X011569
Y02865
X011315
Y028396
X011569
Y028142
X011315
X009893
X009639
Y028396
X009893
Y02865
X009639
Y028904
X009893
Y029158
X009639
X008369
X008115
Y028904
X008369
Y02865
X008115
Y028396
X008369
Y028142
X008115
X006693
X006439
Y028396
X006693
Y02865
X006439
Y028904
X006693
Y029158
X006439
X005169
X004915
Y028904
X005169
Y02865
X004915
Y028396
X005169
Y028142
X004915
X003493
X003239
Y028396
X003493
Y02865
X003239
Y028904
X003493
Y029158
X003239
X001969
X001715
Y028904
X001969
Y02865
X001715
Y028396
X001969
Y028142
X001715
X016154Y029291
Y029545
X017251
Y029291
X021154
Y029545
X022251
Y029291
T04
X0493805Y0020555
Y0023095
X0491265
Y0020555
X0488725
Y0023095
X0486185
Y0020555
X0483645
Y0023095
X047497Y002232
X047243
Y002486
Y00274
Y002994
Y003248
X047497
X047497Y002994
Y00274
Y002486
X0461805Y0023095
X0459265
X0456725
X0454185
Y0020555
X0451645
Y0023095
X0456725Y0020555
X0459265
X0461805
X047243Y004292
Y004546
Y0048
Y005054
Y005308
X047497
X047497Y005054
Y0048
Y004546
Y004292
X044297
X044043
Y004546
Y0048
Y005054
Y005308
X044297
X044297Y005054
Y0048
Y004546
X044297Y003248
X044043
Y002994
Y00274
X044297
Y002994
Y002486
X044043
Y002232
X044297
X0425805Y002312
X0423265
X0420725
X0418185
Y002058
X0415645
Y002312
X0420725Y002058
X0423265
X0425805
X040697Y002232
X040443
Y002486
Y00274
Y002994
Y003248
X040697
X040697Y002994
Y00274
Y002486
X0393805Y002312
X0391265
X0388725
X0386185
Y002058
X0383645
Y002312
X0388725Y002058
X0391265
X0393805
X037497Y002232
X037243
Y002486
Y00274
Y002994
Y003248
X037497
X037497Y002994
Y00274
Y002486
Y004292
X037243
Y004546
Y0048
Y005054
Y005308
X037497
X037497Y005054
Y0048
Y004546
X040443
Y0048
Y005054
Y005308
X040697
X040697Y005054
Y0048
Y004546
Y004292
X040443
X03455Y0049
Y005408
X035058
X034042Y004392
X03455Y003108
Y0026
X034042Y002092
X035058Y003108
X032258
X03175
Y0026
X031242Y002092
X031242Y004392
X03175Y0049
Y005408
X032258
X029458
Y003108
X02895
Y0026
X028442Y002092
Y004392
X02895Y0049
Y005408
X026658
X02615
Y0049
X025642Y004392
X02615Y003108
Y0026
X025642Y002092
X026658Y003108
X023858
X02335
Y0026
X022842Y002092
X022842Y004392
X02335Y0049
Y005408
X023858
X021058Y005408
X02055
Y0049
X020042Y004392
X02055Y003108
Y0026
X020042Y002092
X021058Y003108
X017358
Y005408
X01685
Y0049
X016342Y004392
X01685Y003108
Y0026
X016342Y002092
X01405Y0026
Y003108
X014558
X013542Y002092
X013542Y004392
X01405Y0049
Y005408
X014558
X011758
X01125
Y0049
X010742Y004392
X01125Y003108
Y0026
X010742Y002092
X011758Y003108
X008958Y003108
X00845
Y0026
X007942Y002092
X007942Y004392
X00845Y0049
Y005408
X008958
X006158
X00565
Y0049
X00565Y003108
Y0026
X006158Y003108
X005142Y002092
X005142Y004392
X00285Y0049
Y005408
X003358
X002342Y004392
X00285Y003108
Y0026
X002342Y002092
X003358Y003108
X00285Y0083
Y008808
X003358
X002342Y007792
X005142Y007792
X00565Y0083
Y008808
X006158
X00845
Y0083
X007942Y007792
X008958Y008808
X01125
Y0083
X010742Y007792
X011758Y008808
X01405
Y0083
X013542Y007792
X014558Y008808
X01685Y008808
Y0083
X016342Y007792
X017358Y008808
X02055
Y0083
X020042Y007792
X021058Y008808
X02335Y008808
Y0083
X022842Y007792
X023858Y008808
X02615
Y0083
X025642Y007792
X026658Y008808
X02895
Y0083
X028442Y007792
X029458Y008808
X03175
Y0083
X031242Y007792
X032258Y008808
X03455Y008808
Y0083
X034042Y007792
X035058Y008808
X037243Y007368
X037497
X037497Y007114
X037243
Y00686
X037497
Y006606
X037243
Y006352
X037497
X0383645Y007286
Y00754
X0386185Y00754
X0388725
X0391265
X0393805
Y007286
X0391265
X0388725
X0386185
X040443Y007368
X040697
X040697Y007114
X040443
Y00686
X040697
Y006606
X040443
Y006352
X040697
X0415645Y007286
Y00754
X0418185Y00754
X0420725
X0423265
X0425805
Y007286
X0423265
X0420725
X0418185
X044043Y007368
X044297
X044297Y007114
X044043
Y00686
X044297
Y006606
X044043
Y006352
X044297
X0451645Y007288
Y007542
X0454185Y007542
X0456725
X0459265
X0461805
Y007288
X0459265
X0456725
X0454185
X047243Y007368
X047497
X047497Y007114
X047243
Y00686
X047497
Y006606
X047243
Y006352
X047497
X0483645Y007288
Y007542
X0486185Y007542
X0488725
Y007288
X0486185
X0491265
Y007542
X0493805
Y007288
X0493805Y0096555
Y0099095
X0491265
Y0096555
X0488725
Y0099095
X0486185
Y0096555
X0483645
Y0099095
X047497Y009832
X047243
Y010086
Y01034
Y010594
Y010848
X047497
X047497Y010594
Y01034
Y010086
X0461805Y0099095
X0459265
X0456725
X0454185
Y0096555
X0451645
Y0099095
X0456725Y0096555
X0459265
X0461805
X047243Y011892
Y012146
Y0124
Y012654
Y012908
X047497
X047497Y012654
Y0124
Y012146
Y011892
X044297
X044043
Y012146
Y0124
Y012654
Y012908
X044297
X044297Y012654
Y0124
Y012146
X044297Y010848
X044043
Y010594
Y01034
X044297
Y010594
Y010086
X044043
Y009832
X044297
X0425805Y009912
X0423265
X0420725
X0418185
Y009658
X0415645
Y009912
X0420725Y009658
X0423265
X0425805
X040697Y009832
X040443
Y010086
Y01034
Y010594
Y010848
X040697
X040697Y010594
Y01034
Y010086
X0393805Y009912
X0391265
X0388725
X0386185
Y009658
X0383645
Y009912
X0388725Y009658
X0391265
X0393805
X037497Y009832
X037243
Y010086
Y01034
Y010594
Y010848
X037497
X037497Y010594
Y01034
Y010086
Y011892
X037243
Y012146
Y0124
Y012654
Y012908
X037497
X037497Y012654
Y0124
Y012146
X040443
Y0124
Y012654
Y012908
X040697
X040697Y012654
Y0124
Y012146
Y011892
X040443
X035058Y011108
X03455
Y0106
X034042Y010092
X03175Y0106
Y011108
X032258
X031242Y010092
X029458Y011108
X02895
Y0106
X028442Y010092
X02615Y0106
Y011108
X026658
X025642Y010092
X02335Y0106
Y011108
X023858
X022842Y010092
X02055Y0106
Y011108
X021058
X020042Y010092
X017358Y011108
X01685
Y0106
X016342Y010092
X01405Y0106
Y011108
X014558
X013542Y010092
X01125Y0106
Y011108
X011758
X010742Y010092
X00845Y0106
Y011108
X008958
X007942Y010092
X00565Y0106
Y011108
X006158
X005142Y010092
X00285Y0106
Y011108
X003358
X002342Y010092
X002342Y014792
X00285Y0153
Y015808
X003358
X002342Y017092
X005142Y017092
X005142Y014792
X00565Y0153
Y015808
X006158
X00845
Y0153
X007942Y014792
X008958Y015808
X007942Y017092
X010742
X01125Y015808
Y0153
X010742Y014792
X011758Y015808
X01405Y015808
Y0153
X013542Y014792
X014558Y015808
X01685
Y0153
X016342Y014792
Y017092
X013542Y017092
X017358Y015808
X02055
Y0153
X020042Y014792
X021058Y015808
X020042Y017092
X022842Y017092
X02335Y015808
Y0153
X022842Y014792
X023858Y015808
X02615
Y0153
X025642Y014792
X026658Y015808
X02895Y015808
Y0153
X028442Y014792
Y017092
X025642
X029458Y015808
X03175Y015808
Y0153
X031242Y014792
X032258Y015808
X031242Y017092
X034042Y017092
X03455Y015808
Y0153
X034042Y014792
X035058Y015808
X037243Y014968
X037497
X037497Y014714
X037243
Y01446
X037497
Y014206
X037243
Y013952
X037497
X0383645Y014886
Y01514
X0386185Y01514
X0388725
X0391265
X0393805
Y014886
X0391265
X0388725
X0386185
X040443Y014968
X040697
X040697Y014714
X040443
Y01446
X040697
Y014206
X040443
Y013952
X040697
X0393805Y017258
X0391265
X0388725
X0386185
X0383645
X0415645
X0418185
X0420725
X0423265
X0425805
Y01514
X0423265
X0420725
X0418185
Y014886
X0415645
Y01514
X0420725Y014886
X0423265
X0425805
X044043Y014968
X044297
X044297Y014714
X044043
Y01446
X044297
Y014206
X044043
Y013952
X044297
X0451645Y014888
Y015142
X0454185Y015142
X0456725
X0459265
X0461805
Y014888
X0459265
X0456725
X0454185
X047243Y014968
X047497
X047497Y014714
X047243
Y01446
X047497
Y014206
X047243
Y013952
X047497
X0483645Y014888
Y015142
X0486185Y015142
X0488725
Y014888
X0486185
X0486185Y0172555
X0483645
X0488725
X0461805
X0459265
X0456725
X0454185
X0451645
X0491265
X0493805
X0493805Y015142
X0491265
Y014888
X0493805
X0493805Y0175095
X0491265
X0488725
X0486185
X0483645Y0175095
X047497Y017432
X047243
Y017686
Y01794
Y018194
Y018448
X047497
X047497Y018194
Y01794
Y017686
X0461805Y0175095
X0459265
X0456725
X0454185
X0451645Y0175095
X047243Y019492
Y019746
Y02
Y020254
Y020508
X047497
X047497Y020254
Y02
Y019746
Y019492
X044297
X044043
Y019746
Y02
Y020254
Y020508
X044297
X044297Y020254
Y02
Y019746
X044297Y018448
X044043
Y018194
Y01794
X044297
Y018194
Y017686
X044043
Y017432
X044297
X0425805Y017512
X0423265
X0420725
X0418185
X0415645Y017512
X040697Y017432
X040443
Y017686
Y01794
Y018194
Y018448
X040697
X040697Y018194
Y01794
Y017686
X0393805Y017512
X0391265
X0388725
X0386185
X0383645Y017512
X037497Y017432
X037243
Y017686
Y01794
Y018194
Y018448
X037497
X037497Y018194
Y01794
Y017686
Y019492
X037243
Y019746
Y02
Y020254
Y020508
X037497
X037497Y020254
Y02
Y019746
X040443
Y02
Y020254
Y020508
X040697
X040697Y020254
Y02
Y019746
Y019492
X040443
X035058Y018108
X03455
Y0176
Y021
X034042Y020492
X03175Y021
X031242Y020492
X03175Y018108
Y0176
X032258Y018108
X029458
X02895
Y0176
X02615
Y018108
X026658
X02615Y021
X025642Y020492
X028442
X02895Y021
X02335
X022842Y020492
X02335Y018108
Y0176
X023858Y018108
X021058Y018108
X02055
Y0176
Y021
X020042Y020492
X017358Y018108
X01685
Y0176
X01405Y0176
Y018108
X014558
X01405Y021
X013542Y020492
X016342Y020492
X01685Y021
X01125Y021
X010742Y020492
X01125Y018108
Y0176
X011758Y018108
X008958
X00845
Y0176
X00565
Y018108
X006158
X00565Y021
X00845
X007942Y020492
X005142
X00285Y021
X002342Y020492
X00285Y018108
Y0176
X003358Y018108
Y021508
X00285
X002342Y022792
X00285Y0233
Y023808
X003358
X005142Y022792
X00565Y0233
Y023808
X006158
X00845
Y0233
X007942Y022792
X00845Y021508
X008958
X008958Y023808
X006158Y021508
X00565
X01125
X011758
X01125Y0233
Y023808
X011758
X010742Y022792
X013542
X01405Y0233
Y023808
X014558
X01685Y023808
Y0233
X016342Y022792
X01685Y021508
X014558Y021508
X01405
X017358Y021508
Y023808
X02055Y023808
Y0233
X020042Y022792
X02055Y021508
X021058
X021058Y023808
X02335Y023808
Y0233
X022842Y022792
X02335Y021508
X023858
X023858Y023808
X02615
Y0233
X025642Y022792
X02615Y021508
X026658
X02895
Y0233
Y023808
X028442Y022792
X026658Y023808
X029458Y023808
X03175
Y0233
X031242Y022792
X03175Y021508
X032258
Y023808
X029458Y021508
X03455Y021508
X035058
X03455Y0233
Y023808
X035058
X034042Y022792
X037243Y022568
X037497
X037497Y022314
X037243
Y02206
X037497
Y021806
X037243
Y021552
X037497
X0383645Y022486
Y02274
X0386185Y02274
X0388725
X0391265
X0393805
Y022486
X0391265
X0388725
X0386185
X040443Y022568
X040697
X040697Y022314
X040443
Y02206
X040697
Y021806
X040443
Y021552
X040697
X0415645Y022486
Y02274
X0418185Y02274
X0420725
X0423265
X0425805
Y022486
X0423265
X0420725
X0418185
X044043Y022568
X044297
X044297Y022314
X044043
Y02206
X044297
Y021806
X044043
Y021552
X044297
X0451645Y022488
Y022742
X0454185Y022742
X0456725
X0459265
X0461805
Y022488
X0459265
X0456725
X0454185
X047243Y022568
X047497
X047497Y022314
X047243
Y02206
X047497
Y021806
X047243
Y021552
X047497
X0483645Y022488
Y022742
X0486185Y022742
X0488725
Y022488
X0486185
X0491265
Y022742
X0493805
Y022488
T05
X0005Y0005
X0374Y0014
X0394
X0406
X0426
X0442
X0462
X0474
X0494
X0505Y0005
X0358Y0016
X03035
X02475
X0193
X0181
X01265
X00705
X0016
Y0066
X00705
X01265
X0181
X0193
X02475
X03035
X0358
X0374Y0082
Y009
X0394
Y0082
X0406
Y009
X0426
Y0082
X0442
Y009
X0462
Y0082
X0474
Y009
X0494
Y0082
X0358Y0116
X03035
X02475
X0193
X0181
X01265
X00705
X0016
Y0143
X00705
X01265
X0181
X0193
X02475
X03035
X0358
X0374Y0158
Y0166
X0394
Y0158
X0406
Y0166
X0426
Y0158
X0442
Y0166
X0462
Y0158
X0474
Y0166
X0494
Y0158
X0358Y0193
X03035
X02475
X0193
X0181
X01265
X00705
X0016
Y0243
X00705
X01265
X0181
X0193
X02475
X03035
X0358
X0374Y0234
X0394
X0406
X0426
X0442
X0462
X0474
X0494
X0408Y0255516
Y0280516
X0381
Y0255516
X0371Y0280516
X0344
X0334
X0307
X0297
X027
X0217Y0274
X0167
X012204Y027761
X009004
X005804
X002604
X0005Y0305
X002604Y029539
X005804
X009004
X012204
X0167Y0294
X0217
X0429Y0294
X0494
X0505Y0305
M30
