%FSLAX44Y44*%
%MOMM*%
G71*
G01*
G75*
%ADD10C,0.1000*%
%ADD11C,2.0000*%
%ADD12C,1.5000*%
%ADD13R,1.5000X1.4000*%
%ADD14C,0.3048*%
%ADD15C,0.6350*%
%ADD16C,0.4064*%
%ADD17O,0.6000X1.9000*%
G04:AMPARAMS|DCode=18|XSize=0.64mm|YSize=0.8mm|CornerRadius=0.064mm|HoleSize=0mm|Usage=FLASHONLY|Rotation=180.000|XOffset=0mm|YOffset=0mm|HoleType=Round|Shape=RoundedRectangle|*
%AMROUNDEDRECTD18*
21,1,0.6400,0.6720,0,0,180.0*
21,1,0.5120,0.8000,0,0,180.0*
1,1,0.1280,-0.2560,0.3360*
1,1,0.1280,0.2560,0.3360*
1,1,0.1280,0.2560,-0.3360*
1,1,0.1280,-0.2560,-0.3360*
%
%ADD18ROUNDEDRECTD18*%
G04:AMPARAMS|DCode=19|XSize=0.44mm|YSize=0.8mm|CornerRadius=0.044mm|HoleSize=0mm|Usage=FLASHONLY|Rotation=180.000|XOffset=0mm|YOffset=0mm|HoleType=Round|Shape=RoundedRectangle|*
%AMROUNDEDRECTD19*
21,1,0.4400,0.7120,0,0,180.0*
21,1,0.3520,0.8000,0,0,180.0*
1,1,0.0880,-0.1760,0.3560*
1,1,0.0880,0.1760,0.3560*
1,1,0.0880,0.1760,-0.3560*
1,1,0.0880,-0.1760,-0.3560*
%
%ADD19ROUNDEDRECTD19*%
%ADD20R,1.4000X1.5000*%
%ADD21C,0.2540*%
%ADD22C,1.0160*%
%ADD23C,0.5080*%
%ADD24C,0.7620*%
G04:AMPARAMS|DCode=25|XSize=0.64mm|YSize=0.8mm|CornerRadius=0.064mm|HoleSize=0mm|Usage=FLASHONLY|Rotation=90.000|XOffset=0mm|YOffset=0mm|HoleType=Round|Shape=RoundedRectangle|*
%AMROUNDEDRECTD25*
21,1,0.6400,0.6720,0,0,90.0*
21,1,0.5120,0.8000,0,0,90.0*
1,1,0.1280,0.3360,0.2560*
1,1,0.1280,0.3360,-0.2560*
1,1,0.1280,-0.3360,-0.2560*
1,1,0.1280,-0.3360,0.2560*
%
%ADD25ROUNDEDRECTD25*%
G04:AMPARAMS|DCode=26|XSize=0.44mm|YSize=0.8mm|CornerRadius=0.044mm|HoleSize=0mm|Usage=FLASHONLY|Rotation=90.000|XOffset=0mm|YOffset=0mm|HoleType=Round|Shape=RoundedRectangle|*
%AMROUNDEDRECTD26*
21,1,0.4400,0.7120,0,0,90.0*
21,1,0.3520,0.8000,0,0,90.0*
1,1,0.0880,0.3560,0.1760*
1,1,0.0880,0.3560,-0.1760*
1,1,0.0880,-0.3560,-0.1760*
1,1,0.0880,-0.3560,0.1760*
%
%ADD26ROUNDEDRECTD26*%
%ADD27O,2.2000X0.6000*%
%ADD28C,1.2700*%
G04:AMPARAMS|DCode=29|XSize=2.1mm|YSize=1.4mm|CornerRadius=0.14mm|HoleSize=0mm|Usage=FLASHONLY|Rotation=90.000|XOffset=0mm|YOffset=0mm|HoleType=Round|Shape=RoundedRectangle|*
%AMROUNDEDRECTD29*
21,1,2.1000,1.1200,0,0,90.0*
21,1,1.8200,1.4000,0,0,90.0*
1,1,0.2800,0.5600,0.9100*
1,1,0.2800,0.5600,-0.9100*
1,1,0.2800,-0.5600,-0.9100*
1,1,0.2800,-0.5600,0.9100*
%
%ADD29ROUNDEDRECTD29*%
%ADD30C,3.3000*%
%ADD31R,1.5000X1.5000*%
%ADD32C,1.6500*%
%ADD33R,1.6500X1.6500*%
%ADD34R,1.6500X1.6500*%
%ADD35C,0.7620*%
%ADD36C,1.8000*%
%ADD37C,1.1000*%
%ADD38O,1.5500X1.5000*%
%ADD39R,1.5000X1.5000*%
%ADD40C,0.2000*%
%ADD41C,0.1500*%
%ADD42C,0.2500*%
%ADD43C,0.1200*%
%ADD44C,0.1400*%
%ADD45R,4.1000X1.9000*%
%ADD46R,1.9000X4.1000*%
%ADD47C,0.1800*%
%ADD48C,4.3000*%
%ADD49R,1.7032X1.6032*%
%ADD50O,0.8032X2.1032*%
G04:AMPARAMS|DCode=51|XSize=0.8432mm|YSize=1.0032mm|CornerRadius=0.1656mm|HoleSize=0mm|Usage=FLASHONLY|Rotation=180.000|XOffset=0mm|YOffset=0mm|HoleType=Round|Shape=RoundedRectangle|*
%AMROUNDEDRECTD51*
21,1,0.8432,0.6720,0,0,180.0*
21,1,0.5120,1.0032,0,0,180.0*
1,1,0.3312,-0.2560,0.3360*
1,1,0.3312,0.2560,0.3360*
1,1,0.3312,0.2560,-0.3360*
1,1,0.3312,-0.2560,-0.3360*
%
%ADD51ROUNDEDRECTD51*%
G04:AMPARAMS|DCode=52|XSize=0.6432mm|YSize=1.0032mm|CornerRadius=0.1456mm|HoleSize=0mm|Usage=FLASHONLY|Rotation=180.000|XOffset=0mm|YOffset=0mm|HoleType=Round|Shape=RoundedRectangle|*
%AMROUNDEDRECTD52*
21,1,0.6432,0.7120,0,0,180.0*
21,1,0.3520,1.0032,0,0,180.0*
1,1,0.2912,-0.1760,0.3560*
1,1,0.2912,0.1760,0.3560*
1,1,0.2912,0.1760,-0.3560*
1,1,0.2912,-0.1760,-0.3560*
%
%ADD52ROUNDEDRECTD52*%
%ADD53R,1.6032X1.7032*%
G04:AMPARAMS|DCode=54|XSize=0.8432mm|YSize=1.0032mm|CornerRadius=0.1656mm|HoleSize=0mm|Usage=FLASHONLY|Rotation=90.000|XOffset=0mm|YOffset=0mm|HoleType=Round|Shape=RoundedRectangle|*
%AMROUNDEDRECTD54*
21,1,0.8432,0.6720,0,0,90.0*
21,1,0.5120,1.0032,0,0,90.0*
1,1,0.3312,0.3360,0.2560*
1,1,0.3312,0.3360,-0.2560*
1,1,0.3312,-0.3360,-0.2560*
1,1,0.3312,-0.3360,0.2560*
%
%ADD54ROUNDEDRECTD54*%
G04:AMPARAMS|DCode=55|XSize=0.6432mm|YSize=1.0032mm|CornerRadius=0.1456mm|HoleSize=0mm|Usage=FLASHONLY|Rotation=90.000|XOffset=0mm|YOffset=0mm|HoleType=Round|Shape=RoundedRectangle|*
%AMROUNDEDRECTD55*
21,1,0.6432,0.7120,0,0,90.0*
21,1,0.3520,1.0032,0,0,90.0*
1,1,0.2912,0.3560,0.1760*
1,1,0.2912,0.3560,-0.1760*
1,1,0.2912,-0.3560,-0.1760*
1,1,0.2912,-0.3560,0.1760*
%
%ADD55ROUNDEDRECTD55*%
%ADD56O,2.4032X0.8032*%
G04:AMPARAMS|DCode=57|XSize=2.3032mm|YSize=1.6032mm|CornerRadius=0.2416mm|HoleSize=0mm|Usage=FLASHONLY|Rotation=90.000|XOffset=0mm|YOffset=0mm|HoleType=Round|Shape=RoundedRectangle|*
%AMROUNDEDRECTD57*
21,1,2.3032,1.1200,0,0,90.0*
21,1,1.8200,1.6032,0,0,90.0*
1,1,0.4832,0.5600,0.9100*
1,1,0.4832,0.5600,-0.9100*
1,1,0.4832,-0.5600,-0.9100*
1,1,0.4832,-0.5600,0.9100*
%
%ADD57ROUNDEDRECTD57*%
%ADD58C,3.5032*%
%ADD59C,1.7032*%
%ADD60R,1.7032X1.7032*%
%ADD61C,1.8532*%
%ADD62R,1.8532X1.8532*%
%ADD63R,1.8532X1.8532*%
%ADD64C,0.9652*%
%ADD65C,2.0032*%
%ADD66C,1.3032*%
%ADD67O,1.7532X1.7032*%
%ADD68R,1.7032X1.7032*%
%ADD69C,0.1270*%
%ADD70C,0.1693*%
D10*
X0Y0D02*
Y3100000D01*
X5100000D01*
Y0D02*
Y3100000D01*
X0Y0D02*
X5100000D01*
X110000Y210000D02*
Y310000D01*
X210000Y110000D02*
X310000D01*
X110000Y1160000D02*
Y1260000D01*
X210000Y1360000D02*
X310000D01*
X1660000D02*
X1760000D01*
X1860000Y1160000D02*
Y1260000D01*
Y210000D02*
Y310000D01*
X1660000Y110000D02*
X1760000D01*
X1660000Y1380000D02*
X1760000D01*
X1860000Y1480000D02*
Y1580000D01*
Y2430000D02*
Y2530000D01*
X1660000Y2630000D02*
X1760000D01*
X210000D02*
X310000D01*
X110000Y2430000D02*
Y2530000D01*
X210000Y1380000D02*
X310000D01*
X110000Y1480000D02*
Y1580000D01*
X3430000Y1380000D02*
X3530000D01*
X3630000Y1480000D02*
Y1580000D01*
Y2430000D02*
Y2530000D01*
X3430000Y2630000D02*
X3530000D01*
X1980000D02*
X2080000D01*
X1880000Y2430000D02*
Y2530000D01*
X1980000Y1380000D02*
X2080000D01*
X1880000Y1480000D02*
Y1580000D01*
X3430000Y110000D02*
X3530000D01*
X3630000Y210000D02*
Y310000D01*
Y1160000D02*
Y1260000D01*
X3430000Y1360000D02*
X3530000D01*
X1980000D02*
X2080000D01*
X1880000Y1160000D02*
Y1260000D01*
X1980000Y110000D02*
X2080000D01*
X1880000Y210000D02*
Y310000D01*
X230000Y2990000D02*
X290000D01*
X230000Y2740000D02*
X290000D01*
X550000D02*
X610000D01*
X550000Y2990000D02*
X610000D01*
X870000Y2740000D02*
X930000D01*
X870000Y2990000D02*
X930000D01*
X1190000Y2740000D02*
X1250000D01*
X1190000Y2990000D02*
X1250000D01*
X1640000D02*
X1700000D01*
X1640000Y2690000D02*
X1700000D01*
X2140000Y2990000D02*
X2200000D01*
X2140000Y2690000D02*
X2200000D01*
X3690000Y250000D02*
Y310000D01*
Y650000D02*
Y710000D01*
X3990000Y650000D02*
Y710000D01*
Y250000D02*
Y310000D01*
X4010000Y650000D02*
Y710000D01*
Y250000D02*
Y310000D01*
X4310000Y650000D02*
Y710000D01*
Y250000D02*
Y310000D01*
X4990000Y250000D02*
Y310000D01*
Y650000D02*
Y710000D01*
X4690000Y250000D02*
Y310000D01*
Y650000D02*
Y710000D01*
X4670000Y250000D02*
Y310000D01*
Y650000D02*
Y710000D01*
X4370000Y650000D02*
Y710000D01*
Y250000D02*
Y310000D01*
X4310000Y1010000D02*
Y1070000D01*
Y1410000D02*
Y1470000D01*
X4010000Y1010000D02*
Y1070000D01*
Y1410000D02*
Y1470000D01*
X3990000Y1010000D02*
Y1070000D01*
Y1410000D02*
Y1470000D01*
X3690000Y1410000D02*
Y1470000D01*
Y1010000D02*
Y1070000D01*
X4990000Y1010000D02*
Y1070000D01*
Y1410000D02*
Y1470000D01*
X4690000Y1010000D02*
Y1070000D01*
Y1410000D02*
Y1470000D01*
X4670000Y1010000D02*
Y1070000D01*
Y1410000D02*
Y1470000D01*
X4370000Y1410000D02*
Y1470000D01*
Y1010000D02*
Y1070000D01*
X4310000Y1770000D02*
Y1830000D01*
Y2170000D02*
Y2230000D01*
X4010000Y1770000D02*
Y1830000D01*
Y2170000D02*
Y2230000D01*
X3990000Y1770000D02*
Y1830000D01*
Y2170000D02*
Y2230000D01*
X3690000Y2170000D02*
Y2230000D01*
Y1770000D02*
Y1830000D01*
X4990000Y1770000D02*
Y1830000D01*
Y2170000D02*
Y2230000D01*
X4690000Y1770000D02*
Y1830000D01*
Y2170000D02*
Y2230000D01*
X4670000Y1770000D02*
Y1830000D01*
Y2170000D02*
Y2230000D01*
X4370000Y2170000D02*
Y2230000D01*
Y1770000D02*
Y1830000D01*
X4990000Y2740000D02*
Y2840000D01*
X4240000Y2740000D02*
Y2840000D01*
X2805000Y2760000D02*
X2865000D01*
X2805000Y2990000D02*
X2865000D01*
X3175000D02*
X3235000D01*
X3175000Y2760000D02*
X3235000D01*
X3545000Y2990000D02*
X3605000D01*
X3545000Y2760000D02*
X3605000D01*
X3915000Y2990000D02*
X3975000D01*
X3915000Y2760000D02*
X3975000D01*
X3915000Y2740000D02*
X3975000D01*
X3915000Y2510000D02*
X3975000D01*
D11*
X3530000Y1370000D02*
X3640000D01*
X100000Y100000D02*
X210000D01*
X100000D02*
Y210000D01*
Y1370000D02*
X210000D01*
X310000Y100000D02*
X1660000D01*
X1760000D02*
X1980000D01*
X2080000D02*
X3430000D01*
X3530000D02*
X3640000D01*
Y210000D01*
Y310000D02*
Y1160000D01*
Y1260000D02*
Y1480000D01*
Y1580000D02*
Y2430000D01*
X1870000Y1580000D02*
Y2430000D01*
Y1260000D02*
Y1480000D01*
Y310000D02*
Y1160000D01*
X100000Y1580000D02*
Y2430000D01*
Y1260000D02*
Y1480000D01*
Y310000D02*
Y1160000D01*
X2080000Y1370000D02*
X3430000D01*
X1760000D02*
X1980000D01*
X310000D02*
X1660000D01*
X1870000Y100000D02*
Y210000D01*
X5000000Y100000D02*
Y250000D01*
Y310000D02*
Y650000D01*
Y710000D02*
Y1010000D01*
Y1070000D02*
Y1410000D01*
Y1470000D02*
Y1770000D01*
Y1830000D02*
Y2170000D01*
Y2230000D02*
Y2380000D01*
X4680000Y2230000D02*
Y2380000D01*
Y1830000D02*
Y2170000D01*
Y1470000D02*
Y1770000D01*
Y1070000D02*
Y1410000D01*
Y710000D02*
Y1010000D01*
Y310000D02*
Y650000D01*
X4360000Y2230000D02*
Y2380000D01*
Y1830000D02*
Y2170000D01*
Y1470000D02*
Y1770000D01*
Y1070000D02*
Y1410000D01*
Y710000D02*
Y1010000D01*
Y310000D02*
Y650000D01*
Y100000D02*
Y250000D01*
X4320000Y2230000D02*
Y2380000D01*
Y1830000D02*
Y2170000D01*
Y1470000D02*
Y1770000D01*
Y1070000D02*
Y1410000D01*
Y710000D02*
Y1010000D01*
Y310000D02*
Y650000D01*
Y100000D02*
Y250000D01*
X4000000Y2230000D02*
Y2380000D01*
Y1830000D02*
Y2170000D01*
Y1470000D02*
Y1770000D01*
Y1070000D02*
Y1410000D01*
Y710000D02*
Y1010000D01*
Y310000D02*
Y650000D01*
X3680000Y2230000D02*
Y2380000D01*
Y1830000D02*
Y2170000D01*
Y1470000D02*
Y1770000D01*
Y1070000D02*
Y1410000D01*
Y710000D02*
Y1010000D01*
Y310000D02*
Y650000D01*
Y100000D02*
Y250000D01*
Y1620000D02*
X4320000D01*
X4360000D02*
X5000000D01*
X3680000Y860000D02*
X4320000D01*
X4360000D02*
X5000000D01*
X310000Y2640000D02*
X1660000D01*
X1760000D02*
X1980000D01*
X2080000D02*
X3430000D01*
X1870000Y2530000D02*
Y2640000D01*
X100000D02*
X210000D01*
X100000Y2530000D02*
Y2640000D01*
X3640000Y2530000D02*
Y2640000D01*
X3530000D02*
X3640000D01*
X100000Y2730000D02*
Y3000000D01*
X230000D01*
X100000Y2730000D02*
X230000D01*
X420000D02*
Y3000000D01*
X290000D02*
X550000D01*
X290000Y2730000D02*
X550000D01*
X610000D02*
X870000D01*
X610000Y3000000D02*
X870000D01*
X740000Y2730000D02*
Y3000000D01*
X930000Y2730000D02*
X1190000D01*
X930000Y3000000D02*
X1190000D01*
X1060000Y2730000D02*
Y3000000D01*
X1250000D02*
X1380000D01*
X1250000Y2730000D02*
X1380000D01*
Y3000000D01*
X1420000Y2680000D02*
Y3000000D01*
Y2680000D02*
X1640000D01*
X1700000D02*
X2140000D01*
X2200000D02*
X2420000D01*
Y3000000D01*
X2200000D02*
X2420000D01*
X1700000D02*
X2140000D01*
X1420000D02*
X1640000D01*
X1920000Y2680000D02*
Y3000000D01*
X2650000D02*
X2810000D01*
X2650000Y2750000D02*
Y3000000D01*
Y2750000D02*
X2810000D01*
X2860000D02*
X3180000D01*
X3230000D02*
X3550000D01*
X3600000D02*
X3920000D01*
X3970000D02*
X4130000D01*
X3970000Y3000000D02*
X4130000D01*
Y2500000D02*
Y3000000D01*
X3970000Y2500000D02*
X4130000D01*
X3760000D02*
X3920000D01*
X3760000D02*
Y3000000D01*
X3600000D02*
X3920000D01*
X3230000D02*
X3550000D01*
X2860000D02*
X3180000D01*
X3020000Y2750000D02*
Y3000000D01*
X3390000Y2750000D02*
Y3000000D01*
X4230000D02*
X5000000D01*
Y2840000D02*
Y3000000D01*
Y2580000D02*
Y2740000D01*
X4230000Y2580000D02*
X5000000D01*
X4230000D02*
Y2740000D01*
Y2840000D02*
Y3000000D01*
X4000000Y100000D02*
Y250000D01*
X4680000Y100000D02*
Y250000D01*
X3680000Y100000D02*
X4320000D01*
X4360000D02*
X5000000D01*
X3680000Y2380000D02*
X4320000D01*
X4360000D02*
X5000000D01*
D69*
X34000Y3050000D02*
X66000D01*
X50000Y3034000D02*
Y3066000D01*
X34000Y50000D02*
X66000D01*
X50000Y34000D02*
Y66000D01*
X5034000Y50000D02*
X5066000D01*
X5050000Y34000D02*
Y66000D01*
X5034000Y3050000D02*
X5066000D01*
X5050000Y3034000D02*
Y3066000D01*
X3794000Y2805160D02*
X3826000D01*
X3810000Y2789160D02*
Y2821160D01*
X4064000Y2805160D02*
X4096000D01*
X4080000Y2789160D02*
Y2821160D01*
X3888550Y2804400D02*
X3897550D01*
X3893050Y2799900D02*
Y2808900D01*
X3888550Y2829800D02*
X3897550D01*
X3893050Y2825300D02*
Y2834300D01*
X3913950Y2804400D02*
X3922950D01*
X3918450Y2799900D02*
Y2808900D01*
X3913950Y2829800D02*
X3922950D01*
X3918450Y2825300D02*
Y2834300D01*
X3939350Y2804400D02*
X3948350D01*
X3943850Y2799900D02*
Y2808900D01*
X3939350Y2829800D02*
X3948350D01*
X3943850Y2825300D02*
Y2834300D01*
X3964750Y2804400D02*
X3973750D01*
X3969250Y2799900D02*
Y2808900D01*
X3964750Y2829800D02*
X3973750D01*
X3969250Y2825300D02*
Y2834300D01*
X3990150Y2804400D02*
X3999150D01*
X3994650Y2799900D02*
Y2808900D01*
X3990150Y2829800D02*
X3999150D01*
X3994650Y2825300D02*
Y2834300D01*
X3424000Y2805160D02*
X3456000D01*
X3440000Y2789160D02*
Y2821160D01*
X3694000Y2805160D02*
X3726000D01*
X3710000Y2789160D02*
Y2821160D01*
X3518550Y2804400D02*
X3527550D01*
X3523050Y2799900D02*
Y2808900D01*
X3518550Y2829800D02*
X3527550D01*
X3523050Y2825300D02*
Y2834300D01*
X3543950Y2804400D02*
X3552950D01*
X3548450Y2799900D02*
Y2808900D01*
X3543950Y2829800D02*
X3552950D01*
X3548450Y2825300D02*
Y2834300D01*
X3569350Y2804400D02*
X3578350D01*
X3573850Y2799900D02*
Y2808900D01*
X3569350Y2829800D02*
X3578350D01*
X3573850Y2825300D02*
Y2834300D01*
X3594750Y2804400D02*
X3603750D01*
X3599250Y2799900D02*
Y2808900D01*
X3594750Y2829800D02*
X3603750D01*
X3599250Y2825300D02*
Y2834300D01*
X3620150Y2804400D02*
X3629150D01*
X3624650Y2799900D02*
Y2808900D01*
X3620150Y2829800D02*
X3629150D01*
X3624650Y2825300D02*
Y2834300D01*
X3054000Y2805160D02*
X3086000D01*
X3070000Y2789160D02*
Y2821160D01*
X3324000Y2805160D02*
X3356000D01*
X3340000Y2789160D02*
Y2821160D01*
X3148550Y2804400D02*
X3157550D01*
X3153050Y2799900D02*
Y2808900D01*
X3148550Y2829800D02*
X3157550D01*
X3153050Y2825300D02*
Y2834300D01*
X3173950Y2804400D02*
X3182950D01*
X3178450Y2799900D02*
Y2808900D01*
X3173950Y2829800D02*
X3182950D01*
X3178450Y2825300D02*
Y2834300D01*
X3199350Y2804400D02*
X3208350D01*
X3203850Y2799900D02*
Y2808900D01*
X3199350Y2829800D02*
X3208350D01*
X3203850Y2825300D02*
Y2834300D01*
X3224750Y2804400D02*
X3233750D01*
X3229250Y2799900D02*
Y2808900D01*
X3224750Y2829800D02*
X3233750D01*
X3229250Y2825300D02*
Y2834300D01*
X3250150Y2804400D02*
X3259150D01*
X3254650Y2799900D02*
Y2808900D01*
X3250150Y2829800D02*
X3259150D01*
X3254650Y2825300D02*
Y2834300D01*
X2684000Y2805160D02*
X2716000D01*
X2700000Y2789160D02*
Y2821160D01*
X2954000Y2805160D02*
X2986000D01*
X2970000Y2789160D02*
Y2821160D01*
X2778550Y2804400D02*
X2787550D01*
X2783050Y2799900D02*
Y2808900D01*
X2778550Y2829800D02*
X2787550D01*
X2783050Y2825300D02*
Y2834300D01*
X2803950Y2804400D02*
X2812950D01*
X2808450Y2799900D02*
Y2808900D01*
X2803950Y2829800D02*
X2812950D01*
X2808450Y2825300D02*
Y2834300D01*
X2829350Y2804400D02*
X2838350D01*
X2833850Y2799900D02*
Y2808900D01*
X2829350Y2829800D02*
X2838350D01*
X2833850Y2825300D02*
Y2834300D01*
X2854750Y2804400D02*
X2863750D01*
X2859250Y2799900D02*
Y2808900D01*
X2854750Y2829800D02*
X2863750D01*
X2859250Y2825300D02*
Y2834300D01*
X2880150Y2804400D02*
X2889150D01*
X2884650Y2799900D02*
Y2808900D01*
X2880150Y2829800D02*
X2889150D01*
X2884650Y2825300D02*
Y2834300D01*
X2154000Y2940000D02*
X2186000D01*
X2170000Y2924000D02*
Y2956000D01*
X2154000Y2740000D02*
X2186000D01*
X2170000Y2724000D02*
Y2756000D01*
X1983900Y2891000D02*
X1992900D01*
X1988400Y2886500D02*
Y2895500D01*
X2009300Y2891000D02*
X2018300D01*
X2013800Y2886500D02*
Y2895500D01*
X1983900Y2865600D02*
X1992900D01*
X1988400Y2861100D02*
Y2870100D01*
X2009300Y2865600D02*
X2018300D01*
X2013800Y2861100D02*
Y2870100D01*
X1983900Y2840200D02*
X1992900D01*
X1988400Y2835700D02*
Y2844700D01*
X2009300Y2840200D02*
X2018300D01*
X2013800Y2835700D02*
Y2844700D01*
X1983900Y2814800D02*
X1992900D01*
X1988400Y2810300D02*
Y2819300D01*
X2009300Y2814800D02*
X2018300D01*
X2013800Y2810300D02*
Y2819300D01*
X1983900Y2789400D02*
X1992900D01*
X1988400Y2784900D02*
Y2793900D01*
X2009300Y2789400D02*
X2018300D01*
X2013800Y2784900D02*
Y2793900D01*
X2322200Y2891000D02*
X2331200D01*
X2326700Y2886500D02*
Y2895500D01*
X2347600Y2891000D02*
X2356600D01*
X2352100Y2886500D02*
Y2895500D01*
X2322200Y2865600D02*
X2331200D01*
X2326700Y2861100D02*
Y2870100D01*
X2347600Y2865600D02*
X2356600D01*
X2352100Y2861100D02*
Y2870100D01*
X2322200Y2840200D02*
X2331200D01*
X2326700Y2835700D02*
Y2844700D01*
X2347600Y2840200D02*
X2356600D01*
X2352100Y2835700D02*
Y2844700D01*
X2322200Y2814800D02*
X2331200D01*
X2326700Y2810300D02*
Y2819300D01*
X2347600Y2814800D02*
X2356600D01*
X2352100Y2810300D02*
Y2819300D01*
X2322200Y2789400D02*
X2331200D01*
X2326700Y2784900D02*
Y2793900D01*
X2347600Y2789400D02*
X2356600D01*
X2352100Y2784900D02*
Y2793900D01*
X2110900Y2903700D02*
X2119900D01*
X2115400Y2899200D02*
Y2908200D01*
X2110900Y2725900D02*
X2119900D01*
X2115400Y2721400D02*
Y2730400D01*
X2110900Y2751300D02*
X2119900D01*
X2115400Y2746800D02*
Y2755800D01*
X2110900Y2776700D02*
X2119900D01*
X2115400Y2772200D02*
Y2781200D01*
X2110900Y2802100D02*
X2119900D01*
X2115400Y2797600D02*
Y2806600D01*
X2110900Y2827500D02*
X2119900D01*
X2115400Y2823000D02*
Y2832000D01*
X2110900Y2852900D02*
X2119900D01*
X2115400Y2848400D02*
Y2857400D01*
X2110900Y2878300D02*
X2119900D01*
X2115400Y2873800D02*
Y2882800D01*
X2110900Y2929100D02*
X2119900D01*
X2115400Y2924600D02*
Y2933600D01*
X2110900Y2954500D02*
X2119900D01*
X2115400Y2950000D02*
Y2959000D01*
X2220600Y2903700D02*
X2229600D01*
X2225100Y2899200D02*
Y2908200D01*
X2220600Y2725900D02*
X2229600D01*
X2225100Y2721400D02*
Y2730400D01*
X2220600Y2751300D02*
X2229600D01*
X2225100Y2746800D02*
Y2755800D01*
X2220600Y2776700D02*
X2229600D01*
X2225100Y2772200D02*
Y2781200D01*
X2220600Y2802100D02*
X2229600D01*
X2225100Y2797600D02*
Y2806600D01*
X2220600Y2827500D02*
X2229600D01*
X2225100Y2823000D02*
Y2832000D01*
X2220600Y2852900D02*
X2229600D01*
X2225100Y2848400D02*
Y2857400D01*
X2220600Y2878300D02*
X2229600D01*
X2225100Y2873800D02*
Y2882800D01*
X2220600Y2929100D02*
X2229600D01*
X2225100Y2924600D02*
Y2933600D01*
X2220600Y2954500D02*
X2229600D01*
X2225100Y2950000D02*
Y2959000D01*
X1654000Y2940000D02*
X1686000D01*
X1670000Y2924000D02*
Y2956000D01*
X1654000Y2740000D02*
X1686000D01*
X1670000Y2724000D02*
Y2756000D01*
X1483900Y2891000D02*
X1492900D01*
X1488400Y2886500D02*
Y2895500D01*
X1509300Y2891000D02*
X1518300D01*
X1513800Y2886500D02*
Y2895500D01*
X1483900Y2865600D02*
X1492900D01*
X1488400Y2861100D02*
Y2870100D01*
X1509300Y2865600D02*
X1518300D01*
X1513800Y2861100D02*
Y2870100D01*
X1483900Y2840200D02*
X1492900D01*
X1488400Y2835700D02*
Y2844700D01*
X1509300Y2840200D02*
X1518300D01*
X1513800Y2835700D02*
Y2844700D01*
X1483900Y2814800D02*
X1492900D01*
X1488400Y2810300D02*
Y2819300D01*
X1509300Y2814800D02*
X1518300D01*
X1513800Y2810300D02*
Y2819300D01*
X1483900Y2789400D02*
X1492900D01*
X1488400Y2784900D02*
Y2793900D01*
X1509300Y2789400D02*
X1518300D01*
X1513800Y2784900D02*
Y2793900D01*
X1822200Y2891000D02*
X1831200D01*
X1826700Y2886500D02*
Y2895500D01*
X1847600Y2891000D02*
X1856600D01*
X1852100Y2886500D02*
Y2895500D01*
X1822200Y2865600D02*
X1831200D01*
X1826700Y2861100D02*
Y2870100D01*
X1847600Y2865600D02*
X1856600D01*
X1852100Y2861100D02*
Y2870100D01*
X1822200Y2840200D02*
X1831200D01*
X1826700Y2835700D02*
Y2844700D01*
X1847600Y2840200D02*
X1856600D01*
X1852100Y2835700D02*
Y2844700D01*
X1822200Y2814800D02*
X1831200D01*
X1826700Y2810300D02*
Y2819300D01*
X1847600Y2814800D02*
X1856600D01*
X1852100Y2810300D02*
Y2819300D01*
X1822200Y2789400D02*
X1831200D01*
X1826700Y2784900D02*
Y2793900D01*
X1847600Y2789400D02*
X1856600D01*
X1852100Y2784900D02*
Y2793900D01*
X1610900Y2903700D02*
X1619900D01*
X1615400Y2899200D02*
Y2908200D01*
X1610900Y2725900D02*
X1619900D01*
X1615400Y2721400D02*
Y2730400D01*
X1610900Y2751300D02*
X1619900D01*
X1615400Y2746800D02*
Y2755800D01*
X1610900Y2776700D02*
X1619900D01*
X1615400Y2772200D02*
Y2781200D01*
X1610900Y2802100D02*
X1619900D01*
X1615400Y2797600D02*
Y2806600D01*
X1610900Y2827500D02*
X1619900D01*
X1615400Y2823000D02*
Y2832000D01*
X1610900Y2852900D02*
X1619900D01*
X1615400Y2848400D02*
Y2857400D01*
X1610900Y2878300D02*
X1619900D01*
X1615400Y2873800D02*
Y2882800D01*
X1610900Y2929100D02*
X1619900D01*
X1615400Y2924600D02*
Y2933600D01*
X1610900Y2954500D02*
X1619900D01*
X1615400Y2950000D02*
Y2959000D01*
X1720600Y2903700D02*
X1729600D01*
X1725100Y2899200D02*
Y2908200D01*
X1720600Y2725900D02*
X1729600D01*
X1725100Y2721400D02*
Y2730400D01*
X1720600Y2751300D02*
X1729600D01*
X1725100Y2746800D02*
Y2755800D01*
X1720600Y2776700D02*
X1729600D01*
X1725100Y2772200D02*
Y2781200D01*
X1720600Y2802100D02*
X1729600D01*
X1725100Y2797600D02*
Y2806600D01*
X1720600Y2827500D02*
X1729600D01*
X1725100Y2823000D02*
Y2832000D01*
X1720600Y2852900D02*
X1729600D01*
X1725100Y2848400D02*
Y2857400D01*
X1720600Y2878300D02*
X1729600D01*
X1725100Y2873800D02*
Y2882800D01*
X1720600Y2929100D02*
X1729600D01*
X1725100Y2924600D02*
Y2933600D01*
X1720600Y2954500D02*
X1729600D01*
X1725100Y2950000D02*
Y2959000D01*
X344800Y2814200D02*
X353800D01*
X349300Y2809700D02*
Y2818700D01*
X319400Y2814200D02*
X328400D01*
X323900Y2809700D02*
Y2818700D01*
X344800Y2839600D02*
X353800D01*
X349300Y2835100D02*
Y2844100D01*
X319400Y2839600D02*
X328400D01*
X323900Y2835100D02*
Y2844100D01*
X344800Y2865000D02*
X353800D01*
X349300Y2860500D02*
Y2869500D01*
X319400Y2865000D02*
X328400D01*
X323900Y2860500D02*
Y2869500D01*
X344800Y2890400D02*
X353800D01*
X349300Y2885900D02*
Y2894900D01*
X319400Y2890400D02*
X328400D01*
X323900Y2885900D02*
Y2894900D01*
X344800Y2915800D02*
X353800D01*
X349300Y2911300D02*
Y2920300D01*
X319400Y2915800D02*
X328400D01*
X323900Y2911300D02*
Y2920300D01*
X167000Y2915800D02*
X176000D01*
X171500Y2911300D02*
Y2920300D01*
X192400Y2915800D02*
X201400D01*
X196900Y2911300D02*
Y2920300D01*
X167000Y2890400D02*
X176000D01*
X171500Y2885900D02*
Y2894900D01*
X192400Y2890400D02*
X201400D01*
X196900Y2885900D02*
Y2894900D01*
X167000Y2865000D02*
X176000D01*
X171500Y2860500D02*
Y2869500D01*
X192400Y2865000D02*
X201400D01*
X196900Y2860500D02*
Y2869500D01*
X167000Y2839600D02*
X176000D01*
X171500Y2835100D02*
Y2844100D01*
X192400Y2839600D02*
X201400D01*
X196900Y2835100D02*
Y2844100D01*
X167000Y2814200D02*
X176000D01*
X171500Y2809700D02*
Y2818700D01*
X192400Y2814200D02*
X201400D01*
X196900Y2809700D02*
Y2818700D01*
X244400Y2953900D02*
X276400D01*
X260400Y2937900D02*
Y2969900D01*
X244400Y2776100D02*
X276400D01*
X260400Y2760100D02*
Y2792100D01*
X664800Y2814200D02*
X673800D01*
X669300Y2809700D02*
Y2818700D01*
X639400Y2814200D02*
X648400D01*
X643900Y2809700D02*
Y2818700D01*
X664800Y2839600D02*
X673800D01*
X669300Y2835100D02*
Y2844100D01*
X639400Y2839600D02*
X648400D01*
X643900Y2835100D02*
Y2844100D01*
X664800Y2865000D02*
X673800D01*
X669300Y2860500D02*
Y2869500D01*
X639400Y2865000D02*
X648400D01*
X643900Y2860500D02*
Y2869500D01*
X664800Y2890400D02*
X673800D01*
X669300Y2885900D02*
Y2894900D01*
X639400Y2890400D02*
X648400D01*
X643900Y2885900D02*
Y2894900D01*
X664800Y2915800D02*
X673800D01*
X669300Y2911300D02*
Y2920300D01*
X639400Y2915800D02*
X648400D01*
X643900Y2911300D02*
Y2920300D01*
X487000Y2915800D02*
X496000D01*
X491500Y2911300D02*
Y2920300D01*
X512400Y2915800D02*
X521400D01*
X516900Y2911300D02*
Y2920300D01*
X487000Y2890400D02*
X496000D01*
X491500Y2885900D02*
Y2894900D01*
X512400Y2890400D02*
X521400D01*
X516900Y2885900D02*
Y2894900D01*
X487000Y2865000D02*
X496000D01*
X491500Y2860500D02*
Y2869500D01*
X512400Y2865000D02*
X521400D01*
X516900Y2860500D02*
Y2869500D01*
X487000Y2839600D02*
X496000D01*
X491500Y2835100D02*
Y2844100D01*
X512400Y2839600D02*
X521400D01*
X516900Y2835100D02*
Y2844100D01*
X487000Y2814200D02*
X496000D01*
X491500Y2809700D02*
Y2818700D01*
X512400Y2814200D02*
X521400D01*
X516900Y2809700D02*
Y2818700D01*
X564400Y2953900D02*
X596400D01*
X580400Y2937900D02*
Y2969900D01*
X564400Y2776100D02*
X596400D01*
X580400Y2760100D02*
Y2792100D01*
X984800Y2814200D02*
X993800D01*
X989300Y2809700D02*
Y2818700D01*
X959400Y2814200D02*
X968400D01*
X963900Y2809700D02*
Y2818700D01*
X984800Y2839600D02*
X993800D01*
X989300Y2835100D02*
Y2844100D01*
X959400Y2839600D02*
X968400D01*
X963900Y2835100D02*
Y2844100D01*
X984800Y2865000D02*
X993800D01*
X989300Y2860500D02*
Y2869500D01*
X959400Y2865000D02*
X968400D01*
X963900Y2860500D02*
Y2869500D01*
X984800Y2890400D02*
X993800D01*
X989300Y2885900D02*
Y2894900D01*
X959400Y2890400D02*
X968400D01*
X963900Y2885900D02*
Y2894900D01*
X984800Y2915800D02*
X993800D01*
X989300Y2911300D02*
Y2920300D01*
X959400Y2915800D02*
X968400D01*
X963900Y2911300D02*
Y2920300D01*
X807000Y2915800D02*
X816000D01*
X811500Y2911300D02*
Y2920300D01*
X832400Y2915800D02*
X841400D01*
X836900Y2911300D02*
Y2920300D01*
X807000Y2890400D02*
X816000D01*
X811500Y2885900D02*
Y2894900D01*
X832400Y2890400D02*
X841400D01*
X836900Y2885900D02*
Y2894900D01*
X807000Y2865000D02*
X816000D01*
X811500Y2860500D02*
Y2869500D01*
X832400Y2865000D02*
X841400D01*
X836900Y2860500D02*
Y2869500D01*
X807000Y2839600D02*
X816000D01*
X811500Y2835100D02*
Y2844100D01*
X832400Y2839600D02*
X841400D01*
X836900Y2835100D02*
Y2844100D01*
X807000Y2814200D02*
X816000D01*
X811500Y2809700D02*
Y2818700D01*
X832400Y2814200D02*
X841400D01*
X836900Y2809700D02*
Y2818700D01*
X884400Y2953900D02*
X916400D01*
X900400Y2937900D02*
Y2969900D01*
X884400Y2776100D02*
X916400D01*
X900400Y2760100D02*
Y2792100D01*
X1304800Y2814200D02*
X1313800D01*
X1309300Y2809700D02*
Y2818700D01*
X1279400Y2814200D02*
X1288400D01*
X1283900Y2809700D02*
Y2818700D01*
X1304800Y2839600D02*
X1313800D01*
X1309300Y2835100D02*
Y2844100D01*
X1279400Y2839600D02*
X1288400D01*
X1283900Y2835100D02*
Y2844100D01*
X1304800Y2865000D02*
X1313800D01*
X1309300Y2860500D02*
Y2869500D01*
X1279400Y2865000D02*
X1288400D01*
X1283900Y2860500D02*
Y2869500D01*
X1304800Y2890400D02*
X1313800D01*
X1309300Y2885900D02*
Y2894900D01*
X1279400Y2890400D02*
X1288400D01*
X1283900Y2885900D02*
Y2894900D01*
X1304800Y2915800D02*
X1313800D01*
X1309300Y2911300D02*
Y2920300D01*
X1279400Y2915800D02*
X1288400D01*
X1283900Y2911300D02*
Y2920300D01*
X1127000Y2915800D02*
X1136000D01*
X1131500Y2911300D02*
Y2920300D01*
X1152400Y2915800D02*
X1161400D01*
X1156900Y2911300D02*
Y2920300D01*
X1127000Y2890400D02*
X1136000D01*
X1131500Y2885900D02*
Y2894900D01*
X1152400Y2890400D02*
X1161400D01*
X1156900Y2885900D02*
Y2894900D01*
X1127000Y2865000D02*
X1136000D01*
X1131500Y2860500D02*
Y2869500D01*
X1152400Y2865000D02*
X1161400D01*
X1156900Y2860500D02*
Y2869500D01*
X1127000Y2839600D02*
X1136000D01*
X1131500Y2835100D02*
Y2844100D01*
X1152400Y2839600D02*
X1161400D01*
X1156900Y2835100D02*
Y2844100D01*
X1127000Y2814200D02*
X1136000D01*
X1131500Y2809700D02*
Y2818700D01*
X1152400Y2814200D02*
X1161400D01*
X1156900Y2809700D02*
Y2818700D01*
X1204400Y2953900D02*
X1236400D01*
X1220400Y2937900D02*
Y2969900D01*
X1204400Y2776100D02*
X1236400D01*
X1220400Y2760100D02*
Y2792100D01*
X4856850Y754200D02*
X4866850D01*
X4861850Y749200D02*
Y759200D01*
X4831450Y754200D02*
X4841450D01*
X4836450Y749200D02*
Y759200D01*
X4882250Y754200D02*
X4892250D01*
X4887250Y749200D02*
Y759200D01*
X4907650Y754200D02*
X4917650D01*
X4912650Y749200D02*
Y759200D01*
X4933050Y754200D02*
X4943050D01*
X4938050Y749200D02*
Y759200D01*
X4831450Y728800D02*
X4841450D01*
X4836450Y723800D02*
Y733800D01*
X4882250Y728800D02*
X4892250D01*
X4887250Y723800D02*
Y733800D01*
X4856850Y728800D02*
X4866850D01*
X4861850Y723800D02*
Y733800D01*
X4933050Y728800D02*
X4943050D01*
X4938050Y723800D02*
Y733800D01*
X4907650Y728800D02*
X4917650D01*
X4912650Y723800D02*
Y733800D01*
X4719300Y736800D02*
X4729300D01*
X4724300Y731800D02*
Y741800D01*
X4719300Y686000D02*
X4729300D01*
X4724300Y681000D02*
Y691000D01*
X4719300Y711400D02*
X4729300D01*
X4724300Y706400D02*
Y716400D01*
X4744700Y736800D02*
X4754700D01*
X4749700Y731800D02*
Y741800D01*
X4744700Y686000D02*
X4754700D01*
X4749700Y681000D02*
Y691000D01*
X4744700Y711400D02*
X4754700D01*
X4749700Y706400D02*
Y716400D01*
X4719300Y660600D02*
X4729300D01*
X4724300Y655600D02*
Y665600D01*
X4719300Y635200D02*
X4729300D01*
X4724300Y630200D02*
Y640200D01*
X4744700Y660600D02*
X4754700D01*
X4749700Y655600D02*
Y665600D01*
X4744700Y635200D02*
X4754700D01*
X4749700Y630200D02*
Y640200D01*
X4719300Y530800D02*
X4729300D01*
X4724300Y525800D02*
Y535800D01*
X4719300Y480000D02*
X4729300D01*
X4724300Y475000D02*
Y485000D01*
X4719300Y505400D02*
X4729300D01*
X4724300Y500400D02*
Y510400D01*
X4744700Y530800D02*
X4754700D01*
X4749700Y525800D02*
Y535800D01*
X4744700Y480000D02*
X4754700D01*
X4749700Y475000D02*
Y485000D01*
X4744700Y505400D02*
X4754700D01*
X4749700Y500400D02*
Y510400D01*
X4719300Y454600D02*
X4729300D01*
X4724300Y449600D02*
Y459600D01*
X4719300Y429200D02*
X4729300D01*
X4724300Y424200D02*
Y434200D01*
X4744700Y454600D02*
X4754700D01*
X4749700Y449600D02*
Y459600D01*
X4744700Y429200D02*
X4754700D01*
X4749700Y424200D02*
Y434200D01*
X4719300Y324800D02*
X4729300D01*
X4724300Y319800D02*
Y329800D01*
X4719300Y274000D02*
X4729300D01*
X4724300Y269000D02*
Y279000D01*
X4719300Y299400D02*
X4729300D01*
X4724300Y294400D02*
Y304400D01*
X4744700Y324800D02*
X4754700D01*
X4749700Y319800D02*
Y329800D01*
X4744700Y274000D02*
X4754700D01*
X4749700Y269000D02*
Y279000D01*
X4744700Y299400D02*
X4754700D01*
X4749700Y294400D02*
Y304400D01*
X4719300Y248600D02*
X4729300D01*
X4724300Y243600D02*
Y253600D01*
X4719300Y223200D02*
X4729300D01*
X4724300Y218200D02*
Y228200D01*
X4744700Y248600D02*
X4754700D01*
X4749700Y243600D02*
Y253600D01*
X4744700Y223200D02*
X4754700D01*
X4749700Y218200D02*
Y228200D01*
X4856850Y230950D02*
X4866850D01*
X4861850Y225950D02*
Y235950D01*
X4831450Y230950D02*
X4841450D01*
X4836450Y225950D02*
Y235950D01*
X4882250Y230950D02*
X4892250D01*
X4887250Y225950D02*
Y235950D01*
X4907650Y230950D02*
X4917650D01*
X4912650Y225950D02*
Y235950D01*
X4933050Y230950D02*
X4943050D01*
X4938050Y225950D02*
Y235950D01*
X4831450Y205550D02*
X4841450D01*
X4836450Y200550D02*
Y210550D01*
X4882250Y205550D02*
X4892250D01*
X4887250Y200550D02*
Y210550D01*
X4856850Y205550D02*
X4866850D01*
X4861850Y200550D02*
Y210550D01*
X4933050Y205550D02*
X4943050D01*
X4938050Y200550D02*
Y210550D01*
X4907650Y205550D02*
X4917650D01*
X4912650Y200550D02*
Y210550D01*
X4724000Y820000D02*
X4756000D01*
X4740000Y804000D02*
Y836000D01*
X4924000Y820000D02*
X4956000D01*
X4940000Y804000D02*
Y836000D01*
X4924000Y140000D02*
X4956000D01*
X4940000Y124000D02*
Y156000D01*
X4724000Y140000D02*
X4756000D01*
X4740000Y124000D02*
Y156000D01*
X4792134Y381780D02*
X4796706D01*
X4794420Y379494D02*
Y384066D01*
X4827714Y280000D02*
X4832286D01*
X4830000Y277714D02*
Y282286D01*
X4817714Y270000D02*
X4822286D01*
X4820000Y267714D02*
Y272286D01*
X4807714Y260000D02*
X4812286D01*
X4810000Y257714D02*
Y262286D01*
X4837714Y290000D02*
X4842286D01*
X4840000Y287714D02*
Y292286D01*
X4837714Y370000D02*
X4842286D01*
X4840000Y367714D02*
Y372286D01*
X4827714Y380000D02*
X4832286D01*
X4830000Y377714D02*
Y382286D01*
X4817714Y390000D02*
X4822286D01*
X4820000Y387714D02*
Y392286D01*
X4797714Y410000D02*
X4802286D01*
X4800000Y407714D02*
Y412286D01*
X4807714Y420000D02*
X4812286D01*
X4810000Y417714D02*
Y422286D01*
X4817714Y430000D02*
X4822286D01*
X4820000Y427714D02*
Y432286D01*
X4827714Y440000D02*
X4832286D01*
X4830000Y437714D02*
Y442286D01*
X4827714Y520000D02*
X4832286D01*
X4830000Y517714D02*
Y522286D01*
X4817714Y530000D02*
X4822286D01*
X4820000Y527714D02*
Y532286D01*
X4807714Y540000D02*
X4812286D01*
X4810000Y537714D02*
Y542286D01*
X4797714Y550000D02*
X4802286D01*
X4800000Y547714D02*
Y552286D01*
X4807714Y560000D02*
X4812286D01*
X4810000Y557714D02*
Y562286D01*
X4817714Y570000D02*
X4822286D01*
X4820000Y567714D02*
Y572286D01*
X4827714Y580000D02*
X4832286D01*
X4830000Y577714D02*
Y582286D01*
X4837714Y590000D02*
X4842286D01*
X4840000Y587714D02*
Y592286D01*
X4807714Y400000D02*
X4812286D01*
X4810000Y397714D02*
Y402286D01*
X4837714Y670000D02*
X4842286D01*
X4840000Y667714D02*
Y672286D01*
X4817714Y690000D02*
X4822286D01*
X4820000Y687714D02*
Y692286D01*
X4827714Y680000D02*
X4832286D01*
X4830000Y677714D02*
Y682286D01*
X4807714Y700000D02*
X4812286D01*
X4810000Y697714D02*
Y702286D01*
X4875714Y330000D02*
X4880286D01*
X4878000Y327714D02*
Y332286D01*
X4875714Y480000D02*
X4880286D01*
X4878000Y477714D02*
Y482286D01*
X4875714Y630000D02*
X4880286D01*
X4878000Y627714D02*
Y632286D01*
X4862714Y330000D02*
X4867286D01*
X4865000Y327714D02*
Y332286D01*
X4862714Y480000D02*
X4867286D01*
X4865000Y477714D02*
Y482286D01*
X4862714Y630000D02*
X4867286D01*
X4865000Y627714D02*
Y632286D01*
X4817714Y710000D02*
X4822286D01*
X4820000Y707714D02*
Y712286D01*
X4927714Y480000D02*
X4932286D01*
X4930000Y477714D02*
Y482286D01*
X4927714Y630000D02*
X4932286D01*
X4930000Y627714D02*
Y632286D01*
X4927714Y330000D02*
X4932286D01*
X4930000Y327714D02*
Y332286D01*
X4847714Y300000D02*
X4852286D01*
X4850000Y297714D02*
Y302286D01*
X4837714Y450000D02*
X4842286D01*
X4840000Y447714D02*
Y452286D01*
X4837714Y510000D02*
X4842286D01*
X4840000Y507714D02*
Y512286D01*
X4847714Y360000D02*
X4852286D01*
X4850000Y357714D02*
Y362286D01*
X4847714Y600000D02*
X4852286D01*
X4850000Y597714D02*
Y602286D01*
X4847714Y660000D02*
X4852286D01*
X4850000Y657714D02*
Y662286D01*
X4707714Y190000D02*
X4712286D01*
X4710000Y187714D02*
Y192286D01*
X4967714Y190000D02*
X4972286D01*
X4970000Y187714D02*
Y192286D01*
X4967714Y770000D02*
X4972286D01*
X4970000Y767714D02*
Y772286D01*
X4707714Y770000D02*
X4712286D01*
X4710000Y767714D02*
Y772286D01*
X4927714Y405000D02*
X4932286D01*
X4930000Y402714D02*
Y407286D01*
X4927714Y555000D02*
X4932286D01*
X4930000Y552714D02*
Y557286D01*
X4856850Y1514200D02*
X4866850D01*
X4861850Y1509200D02*
Y1519200D01*
X4831450Y1514200D02*
X4841450D01*
X4836450Y1509200D02*
Y1519200D01*
X4882250Y1514200D02*
X4892250D01*
X4887250Y1509200D02*
Y1519200D01*
X4907650Y1514200D02*
X4917650D01*
X4912650Y1509200D02*
Y1519200D01*
X4933050Y1514200D02*
X4943050D01*
X4938050Y1509200D02*
Y1519200D01*
X4831450Y1488800D02*
X4841450D01*
X4836450Y1483800D02*
Y1493800D01*
X4882250Y1488800D02*
X4892250D01*
X4887250Y1483800D02*
Y1493800D01*
X4856850Y1488800D02*
X4866850D01*
X4861850Y1483800D02*
Y1493800D01*
X4933050Y1488800D02*
X4943050D01*
X4938050Y1483800D02*
Y1493800D01*
X4907650Y1488800D02*
X4917650D01*
X4912650Y1483800D02*
Y1493800D01*
X4719300Y1496800D02*
X4729300D01*
X4724300Y1491800D02*
Y1501800D01*
X4719300Y1446000D02*
X4729300D01*
X4724300Y1441000D02*
Y1451000D01*
X4719300Y1471400D02*
X4729300D01*
X4724300Y1466400D02*
Y1476400D01*
X4744700Y1496800D02*
X4754700D01*
X4749700Y1491800D02*
Y1501800D01*
X4744700Y1446000D02*
X4754700D01*
X4749700Y1441000D02*
Y1451000D01*
X4744700Y1471400D02*
X4754700D01*
X4749700Y1466400D02*
Y1476400D01*
X4719300Y1420600D02*
X4729300D01*
X4724300Y1415600D02*
Y1425600D01*
X4719300Y1395200D02*
X4729300D01*
X4724300Y1390200D02*
Y1400200D01*
X4744700Y1420600D02*
X4754700D01*
X4749700Y1415600D02*
Y1425600D01*
X4744700Y1395200D02*
X4754700D01*
X4749700Y1390200D02*
Y1400200D01*
X4719300Y1290800D02*
X4729300D01*
X4724300Y1285800D02*
Y1295800D01*
X4719300Y1240000D02*
X4729300D01*
X4724300Y1235000D02*
Y1245000D01*
X4719300Y1265400D02*
X4729300D01*
X4724300Y1260400D02*
Y1270400D01*
X4744700Y1290800D02*
X4754700D01*
X4749700Y1285800D02*
Y1295800D01*
X4744700Y1240000D02*
X4754700D01*
X4749700Y1235000D02*
Y1245000D01*
X4744700Y1265400D02*
X4754700D01*
X4749700Y1260400D02*
Y1270400D01*
X4719300Y1214600D02*
X4729300D01*
X4724300Y1209600D02*
Y1219600D01*
X4719300Y1189200D02*
X4729300D01*
X4724300Y1184200D02*
Y1194200D01*
X4744700Y1214600D02*
X4754700D01*
X4749700Y1209600D02*
Y1219600D01*
X4744700Y1189200D02*
X4754700D01*
X4749700Y1184200D02*
Y1194200D01*
X4719300Y1084800D02*
X4729300D01*
X4724300Y1079800D02*
Y1089800D01*
X4719300Y1034000D02*
X4729300D01*
X4724300Y1029000D02*
Y1039000D01*
X4719300Y1059400D02*
X4729300D01*
X4724300Y1054400D02*
Y1064400D01*
X4744700Y1084800D02*
X4754700D01*
X4749700Y1079800D02*
Y1089800D01*
X4744700Y1034000D02*
X4754700D01*
X4749700Y1029000D02*
Y1039000D01*
X4744700Y1059400D02*
X4754700D01*
X4749700Y1054400D02*
Y1064400D01*
X4719300Y1008600D02*
X4729300D01*
X4724300Y1003600D02*
Y1013600D01*
X4719300Y983200D02*
X4729300D01*
X4724300Y978200D02*
Y988200D01*
X4744700Y1008600D02*
X4754700D01*
X4749700Y1003600D02*
Y1013600D01*
X4744700Y983200D02*
X4754700D01*
X4749700Y978200D02*
Y988200D01*
X4856850Y990950D02*
X4866850D01*
X4861850Y985950D02*
Y995950D01*
X4831450Y990950D02*
X4841450D01*
X4836450Y985950D02*
Y995950D01*
X4882250Y990950D02*
X4892250D01*
X4887250Y985950D02*
Y995950D01*
X4907650Y990950D02*
X4917650D01*
X4912650Y985950D02*
Y995950D01*
X4933050Y990950D02*
X4943050D01*
X4938050Y985950D02*
Y995950D01*
X4831450Y965550D02*
X4841450D01*
X4836450Y960550D02*
Y970550D01*
X4882250Y965550D02*
X4892250D01*
X4887250Y960550D02*
Y970550D01*
X4856850Y965550D02*
X4866850D01*
X4861850Y960550D02*
Y970550D01*
X4933050Y965550D02*
X4943050D01*
X4938050Y960550D02*
Y970550D01*
X4907650Y965550D02*
X4917650D01*
X4912650Y960550D02*
Y970550D01*
X4724000Y1580000D02*
X4756000D01*
X4740000Y1564000D02*
Y1596000D01*
X4924000Y1580000D02*
X4956000D01*
X4940000Y1564000D02*
Y1596000D01*
X4924000Y900000D02*
X4956000D01*
X4940000Y884000D02*
Y916000D01*
X4724000Y900000D02*
X4756000D01*
X4740000Y884000D02*
Y916000D01*
X4792134Y1141780D02*
X4796706D01*
X4794420Y1139494D02*
Y1144066D01*
X4827714Y1040000D02*
X4832286D01*
X4830000Y1037714D02*
Y1042286D01*
X4817714Y1030000D02*
X4822286D01*
X4820000Y1027714D02*
Y1032286D01*
X4807714Y1020000D02*
X4812286D01*
X4810000Y1017714D02*
Y1022286D01*
X4837714Y1050000D02*
X4842286D01*
X4840000Y1047714D02*
Y1052286D01*
X4837714Y1130000D02*
X4842286D01*
X4840000Y1127714D02*
Y1132286D01*
X4827714Y1140000D02*
X4832286D01*
X4830000Y1137714D02*
Y1142286D01*
X4817714Y1150000D02*
X4822286D01*
X4820000Y1147714D02*
Y1152286D01*
X4797714Y1170000D02*
X4802286D01*
X4800000Y1167714D02*
Y1172286D01*
X4807714Y1180000D02*
X4812286D01*
X4810000Y1177714D02*
Y1182286D01*
X4817714Y1190000D02*
X4822286D01*
X4820000Y1187714D02*
Y1192286D01*
X4827714Y1200000D02*
X4832286D01*
X4830000Y1197714D02*
Y1202286D01*
X4827714Y1280000D02*
X4832286D01*
X4830000Y1277714D02*
Y1282286D01*
X4817714Y1290000D02*
X4822286D01*
X4820000Y1287714D02*
Y1292286D01*
X4807714Y1300000D02*
X4812286D01*
X4810000Y1297714D02*
Y1302286D01*
X4797714Y1310000D02*
X4802286D01*
X4800000Y1307714D02*
Y1312286D01*
X4807714Y1320000D02*
X4812286D01*
X4810000Y1317714D02*
Y1322286D01*
X4817714Y1330000D02*
X4822286D01*
X4820000Y1327714D02*
Y1332286D01*
X4827714Y1340000D02*
X4832286D01*
X4830000Y1337714D02*
Y1342286D01*
X4837714Y1350000D02*
X4842286D01*
X4840000Y1347714D02*
Y1352286D01*
X4807714Y1160000D02*
X4812286D01*
X4810000Y1157714D02*
Y1162286D01*
X4837714Y1430000D02*
X4842286D01*
X4840000Y1427714D02*
Y1432286D01*
X4817714Y1450000D02*
X4822286D01*
X4820000Y1447714D02*
Y1452286D01*
X4827714Y1440000D02*
X4832286D01*
X4830000Y1437714D02*
Y1442286D01*
X4807714Y1460000D02*
X4812286D01*
X4810000Y1457714D02*
Y1462286D01*
X4875714Y1090000D02*
X4880286D01*
X4878000Y1087714D02*
Y1092286D01*
X4875714Y1240000D02*
X4880286D01*
X4878000Y1237714D02*
Y1242286D01*
X4875714Y1390000D02*
X4880286D01*
X4878000Y1387714D02*
Y1392286D01*
X4862714Y1090000D02*
X4867286D01*
X4865000Y1087714D02*
Y1092286D01*
X4862714Y1240000D02*
X4867286D01*
X4865000Y1237714D02*
Y1242286D01*
X4862714Y1390000D02*
X4867286D01*
X4865000Y1387714D02*
Y1392286D01*
X4817714Y1470000D02*
X4822286D01*
X4820000Y1467714D02*
Y1472286D01*
X4927714Y1240000D02*
X4932286D01*
X4930000Y1237714D02*
Y1242286D01*
X4927714Y1390000D02*
X4932286D01*
X4930000Y1387714D02*
Y1392286D01*
X4927714Y1090000D02*
X4932286D01*
X4930000Y1087714D02*
Y1092286D01*
X4847714Y1060000D02*
X4852286D01*
X4850000Y1057714D02*
Y1062286D01*
X4837714Y1210000D02*
X4842286D01*
X4840000Y1207714D02*
Y1212286D01*
X4837714Y1270000D02*
X4842286D01*
X4840000Y1267714D02*
Y1272286D01*
X4847714Y1120000D02*
X4852286D01*
X4850000Y1117714D02*
Y1122286D01*
X4847714Y1360000D02*
X4852286D01*
X4850000Y1357714D02*
Y1362286D01*
X4847714Y1420000D02*
X4852286D01*
X4850000Y1417714D02*
Y1422286D01*
X4707714Y950000D02*
X4712286D01*
X4710000Y947714D02*
Y952286D01*
X4967714Y950000D02*
X4972286D01*
X4970000Y947714D02*
Y952286D01*
X4967714Y1530000D02*
X4972286D01*
X4970000Y1527714D02*
Y1532286D01*
X4707714Y1530000D02*
X4712286D01*
X4710000Y1527714D02*
Y1532286D01*
X4927714Y1165000D02*
X4932286D01*
X4930000Y1162714D02*
Y1167286D01*
X4927714Y1315000D02*
X4932286D01*
X4930000Y1312714D02*
Y1317286D01*
X4856850Y2274200D02*
X4866850D01*
X4861850Y2269200D02*
Y2279200D01*
X4831450Y2274200D02*
X4841450D01*
X4836450Y2269200D02*
Y2279200D01*
X4882250Y2274200D02*
X4892250D01*
X4887250Y2269200D02*
Y2279200D01*
X4907650Y2274200D02*
X4917650D01*
X4912650Y2269200D02*
Y2279200D01*
X4933050Y2274200D02*
X4943050D01*
X4938050Y2269200D02*
Y2279200D01*
X4831450Y2248800D02*
X4841450D01*
X4836450Y2243800D02*
Y2253800D01*
X4882250Y2248800D02*
X4892250D01*
X4887250Y2243800D02*
Y2253800D01*
X4856850Y2248800D02*
X4866850D01*
X4861850Y2243800D02*
Y2253800D01*
X4933050Y2248800D02*
X4943050D01*
X4938050Y2243800D02*
Y2253800D01*
X4907650Y2248800D02*
X4917650D01*
X4912650Y2243800D02*
Y2253800D01*
X4719300Y2256800D02*
X4729300D01*
X4724300Y2251800D02*
Y2261800D01*
X4719300Y2206000D02*
X4729300D01*
X4724300Y2201000D02*
Y2211000D01*
X4719300Y2231400D02*
X4729300D01*
X4724300Y2226400D02*
Y2236400D01*
X4744700Y2256800D02*
X4754700D01*
X4749700Y2251800D02*
Y2261800D01*
X4744700Y2206000D02*
X4754700D01*
X4749700Y2201000D02*
Y2211000D01*
X4744700Y2231400D02*
X4754700D01*
X4749700Y2226400D02*
Y2236400D01*
X4719300Y2180600D02*
X4729300D01*
X4724300Y2175600D02*
Y2185600D01*
X4719300Y2155200D02*
X4729300D01*
X4724300Y2150200D02*
Y2160200D01*
X4744700Y2180600D02*
X4754700D01*
X4749700Y2175600D02*
Y2185600D01*
X4744700Y2155200D02*
X4754700D01*
X4749700Y2150200D02*
Y2160200D01*
X4719300Y2050800D02*
X4729300D01*
X4724300Y2045800D02*
Y2055800D01*
X4719300Y2000000D02*
X4729300D01*
X4724300Y1995000D02*
Y2005000D01*
X4719300Y2025400D02*
X4729300D01*
X4724300Y2020400D02*
Y2030400D01*
X4744700Y2050800D02*
X4754700D01*
X4749700Y2045800D02*
Y2055800D01*
X4744700Y2000000D02*
X4754700D01*
X4749700Y1995000D02*
Y2005000D01*
X4744700Y2025400D02*
X4754700D01*
X4749700Y2020400D02*
Y2030400D01*
X4719300Y1974600D02*
X4729300D01*
X4724300Y1969600D02*
Y1979600D01*
X4719300Y1949200D02*
X4729300D01*
X4724300Y1944200D02*
Y1954200D01*
X4744700Y1974600D02*
X4754700D01*
X4749700Y1969600D02*
Y1979600D01*
X4744700Y1949200D02*
X4754700D01*
X4749700Y1944200D02*
Y1954200D01*
X4719300Y1844800D02*
X4729300D01*
X4724300Y1839800D02*
Y1849800D01*
X4719300Y1794000D02*
X4729300D01*
X4724300Y1789000D02*
Y1799000D01*
X4719300Y1819400D02*
X4729300D01*
X4724300Y1814400D02*
Y1824400D01*
X4744700Y1844800D02*
X4754700D01*
X4749700Y1839800D02*
Y1849800D01*
X4744700Y1794000D02*
X4754700D01*
X4749700Y1789000D02*
Y1799000D01*
X4744700Y1819400D02*
X4754700D01*
X4749700Y1814400D02*
Y1824400D01*
X4719300Y1768600D02*
X4729300D01*
X4724300Y1763600D02*
Y1773600D01*
X4719300Y1743200D02*
X4729300D01*
X4724300Y1738200D02*
Y1748200D01*
X4744700Y1768600D02*
X4754700D01*
X4749700Y1763600D02*
Y1773600D01*
X4744700Y1743200D02*
X4754700D01*
X4749700Y1738200D02*
Y1748200D01*
X4856850Y1750950D02*
X4866850D01*
X4861850Y1745950D02*
Y1755950D01*
X4831450Y1750950D02*
X4841450D01*
X4836450Y1745950D02*
Y1755950D01*
X4882250Y1750950D02*
X4892250D01*
X4887250Y1745950D02*
Y1755950D01*
X4907650Y1750950D02*
X4917650D01*
X4912650Y1745950D02*
Y1755950D01*
X4933050Y1750950D02*
X4943050D01*
X4938050Y1745950D02*
Y1755950D01*
X4831450Y1725550D02*
X4841450D01*
X4836450Y1720550D02*
Y1730550D01*
X4882250Y1725550D02*
X4892250D01*
X4887250Y1720550D02*
Y1730550D01*
X4856850Y1725550D02*
X4866850D01*
X4861850Y1720550D02*
Y1730550D01*
X4933050Y1725550D02*
X4943050D01*
X4938050Y1720550D02*
Y1730550D01*
X4907650Y1725550D02*
X4917650D01*
X4912650Y1720550D02*
Y1730550D01*
X4724000Y2340000D02*
X4756000D01*
X4740000Y2324000D02*
Y2356000D01*
X4924000Y2340000D02*
X4956000D01*
X4940000Y2324000D02*
Y2356000D01*
X4924000Y1660000D02*
X4956000D01*
X4940000Y1644000D02*
Y1676000D01*
X4724000Y1660000D02*
X4756000D01*
X4740000Y1644000D02*
Y1676000D01*
X4792134Y1901780D02*
X4796706D01*
X4794420Y1899494D02*
Y1904066D01*
X4827714Y1800000D02*
X4832286D01*
X4830000Y1797714D02*
Y1802286D01*
X4817714Y1790000D02*
X4822286D01*
X4820000Y1787714D02*
Y1792286D01*
X4807714Y1780000D02*
X4812286D01*
X4810000Y1777714D02*
Y1782286D01*
X4837714Y1810000D02*
X4842286D01*
X4840000Y1807714D02*
Y1812286D01*
X4837714Y1890000D02*
X4842286D01*
X4840000Y1887714D02*
Y1892286D01*
X4827714Y1900000D02*
X4832286D01*
X4830000Y1897714D02*
Y1902286D01*
X4817714Y1910000D02*
X4822286D01*
X4820000Y1907714D02*
Y1912286D01*
X4797714Y1930000D02*
X4802286D01*
X4800000Y1927714D02*
Y1932286D01*
X4807714Y1940000D02*
X4812286D01*
X4810000Y1937714D02*
Y1942286D01*
X4817714Y1950000D02*
X4822286D01*
X4820000Y1947714D02*
Y1952286D01*
X4827714Y1960000D02*
X4832286D01*
X4830000Y1957714D02*
Y1962286D01*
X4827714Y2040000D02*
X4832286D01*
X4830000Y2037714D02*
Y2042286D01*
X4817714Y2050000D02*
X4822286D01*
X4820000Y2047714D02*
Y2052286D01*
X4807714Y2060000D02*
X4812286D01*
X4810000Y2057714D02*
Y2062286D01*
X4797714Y2070000D02*
X4802286D01*
X4800000Y2067714D02*
Y2072286D01*
X4807714Y2080000D02*
X4812286D01*
X4810000Y2077714D02*
Y2082286D01*
X4817714Y2090000D02*
X4822286D01*
X4820000Y2087714D02*
Y2092286D01*
X4827714Y2100000D02*
X4832286D01*
X4830000Y2097714D02*
Y2102286D01*
X4837714Y2110000D02*
X4842286D01*
X4840000Y2107714D02*
Y2112286D01*
X4807714Y1920000D02*
X4812286D01*
X4810000Y1917714D02*
Y1922286D01*
X4837714Y2190000D02*
X4842286D01*
X4840000Y2187714D02*
Y2192286D01*
X4817714Y2210000D02*
X4822286D01*
X4820000Y2207714D02*
Y2212286D01*
X4827714Y2200000D02*
X4832286D01*
X4830000Y2197714D02*
Y2202286D01*
X4807714Y2220000D02*
X4812286D01*
X4810000Y2217714D02*
Y2222286D01*
X4875714Y1850000D02*
X4880286D01*
X4878000Y1847714D02*
Y1852286D01*
X4875714Y2000000D02*
X4880286D01*
X4878000Y1997714D02*
Y2002286D01*
X4875714Y2150000D02*
X4880286D01*
X4878000Y2147714D02*
Y2152286D01*
X4862714Y1850000D02*
X4867286D01*
X4865000Y1847714D02*
Y1852286D01*
X4862714Y2000000D02*
X4867286D01*
X4865000Y1997714D02*
Y2002286D01*
X4862714Y2150000D02*
X4867286D01*
X4865000Y2147714D02*
Y2152286D01*
X4817714Y2230000D02*
X4822286D01*
X4820000Y2227714D02*
Y2232286D01*
X4927714Y2000000D02*
X4932286D01*
X4930000Y1997714D02*
Y2002286D01*
X4927714Y2150000D02*
X4932286D01*
X4930000Y2147714D02*
Y2152286D01*
X4927714Y1850000D02*
X4932286D01*
X4930000Y1847714D02*
Y1852286D01*
X4847714Y1820000D02*
X4852286D01*
X4850000Y1817714D02*
Y1822286D01*
X4837714Y1970000D02*
X4842286D01*
X4840000Y1967714D02*
Y1972286D01*
X4837714Y2030000D02*
X4842286D01*
X4840000Y2027714D02*
Y2032286D01*
X4847714Y1880000D02*
X4852286D01*
X4850000Y1877714D02*
Y1882286D01*
X4847714Y2120000D02*
X4852286D01*
X4850000Y2117714D02*
Y2122286D01*
X4847714Y2180000D02*
X4852286D01*
X4850000Y2177714D02*
Y2182286D01*
X4707714Y1710000D02*
X4712286D01*
X4710000Y1707714D02*
Y1712286D01*
X4967714Y1710000D02*
X4972286D01*
X4970000Y1707714D02*
Y1712286D01*
X4967714Y2290000D02*
X4972286D01*
X4970000Y2287714D02*
Y2292286D01*
X4707714Y2290000D02*
X4712286D01*
X4710000Y2287714D02*
Y2292286D01*
X4927714Y1925000D02*
X4932286D01*
X4930000Y1922714D02*
Y1927286D01*
X4927714Y2075000D02*
X4932286D01*
X4930000Y2072714D02*
Y2077286D01*
X4536850Y754200D02*
X4546850D01*
X4541850Y749200D02*
Y759200D01*
X4511450Y754200D02*
X4521450D01*
X4516450Y749200D02*
Y759200D01*
X4562250Y754200D02*
X4572250D01*
X4567250Y749200D02*
Y759200D01*
X4587650Y754200D02*
X4597650D01*
X4592650Y749200D02*
Y759200D01*
X4613050Y754200D02*
X4623050D01*
X4618050Y749200D02*
Y759200D01*
X4511450Y728800D02*
X4521450D01*
X4516450Y723800D02*
Y733800D01*
X4562250Y728800D02*
X4572250D01*
X4567250Y723800D02*
Y733800D01*
X4536850Y728800D02*
X4546850D01*
X4541850Y723800D02*
Y733800D01*
X4613050Y728800D02*
X4623050D01*
X4618050Y723800D02*
Y733800D01*
X4587650Y728800D02*
X4597650D01*
X4592650Y723800D02*
Y733800D01*
X4399300Y736800D02*
X4409300D01*
X4404300Y731800D02*
Y741800D01*
X4399300Y686000D02*
X4409300D01*
X4404300Y681000D02*
Y691000D01*
X4399300Y711400D02*
X4409300D01*
X4404300Y706400D02*
Y716400D01*
X4424700Y736800D02*
X4434700D01*
X4429700Y731800D02*
Y741800D01*
X4424700Y686000D02*
X4434700D01*
X4429700Y681000D02*
Y691000D01*
X4424700Y711400D02*
X4434700D01*
X4429700Y706400D02*
Y716400D01*
X4399300Y660600D02*
X4409300D01*
X4404300Y655600D02*
Y665600D01*
X4399300Y635200D02*
X4409300D01*
X4404300Y630200D02*
Y640200D01*
X4424700Y660600D02*
X4434700D01*
X4429700Y655600D02*
Y665600D01*
X4424700Y635200D02*
X4434700D01*
X4429700Y630200D02*
Y640200D01*
X4399300Y530800D02*
X4409300D01*
X4404300Y525800D02*
Y535800D01*
X4399300Y480000D02*
X4409300D01*
X4404300Y475000D02*
Y485000D01*
X4399300Y505400D02*
X4409300D01*
X4404300Y500400D02*
Y510400D01*
X4424700Y530800D02*
X4434700D01*
X4429700Y525800D02*
Y535800D01*
X4424700Y480000D02*
X4434700D01*
X4429700Y475000D02*
Y485000D01*
X4424700Y505400D02*
X4434700D01*
X4429700Y500400D02*
Y510400D01*
X4399300Y454600D02*
X4409300D01*
X4404300Y449600D02*
Y459600D01*
X4399300Y429200D02*
X4409300D01*
X4404300Y424200D02*
Y434200D01*
X4424700Y454600D02*
X4434700D01*
X4429700Y449600D02*
Y459600D01*
X4424700Y429200D02*
X4434700D01*
X4429700Y424200D02*
Y434200D01*
X4399300Y324800D02*
X4409300D01*
X4404300Y319800D02*
Y329800D01*
X4399300Y274000D02*
X4409300D01*
X4404300Y269000D02*
Y279000D01*
X4399300Y299400D02*
X4409300D01*
X4404300Y294400D02*
Y304400D01*
X4424700Y324800D02*
X4434700D01*
X4429700Y319800D02*
Y329800D01*
X4424700Y274000D02*
X4434700D01*
X4429700Y269000D02*
Y279000D01*
X4424700Y299400D02*
X4434700D01*
X4429700Y294400D02*
Y304400D01*
X4399300Y248600D02*
X4409300D01*
X4404300Y243600D02*
Y253600D01*
X4399300Y223200D02*
X4409300D01*
X4404300Y218200D02*
Y228200D01*
X4424700Y248600D02*
X4434700D01*
X4429700Y243600D02*
Y253600D01*
X4424700Y223200D02*
X4434700D01*
X4429700Y218200D02*
Y228200D01*
X4536850Y230950D02*
X4546850D01*
X4541850Y225950D02*
Y235950D01*
X4511450Y230950D02*
X4521450D01*
X4516450Y225950D02*
Y235950D01*
X4562250Y230950D02*
X4572250D01*
X4567250Y225950D02*
Y235950D01*
X4587650Y230950D02*
X4597650D01*
X4592650Y225950D02*
Y235950D01*
X4613050Y230950D02*
X4623050D01*
X4618050Y225950D02*
Y235950D01*
X4511450Y205550D02*
X4521450D01*
X4516450Y200550D02*
Y210550D01*
X4562250Y205550D02*
X4572250D01*
X4567250Y200550D02*
Y210550D01*
X4536850Y205550D02*
X4546850D01*
X4541850Y200550D02*
Y210550D01*
X4613050Y205550D02*
X4623050D01*
X4618050Y200550D02*
Y210550D01*
X4587650Y205550D02*
X4597650D01*
X4592650Y200550D02*
Y210550D01*
X4404000Y820000D02*
X4436000D01*
X4420000Y804000D02*
Y836000D01*
X4604000Y820000D02*
X4636000D01*
X4620000Y804000D02*
Y836000D01*
X4604000Y140000D02*
X4636000D01*
X4620000Y124000D02*
Y156000D01*
X4404000Y140000D02*
X4436000D01*
X4420000Y124000D02*
Y156000D01*
X4472134Y381780D02*
X4476706D01*
X4474420Y379494D02*
Y384066D01*
X4507714Y280000D02*
X4512286D01*
X4510000Y277714D02*
Y282286D01*
X4497714Y270000D02*
X4502286D01*
X4500000Y267714D02*
Y272286D01*
X4487714Y260000D02*
X4492286D01*
X4490000Y257714D02*
Y262286D01*
X4517714Y290000D02*
X4522286D01*
X4520000Y287714D02*
Y292286D01*
X4517714Y370000D02*
X4522286D01*
X4520000Y367714D02*
Y372286D01*
X4507714Y380000D02*
X4512286D01*
X4510000Y377714D02*
Y382286D01*
X4497714Y390000D02*
X4502286D01*
X4500000Y387714D02*
Y392286D01*
X4477714Y410000D02*
X4482286D01*
X4480000Y407714D02*
Y412286D01*
X4487714Y420000D02*
X4492286D01*
X4490000Y417714D02*
Y422286D01*
X4497714Y430000D02*
X4502286D01*
X4500000Y427714D02*
Y432286D01*
X4507714Y440000D02*
X4512286D01*
X4510000Y437714D02*
Y442286D01*
X4507714Y520000D02*
X4512286D01*
X4510000Y517714D02*
Y522286D01*
X4497714Y530000D02*
X4502286D01*
X4500000Y527714D02*
Y532286D01*
X4487714Y540000D02*
X4492286D01*
X4490000Y537714D02*
Y542286D01*
X4477714Y550000D02*
X4482286D01*
X4480000Y547714D02*
Y552286D01*
X4487714Y560000D02*
X4492286D01*
X4490000Y557714D02*
Y562286D01*
X4497714Y570000D02*
X4502286D01*
X4500000Y567714D02*
Y572286D01*
X4507714Y580000D02*
X4512286D01*
X4510000Y577714D02*
Y582286D01*
X4517714Y590000D02*
X4522286D01*
X4520000Y587714D02*
Y592286D01*
X4487714Y400000D02*
X4492286D01*
X4490000Y397714D02*
Y402286D01*
X4517714Y670000D02*
X4522286D01*
X4520000Y667714D02*
Y672286D01*
X4497714Y690000D02*
X4502286D01*
X4500000Y687714D02*
Y692286D01*
X4507714Y680000D02*
X4512286D01*
X4510000Y677714D02*
Y682286D01*
X4487714Y700000D02*
X4492286D01*
X4490000Y697714D02*
Y702286D01*
X4555714Y330000D02*
X4560286D01*
X4558000Y327714D02*
Y332286D01*
X4555714Y480000D02*
X4560286D01*
X4558000Y477714D02*
Y482286D01*
X4555714Y630000D02*
X4560286D01*
X4558000Y627714D02*
Y632286D01*
X4542714Y330000D02*
X4547286D01*
X4545000Y327714D02*
Y332286D01*
X4542714Y480000D02*
X4547286D01*
X4545000Y477714D02*
Y482286D01*
X4542714Y630000D02*
X4547286D01*
X4545000Y627714D02*
Y632286D01*
X4497714Y710000D02*
X4502286D01*
X4500000Y707714D02*
Y712286D01*
X4607714Y480000D02*
X4612286D01*
X4610000Y477714D02*
Y482286D01*
X4607714Y630000D02*
X4612286D01*
X4610000Y627714D02*
Y632286D01*
X4607714Y330000D02*
X4612286D01*
X4610000Y327714D02*
Y332286D01*
X4527714Y300000D02*
X4532286D01*
X4530000Y297714D02*
Y302286D01*
X4517714Y450000D02*
X4522286D01*
X4520000Y447714D02*
Y452286D01*
X4517714Y510000D02*
X4522286D01*
X4520000Y507714D02*
Y512286D01*
X4527714Y360000D02*
X4532286D01*
X4530000Y357714D02*
Y362286D01*
X4527714Y600000D02*
X4532286D01*
X4530000Y597714D02*
Y602286D01*
X4527714Y660000D02*
X4532286D01*
X4530000Y657714D02*
Y662286D01*
X4387714Y190000D02*
X4392286D01*
X4390000Y187714D02*
Y192286D01*
X4647714Y190000D02*
X4652286D01*
X4650000Y187714D02*
Y192286D01*
X4647714Y770000D02*
X4652286D01*
X4650000Y767714D02*
Y772286D01*
X4387714Y770000D02*
X4392286D01*
X4390000Y767714D02*
Y772286D01*
X4607714Y405000D02*
X4612286D01*
X4610000Y402714D02*
Y407286D01*
X4607714Y555000D02*
X4612286D01*
X4610000Y552714D02*
Y557286D01*
X4536850Y1514200D02*
X4546850D01*
X4541850Y1509200D02*
Y1519200D01*
X4511450Y1514200D02*
X4521450D01*
X4516450Y1509200D02*
Y1519200D01*
X4562250Y1514200D02*
X4572250D01*
X4567250Y1509200D02*
Y1519200D01*
X4587650Y1514200D02*
X4597650D01*
X4592650Y1509200D02*
Y1519200D01*
X4613050Y1514200D02*
X4623050D01*
X4618050Y1509200D02*
Y1519200D01*
X4511450Y1488800D02*
X4521450D01*
X4516450Y1483800D02*
Y1493800D01*
X4562250Y1488800D02*
X4572250D01*
X4567250Y1483800D02*
Y1493800D01*
X4536850Y1488800D02*
X4546850D01*
X4541850Y1483800D02*
Y1493800D01*
X4613050Y1488800D02*
X4623050D01*
X4618050Y1483800D02*
Y1493800D01*
X4587650Y1488800D02*
X4597650D01*
X4592650Y1483800D02*
Y1493800D01*
X4399300Y1496800D02*
X4409300D01*
X4404300Y1491800D02*
Y1501800D01*
X4399300Y1446000D02*
X4409300D01*
X4404300Y1441000D02*
Y1451000D01*
X4399300Y1471400D02*
X4409300D01*
X4404300Y1466400D02*
Y1476400D01*
X4424700Y1496800D02*
X4434700D01*
X4429700Y1491800D02*
Y1501800D01*
X4424700Y1446000D02*
X4434700D01*
X4429700Y1441000D02*
Y1451000D01*
X4424700Y1471400D02*
X4434700D01*
X4429700Y1466400D02*
Y1476400D01*
X4399300Y1420600D02*
X4409300D01*
X4404300Y1415600D02*
Y1425600D01*
X4399300Y1395200D02*
X4409300D01*
X4404300Y1390200D02*
Y1400200D01*
X4424700Y1420600D02*
X4434700D01*
X4429700Y1415600D02*
Y1425600D01*
X4424700Y1395200D02*
X4434700D01*
X4429700Y1390200D02*
Y1400200D01*
X4399300Y1290800D02*
X4409300D01*
X4404300Y1285800D02*
Y1295800D01*
X4399300Y1240000D02*
X4409300D01*
X4404300Y1235000D02*
Y1245000D01*
X4399300Y1265400D02*
X4409300D01*
X4404300Y1260400D02*
Y1270400D01*
X4424700Y1290800D02*
X4434700D01*
X4429700Y1285800D02*
Y1295800D01*
X4424700Y1240000D02*
X4434700D01*
X4429700Y1235000D02*
Y1245000D01*
X4424700Y1265400D02*
X4434700D01*
X4429700Y1260400D02*
Y1270400D01*
X4399300Y1214600D02*
X4409300D01*
X4404300Y1209600D02*
Y1219600D01*
X4399300Y1189200D02*
X4409300D01*
X4404300Y1184200D02*
Y1194200D01*
X4424700Y1214600D02*
X4434700D01*
X4429700Y1209600D02*
Y1219600D01*
X4424700Y1189200D02*
X4434700D01*
X4429700Y1184200D02*
Y1194200D01*
X4399300Y1084800D02*
X4409300D01*
X4404300Y1079800D02*
Y1089800D01*
X4399300Y1034000D02*
X4409300D01*
X4404300Y1029000D02*
Y1039000D01*
X4399300Y1059400D02*
X4409300D01*
X4404300Y1054400D02*
Y1064400D01*
X4424700Y1084800D02*
X4434700D01*
X4429700Y1079800D02*
Y1089800D01*
X4424700Y1034000D02*
X4434700D01*
X4429700Y1029000D02*
Y1039000D01*
X4424700Y1059400D02*
X4434700D01*
X4429700Y1054400D02*
Y1064400D01*
X4399300Y1008600D02*
X4409300D01*
X4404300Y1003600D02*
Y1013600D01*
X4399300Y983200D02*
X4409300D01*
X4404300Y978200D02*
Y988200D01*
X4424700Y1008600D02*
X4434700D01*
X4429700Y1003600D02*
Y1013600D01*
X4424700Y983200D02*
X4434700D01*
X4429700Y978200D02*
Y988200D01*
X4536850Y990950D02*
X4546850D01*
X4541850Y985950D02*
Y995950D01*
X4511450Y990950D02*
X4521450D01*
X4516450Y985950D02*
Y995950D01*
X4562250Y990950D02*
X4572250D01*
X4567250Y985950D02*
Y995950D01*
X4587650Y990950D02*
X4597650D01*
X4592650Y985950D02*
Y995950D01*
X4613050Y990950D02*
X4623050D01*
X4618050Y985950D02*
Y995950D01*
X4511450Y965550D02*
X4521450D01*
X4516450Y960550D02*
Y970550D01*
X4562250Y965550D02*
X4572250D01*
X4567250Y960550D02*
Y970550D01*
X4536850Y965550D02*
X4546850D01*
X4541850Y960550D02*
Y970550D01*
X4613050Y965550D02*
X4623050D01*
X4618050Y960550D02*
Y970550D01*
X4587650Y965550D02*
X4597650D01*
X4592650Y960550D02*
Y970550D01*
X4404000Y1580000D02*
X4436000D01*
X4420000Y1564000D02*
Y1596000D01*
X4604000Y1580000D02*
X4636000D01*
X4620000Y1564000D02*
Y1596000D01*
X4604000Y900000D02*
X4636000D01*
X4620000Y884000D02*
Y916000D01*
X4404000Y900000D02*
X4436000D01*
X4420000Y884000D02*
Y916000D01*
X4472134Y1141780D02*
X4476706D01*
X4474420Y1139494D02*
Y1144066D01*
X4507714Y1040000D02*
X4512286D01*
X4510000Y1037714D02*
Y1042286D01*
X4497714Y1030000D02*
X4502286D01*
X4500000Y1027714D02*
Y1032286D01*
X4487714Y1020000D02*
X4492286D01*
X4490000Y1017714D02*
Y1022286D01*
X4517714Y1050000D02*
X4522286D01*
X4520000Y1047714D02*
Y1052286D01*
X4517714Y1130000D02*
X4522286D01*
X4520000Y1127714D02*
Y1132286D01*
X4507714Y1140000D02*
X4512286D01*
X4510000Y1137714D02*
Y1142286D01*
X4497714Y1150000D02*
X4502286D01*
X4500000Y1147714D02*
Y1152286D01*
X4477714Y1170000D02*
X4482286D01*
X4480000Y1167714D02*
Y1172286D01*
X4487714Y1180000D02*
X4492286D01*
X4490000Y1177714D02*
Y1182286D01*
X4497714Y1190000D02*
X4502286D01*
X4500000Y1187714D02*
Y1192286D01*
X4507714Y1200000D02*
X4512286D01*
X4510000Y1197714D02*
Y1202286D01*
X4507714Y1280000D02*
X4512286D01*
X4510000Y1277714D02*
Y1282286D01*
X4497714Y1290000D02*
X4502286D01*
X4500000Y1287714D02*
Y1292286D01*
X4487714Y1300000D02*
X4492286D01*
X4490000Y1297714D02*
Y1302286D01*
X4477714Y1310000D02*
X4482286D01*
X4480000Y1307714D02*
Y1312286D01*
X4487714Y1320000D02*
X4492286D01*
X4490000Y1317714D02*
Y1322286D01*
X4497714Y1330000D02*
X4502286D01*
X4500000Y1327714D02*
Y1332286D01*
X4507714Y1340000D02*
X4512286D01*
X4510000Y1337714D02*
Y1342286D01*
X4517714Y1350000D02*
X4522286D01*
X4520000Y1347714D02*
Y1352286D01*
X4487714Y1160000D02*
X4492286D01*
X4490000Y1157714D02*
Y1162286D01*
X4517714Y1430000D02*
X4522286D01*
X4520000Y1427714D02*
Y1432286D01*
X4497714Y1450000D02*
X4502286D01*
X4500000Y1447714D02*
Y1452286D01*
X4507714Y1440000D02*
X4512286D01*
X4510000Y1437714D02*
Y1442286D01*
X4487714Y1460000D02*
X4492286D01*
X4490000Y1457714D02*
Y1462286D01*
X4555714Y1090000D02*
X4560286D01*
X4558000Y1087714D02*
Y1092286D01*
X4555714Y1240000D02*
X4560286D01*
X4558000Y1237714D02*
Y1242286D01*
X4555714Y1390000D02*
X4560286D01*
X4558000Y1387714D02*
Y1392286D01*
X4542714Y1090000D02*
X4547286D01*
X4545000Y1087714D02*
Y1092286D01*
X4542714Y1240000D02*
X4547286D01*
X4545000Y1237714D02*
Y1242286D01*
X4542714Y1390000D02*
X4547286D01*
X4545000Y1387714D02*
Y1392286D01*
X4497714Y1470000D02*
X4502286D01*
X4500000Y1467714D02*
Y1472286D01*
X4607714Y1240000D02*
X4612286D01*
X4610000Y1237714D02*
Y1242286D01*
X4607714Y1390000D02*
X4612286D01*
X4610000Y1387714D02*
Y1392286D01*
X4607714Y1090000D02*
X4612286D01*
X4610000Y1087714D02*
Y1092286D01*
X4527714Y1060000D02*
X4532286D01*
X4530000Y1057714D02*
Y1062286D01*
X4517714Y1210000D02*
X4522286D01*
X4520000Y1207714D02*
Y1212286D01*
X4517714Y1270000D02*
X4522286D01*
X4520000Y1267714D02*
Y1272286D01*
X4527714Y1120000D02*
X4532286D01*
X4530000Y1117714D02*
Y1122286D01*
X4527714Y1360000D02*
X4532286D01*
X4530000Y1357714D02*
Y1362286D01*
X4527714Y1420000D02*
X4532286D01*
X4530000Y1417714D02*
Y1422286D01*
X4387714Y950000D02*
X4392286D01*
X4390000Y947714D02*
Y952286D01*
X4647714Y950000D02*
X4652286D01*
X4650000Y947714D02*
Y952286D01*
X4647714Y1530000D02*
X4652286D01*
X4650000Y1527714D02*
Y1532286D01*
X4387714Y1530000D02*
X4392286D01*
X4390000Y1527714D02*
Y1532286D01*
X4607714Y1165000D02*
X4612286D01*
X4610000Y1162714D02*
Y1167286D01*
X4607714Y1315000D02*
X4612286D01*
X4610000Y1312714D02*
Y1317286D01*
X4536850Y2274200D02*
X4546850D01*
X4541850Y2269200D02*
Y2279200D01*
X4511450Y2274200D02*
X4521450D01*
X4516450Y2269200D02*
Y2279200D01*
X4562250Y2274200D02*
X4572250D01*
X4567250Y2269200D02*
Y2279200D01*
X4587650Y2274200D02*
X4597650D01*
X4592650Y2269200D02*
Y2279200D01*
X4613050Y2274200D02*
X4623050D01*
X4618050Y2269200D02*
Y2279200D01*
X4511450Y2248800D02*
X4521450D01*
X4516450Y2243800D02*
Y2253800D01*
X4562250Y2248800D02*
X4572250D01*
X4567250Y2243800D02*
Y2253800D01*
X4536850Y2248800D02*
X4546850D01*
X4541850Y2243800D02*
Y2253800D01*
X4613050Y2248800D02*
X4623050D01*
X4618050Y2243800D02*
Y2253800D01*
X4587650Y2248800D02*
X4597650D01*
X4592650Y2243800D02*
Y2253800D01*
X4399300Y2256800D02*
X4409300D01*
X4404300Y2251800D02*
Y2261800D01*
X4399300Y2206000D02*
X4409300D01*
X4404300Y2201000D02*
Y2211000D01*
X4399300Y2231400D02*
X4409300D01*
X4404300Y2226400D02*
Y2236400D01*
X4424700Y2256800D02*
X4434700D01*
X4429700Y2251800D02*
Y2261800D01*
X4424700Y2206000D02*
X4434700D01*
X4429700Y2201000D02*
Y2211000D01*
X4424700Y2231400D02*
X4434700D01*
X4429700Y2226400D02*
Y2236400D01*
X4399300Y2180600D02*
X4409300D01*
X4404300Y2175600D02*
Y2185600D01*
X4399300Y2155200D02*
X4409300D01*
X4404300Y2150200D02*
Y2160200D01*
X4424700Y2180600D02*
X4434700D01*
X4429700Y2175600D02*
Y2185600D01*
X4424700Y2155200D02*
X4434700D01*
X4429700Y2150200D02*
Y2160200D01*
X4399300Y2050800D02*
X4409300D01*
X4404300Y2045800D02*
Y2055800D01*
X4399300Y2000000D02*
X4409300D01*
X4404300Y1995000D02*
Y2005000D01*
X4399300Y2025400D02*
X4409300D01*
X4404300Y2020400D02*
Y2030400D01*
X4424700Y2050800D02*
X4434700D01*
X4429700Y2045800D02*
Y2055800D01*
X4424700Y2000000D02*
X4434700D01*
X4429700Y1995000D02*
Y2005000D01*
X4424700Y2025400D02*
X4434700D01*
X4429700Y2020400D02*
Y2030400D01*
X4399300Y1974600D02*
X4409300D01*
X4404300Y1969600D02*
Y1979600D01*
X4399300Y1949200D02*
X4409300D01*
X4404300Y1944200D02*
Y1954200D01*
X4424700Y1974600D02*
X4434700D01*
X4429700Y1969600D02*
Y1979600D01*
X4424700Y1949200D02*
X4434700D01*
X4429700Y1944200D02*
Y1954200D01*
X4399300Y1844800D02*
X4409300D01*
X4404300Y1839800D02*
Y1849800D01*
X4399300Y1794000D02*
X4409300D01*
X4404300Y1789000D02*
Y1799000D01*
X4399300Y1819400D02*
X4409300D01*
X4404300Y1814400D02*
Y1824400D01*
X4424700Y1844800D02*
X4434700D01*
X4429700Y1839800D02*
Y1849800D01*
X4424700Y1794000D02*
X4434700D01*
X4429700Y1789000D02*
Y1799000D01*
X4424700Y1819400D02*
X4434700D01*
X4429700Y1814400D02*
Y1824400D01*
X4399300Y1768600D02*
X4409300D01*
X4404300Y1763600D02*
Y1773600D01*
X4399300Y1743200D02*
X4409300D01*
X4404300Y1738200D02*
Y1748200D01*
X4424700Y1768600D02*
X4434700D01*
X4429700Y1763600D02*
Y1773600D01*
X4424700Y1743200D02*
X4434700D01*
X4429700Y1738200D02*
Y1748200D01*
X4536850Y1750950D02*
X4546850D01*
X4541850Y1745950D02*
Y1755950D01*
X4511450Y1750950D02*
X4521450D01*
X4516450Y1745950D02*
Y1755950D01*
X4562250Y1750950D02*
X4572250D01*
X4567250Y1745950D02*
Y1755950D01*
X4587650Y1750950D02*
X4597650D01*
X4592650Y1745950D02*
Y1755950D01*
X4613050Y1750950D02*
X4623050D01*
X4618050Y1745950D02*
Y1755950D01*
X4511450Y1725550D02*
X4521450D01*
X4516450Y1720550D02*
Y1730550D01*
X4562250Y1725550D02*
X4572250D01*
X4567250Y1720550D02*
Y1730550D01*
X4536850Y1725550D02*
X4546850D01*
X4541850Y1720550D02*
Y1730550D01*
X4613050Y1725550D02*
X4623050D01*
X4618050Y1720550D02*
Y1730550D01*
X4587650Y1725550D02*
X4597650D01*
X4592650Y1720550D02*
Y1730550D01*
X4404000Y2340000D02*
X4436000D01*
X4420000Y2324000D02*
Y2356000D01*
X4604000Y2340000D02*
X4636000D01*
X4620000Y2324000D02*
Y2356000D01*
X4604000Y1660000D02*
X4636000D01*
X4620000Y1644000D02*
Y1676000D01*
X4404000Y1660000D02*
X4436000D01*
X4420000Y1644000D02*
Y1676000D01*
X4472134Y1901780D02*
X4476706D01*
X4474420Y1899494D02*
Y1904066D01*
X4507714Y1800000D02*
X4512286D01*
X4510000Y1797714D02*
Y1802286D01*
X4497714Y1790000D02*
X4502286D01*
X4500000Y1787714D02*
Y1792286D01*
X4487714Y1780000D02*
X4492286D01*
X4490000Y1777714D02*
Y1782286D01*
X4517714Y1810000D02*
X4522286D01*
X4520000Y1807714D02*
Y1812286D01*
X4517714Y1890000D02*
X4522286D01*
X4520000Y1887714D02*
Y1892286D01*
X4507714Y1900000D02*
X4512286D01*
X4510000Y1897714D02*
Y1902286D01*
X4497714Y1910000D02*
X4502286D01*
X4500000Y1907714D02*
Y1912286D01*
X4477714Y1930000D02*
X4482286D01*
X4480000Y1927714D02*
Y1932286D01*
X4487714Y1940000D02*
X4492286D01*
X4490000Y1937714D02*
Y1942286D01*
X4497714Y1950000D02*
X4502286D01*
X4500000Y1947714D02*
Y1952286D01*
X4507714Y1960000D02*
X4512286D01*
X4510000Y1957714D02*
Y1962286D01*
X4507714Y2040000D02*
X4512286D01*
X4510000Y2037714D02*
Y2042286D01*
X4497714Y2050000D02*
X4502286D01*
X4500000Y2047714D02*
Y2052286D01*
X4487714Y2060000D02*
X4492286D01*
X4490000Y2057714D02*
Y2062286D01*
X4477714Y2070000D02*
X4482286D01*
X4480000Y2067714D02*
Y2072286D01*
X4487714Y2080000D02*
X4492286D01*
X4490000Y2077714D02*
Y2082286D01*
X4497714Y2090000D02*
X4502286D01*
X4500000Y2087714D02*
Y2092286D01*
X4507714Y2100000D02*
X4512286D01*
X4510000Y2097714D02*
Y2102286D01*
X4517714Y2110000D02*
X4522286D01*
X4520000Y2107714D02*
Y2112286D01*
X4487714Y1920000D02*
X4492286D01*
X4490000Y1917714D02*
Y1922286D01*
X4517714Y2190000D02*
X4522286D01*
X4520000Y2187714D02*
Y2192286D01*
X4497714Y2210000D02*
X4502286D01*
X4500000Y2207714D02*
Y2212286D01*
X4507714Y2200000D02*
X4512286D01*
X4510000Y2197714D02*
Y2202286D01*
X4487714Y2220000D02*
X4492286D01*
X4490000Y2217714D02*
Y2222286D01*
X4555714Y1850000D02*
X4560286D01*
X4558000Y1847714D02*
Y1852286D01*
X4555714Y2000000D02*
X4560286D01*
X4558000Y1997714D02*
Y2002286D01*
X4555714Y2150000D02*
X4560286D01*
X4558000Y2147714D02*
Y2152286D01*
X4542714Y1850000D02*
X4547286D01*
X4545000Y1847714D02*
Y1852286D01*
X4542714Y2000000D02*
X4547286D01*
X4545000Y1997714D02*
Y2002286D01*
X4542714Y2150000D02*
X4547286D01*
X4545000Y2147714D02*
Y2152286D01*
X4497714Y2230000D02*
X4502286D01*
X4500000Y2227714D02*
Y2232286D01*
X4607714Y2000000D02*
X4612286D01*
X4610000Y1997714D02*
Y2002286D01*
X4607714Y2150000D02*
X4612286D01*
X4610000Y2147714D02*
Y2152286D01*
X4607714Y1850000D02*
X4612286D01*
X4610000Y1847714D02*
Y1852286D01*
X4527714Y1820000D02*
X4532286D01*
X4530000Y1817714D02*
Y1822286D01*
X4517714Y1970000D02*
X4522286D01*
X4520000Y1967714D02*
Y1972286D01*
X4517714Y2030000D02*
X4522286D01*
X4520000Y2027714D02*
Y2032286D01*
X4527714Y1880000D02*
X4532286D01*
X4530000Y1877714D02*
Y1882286D01*
X4527714Y2120000D02*
X4532286D01*
X4530000Y2117714D02*
Y2122286D01*
X4527714Y2180000D02*
X4532286D01*
X4530000Y2177714D02*
Y2182286D01*
X4387714Y1710000D02*
X4392286D01*
X4390000Y1707714D02*
Y1712286D01*
X4647714Y1710000D02*
X4652286D01*
X4650000Y1707714D02*
Y1712286D01*
X4647714Y2290000D02*
X4652286D01*
X4650000Y2287714D02*
Y2292286D01*
X4387714Y2290000D02*
X4392286D01*
X4390000Y2287714D02*
Y2292286D01*
X4607714Y1925000D02*
X4612286D01*
X4610000Y1922714D02*
Y1927286D01*
X4607714Y2075000D02*
X4612286D01*
X4610000Y2072714D02*
Y2077286D01*
X1680000Y260000D02*
X1690000D01*
X1685000Y255000D02*
Y265000D01*
X1680000Y310800D02*
X1690000D01*
X1685000Y305800D02*
Y315800D01*
X1629200Y209200D02*
X1639200D01*
X1634200Y204200D02*
Y214200D01*
X1730800Y310800D02*
X1740800D01*
X1735800Y305800D02*
Y315800D01*
X1579400Y272700D02*
X1587400D01*
X1583400Y268700D02*
Y276700D01*
X1579400Y247300D02*
X1587400D01*
X1583400Y243300D02*
Y251300D01*
X1680000Y490000D02*
X1690000D01*
X1685000Y485000D02*
Y495000D01*
X1680000Y540800D02*
X1690000D01*
X1685000Y535800D02*
Y545800D01*
X1629200Y439200D02*
X1639200D01*
X1634200Y434200D02*
Y444200D01*
X1730800Y540800D02*
X1740800D01*
X1735800Y535800D02*
Y545800D01*
X1579400Y502700D02*
X1587400D01*
X1583400Y498700D02*
Y506700D01*
X1579400Y477300D02*
X1587400D01*
X1583400Y473300D02*
Y481300D01*
X1680000Y830000D02*
X1690000D01*
X1685000Y825000D02*
Y835000D01*
X1680000Y880800D02*
X1690000D01*
X1685000Y875800D02*
Y885800D01*
X1629200Y779200D02*
X1639200D01*
X1634200Y774200D02*
Y784200D01*
X1730800Y880800D02*
X1740800D01*
X1735800Y875800D02*
Y885800D01*
X1579400Y842700D02*
X1587400D01*
X1583400Y838700D02*
Y846700D01*
X1579400Y817300D02*
X1587400D01*
X1583400Y813300D02*
Y821300D01*
X1680000Y1060000D02*
X1690000D01*
X1685000Y1055000D02*
Y1065000D01*
X1680000Y1110800D02*
X1690000D01*
X1685000Y1105800D02*
Y1115800D01*
X1629200Y1009200D02*
X1639200D01*
X1634200Y1004200D02*
Y1014200D01*
X1730800Y1110800D02*
X1740800D01*
X1735800Y1105800D02*
Y1115800D01*
X1579400Y1072700D02*
X1587400D01*
X1583400Y1068700D02*
Y1076700D01*
X1579400Y1047300D02*
X1587400D01*
X1583400Y1043300D02*
Y1051300D01*
X1400000Y260000D02*
X1410000D01*
X1405000Y255000D02*
Y265000D01*
X1400000Y310800D02*
X1410000D01*
X1405000Y305800D02*
Y315800D01*
X1349200Y209200D02*
X1359200D01*
X1354200Y204200D02*
Y214200D01*
X1450800Y310800D02*
X1460800D01*
X1455800Y305800D02*
Y315800D01*
X1299400Y272700D02*
X1307400D01*
X1303400Y268700D02*
Y276700D01*
X1299400Y247300D02*
X1307400D01*
X1303400Y243300D02*
Y251300D01*
X1400000Y490000D02*
X1410000D01*
X1405000Y485000D02*
Y495000D01*
X1400000Y540800D02*
X1410000D01*
X1405000Y535800D02*
Y545800D01*
X1349200Y439200D02*
X1359200D01*
X1354200Y434200D02*
Y444200D01*
X1450800Y540800D02*
X1460800D01*
X1455800Y535800D02*
Y545800D01*
X1299400Y502700D02*
X1307400D01*
X1303400Y498700D02*
Y506700D01*
X1299400Y477300D02*
X1307400D01*
X1303400Y473300D02*
Y481300D01*
X1400000Y830000D02*
X1410000D01*
X1405000Y825000D02*
Y835000D01*
X1400000Y880800D02*
X1410000D01*
X1405000Y875800D02*
Y885800D01*
X1349200Y779200D02*
X1359200D01*
X1354200Y774200D02*
Y784200D01*
X1450800Y880800D02*
X1460800D01*
X1455800Y875800D02*
Y885800D01*
X1299400Y842700D02*
X1307400D01*
X1303400Y838700D02*
Y846700D01*
X1299400Y817300D02*
X1307400D01*
X1303400Y813300D02*
Y821300D01*
X1400000Y1060000D02*
X1410000D01*
X1405000Y1055000D02*
Y1065000D01*
X1400000Y1110800D02*
X1410000D01*
X1405000Y1105800D02*
Y1115800D01*
X1349200Y1009200D02*
X1359200D01*
X1354200Y1004200D02*
Y1014200D01*
X1450800Y1110800D02*
X1460800D01*
X1455800Y1105800D02*
Y1115800D01*
X1299400Y1072700D02*
X1307400D01*
X1303400Y1068700D02*
Y1076700D01*
X1299400Y1047300D02*
X1307400D01*
X1303400Y1043300D02*
Y1051300D01*
X1120000Y260000D02*
X1130000D01*
X1125000Y255000D02*
Y265000D01*
X1120000Y310800D02*
X1130000D01*
X1125000Y305800D02*
Y315800D01*
X1069200Y209200D02*
X1079200D01*
X1074200Y204200D02*
Y214200D01*
X1170800Y310800D02*
X1180800D01*
X1175800Y305800D02*
Y315800D01*
X1019400Y272700D02*
X1027400D01*
X1023400Y268700D02*
Y276700D01*
X1019400Y247300D02*
X1027400D01*
X1023400Y243300D02*
Y251300D01*
X1120000Y490000D02*
X1130000D01*
X1125000Y485000D02*
Y495000D01*
X1120000Y540800D02*
X1130000D01*
X1125000Y535800D02*
Y545800D01*
X1069200Y439200D02*
X1079200D01*
X1074200Y434200D02*
Y444200D01*
X1170800Y540800D02*
X1180800D01*
X1175800Y535800D02*
Y545800D01*
X1019400Y502700D02*
X1027400D01*
X1023400Y498700D02*
Y506700D01*
X1019400Y477300D02*
X1027400D01*
X1023400Y473300D02*
Y481300D01*
X1120000Y830000D02*
X1130000D01*
X1125000Y825000D02*
Y835000D01*
X1120000Y880800D02*
X1130000D01*
X1125000Y875800D02*
Y885800D01*
X1069200Y779200D02*
X1079200D01*
X1074200Y774200D02*
Y784200D01*
X1170800Y880800D02*
X1180800D01*
X1175800Y875800D02*
Y885800D01*
X1019400Y842700D02*
X1027400D01*
X1023400Y838700D02*
Y846700D01*
X1019400Y817300D02*
X1027400D01*
X1023400Y813300D02*
Y821300D01*
X1120000Y1060000D02*
X1130000D01*
X1125000Y1055000D02*
Y1065000D01*
X1120000Y1110800D02*
X1130000D01*
X1125000Y1105800D02*
Y1115800D01*
X1069200Y1009200D02*
X1079200D01*
X1074200Y1004200D02*
Y1014200D01*
X1170800Y1110800D02*
X1180800D01*
X1175800Y1105800D02*
Y1115800D01*
X1019400Y1072700D02*
X1027400D01*
X1023400Y1068700D02*
Y1076700D01*
X1019400Y1047300D02*
X1027400D01*
X1023400Y1043300D02*
Y1051300D01*
X840000Y260000D02*
X850000D01*
X845000Y255000D02*
Y265000D01*
X840000Y310800D02*
X850000D01*
X845000Y305800D02*
Y315800D01*
X789200Y209200D02*
X799200D01*
X794200Y204200D02*
Y214200D01*
X890800Y310800D02*
X900800D01*
X895800Y305800D02*
Y315800D01*
X739400Y272700D02*
X747400D01*
X743400Y268700D02*
Y276700D01*
X739400Y247300D02*
X747400D01*
X743400Y243300D02*
Y251300D01*
X840000Y490000D02*
X850000D01*
X845000Y485000D02*
Y495000D01*
X840000Y540800D02*
X850000D01*
X845000Y535800D02*
Y545800D01*
X789200Y439200D02*
X799200D01*
X794200Y434200D02*
Y444200D01*
X890800Y540800D02*
X900800D01*
X895800Y535800D02*
Y545800D01*
X739400Y502700D02*
X747400D01*
X743400Y498700D02*
Y506700D01*
X739400Y477300D02*
X747400D01*
X743400Y473300D02*
Y481300D01*
X840000Y830000D02*
X850000D01*
X845000Y825000D02*
Y835000D01*
X840000Y880800D02*
X850000D01*
X845000Y875800D02*
Y885800D01*
X789200Y779200D02*
X799200D01*
X794200Y774200D02*
Y784200D01*
X890800Y880800D02*
X900800D01*
X895800Y875800D02*
Y885800D01*
X739400Y842700D02*
X747400D01*
X743400Y838700D02*
Y846700D01*
X739400Y817300D02*
X747400D01*
X743400Y813300D02*
Y821300D01*
X840000Y1060000D02*
X850000D01*
X845000Y1055000D02*
Y1065000D01*
X840000Y1110800D02*
X850000D01*
X845000Y1105800D02*
Y1115800D01*
X789200Y1009200D02*
X799200D01*
X794200Y1004200D02*
Y1014200D01*
X890800Y1110800D02*
X900800D01*
X895800Y1105800D02*
Y1115800D01*
X739400Y1072700D02*
X747400D01*
X743400Y1068700D02*
Y1076700D01*
X739400Y1047300D02*
X747400D01*
X743400Y1043300D02*
Y1051300D01*
X560000Y260000D02*
X570000D01*
X565000Y255000D02*
Y265000D01*
X560000Y310800D02*
X570000D01*
X565000Y305800D02*
Y315800D01*
X509200Y209200D02*
X519200D01*
X514200Y204200D02*
Y214200D01*
X610800Y310800D02*
X620800D01*
X615800Y305800D02*
Y315800D01*
X459400Y272700D02*
X467400D01*
X463400Y268700D02*
Y276700D01*
X459400Y247300D02*
X467400D01*
X463400Y243300D02*
Y251300D01*
X560000Y490000D02*
X570000D01*
X565000Y485000D02*
Y495000D01*
X560000Y540800D02*
X570000D01*
X565000Y535800D02*
Y545800D01*
X509200Y439200D02*
X519200D01*
X514200Y434200D02*
Y444200D01*
X610800Y540800D02*
X620800D01*
X615800Y535800D02*
Y545800D01*
X459400Y502700D02*
X467400D01*
X463400Y498700D02*
Y506700D01*
X459400Y477300D02*
X467400D01*
X463400Y473300D02*
Y481300D01*
X560000Y830000D02*
X570000D01*
X565000Y825000D02*
Y835000D01*
X560000Y880800D02*
X570000D01*
X565000Y875800D02*
Y885800D01*
X509200Y779200D02*
X519200D01*
X514200Y774200D02*
Y784200D01*
X610800Y880800D02*
X620800D01*
X615800Y875800D02*
Y885800D01*
X459400Y842700D02*
X467400D01*
X463400Y838700D02*
Y846700D01*
X459400Y817300D02*
X467400D01*
X463400Y813300D02*
Y821300D01*
X560000Y1060000D02*
X570000D01*
X565000Y1055000D02*
Y1065000D01*
X560000Y1110800D02*
X570000D01*
X565000Y1105800D02*
Y1115800D01*
X509200Y1009200D02*
X519200D01*
X514200Y1004200D02*
Y1014200D01*
X610800Y1110800D02*
X620800D01*
X615800Y1105800D02*
Y1115800D01*
X459400Y1072700D02*
X467400D01*
X463400Y1068700D02*
Y1076700D01*
X459400Y1047300D02*
X467400D01*
X463400Y1043300D02*
Y1051300D01*
X280000Y260000D02*
X290000D01*
X285000Y255000D02*
Y265000D01*
X280000Y310800D02*
X290000D01*
X285000Y305800D02*
Y315800D01*
X229200Y209200D02*
X239200D01*
X234200Y204200D02*
Y214200D01*
X330800Y310800D02*
X340800D01*
X335800Y305800D02*
Y315800D01*
X179400Y272700D02*
X187400D01*
X183400Y268700D02*
Y276700D01*
X179400Y247300D02*
X187400D01*
X183400Y243300D02*
Y251300D01*
X280000Y490000D02*
X290000D01*
X285000Y485000D02*
Y495000D01*
X280000Y540800D02*
X290000D01*
X285000Y535800D02*
Y545800D01*
X229200Y439200D02*
X239200D01*
X234200Y434200D02*
Y444200D01*
X330800Y540800D02*
X340800D01*
X335800Y535800D02*
Y545800D01*
X179400Y502700D02*
X187400D01*
X183400Y498700D02*
Y506700D01*
X179400Y477300D02*
X187400D01*
X183400Y473300D02*
Y481300D01*
X280000Y830000D02*
X290000D01*
X285000Y825000D02*
Y835000D01*
X280000Y880800D02*
X290000D01*
X285000Y875800D02*
Y885800D01*
X229200Y779200D02*
X239200D01*
X234200Y774200D02*
Y784200D01*
X330800Y880800D02*
X340800D01*
X335800Y875800D02*
Y885800D01*
X179400Y842700D02*
X187400D01*
X183400Y838700D02*
Y846700D01*
X179400Y817300D02*
X187400D01*
X183400Y813300D02*
Y821300D01*
X280000Y1060000D02*
X290000D01*
X285000Y1055000D02*
Y1065000D01*
X280000Y1110800D02*
X290000D01*
X285000Y1105800D02*
Y1115800D01*
X229200Y1009200D02*
X239200D01*
X234200Y1004200D02*
Y1014200D01*
X330800Y1110800D02*
X340800D01*
X335800Y1105800D02*
Y1115800D01*
X179400Y1072700D02*
X187400D01*
X183400Y1068700D02*
Y1076700D01*
X179400Y1047300D02*
X187400D01*
X183400Y1043300D02*
Y1051300D01*
X1554700Y1225000D02*
X1563700D01*
X1559200Y1220500D02*
Y1229500D01*
X1554700Y1250400D02*
X1563700D01*
X1559200Y1245900D02*
Y1254900D01*
X1580100Y1225000D02*
X1589100D01*
X1584600Y1220500D02*
Y1229500D01*
X1580100Y1250400D02*
X1589100D01*
X1584600Y1245900D02*
Y1254900D01*
X1605500Y1225000D02*
X1614500D01*
X1610000Y1220500D02*
Y1229500D01*
X1605500Y1250400D02*
X1614500D01*
X1610000Y1245900D02*
Y1254900D01*
X1630900Y1225000D02*
X1639900D01*
X1635400Y1220500D02*
Y1229500D01*
X1630900Y1250400D02*
X1639900D01*
X1635400Y1245900D02*
Y1254900D01*
X1656300Y1225000D02*
X1665300D01*
X1660800Y1220500D02*
Y1229500D01*
X1656300Y1250400D02*
X1665300D01*
X1660800Y1245900D02*
Y1254900D01*
X714700Y1225000D02*
X723700D01*
X719200Y1220500D02*
Y1229500D01*
X714700Y1250400D02*
X723700D01*
X719200Y1245900D02*
Y1254900D01*
X740100Y1225000D02*
X749100D01*
X744600Y1220500D02*
Y1229500D01*
X740100Y1250400D02*
X749100D01*
X744600Y1245900D02*
Y1254900D01*
X765500Y1225000D02*
X774500D01*
X770000Y1220500D02*
Y1229500D01*
X765500Y1250400D02*
X774500D01*
X770000Y1245900D02*
Y1254900D01*
X790900Y1225000D02*
X799900D01*
X795400Y1220500D02*
Y1229500D01*
X790900Y1250400D02*
X799900D01*
X795400Y1245900D02*
Y1254900D01*
X816300Y1225000D02*
X825300D01*
X820800Y1220500D02*
Y1229500D01*
X816300Y1250400D02*
X825300D01*
X820800Y1245900D02*
Y1254900D01*
X1349700Y1225000D02*
X1358700D01*
X1354200Y1220500D02*
Y1229500D01*
X1349700Y1250400D02*
X1358700D01*
X1354200Y1245900D02*
Y1254900D01*
X1375100Y1225000D02*
X1384100D01*
X1379600Y1220500D02*
Y1229500D01*
X1375100Y1250400D02*
X1384100D01*
X1379600Y1245900D02*
Y1254900D01*
X1400500Y1225000D02*
X1409500D01*
X1405000Y1220500D02*
Y1229500D01*
X1400500Y1250400D02*
X1409500D01*
X1405000Y1245900D02*
Y1254900D01*
X1425900Y1225000D02*
X1434900D01*
X1430400Y1220500D02*
Y1229500D01*
X1425900Y1250400D02*
X1434900D01*
X1430400Y1245900D02*
Y1254900D01*
X1451300Y1225000D02*
X1460300D01*
X1455800Y1220500D02*
Y1229500D01*
X1451300Y1250400D02*
X1460300D01*
X1455800Y1245900D02*
Y1254900D01*
X509700Y1225000D02*
X518700D01*
X514200Y1220500D02*
Y1229500D01*
X509700Y1250400D02*
X518700D01*
X514200Y1245900D02*
Y1254900D01*
X535100Y1225000D02*
X544100D01*
X539600Y1220500D02*
Y1229500D01*
X535100Y1250400D02*
X544100D01*
X539600Y1245900D02*
Y1254900D01*
X560500Y1225000D02*
X569500D01*
X565000Y1220500D02*
Y1229500D01*
X560500Y1250400D02*
X569500D01*
X565000Y1245900D02*
Y1254900D01*
X585900Y1225000D02*
X594900D01*
X590400Y1220500D02*
Y1229500D01*
X585900Y1250400D02*
X594900D01*
X590400Y1245900D02*
Y1254900D01*
X611300Y1225000D02*
X620300D01*
X615800Y1220500D02*
Y1229500D01*
X611300Y1250400D02*
X620300D01*
X615800Y1245900D02*
Y1254900D01*
X1144700Y1225000D02*
X1153700D01*
X1149200Y1220500D02*
Y1229500D01*
X1144700Y1250400D02*
X1153700D01*
X1149200Y1245900D02*
Y1254900D01*
X1170100Y1225000D02*
X1179100D01*
X1174600Y1220500D02*
Y1229500D01*
X1170100Y1250400D02*
X1179100D01*
X1174600Y1245900D02*
Y1254900D01*
X1195500Y1225000D02*
X1204500D01*
X1200000Y1220500D02*
Y1229500D01*
X1195500Y1250400D02*
X1204500D01*
X1200000Y1245900D02*
Y1254900D01*
X1220900Y1225000D02*
X1229900D01*
X1225400Y1220500D02*
Y1229500D01*
X1220900Y1250400D02*
X1229900D01*
X1225400Y1245900D02*
Y1254900D01*
X1246300Y1225000D02*
X1255300D01*
X1250800Y1220500D02*
Y1229500D01*
X1246300Y1250400D02*
X1255300D01*
X1250800Y1245900D02*
Y1254900D01*
X304700Y1225000D02*
X313700D01*
X309200Y1220500D02*
Y1229500D01*
X304700Y1250400D02*
X313700D01*
X309200Y1245900D02*
Y1254900D01*
X330100Y1225000D02*
X339100D01*
X334600Y1220500D02*
Y1229500D01*
X330100Y1250400D02*
X339100D01*
X334600Y1245900D02*
Y1254900D01*
X355500Y1225000D02*
X364500D01*
X360000Y1220500D02*
Y1229500D01*
X355500Y1250400D02*
X364500D01*
X360000Y1245900D02*
Y1254900D01*
X380900Y1225000D02*
X389900D01*
X385400Y1220500D02*
Y1229500D01*
X380900Y1250400D02*
X389900D01*
X385400Y1245900D02*
Y1254900D01*
X406300Y1225000D02*
X415300D01*
X410800Y1220500D02*
Y1229500D01*
X406300Y1250400D02*
X415300D01*
X410800Y1245900D02*
Y1254900D01*
X1249000Y160000D02*
X1281000D01*
X1265000Y144000D02*
Y176000D01*
X1249000Y1160000D02*
X1281000D01*
X1265000Y1144000D02*
Y1176000D01*
X1249000Y660000D02*
X1281000D01*
X1265000Y644000D02*
Y676000D01*
X689000Y1160000D02*
X721000D01*
X705000Y1144000D02*
Y1176000D01*
X689000Y160000D02*
X721000D01*
X705000Y144000D02*
Y176000D01*
X1794000Y660000D02*
X1826000D01*
X1810000Y644000D02*
Y676000D01*
X144000Y660000D02*
X176000D01*
X160000Y644000D02*
Y676000D01*
X689000Y660000D02*
X721000D01*
X705000Y644000D02*
Y676000D01*
X144000Y1160000D02*
X176000D01*
X160000Y1144000D02*
Y1176000D01*
X1794000Y1160000D02*
X1826000D01*
X1810000Y1144000D02*
Y1176000D01*
X1794000Y160000D02*
X1826000D01*
X1810000Y144000D02*
Y176000D01*
X144000Y160000D02*
X176000D01*
X160000Y144000D02*
Y176000D01*
X482714Y1225000D02*
X487286D01*
X485000Y1222714D02*
Y1227286D01*
X1457714Y1085000D02*
X1462286D01*
X1460000Y1082714D02*
Y1087286D01*
X767714Y1205000D02*
X772286D01*
X770000Y1202714D02*
Y1207286D01*
X3450000Y260000D02*
X3460000D01*
X3455000Y255000D02*
Y265000D01*
X3450000Y310800D02*
X3460000D01*
X3455000Y305800D02*
Y315800D01*
X3399200Y209200D02*
X3409200D01*
X3404200Y204200D02*
Y214200D01*
X3500800Y310800D02*
X3510800D01*
X3505800Y305800D02*
Y315800D01*
X3349400Y272700D02*
X3357400D01*
X3353400Y268700D02*
Y276700D01*
X3349400Y247300D02*
X3357400D01*
X3353400Y243300D02*
Y251300D01*
X3450000Y490000D02*
X3460000D01*
X3455000Y485000D02*
Y495000D01*
X3450000Y540800D02*
X3460000D01*
X3455000Y535800D02*
Y545800D01*
X3399200Y439200D02*
X3409200D01*
X3404200Y434200D02*
Y444200D01*
X3500800Y540800D02*
X3510800D01*
X3505800Y535800D02*
Y545800D01*
X3349400Y502700D02*
X3357400D01*
X3353400Y498700D02*
Y506700D01*
X3349400Y477300D02*
X3357400D01*
X3353400Y473300D02*
Y481300D01*
X3450000Y830000D02*
X3460000D01*
X3455000Y825000D02*
Y835000D01*
X3450000Y880800D02*
X3460000D01*
X3455000Y875800D02*
Y885800D01*
X3399200Y779200D02*
X3409200D01*
X3404200Y774200D02*
Y784200D01*
X3500800Y880800D02*
X3510800D01*
X3505800Y875800D02*
Y885800D01*
X3349400Y842700D02*
X3357400D01*
X3353400Y838700D02*
Y846700D01*
X3349400Y817300D02*
X3357400D01*
X3353400Y813300D02*
Y821300D01*
X3450000Y1060000D02*
X3460000D01*
X3455000Y1055000D02*
Y1065000D01*
X3450000Y1110800D02*
X3460000D01*
X3455000Y1105800D02*
Y1115800D01*
X3399200Y1009200D02*
X3409200D01*
X3404200Y1004200D02*
Y1014200D01*
X3500800Y1110800D02*
X3510800D01*
X3505800Y1105800D02*
Y1115800D01*
X3349400Y1072700D02*
X3357400D01*
X3353400Y1068700D02*
Y1076700D01*
X3349400Y1047300D02*
X3357400D01*
X3353400Y1043300D02*
Y1051300D01*
X3170000Y260000D02*
X3180000D01*
X3175000Y255000D02*
Y265000D01*
X3170000Y310800D02*
X3180000D01*
X3175000Y305800D02*
Y315800D01*
X3119200Y209200D02*
X3129200D01*
X3124200Y204200D02*
Y214200D01*
X3220800Y310800D02*
X3230800D01*
X3225800Y305800D02*
Y315800D01*
X3069400Y272700D02*
X3077400D01*
X3073400Y268700D02*
Y276700D01*
X3069400Y247300D02*
X3077400D01*
X3073400Y243300D02*
Y251300D01*
X3170000Y490000D02*
X3180000D01*
X3175000Y485000D02*
Y495000D01*
X3170000Y540800D02*
X3180000D01*
X3175000Y535800D02*
Y545800D01*
X3119200Y439200D02*
X3129200D01*
X3124200Y434200D02*
Y444200D01*
X3220800Y540800D02*
X3230800D01*
X3225800Y535800D02*
Y545800D01*
X3069400Y502700D02*
X3077400D01*
X3073400Y498700D02*
Y506700D01*
X3069400Y477300D02*
X3077400D01*
X3073400Y473300D02*
Y481300D01*
X3170000Y830000D02*
X3180000D01*
X3175000Y825000D02*
Y835000D01*
X3170000Y880800D02*
X3180000D01*
X3175000Y875800D02*
Y885800D01*
X3119200Y779200D02*
X3129200D01*
X3124200Y774200D02*
Y784200D01*
X3220800Y880800D02*
X3230800D01*
X3225800Y875800D02*
Y885800D01*
X3069400Y842700D02*
X3077400D01*
X3073400Y838700D02*
Y846700D01*
X3069400Y817300D02*
X3077400D01*
X3073400Y813300D02*
Y821300D01*
X3170000Y1060000D02*
X3180000D01*
X3175000Y1055000D02*
Y1065000D01*
X3170000Y1110800D02*
X3180000D01*
X3175000Y1105800D02*
Y1115800D01*
X3119200Y1009200D02*
X3129200D01*
X3124200Y1004200D02*
Y1014200D01*
X3220800Y1110800D02*
X3230800D01*
X3225800Y1105800D02*
Y1115800D01*
X3069400Y1072700D02*
X3077400D01*
X3073400Y1068700D02*
Y1076700D01*
X3069400Y1047300D02*
X3077400D01*
X3073400Y1043300D02*
Y1051300D01*
X2890000Y260000D02*
X2900000D01*
X2895000Y255000D02*
Y265000D01*
X2890000Y310800D02*
X2900000D01*
X2895000Y305800D02*
Y315800D01*
X2839200Y209200D02*
X2849200D01*
X2844200Y204200D02*
Y214200D01*
X2940800Y310800D02*
X2950800D01*
X2945800Y305800D02*
Y315800D01*
X2789400Y272700D02*
X2797400D01*
X2793400Y268700D02*
Y276700D01*
X2789400Y247300D02*
X2797400D01*
X2793400Y243300D02*
Y251300D01*
X2890000Y490000D02*
X2900000D01*
X2895000Y485000D02*
Y495000D01*
X2890000Y540800D02*
X2900000D01*
X2895000Y535800D02*
Y545800D01*
X2839200Y439200D02*
X2849200D01*
X2844200Y434200D02*
Y444200D01*
X2940800Y540800D02*
X2950800D01*
X2945800Y535800D02*
Y545800D01*
X2789400Y502700D02*
X2797400D01*
X2793400Y498700D02*
Y506700D01*
X2789400Y477300D02*
X2797400D01*
X2793400Y473300D02*
Y481300D01*
X2890000Y830000D02*
X2900000D01*
X2895000Y825000D02*
Y835000D01*
X2890000Y880800D02*
X2900000D01*
X2895000Y875800D02*
Y885800D01*
X2839200Y779200D02*
X2849200D01*
X2844200Y774200D02*
Y784200D01*
X2940800Y880800D02*
X2950800D01*
X2945800Y875800D02*
Y885800D01*
X2789400Y842700D02*
X2797400D01*
X2793400Y838700D02*
Y846700D01*
X2789400Y817300D02*
X2797400D01*
X2793400Y813300D02*
Y821300D01*
X2890000Y1060000D02*
X2900000D01*
X2895000Y1055000D02*
Y1065000D01*
X2890000Y1110800D02*
X2900000D01*
X2895000Y1105800D02*
Y1115800D01*
X2839200Y1009200D02*
X2849200D01*
X2844200Y1004200D02*
Y1014200D01*
X2940800Y1110800D02*
X2950800D01*
X2945800Y1105800D02*
Y1115800D01*
X2789400Y1072700D02*
X2797400D01*
X2793400Y1068700D02*
Y1076700D01*
X2789400Y1047300D02*
X2797400D01*
X2793400Y1043300D02*
Y1051300D01*
X2610000Y260000D02*
X2620000D01*
X2615000Y255000D02*
Y265000D01*
X2610000Y310800D02*
X2620000D01*
X2615000Y305800D02*
Y315800D01*
X2559200Y209200D02*
X2569200D01*
X2564200Y204200D02*
Y214200D01*
X2660800Y310800D02*
X2670800D01*
X2665800Y305800D02*
Y315800D01*
X2509400Y272700D02*
X2517400D01*
X2513400Y268700D02*
Y276700D01*
X2509400Y247300D02*
X2517400D01*
X2513400Y243300D02*
Y251300D01*
X2610000Y490000D02*
X2620000D01*
X2615000Y485000D02*
Y495000D01*
X2610000Y540800D02*
X2620000D01*
X2615000Y535800D02*
Y545800D01*
X2559200Y439200D02*
X2569200D01*
X2564200Y434200D02*
Y444200D01*
X2660800Y540800D02*
X2670800D01*
X2665800Y535800D02*
Y545800D01*
X2509400Y502700D02*
X2517400D01*
X2513400Y498700D02*
Y506700D01*
X2509400Y477300D02*
X2517400D01*
X2513400Y473300D02*
Y481300D01*
X2610000Y830000D02*
X2620000D01*
X2615000Y825000D02*
Y835000D01*
X2610000Y880800D02*
X2620000D01*
X2615000Y875800D02*
Y885800D01*
X2559200Y779200D02*
X2569200D01*
X2564200Y774200D02*
Y784200D01*
X2660800Y880800D02*
X2670800D01*
X2665800Y875800D02*
Y885800D01*
X2509400Y842700D02*
X2517400D01*
X2513400Y838700D02*
Y846700D01*
X2509400Y817300D02*
X2517400D01*
X2513400Y813300D02*
Y821300D01*
X2610000Y1060000D02*
X2620000D01*
X2615000Y1055000D02*
Y1065000D01*
X2610000Y1110800D02*
X2620000D01*
X2615000Y1105800D02*
Y1115800D01*
X2559200Y1009200D02*
X2569200D01*
X2564200Y1004200D02*
Y1014200D01*
X2660800Y1110800D02*
X2670800D01*
X2665800Y1105800D02*
Y1115800D01*
X2509400Y1072700D02*
X2517400D01*
X2513400Y1068700D02*
Y1076700D01*
X2509400Y1047300D02*
X2517400D01*
X2513400Y1043300D02*
Y1051300D01*
X2330000Y260000D02*
X2340000D01*
X2335000Y255000D02*
Y265000D01*
X2330000Y310800D02*
X2340000D01*
X2335000Y305800D02*
Y315800D01*
X2279200Y209200D02*
X2289200D01*
X2284200Y204200D02*
Y214200D01*
X2380800Y310800D02*
X2390800D01*
X2385800Y305800D02*
Y315800D01*
X2229400Y272700D02*
X2237400D01*
X2233400Y268700D02*
Y276700D01*
X2229400Y247300D02*
X2237400D01*
X2233400Y243300D02*
Y251300D01*
X2330000Y490000D02*
X2340000D01*
X2335000Y485000D02*
Y495000D01*
X2330000Y540800D02*
X2340000D01*
X2335000Y535800D02*
Y545800D01*
X2279200Y439200D02*
X2289200D01*
X2284200Y434200D02*
Y444200D01*
X2380800Y540800D02*
X2390800D01*
X2385800Y535800D02*
Y545800D01*
X2229400Y502700D02*
X2237400D01*
X2233400Y498700D02*
Y506700D01*
X2229400Y477300D02*
X2237400D01*
X2233400Y473300D02*
Y481300D01*
X2330000Y830000D02*
X2340000D01*
X2335000Y825000D02*
Y835000D01*
X2330000Y880800D02*
X2340000D01*
X2335000Y875800D02*
Y885800D01*
X2279200Y779200D02*
X2289200D01*
X2284200Y774200D02*
Y784200D01*
X2380800Y880800D02*
X2390800D01*
X2385800Y875800D02*
Y885800D01*
X2229400Y842700D02*
X2237400D01*
X2233400Y838700D02*
Y846700D01*
X2229400Y817300D02*
X2237400D01*
X2233400Y813300D02*
Y821300D01*
X2330000Y1060000D02*
X2340000D01*
X2335000Y1055000D02*
Y1065000D01*
X2330000Y1110800D02*
X2340000D01*
X2335000Y1105800D02*
Y1115800D01*
X2279200Y1009200D02*
X2289200D01*
X2284200Y1004200D02*
Y1014200D01*
X2380800Y1110800D02*
X2390800D01*
X2385800Y1105800D02*
Y1115800D01*
X2229400Y1072700D02*
X2237400D01*
X2233400Y1068700D02*
Y1076700D01*
X2229400Y1047300D02*
X2237400D01*
X2233400Y1043300D02*
Y1051300D01*
X2050000Y260000D02*
X2060000D01*
X2055000Y255000D02*
Y265000D01*
X2050000Y310800D02*
X2060000D01*
X2055000Y305800D02*
Y315800D01*
X1999200Y209200D02*
X2009200D01*
X2004200Y204200D02*
Y214200D01*
X2100800Y310800D02*
X2110800D01*
X2105800Y305800D02*
Y315800D01*
X1949400Y272700D02*
X1957400D01*
X1953400Y268700D02*
Y276700D01*
X1949400Y247300D02*
X1957400D01*
X1953400Y243300D02*
Y251300D01*
X2050000Y490000D02*
X2060000D01*
X2055000Y485000D02*
Y495000D01*
X2050000Y540800D02*
X2060000D01*
X2055000Y535800D02*
Y545800D01*
X1999200Y439200D02*
X2009200D01*
X2004200Y434200D02*
Y444200D01*
X2100800Y540800D02*
X2110800D01*
X2105800Y535800D02*
Y545800D01*
X1949400Y502700D02*
X1957400D01*
X1953400Y498700D02*
Y506700D01*
X1949400Y477300D02*
X1957400D01*
X1953400Y473300D02*
Y481300D01*
X2050000Y830000D02*
X2060000D01*
X2055000Y825000D02*
Y835000D01*
X2050000Y880800D02*
X2060000D01*
X2055000Y875800D02*
Y885800D01*
X1999200Y779200D02*
X2009200D01*
X2004200Y774200D02*
Y784200D01*
X2100800Y880800D02*
X2110800D01*
X2105800Y875800D02*
Y885800D01*
X1949400Y842700D02*
X1957400D01*
X1953400Y838700D02*
Y846700D01*
X1949400Y817300D02*
X1957400D01*
X1953400Y813300D02*
Y821300D01*
X2050000Y1060000D02*
X2060000D01*
X2055000Y1055000D02*
Y1065000D01*
X2050000Y1110800D02*
X2060000D01*
X2055000Y1105800D02*
Y1115800D01*
X1999200Y1009200D02*
X2009200D01*
X2004200Y1004200D02*
Y1014200D01*
X2100800Y1110800D02*
X2110800D01*
X2105800Y1105800D02*
Y1115800D01*
X1949400Y1072700D02*
X1957400D01*
X1953400Y1068700D02*
Y1076700D01*
X1949400Y1047300D02*
X1957400D01*
X1953400Y1043300D02*
Y1051300D01*
X3324700Y1225000D02*
X3333700D01*
X3329200Y1220500D02*
Y1229500D01*
X3324700Y1250400D02*
X3333700D01*
X3329200Y1245900D02*
Y1254900D01*
X3350100Y1225000D02*
X3359100D01*
X3354600Y1220500D02*
Y1229500D01*
X3350100Y1250400D02*
X3359100D01*
X3354600Y1245900D02*
Y1254900D01*
X3375500Y1225000D02*
X3384500D01*
X3380000Y1220500D02*
Y1229500D01*
X3375500Y1250400D02*
X3384500D01*
X3380000Y1245900D02*
Y1254900D01*
X3400900Y1225000D02*
X3409900D01*
X3405400Y1220500D02*
Y1229500D01*
X3400900Y1250400D02*
X3409900D01*
X3405400Y1245900D02*
Y1254900D01*
X3426300Y1225000D02*
X3435300D01*
X3430800Y1220500D02*
Y1229500D01*
X3426300Y1250400D02*
X3435300D01*
X3430800Y1245900D02*
Y1254900D01*
X2484700Y1225000D02*
X2493700D01*
X2489200Y1220500D02*
Y1229500D01*
X2484700Y1250400D02*
X2493700D01*
X2489200Y1245900D02*
Y1254900D01*
X2510100Y1225000D02*
X2519100D01*
X2514600Y1220500D02*
Y1229500D01*
X2510100Y1250400D02*
X2519100D01*
X2514600Y1245900D02*
Y1254900D01*
X2535500Y1225000D02*
X2544500D01*
X2540000Y1220500D02*
Y1229500D01*
X2535500Y1250400D02*
X2544500D01*
X2540000Y1245900D02*
Y1254900D01*
X2560900Y1225000D02*
X2569900D01*
X2565400Y1220500D02*
Y1229500D01*
X2560900Y1250400D02*
X2569900D01*
X2565400Y1245900D02*
Y1254900D01*
X2586300Y1225000D02*
X2595300D01*
X2590800Y1220500D02*
Y1229500D01*
X2586300Y1250400D02*
X2595300D01*
X2590800Y1245900D02*
Y1254900D01*
X3119700Y1225000D02*
X3128700D01*
X3124200Y1220500D02*
Y1229500D01*
X3119700Y1250400D02*
X3128700D01*
X3124200Y1245900D02*
Y1254900D01*
X3145100Y1225000D02*
X3154100D01*
X3149600Y1220500D02*
Y1229500D01*
X3145100Y1250400D02*
X3154100D01*
X3149600Y1245900D02*
Y1254900D01*
X3170500Y1225000D02*
X3179500D01*
X3175000Y1220500D02*
Y1229500D01*
X3170500Y1250400D02*
X3179500D01*
X3175000Y1245900D02*
Y1254900D01*
X3195900Y1225000D02*
X3204900D01*
X3200400Y1220500D02*
Y1229500D01*
X3195900Y1250400D02*
X3204900D01*
X3200400Y1245900D02*
Y1254900D01*
X3221300Y1225000D02*
X3230300D01*
X3225800Y1220500D02*
Y1229500D01*
X3221300Y1250400D02*
X3230300D01*
X3225800Y1245900D02*
Y1254900D01*
X2279700Y1225000D02*
X2288700D01*
X2284200Y1220500D02*
Y1229500D01*
X2279700Y1250400D02*
X2288700D01*
X2284200Y1245900D02*
Y1254900D01*
X2305100Y1225000D02*
X2314100D01*
X2309600Y1220500D02*
Y1229500D01*
X2305100Y1250400D02*
X2314100D01*
X2309600Y1245900D02*
Y1254900D01*
X2330500Y1225000D02*
X2339500D01*
X2335000Y1220500D02*
Y1229500D01*
X2330500Y1250400D02*
X2339500D01*
X2335000Y1245900D02*
Y1254900D01*
X2355900Y1225000D02*
X2364900D01*
X2360400Y1220500D02*
Y1229500D01*
X2355900Y1250400D02*
X2364900D01*
X2360400Y1245900D02*
Y1254900D01*
X2381300Y1225000D02*
X2390300D01*
X2385800Y1220500D02*
Y1229500D01*
X2381300Y1250400D02*
X2390300D01*
X2385800Y1245900D02*
Y1254900D01*
X2914700Y1225000D02*
X2923700D01*
X2919200Y1220500D02*
Y1229500D01*
X2914700Y1250400D02*
X2923700D01*
X2919200Y1245900D02*
Y1254900D01*
X2940100Y1225000D02*
X2949100D01*
X2944600Y1220500D02*
Y1229500D01*
X2940100Y1250400D02*
X2949100D01*
X2944600Y1245900D02*
Y1254900D01*
X2965500Y1225000D02*
X2974500D01*
X2970000Y1220500D02*
Y1229500D01*
X2965500Y1250400D02*
X2974500D01*
X2970000Y1245900D02*
Y1254900D01*
X2990900Y1225000D02*
X2999900D01*
X2995400Y1220500D02*
Y1229500D01*
X2990900Y1250400D02*
X2999900D01*
X2995400Y1245900D02*
Y1254900D01*
X3016300Y1225000D02*
X3025300D01*
X3020800Y1220500D02*
Y1229500D01*
X3016300Y1250400D02*
X3025300D01*
X3020800Y1245900D02*
Y1254900D01*
X2074700Y1225000D02*
X2083700D01*
X2079200Y1220500D02*
Y1229500D01*
X2074700Y1250400D02*
X2083700D01*
X2079200Y1245900D02*
Y1254900D01*
X2100100Y1225000D02*
X2109100D01*
X2104600Y1220500D02*
Y1229500D01*
X2100100Y1250400D02*
X2109100D01*
X2104600Y1245900D02*
Y1254900D01*
X2125500Y1225000D02*
X2134500D01*
X2130000Y1220500D02*
Y1229500D01*
X2125500Y1250400D02*
X2134500D01*
X2130000Y1245900D02*
Y1254900D01*
X2150900Y1225000D02*
X2159900D01*
X2155400Y1220500D02*
Y1229500D01*
X2150900Y1250400D02*
X2159900D01*
X2155400Y1245900D02*
Y1254900D01*
X2176300Y1225000D02*
X2185300D01*
X2180800Y1220500D02*
Y1229500D01*
X2176300Y1250400D02*
X2185300D01*
X2180800Y1245900D02*
Y1254900D01*
X3019000Y160000D02*
X3051000D01*
X3035000Y144000D02*
Y176000D01*
X3019000Y1160000D02*
X3051000D01*
X3035000Y1144000D02*
Y1176000D01*
X3019000Y660000D02*
X3051000D01*
X3035000Y644000D02*
Y676000D01*
X2459000Y1160000D02*
X2491000D01*
X2475000Y1144000D02*
Y1176000D01*
X2459000Y160000D02*
X2491000D01*
X2475000Y144000D02*
Y176000D01*
X3564000Y660000D02*
X3596000D01*
X3580000Y644000D02*
Y676000D01*
X1914000Y660000D02*
X1946000D01*
X1930000Y644000D02*
Y676000D01*
X2459000Y660000D02*
X2491000D01*
X2475000Y644000D02*
Y676000D01*
X1914000Y1160000D02*
X1946000D01*
X1930000Y1144000D02*
Y1176000D01*
X3564000Y1160000D02*
X3596000D01*
X3580000Y1144000D02*
Y1176000D01*
X3564000Y160000D02*
X3596000D01*
X3580000Y144000D02*
Y176000D01*
X1914000Y160000D02*
X1946000D01*
X1930000Y144000D02*
Y176000D01*
X2252714Y1225000D02*
X2257286D01*
X2255000Y1222714D02*
Y1227286D01*
X3227714Y1085000D02*
X3232286D01*
X3230000Y1082714D02*
Y1087286D01*
X2537714Y1205000D02*
X2542286D01*
X2540000Y1202714D02*
Y1207286D01*
X1680000Y1530000D02*
X1690000D01*
X1685000Y1525000D02*
Y1535000D01*
X1680000Y1580800D02*
X1690000D01*
X1685000Y1575800D02*
Y1585800D01*
X1629200Y1479200D02*
X1639200D01*
X1634200Y1474200D02*
Y1484200D01*
X1730800Y1580800D02*
X1740800D01*
X1735800Y1575800D02*
Y1585800D01*
X1579400Y1542700D02*
X1587400D01*
X1583400Y1538700D02*
Y1546700D01*
X1579400Y1517300D02*
X1587400D01*
X1583400Y1513300D02*
Y1521300D01*
X1680000Y1760000D02*
X1690000D01*
X1685000Y1755000D02*
Y1765000D01*
X1680000Y1810800D02*
X1690000D01*
X1685000Y1805800D02*
Y1815800D01*
X1629200Y1709200D02*
X1639200D01*
X1634200Y1704200D02*
Y1714200D01*
X1730800Y1810800D02*
X1740800D01*
X1735800Y1805800D02*
Y1815800D01*
X1579400Y1772700D02*
X1587400D01*
X1583400Y1768700D02*
Y1776700D01*
X1579400Y1747300D02*
X1587400D01*
X1583400Y1743300D02*
Y1751300D01*
X1680000Y2100000D02*
X1690000D01*
X1685000Y2095000D02*
Y2105000D01*
X1680000Y2150800D02*
X1690000D01*
X1685000Y2145800D02*
Y2155800D01*
X1629200Y2049200D02*
X1639200D01*
X1634200Y2044200D02*
Y2054200D01*
X1730800Y2150800D02*
X1740800D01*
X1735800Y2145800D02*
Y2155800D01*
X1579400Y2112700D02*
X1587400D01*
X1583400Y2108700D02*
Y2116700D01*
X1579400Y2087300D02*
X1587400D01*
X1583400Y2083300D02*
Y2091300D01*
X1680000Y2330000D02*
X1690000D01*
X1685000Y2325000D02*
Y2335000D01*
X1680000Y2380800D02*
X1690000D01*
X1685000Y2375800D02*
Y2385800D01*
X1629200Y2279200D02*
X1639200D01*
X1634200Y2274200D02*
Y2284200D01*
X1730800Y2380800D02*
X1740800D01*
X1735800Y2375800D02*
Y2385800D01*
X1579400Y2342700D02*
X1587400D01*
X1583400Y2338700D02*
Y2346700D01*
X1579400Y2317300D02*
X1587400D01*
X1583400Y2313300D02*
Y2321300D01*
X1400000Y1530000D02*
X1410000D01*
X1405000Y1525000D02*
Y1535000D01*
X1400000Y1580800D02*
X1410000D01*
X1405000Y1575800D02*
Y1585800D01*
X1349200Y1479200D02*
X1359200D01*
X1354200Y1474200D02*
Y1484200D01*
X1450800Y1580800D02*
X1460800D01*
X1455800Y1575800D02*
Y1585800D01*
X1299400Y1542700D02*
X1307400D01*
X1303400Y1538700D02*
Y1546700D01*
X1299400Y1517300D02*
X1307400D01*
X1303400Y1513300D02*
Y1521300D01*
X1400000Y1760000D02*
X1410000D01*
X1405000Y1755000D02*
Y1765000D01*
X1400000Y1810800D02*
X1410000D01*
X1405000Y1805800D02*
Y1815800D01*
X1349200Y1709200D02*
X1359200D01*
X1354200Y1704200D02*
Y1714200D01*
X1450800Y1810800D02*
X1460800D01*
X1455800Y1805800D02*
Y1815800D01*
X1299400Y1772700D02*
X1307400D01*
X1303400Y1768700D02*
Y1776700D01*
X1299400Y1747300D02*
X1307400D01*
X1303400Y1743300D02*
Y1751300D01*
X1400000Y2100000D02*
X1410000D01*
X1405000Y2095000D02*
Y2105000D01*
X1400000Y2150800D02*
X1410000D01*
X1405000Y2145800D02*
Y2155800D01*
X1349200Y2049200D02*
X1359200D01*
X1354200Y2044200D02*
Y2054200D01*
X1450800Y2150800D02*
X1460800D01*
X1455800Y2145800D02*
Y2155800D01*
X1299400Y2112700D02*
X1307400D01*
X1303400Y2108700D02*
Y2116700D01*
X1299400Y2087300D02*
X1307400D01*
X1303400Y2083300D02*
Y2091300D01*
X1400000Y2330000D02*
X1410000D01*
X1405000Y2325000D02*
Y2335000D01*
X1400000Y2380800D02*
X1410000D01*
X1405000Y2375800D02*
Y2385800D01*
X1349200Y2279200D02*
X1359200D01*
X1354200Y2274200D02*
Y2284200D01*
X1450800Y2380800D02*
X1460800D01*
X1455800Y2375800D02*
Y2385800D01*
X1299400Y2342700D02*
X1307400D01*
X1303400Y2338700D02*
Y2346700D01*
X1299400Y2317300D02*
X1307400D01*
X1303400Y2313300D02*
Y2321300D01*
X1120000Y1530000D02*
X1130000D01*
X1125000Y1525000D02*
Y1535000D01*
X1120000Y1580800D02*
X1130000D01*
X1125000Y1575800D02*
Y1585800D01*
X1069200Y1479200D02*
X1079200D01*
X1074200Y1474200D02*
Y1484200D01*
X1170800Y1580800D02*
X1180800D01*
X1175800Y1575800D02*
Y1585800D01*
X1019400Y1542700D02*
X1027400D01*
X1023400Y1538700D02*
Y1546700D01*
X1019400Y1517300D02*
X1027400D01*
X1023400Y1513300D02*
Y1521300D01*
X1120000Y1760000D02*
X1130000D01*
X1125000Y1755000D02*
Y1765000D01*
X1120000Y1810800D02*
X1130000D01*
X1125000Y1805800D02*
Y1815800D01*
X1069200Y1709200D02*
X1079200D01*
X1074200Y1704200D02*
Y1714200D01*
X1170800Y1810800D02*
X1180800D01*
X1175800Y1805800D02*
Y1815800D01*
X1019400Y1772700D02*
X1027400D01*
X1023400Y1768700D02*
Y1776700D01*
X1019400Y1747300D02*
X1027400D01*
X1023400Y1743300D02*
Y1751300D01*
X1120000Y2100000D02*
X1130000D01*
X1125000Y2095000D02*
Y2105000D01*
X1120000Y2150800D02*
X1130000D01*
X1125000Y2145800D02*
Y2155800D01*
X1069200Y2049200D02*
X1079200D01*
X1074200Y2044200D02*
Y2054200D01*
X1170800Y2150800D02*
X1180800D01*
X1175800Y2145800D02*
Y2155800D01*
X1019400Y2112700D02*
X1027400D01*
X1023400Y2108700D02*
Y2116700D01*
X1019400Y2087300D02*
X1027400D01*
X1023400Y2083300D02*
Y2091300D01*
X1120000Y2330000D02*
X1130000D01*
X1125000Y2325000D02*
Y2335000D01*
X1120000Y2380800D02*
X1130000D01*
X1125000Y2375800D02*
Y2385800D01*
X1069200Y2279200D02*
X1079200D01*
X1074200Y2274200D02*
Y2284200D01*
X1170800Y2380800D02*
X1180800D01*
X1175800Y2375800D02*
Y2385800D01*
X1019400Y2342700D02*
X1027400D01*
X1023400Y2338700D02*
Y2346700D01*
X1019400Y2317300D02*
X1027400D01*
X1023400Y2313300D02*
Y2321300D01*
X840000Y1530000D02*
X850000D01*
X845000Y1525000D02*
Y1535000D01*
X840000Y1580800D02*
X850000D01*
X845000Y1575800D02*
Y1585800D01*
X789200Y1479200D02*
X799200D01*
X794200Y1474200D02*
Y1484200D01*
X890800Y1580800D02*
X900800D01*
X895800Y1575800D02*
Y1585800D01*
X739400Y1542700D02*
X747400D01*
X743400Y1538700D02*
Y1546700D01*
X739400Y1517300D02*
X747400D01*
X743400Y1513300D02*
Y1521300D01*
X840000Y1760000D02*
X850000D01*
X845000Y1755000D02*
Y1765000D01*
X840000Y1810800D02*
X850000D01*
X845000Y1805800D02*
Y1815800D01*
X789200Y1709200D02*
X799200D01*
X794200Y1704200D02*
Y1714200D01*
X890800Y1810800D02*
X900800D01*
X895800Y1805800D02*
Y1815800D01*
X739400Y1772700D02*
X747400D01*
X743400Y1768700D02*
Y1776700D01*
X739400Y1747300D02*
X747400D01*
X743400Y1743300D02*
Y1751300D01*
X840000Y2100000D02*
X850000D01*
X845000Y2095000D02*
Y2105000D01*
X840000Y2150800D02*
X850000D01*
X845000Y2145800D02*
Y2155800D01*
X789200Y2049200D02*
X799200D01*
X794200Y2044200D02*
Y2054200D01*
X890800Y2150800D02*
X900800D01*
X895800Y2145800D02*
Y2155800D01*
X739400Y2112700D02*
X747400D01*
X743400Y2108700D02*
Y2116700D01*
X739400Y2087300D02*
X747400D01*
X743400Y2083300D02*
Y2091300D01*
X840000Y2330000D02*
X850000D01*
X845000Y2325000D02*
Y2335000D01*
X840000Y2380800D02*
X850000D01*
X845000Y2375800D02*
Y2385800D01*
X789200Y2279200D02*
X799200D01*
X794200Y2274200D02*
Y2284200D01*
X890800Y2380800D02*
X900800D01*
X895800Y2375800D02*
Y2385800D01*
X739400Y2342700D02*
X747400D01*
X743400Y2338700D02*
Y2346700D01*
X739400Y2317300D02*
X747400D01*
X743400Y2313300D02*
Y2321300D01*
X560000Y1530000D02*
X570000D01*
X565000Y1525000D02*
Y1535000D01*
X560000Y1580800D02*
X570000D01*
X565000Y1575800D02*
Y1585800D01*
X509200Y1479200D02*
X519200D01*
X514200Y1474200D02*
Y1484200D01*
X610800Y1580800D02*
X620800D01*
X615800Y1575800D02*
Y1585800D01*
X459400Y1542700D02*
X467400D01*
X463400Y1538700D02*
Y1546700D01*
X459400Y1517300D02*
X467400D01*
X463400Y1513300D02*
Y1521300D01*
X560000Y1760000D02*
X570000D01*
X565000Y1755000D02*
Y1765000D01*
X560000Y1810800D02*
X570000D01*
X565000Y1805800D02*
Y1815800D01*
X509200Y1709200D02*
X519200D01*
X514200Y1704200D02*
Y1714200D01*
X610800Y1810800D02*
X620800D01*
X615800Y1805800D02*
Y1815800D01*
X459400Y1772700D02*
X467400D01*
X463400Y1768700D02*
Y1776700D01*
X459400Y1747300D02*
X467400D01*
X463400Y1743300D02*
Y1751300D01*
X560000Y2100000D02*
X570000D01*
X565000Y2095000D02*
Y2105000D01*
X560000Y2150800D02*
X570000D01*
X565000Y2145800D02*
Y2155800D01*
X509200Y2049200D02*
X519200D01*
X514200Y2044200D02*
Y2054200D01*
X610800Y2150800D02*
X620800D01*
X615800Y2145800D02*
Y2155800D01*
X459400Y2112700D02*
X467400D01*
X463400Y2108700D02*
Y2116700D01*
X459400Y2087300D02*
X467400D01*
X463400Y2083300D02*
Y2091300D01*
X560000Y2330000D02*
X570000D01*
X565000Y2325000D02*
Y2335000D01*
X560000Y2380800D02*
X570000D01*
X565000Y2375800D02*
Y2385800D01*
X509200Y2279200D02*
X519200D01*
X514200Y2274200D02*
Y2284200D01*
X610800Y2380800D02*
X620800D01*
X615800Y2375800D02*
Y2385800D01*
X459400Y2342700D02*
X467400D01*
X463400Y2338700D02*
Y2346700D01*
X459400Y2317300D02*
X467400D01*
X463400Y2313300D02*
Y2321300D01*
X280000Y1530000D02*
X290000D01*
X285000Y1525000D02*
Y1535000D01*
X280000Y1580800D02*
X290000D01*
X285000Y1575800D02*
Y1585800D01*
X229200Y1479200D02*
X239200D01*
X234200Y1474200D02*
Y1484200D01*
X330800Y1580800D02*
X340800D01*
X335800Y1575800D02*
Y1585800D01*
X179400Y1542700D02*
X187400D01*
X183400Y1538700D02*
Y1546700D01*
X179400Y1517300D02*
X187400D01*
X183400Y1513300D02*
Y1521300D01*
X280000Y1760000D02*
X290000D01*
X285000Y1755000D02*
Y1765000D01*
X280000Y1810800D02*
X290000D01*
X285000Y1805800D02*
Y1815800D01*
X229200Y1709200D02*
X239200D01*
X234200Y1704200D02*
Y1714200D01*
X330800Y1810800D02*
X340800D01*
X335800Y1805800D02*
Y1815800D01*
X179400Y1772700D02*
X187400D01*
X183400Y1768700D02*
Y1776700D01*
X179400Y1747300D02*
X187400D01*
X183400Y1743300D02*
Y1751300D01*
X280000Y2100000D02*
X290000D01*
X285000Y2095000D02*
Y2105000D01*
X280000Y2150800D02*
X290000D01*
X285000Y2145800D02*
Y2155800D01*
X229200Y2049200D02*
X239200D01*
X234200Y2044200D02*
Y2054200D01*
X330800Y2150800D02*
X340800D01*
X335800Y2145800D02*
Y2155800D01*
X179400Y2112700D02*
X187400D01*
X183400Y2108700D02*
Y2116700D01*
X179400Y2087300D02*
X187400D01*
X183400Y2083300D02*
Y2091300D01*
X280000Y2330000D02*
X290000D01*
X285000Y2325000D02*
Y2335000D01*
X280000Y2380800D02*
X290000D01*
X285000Y2375800D02*
Y2385800D01*
X229200Y2279200D02*
X239200D01*
X234200Y2274200D02*
Y2284200D01*
X330800Y2380800D02*
X340800D01*
X335800Y2375800D02*
Y2385800D01*
X179400Y2342700D02*
X187400D01*
X183400Y2338700D02*
Y2346700D01*
X179400Y2317300D02*
X187400D01*
X183400Y2313300D02*
Y2321300D01*
X1554700Y2495000D02*
X1563700D01*
X1559200Y2490500D02*
Y2499500D01*
X1554700Y2520400D02*
X1563700D01*
X1559200Y2515900D02*
Y2524900D01*
X1580100Y2495000D02*
X1589100D01*
X1584600Y2490500D02*
Y2499500D01*
X1580100Y2520400D02*
X1589100D01*
X1584600Y2515900D02*
Y2524900D01*
X1605500Y2495000D02*
X1614500D01*
X1610000Y2490500D02*
Y2499500D01*
X1605500Y2520400D02*
X1614500D01*
X1610000Y2515900D02*
Y2524900D01*
X1630900Y2495000D02*
X1639900D01*
X1635400Y2490500D02*
Y2499500D01*
X1630900Y2520400D02*
X1639900D01*
X1635400Y2515900D02*
Y2524900D01*
X1656300Y2495000D02*
X1665300D01*
X1660800Y2490500D02*
Y2499500D01*
X1656300Y2520400D02*
X1665300D01*
X1660800Y2515900D02*
Y2524900D01*
X714700Y2495000D02*
X723700D01*
X719200Y2490500D02*
Y2499500D01*
X714700Y2520400D02*
X723700D01*
X719200Y2515900D02*
Y2524900D01*
X740100Y2495000D02*
X749100D01*
X744600Y2490500D02*
Y2499500D01*
X740100Y2520400D02*
X749100D01*
X744600Y2515900D02*
Y2524900D01*
X765500Y2495000D02*
X774500D01*
X770000Y2490500D02*
Y2499500D01*
X765500Y2520400D02*
X774500D01*
X770000Y2515900D02*
Y2524900D01*
X790900Y2495000D02*
X799900D01*
X795400Y2490500D02*
Y2499500D01*
X790900Y2520400D02*
X799900D01*
X795400Y2515900D02*
Y2524900D01*
X816300Y2495000D02*
X825300D01*
X820800Y2490500D02*
Y2499500D01*
X816300Y2520400D02*
X825300D01*
X820800Y2515900D02*
Y2524900D01*
X1349700Y2495000D02*
X1358700D01*
X1354200Y2490500D02*
Y2499500D01*
X1349700Y2520400D02*
X1358700D01*
X1354200Y2515900D02*
Y2524900D01*
X1375100Y2495000D02*
X1384100D01*
X1379600Y2490500D02*
Y2499500D01*
X1375100Y2520400D02*
X1384100D01*
X1379600Y2515900D02*
Y2524900D01*
X1400500Y2495000D02*
X1409500D01*
X1405000Y2490500D02*
Y2499500D01*
X1400500Y2520400D02*
X1409500D01*
X1405000Y2515900D02*
Y2524900D01*
X1425900Y2495000D02*
X1434900D01*
X1430400Y2490500D02*
Y2499500D01*
X1425900Y2520400D02*
X1434900D01*
X1430400Y2515900D02*
Y2524900D01*
X1451300Y2495000D02*
X1460300D01*
X1455800Y2490500D02*
Y2499500D01*
X1451300Y2520400D02*
X1460300D01*
X1455800Y2515900D02*
Y2524900D01*
X509700Y2495000D02*
X518700D01*
X514200Y2490500D02*
Y2499500D01*
X509700Y2520400D02*
X518700D01*
X514200Y2515900D02*
Y2524900D01*
X535100Y2495000D02*
X544100D01*
X539600Y2490500D02*
Y2499500D01*
X535100Y2520400D02*
X544100D01*
X539600Y2515900D02*
Y2524900D01*
X560500Y2495000D02*
X569500D01*
X565000Y2490500D02*
Y2499500D01*
X560500Y2520400D02*
X569500D01*
X565000Y2515900D02*
Y2524900D01*
X585900Y2495000D02*
X594900D01*
X590400Y2490500D02*
Y2499500D01*
X585900Y2520400D02*
X594900D01*
X590400Y2515900D02*
Y2524900D01*
X611300Y2495000D02*
X620300D01*
X615800Y2490500D02*
Y2499500D01*
X611300Y2520400D02*
X620300D01*
X615800Y2515900D02*
Y2524900D01*
X1144700Y2495000D02*
X1153700D01*
X1149200Y2490500D02*
Y2499500D01*
X1144700Y2520400D02*
X1153700D01*
X1149200Y2515900D02*
Y2524900D01*
X1170100Y2495000D02*
X1179100D01*
X1174600Y2490500D02*
Y2499500D01*
X1170100Y2520400D02*
X1179100D01*
X1174600Y2515900D02*
Y2524900D01*
X1195500Y2495000D02*
X1204500D01*
X1200000Y2490500D02*
Y2499500D01*
X1195500Y2520400D02*
X1204500D01*
X1200000Y2515900D02*
Y2524900D01*
X1220900Y2495000D02*
X1229900D01*
X1225400Y2490500D02*
Y2499500D01*
X1220900Y2520400D02*
X1229900D01*
X1225400Y2515900D02*
Y2524900D01*
X1246300Y2495000D02*
X1255300D01*
X1250800Y2490500D02*
Y2499500D01*
X1246300Y2520400D02*
X1255300D01*
X1250800Y2515900D02*
Y2524900D01*
X304700Y2495000D02*
X313700D01*
X309200Y2490500D02*
Y2499500D01*
X304700Y2520400D02*
X313700D01*
X309200Y2515900D02*
Y2524900D01*
X330100Y2495000D02*
X339100D01*
X334600Y2490500D02*
Y2499500D01*
X330100Y2520400D02*
X339100D01*
X334600Y2515900D02*
Y2524900D01*
X355500Y2495000D02*
X364500D01*
X360000Y2490500D02*
Y2499500D01*
X355500Y2520400D02*
X364500D01*
X360000Y2515900D02*
Y2524900D01*
X380900Y2495000D02*
X389900D01*
X385400Y2490500D02*
Y2499500D01*
X380900Y2520400D02*
X389900D01*
X385400Y2515900D02*
Y2524900D01*
X406300Y2495000D02*
X415300D01*
X410800Y2490500D02*
Y2499500D01*
X406300Y2520400D02*
X415300D01*
X410800Y2515900D02*
Y2524900D01*
X1249000Y1430000D02*
X1281000D01*
X1265000Y1414000D02*
Y1446000D01*
X1249000Y2430000D02*
X1281000D01*
X1265000Y2414000D02*
Y2446000D01*
X1249000Y1930000D02*
X1281000D01*
X1265000Y1914000D02*
Y1946000D01*
X689000Y2430000D02*
X721000D01*
X705000Y2414000D02*
Y2446000D01*
X689000Y1430000D02*
X721000D01*
X705000Y1414000D02*
Y1446000D01*
X1794000Y1930000D02*
X1826000D01*
X1810000Y1914000D02*
Y1946000D01*
X144000Y1930000D02*
X176000D01*
X160000Y1914000D02*
Y1946000D01*
X689000Y1930000D02*
X721000D01*
X705000Y1914000D02*
Y1946000D01*
X144000Y2430000D02*
X176000D01*
X160000Y2414000D02*
Y2446000D01*
X1794000Y2430000D02*
X1826000D01*
X1810000Y2414000D02*
Y2446000D01*
X1794000Y1430000D02*
X1826000D01*
X1810000Y1414000D02*
Y1446000D01*
X144000Y1430000D02*
X176000D01*
X160000Y1414000D02*
Y1446000D01*
X482714Y2495000D02*
X487286D01*
X485000Y2492714D02*
Y2497286D01*
X1457714Y2355000D02*
X1462286D01*
X1460000Y2352714D02*
Y2357286D01*
X767714Y2475000D02*
X772286D01*
X770000Y2472714D02*
Y2477286D01*
X3450000Y1530000D02*
X3460000D01*
X3455000Y1525000D02*
Y1535000D01*
X3450000Y1580800D02*
X3460000D01*
X3455000Y1575800D02*
Y1585800D01*
X3399200Y1479200D02*
X3409200D01*
X3404200Y1474200D02*
Y1484200D01*
X3500800Y1580800D02*
X3510800D01*
X3505800Y1575800D02*
Y1585800D01*
X3349400Y1542700D02*
X3357400D01*
X3353400Y1538700D02*
Y1546700D01*
X3349400Y1517300D02*
X3357400D01*
X3353400Y1513300D02*
Y1521300D01*
X3450000Y1760000D02*
X3460000D01*
X3455000Y1755000D02*
Y1765000D01*
X3450000Y1810800D02*
X3460000D01*
X3455000Y1805800D02*
Y1815800D01*
X3399200Y1709200D02*
X3409200D01*
X3404200Y1704200D02*
Y1714200D01*
X3500800Y1810800D02*
X3510800D01*
X3505800Y1805800D02*
Y1815800D01*
X3349400Y1772700D02*
X3357400D01*
X3353400Y1768700D02*
Y1776700D01*
X3349400Y1747300D02*
X3357400D01*
X3353400Y1743300D02*
Y1751300D01*
X3450000Y2100000D02*
X3460000D01*
X3455000Y2095000D02*
Y2105000D01*
X3450000Y2150800D02*
X3460000D01*
X3455000Y2145800D02*
Y2155800D01*
X3399200Y2049200D02*
X3409200D01*
X3404200Y2044200D02*
Y2054200D01*
X3500800Y2150800D02*
X3510800D01*
X3505800Y2145800D02*
Y2155800D01*
X3349400Y2112700D02*
X3357400D01*
X3353400Y2108700D02*
Y2116700D01*
X3349400Y2087300D02*
X3357400D01*
X3353400Y2083300D02*
Y2091300D01*
X3450000Y2330000D02*
X3460000D01*
X3455000Y2325000D02*
Y2335000D01*
X3450000Y2380800D02*
X3460000D01*
X3455000Y2375800D02*
Y2385800D01*
X3399200Y2279200D02*
X3409200D01*
X3404200Y2274200D02*
Y2284200D01*
X3500800Y2380800D02*
X3510800D01*
X3505800Y2375800D02*
Y2385800D01*
X3349400Y2342700D02*
X3357400D01*
X3353400Y2338700D02*
Y2346700D01*
X3349400Y2317300D02*
X3357400D01*
X3353400Y2313300D02*
Y2321300D01*
X3170000Y1530000D02*
X3180000D01*
X3175000Y1525000D02*
Y1535000D01*
X3170000Y1580800D02*
X3180000D01*
X3175000Y1575800D02*
Y1585800D01*
X3119200Y1479200D02*
X3129200D01*
X3124200Y1474200D02*
Y1484200D01*
X3220800Y1580800D02*
X3230800D01*
X3225800Y1575800D02*
Y1585800D01*
X3069400Y1542700D02*
X3077400D01*
X3073400Y1538700D02*
Y1546700D01*
X3069400Y1517300D02*
X3077400D01*
X3073400Y1513300D02*
Y1521300D01*
X3170000Y1760000D02*
X3180000D01*
X3175000Y1755000D02*
Y1765000D01*
X3170000Y1810800D02*
X3180000D01*
X3175000Y1805800D02*
Y1815800D01*
X3119200Y1709200D02*
X3129200D01*
X3124200Y1704200D02*
Y1714200D01*
X3220800Y1810800D02*
X3230800D01*
X3225800Y1805800D02*
Y1815800D01*
X3069400Y1772700D02*
X3077400D01*
X3073400Y1768700D02*
Y1776700D01*
X3069400Y1747300D02*
X3077400D01*
X3073400Y1743300D02*
Y1751300D01*
X3170000Y2100000D02*
X3180000D01*
X3175000Y2095000D02*
Y2105000D01*
X3170000Y2150800D02*
X3180000D01*
X3175000Y2145800D02*
Y2155800D01*
X3119200Y2049200D02*
X3129200D01*
X3124200Y2044200D02*
Y2054200D01*
X3220800Y2150800D02*
X3230800D01*
X3225800Y2145800D02*
Y2155800D01*
X3069400Y2112700D02*
X3077400D01*
X3073400Y2108700D02*
Y2116700D01*
X3069400Y2087300D02*
X3077400D01*
X3073400Y2083300D02*
Y2091300D01*
X3170000Y2330000D02*
X3180000D01*
X3175000Y2325000D02*
Y2335000D01*
X3170000Y2380800D02*
X3180000D01*
X3175000Y2375800D02*
Y2385800D01*
X3119200Y2279200D02*
X3129200D01*
X3124200Y2274200D02*
Y2284200D01*
X3220800Y2380800D02*
X3230800D01*
X3225800Y2375800D02*
Y2385800D01*
X3069400Y2342700D02*
X3077400D01*
X3073400Y2338700D02*
Y2346700D01*
X3069400Y2317300D02*
X3077400D01*
X3073400Y2313300D02*
Y2321300D01*
X2890000Y1530000D02*
X2900000D01*
X2895000Y1525000D02*
Y1535000D01*
X2890000Y1580800D02*
X2900000D01*
X2895000Y1575800D02*
Y1585800D01*
X2839200Y1479200D02*
X2849200D01*
X2844200Y1474200D02*
Y1484200D01*
X2940800Y1580800D02*
X2950800D01*
X2945800Y1575800D02*
Y1585800D01*
X2789400Y1542700D02*
X2797400D01*
X2793400Y1538700D02*
Y1546700D01*
X2789400Y1517300D02*
X2797400D01*
X2793400Y1513300D02*
Y1521300D01*
X2890000Y1760000D02*
X2900000D01*
X2895000Y1755000D02*
Y1765000D01*
X2890000Y1810800D02*
X2900000D01*
X2895000Y1805800D02*
Y1815800D01*
X2839200Y1709200D02*
X2849200D01*
X2844200Y1704200D02*
Y1714200D01*
X2940800Y1810800D02*
X2950800D01*
X2945800Y1805800D02*
Y1815800D01*
X2789400Y1772700D02*
X2797400D01*
X2793400Y1768700D02*
Y1776700D01*
X2789400Y1747300D02*
X2797400D01*
X2793400Y1743300D02*
Y1751300D01*
X2890000Y2100000D02*
X2900000D01*
X2895000Y2095000D02*
Y2105000D01*
X2890000Y2150800D02*
X2900000D01*
X2895000Y2145800D02*
Y2155800D01*
X2839200Y2049200D02*
X2849200D01*
X2844200Y2044200D02*
Y2054200D01*
X2940800Y2150800D02*
X2950800D01*
X2945800Y2145800D02*
Y2155800D01*
X2789400Y2112700D02*
X2797400D01*
X2793400Y2108700D02*
Y2116700D01*
X2789400Y2087300D02*
X2797400D01*
X2793400Y2083300D02*
Y2091300D01*
X2890000Y2330000D02*
X2900000D01*
X2895000Y2325000D02*
Y2335000D01*
X2890000Y2380800D02*
X2900000D01*
X2895000Y2375800D02*
Y2385800D01*
X2839200Y2279200D02*
X2849200D01*
X2844200Y2274200D02*
Y2284200D01*
X2940800Y2380800D02*
X2950800D01*
X2945800Y2375800D02*
Y2385800D01*
X2789400Y2342700D02*
X2797400D01*
X2793400Y2338700D02*
Y2346700D01*
X2789400Y2317300D02*
X2797400D01*
X2793400Y2313300D02*
Y2321300D01*
X2610000Y1530000D02*
X2620000D01*
X2615000Y1525000D02*
Y1535000D01*
X2610000Y1580800D02*
X2620000D01*
X2615000Y1575800D02*
Y1585800D01*
X2559200Y1479200D02*
X2569200D01*
X2564200Y1474200D02*
Y1484200D01*
X2660800Y1580800D02*
X2670800D01*
X2665800Y1575800D02*
Y1585800D01*
X2509400Y1542700D02*
X2517400D01*
X2513400Y1538700D02*
Y1546700D01*
X2509400Y1517300D02*
X2517400D01*
X2513400Y1513300D02*
Y1521300D01*
X2610000Y1760000D02*
X2620000D01*
X2615000Y1755000D02*
Y1765000D01*
X2610000Y1810800D02*
X2620000D01*
X2615000Y1805800D02*
Y1815800D01*
X2559200Y1709200D02*
X2569200D01*
X2564200Y1704200D02*
Y1714200D01*
X2660800Y1810800D02*
X2670800D01*
X2665800Y1805800D02*
Y1815800D01*
X2509400Y1772700D02*
X2517400D01*
X2513400Y1768700D02*
Y1776700D01*
X2509400Y1747300D02*
X2517400D01*
X2513400Y1743300D02*
Y1751300D01*
X2610000Y2100000D02*
X2620000D01*
X2615000Y2095000D02*
Y2105000D01*
X2610000Y2150800D02*
X2620000D01*
X2615000Y2145800D02*
Y2155800D01*
X2559200Y2049200D02*
X2569200D01*
X2564200Y2044200D02*
Y2054200D01*
X2660800Y2150800D02*
X2670800D01*
X2665800Y2145800D02*
Y2155800D01*
X2509400Y2112700D02*
X2517400D01*
X2513400Y2108700D02*
Y2116700D01*
X2509400Y2087300D02*
X2517400D01*
X2513400Y2083300D02*
Y2091300D01*
X2610000Y2330000D02*
X2620000D01*
X2615000Y2325000D02*
Y2335000D01*
X2610000Y2380800D02*
X2620000D01*
X2615000Y2375800D02*
Y2385800D01*
X2559200Y2279200D02*
X2569200D01*
X2564200Y2274200D02*
Y2284200D01*
X2660800Y2380800D02*
X2670800D01*
X2665800Y2375800D02*
Y2385800D01*
X2509400Y2342700D02*
X2517400D01*
X2513400Y2338700D02*
Y2346700D01*
X2509400Y2317300D02*
X2517400D01*
X2513400Y2313300D02*
Y2321300D01*
X2330000Y1530000D02*
X2340000D01*
X2335000Y1525000D02*
Y1535000D01*
X2330000Y1580800D02*
X2340000D01*
X2335000Y1575800D02*
Y1585800D01*
X2279200Y1479200D02*
X2289200D01*
X2284200Y1474200D02*
Y1484200D01*
X2380800Y1580800D02*
X2390800D01*
X2385800Y1575800D02*
Y1585800D01*
X2229400Y1542700D02*
X2237400D01*
X2233400Y1538700D02*
Y1546700D01*
X2229400Y1517300D02*
X2237400D01*
X2233400Y1513300D02*
Y1521300D01*
X2330000Y1760000D02*
X2340000D01*
X2335000Y1755000D02*
Y1765000D01*
X2330000Y1810800D02*
X2340000D01*
X2335000Y1805800D02*
Y1815800D01*
X2279200Y1709200D02*
X2289200D01*
X2284200Y1704200D02*
Y1714200D01*
X2380800Y1810800D02*
X2390800D01*
X2385800Y1805800D02*
Y1815800D01*
X2229400Y1772700D02*
X2237400D01*
X2233400Y1768700D02*
Y1776700D01*
X2229400Y1747300D02*
X2237400D01*
X2233400Y1743300D02*
Y1751300D01*
X2330000Y2100000D02*
X2340000D01*
X2335000Y2095000D02*
Y2105000D01*
X2330000Y2150800D02*
X2340000D01*
X2335000Y2145800D02*
Y2155800D01*
X2279200Y2049200D02*
X2289200D01*
X2284200Y2044200D02*
Y2054200D01*
X2380800Y2150800D02*
X2390800D01*
X2385800Y2145800D02*
Y2155800D01*
X2229400Y2112700D02*
X2237400D01*
X2233400Y2108700D02*
Y2116700D01*
X2229400Y2087300D02*
X2237400D01*
X2233400Y2083300D02*
Y2091300D01*
X2330000Y2330000D02*
X2340000D01*
X2335000Y2325000D02*
Y2335000D01*
X2330000Y2380800D02*
X2340000D01*
X2335000Y2375800D02*
Y2385800D01*
X2279200Y2279200D02*
X2289200D01*
X2284200Y2274200D02*
Y2284200D01*
X2380800Y2380800D02*
X2390800D01*
X2385800Y2375800D02*
Y2385800D01*
X2229400Y2342700D02*
X2237400D01*
X2233400Y2338700D02*
Y2346700D01*
X2229400Y2317300D02*
X2237400D01*
X2233400Y2313300D02*
Y2321300D01*
X2050000Y1530000D02*
X2060000D01*
X2055000Y1525000D02*
Y1535000D01*
X2050000Y1580800D02*
X2060000D01*
X2055000Y1575800D02*
Y1585800D01*
X1999200Y1479200D02*
X2009200D01*
X2004200Y1474200D02*
Y1484200D01*
X2100800Y1580800D02*
X2110800D01*
X2105800Y1575800D02*
Y1585800D01*
X1949400Y1542700D02*
X1957400D01*
X1953400Y1538700D02*
Y1546700D01*
X1949400Y1517300D02*
X1957400D01*
X1953400Y1513300D02*
Y1521300D01*
X2050000Y1760000D02*
X2060000D01*
X2055000Y1755000D02*
Y1765000D01*
X2050000Y1810800D02*
X2060000D01*
X2055000Y1805800D02*
Y1815800D01*
X1999200Y1709200D02*
X2009200D01*
X2004200Y1704200D02*
Y1714200D01*
X2100800Y1810800D02*
X2110800D01*
X2105800Y1805800D02*
Y1815800D01*
X1949400Y1772700D02*
X1957400D01*
X1953400Y1768700D02*
Y1776700D01*
X1949400Y1747300D02*
X1957400D01*
X1953400Y1743300D02*
Y1751300D01*
X2050000Y2100000D02*
X2060000D01*
X2055000Y2095000D02*
Y2105000D01*
X2050000Y2150800D02*
X2060000D01*
X2055000Y2145800D02*
Y2155800D01*
X1999200Y2049200D02*
X2009200D01*
X2004200Y2044200D02*
Y2054200D01*
X2100800Y2150800D02*
X2110800D01*
X2105800Y2145800D02*
Y2155800D01*
X1949400Y2112700D02*
X1957400D01*
X1953400Y2108700D02*
Y2116700D01*
X1949400Y2087300D02*
X1957400D01*
X1953400Y2083300D02*
Y2091300D01*
X2050000Y2330000D02*
X2060000D01*
X2055000Y2325000D02*
Y2335000D01*
X2050000Y2380800D02*
X2060000D01*
X2055000Y2375800D02*
Y2385800D01*
X1999200Y2279200D02*
X2009200D01*
X2004200Y2274200D02*
Y2284200D01*
X2100800Y2380800D02*
X2110800D01*
X2105800Y2375800D02*
Y2385800D01*
X1949400Y2342700D02*
X1957400D01*
X1953400Y2338700D02*
Y2346700D01*
X1949400Y2317300D02*
X1957400D01*
X1953400Y2313300D02*
Y2321300D01*
X3324700Y2495000D02*
X3333700D01*
X3329200Y2490500D02*
Y2499500D01*
X3324700Y2520400D02*
X3333700D01*
X3329200Y2515900D02*
Y2524900D01*
X3350100Y2495000D02*
X3359100D01*
X3354600Y2490500D02*
Y2499500D01*
X3350100Y2520400D02*
X3359100D01*
X3354600Y2515900D02*
Y2524900D01*
X3375500Y2495000D02*
X3384500D01*
X3380000Y2490500D02*
Y2499500D01*
X3375500Y2520400D02*
X3384500D01*
X3380000Y2515900D02*
Y2524900D01*
X3400900Y2495000D02*
X3409900D01*
X3405400Y2490500D02*
Y2499500D01*
X3400900Y2520400D02*
X3409900D01*
X3405400Y2515900D02*
Y2524900D01*
X3426300Y2495000D02*
X3435300D01*
X3430800Y2490500D02*
Y2499500D01*
X3426300Y2520400D02*
X3435300D01*
X3430800Y2515900D02*
Y2524900D01*
X2484700Y2495000D02*
X2493700D01*
X2489200Y2490500D02*
Y2499500D01*
X2484700Y2520400D02*
X2493700D01*
X2489200Y2515900D02*
Y2524900D01*
X2510100Y2495000D02*
X2519100D01*
X2514600Y2490500D02*
Y2499500D01*
X2510100Y2520400D02*
X2519100D01*
X2514600Y2515900D02*
Y2524900D01*
X2535500Y2495000D02*
X2544500D01*
X2540000Y2490500D02*
Y2499500D01*
X2535500Y2520400D02*
X2544500D01*
X2540000Y2515900D02*
Y2524900D01*
X2560900Y2495000D02*
X2569900D01*
X2565400Y2490500D02*
Y2499500D01*
X2560900Y2520400D02*
X2569900D01*
X2565400Y2515900D02*
Y2524900D01*
X2586300Y2495000D02*
X2595300D01*
X2590800Y2490500D02*
Y2499500D01*
X2586300Y2520400D02*
X2595300D01*
X2590800Y2515900D02*
Y2524900D01*
X3119700Y2495000D02*
X3128700D01*
X3124200Y2490500D02*
Y2499500D01*
X3119700Y2520400D02*
X3128700D01*
X3124200Y2515900D02*
Y2524900D01*
X3145100Y2495000D02*
X3154100D01*
X3149600Y2490500D02*
Y2499500D01*
X3145100Y2520400D02*
X3154100D01*
X3149600Y2515900D02*
Y2524900D01*
X3170500Y2495000D02*
X3179500D01*
X3175000Y2490500D02*
Y2499500D01*
X3170500Y2520400D02*
X3179500D01*
X3175000Y2515900D02*
Y2524900D01*
X3195900Y2495000D02*
X3204900D01*
X3200400Y2490500D02*
Y2499500D01*
X3195900Y2520400D02*
X3204900D01*
X3200400Y2515900D02*
Y2524900D01*
X3221300Y2495000D02*
X3230300D01*
X3225800Y2490500D02*
Y2499500D01*
X3221300Y2520400D02*
X3230300D01*
X3225800Y2515900D02*
Y2524900D01*
X2279700Y2495000D02*
X2288700D01*
X2284200Y2490500D02*
Y2499500D01*
X2279700Y2520400D02*
X2288700D01*
X2284200Y2515900D02*
Y2524900D01*
X2305100Y2495000D02*
X2314100D01*
X2309600Y2490500D02*
Y2499500D01*
X2305100Y2520400D02*
X2314100D01*
X2309600Y2515900D02*
Y2524900D01*
X2330500Y2495000D02*
X2339500D01*
X2335000Y2490500D02*
Y2499500D01*
X2330500Y2520400D02*
X2339500D01*
X2335000Y2515900D02*
Y2524900D01*
X2355900Y2495000D02*
X2364900D01*
X2360400Y2490500D02*
Y2499500D01*
X2355900Y2520400D02*
X2364900D01*
X2360400Y2515900D02*
Y2524900D01*
X2381300Y2495000D02*
X2390300D01*
X2385800Y2490500D02*
Y2499500D01*
X2381300Y2520400D02*
X2390300D01*
X2385800Y2515900D02*
Y2524900D01*
X2914700Y2495000D02*
X2923700D01*
X2919200Y2490500D02*
Y2499500D01*
X2914700Y2520400D02*
X2923700D01*
X2919200Y2515900D02*
Y2524900D01*
X2940100Y2495000D02*
X2949100D01*
X2944600Y2490500D02*
Y2499500D01*
X2940100Y2520400D02*
X2949100D01*
X2944600Y2515900D02*
Y2524900D01*
X2965500Y2495000D02*
X2974500D01*
X2970000Y2490500D02*
Y2499500D01*
X2965500Y2520400D02*
X2974500D01*
X2970000Y2515900D02*
Y2524900D01*
X2990900Y2495000D02*
X2999900D01*
X2995400Y2490500D02*
Y2499500D01*
X2990900Y2520400D02*
X2999900D01*
X2995400Y2515900D02*
Y2524900D01*
X3016300Y2495000D02*
X3025300D01*
X3020800Y2490500D02*
Y2499500D01*
X3016300Y2520400D02*
X3025300D01*
X3020800Y2515900D02*
Y2524900D01*
X2074700Y2495000D02*
X2083700D01*
X2079200Y2490500D02*
Y2499500D01*
X2074700Y2520400D02*
X2083700D01*
X2079200Y2515900D02*
Y2524900D01*
X2100100Y2495000D02*
X2109100D01*
X2104600Y2490500D02*
Y2499500D01*
X2100100Y2520400D02*
X2109100D01*
X2104600Y2515900D02*
Y2524900D01*
X2125500Y2495000D02*
X2134500D01*
X2130000Y2490500D02*
Y2499500D01*
X2125500Y2520400D02*
X2134500D01*
X2130000Y2515900D02*
Y2524900D01*
X2150900Y2495000D02*
X2159900D01*
X2155400Y2490500D02*
Y2499500D01*
X2150900Y2520400D02*
X2159900D01*
X2155400Y2515900D02*
Y2524900D01*
X2176300Y2495000D02*
X2185300D01*
X2180800Y2490500D02*
Y2499500D01*
X2176300Y2520400D02*
X2185300D01*
X2180800Y2515900D02*
Y2524900D01*
X3019000Y1430000D02*
X3051000D01*
X3035000Y1414000D02*
Y1446000D01*
X3019000Y2430000D02*
X3051000D01*
X3035000Y2414000D02*
Y2446000D01*
X3019000Y1930000D02*
X3051000D01*
X3035000Y1914000D02*
Y1946000D01*
X2459000Y2430000D02*
X2491000D01*
X2475000Y2414000D02*
Y2446000D01*
X2459000Y1430000D02*
X2491000D01*
X2475000Y1414000D02*
Y1446000D01*
X3564000Y1930000D02*
X3596000D01*
X3580000Y1914000D02*
Y1946000D01*
X1914000Y1930000D02*
X1946000D01*
X1930000Y1914000D02*
Y1946000D01*
X2459000Y1930000D02*
X2491000D01*
X2475000Y1914000D02*
Y1946000D01*
X1914000Y2430000D02*
X1946000D01*
X1930000Y2414000D02*
Y2446000D01*
X3564000Y2430000D02*
X3596000D01*
X3580000Y2414000D02*
Y2446000D01*
X3564000Y1430000D02*
X3596000D01*
X3580000Y1414000D02*
Y1446000D01*
X1914000Y1430000D02*
X1946000D01*
X1930000Y1414000D02*
Y1446000D01*
X2252714Y2495000D02*
X2257286D01*
X2255000Y2492714D02*
Y2497286D01*
X3227714Y2355000D02*
X3232286D01*
X3230000Y2352714D02*
Y2357286D01*
X2537714Y2475000D02*
X2542286D01*
X2540000Y2472714D02*
Y2477286D01*
X4044000Y140000D02*
X4076000D01*
X4060000Y124000D02*
Y156000D01*
X4244000Y140000D02*
X4276000D01*
X4260000Y124000D02*
Y156000D01*
X4244000Y820000D02*
X4276000D01*
X4260000Y804000D02*
Y836000D01*
X4044000Y820000D02*
X4076000D01*
X4060000Y804000D02*
Y836000D01*
X4039300Y736800D02*
X4049300D01*
X4044300Y731800D02*
Y741800D01*
X4039300Y711400D02*
X4049300D01*
X4044300Y706400D02*
Y716400D01*
X4039300Y686000D02*
X4049300D01*
X4044300Y681000D02*
Y691000D01*
X4064700Y736800D02*
X4074700D01*
X4069700Y731800D02*
Y741800D01*
X4064700Y686000D02*
X4074700D01*
X4069700Y681000D02*
Y691000D01*
X4064700Y711400D02*
X4074700D01*
X4069700Y706400D02*
Y716400D01*
X4039300Y660600D02*
X4049300D01*
X4044300Y655600D02*
Y665600D01*
X4039300Y635200D02*
X4049300D01*
X4044300Y630200D02*
Y640200D01*
X4064700Y660600D02*
X4074700D01*
X4069700Y655600D02*
Y665600D01*
X4064700Y635200D02*
X4074700D01*
X4069700Y630200D02*
Y640200D01*
X4039300Y530800D02*
X4049300D01*
X4044300Y525800D02*
Y535800D01*
X4039300Y505400D02*
X4049300D01*
X4044300Y500400D02*
Y510400D01*
X4039300Y480000D02*
X4049300D01*
X4044300Y475000D02*
Y485000D01*
X4064700Y530800D02*
X4074700D01*
X4069700Y525800D02*
Y535800D01*
X4064700Y480000D02*
X4074700D01*
X4069700Y475000D02*
Y485000D01*
X4064700Y505400D02*
X4074700D01*
X4069700Y500400D02*
Y510400D01*
X4039300Y454600D02*
X4049300D01*
X4044300Y449600D02*
Y459600D01*
X4039300Y429200D02*
X4049300D01*
X4044300Y424200D02*
Y434200D01*
X4064700Y454600D02*
X4074700D01*
X4069700Y449600D02*
Y459600D01*
X4064700Y429200D02*
X4074700D01*
X4069700Y424200D02*
Y434200D01*
X4039300Y324800D02*
X4049300D01*
X4044300Y319800D02*
Y329800D01*
X4039300Y299400D02*
X4049300D01*
X4044300Y294400D02*
Y304400D01*
X4039300Y274000D02*
X4049300D01*
X4044300Y269000D02*
Y279000D01*
X4064700Y324800D02*
X4074700D01*
X4069700Y319800D02*
Y329800D01*
X4064700Y274000D02*
X4074700D01*
X4069700Y269000D02*
Y279000D01*
X4064700Y299400D02*
X4074700D01*
X4069700Y294400D02*
Y304400D01*
X4039300Y248600D02*
X4049300D01*
X4044300Y243600D02*
Y253600D01*
X4039300Y223200D02*
X4049300D01*
X4044300Y218200D02*
Y228200D01*
X4064700Y248600D02*
X4074700D01*
X4069700Y243600D02*
Y253600D01*
X4064700Y223200D02*
X4074700D01*
X4069700Y218200D02*
Y228200D01*
X4176850Y754000D02*
X4186850D01*
X4181850Y749000D02*
Y759000D01*
X4151450Y754000D02*
X4161450D01*
X4156450Y749000D02*
Y759000D01*
X4202250Y754000D02*
X4212250D01*
X4207250Y749000D02*
Y759000D01*
X4227650Y754000D02*
X4237650D01*
X4232650Y749000D02*
Y759000D01*
X4253050Y754000D02*
X4263050D01*
X4258050Y749000D02*
Y759000D01*
X4151450Y728600D02*
X4161450D01*
X4156450Y723600D02*
Y733600D01*
X4176850Y728600D02*
X4186850D01*
X4181850Y723600D02*
Y733600D01*
X4202250Y728600D02*
X4212250D01*
X4207250Y723600D02*
Y733600D01*
X4227650Y728600D02*
X4237650D01*
X4232650Y723600D02*
Y733600D01*
X4253050Y728600D02*
X4263050D01*
X4258050Y723600D02*
Y733600D01*
X4176850Y231200D02*
X4186850D01*
X4181850Y226200D02*
Y236200D01*
X4151450Y231200D02*
X4161450D01*
X4156450Y226200D02*
Y236200D01*
X4202250Y231200D02*
X4212250D01*
X4207250Y226200D02*
Y236200D01*
X4227650Y231200D02*
X4237650D01*
X4232650Y226200D02*
Y236200D01*
X4253050Y231200D02*
X4263050D01*
X4258050Y226200D02*
Y236200D01*
X4151450Y205800D02*
X4161450D01*
X4156450Y200800D02*
Y210800D01*
X4176850Y205800D02*
X4186850D01*
X4181850Y200800D02*
Y210800D01*
X4202250Y205800D02*
X4212250D01*
X4207250Y200800D02*
Y210800D01*
X4227650Y205800D02*
X4237650D01*
X4232650Y200800D02*
Y210800D01*
X4253050Y205800D02*
X4263050D01*
X4258050Y200800D02*
Y210800D01*
X4212714Y325000D02*
X4217286D01*
X4215000Y322714D02*
Y327286D01*
X4222714Y350000D02*
X4227286D01*
X4225000Y347714D02*
Y352286D01*
X4212714Y455000D02*
X4217286D01*
X4215000Y452714D02*
Y457286D01*
X4222714Y480000D02*
X4227286D01*
X4225000Y477714D02*
Y482286D01*
X4212714Y585000D02*
X4217286D01*
X4215000Y582714D02*
Y587286D01*
X4222714Y610000D02*
X4227286D01*
X4225000Y607714D02*
Y612286D01*
X4262714Y369000D02*
X4267286D01*
X4265000Y366714D02*
Y371286D01*
X4272714Y305000D02*
X4277286D01*
X4275000Y302714D02*
Y307286D01*
X4262714Y270000D02*
X4267286D01*
X4265000Y267714D02*
Y272286D01*
X4272714Y499000D02*
X4277286D01*
X4275000Y496714D02*
Y501286D01*
X4262714Y435000D02*
X4267286D01*
X4265000Y432714D02*
Y437286D01*
X4272714Y566000D02*
X4277286D01*
X4275000Y563714D02*
Y568286D01*
X4262714Y629000D02*
X4267286D01*
X4265000Y626714D02*
Y631286D01*
X4246714Y700000D02*
X4251286D01*
X4249000Y697714D02*
Y702286D01*
X4044000Y900000D02*
X4076000D01*
X4060000Y884000D02*
Y916000D01*
X4244000Y900000D02*
X4276000D01*
X4260000Y884000D02*
Y916000D01*
X4244000Y1580000D02*
X4276000D01*
X4260000Y1564000D02*
Y1596000D01*
X4044000Y1580000D02*
X4076000D01*
X4060000Y1564000D02*
Y1596000D01*
X4039300Y1496800D02*
X4049300D01*
X4044300Y1491800D02*
Y1501800D01*
X4039300Y1471400D02*
X4049300D01*
X4044300Y1466400D02*
Y1476400D01*
X4039300Y1446000D02*
X4049300D01*
X4044300Y1441000D02*
Y1451000D01*
X4064700Y1496800D02*
X4074700D01*
X4069700Y1491800D02*
Y1501800D01*
X4064700Y1446000D02*
X4074700D01*
X4069700Y1441000D02*
Y1451000D01*
X4064700Y1471400D02*
X4074700D01*
X4069700Y1466400D02*
Y1476400D01*
X4039300Y1420600D02*
X4049300D01*
X4044300Y1415600D02*
Y1425600D01*
X4039300Y1395200D02*
X4049300D01*
X4044300Y1390200D02*
Y1400200D01*
X4064700Y1420600D02*
X4074700D01*
X4069700Y1415600D02*
Y1425600D01*
X4064700Y1395200D02*
X4074700D01*
X4069700Y1390200D02*
Y1400200D01*
X4039300Y1290800D02*
X4049300D01*
X4044300Y1285800D02*
Y1295800D01*
X4039300Y1265400D02*
X4049300D01*
X4044300Y1260400D02*
Y1270400D01*
X4039300Y1240000D02*
X4049300D01*
X4044300Y1235000D02*
Y1245000D01*
X4064700Y1290800D02*
X4074700D01*
X4069700Y1285800D02*
Y1295800D01*
X4064700Y1240000D02*
X4074700D01*
X4069700Y1235000D02*
Y1245000D01*
X4064700Y1265400D02*
X4074700D01*
X4069700Y1260400D02*
Y1270400D01*
X4039300Y1214600D02*
X4049300D01*
X4044300Y1209600D02*
Y1219600D01*
X4039300Y1189200D02*
X4049300D01*
X4044300Y1184200D02*
Y1194200D01*
X4064700Y1214600D02*
X4074700D01*
X4069700Y1209600D02*
Y1219600D01*
X4064700Y1189200D02*
X4074700D01*
X4069700Y1184200D02*
Y1194200D01*
X4039300Y1084800D02*
X4049300D01*
X4044300Y1079800D02*
Y1089800D01*
X4039300Y1059400D02*
X4049300D01*
X4044300Y1054400D02*
Y1064400D01*
X4039300Y1034000D02*
X4049300D01*
X4044300Y1029000D02*
Y1039000D01*
X4064700Y1084800D02*
X4074700D01*
X4069700Y1079800D02*
Y1089800D01*
X4064700Y1034000D02*
X4074700D01*
X4069700Y1029000D02*
Y1039000D01*
X4064700Y1059400D02*
X4074700D01*
X4069700Y1054400D02*
Y1064400D01*
X4039300Y1008600D02*
X4049300D01*
X4044300Y1003600D02*
Y1013600D01*
X4039300Y983200D02*
X4049300D01*
X4044300Y978200D02*
Y988200D01*
X4064700Y1008600D02*
X4074700D01*
X4069700Y1003600D02*
Y1013600D01*
X4064700Y983200D02*
X4074700D01*
X4069700Y978200D02*
Y988200D01*
X4176850Y1514000D02*
X4186850D01*
X4181850Y1509000D02*
Y1519000D01*
X4151450Y1514000D02*
X4161450D01*
X4156450Y1509000D02*
Y1519000D01*
X4202250Y1514000D02*
X4212250D01*
X4207250Y1509000D02*
Y1519000D01*
X4227650Y1514000D02*
X4237650D01*
X4232650Y1509000D02*
Y1519000D01*
X4253050Y1514000D02*
X4263050D01*
X4258050Y1509000D02*
Y1519000D01*
X4151450Y1488600D02*
X4161450D01*
X4156450Y1483600D02*
Y1493600D01*
X4176850Y1488600D02*
X4186850D01*
X4181850Y1483600D02*
Y1493600D01*
X4202250Y1488600D02*
X4212250D01*
X4207250Y1483600D02*
Y1493600D01*
X4227650Y1488600D02*
X4237650D01*
X4232650Y1483600D02*
Y1493600D01*
X4253050Y1488600D02*
X4263050D01*
X4258050Y1483600D02*
Y1493600D01*
X4176850Y991200D02*
X4186850D01*
X4181850Y986200D02*
Y996200D01*
X4151450Y991200D02*
X4161450D01*
X4156450Y986200D02*
Y996200D01*
X4202250Y991200D02*
X4212250D01*
X4207250Y986200D02*
Y996200D01*
X4227650Y991200D02*
X4237650D01*
X4232650Y986200D02*
Y996200D01*
X4253050Y991200D02*
X4263050D01*
X4258050Y986200D02*
Y996200D01*
X4151450Y965800D02*
X4161450D01*
X4156450Y960800D02*
Y970800D01*
X4176850Y965800D02*
X4186850D01*
X4181850Y960800D02*
Y970800D01*
X4202250Y965800D02*
X4212250D01*
X4207250Y960800D02*
Y970800D01*
X4227650Y965800D02*
X4237650D01*
X4232650Y960800D02*
Y970800D01*
X4253050Y965800D02*
X4263050D01*
X4258050Y960800D02*
Y970800D01*
X4212714Y1085000D02*
X4217286D01*
X4215000Y1082714D02*
Y1087286D01*
X4222714Y1110000D02*
X4227286D01*
X4225000Y1107714D02*
Y1112286D01*
X4212714Y1215000D02*
X4217286D01*
X4215000Y1212714D02*
Y1217286D01*
X4222714Y1240000D02*
X4227286D01*
X4225000Y1237714D02*
Y1242286D01*
X4212714Y1345000D02*
X4217286D01*
X4215000Y1342714D02*
Y1347286D01*
X4222714Y1370000D02*
X4227286D01*
X4225000Y1367714D02*
Y1372286D01*
X4262714Y1129000D02*
X4267286D01*
X4265000Y1126714D02*
Y1131286D01*
X4272714Y1065000D02*
X4277286D01*
X4275000Y1062714D02*
Y1067286D01*
X4262714Y1030000D02*
X4267286D01*
X4265000Y1027714D02*
Y1032286D01*
X4272714Y1259000D02*
X4277286D01*
X4275000Y1256714D02*
Y1261286D01*
X4262714Y1195000D02*
X4267286D01*
X4265000Y1192714D02*
Y1197286D01*
X4272714Y1326000D02*
X4277286D01*
X4275000Y1323714D02*
Y1328286D01*
X4262714Y1389000D02*
X4267286D01*
X4265000Y1386714D02*
Y1391286D01*
X4246714Y1460000D02*
X4251286D01*
X4249000Y1457714D02*
Y1462286D01*
X4044000Y1660000D02*
X4076000D01*
X4060000Y1644000D02*
Y1676000D01*
X4244000Y1660000D02*
X4276000D01*
X4260000Y1644000D02*
Y1676000D01*
X4244000Y2340000D02*
X4276000D01*
X4260000Y2324000D02*
Y2356000D01*
X4044000Y2340000D02*
X4076000D01*
X4060000Y2324000D02*
Y2356000D01*
X4039300Y2256800D02*
X4049300D01*
X4044300Y2251800D02*
Y2261800D01*
X4039300Y2231400D02*
X4049300D01*
X4044300Y2226400D02*
Y2236400D01*
X4039300Y2206000D02*
X4049300D01*
X4044300Y2201000D02*
Y2211000D01*
X4064700Y2256800D02*
X4074700D01*
X4069700Y2251800D02*
Y2261800D01*
X4064700Y2206000D02*
X4074700D01*
X4069700Y2201000D02*
Y2211000D01*
X4064700Y2231400D02*
X4074700D01*
X4069700Y2226400D02*
Y2236400D01*
X4039300Y2180600D02*
X4049300D01*
X4044300Y2175600D02*
Y2185600D01*
X4039300Y2155200D02*
X4049300D01*
X4044300Y2150200D02*
Y2160200D01*
X4064700Y2180600D02*
X4074700D01*
X4069700Y2175600D02*
Y2185600D01*
X4064700Y2155200D02*
X4074700D01*
X4069700Y2150200D02*
Y2160200D01*
X4039300Y2050800D02*
X4049300D01*
X4044300Y2045800D02*
Y2055800D01*
X4039300Y2025400D02*
X4049300D01*
X4044300Y2020400D02*
Y2030400D01*
X4039300Y2000000D02*
X4049300D01*
X4044300Y1995000D02*
Y2005000D01*
X4064700Y2050800D02*
X4074700D01*
X4069700Y2045800D02*
Y2055800D01*
X4064700Y2000000D02*
X4074700D01*
X4069700Y1995000D02*
Y2005000D01*
X4064700Y2025400D02*
X4074700D01*
X4069700Y2020400D02*
Y2030400D01*
X4039300Y1974600D02*
X4049300D01*
X4044300Y1969600D02*
Y1979600D01*
X4039300Y1949200D02*
X4049300D01*
X4044300Y1944200D02*
Y1954200D01*
X4064700Y1974600D02*
X4074700D01*
X4069700Y1969600D02*
Y1979600D01*
X4064700Y1949200D02*
X4074700D01*
X4069700Y1944200D02*
Y1954200D01*
X4039300Y1844800D02*
X4049300D01*
X4044300Y1839800D02*
Y1849800D01*
X4039300Y1819400D02*
X4049300D01*
X4044300Y1814400D02*
Y1824400D01*
X4039300Y1794000D02*
X4049300D01*
X4044300Y1789000D02*
Y1799000D01*
X4064700Y1844800D02*
X4074700D01*
X4069700Y1839800D02*
Y1849800D01*
X4064700Y1794000D02*
X4074700D01*
X4069700Y1789000D02*
Y1799000D01*
X4064700Y1819400D02*
X4074700D01*
X4069700Y1814400D02*
Y1824400D01*
X4039300Y1768600D02*
X4049300D01*
X4044300Y1763600D02*
Y1773600D01*
X4039300Y1743200D02*
X4049300D01*
X4044300Y1738200D02*
Y1748200D01*
X4064700Y1768600D02*
X4074700D01*
X4069700Y1763600D02*
Y1773600D01*
X4064700Y1743200D02*
X4074700D01*
X4069700Y1738200D02*
Y1748200D01*
X4176850Y2274000D02*
X4186850D01*
X4181850Y2269000D02*
Y2279000D01*
X4151450Y2274000D02*
X4161450D01*
X4156450Y2269000D02*
Y2279000D01*
X4202250Y2274000D02*
X4212250D01*
X4207250Y2269000D02*
Y2279000D01*
X4227650Y2274000D02*
X4237650D01*
X4232650Y2269000D02*
Y2279000D01*
X4253050Y2274000D02*
X4263050D01*
X4258050Y2269000D02*
Y2279000D01*
X4151450Y2248600D02*
X4161450D01*
X4156450Y2243600D02*
Y2253600D01*
X4176850Y2248600D02*
X4186850D01*
X4181850Y2243600D02*
Y2253600D01*
X4202250Y2248600D02*
X4212250D01*
X4207250Y2243600D02*
Y2253600D01*
X4227650Y2248600D02*
X4237650D01*
X4232650Y2243600D02*
Y2253600D01*
X4253050Y2248600D02*
X4263050D01*
X4258050Y2243600D02*
Y2253600D01*
X4176850Y1751200D02*
X4186850D01*
X4181850Y1746200D02*
Y1756200D01*
X4151450Y1751200D02*
X4161450D01*
X4156450Y1746200D02*
Y1756200D01*
X4202250Y1751200D02*
X4212250D01*
X4207250Y1746200D02*
Y1756200D01*
X4227650Y1751200D02*
X4237650D01*
X4232650Y1746200D02*
Y1756200D01*
X4253050Y1751200D02*
X4263050D01*
X4258050Y1746200D02*
Y1756200D01*
X4151450Y1725800D02*
X4161450D01*
X4156450Y1720800D02*
Y1730800D01*
X4176850Y1725800D02*
X4186850D01*
X4181850Y1720800D02*
Y1730800D01*
X4202250Y1725800D02*
X4212250D01*
X4207250Y1720800D02*
Y1730800D01*
X4227650Y1725800D02*
X4237650D01*
X4232650Y1720800D02*
Y1730800D01*
X4253050Y1725800D02*
X4263050D01*
X4258050Y1720800D02*
Y1730800D01*
X4212714Y1845000D02*
X4217286D01*
X4215000Y1842714D02*
Y1847286D01*
X4222714Y1870000D02*
X4227286D01*
X4225000Y1867714D02*
Y1872286D01*
X4212714Y1975000D02*
X4217286D01*
X4215000Y1972714D02*
Y1977286D01*
X4222714Y2000000D02*
X4227286D01*
X4225000Y1997714D02*
Y2002286D01*
X4212714Y2105000D02*
X4217286D01*
X4215000Y2102714D02*
Y2107286D01*
X4222714Y2130000D02*
X4227286D01*
X4225000Y2127714D02*
Y2132286D01*
X4262714Y1889000D02*
X4267286D01*
X4265000Y1886714D02*
Y1891286D01*
X4272714Y1825000D02*
X4277286D01*
X4275000Y1822714D02*
Y1827286D01*
X4262714Y1790000D02*
X4267286D01*
X4265000Y1787714D02*
Y1792286D01*
X4272714Y2019000D02*
X4277286D01*
X4275000Y2016714D02*
Y2021286D01*
X4262714Y1955000D02*
X4267286D01*
X4265000Y1952714D02*
Y1957286D01*
X4272714Y2086000D02*
X4277286D01*
X4275000Y2083714D02*
Y2088286D01*
X4262714Y2149000D02*
X4267286D01*
X4265000Y2146714D02*
Y2151286D01*
X4246714Y2220000D02*
X4251286D01*
X4249000Y2217714D02*
Y2222286D01*
X3724000Y140000D02*
X3756000D01*
X3740000Y124000D02*
Y156000D01*
X3924000Y140000D02*
X3956000D01*
X3940000Y124000D02*
Y156000D01*
X3924000Y820000D02*
X3956000D01*
X3940000Y804000D02*
Y836000D01*
X3724000Y820000D02*
X3756000D01*
X3740000Y804000D02*
Y836000D01*
X3719300Y736800D02*
X3729300D01*
X3724300Y731800D02*
Y741800D01*
X3719300Y711400D02*
X3729300D01*
X3724300Y706400D02*
Y716400D01*
X3719300Y686000D02*
X3729300D01*
X3724300Y681000D02*
Y691000D01*
X3744700Y736800D02*
X3754700D01*
X3749700Y731800D02*
Y741800D01*
X3744700Y686000D02*
X3754700D01*
X3749700Y681000D02*
Y691000D01*
X3744700Y711400D02*
X3754700D01*
X3749700Y706400D02*
Y716400D01*
X3719300Y660600D02*
X3729300D01*
X3724300Y655600D02*
Y665600D01*
X3719300Y635200D02*
X3729300D01*
X3724300Y630200D02*
Y640200D01*
X3744700Y660600D02*
X3754700D01*
X3749700Y655600D02*
Y665600D01*
X3744700Y635200D02*
X3754700D01*
X3749700Y630200D02*
Y640200D01*
X3719300Y530800D02*
X3729300D01*
X3724300Y525800D02*
Y535800D01*
X3719300Y505400D02*
X3729300D01*
X3724300Y500400D02*
Y510400D01*
X3719300Y480000D02*
X3729300D01*
X3724300Y475000D02*
Y485000D01*
X3744700Y530800D02*
X3754700D01*
X3749700Y525800D02*
Y535800D01*
X3744700Y480000D02*
X3754700D01*
X3749700Y475000D02*
Y485000D01*
X3744700Y505400D02*
X3754700D01*
X3749700Y500400D02*
Y510400D01*
X3719300Y454600D02*
X3729300D01*
X3724300Y449600D02*
Y459600D01*
X3719300Y429200D02*
X3729300D01*
X3724300Y424200D02*
Y434200D01*
X3744700Y454600D02*
X3754700D01*
X3749700Y449600D02*
Y459600D01*
X3744700Y429200D02*
X3754700D01*
X3749700Y424200D02*
Y434200D01*
X3719300Y324800D02*
X3729300D01*
X3724300Y319800D02*
Y329800D01*
X3719300Y299400D02*
X3729300D01*
X3724300Y294400D02*
Y304400D01*
X3719300Y274000D02*
X3729300D01*
X3724300Y269000D02*
Y279000D01*
X3744700Y324800D02*
X3754700D01*
X3749700Y319800D02*
Y329800D01*
X3744700Y274000D02*
X3754700D01*
X3749700Y269000D02*
Y279000D01*
X3744700Y299400D02*
X3754700D01*
X3749700Y294400D02*
Y304400D01*
X3719300Y248600D02*
X3729300D01*
X3724300Y243600D02*
Y253600D01*
X3719300Y223200D02*
X3729300D01*
X3724300Y218200D02*
Y228200D01*
X3744700Y248600D02*
X3754700D01*
X3749700Y243600D02*
Y253600D01*
X3744700Y223200D02*
X3754700D01*
X3749700Y218200D02*
Y228200D01*
X3856850Y754000D02*
X3866850D01*
X3861850Y749000D02*
Y759000D01*
X3831450Y754000D02*
X3841450D01*
X3836450Y749000D02*
Y759000D01*
X3882250Y754000D02*
X3892250D01*
X3887250Y749000D02*
Y759000D01*
X3907650Y754000D02*
X3917650D01*
X3912650Y749000D02*
Y759000D01*
X3933050Y754000D02*
X3943050D01*
X3938050Y749000D02*
Y759000D01*
X3831450Y728600D02*
X3841450D01*
X3836450Y723600D02*
Y733600D01*
X3856850Y728600D02*
X3866850D01*
X3861850Y723600D02*
Y733600D01*
X3882250Y728600D02*
X3892250D01*
X3887250Y723600D02*
Y733600D01*
X3907650Y728600D02*
X3917650D01*
X3912650Y723600D02*
Y733600D01*
X3933050Y728600D02*
X3943050D01*
X3938050Y723600D02*
Y733600D01*
X3856850Y231200D02*
X3866850D01*
X3861850Y226200D02*
Y236200D01*
X3831450Y231200D02*
X3841450D01*
X3836450Y226200D02*
Y236200D01*
X3882250Y231200D02*
X3892250D01*
X3887250Y226200D02*
Y236200D01*
X3907650Y231200D02*
X3917650D01*
X3912650Y226200D02*
Y236200D01*
X3933050Y231200D02*
X3943050D01*
X3938050Y226200D02*
Y236200D01*
X3831450Y205800D02*
X3841450D01*
X3836450Y200800D02*
Y210800D01*
X3856850Y205800D02*
X3866850D01*
X3861850Y200800D02*
Y210800D01*
X3882250Y205800D02*
X3892250D01*
X3887250Y200800D02*
Y210800D01*
X3907650Y205800D02*
X3917650D01*
X3912650Y200800D02*
Y210800D01*
X3933050Y205800D02*
X3943050D01*
X3938050Y200800D02*
Y210800D01*
X3892714Y325000D02*
X3897286D01*
X3895000Y322714D02*
Y327286D01*
X3902714Y350000D02*
X3907286D01*
X3905000Y347714D02*
Y352286D01*
X3892714Y455000D02*
X3897286D01*
X3895000Y452714D02*
Y457286D01*
X3902714Y480000D02*
X3907286D01*
X3905000Y477714D02*
Y482286D01*
X3892714Y585000D02*
X3897286D01*
X3895000Y582714D02*
Y587286D01*
X3902714Y610000D02*
X3907286D01*
X3905000Y607714D02*
Y612286D01*
X3942714Y369000D02*
X3947286D01*
X3945000Y366714D02*
Y371286D01*
X3952714Y305000D02*
X3957286D01*
X3955000Y302714D02*
Y307286D01*
X3942714Y270000D02*
X3947286D01*
X3945000Y267714D02*
Y272286D01*
X3952714Y499000D02*
X3957286D01*
X3955000Y496714D02*
Y501286D01*
X3942714Y435000D02*
X3947286D01*
X3945000Y432714D02*
Y437286D01*
X3952714Y566000D02*
X3957286D01*
X3955000Y563714D02*
Y568286D01*
X3942714Y629000D02*
X3947286D01*
X3945000Y626714D02*
Y631286D01*
X3926714Y700000D02*
X3931286D01*
X3929000Y697714D02*
Y702286D01*
X3724000Y900000D02*
X3756000D01*
X3740000Y884000D02*
Y916000D01*
X3924000Y900000D02*
X3956000D01*
X3940000Y884000D02*
Y916000D01*
X3924000Y1580000D02*
X3956000D01*
X3940000Y1564000D02*
Y1596000D01*
X3724000Y1580000D02*
X3756000D01*
X3740000Y1564000D02*
Y1596000D01*
X3719300Y1496800D02*
X3729300D01*
X3724300Y1491800D02*
Y1501800D01*
X3719300Y1471400D02*
X3729300D01*
X3724300Y1466400D02*
Y1476400D01*
X3719300Y1446000D02*
X3729300D01*
X3724300Y1441000D02*
Y1451000D01*
X3744700Y1496800D02*
X3754700D01*
X3749700Y1491800D02*
Y1501800D01*
X3744700Y1446000D02*
X3754700D01*
X3749700Y1441000D02*
Y1451000D01*
X3744700Y1471400D02*
X3754700D01*
X3749700Y1466400D02*
Y1476400D01*
X3719300Y1420600D02*
X3729300D01*
X3724300Y1415600D02*
Y1425600D01*
X3719300Y1395200D02*
X3729300D01*
X3724300Y1390200D02*
Y1400200D01*
X3744700Y1420600D02*
X3754700D01*
X3749700Y1415600D02*
Y1425600D01*
X3744700Y1395200D02*
X3754700D01*
X3749700Y1390200D02*
Y1400200D01*
X3719300Y1290800D02*
X3729300D01*
X3724300Y1285800D02*
Y1295800D01*
X3719300Y1265400D02*
X3729300D01*
X3724300Y1260400D02*
Y1270400D01*
X3719300Y1240000D02*
X3729300D01*
X3724300Y1235000D02*
Y1245000D01*
X3744700Y1290800D02*
X3754700D01*
X3749700Y1285800D02*
Y1295800D01*
X3744700Y1240000D02*
X3754700D01*
X3749700Y1235000D02*
Y1245000D01*
X3744700Y1265400D02*
X3754700D01*
X3749700Y1260400D02*
Y1270400D01*
X3719300Y1214600D02*
X3729300D01*
X3724300Y1209600D02*
Y1219600D01*
X3719300Y1189200D02*
X3729300D01*
X3724300Y1184200D02*
Y1194200D01*
X3744700Y1214600D02*
X3754700D01*
X3749700Y1209600D02*
Y1219600D01*
X3744700Y1189200D02*
X3754700D01*
X3749700Y1184200D02*
Y1194200D01*
X3719300Y1084800D02*
X3729300D01*
X3724300Y1079800D02*
Y1089800D01*
X3719300Y1059400D02*
X3729300D01*
X3724300Y1054400D02*
Y1064400D01*
X3719300Y1034000D02*
X3729300D01*
X3724300Y1029000D02*
Y1039000D01*
X3744700Y1084800D02*
X3754700D01*
X3749700Y1079800D02*
Y1089800D01*
X3744700Y1034000D02*
X3754700D01*
X3749700Y1029000D02*
Y1039000D01*
X3744700Y1059400D02*
X3754700D01*
X3749700Y1054400D02*
Y1064400D01*
X3719300Y1008600D02*
X3729300D01*
X3724300Y1003600D02*
Y1013600D01*
X3719300Y983200D02*
X3729300D01*
X3724300Y978200D02*
Y988200D01*
X3744700Y1008600D02*
X3754700D01*
X3749700Y1003600D02*
Y1013600D01*
X3744700Y983200D02*
X3754700D01*
X3749700Y978200D02*
Y988200D01*
X3856850Y1514000D02*
X3866850D01*
X3861850Y1509000D02*
Y1519000D01*
X3831450Y1514000D02*
X3841450D01*
X3836450Y1509000D02*
Y1519000D01*
X3882250Y1514000D02*
X3892250D01*
X3887250Y1509000D02*
Y1519000D01*
X3907650Y1514000D02*
X3917650D01*
X3912650Y1509000D02*
Y1519000D01*
X3933050Y1514000D02*
X3943050D01*
X3938050Y1509000D02*
Y1519000D01*
X3831450Y1488600D02*
X3841450D01*
X3836450Y1483600D02*
Y1493600D01*
X3856850Y1488600D02*
X3866850D01*
X3861850Y1483600D02*
Y1493600D01*
X3882250Y1488600D02*
X3892250D01*
X3887250Y1483600D02*
Y1493600D01*
X3907650Y1488600D02*
X3917650D01*
X3912650Y1483600D02*
Y1493600D01*
X3933050Y1488600D02*
X3943050D01*
X3938050Y1483600D02*
Y1493600D01*
X3856850Y991200D02*
X3866850D01*
X3861850Y986200D02*
Y996200D01*
X3831450Y991200D02*
X3841450D01*
X3836450Y986200D02*
Y996200D01*
X3882250Y991200D02*
X3892250D01*
X3887250Y986200D02*
Y996200D01*
X3907650Y991200D02*
X3917650D01*
X3912650Y986200D02*
Y996200D01*
X3933050Y991200D02*
X3943050D01*
X3938050Y986200D02*
Y996200D01*
X3831450Y965800D02*
X3841450D01*
X3836450Y960800D02*
Y970800D01*
X3856850Y965800D02*
X3866850D01*
X3861850Y960800D02*
Y970800D01*
X3882250Y965800D02*
X3892250D01*
X3887250Y960800D02*
Y970800D01*
X3907650Y965800D02*
X3917650D01*
X3912650Y960800D02*
Y970800D01*
X3933050Y965800D02*
X3943050D01*
X3938050Y960800D02*
Y970800D01*
X3892714Y1085000D02*
X3897286D01*
X3895000Y1082714D02*
Y1087286D01*
X3902714Y1110000D02*
X3907286D01*
X3905000Y1107714D02*
Y1112286D01*
X3892714Y1215000D02*
X3897286D01*
X3895000Y1212714D02*
Y1217286D01*
X3902714Y1240000D02*
X3907286D01*
X3905000Y1237714D02*
Y1242286D01*
X3892714Y1345000D02*
X3897286D01*
X3895000Y1342714D02*
Y1347286D01*
X3902714Y1370000D02*
X3907286D01*
X3905000Y1367714D02*
Y1372286D01*
X3942714Y1129000D02*
X3947286D01*
X3945000Y1126714D02*
Y1131286D01*
X3952714Y1065000D02*
X3957286D01*
X3955000Y1062714D02*
Y1067286D01*
X3942714Y1030000D02*
X3947286D01*
X3945000Y1027714D02*
Y1032286D01*
X3952714Y1259000D02*
X3957286D01*
X3955000Y1256714D02*
Y1261286D01*
X3942714Y1195000D02*
X3947286D01*
X3945000Y1192714D02*
Y1197286D01*
X3952714Y1326000D02*
X3957286D01*
X3955000Y1323714D02*
Y1328286D01*
X3942714Y1389000D02*
X3947286D01*
X3945000Y1386714D02*
Y1391286D01*
X3926714Y1460000D02*
X3931286D01*
X3929000Y1457714D02*
Y1462286D01*
X3724000Y1660000D02*
X3756000D01*
X3740000Y1644000D02*
Y1676000D01*
X3924000Y1660000D02*
X3956000D01*
X3940000Y1644000D02*
Y1676000D01*
X3924000Y2340000D02*
X3956000D01*
X3940000Y2324000D02*
Y2356000D01*
X3724000Y2340000D02*
X3756000D01*
X3740000Y2324000D02*
Y2356000D01*
X3719300Y2256800D02*
X3729300D01*
X3724300Y2251800D02*
Y2261800D01*
X3719300Y2231400D02*
X3729300D01*
X3724300Y2226400D02*
Y2236400D01*
X3719300Y2206000D02*
X3729300D01*
X3724300Y2201000D02*
Y2211000D01*
X3744700Y2256800D02*
X3754700D01*
X3749700Y2251800D02*
Y2261800D01*
X3744700Y2206000D02*
X3754700D01*
X3749700Y2201000D02*
Y2211000D01*
X3744700Y2231400D02*
X3754700D01*
X3749700Y2226400D02*
Y2236400D01*
X3719300Y2180600D02*
X3729300D01*
X3724300Y2175600D02*
Y2185600D01*
X3719300Y2155200D02*
X3729300D01*
X3724300Y2150200D02*
Y2160200D01*
X3744700Y2180600D02*
X3754700D01*
X3749700Y2175600D02*
Y2185600D01*
X3744700Y2155200D02*
X3754700D01*
X3749700Y2150200D02*
Y2160200D01*
X3719300Y2050800D02*
X3729300D01*
X3724300Y2045800D02*
Y2055800D01*
X3719300Y2025400D02*
X3729300D01*
X3724300Y2020400D02*
Y2030400D01*
X3719300Y2000000D02*
X3729300D01*
X3724300Y1995000D02*
Y2005000D01*
X3744700Y2050800D02*
X3754700D01*
X3749700Y2045800D02*
Y2055800D01*
X3744700Y2000000D02*
X3754700D01*
X3749700Y1995000D02*
Y2005000D01*
X3744700Y2025400D02*
X3754700D01*
X3749700Y2020400D02*
Y2030400D01*
X3719300Y1974600D02*
X3729300D01*
X3724300Y1969600D02*
Y1979600D01*
X3719300Y1949200D02*
X3729300D01*
X3724300Y1944200D02*
Y1954200D01*
X3744700Y1974600D02*
X3754700D01*
X3749700Y1969600D02*
Y1979600D01*
X3744700Y1949200D02*
X3754700D01*
X3749700Y1944200D02*
Y1954200D01*
X3719300Y1844800D02*
X3729300D01*
X3724300Y1839800D02*
Y1849800D01*
X3719300Y1819400D02*
X3729300D01*
X3724300Y1814400D02*
Y1824400D01*
X3719300Y1794000D02*
X3729300D01*
X3724300Y1789000D02*
Y1799000D01*
X3744700Y1844800D02*
X3754700D01*
X3749700Y1839800D02*
Y1849800D01*
X3744700Y1794000D02*
X3754700D01*
X3749700Y1789000D02*
Y1799000D01*
X3744700Y1819400D02*
X3754700D01*
X3749700Y1814400D02*
Y1824400D01*
X3719300Y1768600D02*
X3729300D01*
X3724300Y1763600D02*
Y1773600D01*
X3719300Y1743200D02*
X3729300D01*
X3724300Y1738200D02*
Y1748200D01*
X3744700Y1768600D02*
X3754700D01*
X3749700Y1763600D02*
Y1773600D01*
X3744700Y1743200D02*
X3754700D01*
X3749700Y1738200D02*
Y1748200D01*
X3856850Y2274000D02*
X3866850D01*
X3861850Y2269000D02*
Y2279000D01*
X3831450Y2274000D02*
X3841450D01*
X3836450Y2269000D02*
Y2279000D01*
X3882250Y2274000D02*
X3892250D01*
X3887250Y2269000D02*
Y2279000D01*
X3907650Y2274000D02*
X3917650D01*
X3912650Y2269000D02*
Y2279000D01*
X3933050Y2274000D02*
X3943050D01*
X3938050Y2269000D02*
Y2279000D01*
X3831450Y2248600D02*
X3841450D01*
X3836450Y2243600D02*
Y2253600D01*
X3856850Y2248600D02*
X3866850D01*
X3861850Y2243600D02*
Y2253600D01*
X3882250Y2248600D02*
X3892250D01*
X3887250Y2243600D02*
Y2253600D01*
X3907650Y2248600D02*
X3917650D01*
X3912650Y2243600D02*
Y2253600D01*
X3933050Y2248600D02*
X3943050D01*
X3938050Y2243600D02*
Y2253600D01*
X3856850Y1751200D02*
X3866850D01*
X3861850Y1746200D02*
Y1756200D01*
X3831450Y1751200D02*
X3841450D01*
X3836450Y1746200D02*
Y1756200D01*
X3882250Y1751200D02*
X3892250D01*
X3887250Y1746200D02*
Y1756200D01*
X3907650Y1751200D02*
X3917650D01*
X3912650Y1746200D02*
Y1756200D01*
X3933050Y1751200D02*
X3943050D01*
X3938050Y1746200D02*
Y1756200D01*
X3831450Y1725800D02*
X3841450D01*
X3836450Y1720800D02*
Y1730800D01*
X3856850Y1725800D02*
X3866850D01*
X3861850Y1720800D02*
Y1730800D01*
X3882250Y1725800D02*
X3892250D01*
X3887250Y1720800D02*
Y1730800D01*
X3907650Y1725800D02*
X3917650D01*
X3912650Y1720800D02*
Y1730800D01*
X3933050Y1725800D02*
X3943050D01*
X3938050Y1720800D02*
Y1730800D01*
X3892714Y1845000D02*
X3897286D01*
X3895000Y1842714D02*
Y1847286D01*
X3902714Y1870000D02*
X3907286D01*
X3905000Y1867714D02*
Y1872286D01*
X3892714Y1975000D02*
X3897286D01*
X3895000Y1972714D02*
Y1977286D01*
X3902714Y2000000D02*
X3907286D01*
X3905000Y1997714D02*
Y2002286D01*
X3892714Y2105000D02*
X3897286D01*
X3895000Y2102714D02*
Y2107286D01*
X3902714Y2130000D02*
X3907286D01*
X3905000Y2127714D02*
Y2132286D01*
X3942714Y1889000D02*
X3947286D01*
X3945000Y1886714D02*
Y1891286D01*
X3952714Y1825000D02*
X3957286D01*
X3955000Y1822714D02*
Y1827286D01*
X3942714Y1790000D02*
X3947286D01*
X3945000Y1787714D02*
Y1792286D01*
X3952714Y2019000D02*
X3957286D01*
X3955000Y2016714D02*
Y2021286D01*
X3942714Y1955000D02*
X3947286D01*
X3945000Y1952714D02*
Y1957286D01*
X3952714Y2086000D02*
X3957286D01*
X3955000Y2083714D02*
Y2088286D01*
X3942714Y2149000D02*
X3947286D01*
X3945000Y2146714D02*
Y2151286D01*
X3926714Y2220000D02*
X3931286D01*
X3929000Y2217714D02*
Y2222286D01*
X4559650Y2897450D02*
X4568650D01*
X4564150Y2892950D02*
Y2901950D01*
X4559650Y2922850D02*
X4568650D01*
X4564150Y2918350D02*
Y2927350D01*
X4585050Y2897450D02*
X4594050D01*
X4589550Y2892950D02*
Y2901950D01*
X4585050Y2922850D02*
X4594050D01*
X4589550Y2918350D02*
Y2927350D01*
X4610450Y2897450D02*
X4619450D01*
X4614950Y2892950D02*
Y2901950D01*
X4610450Y2922850D02*
X4619450D01*
X4614950Y2918350D02*
Y2927350D01*
X4635850Y2897450D02*
X4644850D01*
X4640350Y2892950D02*
Y2901950D01*
X4635850Y2922850D02*
X4644850D01*
X4640350Y2918350D02*
Y2927350D01*
X4661250Y2897450D02*
X4670250D01*
X4665750Y2892950D02*
Y2901950D01*
X4661250Y2922850D02*
X4670250D01*
X4665750Y2918350D02*
Y2927350D01*
X4521550Y2789500D02*
X4530550D01*
X4526050Y2785000D02*
Y2794000D01*
X4521550Y2814900D02*
X4530550D01*
X4526050Y2810400D02*
Y2819400D01*
X4546950Y2789500D02*
X4555950D01*
X4551450Y2785000D02*
Y2794000D01*
X4546950Y2814900D02*
X4555950D01*
X4551450Y2810400D02*
Y2819400D01*
X4572350Y2789500D02*
X4581350D01*
X4576850Y2785000D02*
Y2794000D01*
X4572350Y2814900D02*
X4581350D01*
X4576850Y2810400D02*
Y2819400D01*
X4597750Y2789500D02*
X4606750D01*
X4602250Y2785000D02*
Y2794000D01*
X4597750Y2814900D02*
X4606750D01*
X4602250Y2810400D02*
Y2819400D01*
X4623150Y2789500D02*
X4632150D01*
X4627650Y2785000D02*
Y2794000D01*
X4623150Y2814900D02*
X4632150D01*
X4627650Y2810400D02*
Y2819400D01*
X4648550Y2789500D02*
X4657550D01*
X4653050Y2785000D02*
Y2794000D01*
X4648550Y2814900D02*
X4657550D01*
X4653050Y2810400D02*
Y2819400D01*
X4673950Y2789500D02*
X4682950D01*
X4678450Y2785000D02*
Y2794000D01*
X4673950Y2814900D02*
X4682950D01*
X4678450Y2810400D02*
Y2819400D01*
X4699350Y2789500D02*
X4708350D01*
X4703850Y2785000D02*
Y2794000D01*
X4699350Y2814900D02*
X4708350D01*
X4703850Y2810400D02*
Y2819400D01*
X4274000Y2940000D02*
X4306000D01*
X4290000Y2924000D02*
Y2956000D01*
X4924000Y2940000D02*
X4956000D01*
X4940000Y2924000D02*
Y2956000D01*
X3794000Y2555160D02*
X3826000D01*
X3810000Y2539160D02*
Y2571160D01*
X4064000Y2555160D02*
X4096000D01*
X4080000Y2539160D02*
Y2571160D01*
X3888550Y2554400D02*
X3897550D01*
X3893050Y2549900D02*
Y2558900D01*
X3888550Y2579800D02*
X3897550D01*
X3893050Y2575300D02*
Y2584300D01*
X3913950Y2554400D02*
X3922950D01*
X3918450Y2549900D02*
Y2558900D01*
X3913950Y2579800D02*
X3922950D01*
X3918450Y2575300D02*
Y2584300D01*
X3939350Y2554400D02*
X3948350D01*
X3943850Y2549900D02*
Y2558900D01*
X3939350Y2579800D02*
X3948350D01*
X3943850Y2575300D02*
Y2584300D01*
X3964750Y2554400D02*
X3973750D01*
X3969250Y2549900D02*
Y2558900D01*
X3964750Y2579800D02*
X3973750D01*
X3969250Y2575300D02*
Y2584300D01*
X3990150Y2554400D02*
X3999150D01*
X3994650Y2549900D02*
Y2558900D01*
X3990150Y2579800D02*
X3999150D01*
X3994650Y2575300D02*
Y2584300D01*
M02*
