%FSLAX44Y44*%
%MOMM*%
G71*
G01*
G75*
G04 Layer_Color=8421504*
%ADD10C,0.1000*%
%ADD11C,2.0000*%
%ADD12C,1.5000*%
%ADD13R,1.5000X1.4000*%
%ADD14C,0.3048*%
%ADD15C,0.6350*%
%ADD16C,0.4064*%
%ADD17O,0.6000X1.9000*%
G04:AMPARAMS|DCode=18|XSize=0.64mm|YSize=0.8mm|CornerRadius=0.064mm|HoleSize=0mm|Usage=FLASHONLY|Rotation=180.000|XOffset=0mm|YOffset=0mm|HoleType=Round|Shape=RoundedRectangle|*
%AMROUNDEDRECTD18*
21,1,0.6400,0.6720,0,0,180.0*
21,1,0.5120,0.8000,0,0,180.0*
1,1,0.1280,-0.2560,0.3360*
1,1,0.1280,0.2560,0.3360*
1,1,0.1280,0.2560,-0.3360*
1,1,0.1280,-0.2560,-0.3360*
%
%ADD18ROUNDEDRECTD18*%
G04:AMPARAMS|DCode=19|XSize=0.44mm|YSize=0.8mm|CornerRadius=0.044mm|HoleSize=0mm|Usage=FLASHONLY|Rotation=180.000|XOffset=0mm|YOffset=0mm|HoleType=Round|Shape=RoundedRectangle|*
%AMROUNDEDRECTD19*
21,1,0.4400,0.7120,0,0,180.0*
21,1,0.3520,0.8000,0,0,180.0*
1,1,0.0880,-0.1760,0.3560*
1,1,0.0880,0.1760,0.3560*
1,1,0.0880,0.1760,-0.3560*
1,1,0.0880,-0.1760,-0.3560*
%
%ADD19ROUNDEDRECTD19*%
%ADD20R,1.4000X1.5000*%
%ADD21C,0.2540*%
%ADD22C,1.0160*%
%ADD23C,0.5080*%
%ADD24C,0.7620*%
G04:AMPARAMS|DCode=25|XSize=0.64mm|YSize=0.8mm|CornerRadius=0.064mm|HoleSize=0mm|Usage=FLASHONLY|Rotation=90.000|XOffset=0mm|YOffset=0mm|HoleType=Round|Shape=RoundedRectangle|*
%AMROUNDEDRECTD25*
21,1,0.6400,0.6720,0,0,90.0*
21,1,0.5120,0.8000,0,0,90.0*
1,1,0.1280,0.3360,0.2560*
1,1,0.1280,0.3360,-0.2560*
1,1,0.1280,-0.3360,-0.2560*
1,1,0.1280,-0.3360,0.2560*
%
%ADD25ROUNDEDRECTD25*%
G04:AMPARAMS|DCode=26|XSize=0.44mm|YSize=0.8mm|CornerRadius=0.044mm|HoleSize=0mm|Usage=FLASHONLY|Rotation=90.000|XOffset=0mm|YOffset=0mm|HoleType=Round|Shape=RoundedRectangle|*
%AMROUNDEDRECTD26*
21,1,0.4400,0.7120,0,0,90.0*
21,1,0.3520,0.8000,0,0,90.0*
1,1,0.0880,0.3560,0.1760*
1,1,0.0880,0.3560,-0.1760*
1,1,0.0880,-0.3560,-0.1760*
1,1,0.0880,-0.3560,0.1760*
%
%ADD26ROUNDEDRECTD26*%
%ADD27O,2.2000X0.6000*%
%ADD28C,1.2700*%
G04:AMPARAMS|DCode=29|XSize=2.1mm|YSize=1.4mm|CornerRadius=0.14mm|HoleSize=0mm|Usage=FLASHONLY|Rotation=90.000|XOffset=0mm|YOffset=0mm|HoleType=Round|Shape=RoundedRectangle|*
%AMROUNDEDRECTD29*
21,1,2.1000,1.1200,0,0,90.0*
21,1,1.8200,1.4000,0,0,90.0*
1,1,0.2800,0.5600,0.9100*
1,1,0.2800,0.5600,-0.9100*
1,1,0.2800,-0.5600,-0.9100*
1,1,0.2800,-0.5600,0.9100*
%
%ADD29ROUNDEDRECTD29*%
%ADD30C,3.3000*%
%ADD31R,1.5000X1.5000*%
%ADD32C,1.6500*%
%ADD33R,1.6500X1.6500*%
%ADD34R,1.6500X1.6500*%
%ADD35C,0.7620*%
%ADD36C,1.8000*%
%ADD37C,1.1000*%
%ADD38O,1.5500X1.5000*%
%ADD39R,1.5000X1.5000*%
%ADD40C,0.2000*%
%ADD41C,0.1500*%
%ADD42C,0.2500*%
%ADD43C,0.1200*%
%ADD44C,0.1400*%
%ADD45R,4.1000X1.9000*%
%ADD46R,1.9000X4.1000*%
%ADD47C,0.1800*%
D10*
X0Y0D02*
Y3100000D01*
X5100000D01*
Y0D02*
Y3100000D01*
X0Y0D02*
X5100000D01*
X110000Y210000D02*
Y310000D01*
X210000Y110000D02*
X310000D01*
X110000Y1160000D02*
Y1260000D01*
X210000Y1360000D02*
X310000D01*
X1660000D02*
X1760000D01*
X1860000Y1160000D02*
Y1260000D01*
Y210000D02*
Y310000D01*
X1660000Y110000D02*
X1760000D01*
X1660000Y1380000D02*
X1760000D01*
X1860000Y1480000D02*
Y1580000D01*
Y2430000D02*
Y2530000D01*
X1660000Y2630000D02*
X1760000D01*
X210000D02*
X310000D01*
X110000Y2430000D02*
Y2530000D01*
X210000Y1380000D02*
X310000D01*
X110000Y1480000D02*
Y1580000D01*
X3430000Y1380000D02*
X3530000D01*
X3630000Y1480000D02*
Y1580000D01*
Y2430000D02*
Y2530000D01*
X3430000Y2630000D02*
X3530000D01*
X1980000D02*
X2080000D01*
X1880000Y2430000D02*
Y2530000D01*
X1980000Y1380000D02*
X2080000D01*
X1880000Y1480000D02*
Y1580000D01*
X3430000Y110000D02*
X3530000D01*
X3630000Y210000D02*
Y310000D01*
Y1160000D02*
Y1260000D01*
X3430000Y1360000D02*
X3530000D01*
X1980000D02*
X2080000D01*
X1880000Y1160000D02*
Y1260000D01*
X1980000Y110000D02*
X2080000D01*
X1880000Y210000D02*
Y310000D01*
X230000Y2990000D02*
X290000D01*
X230000Y2740000D02*
X290000D01*
X550000D02*
X610000D01*
X550000Y2990000D02*
X610000D01*
X870000Y2740000D02*
X930000D01*
X870000Y2990000D02*
X930000D01*
X1190000Y2740000D02*
X1250000D01*
X1190000Y2990000D02*
X1250000D01*
X1640000D02*
X1700000D01*
X1640000Y2690000D02*
X1700000D01*
X2140000Y2990000D02*
X2200000D01*
X2140000Y2690000D02*
X2200000D01*
X3690000Y250000D02*
Y310000D01*
Y650000D02*
Y710000D01*
X3990000Y650000D02*
Y710000D01*
Y250000D02*
Y310000D01*
X4010000Y650000D02*
Y710000D01*
Y250000D02*
Y310000D01*
X4310000Y650000D02*
Y710000D01*
Y250000D02*
Y310000D01*
X4990000Y250000D02*
Y310000D01*
Y650000D02*
Y710000D01*
X4690000Y250000D02*
Y310000D01*
Y650000D02*
Y710000D01*
X4670000Y250000D02*
Y310000D01*
Y650000D02*
Y710000D01*
X4370000Y650000D02*
Y710000D01*
Y250000D02*
Y310000D01*
X4310000Y1010000D02*
Y1070000D01*
Y1410000D02*
Y1470000D01*
X4010000Y1010000D02*
Y1070000D01*
Y1410000D02*
Y1470000D01*
X3990000Y1010000D02*
Y1070000D01*
Y1410000D02*
Y1470000D01*
X3690000Y1410000D02*
Y1470000D01*
Y1010000D02*
Y1070000D01*
X4990000Y1010000D02*
Y1070000D01*
Y1410000D02*
Y1470000D01*
X4690000Y1010000D02*
Y1070000D01*
Y1410000D02*
Y1470000D01*
X4670000Y1010000D02*
Y1070000D01*
Y1410000D02*
Y1470000D01*
X4370000Y1410000D02*
Y1470000D01*
Y1010000D02*
Y1070000D01*
X4310000Y1770000D02*
Y1830000D01*
Y2170000D02*
Y2230000D01*
X4010000Y1770000D02*
Y1830000D01*
Y2170000D02*
Y2230000D01*
X3990000Y1770000D02*
Y1830000D01*
Y2170000D02*
Y2230000D01*
X3690000Y2170000D02*
Y2230000D01*
Y1770000D02*
Y1830000D01*
X4990000Y1770000D02*
Y1830000D01*
Y2170000D02*
Y2230000D01*
X4690000Y1770000D02*
Y1830000D01*
Y2170000D02*
Y2230000D01*
X4670000Y1770000D02*
Y1830000D01*
Y2170000D02*
Y2230000D01*
X4370000Y2170000D02*
Y2230000D01*
Y1770000D02*
Y1830000D01*
X4990000Y2740000D02*
Y2840000D01*
X4240000Y2740000D02*
Y2840000D01*
X2805000Y2760000D02*
X2865000D01*
X2805000Y2990000D02*
X2865000D01*
X3175000D02*
X3235000D01*
X3175000Y2760000D02*
X3235000D01*
X3545000Y2990000D02*
X3605000D01*
X3545000Y2760000D02*
X3605000D01*
X3915000Y2990000D02*
X3975000D01*
X3915000Y2760000D02*
X3975000D01*
X3915000Y2740000D02*
X3975000D01*
X3915000Y2510000D02*
X3975000D01*
D11*
X3530000Y1370000D02*
X3640000D01*
X100000Y100000D02*
X210000D01*
X100000D02*
Y210000D01*
Y1370000D02*
X210000D01*
X310000Y100000D02*
X1660000D01*
X1760000D02*
X1980000D01*
X2080000D02*
X3430000D01*
X3530000D02*
X3640000D01*
Y210000D01*
Y310000D02*
Y1160000D01*
Y1260000D02*
Y1480000D01*
Y1580000D02*
Y2430000D01*
X1870000Y1580000D02*
Y2430000D01*
Y1260000D02*
Y1480000D01*
Y310000D02*
Y1160000D01*
X100000Y1580000D02*
Y2430000D01*
Y1260000D02*
Y1480000D01*
Y310000D02*
Y1160000D01*
X2080000Y1370000D02*
X3430000D01*
X1760000D02*
X1980000D01*
X310000D02*
X1660000D01*
X1870000Y100000D02*
Y210000D01*
X5000000Y100000D02*
Y250000D01*
Y310000D02*
Y650000D01*
Y710000D02*
Y1010000D01*
Y1070000D02*
Y1410000D01*
Y1470000D02*
Y1770000D01*
Y1830000D02*
Y2170000D01*
Y2230000D02*
Y2380000D01*
X4680000Y2230000D02*
Y2380000D01*
Y1830000D02*
Y2170000D01*
Y1470000D02*
Y1770000D01*
Y1070000D02*
Y1410000D01*
Y710000D02*
Y1010000D01*
Y310000D02*
Y650000D01*
X4360000Y2230000D02*
Y2380000D01*
Y1830000D02*
Y2170000D01*
Y1470000D02*
Y1770000D01*
Y1070000D02*
Y1410000D01*
Y710000D02*
Y1010000D01*
Y310000D02*
Y650000D01*
Y100000D02*
Y250000D01*
X4320000Y2230000D02*
Y2380000D01*
Y1830000D02*
Y2170000D01*
Y1470000D02*
Y1770000D01*
Y1070000D02*
Y1410000D01*
Y710000D02*
Y1010000D01*
Y310000D02*
Y650000D01*
Y100000D02*
Y250000D01*
X4000000Y2230000D02*
Y2380000D01*
Y1830000D02*
Y2170000D01*
Y1470000D02*
Y1770000D01*
Y1070000D02*
Y1410000D01*
Y710000D02*
Y1010000D01*
Y310000D02*
Y650000D01*
X3680000Y2230000D02*
Y2380000D01*
Y1830000D02*
Y2170000D01*
Y1470000D02*
Y1770000D01*
Y1070000D02*
Y1410000D01*
Y710000D02*
Y1010000D01*
Y310000D02*
Y650000D01*
Y100000D02*
Y250000D01*
Y1620000D02*
X4320000D01*
X4360000D02*
X5000000D01*
X3680000Y860000D02*
X4320000D01*
X4360000D02*
X5000000D01*
X310000Y2640000D02*
X1660000D01*
X1760000D02*
X1980000D01*
X2080000D02*
X3430000D01*
X1870000Y2530000D02*
Y2640000D01*
X100000D02*
X210000D01*
X100000Y2530000D02*
Y2640000D01*
X3640000Y2530000D02*
Y2640000D01*
X3530000D02*
X3640000D01*
X100000Y2730000D02*
Y3000000D01*
X230000D01*
X100000Y2730000D02*
X230000D01*
X420000D02*
Y3000000D01*
X290000D02*
X550000D01*
X290000Y2730000D02*
X550000D01*
X610000D02*
X870000D01*
X610000Y3000000D02*
X870000D01*
X740000Y2730000D02*
Y3000000D01*
X930000Y2730000D02*
X1190000D01*
X930000Y3000000D02*
X1190000D01*
X1060000Y2730000D02*
Y3000000D01*
X1250000D02*
X1380000D01*
X1250000Y2730000D02*
X1380000D01*
Y3000000D01*
X1420000Y2680000D02*
Y3000000D01*
Y2680000D02*
X1640000D01*
X1700000D02*
X2140000D01*
X2200000D02*
X2420000D01*
Y3000000D01*
X2200000D02*
X2420000D01*
X1700000D02*
X2140000D01*
X1420000D02*
X1640000D01*
X1920000Y2680000D02*
Y3000000D01*
X2650000D02*
X2810000D01*
X2650000Y2750000D02*
Y3000000D01*
Y2750000D02*
X2810000D01*
X2860000D02*
X3180000D01*
X3230000D02*
X3550000D01*
X3600000D02*
X3920000D01*
X3970000D02*
X4130000D01*
X3970000Y3000000D02*
X4130000D01*
Y2500000D02*
Y3000000D01*
X3970000Y2500000D02*
X4130000D01*
X3760000D02*
X3920000D01*
X3760000D02*
Y3000000D01*
X3600000D02*
X3920000D01*
X3230000D02*
X3550000D01*
X2860000D02*
X3180000D01*
X3020000Y2750000D02*
Y3000000D01*
X3390000Y2750000D02*
Y3000000D01*
X4230000D02*
X5000000D01*
Y2840000D02*
Y3000000D01*
Y2580000D02*
Y2740000D01*
X4230000Y2580000D02*
X5000000D01*
X4230000D02*
Y2740000D01*
Y2840000D02*
Y3000000D01*
X4000000Y100000D02*
Y250000D01*
X4680000Y100000D02*
Y250000D01*
X3680000Y100000D02*
X4320000D01*
X4360000D02*
X5000000D01*
X3680000Y2380000D02*
X4320000D01*
X4360000D02*
X5000000D01*
D12*
X5050000Y2900000D02*
D03*
X50000D02*
D03*
Y200000D02*
D03*
X5050000D02*
D03*
D13*
X4001000Y2927750D02*
D03*
Y2947750D02*
D03*
X3962900Y2927750D02*
D03*
Y2947750D02*
D03*
X3924800Y2927750D02*
D03*
Y2947750D02*
D03*
X3886700Y2927750D02*
D03*
Y2947750D02*
D03*
X3848600Y2927750D02*
D03*
Y2947750D02*
D03*
X3810500Y2927750D02*
D03*
Y2947750D02*
D03*
X4039100Y2927750D02*
D03*
Y2947750D02*
D03*
X4077200Y2927750D02*
D03*
Y2947750D02*
D03*
X3848600Y2903300D02*
D03*
Y2883300D02*
D03*
X3810500D02*
D03*
Y2903300D02*
D03*
X3924800D02*
D03*
Y2883300D02*
D03*
X3886700D02*
D03*
Y2903300D02*
D03*
X4001000D02*
D03*
Y2883300D02*
D03*
X3962900D02*
D03*
Y2903300D02*
D03*
X4077200D02*
D03*
Y2883300D02*
D03*
X4039100D02*
D03*
Y2903300D02*
D03*
X3631000Y2927750D02*
D03*
Y2947750D02*
D03*
X3592900Y2927750D02*
D03*
Y2947750D02*
D03*
X3554800Y2927750D02*
D03*
Y2947750D02*
D03*
X3516700Y2927750D02*
D03*
Y2947750D02*
D03*
X3478600Y2927750D02*
D03*
Y2947750D02*
D03*
X3440500Y2927750D02*
D03*
Y2947750D02*
D03*
X3669100Y2927750D02*
D03*
Y2947750D02*
D03*
X3707200Y2927750D02*
D03*
Y2947750D02*
D03*
X3478600Y2903300D02*
D03*
Y2883300D02*
D03*
X3440500D02*
D03*
Y2903300D02*
D03*
X3554800D02*
D03*
Y2883300D02*
D03*
X3516700D02*
D03*
Y2903300D02*
D03*
X3631000D02*
D03*
Y2883300D02*
D03*
X3592900D02*
D03*
Y2903300D02*
D03*
X3707200D02*
D03*
Y2883300D02*
D03*
X3669100D02*
D03*
Y2903300D02*
D03*
X3261000Y2927750D02*
D03*
Y2947750D02*
D03*
X3222900Y2927750D02*
D03*
Y2947750D02*
D03*
X3184800Y2927750D02*
D03*
Y2947750D02*
D03*
X3146700Y2927750D02*
D03*
Y2947750D02*
D03*
X3108600Y2927750D02*
D03*
Y2947750D02*
D03*
X3070500Y2927750D02*
D03*
Y2947750D02*
D03*
X3299100Y2927750D02*
D03*
Y2947750D02*
D03*
X3337200Y2927750D02*
D03*
Y2947750D02*
D03*
X3108600Y2903300D02*
D03*
Y2883300D02*
D03*
X3070500D02*
D03*
Y2903300D02*
D03*
X3184800D02*
D03*
Y2883300D02*
D03*
X3146700D02*
D03*
Y2903300D02*
D03*
X3261000D02*
D03*
Y2883300D02*
D03*
X3222900D02*
D03*
Y2903300D02*
D03*
X3337200D02*
D03*
Y2883300D02*
D03*
X3299100D02*
D03*
Y2903300D02*
D03*
X2891000Y2927750D02*
D03*
Y2947750D02*
D03*
X2852900Y2927750D02*
D03*
Y2947750D02*
D03*
X2814800Y2927750D02*
D03*
Y2947750D02*
D03*
X2776700Y2927750D02*
D03*
Y2947750D02*
D03*
X2738600Y2927750D02*
D03*
Y2947750D02*
D03*
X2700500Y2927750D02*
D03*
Y2947750D02*
D03*
X2929100Y2927750D02*
D03*
Y2947750D02*
D03*
X2967200Y2927750D02*
D03*
Y2947750D02*
D03*
X2738600Y2903300D02*
D03*
Y2883300D02*
D03*
X2700500D02*
D03*
Y2903300D02*
D03*
X2814800D02*
D03*
Y2883300D02*
D03*
X2776700D02*
D03*
Y2903300D02*
D03*
X2891000D02*
D03*
Y2883300D02*
D03*
X2852900D02*
D03*
Y2903300D02*
D03*
X2967200D02*
D03*
Y2883300D02*
D03*
X2929100D02*
D03*
Y2903300D02*
D03*
X4849792Y339710D02*
D03*
Y319710D02*
D03*
X4845220Y489570D02*
D03*
Y469570D02*
D03*
X4850046Y639938D02*
D03*
Y619938D02*
D03*
X4849792Y1099710D02*
D03*
Y1079710D02*
D03*
X4845220Y1249570D02*
D03*
Y1229570D02*
D03*
X4850046Y1399938D02*
D03*
Y1379938D02*
D03*
X4849792Y1859710D02*
D03*
Y1839710D02*
D03*
X4845220Y2009570D02*
D03*
Y1989570D02*
D03*
X4850046Y2159938D02*
D03*
Y2139938D02*
D03*
X4529792Y339710D02*
D03*
Y319710D02*
D03*
X4525220Y489570D02*
D03*
Y469570D02*
D03*
X4530046Y639938D02*
D03*
Y619938D02*
D03*
X4529792Y1099710D02*
D03*
Y1079710D02*
D03*
X4525220Y1249570D02*
D03*
Y1229570D02*
D03*
X4530046Y1399938D02*
D03*
Y1379938D02*
D03*
X4529792Y1859710D02*
D03*
Y1839710D02*
D03*
X4525220Y2009570D02*
D03*
Y1989570D02*
D03*
X4530046Y2159938D02*
D03*
Y2139938D02*
D03*
X4748300Y2812200D02*
D03*
Y2792200D02*
D03*
X4786400Y2812200D02*
D03*
Y2792200D02*
D03*
X4824500Y2812200D02*
D03*
Y2792200D02*
D03*
X4862600Y2812200D02*
D03*
Y2792200D02*
D03*
X4367300Y2812200D02*
D03*
Y2792200D02*
D03*
X4405400Y2812200D02*
D03*
Y2792200D02*
D03*
X4443500Y2812200D02*
D03*
Y2792200D02*
D03*
X4481600Y2812200D02*
D03*
Y2792200D02*
D03*
X4001000Y2677750D02*
D03*
Y2697750D02*
D03*
X3962900Y2677750D02*
D03*
Y2697750D02*
D03*
X3924800Y2677750D02*
D03*
Y2697750D02*
D03*
X3886700Y2677750D02*
D03*
Y2697750D02*
D03*
X3848600Y2677750D02*
D03*
Y2697750D02*
D03*
X3810500Y2677750D02*
D03*
Y2697750D02*
D03*
X4039100Y2677750D02*
D03*
Y2697750D02*
D03*
X4077200Y2677750D02*
D03*
Y2697750D02*
D03*
X3848600Y2653300D02*
D03*
Y2633300D02*
D03*
X3810500D02*
D03*
Y2653300D02*
D03*
X3924800D02*
D03*
Y2633300D02*
D03*
X3886700D02*
D03*
Y2653300D02*
D03*
X4001000D02*
D03*
Y2633300D02*
D03*
X3962900D02*
D03*
Y2653300D02*
D03*
X4077200D02*
D03*
Y2633300D02*
D03*
X4039100D02*
D03*
Y2653300D02*
D03*
D17*
X4878250Y653500D02*
D03*
X4890950D02*
D03*
X4865550D02*
D03*
X4916350D02*
D03*
X4903650D02*
D03*
X4929050D02*
D03*
X4954450D02*
D03*
X4941750D02*
D03*
X4878250Y606500D02*
D03*
X4865550D02*
D03*
X4890950D02*
D03*
X4916350D02*
D03*
X4903650D02*
D03*
X4941750D02*
D03*
X4954450D02*
D03*
X4929050D02*
D03*
X4878250Y353500D02*
D03*
X4890950D02*
D03*
X4865550D02*
D03*
X4916350D02*
D03*
X4903650D02*
D03*
X4929050D02*
D03*
X4954450D02*
D03*
X4941750D02*
D03*
X4878250Y306500D02*
D03*
X4865550D02*
D03*
X4890950D02*
D03*
X4916350D02*
D03*
X4903650D02*
D03*
X4941750D02*
D03*
X4954450D02*
D03*
X4929050D02*
D03*
X4878250Y503500D02*
D03*
X4890950D02*
D03*
X4865550D02*
D03*
X4916350D02*
D03*
X4903650D02*
D03*
X4929050D02*
D03*
X4954450D02*
D03*
X4941750D02*
D03*
X4878250Y456500D02*
D03*
X4865550D02*
D03*
X4890950D02*
D03*
X4916350D02*
D03*
X4903650D02*
D03*
X4941750D02*
D03*
X4954450D02*
D03*
X4929050D02*
D03*
X4878250Y1413500D02*
D03*
X4890950D02*
D03*
X4865550D02*
D03*
X4916350D02*
D03*
X4903650D02*
D03*
X4929050D02*
D03*
X4954450D02*
D03*
X4941750D02*
D03*
X4878250Y1366500D02*
D03*
X4865550D02*
D03*
X4890950D02*
D03*
X4916350D02*
D03*
X4903650D02*
D03*
X4941750D02*
D03*
X4954450D02*
D03*
X4929050D02*
D03*
X4878250Y1113500D02*
D03*
X4890950D02*
D03*
X4865550D02*
D03*
X4916350D02*
D03*
X4903650D02*
D03*
X4929050D02*
D03*
X4954450D02*
D03*
X4941750D02*
D03*
X4878250Y1066500D02*
D03*
X4865550D02*
D03*
X4890950D02*
D03*
X4916350D02*
D03*
X4903650D02*
D03*
X4941750D02*
D03*
X4954450D02*
D03*
X4929050D02*
D03*
X4878250Y1263500D02*
D03*
X4890950D02*
D03*
X4865550D02*
D03*
X4916350D02*
D03*
X4903650D02*
D03*
X4929050D02*
D03*
X4954450D02*
D03*
X4941750D02*
D03*
X4878250Y1216500D02*
D03*
X4865550D02*
D03*
X4890950D02*
D03*
X4916350D02*
D03*
X4903650D02*
D03*
X4941750D02*
D03*
X4954450D02*
D03*
X4929050D02*
D03*
X4878250Y2173500D02*
D03*
X4890950D02*
D03*
X4865550D02*
D03*
X4916350D02*
D03*
X4903650D02*
D03*
X4929050D02*
D03*
X4954450D02*
D03*
X4941750D02*
D03*
X4878250Y2126500D02*
D03*
X4865550D02*
D03*
X4890950D02*
D03*
X4916350D02*
D03*
X4903650D02*
D03*
X4941750D02*
D03*
X4954450D02*
D03*
X4929050D02*
D03*
X4878250Y1873500D02*
D03*
X4890950D02*
D03*
X4865550D02*
D03*
X4916350D02*
D03*
X4903650D02*
D03*
X4929050D02*
D03*
X4954450D02*
D03*
X4941750D02*
D03*
X4878250Y1826500D02*
D03*
X4865550D02*
D03*
X4890950D02*
D03*
X4916350D02*
D03*
X4903650D02*
D03*
X4941750D02*
D03*
X4954450D02*
D03*
X4929050D02*
D03*
X4878250Y2023500D02*
D03*
X4890950D02*
D03*
X4865550D02*
D03*
X4916350D02*
D03*
X4903650D02*
D03*
X4929050D02*
D03*
X4954450D02*
D03*
X4941750D02*
D03*
X4878250Y1976500D02*
D03*
X4865550D02*
D03*
X4890950D02*
D03*
X4916350D02*
D03*
X4903650D02*
D03*
X4941750D02*
D03*
X4954450D02*
D03*
X4929050D02*
D03*
X4558250Y653500D02*
D03*
X4570950D02*
D03*
X4545550D02*
D03*
X4596350D02*
D03*
X4583650D02*
D03*
X4609050D02*
D03*
X4634450D02*
D03*
X4621750D02*
D03*
X4558250Y606500D02*
D03*
X4545550D02*
D03*
X4570950D02*
D03*
X4596350D02*
D03*
X4583650D02*
D03*
X4621750D02*
D03*
X4634450D02*
D03*
X4609050D02*
D03*
X4558250Y353500D02*
D03*
X4570950D02*
D03*
X4545550D02*
D03*
X4596350D02*
D03*
X4583650D02*
D03*
X4609050D02*
D03*
X4634450D02*
D03*
X4621750D02*
D03*
X4558250Y306500D02*
D03*
X4545550D02*
D03*
X4570950D02*
D03*
X4596350D02*
D03*
X4583650D02*
D03*
X4621750D02*
D03*
X4634450D02*
D03*
X4609050D02*
D03*
X4558250Y503500D02*
D03*
X4570950D02*
D03*
X4545550D02*
D03*
X4596350D02*
D03*
X4583650D02*
D03*
X4609050D02*
D03*
X4634450D02*
D03*
X4621750D02*
D03*
X4558250Y456500D02*
D03*
X4545550D02*
D03*
X4570950D02*
D03*
X4596350D02*
D03*
X4583650D02*
D03*
X4621750D02*
D03*
X4634450D02*
D03*
X4609050D02*
D03*
X4558250Y1413500D02*
D03*
X4570950D02*
D03*
X4545550D02*
D03*
X4596350D02*
D03*
X4583650D02*
D03*
X4609050D02*
D03*
X4634450D02*
D03*
X4621750D02*
D03*
X4558250Y1366500D02*
D03*
X4545550D02*
D03*
X4570950D02*
D03*
X4596350D02*
D03*
X4583650D02*
D03*
X4621750D02*
D03*
X4634450D02*
D03*
X4609050D02*
D03*
X4558250Y1113500D02*
D03*
X4570950D02*
D03*
X4545550D02*
D03*
X4596350D02*
D03*
X4583650D02*
D03*
X4609050D02*
D03*
X4634450D02*
D03*
X4621750D02*
D03*
X4558250Y1066500D02*
D03*
X4545550D02*
D03*
X4570950D02*
D03*
X4596350D02*
D03*
X4583650D02*
D03*
X4621750D02*
D03*
X4634450D02*
D03*
X4609050D02*
D03*
X4558250Y1263500D02*
D03*
X4570950D02*
D03*
X4545550D02*
D03*
X4596350D02*
D03*
X4583650D02*
D03*
X4609050D02*
D03*
X4634450D02*
D03*
X4621750D02*
D03*
X4558250Y1216500D02*
D03*
X4545550D02*
D03*
X4570950D02*
D03*
X4596350D02*
D03*
X4583650D02*
D03*
X4621750D02*
D03*
X4634450D02*
D03*
X4609050D02*
D03*
X4558250Y2173500D02*
D03*
X4570950D02*
D03*
X4545550D02*
D03*
X4596350D02*
D03*
X4583650D02*
D03*
X4609050D02*
D03*
X4634450D02*
D03*
X4621750D02*
D03*
X4558250Y2126500D02*
D03*
X4545550D02*
D03*
X4570950D02*
D03*
X4596350D02*
D03*
X4583650D02*
D03*
X4621750D02*
D03*
X4634450D02*
D03*
X4609050D02*
D03*
X4558250Y1873500D02*
D03*
X4570950D02*
D03*
X4545550D02*
D03*
X4596350D02*
D03*
X4583650D02*
D03*
X4609050D02*
D03*
X4634450D02*
D03*
X4621750D02*
D03*
X4558250Y1826500D02*
D03*
X4545550D02*
D03*
X4570950D02*
D03*
X4596350D02*
D03*
X4583650D02*
D03*
X4621750D02*
D03*
X4634450D02*
D03*
X4609050D02*
D03*
X4558250Y2023500D02*
D03*
X4570950D02*
D03*
X4545550D02*
D03*
X4596350D02*
D03*
X4583650D02*
D03*
X4609050D02*
D03*
X4634450D02*
D03*
X4621750D02*
D03*
X4558250Y1976500D02*
D03*
X4545550D02*
D03*
X4570950D02*
D03*
X4596350D02*
D03*
X4583650D02*
D03*
X4621750D02*
D03*
X4634450D02*
D03*
X4609050D02*
D03*
D18*
X4835360Y620158D02*
D03*
X4809360D02*
D03*
X4835360Y604158D02*
D03*
X4809360D02*
D03*
Y639972D02*
D03*
X4835360D02*
D03*
X4809360Y655972D02*
D03*
X4835360D02*
D03*
X4826000Y470000D02*
D03*
X4800000D02*
D03*
X4826000Y454000D02*
D03*
X4800000D02*
D03*
Y490000D02*
D03*
X4826000D02*
D03*
X4800000Y506000D02*
D03*
X4826000D02*
D03*
X4835492Y320000D02*
D03*
X4809492D02*
D03*
X4835492Y304000D02*
D03*
X4809492D02*
D03*
X4809238Y340000D02*
D03*
X4835238D02*
D03*
X4809238Y356000D02*
D03*
X4835238D02*
D03*
X4835360Y1380158D02*
D03*
X4809360D02*
D03*
X4835360Y1364158D02*
D03*
X4809360D02*
D03*
Y1399972D02*
D03*
X4835360D02*
D03*
X4809360Y1415972D02*
D03*
X4835360D02*
D03*
X4826000Y1230000D02*
D03*
X4800000D02*
D03*
X4826000Y1214000D02*
D03*
X4800000D02*
D03*
Y1250000D02*
D03*
X4826000D02*
D03*
X4800000Y1266000D02*
D03*
X4826000D02*
D03*
X4835492Y1080000D02*
D03*
X4809492D02*
D03*
X4835492Y1064000D02*
D03*
X4809492D02*
D03*
X4809238Y1100000D02*
D03*
X4835238D02*
D03*
X4809238Y1116000D02*
D03*
X4835238D02*
D03*
X4835360Y2140158D02*
D03*
X4809360D02*
D03*
X4835360Y2124158D02*
D03*
X4809360D02*
D03*
Y2159972D02*
D03*
X4835360D02*
D03*
X4809360Y2175972D02*
D03*
X4835360D02*
D03*
X4826000Y1990000D02*
D03*
X4800000D02*
D03*
X4826000Y1974000D02*
D03*
X4800000D02*
D03*
Y2010000D02*
D03*
X4826000D02*
D03*
X4800000Y2026000D02*
D03*
X4826000D02*
D03*
X4835492Y1840000D02*
D03*
X4809492D02*
D03*
X4835492Y1824000D02*
D03*
X4809492D02*
D03*
X4809238Y1860000D02*
D03*
X4835238D02*
D03*
X4809238Y1876000D02*
D03*
X4835238D02*
D03*
X4515360Y620158D02*
D03*
X4489360D02*
D03*
X4515360Y604158D02*
D03*
X4489360D02*
D03*
Y639972D02*
D03*
X4515360D02*
D03*
X4489360Y655972D02*
D03*
X4515360D02*
D03*
X4506000Y470000D02*
D03*
X4480000D02*
D03*
X4506000Y454000D02*
D03*
X4480000D02*
D03*
Y490000D02*
D03*
X4506000D02*
D03*
X4480000Y506000D02*
D03*
X4506000D02*
D03*
X4515492Y320000D02*
D03*
X4489492D02*
D03*
X4515492Y304000D02*
D03*
X4489492D02*
D03*
X4489238Y340000D02*
D03*
X4515238D02*
D03*
X4489238Y356000D02*
D03*
X4515238D02*
D03*
X4515360Y1380158D02*
D03*
X4489360D02*
D03*
X4515360Y1364158D02*
D03*
X4489360D02*
D03*
Y1399972D02*
D03*
X4515360D02*
D03*
X4489360Y1415972D02*
D03*
X4515360D02*
D03*
X4506000Y1230000D02*
D03*
X4480000D02*
D03*
X4506000Y1214000D02*
D03*
X4480000D02*
D03*
Y1250000D02*
D03*
X4506000D02*
D03*
X4480000Y1266000D02*
D03*
X4506000D02*
D03*
X4515492Y1080000D02*
D03*
X4489492D02*
D03*
X4515492Y1064000D02*
D03*
X4489492D02*
D03*
X4489238Y1100000D02*
D03*
X4515238D02*
D03*
X4489238Y1116000D02*
D03*
X4515238D02*
D03*
X4515360Y2140158D02*
D03*
X4489360D02*
D03*
X4515360Y2124158D02*
D03*
X4489360D02*
D03*
Y2159972D02*
D03*
X4515360D02*
D03*
X4489360Y2175972D02*
D03*
X4515360D02*
D03*
X4506000Y1990000D02*
D03*
X4480000D02*
D03*
X4506000Y1974000D02*
D03*
X4480000D02*
D03*
Y2010000D02*
D03*
X4506000D02*
D03*
X4480000Y2026000D02*
D03*
X4506000D02*
D03*
X4515492Y1840000D02*
D03*
X4489492D02*
D03*
X4515492Y1824000D02*
D03*
X4489492D02*
D03*
X4489238Y1860000D02*
D03*
X4515238D02*
D03*
X4489238Y1876000D02*
D03*
X4515238D02*
D03*
D19*
X4826360Y620158D02*
D03*
X4818360D02*
D03*
X4826360Y604158D02*
D03*
X4818360D02*
D03*
X4818360Y639972D02*
D03*
X4826360D02*
D03*
X4818360Y655972D02*
D03*
X4826360D02*
D03*
X4817000Y470000D02*
D03*
X4809000D02*
D03*
X4817000Y454000D02*
D03*
X4809000D02*
D03*
X4809000Y490000D02*
D03*
X4817000D02*
D03*
X4809000Y506000D02*
D03*
X4817000D02*
D03*
X4826492Y320000D02*
D03*
X4818492D02*
D03*
X4826492Y304000D02*
D03*
X4818492D02*
D03*
X4818238Y340000D02*
D03*
X4826238D02*
D03*
X4818238Y356000D02*
D03*
X4826238D02*
D03*
X4826360Y1380158D02*
D03*
X4818360D02*
D03*
X4826360Y1364158D02*
D03*
X4818360D02*
D03*
X4818360Y1399972D02*
D03*
X4826360D02*
D03*
X4818360Y1415972D02*
D03*
X4826360D02*
D03*
X4817000Y1230000D02*
D03*
X4809000D02*
D03*
X4817000Y1214000D02*
D03*
X4809000D02*
D03*
X4809000Y1250000D02*
D03*
X4817000D02*
D03*
X4809000Y1266000D02*
D03*
X4817000D02*
D03*
X4826492Y1080000D02*
D03*
X4818492D02*
D03*
X4826492Y1064000D02*
D03*
X4818492D02*
D03*
X4818238Y1100000D02*
D03*
X4826238D02*
D03*
X4818238Y1116000D02*
D03*
X4826238D02*
D03*
X4826360Y2140158D02*
D03*
X4818360D02*
D03*
X4826360Y2124158D02*
D03*
X4818360D02*
D03*
X4818360Y2159972D02*
D03*
X4826360D02*
D03*
X4818360Y2175972D02*
D03*
X4826360D02*
D03*
X4817000Y1990000D02*
D03*
X4809000D02*
D03*
X4817000Y1974000D02*
D03*
X4809000D02*
D03*
X4809000Y2010000D02*
D03*
X4817000D02*
D03*
X4809000Y2026000D02*
D03*
X4817000D02*
D03*
X4826492Y1840000D02*
D03*
X4818492D02*
D03*
X4826492Y1824000D02*
D03*
X4818492D02*
D03*
X4818238Y1860000D02*
D03*
X4826238D02*
D03*
X4818238Y1876000D02*
D03*
X4826238D02*
D03*
X4506360Y620158D02*
D03*
X4498360D02*
D03*
X4506360Y604158D02*
D03*
X4498360D02*
D03*
X4498360Y639972D02*
D03*
X4506360D02*
D03*
X4498360Y655972D02*
D03*
X4506360D02*
D03*
X4497000Y470000D02*
D03*
X4489000D02*
D03*
X4497000Y454000D02*
D03*
X4489000D02*
D03*
X4489000Y490000D02*
D03*
X4497000D02*
D03*
X4489000Y506000D02*
D03*
X4497000D02*
D03*
X4506492Y320000D02*
D03*
X4498492D02*
D03*
X4506492Y304000D02*
D03*
X4498492D02*
D03*
X4498238Y340000D02*
D03*
X4506238D02*
D03*
X4498238Y356000D02*
D03*
X4506238D02*
D03*
X4506360Y1380158D02*
D03*
X4498360D02*
D03*
X4506360Y1364158D02*
D03*
X4498360D02*
D03*
X4498360Y1399972D02*
D03*
X4506360D02*
D03*
X4498360Y1415972D02*
D03*
X4506360D02*
D03*
X4497000Y1230000D02*
D03*
X4489000D02*
D03*
X4497000Y1214000D02*
D03*
X4489000D02*
D03*
X4489000Y1250000D02*
D03*
X4497000D02*
D03*
X4489000Y1266000D02*
D03*
X4497000D02*
D03*
X4506492Y1080000D02*
D03*
X4498492D02*
D03*
X4506492Y1064000D02*
D03*
X4498492D02*
D03*
X4498238Y1100000D02*
D03*
X4506238D02*
D03*
X4498238Y1116000D02*
D03*
X4506238D02*
D03*
X4506360Y2140158D02*
D03*
X4498360D02*
D03*
X4506360Y2124158D02*
D03*
X4498360D02*
D03*
X4498360Y2159972D02*
D03*
X4506360D02*
D03*
X4498360Y2175972D02*
D03*
X4506360D02*
D03*
X4497000Y1990000D02*
D03*
X4489000D02*
D03*
X4497000Y1974000D02*
D03*
X4489000D02*
D03*
X4489000Y2010000D02*
D03*
X4497000D02*
D03*
X4489000Y2026000D02*
D03*
X4497000D02*
D03*
X4506492Y1840000D02*
D03*
X4498492D02*
D03*
X4506492Y1824000D02*
D03*
X4498492D02*
D03*
X4498238Y1860000D02*
D03*
X4506238D02*
D03*
X4498238Y1876000D02*
D03*
X4506238D02*
D03*
D20*
X4961900Y678960D02*
D03*
X4941900D02*
D03*
X4961900Y530370D02*
D03*
X4941900D02*
D03*
X4964440Y379240D02*
D03*
X4944440D02*
D03*
X4941900Y280180D02*
D03*
X4961900D02*
D03*
Y1438960D02*
D03*
X4941900D02*
D03*
X4961900Y1290370D02*
D03*
X4941900D02*
D03*
X4964440Y1139240D02*
D03*
X4944440D02*
D03*
X4941900Y1040180D02*
D03*
X4961900D02*
D03*
Y2198960D02*
D03*
X4941900D02*
D03*
X4961900Y2050370D02*
D03*
X4941900D02*
D03*
X4964440Y1899240D02*
D03*
X4944440D02*
D03*
X4941900Y1800180D02*
D03*
X4961900D02*
D03*
X4641900Y678960D02*
D03*
X4621900D02*
D03*
X4641900Y530370D02*
D03*
X4621900D02*
D03*
X4644440Y379240D02*
D03*
X4624440D02*
D03*
X4621900Y280180D02*
D03*
X4641900D02*
D03*
Y1438960D02*
D03*
X4621900D02*
D03*
X4641900Y1290370D02*
D03*
X4621900D02*
D03*
X4644440Y1139240D02*
D03*
X4624440D02*
D03*
X4621900Y1040180D02*
D03*
X4641900D02*
D03*
Y2198960D02*
D03*
X4621900D02*
D03*
X4641900Y2050370D02*
D03*
X4621900D02*
D03*
X4644440Y1899240D02*
D03*
X4624440D02*
D03*
X4621900Y1800180D02*
D03*
X4641900D02*
D03*
X4264120Y285260D02*
D03*
X4244120D02*
D03*
X4243800Y414800D02*
D03*
X4223800D02*
D03*
X4243800Y544340D02*
D03*
X4223800D02*
D03*
X4243800Y676420D02*
D03*
X4223800D02*
D03*
X4264120Y1045260D02*
D03*
X4244120D02*
D03*
X4243800Y1174800D02*
D03*
X4223800D02*
D03*
X4243800Y1304340D02*
D03*
X4223800D02*
D03*
X4243800Y1436420D02*
D03*
X4223800D02*
D03*
X4264120Y1805260D02*
D03*
X4244120D02*
D03*
X4243800Y1934800D02*
D03*
X4223800D02*
D03*
X4243800Y2064340D02*
D03*
X4223800D02*
D03*
X4243800Y2196420D02*
D03*
X4223800D02*
D03*
X3944120Y285260D02*
D03*
X3924120D02*
D03*
X3923800Y414800D02*
D03*
X3903800D02*
D03*
X3923800Y544340D02*
D03*
X3903800D02*
D03*
X3923800Y676420D02*
D03*
X3903800D02*
D03*
X3944120Y1045260D02*
D03*
X3924120D02*
D03*
X3923800Y1174800D02*
D03*
X3903800D02*
D03*
X3923800Y1304340D02*
D03*
X3903800D02*
D03*
X3923800Y1436420D02*
D03*
X3903800D02*
D03*
X3944120Y1805260D02*
D03*
X3924120D02*
D03*
X3923800Y1934800D02*
D03*
X3903800D02*
D03*
X3923800Y2064340D02*
D03*
X3903800D02*
D03*
X3923800Y2196420D02*
D03*
X3903800D02*
D03*
D25*
X4158000Y327000D02*
D03*
Y353000D02*
D03*
X4142000Y327000D02*
D03*
Y353000D02*
D03*
X4158000Y367000D02*
D03*
Y393000D02*
D03*
X4142000Y367000D02*
D03*
Y393000D02*
D03*
X4158000Y587000D02*
D03*
Y613000D02*
D03*
X4142000Y587000D02*
D03*
Y613000D02*
D03*
X4158000Y627000D02*
D03*
Y653000D02*
D03*
X4142000Y627000D02*
D03*
Y653000D02*
D03*
X4158000Y457000D02*
D03*
Y483000D02*
D03*
X4142000Y457000D02*
D03*
Y483000D02*
D03*
X4158000Y497000D02*
D03*
Y523000D02*
D03*
X4142000Y497000D02*
D03*
Y523000D02*
D03*
X4158000Y1087000D02*
D03*
Y1113000D02*
D03*
X4142000Y1087000D02*
D03*
Y1113000D02*
D03*
X4158000Y1127000D02*
D03*
Y1153000D02*
D03*
X4142000Y1127000D02*
D03*
Y1153000D02*
D03*
X4158000Y1347000D02*
D03*
Y1373000D02*
D03*
X4142000Y1347000D02*
D03*
Y1373000D02*
D03*
X4158000Y1387000D02*
D03*
Y1413000D02*
D03*
X4142000Y1387000D02*
D03*
Y1413000D02*
D03*
X4158000Y1217000D02*
D03*
Y1243000D02*
D03*
X4142000Y1217000D02*
D03*
Y1243000D02*
D03*
X4158000Y1257000D02*
D03*
Y1283000D02*
D03*
X4142000Y1257000D02*
D03*
Y1283000D02*
D03*
X4158000Y1847000D02*
D03*
Y1873000D02*
D03*
X4142000Y1847000D02*
D03*
Y1873000D02*
D03*
X4158000Y1887000D02*
D03*
Y1913000D02*
D03*
X4142000Y1887000D02*
D03*
Y1913000D02*
D03*
X4158000Y2107000D02*
D03*
Y2133000D02*
D03*
X4142000Y2107000D02*
D03*
Y2133000D02*
D03*
X4158000Y2147000D02*
D03*
Y2173000D02*
D03*
X4142000Y2147000D02*
D03*
Y2173000D02*
D03*
X4158000Y1977000D02*
D03*
Y2003000D02*
D03*
X4142000Y1977000D02*
D03*
Y2003000D02*
D03*
X4158000Y2017000D02*
D03*
Y2043000D02*
D03*
X4142000Y2017000D02*
D03*
Y2043000D02*
D03*
X3838000Y327000D02*
D03*
Y353000D02*
D03*
X3822000Y327000D02*
D03*
Y353000D02*
D03*
X3838000Y367000D02*
D03*
Y393000D02*
D03*
X3822000Y367000D02*
D03*
Y393000D02*
D03*
X3838000Y587000D02*
D03*
Y613000D02*
D03*
X3822000Y587000D02*
D03*
Y613000D02*
D03*
X3838000Y627000D02*
D03*
Y653000D02*
D03*
X3822000Y627000D02*
D03*
Y653000D02*
D03*
X3838000Y457000D02*
D03*
Y483000D02*
D03*
X3822000Y457000D02*
D03*
Y483000D02*
D03*
X3838000Y497000D02*
D03*
Y523000D02*
D03*
X3822000Y497000D02*
D03*
Y523000D02*
D03*
X3838000Y1087000D02*
D03*
Y1113000D02*
D03*
X3822000Y1087000D02*
D03*
Y1113000D02*
D03*
X3838000Y1127000D02*
D03*
Y1153000D02*
D03*
X3822000Y1127000D02*
D03*
Y1153000D02*
D03*
X3838000Y1347000D02*
D03*
Y1373000D02*
D03*
X3822000Y1347000D02*
D03*
Y1373000D02*
D03*
X3838000Y1387000D02*
D03*
Y1413000D02*
D03*
X3822000Y1387000D02*
D03*
Y1413000D02*
D03*
X3838000Y1217000D02*
D03*
Y1243000D02*
D03*
X3822000Y1217000D02*
D03*
Y1243000D02*
D03*
X3838000Y1257000D02*
D03*
Y1283000D02*
D03*
X3822000Y1257000D02*
D03*
Y1283000D02*
D03*
X3838000Y1847000D02*
D03*
Y1873000D02*
D03*
X3822000Y1847000D02*
D03*
Y1873000D02*
D03*
X3838000Y1887000D02*
D03*
Y1913000D02*
D03*
X3822000Y1887000D02*
D03*
Y1913000D02*
D03*
X3838000Y2107000D02*
D03*
Y2133000D02*
D03*
X3822000Y2107000D02*
D03*
Y2133000D02*
D03*
X3838000Y2147000D02*
D03*
Y2173000D02*
D03*
X3822000Y2147000D02*
D03*
Y2173000D02*
D03*
X3838000Y1977000D02*
D03*
Y2003000D02*
D03*
X3822000Y1977000D02*
D03*
Y2003000D02*
D03*
X3838000Y2017000D02*
D03*
Y2043000D02*
D03*
X3822000Y2017000D02*
D03*
Y2043000D02*
D03*
D26*
X4158000Y336000D02*
D03*
Y344000D02*
D03*
X4142000Y336000D02*
D03*
Y344000D02*
D03*
X4158000Y376000D02*
D03*
Y384000D02*
D03*
X4142000Y376000D02*
D03*
Y384000D02*
D03*
X4158000Y596000D02*
D03*
Y604000D02*
D03*
X4142000Y596000D02*
D03*
Y604000D02*
D03*
X4158000Y636000D02*
D03*
Y644000D02*
D03*
X4142000Y636000D02*
D03*
Y644000D02*
D03*
X4158000Y466000D02*
D03*
Y474000D02*
D03*
X4142000Y466000D02*
D03*
Y474000D02*
D03*
X4158000Y506000D02*
D03*
Y514000D02*
D03*
X4142000Y506000D02*
D03*
Y514000D02*
D03*
X4158000Y1096000D02*
D03*
Y1104000D02*
D03*
X4142000Y1096000D02*
D03*
Y1104000D02*
D03*
X4158000Y1136000D02*
D03*
Y1144000D02*
D03*
X4142000Y1136000D02*
D03*
Y1144000D02*
D03*
X4158000Y1356000D02*
D03*
Y1364000D02*
D03*
X4142000Y1356000D02*
D03*
Y1364000D02*
D03*
X4158000Y1396000D02*
D03*
Y1404000D02*
D03*
X4142000Y1396000D02*
D03*
Y1404000D02*
D03*
X4158000Y1226000D02*
D03*
Y1234000D02*
D03*
X4142000Y1226000D02*
D03*
Y1234000D02*
D03*
X4158000Y1266000D02*
D03*
Y1274000D02*
D03*
X4142000Y1266000D02*
D03*
Y1274000D02*
D03*
X4158000Y1856000D02*
D03*
Y1864000D02*
D03*
X4142000Y1856000D02*
D03*
Y1864000D02*
D03*
X4158000Y1896000D02*
D03*
Y1904000D02*
D03*
X4142000Y1896000D02*
D03*
Y1904000D02*
D03*
X4158000Y2116000D02*
D03*
Y2124000D02*
D03*
X4142000Y2116000D02*
D03*
Y2124000D02*
D03*
X4158000Y2156000D02*
D03*
Y2164000D02*
D03*
X4142000Y2156000D02*
D03*
Y2164000D02*
D03*
X4158000Y1986000D02*
D03*
Y1994000D02*
D03*
X4142000Y1986000D02*
D03*
Y1994000D02*
D03*
X4158000Y2026000D02*
D03*
Y2034000D02*
D03*
X4142000Y2026000D02*
D03*
Y2034000D02*
D03*
X3838000Y336000D02*
D03*
Y344000D02*
D03*
X3822000Y336000D02*
D03*
Y344000D02*
D03*
X3838000Y376000D02*
D03*
Y384000D02*
D03*
X3822000Y376000D02*
D03*
Y384000D02*
D03*
X3838000Y596000D02*
D03*
Y604000D02*
D03*
X3822000Y596000D02*
D03*
Y604000D02*
D03*
X3838000Y636000D02*
D03*
Y644000D02*
D03*
X3822000Y636000D02*
D03*
Y644000D02*
D03*
X3838000Y466000D02*
D03*
Y474000D02*
D03*
X3822000Y466000D02*
D03*
Y474000D02*
D03*
X3838000Y506000D02*
D03*
Y514000D02*
D03*
X3822000Y506000D02*
D03*
Y514000D02*
D03*
X3838000Y1096000D02*
D03*
Y1104000D02*
D03*
X3822000Y1096000D02*
D03*
Y1104000D02*
D03*
X3838000Y1136000D02*
D03*
Y1144000D02*
D03*
X3822000Y1136000D02*
D03*
Y1144000D02*
D03*
X3838000Y1356000D02*
D03*
Y1364000D02*
D03*
X3822000Y1356000D02*
D03*
Y1364000D02*
D03*
X3838000Y1396000D02*
D03*
Y1404000D02*
D03*
X3822000Y1396000D02*
D03*
Y1404000D02*
D03*
X3838000Y1226000D02*
D03*
Y1234000D02*
D03*
X3822000Y1226000D02*
D03*
Y1234000D02*
D03*
X3838000Y1266000D02*
D03*
Y1274000D02*
D03*
X3822000Y1266000D02*
D03*
Y1274000D02*
D03*
X3838000Y1856000D02*
D03*
Y1864000D02*
D03*
X3822000Y1856000D02*
D03*
Y1864000D02*
D03*
X3838000Y1896000D02*
D03*
Y1904000D02*
D03*
X3822000Y1896000D02*
D03*
Y1904000D02*
D03*
X3838000Y2116000D02*
D03*
Y2124000D02*
D03*
X3822000Y2116000D02*
D03*
Y2124000D02*
D03*
X3838000Y2156000D02*
D03*
Y2164000D02*
D03*
X3822000Y2156000D02*
D03*
Y2164000D02*
D03*
X3838000Y1986000D02*
D03*
Y1994000D02*
D03*
X3822000Y1986000D02*
D03*
Y1994000D02*
D03*
X3838000Y2026000D02*
D03*
Y2034000D02*
D03*
X3822000Y2026000D02*
D03*
Y2034000D02*
D03*
D27*
X4196000Y641750D02*
D03*
Y654450D02*
D03*
Y629050D02*
D03*
Y616350D02*
D03*
Y603650D02*
D03*
X4244000Y654450D02*
D03*
Y616350D02*
D03*
Y603650D02*
D03*
Y641750D02*
D03*
Y629050D02*
D03*
X4196000Y590950D02*
D03*
Y578250D02*
D03*
Y565550D02*
D03*
X4244000Y590950D02*
D03*
Y578250D02*
D03*
Y565550D02*
D03*
X4196000Y511750D02*
D03*
Y524450D02*
D03*
Y499050D02*
D03*
Y486350D02*
D03*
Y473650D02*
D03*
X4244000Y524450D02*
D03*
Y486350D02*
D03*
Y473650D02*
D03*
Y511750D02*
D03*
Y499050D02*
D03*
X4196000Y460950D02*
D03*
Y448250D02*
D03*
Y435550D02*
D03*
X4244000Y460950D02*
D03*
Y448250D02*
D03*
Y435550D02*
D03*
X4196000Y381750D02*
D03*
Y394450D02*
D03*
Y369050D02*
D03*
Y356350D02*
D03*
Y343650D02*
D03*
X4244000Y394450D02*
D03*
Y356350D02*
D03*
Y343650D02*
D03*
Y381750D02*
D03*
Y369050D02*
D03*
X4196000Y330950D02*
D03*
Y318250D02*
D03*
Y305550D02*
D03*
X4244000Y330950D02*
D03*
Y318250D02*
D03*
Y305550D02*
D03*
X4196000Y1401750D02*
D03*
Y1414450D02*
D03*
Y1389050D02*
D03*
Y1376350D02*
D03*
Y1363650D02*
D03*
X4244000Y1414450D02*
D03*
Y1376350D02*
D03*
Y1363650D02*
D03*
Y1401750D02*
D03*
Y1389050D02*
D03*
X4196000Y1350950D02*
D03*
Y1338250D02*
D03*
Y1325550D02*
D03*
X4244000Y1350950D02*
D03*
Y1338250D02*
D03*
Y1325550D02*
D03*
X4196000Y1271750D02*
D03*
Y1284450D02*
D03*
Y1259050D02*
D03*
Y1246350D02*
D03*
Y1233650D02*
D03*
X4244000Y1284450D02*
D03*
Y1246350D02*
D03*
Y1233650D02*
D03*
Y1271750D02*
D03*
Y1259050D02*
D03*
X4196000Y1220950D02*
D03*
Y1208250D02*
D03*
Y1195550D02*
D03*
X4244000Y1220950D02*
D03*
Y1208250D02*
D03*
Y1195550D02*
D03*
X4196000Y1141750D02*
D03*
Y1154450D02*
D03*
Y1129050D02*
D03*
Y1116350D02*
D03*
Y1103650D02*
D03*
X4244000Y1154450D02*
D03*
Y1116350D02*
D03*
Y1103650D02*
D03*
Y1141750D02*
D03*
Y1129050D02*
D03*
X4196000Y1090950D02*
D03*
Y1078250D02*
D03*
Y1065550D02*
D03*
X4244000Y1090950D02*
D03*
Y1078250D02*
D03*
Y1065550D02*
D03*
X4196000Y2161750D02*
D03*
Y2174450D02*
D03*
Y2149050D02*
D03*
Y2136350D02*
D03*
Y2123650D02*
D03*
X4244000Y2174450D02*
D03*
Y2136350D02*
D03*
Y2123650D02*
D03*
Y2161750D02*
D03*
Y2149050D02*
D03*
X4196000Y2110950D02*
D03*
Y2098250D02*
D03*
Y2085550D02*
D03*
X4244000Y2110950D02*
D03*
Y2098250D02*
D03*
Y2085550D02*
D03*
X4196000Y2031750D02*
D03*
Y2044450D02*
D03*
Y2019050D02*
D03*
Y2006350D02*
D03*
Y1993650D02*
D03*
X4244000Y2044450D02*
D03*
Y2006350D02*
D03*
Y1993650D02*
D03*
Y2031750D02*
D03*
Y2019050D02*
D03*
X4196000Y1980950D02*
D03*
Y1968250D02*
D03*
Y1955550D02*
D03*
X4244000Y1980950D02*
D03*
Y1968250D02*
D03*
Y1955550D02*
D03*
X4196000Y1901750D02*
D03*
Y1914450D02*
D03*
Y1889050D02*
D03*
Y1876350D02*
D03*
Y1863650D02*
D03*
X4244000Y1914450D02*
D03*
Y1876350D02*
D03*
Y1863650D02*
D03*
Y1901750D02*
D03*
Y1889050D02*
D03*
X4196000Y1850950D02*
D03*
Y1838250D02*
D03*
Y1825550D02*
D03*
X4244000Y1850950D02*
D03*
Y1838250D02*
D03*
Y1825550D02*
D03*
X3876000Y641750D02*
D03*
Y654450D02*
D03*
Y629050D02*
D03*
Y616350D02*
D03*
Y603650D02*
D03*
X3924000Y654450D02*
D03*
Y616350D02*
D03*
Y603650D02*
D03*
Y641750D02*
D03*
Y629050D02*
D03*
X3876000Y590950D02*
D03*
Y578250D02*
D03*
Y565550D02*
D03*
X3924000Y590950D02*
D03*
Y578250D02*
D03*
Y565550D02*
D03*
X3876000Y511750D02*
D03*
Y524450D02*
D03*
Y499050D02*
D03*
Y486350D02*
D03*
Y473650D02*
D03*
X3924000Y524450D02*
D03*
Y486350D02*
D03*
Y473650D02*
D03*
Y511750D02*
D03*
Y499050D02*
D03*
X3876000Y460950D02*
D03*
Y448250D02*
D03*
Y435550D02*
D03*
X3924000Y460950D02*
D03*
Y448250D02*
D03*
Y435550D02*
D03*
X3876000Y381750D02*
D03*
Y394450D02*
D03*
Y369050D02*
D03*
Y356350D02*
D03*
Y343650D02*
D03*
X3924000Y394450D02*
D03*
Y356350D02*
D03*
Y343650D02*
D03*
Y381750D02*
D03*
Y369050D02*
D03*
X3876000Y330950D02*
D03*
Y318250D02*
D03*
Y305550D02*
D03*
X3924000Y330950D02*
D03*
Y318250D02*
D03*
Y305550D02*
D03*
X3876000Y1401750D02*
D03*
Y1414450D02*
D03*
Y1389050D02*
D03*
Y1376350D02*
D03*
Y1363650D02*
D03*
X3924000Y1414450D02*
D03*
Y1376350D02*
D03*
Y1363650D02*
D03*
Y1401750D02*
D03*
Y1389050D02*
D03*
X3876000Y1350950D02*
D03*
Y1338250D02*
D03*
Y1325550D02*
D03*
X3924000Y1350950D02*
D03*
Y1338250D02*
D03*
Y1325550D02*
D03*
X3876000Y1271750D02*
D03*
Y1284450D02*
D03*
Y1259050D02*
D03*
Y1246350D02*
D03*
Y1233650D02*
D03*
X3924000Y1284450D02*
D03*
Y1246350D02*
D03*
Y1233650D02*
D03*
Y1271750D02*
D03*
Y1259050D02*
D03*
X3876000Y1220950D02*
D03*
Y1208250D02*
D03*
Y1195550D02*
D03*
X3924000Y1220950D02*
D03*
Y1208250D02*
D03*
Y1195550D02*
D03*
X3876000Y1141750D02*
D03*
Y1154450D02*
D03*
Y1129050D02*
D03*
Y1116350D02*
D03*
Y1103650D02*
D03*
X3924000Y1154450D02*
D03*
Y1116350D02*
D03*
Y1103650D02*
D03*
Y1141750D02*
D03*
Y1129050D02*
D03*
X3876000Y1090950D02*
D03*
Y1078250D02*
D03*
Y1065550D02*
D03*
X3924000Y1090950D02*
D03*
Y1078250D02*
D03*
Y1065550D02*
D03*
X3876000Y2161750D02*
D03*
Y2174450D02*
D03*
Y2149050D02*
D03*
Y2136350D02*
D03*
Y2123650D02*
D03*
X3924000Y2174450D02*
D03*
Y2136350D02*
D03*
Y2123650D02*
D03*
Y2161750D02*
D03*
Y2149050D02*
D03*
X3876000Y2110950D02*
D03*
Y2098250D02*
D03*
Y2085550D02*
D03*
X3924000Y2110950D02*
D03*
Y2098250D02*
D03*
Y2085550D02*
D03*
X3876000Y2031750D02*
D03*
Y2044450D02*
D03*
Y2019050D02*
D03*
Y2006350D02*
D03*
Y1993650D02*
D03*
X3924000Y2044450D02*
D03*
Y2006350D02*
D03*
Y1993650D02*
D03*
Y2031750D02*
D03*
Y2019050D02*
D03*
X3876000Y1980950D02*
D03*
Y1968250D02*
D03*
Y1955550D02*
D03*
X3924000Y1980950D02*
D03*
Y1968250D02*
D03*
Y1955550D02*
D03*
X3876000Y1901750D02*
D03*
Y1914450D02*
D03*
Y1889050D02*
D03*
Y1876350D02*
D03*
Y1863650D02*
D03*
X3924000Y1914450D02*
D03*
Y1876350D02*
D03*
Y1863650D02*
D03*
Y1901750D02*
D03*
Y1889050D02*
D03*
X3876000Y1850950D02*
D03*
Y1838250D02*
D03*
Y1825550D02*
D03*
X3924000Y1850950D02*
D03*
Y1838250D02*
D03*
Y1825550D02*
D03*
D29*
X4326300Y2720700D02*
D03*
Y2629700D02*
D03*
X4281300Y2720700D02*
D03*
Y2629700D02*
D03*
X4415200Y2720700D02*
D03*
Y2629700D02*
D03*
X4370200Y2720700D02*
D03*
Y2629700D02*
D03*
X4504100Y2720700D02*
D03*
Y2629700D02*
D03*
X4459100Y2720700D02*
D03*
Y2629700D02*
D03*
X4593000Y2720700D02*
D03*
Y2629700D02*
D03*
X4548000Y2720700D02*
D03*
Y2629700D02*
D03*
X4681900Y2720700D02*
D03*
Y2629700D02*
D03*
X4636900Y2720700D02*
D03*
Y2629700D02*
D03*
X4770800Y2720700D02*
D03*
Y2629700D02*
D03*
X4725800Y2720700D02*
D03*
Y2629700D02*
D03*
X4859700Y2720700D02*
D03*
Y2629700D02*
D03*
X4814700Y2720700D02*
D03*
Y2629700D02*
D03*
X4948600Y2720700D02*
D03*
Y2629700D02*
D03*
X4903600Y2720700D02*
D03*
Y2629700D02*
D03*
M02*
