%FSLAX44Y44*%
%MOMM*%
G71*
G01*
G75*
G04 Layer_Color=16711935*
%ADD10C,0.1000*%
%ADD11C,2.0000*%
%ADD12C,1.5000*%
%ADD13R,1.5000X1.4000*%
%ADD14C,0.3048*%
%ADD15C,0.6350*%
%ADD16C,0.4064*%
%ADD17O,0.6000X1.9000*%
G04:AMPARAMS|DCode=18|XSize=0.64mm|YSize=0.8mm|CornerRadius=0.064mm|HoleSize=0mm|Usage=FLASHONLY|Rotation=180.000|XOffset=0mm|YOffset=0mm|HoleType=Round|Shape=RoundedRectangle|*
%AMROUNDEDRECTD18*
21,1,0.6400,0.6720,0,0,180.0*
21,1,0.5120,0.8000,0,0,180.0*
1,1,0.1280,-0.2560,0.3360*
1,1,0.1280,0.2560,0.3360*
1,1,0.1280,0.2560,-0.3360*
1,1,0.1280,-0.2560,-0.3360*
%
%ADD18ROUNDEDRECTD18*%
G04:AMPARAMS|DCode=19|XSize=0.44mm|YSize=0.8mm|CornerRadius=0.044mm|HoleSize=0mm|Usage=FLASHONLY|Rotation=180.000|XOffset=0mm|YOffset=0mm|HoleType=Round|Shape=RoundedRectangle|*
%AMROUNDEDRECTD19*
21,1,0.4400,0.7120,0,0,180.0*
21,1,0.3520,0.8000,0,0,180.0*
1,1,0.0880,-0.1760,0.3560*
1,1,0.0880,0.1760,0.3560*
1,1,0.0880,0.1760,-0.3560*
1,1,0.0880,-0.1760,-0.3560*
%
%ADD19ROUNDEDRECTD19*%
%ADD20R,1.4000X1.5000*%
%ADD21C,0.2540*%
%ADD22C,1.0160*%
%ADD23C,0.5080*%
%ADD24C,0.7620*%
G04:AMPARAMS|DCode=25|XSize=0.64mm|YSize=0.8mm|CornerRadius=0.064mm|HoleSize=0mm|Usage=FLASHONLY|Rotation=90.000|XOffset=0mm|YOffset=0mm|HoleType=Round|Shape=RoundedRectangle|*
%AMROUNDEDRECTD25*
21,1,0.6400,0.6720,0,0,90.0*
21,1,0.5120,0.8000,0,0,90.0*
1,1,0.1280,0.3360,0.2560*
1,1,0.1280,0.3360,-0.2560*
1,1,0.1280,-0.3360,-0.2560*
1,1,0.1280,-0.3360,0.2560*
%
%ADD25ROUNDEDRECTD25*%
G04:AMPARAMS|DCode=26|XSize=0.44mm|YSize=0.8mm|CornerRadius=0.044mm|HoleSize=0mm|Usage=FLASHONLY|Rotation=90.000|XOffset=0mm|YOffset=0mm|HoleType=Round|Shape=RoundedRectangle|*
%AMROUNDEDRECTD26*
21,1,0.4400,0.7120,0,0,90.0*
21,1,0.3520,0.8000,0,0,90.0*
1,1,0.0880,0.3560,0.1760*
1,1,0.0880,0.3560,-0.1760*
1,1,0.0880,-0.3560,-0.1760*
1,1,0.0880,-0.3560,0.1760*
%
%ADD26ROUNDEDRECTD26*%
%ADD27O,2.2000X0.6000*%
%ADD28C,1.2700*%
G04:AMPARAMS|DCode=29|XSize=2.1mm|YSize=1.4mm|CornerRadius=0.14mm|HoleSize=0mm|Usage=FLASHONLY|Rotation=90.000|XOffset=0mm|YOffset=0mm|HoleType=Round|Shape=RoundedRectangle|*
%AMROUNDEDRECTD29*
21,1,2.1000,1.1200,0,0,90.0*
21,1,1.8200,1.4000,0,0,90.0*
1,1,0.2800,0.5600,0.9100*
1,1,0.2800,0.5600,-0.9100*
1,1,0.2800,-0.5600,-0.9100*
1,1,0.2800,-0.5600,0.9100*
%
%ADD29ROUNDEDRECTD29*%
%ADD30C,3.3000*%
%ADD31R,1.5000X1.5000*%
%ADD32C,1.6500*%
%ADD33R,1.6500X1.6500*%
%ADD34R,1.6500X1.6500*%
%ADD35C,0.7620*%
%ADD36C,1.8000*%
%ADD37C,1.1000*%
%ADD38O,1.5500X1.5000*%
%ADD39R,1.5000X1.5000*%
%ADD40C,0.2000*%
%ADD41C,0.1500*%
%ADD42C,0.2500*%
%ADD43C,0.1200*%
%ADD44C,0.1400*%
%ADD45R,4.1000X1.9000*%
%ADD46R,1.9000X4.1000*%
%ADD47C,0.1800*%
%ADD48C,4.3000*%
%ADD49R,1.7032X1.6032*%
%ADD50O,0.8032X2.1032*%
G04:AMPARAMS|DCode=51|XSize=0.8432mm|YSize=1.0032mm|CornerRadius=0.1656mm|HoleSize=0mm|Usage=FLASHONLY|Rotation=180.000|XOffset=0mm|YOffset=0mm|HoleType=Round|Shape=RoundedRectangle|*
%AMROUNDEDRECTD51*
21,1,0.8432,0.6720,0,0,180.0*
21,1,0.5120,1.0032,0,0,180.0*
1,1,0.3312,-0.2560,0.3360*
1,1,0.3312,0.2560,0.3360*
1,1,0.3312,0.2560,-0.3360*
1,1,0.3312,-0.2560,-0.3360*
%
%ADD51ROUNDEDRECTD51*%
G04:AMPARAMS|DCode=52|XSize=0.6432mm|YSize=1.0032mm|CornerRadius=0.1456mm|HoleSize=0mm|Usage=FLASHONLY|Rotation=180.000|XOffset=0mm|YOffset=0mm|HoleType=Round|Shape=RoundedRectangle|*
%AMROUNDEDRECTD52*
21,1,0.6432,0.7120,0,0,180.0*
21,1,0.3520,1.0032,0,0,180.0*
1,1,0.2912,-0.1760,0.3560*
1,1,0.2912,0.1760,0.3560*
1,1,0.2912,0.1760,-0.3560*
1,1,0.2912,-0.1760,-0.3560*
%
%ADD52ROUNDEDRECTD52*%
%ADD53R,1.6032X1.7032*%
G04:AMPARAMS|DCode=54|XSize=0.8432mm|YSize=1.0032mm|CornerRadius=0.1656mm|HoleSize=0mm|Usage=FLASHONLY|Rotation=90.000|XOffset=0mm|YOffset=0mm|HoleType=Round|Shape=RoundedRectangle|*
%AMROUNDEDRECTD54*
21,1,0.8432,0.6720,0,0,90.0*
21,1,0.5120,1.0032,0,0,90.0*
1,1,0.3312,0.3360,0.2560*
1,1,0.3312,0.3360,-0.2560*
1,1,0.3312,-0.3360,-0.2560*
1,1,0.3312,-0.3360,0.2560*
%
%ADD54ROUNDEDRECTD54*%
G04:AMPARAMS|DCode=55|XSize=0.6432mm|YSize=1.0032mm|CornerRadius=0.1456mm|HoleSize=0mm|Usage=FLASHONLY|Rotation=90.000|XOffset=0mm|YOffset=0mm|HoleType=Round|Shape=RoundedRectangle|*
%AMROUNDEDRECTD55*
21,1,0.6432,0.7120,0,0,90.0*
21,1,0.3520,1.0032,0,0,90.0*
1,1,0.2912,0.3560,0.1760*
1,1,0.2912,0.3560,-0.1760*
1,1,0.2912,-0.3560,-0.1760*
1,1,0.2912,-0.3560,0.1760*
%
%ADD55ROUNDEDRECTD55*%
%ADD56O,2.4032X0.8032*%
G04:AMPARAMS|DCode=57|XSize=2.3032mm|YSize=1.6032mm|CornerRadius=0.2416mm|HoleSize=0mm|Usage=FLASHONLY|Rotation=90.000|XOffset=0mm|YOffset=0mm|HoleType=Round|Shape=RoundedRectangle|*
%AMROUNDEDRECTD57*
21,1,2.3032,1.1200,0,0,90.0*
21,1,1.8200,1.6032,0,0,90.0*
1,1,0.4832,0.5600,0.9100*
1,1,0.4832,0.5600,-0.9100*
1,1,0.4832,-0.5600,-0.9100*
1,1,0.4832,-0.5600,0.9100*
%
%ADD57ROUNDEDRECTD57*%
%ADD58C,3.5032*%
%ADD59C,1.7032*%
%ADD60R,1.7032X1.7032*%
%ADD61C,1.8532*%
%ADD62R,1.8532X1.8532*%
%ADD63R,1.8532X1.8532*%
%ADD64C,0.9652*%
%ADD65C,2.0032*%
%ADD66C,1.3032*%
%ADD67O,1.7532X1.7032*%
%ADD68R,1.7032X1.7032*%
D10*
X0Y0D02*
Y3100000D01*
X5100000D01*
Y0D02*
Y3100000D01*
X0Y0D02*
X5100000D01*
X110000Y210000D02*
Y310000D01*
X210000Y110000D02*
X310000D01*
X110000Y1160000D02*
Y1260000D01*
X210000Y1360000D02*
X310000D01*
X1660000D02*
X1760000D01*
X1860000Y1160000D02*
Y1260000D01*
Y210000D02*
Y310000D01*
X1660000Y110000D02*
X1760000D01*
X1660000Y1380000D02*
X1760000D01*
X1860000Y1480000D02*
Y1580000D01*
Y2430000D02*
Y2530000D01*
X1660000Y2630000D02*
X1760000D01*
X210000D02*
X310000D01*
X110000Y2430000D02*
Y2530000D01*
X210000Y1380000D02*
X310000D01*
X110000Y1480000D02*
Y1580000D01*
X3430000Y1380000D02*
X3530000D01*
X3630000Y1480000D02*
Y1580000D01*
Y2430000D02*
Y2530000D01*
X3430000Y2630000D02*
X3530000D01*
X1980000D02*
X2080000D01*
X1880000Y2430000D02*
Y2530000D01*
X1980000Y1380000D02*
X2080000D01*
X1880000Y1480000D02*
Y1580000D01*
X3430000Y110000D02*
X3530000D01*
X3630000Y210000D02*
Y310000D01*
Y1160000D02*
Y1260000D01*
X3430000Y1360000D02*
X3530000D01*
X1980000D02*
X2080000D01*
X1880000Y1160000D02*
Y1260000D01*
X1980000Y110000D02*
X2080000D01*
X1880000Y210000D02*
Y310000D01*
X230000Y2990000D02*
X290000D01*
X230000Y2740000D02*
X290000D01*
X550000D02*
X610000D01*
X550000Y2990000D02*
X610000D01*
X870000Y2740000D02*
X930000D01*
X870000Y2990000D02*
X930000D01*
X1190000Y2740000D02*
X1250000D01*
X1190000Y2990000D02*
X1250000D01*
X1640000D02*
X1700000D01*
X1640000Y2690000D02*
X1700000D01*
X2140000Y2990000D02*
X2200000D01*
X2140000Y2690000D02*
X2200000D01*
X3690000Y250000D02*
Y310000D01*
Y650000D02*
Y710000D01*
X3990000Y650000D02*
Y710000D01*
Y250000D02*
Y310000D01*
X4010000Y650000D02*
Y710000D01*
Y250000D02*
Y310000D01*
X4310000Y650000D02*
Y710000D01*
Y250000D02*
Y310000D01*
X4990000Y250000D02*
Y310000D01*
Y650000D02*
Y710000D01*
X4690000Y250000D02*
Y310000D01*
Y650000D02*
Y710000D01*
X4670000Y250000D02*
Y310000D01*
Y650000D02*
Y710000D01*
X4370000Y650000D02*
Y710000D01*
Y250000D02*
Y310000D01*
X4310000Y1010000D02*
Y1070000D01*
Y1410000D02*
Y1470000D01*
X4010000Y1010000D02*
Y1070000D01*
Y1410000D02*
Y1470000D01*
X3990000Y1010000D02*
Y1070000D01*
Y1410000D02*
Y1470000D01*
X3690000Y1410000D02*
Y1470000D01*
Y1010000D02*
Y1070000D01*
X4990000Y1010000D02*
Y1070000D01*
Y1410000D02*
Y1470000D01*
X4690000Y1010000D02*
Y1070000D01*
Y1410000D02*
Y1470000D01*
X4670000Y1010000D02*
Y1070000D01*
Y1410000D02*
Y1470000D01*
X4370000Y1410000D02*
Y1470000D01*
Y1010000D02*
Y1070000D01*
X4310000Y1770000D02*
Y1830000D01*
Y2170000D02*
Y2230000D01*
X4010000Y1770000D02*
Y1830000D01*
Y2170000D02*
Y2230000D01*
X3990000Y1770000D02*
Y1830000D01*
Y2170000D02*
Y2230000D01*
X3690000Y2170000D02*
Y2230000D01*
Y1770000D02*
Y1830000D01*
X4990000Y1770000D02*
Y1830000D01*
Y2170000D02*
Y2230000D01*
X4690000Y1770000D02*
Y1830000D01*
Y2170000D02*
Y2230000D01*
X4670000Y1770000D02*
Y1830000D01*
Y2170000D02*
Y2230000D01*
X4370000Y2170000D02*
Y2230000D01*
Y1770000D02*
Y1830000D01*
X4990000Y2740000D02*
Y2840000D01*
X4240000Y2740000D02*
Y2840000D01*
X2805000Y2760000D02*
X2865000D01*
X2805000Y2990000D02*
X2865000D01*
X3175000D02*
X3235000D01*
X3175000Y2760000D02*
X3235000D01*
X3545000Y2990000D02*
X3605000D01*
X3545000Y2760000D02*
X3605000D01*
X3915000Y2990000D02*
X3975000D01*
X3915000Y2760000D02*
X3975000D01*
X3915000Y2740000D02*
X3975000D01*
X3915000Y2510000D02*
X3975000D01*
D11*
X3530000Y1370000D02*
X3640000D01*
X100000Y100000D02*
X210000D01*
X100000D02*
Y210000D01*
Y1370000D02*
X210000D01*
X310000Y100000D02*
X1660000D01*
X1760000D02*
X1980000D01*
X2080000D02*
X3430000D01*
X3530000D02*
X3640000D01*
Y210000D01*
Y310000D02*
Y1160000D01*
Y1260000D02*
Y1480000D01*
Y1580000D02*
Y2430000D01*
X1870000Y1580000D02*
Y2430000D01*
Y1260000D02*
Y1480000D01*
Y310000D02*
Y1160000D01*
X100000Y1580000D02*
Y2430000D01*
Y1260000D02*
Y1480000D01*
Y310000D02*
Y1160000D01*
X2080000Y1370000D02*
X3430000D01*
X1760000D02*
X1980000D01*
X310000D02*
X1660000D01*
X1870000Y100000D02*
Y210000D01*
X5000000Y100000D02*
Y250000D01*
Y310000D02*
Y650000D01*
Y710000D02*
Y1010000D01*
Y1070000D02*
Y1410000D01*
Y1470000D02*
Y1770000D01*
Y1830000D02*
Y2170000D01*
Y2230000D02*
Y2380000D01*
X4680000Y2230000D02*
Y2380000D01*
Y1830000D02*
Y2170000D01*
Y1470000D02*
Y1770000D01*
Y1070000D02*
Y1410000D01*
Y710000D02*
Y1010000D01*
Y310000D02*
Y650000D01*
X4360000Y2230000D02*
Y2380000D01*
Y1830000D02*
Y2170000D01*
Y1470000D02*
Y1770000D01*
Y1070000D02*
Y1410000D01*
Y710000D02*
Y1010000D01*
Y310000D02*
Y650000D01*
Y100000D02*
Y250000D01*
X4320000Y2230000D02*
Y2380000D01*
Y1830000D02*
Y2170000D01*
Y1470000D02*
Y1770000D01*
Y1070000D02*
Y1410000D01*
Y710000D02*
Y1010000D01*
Y310000D02*
Y650000D01*
Y100000D02*
Y250000D01*
X4000000Y2230000D02*
Y2380000D01*
Y1830000D02*
Y2170000D01*
Y1470000D02*
Y1770000D01*
Y1070000D02*
Y1410000D01*
Y710000D02*
Y1010000D01*
Y310000D02*
Y650000D01*
X3680000Y2230000D02*
Y2380000D01*
Y1830000D02*
Y2170000D01*
Y1470000D02*
Y1770000D01*
Y1070000D02*
Y1410000D01*
Y710000D02*
Y1010000D01*
Y310000D02*
Y650000D01*
Y100000D02*
Y250000D01*
Y1620000D02*
X4320000D01*
X4360000D02*
X5000000D01*
X3680000Y860000D02*
X4320000D01*
X4360000D02*
X5000000D01*
X310000Y2640000D02*
X1660000D01*
X1760000D02*
X1980000D01*
X2080000D02*
X3430000D01*
X1870000Y2530000D02*
Y2640000D01*
X100000D02*
X210000D01*
X100000Y2530000D02*
Y2640000D01*
X3640000Y2530000D02*
Y2640000D01*
X3530000D02*
X3640000D01*
X100000Y2730000D02*
Y3000000D01*
X230000D01*
X100000Y2730000D02*
X230000D01*
X420000D02*
Y3000000D01*
X290000D02*
X550000D01*
X290000Y2730000D02*
X550000D01*
X610000D02*
X870000D01*
X610000Y3000000D02*
X870000D01*
X740000Y2730000D02*
Y3000000D01*
X930000Y2730000D02*
X1190000D01*
X930000Y3000000D02*
X1190000D01*
X1060000Y2730000D02*
Y3000000D01*
X1250000D02*
X1380000D01*
X1250000Y2730000D02*
X1380000D01*
Y3000000D01*
X1420000Y2680000D02*
Y3000000D01*
Y2680000D02*
X1640000D01*
X1700000D02*
X2140000D01*
X2200000D02*
X2420000D01*
Y3000000D01*
X2200000D02*
X2420000D01*
X1700000D02*
X2140000D01*
X1420000D02*
X1640000D01*
X1920000Y2680000D02*
Y3000000D01*
X2650000D02*
X2810000D01*
X2650000Y2750000D02*
Y3000000D01*
Y2750000D02*
X2810000D01*
X2860000D02*
X3180000D01*
X3230000D02*
X3550000D01*
X3600000D02*
X3920000D01*
X3970000D02*
X4130000D01*
X3970000Y3000000D02*
X4130000D01*
Y2500000D02*
Y3000000D01*
X3970000Y2500000D02*
X4130000D01*
X3760000D02*
X3920000D01*
X3760000D02*
Y3000000D01*
X3600000D02*
X3920000D01*
X3230000D02*
X3550000D01*
X2860000D02*
X3180000D01*
X3020000Y2750000D02*
Y3000000D01*
X3390000Y2750000D02*
Y3000000D01*
X4230000D02*
X5000000D01*
Y2840000D02*
Y3000000D01*
Y2580000D02*
Y2740000D01*
X4230000Y2580000D02*
X5000000D01*
X4230000D02*
Y2740000D01*
Y2840000D02*
Y3000000D01*
X4000000Y100000D02*
Y250000D01*
X4680000Y100000D02*
Y250000D01*
X3680000Y100000D02*
X4320000D01*
X4360000D02*
X5000000D01*
X3680000Y2380000D02*
X4320000D01*
X4360000D02*
X5000000D01*
D58*
X50000Y3050000D02*
D03*
Y50000D02*
D03*
X5050000D02*
D03*
Y3050000D02*
D03*
X3810000Y2805160D02*
D03*
X4080000D02*
D03*
X3440000D02*
D03*
X3710000D02*
D03*
X3070000D02*
D03*
X3340000D02*
D03*
X2700000D02*
D03*
X2970000D02*
D03*
X2170000Y2940000D02*
D03*
Y2740000D02*
D03*
X1670000Y2940000D02*
D03*
Y2740000D02*
D03*
X260400Y2953900D02*
D03*
Y2776100D02*
D03*
X580400Y2953900D02*
D03*
Y2776100D02*
D03*
X900400Y2953900D02*
D03*
Y2776100D02*
D03*
X1220400Y2953900D02*
D03*
Y2776100D02*
D03*
X4740000Y820000D02*
D03*
X4940000D02*
D03*
Y140000D02*
D03*
X4740000D02*
D03*
Y1580000D02*
D03*
X4940000D02*
D03*
Y900000D02*
D03*
X4740000D02*
D03*
Y2340000D02*
D03*
X4940000D02*
D03*
Y1660000D02*
D03*
X4740000D02*
D03*
X4420000Y820000D02*
D03*
X4620000D02*
D03*
Y140000D02*
D03*
X4420000D02*
D03*
Y1580000D02*
D03*
X4620000D02*
D03*
Y900000D02*
D03*
X4420000D02*
D03*
Y2340000D02*
D03*
X4620000D02*
D03*
Y1660000D02*
D03*
X4420000D02*
D03*
X1265000Y160000D02*
D03*
Y1160000D02*
D03*
Y660000D02*
D03*
X705000Y1160000D02*
D03*
Y160000D02*
D03*
X1810000Y660000D02*
D03*
X160000D02*
D03*
X705000D02*
D03*
X160000Y1160000D02*
D03*
X1810000D02*
D03*
Y160000D02*
D03*
X160000D02*
D03*
X3035000D02*
D03*
Y1160000D02*
D03*
Y660000D02*
D03*
X2475000Y1160000D02*
D03*
Y160000D02*
D03*
X3580000Y660000D02*
D03*
X1930000D02*
D03*
X2475000D02*
D03*
X1930000Y1160000D02*
D03*
X3580000D02*
D03*
Y160000D02*
D03*
X1930000D02*
D03*
X1265000Y1430000D02*
D03*
Y2430000D02*
D03*
Y1930000D02*
D03*
X705000Y2430000D02*
D03*
Y1430000D02*
D03*
X1810000Y1930000D02*
D03*
X160000D02*
D03*
X705000D02*
D03*
X160000Y2430000D02*
D03*
X1810000D02*
D03*
Y1430000D02*
D03*
X160000D02*
D03*
X3035000D02*
D03*
Y2430000D02*
D03*
Y1930000D02*
D03*
X2475000Y2430000D02*
D03*
Y1430000D02*
D03*
X3580000Y1930000D02*
D03*
X1930000D02*
D03*
X2475000D02*
D03*
X1930000Y2430000D02*
D03*
X3580000D02*
D03*
Y1430000D02*
D03*
X1930000D02*
D03*
X4060000Y140000D02*
D03*
X4260000D02*
D03*
Y820000D02*
D03*
X4060000D02*
D03*
Y900000D02*
D03*
X4260000D02*
D03*
Y1580000D02*
D03*
X4060000D02*
D03*
Y1660000D02*
D03*
X4260000D02*
D03*
Y2340000D02*
D03*
X4060000D02*
D03*
X3740000Y140000D02*
D03*
X3940000D02*
D03*
Y820000D02*
D03*
X3740000D02*
D03*
Y900000D02*
D03*
X3940000D02*
D03*
Y1580000D02*
D03*
X3740000D02*
D03*
Y1660000D02*
D03*
X3940000D02*
D03*
Y2340000D02*
D03*
X3740000D02*
D03*
X4290000Y2940000D02*
D03*
X4940000D02*
D03*
X3810000Y2555160D02*
D03*
X4080000D02*
D03*
D59*
X3893050Y2804400D02*
D03*
Y2829800D02*
D03*
X3918450Y2804400D02*
D03*
Y2829800D02*
D03*
X3943850Y2804400D02*
D03*
Y2829800D02*
D03*
X3969250Y2804400D02*
D03*
Y2829800D02*
D03*
X3994650Y2804400D02*
D03*
Y2829800D02*
D03*
X3523050Y2804400D02*
D03*
Y2829800D02*
D03*
X3548450Y2804400D02*
D03*
Y2829800D02*
D03*
X3573850Y2804400D02*
D03*
Y2829800D02*
D03*
X3599250Y2804400D02*
D03*
Y2829800D02*
D03*
X3624650Y2804400D02*
D03*
Y2829800D02*
D03*
X3153050Y2804400D02*
D03*
Y2829800D02*
D03*
X3178450Y2804400D02*
D03*
Y2829800D02*
D03*
X3203850Y2804400D02*
D03*
Y2829800D02*
D03*
X3229250Y2804400D02*
D03*
Y2829800D02*
D03*
X3254650Y2804400D02*
D03*
Y2829800D02*
D03*
X2783050Y2804400D02*
D03*
Y2829800D02*
D03*
X2808450Y2804400D02*
D03*
Y2829800D02*
D03*
X2833850Y2804400D02*
D03*
Y2829800D02*
D03*
X2859250Y2804400D02*
D03*
Y2829800D02*
D03*
X2884650Y2804400D02*
D03*
Y2829800D02*
D03*
X1988400Y2891000D02*
D03*
X2013800D02*
D03*
X1988400Y2865600D02*
D03*
X2013800D02*
D03*
X1988400Y2840200D02*
D03*
X2013800D02*
D03*
X1988400Y2814800D02*
D03*
X2013800D02*
D03*
X1988400Y2789400D02*
D03*
X2013800D02*
D03*
X2326700Y2891000D02*
D03*
X2352100D02*
D03*
X2326700Y2865600D02*
D03*
X2352100D02*
D03*
X2326700Y2840200D02*
D03*
X2352100D02*
D03*
X2326700Y2814800D02*
D03*
X2352100D02*
D03*
X2326700Y2789400D02*
D03*
X2352100D02*
D03*
X2115400Y2903700D02*
D03*
Y2725900D02*
D03*
Y2751300D02*
D03*
Y2776700D02*
D03*
Y2802100D02*
D03*
Y2827500D02*
D03*
Y2852900D02*
D03*
Y2878300D02*
D03*
Y2929100D02*
D03*
X2225100Y2903700D02*
D03*
Y2725900D02*
D03*
Y2751300D02*
D03*
Y2776700D02*
D03*
Y2802100D02*
D03*
Y2827500D02*
D03*
Y2852900D02*
D03*
Y2878300D02*
D03*
Y2929100D02*
D03*
X1488400Y2891000D02*
D03*
X1513800D02*
D03*
X1488400Y2865600D02*
D03*
X1513800D02*
D03*
X1488400Y2840200D02*
D03*
X1513800D02*
D03*
X1488400Y2814800D02*
D03*
X1513800D02*
D03*
X1488400Y2789400D02*
D03*
X1513800D02*
D03*
X1826700Y2891000D02*
D03*
X1852100D02*
D03*
X1826700Y2865600D02*
D03*
X1852100D02*
D03*
X1826700Y2840200D02*
D03*
X1852100D02*
D03*
X1826700Y2814800D02*
D03*
X1852100D02*
D03*
X1826700Y2789400D02*
D03*
X1852100D02*
D03*
X1615400Y2903700D02*
D03*
Y2725900D02*
D03*
Y2751300D02*
D03*
Y2776700D02*
D03*
Y2802100D02*
D03*
Y2827500D02*
D03*
Y2852900D02*
D03*
Y2878300D02*
D03*
Y2929100D02*
D03*
X1725100Y2903700D02*
D03*
Y2725900D02*
D03*
Y2751300D02*
D03*
Y2776700D02*
D03*
Y2802100D02*
D03*
Y2827500D02*
D03*
Y2852900D02*
D03*
Y2878300D02*
D03*
Y2929100D02*
D03*
X349300Y2814200D02*
D03*
X323900D02*
D03*
X349300Y2839600D02*
D03*
X323900D02*
D03*
X349300Y2865000D02*
D03*
X323900D02*
D03*
X349300Y2890400D02*
D03*
X323900D02*
D03*
X349300Y2915800D02*
D03*
X323900D02*
D03*
X171500D02*
D03*
X196900D02*
D03*
X171500Y2890400D02*
D03*
X196900D02*
D03*
X171500Y2865000D02*
D03*
X196900D02*
D03*
X171500Y2839600D02*
D03*
X196900D02*
D03*
X171500Y2814200D02*
D03*
X196900D02*
D03*
X669300D02*
D03*
X643900D02*
D03*
X669300Y2839600D02*
D03*
X643900D02*
D03*
X669300Y2865000D02*
D03*
X643900D02*
D03*
X669300Y2890400D02*
D03*
X643900D02*
D03*
X669300Y2915800D02*
D03*
X643900D02*
D03*
X491500D02*
D03*
X516900D02*
D03*
X491500Y2890400D02*
D03*
X516900D02*
D03*
X491500Y2865000D02*
D03*
X516900D02*
D03*
X491500Y2839600D02*
D03*
X516900D02*
D03*
X491500Y2814200D02*
D03*
X516900D02*
D03*
X989300D02*
D03*
X963900D02*
D03*
X989300Y2839600D02*
D03*
X963900D02*
D03*
X989300Y2865000D02*
D03*
X963900D02*
D03*
X989300Y2890400D02*
D03*
X963900D02*
D03*
X989300Y2915800D02*
D03*
X963900D02*
D03*
X811500D02*
D03*
X836900D02*
D03*
X811500Y2890400D02*
D03*
X836900D02*
D03*
X811500Y2865000D02*
D03*
X836900D02*
D03*
X811500Y2839600D02*
D03*
X836900D02*
D03*
X811500Y2814200D02*
D03*
X836900D02*
D03*
X1309300D02*
D03*
X1283900D02*
D03*
X1309300Y2839600D02*
D03*
X1283900D02*
D03*
X1309300Y2865000D02*
D03*
X1283900D02*
D03*
X1309300Y2890400D02*
D03*
X1283900D02*
D03*
X1309300Y2915800D02*
D03*
X1283900D02*
D03*
X1131500D02*
D03*
X1156900D02*
D03*
X1131500Y2890400D02*
D03*
X1156900D02*
D03*
X1131500Y2865000D02*
D03*
X1156900D02*
D03*
X1131500Y2839600D02*
D03*
X1156900D02*
D03*
X1131500Y2814200D02*
D03*
X1156900D02*
D03*
X1583400Y272700D02*
D03*
Y502700D02*
D03*
Y842700D02*
D03*
Y1072700D02*
D03*
X1303400Y272700D02*
D03*
X1303400Y502700D02*
D03*
Y842700D02*
D03*
Y1072700D02*
D03*
X1023400Y272700D02*
D03*
Y502700D02*
D03*
Y842700D02*
D03*
Y1072700D02*
D03*
X743400Y272700D02*
D03*
X743400Y502700D02*
D03*
Y842700D02*
D03*
X743400Y1072700D02*
D03*
X463400Y272700D02*
D03*
X463400Y502700D02*
D03*
Y842700D02*
D03*
X463400Y1072700D02*
D03*
X183400Y272700D02*
D03*
Y502700D02*
D03*
Y842700D02*
D03*
X183400Y1072700D02*
D03*
X1559200Y1225000D02*
D03*
Y1250400D02*
D03*
X1584600Y1225000D02*
D03*
Y1250400D02*
D03*
X1610000Y1225000D02*
D03*
Y1250400D02*
D03*
X1635400Y1225000D02*
D03*
Y1250400D02*
D03*
X1660800Y1225000D02*
D03*
Y1250400D02*
D03*
X719200Y1225000D02*
D03*
Y1250400D02*
D03*
X744600Y1225000D02*
D03*
Y1250400D02*
D03*
X770000Y1225000D02*
D03*
Y1250400D02*
D03*
X795400Y1225000D02*
D03*
Y1250400D02*
D03*
X820800Y1225000D02*
D03*
Y1250400D02*
D03*
X1354200Y1225000D02*
D03*
Y1250400D02*
D03*
X1379600Y1225000D02*
D03*
Y1250400D02*
D03*
X1405000Y1225000D02*
D03*
Y1250400D02*
D03*
X1430400Y1225000D02*
D03*
Y1250400D02*
D03*
X1455800Y1225000D02*
D03*
Y1250400D02*
D03*
X514200Y1225000D02*
D03*
Y1250400D02*
D03*
X539600Y1225000D02*
D03*
Y1250400D02*
D03*
X565000Y1225000D02*
D03*
Y1250400D02*
D03*
X590400Y1225000D02*
D03*
Y1250400D02*
D03*
X615800Y1225000D02*
D03*
Y1250400D02*
D03*
X1149200Y1225000D02*
D03*
Y1250400D02*
D03*
X1174600Y1225000D02*
D03*
Y1250400D02*
D03*
X1200000Y1225000D02*
D03*
Y1250400D02*
D03*
X1225400Y1225000D02*
D03*
Y1250400D02*
D03*
X1250800Y1225000D02*
D03*
Y1250400D02*
D03*
X309200Y1225000D02*
D03*
Y1250400D02*
D03*
X334600Y1225000D02*
D03*
Y1250400D02*
D03*
X360000Y1225000D02*
D03*
Y1250400D02*
D03*
X385400Y1225000D02*
D03*
Y1250400D02*
D03*
X410800Y1225000D02*
D03*
Y1250400D02*
D03*
X3353400Y272700D02*
D03*
Y502700D02*
D03*
Y842700D02*
D03*
Y1072700D02*
D03*
X3073400Y272700D02*
D03*
X3073400Y502700D02*
D03*
Y842700D02*
D03*
Y1072700D02*
D03*
X2793400Y272700D02*
D03*
Y502700D02*
D03*
Y842700D02*
D03*
Y1072700D02*
D03*
X2513400Y272700D02*
D03*
X2513400Y502700D02*
D03*
Y842700D02*
D03*
X2513400Y1072700D02*
D03*
X2233400Y272700D02*
D03*
X2233400Y502700D02*
D03*
Y842700D02*
D03*
X2233400Y1072700D02*
D03*
X1953400Y272700D02*
D03*
Y502700D02*
D03*
Y842700D02*
D03*
X1953400Y1072700D02*
D03*
X3329200Y1225000D02*
D03*
Y1250400D02*
D03*
X3354600Y1225000D02*
D03*
Y1250400D02*
D03*
X3380000Y1225000D02*
D03*
Y1250400D02*
D03*
X3405400Y1225000D02*
D03*
Y1250400D02*
D03*
X3430800Y1225000D02*
D03*
Y1250400D02*
D03*
X2489200Y1225000D02*
D03*
Y1250400D02*
D03*
X2514600Y1225000D02*
D03*
Y1250400D02*
D03*
X2540000Y1225000D02*
D03*
Y1250400D02*
D03*
X2565400Y1225000D02*
D03*
Y1250400D02*
D03*
X2590800Y1225000D02*
D03*
Y1250400D02*
D03*
X3124200Y1225000D02*
D03*
Y1250400D02*
D03*
X3149600Y1225000D02*
D03*
Y1250400D02*
D03*
X3175000Y1225000D02*
D03*
Y1250400D02*
D03*
X3200400Y1225000D02*
D03*
Y1250400D02*
D03*
X3225800Y1225000D02*
D03*
Y1250400D02*
D03*
X2284200Y1225000D02*
D03*
Y1250400D02*
D03*
X2309600Y1225000D02*
D03*
Y1250400D02*
D03*
X2335000Y1225000D02*
D03*
Y1250400D02*
D03*
X2360400Y1225000D02*
D03*
Y1250400D02*
D03*
X2385800Y1225000D02*
D03*
Y1250400D02*
D03*
X2919200Y1225000D02*
D03*
Y1250400D02*
D03*
X2944600Y1225000D02*
D03*
Y1250400D02*
D03*
X2970000Y1225000D02*
D03*
Y1250400D02*
D03*
X2995400Y1225000D02*
D03*
Y1250400D02*
D03*
X3020800Y1225000D02*
D03*
Y1250400D02*
D03*
X2079200Y1225000D02*
D03*
Y1250400D02*
D03*
X2104600Y1225000D02*
D03*
Y1250400D02*
D03*
X2130000Y1225000D02*
D03*
Y1250400D02*
D03*
X2155400Y1225000D02*
D03*
Y1250400D02*
D03*
X2180800Y1225000D02*
D03*
Y1250400D02*
D03*
X1583400Y1542700D02*
D03*
Y1772700D02*
D03*
Y2112700D02*
D03*
Y2342700D02*
D03*
X1303400Y1542700D02*
D03*
X1303400Y1772700D02*
D03*
Y2112700D02*
D03*
Y2342700D02*
D03*
X1023400Y1542700D02*
D03*
Y1772700D02*
D03*
Y2112700D02*
D03*
Y2342700D02*
D03*
X743400Y1542700D02*
D03*
X743400Y1772700D02*
D03*
Y2112700D02*
D03*
X743400Y2342700D02*
D03*
X463400Y1542700D02*
D03*
X463400Y1772700D02*
D03*
Y2112700D02*
D03*
X463400Y2342700D02*
D03*
X183400Y1542700D02*
D03*
Y1772700D02*
D03*
Y2112700D02*
D03*
X183400Y2342700D02*
D03*
X1559200Y2495000D02*
D03*
Y2520400D02*
D03*
X1584600Y2495000D02*
D03*
Y2520400D02*
D03*
X1610000Y2495000D02*
D03*
Y2520400D02*
D03*
X1635400Y2495000D02*
D03*
Y2520400D02*
D03*
X1660800Y2495000D02*
D03*
Y2520400D02*
D03*
X719200Y2495000D02*
D03*
Y2520400D02*
D03*
X744600Y2495000D02*
D03*
Y2520400D02*
D03*
X770000Y2495000D02*
D03*
Y2520400D02*
D03*
X795400Y2495000D02*
D03*
Y2520400D02*
D03*
X820800Y2495000D02*
D03*
Y2520400D02*
D03*
X1354200Y2495000D02*
D03*
Y2520400D02*
D03*
X1379600Y2495000D02*
D03*
Y2520400D02*
D03*
X1405000Y2495000D02*
D03*
Y2520400D02*
D03*
X1430400Y2495000D02*
D03*
Y2520400D02*
D03*
X1455800Y2495000D02*
D03*
Y2520400D02*
D03*
X514200Y2495000D02*
D03*
Y2520400D02*
D03*
X539600Y2495000D02*
D03*
Y2520400D02*
D03*
X565000Y2495000D02*
D03*
Y2520400D02*
D03*
X590400Y2495000D02*
D03*
Y2520400D02*
D03*
X615800Y2495000D02*
D03*
Y2520400D02*
D03*
X1149200Y2495000D02*
D03*
Y2520400D02*
D03*
X1174600Y2495000D02*
D03*
Y2520400D02*
D03*
X1200000Y2495000D02*
D03*
Y2520400D02*
D03*
X1225400Y2495000D02*
D03*
Y2520400D02*
D03*
X1250800Y2495000D02*
D03*
Y2520400D02*
D03*
X309200Y2495000D02*
D03*
Y2520400D02*
D03*
X334600Y2495000D02*
D03*
Y2520400D02*
D03*
X360000Y2495000D02*
D03*
Y2520400D02*
D03*
X385400Y2495000D02*
D03*
Y2520400D02*
D03*
X410800Y2495000D02*
D03*
Y2520400D02*
D03*
X3353400Y1542700D02*
D03*
Y1772700D02*
D03*
Y2112700D02*
D03*
Y2342700D02*
D03*
X3073400Y1542700D02*
D03*
X3073400Y1772700D02*
D03*
Y2112700D02*
D03*
Y2342700D02*
D03*
X2793400Y1542700D02*
D03*
Y1772700D02*
D03*
Y2112700D02*
D03*
Y2342700D02*
D03*
X2513400Y1542700D02*
D03*
X2513400Y1772700D02*
D03*
Y2112700D02*
D03*
X2513400Y2342700D02*
D03*
X2233400Y1542700D02*
D03*
X2233400Y1772700D02*
D03*
Y2112700D02*
D03*
X2233400Y2342700D02*
D03*
X1953400Y1542700D02*
D03*
Y1772700D02*
D03*
Y2112700D02*
D03*
X1953400Y2342700D02*
D03*
X3329200Y2495000D02*
D03*
Y2520400D02*
D03*
X3354600Y2495000D02*
D03*
Y2520400D02*
D03*
X3380000Y2495000D02*
D03*
Y2520400D02*
D03*
X3405400Y2495000D02*
D03*
Y2520400D02*
D03*
X3430800Y2495000D02*
D03*
Y2520400D02*
D03*
X2489200Y2495000D02*
D03*
Y2520400D02*
D03*
X2514600Y2495000D02*
D03*
Y2520400D02*
D03*
X2540000Y2495000D02*
D03*
Y2520400D02*
D03*
X2565400Y2495000D02*
D03*
Y2520400D02*
D03*
X2590800Y2495000D02*
D03*
Y2520400D02*
D03*
X3124200Y2495000D02*
D03*
Y2520400D02*
D03*
X3149600Y2495000D02*
D03*
Y2520400D02*
D03*
X3175000Y2495000D02*
D03*
Y2520400D02*
D03*
X3200400Y2495000D02*
D03*
Y2520400D02*
D03*
X3225800Y2495000D02*
D03*
Y2520400D02*
D03*
X2284200Y2495000D02*
D03*
Y2520400D02*
D03*
X2309600Y2495000D02*
D03*
Y2520400D02*
D03*
X2335000Y2495000D02*
D03*
Y2520400D02*
D03*
X2360400Y2495000D02*
D03*
Y2520400D02*
D03*
X2385800Y2495000D02*
D03*
Y2520400D02*
D03*
X2919200Y2495000D02*
D03*
Y2520400D02*
D03*
X2944600Y2495000D02*
D03*
Y2520400D02*
D03*
X2970000Y2495000D02*
D03*
Y2520400D02*
D03*
X2995400Y2495000D02*
D03*
Y2520400D02*
D03*
X3020800Y2495000D02*
D03*
Y2520400D02*
D03*
X2079200Y2495000D02*
D03*
Y2520400D02*
D03*
X2104600Y2495000D02*
D03*
Y2520400D02*
D03*
X2130000Y2495000D02*
D03*
Y2520400D02*
D03*
X2155400Y2495000D02*
D03*
Y2520400D02*
D03*
X2180800Y2495000D02*
D03*
Y2520400D02*
D03*
X4564150Y2897450D02*
D03*
Y2922850D02*
D03*
X4589550Y2897450D02*
D03*
Y2922850D02*
D03*
X4614950Y2897450D02*
D03*
Y2922850D02*
D03*
X4640350Y2897450D02*
D03*
Y2922850D02*
D03*
X4665750Y2897450D02*
D03*
Y2922850D02*
D03*
X4526050Y2789500D02*
D03*
Y2814900D02*
D03*
X4551450Y2789500D02*
D03*
Y2814900D02*
D03*
X4576850Y2789500D02*
D03*
Y2814900D02*
D03*
X4602250Y2789500D02*
D03*
Y2814900D02*
D03*
X4627650Y2789500D02*
D03*
Y2814900D02*
D03*
X4653050Y2789500D02*
D03*
Y2814900D02*
D03*
X4678450Y2789500D02*
D03*
Y2814900D02*
D03*
X4703850Y2789500D02*
D03*
X3893050Y2554400D02*
D03*
Y2579800D02*
D03*
X3918450Y2554400D02*
D03*
Y2579800D02*
D03*
X3943850Y2554400D02*
D03*
Y2579800D02*
D03*
X3969250Y2554400D02*
D03*
Y2579800D02*
D03*
X3994650Y2554400D02*
D03*
Y2579800D02*
D03*
D60*
X2115400Y2954500D02*
D03*
X2225100D02*
D03*
X1615400D02*
D03*
X1725100D02*
D03*
D61*
X4861850Y754200D02*
D03*
X4836450Y754200D02*
D03*
X4887250Y754200D02*
D03*
X4912650D02*
D03*
X4938050D02*
D03*
X4887250Y728800D02*
D03*
X4861850D02*
D03*
X4938050D02*
D03*
X4912650D02*
D03*
X4724300Y686000D02*
D03*
Y711400D02*
D03*
X4749700Y736800D02*
D03*
X4749700Y686000D02*
D03*
Y711400D02*
D03*
X4724300Y660600D02*
D03*
Y635200D02*
D03*
X4749700Y660600D02*
D03*
Y635200D02*
D03*
X4724300Y480000D02*
D03*
Y505400D02*
D03*
X4749700Y530800D02*
D03*
X4749700Y480000D02*
D03*
Y505400D02*
D03*
X4724300Y454600D02*
D03*
Y429200D02*
D03*
X4749700Y454600D02*
D03*
Y429200D02*
D03*
X4724300Y274000D02*
D03*
Y299400D02*
D03*
X4749700Y324800D02*
D03*
X4749700Y274000D02*
D03*
Y299400D02*
D03*
X4724300Y248600D02*
D03*
Y223200D02*
D03*
X4749700Y248600D02*
D03*
Y223200D02*
D03*
X4861850Y230950D02*
D03*
X4836450Y230950D02*
D03*
X4887250Y230950D02*
D03*
X4912650D02*
D03*
X4938050D02*
D03*
X4887250Y205550D02*
D03*
X4861850D02*
D03*
X4938050D02*
D03*
X4912650D02*
D03*
X4861850Y1514200D02*
D03*
X4836450Y1514200D02*
D03*
X4887250Y1514200D02*
D03*
X4912650D02*
D03*
X4938050D02*
D03*
X4887250Y1488800D02*
D03*
X4861850D02*
D03*
X4938050D02*
D03*
X4912650D02*
D03*
X4724300Y1446000D02*
D03*
Y1471400D02*
D03*
X4749700Y1496800D02*
D03*
X4749700Y1446000D02*
D03*
Y1471400D02*
D03*
X4724300Y1420600D02*
D03*
Y1395200D02*
D03*
X4749700Y1420600D02*
D03*
Y1395200D02*
D03*
X4724300Y1240000D02*
D03*
Y1265400D02*
D03*
X4749700Y1290800D02*
D03*
X4749700Y1240000D02*
D03*
Y1265400D02*
D03*
X4724300Y1214600D02*
D03*
Y1189200D02*
D03*
X4749700Y1214600D02*
D03*
Y1189200D02*
D03*
X4724300Y1034000D02*
D03*
Y1059400D02*
D03*
X4749700Y1084800D02*
D03*
X4749700Y1034000D02*
D03*
Y1059400D02*
D03*
X4724300Y1008600D02*
D03*
Y983200D02*
D03*
X4749700Y1008600D02*
D03*
Y983200D02*
D03*
X4861850Y990950D02*
D03*
X4836450Y990950D02*
D03*
X4887250Y990950D02*
D03*
X4912650D02*
D03*
X4938050D02*
D03*
X4887250Y965550D02*
D03*
X4861850D02*
D03*
X4938050D02*
D03*
X4912650D02*
D03*
X4861850Y2274200D02*
D03*
X4836450Y2274200D02*
D03*
X4887250Y2274200D02*
D03*
X4912650D02*
D03*
X4938050D02*
D03*
X4887250Y2248800D02*
D03*
X4861850D02*
D03*
X4938050D02*
D03*
X4912650D02*
D03*
X4724300Y2206000D02*
D03*
Y2231400D02*
D03*
X4749700Y2256800D02*
D03*
X4749700Y2206000D02*
D03*
Y2231400D02*
D03*
X4724300Y2180600D02*
D03*
Y2155200D02*
D03*
X4749700Y2180600D02*
D03*
Y2155200D02*
D03*
X4724300Y2000000D02*
D03*
Y2025400D02*
D03*
X4749700Y2050800D02*
D03*
X4749700Y2000000D02*
D03*
Y2025400D02*
D03*
X4724300Y1974600D02*
D03*
Y1949200D02*
D03*
X4749700Y1974600D02*
D03*
Y1949200D02*
D03*
X4724300Y1794000D02*
D03*
Y1819400D02*
D03*
X4749700Y1844800D02*
D03*
X4749700Y1794000D02*
D03*
Y1819400D02*
D03*
X4724300Y1768600D02*
D03*
Y1743200D02*
D03*
X4749700Y1768600D02*
D03*
Y1743200D02*
D03*
X4861850Y1750950D02*
D03*
X4836450Y1750950D02*
D03*
X4887250Y1750950D02*
D03*
X4912650D02*
D03*
X4938050D02*
D03*
X4887250Y1725550D02*
D03*
X4861850D02*
D03*
X4938050D02*
D03*
X4912650D02*
D03*
X4541850Y754200D02*
D03*
X4516450Y754200D02*
D03*
X4567250Y754200D02*
D03*
X4592650D02*
D03*
X4618050D02*
D03*
X4567250Y728800D02*
D03*
X4541850D02*
D03*
X4618050D02*
D03*
X4592650D02*
D03*
X4404300Y686000D02*
D03*
Y711400D02*
D03*
X4429700Y736800D02*
D03*
X4429700Y686000D02*
D03*
Y711400D02*
D03*
X4404300Y660600D02*
D03*
Y635200D02*
D03*
X4429700Y660600D02*
D03*
Y635200D02*
D03*
X4404300Y480000D02*
D03*
Y505400D02*
D03*
X4429700Y530800D02*
D03*
X4429700Y480000D02*
D03*
Y505400D02*
D03*
X4404300Y454600D02*
D03*
Y429200D02*
D03*
X4429700Y454600D02*
D03*
Y429200D02*
D03*
X4404300Y274000D02*
D03*
Y299400D02*
D03*
X4429700Y324800D02*
D03*
X4429700Y274000D02*
D03*
Y299400D02*
D03*
X4404300Y248600D02*
D03*
Y223200D02*
D03*
X4429700Y248600D02*
D03*
Y223200D02*
D03*
X4541850Y230950D02*
D03*
X4516450Y230950D02*
D03*
X4567250Y230950D02*
D03*
X4592650D02*
D03*
X4618050D02*
D03*
X4567250Y205550D02*
D03*
X4541850D02*
D03*
X4618050D02*
D03*
X4592650D02*
D03*
X4541850Y1514200D02*
D03*
X4516450Y1514200D02*
D03*
X4567250Y1514200D02*
D03*
X4592650D02*
D03*
X4618050D02*
D03*
X4567250Y1488800D02*
D03*
X4541850D02*
D03*
X4618050D02*
D03*
X4592650D02*
D03*
X4404300Y1446000D02*
D03*
Y1471400D02*
D03*
X4429700Y1496800D02*
D03*
X4429700Y1446000D02*
D03*
Y1471400D02*
D03*
X4404300Y1420600D02*
D03*
Y1395200D02*
D03*
X4429700Y1420600D02*
D03*
Y1395200D02*
D03*
X4404300Y1240000D02*
D03*
Y1265400D02*
D03*
X4429700Y1290800D02*
D03*
X4429700Y1240000D02*
D03*
Y1265400D02*
D03*
X4404300Y1214600D02*
D03*
Y1189200D02*
D03*
X4429700Y1214600D02*
D03*
Y1189200D02*
D03*
X4404300Y1034000D02*
D03*
Y1059400D02*
D03*
X4429700Y1084800D02*
D03*
X4429700Y1034000D02*
D03*
Y1059400D02*
D03*
X4404300Y1008600D02*
D03*
Y983200D02*
D03*
X4429700Y1008600D02*
D03*
Y983200D02*
D03*
X4541850Y990950D02*
D03*
X4516450Y990950D02*
D03*
X4567250Y990950D02*
D03*
X4592650D02*
D03*
X4618050D02*
D03*
X4567250Y965550D02*
D03*
X4541850D02*
D03*
X4618050D02*
D03*
X4592650D02*
D03*
X4541850Y2274200D02*
D03*
X4516450Y2274200D02*
D03*
X4567250Y2274200D02*
D03*
X4592650D02*
D03*
X4618050D02*
D03*
X4567250Y2248800D02*
D03*
X4541850D02*
D03*
X4618050D02*
D03*
X4592650D02*
D03*
X4404300Y2206000D02*
D03*
Y2231400D02*
D03*
X4429700Y2256800D02*
D03*
X4429700Y2206000D02*
D03*
Y2231400D02*
D03*
X4404300Y2180600D02*
D03*
Y2155200D02*
D03*
X4429700Y2180600D02*
D03*
Y2155200D02*
D03*
X4404300Y2000000D02*
D03*
Y2025400D02*
D03*
X4429700Y2050800D02*
D03*
X4429700Y2000000D02*
D03*
Y2025400D02*
D03*
X4404300Y1974600D02*
D03*
Y1949200D02*
D03*
X4429700Y1974600D02*
D03*
Y1949200D02*
D03*
X4404300Y1794000D02*
D03*
Y1819400D02*
D03*
X4429700Y1844800D02*
D03*
X4429700Y1794000D02*
D03*
Y1819400D02*
D03*
X4404300Y1768600D02*
D03*
Y1743200D02*
D03*
X4429700Y1768600D02*
D03*
Y1743200D02*
D03*
X4541850Y1750950D02*
D03*
X4516450Y1750950D02*
D03*
X4567250Y1750950D02*
D03*
X4592650D02*
D03*
X4618050D02*
D03*
X4567250Y1725550D02*
D03*
X4541850D02*
D03*
X4618050D02*
D03*
X4592650D02*
D03*
X4044300Y711400D02*
D03*
Y686000D02*
D03*
X4069700Y736800D02*
D03*
X4069700Y686000D02*
D03*
Y711400D02*
D03*
X4044300Y660600D02*
D03*
Y635200D02*
D03*
X4069700Y660600D02*
D03*
Y635200D02*
D03*
X4044300Y505400D02*
D03*
Y480000D02*
D03*
X4069700Y530800D02*
D03*
X4069700Y480000D02*
D03*
Y505400D02*
D03*
X4044300Y454600D02*
D03*
Y429200D02*
D03*
X4069700Y454600D02*
D03*
Y429200D02*
D03*
X4044300Y299400D02*
D03*
Y274000D02*
D03*
X4069700Y324800D02*
D03*
X4069700Y274000D02*
D03*
Y299400D02*
D03*
X4044300Y248600D02*
D03*
Y223200D02*
D03*
X4069700Y248600D02*
D03*
Y223200D02*
D03*
X4181850Y754000D02*
D03*
X4156450Y754000D02*
D03*
X4207250Y754000D02*
D03*
X4232650D02*
D03*
X4258050D02*
D03*
X4181850Y728600D02*
D03*
X4207250D02*
D03*
X4232650D02*
D03*
X4258050D02*
D03*
X4181850Y231200D02*
D03*
X4156450Y231200D02*
D03*
X4207250Y231200D02*
D03*
X4232650D02*
D03*
X4258050D02*
D03*
X4181850Y205800D02*
D03*
X4207250D02*
D03*
X4232650D02*
D03*
X4258050D02*
D03*
X4044300Y1471400D02*
D03*
Y1446000D02*
D03*
X4069700Y1496800D02*
D03*
X4069700Y1446000D02*
D03*
Y1471400D02*
D03*
X4044300Y1420600D02*
D03*
Y1395200D02*
D03*
X4069700Y1420600D02*
D03*
Y1395200D02*
D03*
X4044300Y1265400D02*
D03*
Y1240000D02*
D03*
X4069700Y1290800D02*
D03*
X4069700Y1240000D02*
D03*
Y1265400D02*
D03*
X4044300Y1214600D02*
D03*
Y1189200D02*
D03*
X4069700Y1214600D02*
D03*
Y1189200D02*
D03*
X4044300Y1059400D02*
D03*
Y1034000D02*
D03*
X4069700Y1084800D02*
D03*
X4069700Y1034000D02*
D03*
Y1059400D02*
D03*
X4044300Y1008600D02*
D03*
Y983200D02*
D03*
X4069700Y1008600D02*
D03*
Y983200D02*
D03*
X4181850Y1514000D02*
D03*
X4156450Y1514000D02*
D03*
X4207250Y1514000D02*
D03*
X4232650D02*
D03*
X4258050D02*
D03*
X4181850Y1488600D02*
D03*
X4207250D02*
D03*
X4232650D02*
D03*
X4258050D02*
D03*
X4181850Y991200D02*
D03*
X4156450Y991200D02*
D03*
X4207250Y991200D02*
D03*
X4232650D02*
D03*
X4258050D02*
D03*
X4181850Y965800D02*
D03*
X4207250D02*
D03*
X4232650D02*
D03*
X4258050D02*
D03*
X4044300Y2231400D02*
D03*
Y2206000D02*
D03*
X4069700Y2256800D02*
D03*
X4069700Y2206000D02*
D03*
Y2231400D02*
D03*
X4044300Y2180600D02*
D03*
Y2155200D02*
D03*
X4069700Y2180600D02*
D03*
Y2155200D02*
D03*
X4044300Y2025400D02*
D03*
Y2000000D02*
D03*
X4069700Y2050800D02*
D03*
X4069700Y2000000D02*
D03*
Y2025400D02*
D03*
X4044300Y1974600D02*
D03*
Y1949200D02*
D03*
X4069700Y1974600D02*
D03*
Y1949200D02*
D03*
X4044300Y1819400D02*
D03*
Y1794000D02*
D03*
X4069700Y1844800D02*
D03*
X4069700Y1794000D02*
D03*
Y1819400D02*
D03*
X4044300Y1768600D02*
D03*
Y1743200D02*
D03*
X4069700Y1768600D02*
D03*
Y1743200D02*
D03*
X4181850Y2274000D02*
D03*
X4156450Y2274000D02*
D03*
X4207250Y2274000D02*
D03*
X4232650D02*
D03*
X4258050D02*
D03*
X4181850Y2248600D02*
D03*
X4207250D02*
D03*
X4232650D02*
D03*
X4258050D02*
D03*
X4181850Y1751200D02*
D03*
X4156450Y1751200D02*
D03*
X4207250Y1751200D02*
D03*
X4232650D02*
D03*
X4258050D02*
D03*
X4181850Y1725800D02*
D03*
X4207250D02*
D03*
X4232650D02*
D03*
X4258050D02*
D03*
X3724300Y711400D02*
D03*
Y686000D02*
D03*
X3749700Y736800D02*
D03*
X3749700Y686000D02*
D03*
Y711400D02*
D03*
X3724300Y660600D02*
D03*
Y635200D02*
D03*
X3749700Y660600D02*
D03*
Y635200D02*
D03*
X3724300Y505400D02*
D03*
Y480000D02*
D03*
X3749700Y530800D02*
D03*
X3749700Y480000D02*
D03*
Y505400D02*
D03*
X3724300Y454600D02*
D03*
Y429200D02*
D03*
X3749700Y454600D02*
D03*
Y429200D02*
D03*
X3724300Y299400D02*
D03*
Y274000D02*
D03*
X3749700Y324800D02*
D03*
X3749700Y274000D02*
D03*
Y299400D02*
D03*
X3724300Y248600D02*
D03*
Y223200D02*
D03*
X3749700Y248600D02*
D03*
Y223200D02*
D03*
X3861850Y754000D02*
D03*
X3836450Y754000D02*
D03*
X3887250Y754000D02*
D03*
X3912650D02*
D03*
X3938050D02*
D03*
X3861850Y728600D02*
D03*
X3887250D02*
D03*
X3912650D02*
D03*
X3938050D02*
D03*
X3861850Y231200D02*
D03*
X3836450Y231200D02*
D03*
X3887250Y231200D02*
D03*
X3912650D02*
D03*
X3938050D02*
D03*
X3861850Y205800D02*
D03*
X3887250D02*
D03*
X3912650D02*
D03*
X3938050D02*
D03*
X3724300Y1471400D02*
D03*
Y1446000D02*
D03*
X3749700Y1496800D02*
D03*
X3749700Y1446000D02*
D03*
Y1471400D02*
D03*
X3724300Y1420600D02*
D03*
Y1395200D02*
D03*
X3749700Y1420600D02*
D03*
Y1395200D02*
D03*
X3724300Y1265400D02*
D03*
Y1240000D02*
D03*
X3749700Y1290800D02*
D03*
X3749700Y1240000D02*
D03*
Y1265400D02*
D03*
X3724300Y1214600D02*
D03*
Y1189200D02*
D03*
X3749700Y1214600D02*
D03*
Y1189200D02*
D03*
X3724300Y1059400D02*
D03*
Y1034000D02*
D03*
X3749700Y1084800D02*
D03*
X3749700Y1034000D02*
D03*
Y1059400D02*
D03*
X3724300Y1008600D02*
D03*
Y983200D02*
D03*
X3749700Y1008600D02*
D03*
Y983200D02*
D03*
X3861850Y1514000D02*
D03*
X3836450Y1514000D02*
D03*
X3887250Y1514000D02*
D03*
X3912650D02*
D03*
X3938050D02*
D03*
X3861850Y1488600D02*
D03*
X3887250D02*
D03*
X3912650D02*
D03*
X3938050D02*
D03*
X3861850Y991200D02*
D03*
X3836450Y991200D02*
D03*
X3887250Y991200D02*
D03*
X3912650D02*
D03*
X3938050D02*
D03*
X3861850Y965800D02*
D03*
X3887250D02*
D03*
X3912650D02*
D03*
X3938050D02*
D03*
X3724300Y2231400D02*
D03*
Y2206000D02*
D03*
X3749700Y2256800D02*
D03*
X3749700Y2206000D02*
D03*
Y2231400D02*
D03*
X3724300Y2180600D02*
D03*
Y2155200D02*
D03*
X3749700Y2180600D02*
D03*
Y2155200D02*
D03*
X3724300Y2025400D02*
D03*
Y2000000D02*
D03*
X3749700Y2050800D02*
D03*
X3749700Y2000000D02*
D03*
Y2025400D02*
D03*
X3724300Y1974600D02*
D03*
Y1949200D02*
D03*
X3749700Y1974600D02*
D03*
Y1949200D02*
D03*
X3724300Y1819400D02*
D03*
Y1794000D02*
D03*
X3749700Y1844800D02*
D03*
X3749700Y1794000D02*
D03*
Y1819400D02*
D03*
X3724300Y1768600D02*
D03*
Y1743200D02*
D03*
X3749700Y1768600D02*
D03*
Y1743200D02*
D03*
X3861850Y2274000D02*
D03*
X3836450Y2274000D02*
D03*
X3887250Y2274000D02*
D03*
X3912650D02*
D03*
X3938050D02*
D03*
X3861850Y2248600D02*
D03*
X3887250D02*
D03*
X3912650D02*
D03*
X3938050D02*
D03*
X3861850Y1751200D02*
D03*
X3836450Y1751200D02*
D03*
X3887250Y1751200D02*
D03*
X3912650D02*
D03*
X3938050D02*
D03*
X3861850Y1725800D02*
D03*
X3887250D02*
D03*
X3912650D02*
D03*
X3938050D02*
D03*
D62*
X4836450Y728800D02*
D03*
X4836450Y205550D02*
D03*
X4836450Y1488800D02*
D03*
X4836450Y965550D02*
D03*
X4836450Y2248800D02*
D03*
X4836450Y1725550D02*
D03*
X4516450Y728800D02*
D03*
X4516450Y205550D02*
D03*
X4516450Y1488800D02*
D03*
X4516450Y965550D02*
D03*
X4516450Y2248800D02*
D03*
X4516450Y1725550D02*
D03*
X4156450Y728600D02*
D03*
Y205800D02*
D03*
Y1488600D02*
D03*
Y965800D02*
D03*
Y2248600D02*
D03*
Y1725800D02*
D03*
X3836450Y728600D02*
D03*
Y205800D02*
D03*
Y1488600D02*
D03*
Y965800D02*
D03*
Y2248600D02*
D03*
Y1725800D02*
D03*
D63*
X4724300Y736800D02*
D03*
Y530800D02*
D03*
Y324800D02*
D03*
Y1496800D02*
D03*
Y1290800D02*
D03*
Y1084800D02*
D03*
Y2256800D02*
D03*
Y2050800D02*
D03*
Y1844800D02*
D03*
X4404300Y736800D02*
D03*
Y530800D02*
D03*
Y324800D02*
D03*
Y1496800D02*
D03*
Y1290800D02*
D03*
Y1084800D02*
D03*
Y2256800D02*
D03*
Y2050800D02*
D03*
Y1844800D02*
D03*
X4044300Y736800D02*
D03*
Y530800D02*
D03*
Y324800D02*
D03*
Y1496800D02*
D03*
Y1290800D02*
D03*
Y1084800D02*
D03*
Y2256800D02*
D03*
Y2050800D02*
D03*
Y1844800D02*
D03*
X3724300Y736800D02*
D03*
Y530800D02*
D03*
Y324800D02*
D03*
Y1496800D02*
D03*
Y1290800D02*
D03*
Y1084800D02*
D03*
Y2256800D02*
D03*
Y2050800D02*
D03*
Y1844800D02*
D03*
D64*
X4794420Y381780D02*
D03*
X4830000Y280000D02*
D03*
X4820000Y270000D02*
D03*
X4810000Y260000D02*
D03*
X4840000Y290000D02*
D03*
Y370000D02*
D03*
X4830000Y380000D02*
D03*
X4820000Y390000D02*
D03*
X4800000Y410000D02*
D03*
X4810000Y420000D02*
D03*
X4820000Y430000D02*
D03*
X4830000Y440000D02*
D03*
Y520000D02*
D03*
X4820000Y530000D02*
D03*
X4810000Y540000D02*
D03*
X4800000Y550000D02*
D03*
X4810000Y560000D02*
D03*
X4820000Y570000D02*
D03*
X4830000Y580000D02*
D03*
X4840000Y590000D02*
D03*
X4810000Y400000D02*
D03*
X4840000Y670000D02*
D03*
X4820000Y690000D02*
D03*
X4830000Y680000D02*
D03*
X4810000Y700000D02*
D03*
X4878000Y330000D02*
D03*
Y480000D02*
D03*
Y630000D02*
D03*
X4865000Y330000D02*
D03*
Y480000D02*
D03*
Y630000D02*
D03*
X4820000Y710000D02*
D03*
X4930000Y480000D02*
D03*
Y630000D02*
D03*
Y330000D02*
D03*
X4850000Y300000D02*
D03*
X4840000Y450000D02*
D03*
Y510000D02*
D03*
X4850000Y360000D02*
D03*
Y600000D02*
D03*
Y660000D02*
D03*
X4710000Y190000D02*
D03*
X4970000D02*
D03*
Y770000D02*
D03*
X4710000D02*
D03*
X4930000Y405000D02*
D03*
Y555000D02*
D03*
X4794420Y1141780D02*
D03*
X4830000Y1040000D02*
D03*
X4820000Y1030000D02*
D03*
X4810000Y1020000D02*
D03*
X4840000Y1050000D02*
D03*
Y1130000D02*
D03*
X4830000Y1140000D02*
D03*
X4820000Y1150000D02*
D03*
X4800000Y1170000D02*
D03*
X4810000Y1180000D02*
D03*
X4820000Y1190000D02*
D03*
X4830000Y1200000D02*
D03*
Y1280000D02*
D03*
X4820000Y1290000D02*
D03*
X4810000Y1300000D02*
D03*
X4800000Y1310000D02*
D03*
X4810000Y1320000D02*
D03*
X4820000Y1330000D02*
D03*
X4830000Y1340000D02*
D03*
X4840000Y1350000D02*
D03*
X4810000Y1160000D02*
D03*
X4840000Y1430000D02*
D03*
X4820000Y1450000D02*
D03*
X4830000Y1440000D02*
D03*
X4810000Y1460000D02*
D03*
X4878000Y1090000D02*
D03*
Y1240000D02*
D03*
Y1390000D02*
D03*
X4865000Y1090000D02*
D03*
Y1240000D02*
D03*
Y1390000D02*
D03*
X4820000Y1470000D02*
D03*
X4930000Y1240000D02*
D03*
Y1390000D02*
D03*
Y1090000D02*
D03*
X4850000Y1060000D02*
D03*
X4840000Y1210000D02*
D03*
Y1270000D02*
D03*
X4850000Y1120000D02*
D03*
Y1360000D02*
D03*
Y1420000D02*
D03*
X4710000Y950000D02*
D03*
X4970000D02*
D03*
Y1530000D02*
D03*
X4710000D02*
D03*
X4930000Y1165000D02*
D03*
Y1315000D02*
D03*
X4794420Y1901780D02*
D03*
X4830000Y1800000D02*
D03*
X4820000Y1790000D02*
D03*
X4810000Y1780000D02*
D03*
X4840000Y1810000D02*
D03*
Y1890000D02*
D03*
X4830000Y1900000D02*
D03*
X4820000Y1910000D02*
D03*
X4800000Y1930000D02*
D03*
X4810000Y1940000D02*
D03*
X4820000Y1950000D02*
D03*
X4830000Y1960000D02*
D03*
Y2040000D02*
D03*
X4820000Y2050000D02*
D03*
X4810000Y2060000D02*
D03*
X4800000Y2070000D02*
D03*
X4810000Y2080000D02*
D03*
X4820000Y2090000D02*
D03*
X4830000Y2100000D02*
D03*
X4840000Y2110000D02*
D03*
X4810000Y1920000D02*
D03*
X4840000Y2190000D02*
D03*
X4820000Y2210000D02*
D03*
X4830000Y2200000D02*
D03*
X4810000Y2220000D02*
D03*
X4878000Y1850000D02*
D03*
Y2000000D02*
D03*
Y2150000D02*
D03*
X4865000Y1850000D02*
D03*
Y2000000D02*
D03*
Y2150000D02*
D03*
X4820000Y2230000D02*
D03*
X4930000Y2000000D02*
D03*
Y2150000D02*
D03*
Y1850000D02*
D03*
X4850000Y1820000D02*
D03*
X4840000Y1970000D02*
D03*
Y2030000D02*
D03*
X4850000Y1880000D02*
D03*
Y2120000D02*
D03*
Y2180000D02*
D03*
X4710000Y1710000D02*
D03*
X4970000D02*
D03*
Y2290000D02*
D03*
X4710000D02*
D03*
X4930000Y1925000D02*
D03*
Y2075000D02*
D03*
X4474420Y381780D02*
D03*
X4510000Y280000D02*
D03*
X4500000Y270000D02*
D03*
X4490000Y260000D02*
D03*
X4520000Y290000D02*
D03*
Y370000D02*
D03*
X4510000Y380000D02*
D03*
X4500000Y390000D02*
D03*
X4480000Y410000D02*
D03*
X4490000Y420000D02*
D03*
X4500000Y430000D02*
D03*
X4510000Y440000D02*
D03*
Y520000D02*
D03*
X4500000Y530000D02*
D03*
X4490000Y540000D02*
D03*
X4480000Y550000D02*
D03*
X4490000Y560000D02*
D03*
X4500000Y570000D02*
D03*
X4510000Y580000D02*
D03*
X4520000Y590000D02*
D03*
X4490000Y400000D02*
D03*
X4520000Y670000D02*
D03*
X4500000Y690000D02*
D03*
X4510000Y680000D02*
D03*
X4490000Y700000D02*
D03*
X4558000Y330000D02*
D03*
Y480000D02*
D03*
Y630000D02*
D03*
X4545000Y330000D02*
D03*
Y480000D02*
D03*
Y630000D02*
D03*
X4500000Y710000D02*
D03*
X4610000Y480000D02*
D03*
Y630000D02*
D03*
Y330000D02*
D03*
X4530000Y300000D02*
D03*
X4520000Y450000D02*
D03*
Y510000D02*
D03*
X4530000Y360000D02*
D03*
Y600000D02*
D03*
Y660000D02*
D03*
X4390000Y190000D02*
D03*
X4650000D02*
D03*
Y770000D02*
D03*
X4390000D02*
D03*
X4610000Y405000D02*
D03*
Y555000D02*
D03*
X4474420Y1141780D02*
D03*
X4510000Y1040000D02*
D03*
X4500000Y1030000D02*
D03*
X4490000Y1020000D02*
D03*
X4520000Y1050000D02*
D03*
Y1130000D02*
D03*
X4510000Y1140000D02*
D03*
X4500000Y1150000D02*
D03*
X4480000Y1170000D02*
D03*
X4490000Y1180000D02*
D03*
X4500000Y1190000D02*
D03*
X4510000Y1200000D02*
D03*
Y1280000D02*
D03*
X4500000Y1290000D02*
D03*
X4490000Y1300000D02*
D03*
X4480000Y1310000D02*
D03*
X4490000Y1320000D02*
D03*
X4500000Y1330000D02*
D03*
X4510000Y1340000D02*
D03*
X4520000Y1350000D02*
D03*
X4490000Y1160000D02*
D03*
X4520000Y1430000D02*
D03*
X4500000Y1450000D02*
D03*
X4510000Y1440000D02*
D03*
X4490000Y1460000D02*
D03*
X4558000Y1090000D02*
D03*
Y1240000D02*
D03*
Y1390000D02*
D03*
X4545000Y1090000D02*
D03*
Y1240000D02*
D03*
Y1390000D02*
D03*
X4500000Y1470000D02*
D03*
X4610000Y1240000D02*
D03*
Y1390000D02*
D03*
Y1090000D02*
D03*
X4530000Y1060000D02*
D03*
X4520000Y1210000D02*
D03*
Y1270000D02*
D03*
X4530000Y1120000D02*
D03*
Y1360000D02*
D03*
Y1420000D02*
D03*
X4390000Y950000D02*
D03*
X4650000D02*
D03*
Y1530000D02*
D03*
X4390000D02*
D03*
X4610000Y1165000D02*
D03*
Y1315000D02*
D03*
X4474420Y1901780D02*
D03*
X4510000Y1800000D02*
D03*
X4500000Y1790000D02*
D03*
X4490000Y1780000D02*
D03*
X4520000Y1810000D02*
D03*
Y1890000D02*
D03*
X4510000Y1900000D02*
D03*
X4500000Y1910000D02*
D03*
X4480000Y1930000D02*
D03*
X4490000Y1940000D02*
D03*
X4500000Y1950000D02*
D03*
X4510000Y1960000D02*
D03*
Y2040000D02*
D03*
X4500000Y2050000D02*
D03*
X4490000Y2060000D02*
D03*
X4480000Y2070000D02*
D03*
X4490000Y2080000D02*
D03*
X4500000Y2090000D02*
D03*
X4510000Y2100000D02*
D03*
X4520000Y2110000D02*
D03*
X4490000Y1920000D02*
D03*
X4520000Y2190000D02*
D03*
X4500000Y2210000D02*
D03*
X4510000Y2200000D02*
D03*
X4490000Y2220000D02*
D03*
X4558000Y1850000D02*
D03*
Y2000000D02*
D03*
Y2150000D02*
D03*
X4545000Y1850000D02*
D03*
Y2000000D02*
D03*
Y2150000D02*
D03*
X4500000Y2230000D02*
D03*
X4610000Y2000000D02*
D03*
Y2150000D02*
D03*
Y1850000D02*
D03*
X4530000Y1820000D02*
D03*
X4520000Y1970000D02*
D03*
Y2030000D02*
D03*
X4530000Y1880000D02*
D03*
Y2120000D02*
D03*
Y2180000D02*
D03*
X4390000Y1710000D02*
D03*
X4650000D02*
D03*
Y2290000D02*
D03*
X4390000D02*
D03*
X4610000Y1925000D02*
D03*
Y2075000D02*
D03*
X485000Y1225000D02*
D03*
X1460000Y1085000D02*
D03*
X770000Y1205000D02*
D03*
X2255000Y1225000D02*
D03*
X3230000Y1085000D02*
D03*
X2540000Y1205000D02*
D03*
X485000Y2495000D02*
D03*
X1460000Y2355000D02*
D03*
X770000Y2475000D02*
D03*
X2255000Y2495000D02*
D03*
X3230000Y2355000D02*
D03*
X2540000Y2475000D02*
D03*
X4215000Y325000D02*
D03*
X4225000Y350000D02*
D03*
X4215000Y455000D02*
D03*
X4225000Y480000D02*
D03*
X4215000Y585000D02*
D03*
X4225000Y610000D02*
D03*
X4265000Y369000D02*
D03*
X4275000Y305000D02*
D03*
X4265000Y270000D02*
D03*
X4275000Y499000D02*
D03*
X4265000Y435000D02*
D03*
X4275000Y566000D02*
D03*
X4265000Y629000D02*
D03*
X4249000Y700000D02*
D03*
X4215000Y1085000D02*
D03*
X4225000Y1110000D02*
D03*
X4215000Y1215000D02*
D03*
X4225000Y1240000D02*
D03*
X4215000Y1345000D02*
D03*
X4225000Y1370000D02*
D03*
X4265000Y1129000D02*
D03*
X4275000Y1065000D02*
D03*
X4265000Y1030000D02*
D03*
X4275000Y1259000D02*
D03*
X4265000Y1195000D02*
D03*
X4275000Y1326000D02*
D03*
X4265000Y1389000D02*
D03*
X4249000Y1460000D02*
D03*
X4215000Y1845000D02*
D03*
X4225000Y1870000D02*
D03*
X4215000Y1975000D02*
D03*
X4225000Y2000000D02*
D03*
X4215000Y2105000D02*
D03*
X4225000Y2130000D02*
D03*
X4265000Y1889000D02*
D03*
X4275000Y1825000D02*
D03*
X4265000Y1790000D02*
D03*
X4275000Y2019000D02*
D03*
X4265000Y1955000D02*
D03*
X4275000Y2086000D02*
D03*
X4265000Y2149000D02*
D03*
X4249000Y2220000D02*
D03*
X3895000Y325000D02*
D03*
X3905000Y350000D02*
D03*
X3895000Y455000D02*
D03*
X3905000Y480000D02*
D03*
X3895000Y585000D02*
D03*
X3905000Y610000D02*
D03*
X3945000Y369000D02*
D03*
X3955000Y305000D02*
D03*
X3945000Y270000D02*
D03*
X3955000Y499000D02*
D03*
X3945000Y435000D02*
D03*
X3955000Y566000D02*
D03*
X3945000Y629000D02*
D03*
X3929000Y700000D02*
D03*
X3895000Y1085000D02*
D03*
X3905000Y1110000D02*
D03*
X3895000Y1215000D02*
D03*
X3905000Y1240000D02*
D03*
X3895000Y1345000D02*
D03*
X3905000Y1370000D02*
D03*
X3945000Y1129000D02*
D03*
X3955000Y1065000D02*
D03*
X3945000Y1030000D02*
D03*
X3955000Y1259000D02*
D03*
X3945000Y1195000D02*
D03*
X3955000Y1326000D02*
D03*
X3945000Y1389000D02*
D03*
X3929000Y1460000D02*
D03*
X3895000Y1845000D02*
D03*
X3905000Y1870000D02*
D03*
X3895000Y1975000D02*
D03*
X3905000Y2000000D02*
D03*
X3895000Y2105000D02*
D03*
X3905000Y2130000D02*
D03*
X3945000Y1889000D02*
D03*
X3955000Y1825000D02*
D03*
X3945000Y1790000D02*
D03*
X3955000Y2019000D02*
D03*
X3945000Y1955000D02*
D03*
X3955000Y2086000D02*
D03*
X3945000Y2149000D02*
D03*
X3929000Y2220000D02*
D03*
D65*
X1685000Y260000D02*
D03*
Y310800D02*
D03*
Y490000D02*
D03*
Y540800D02*
D03*
Y830000D02*
D03*
Y880800D02*
D03*
Y1060000D02*
D03*
Y1110800D02*
D03*
X1405000Y260000D02*
D03*
Y310800D02*
D03*
X1405000Y490000D02*
D03*
Y540800D02*
D03*
Y830000D02*
D03*
Y880800D02*
D03*
Y1060000D02*
D03*
Y1110800D02*
D03*
X1125000Y260000D02*
D03*
Y310800D02*
D03*
Y490000D02*
D03*
Y540800D02*
D03*
Y830000D02*
D03*
Y880800D02*
D03*
Y1060000D02*
D03*
Y1110800D02*
D03*
X845000Y260000D02*
D03*
Y310800D02*
D03*
X845000Y490000D02*
D03*
Y540800D02*
D03*
Y830000D02*
D03*
Y880800D02*
D03*
X845000Y1060000D02*
D03*
Y1110800D02*
D03*
X565000Y260000D02*
D03*
Y310800D02*
D03*
X565000Y490000D02*
D03*
Y540800D02*
D03*
Y830000D02*
D03*
Y880800D02*
D03*
X565000Y1060000D02*
D03*
Y1110800D02*
D03*
X285000Y260000D02*
D03*
Y310800D02*
D03*
Y490000D02*
D03*
Y540800D02*
D03*
Y830000D02*
D03*
Y880800D02*
D03*
X285000Y1060000D02*
D03*
Y1110800D02*
D03*
X3455000Y260000D02*
D03*
Y310800D02*
D03*
Y490000D02*
D03*
Y540800D02*
D03*
Y830000D02*
D03*
Y880800D02*
D03*
Y1060000D02*
D03*
Y1110800D02*
D03*
X3175000Y260000D02*
D03*
Y310800D02*
D03*
X3175000Y490000D02*
D03*
Y540800D02*
D03*
Y830000D02*
D03*
Y880800D02*
D03*
Y1060000D02*
D03*
Y1110800D02*
D03*
X2895000Y260000D02*
D03*
Y310800D02*
D03*
Y490000D02*
D03*
Y540800D02*
D03*
Y830000D02*
D03*
Y880800D02*
D03*
Y1060000D02*
D03*
Y1110800D02*
D03*
X2615000Y260000D02*
D03*
Y310800D02*
D03*
X2615000Y490000D02*
D03*
Y540800D02*
D03*
Y830000D02*
D03*
Y880800D02*
D03*
X2615000Y1060000D02*
D03*
Y1110800D02*
D03*
X2335000Y260000D02*
D03*
Y310800D02*
D03*
X2335000Y490000D02*
D03*
Y540800D02*
D03*
Y830000D02*
D03*
Y880800D02*
D03*
X2335000Y1060000D02*
D03*
Y1110800D02*
D03*
X2055000Y260000D02*
D03*
Y310800D02*
D03*
Y490000D02*
D03*
Y540800D02*
D03*
Y830000D02*
D03*
Y880800D02*
D03*
X2055000Y1060000D02*
D03*
Y1110800D02*
D03*
X1685000Y1530000D02*
D03*
Y1580800D02*
D03*
Y1760000D02*
D03*
Y1810800D02*
D03*
Y2100000D02*
D03*
Y2150800D02*
D03*
Y2330000D02*
D03*
Y2380800D02*
D03*
X1405000Y1530000D02*
D03*
Y1580800D02*
D03*
X1405000Y1760000D02*
D03*
Y1810800D02*
D03*
Y2100000D02*
D03*
Y2150800D02*
D03*
Y2330000D02*
D03*
Y2380800D02*
D03*
X1125000Y1530000D02*
D03*
Y1580800D02*
D03*
Y1760000D02*
D03*
Y1810800D02*
D03*
Y2100000D02*
D03*
Y2150800D02*
D03*
Y2330000D02*
D03*
Y2380800D02*
D03*
X845000Y1530000D02*
D03*
Y1580800D02*
D03*
X845000Y1760000D02*
D03*
Y1810800D02*
D03*
Y2100000D02*
D03*
Y2150800D02*
D03*
X845000Y2330000D02*
D03*
Y2380800D02*
D03*
X565000Y1530000D02*
D03*
Y1580800D02*
D03*
X565000Y1760000D02*
D03*
Y1810800D02*
D03*
Y2100000D02*
D03*
Y2150800D02*
D03*
X565000Y2330000D02*
D03*
Y2380800D02*
D03*
X285000Y1530000D02*
D03*
Y1580800D02*
D03*
Y1760000D02*
D03*
Y1810800D02*
D03*
Y2100000D02*
D03*
Y2150800D02*
D03*
X285000Y2330000D02*
D03*
Y2380800D02*
D03*
X3455000Y1530000D02*
D03*
Y1580800D02*
D03*
Y1760000D02*
D03*
Y1810800D02*
D03*
Y2100000D02*
D03*
Y2150800D02*
D03*
Y2330000D02*
D03*
Y2380800D02*
D03*
X3175000Y1530000D02*
D03*
Y1580800D02*
D03*
X3175000Y1760000D02*
D03*
Y1810800D02*
D03*
Y2100000D02*
D03*
Y2150800D02*
D03*
Y2330000D02*
D03*
Y2380800D02*
D03*
X2895000Y1530000D02*
D03*
Y1580800D02*
D03*
Y1760000D02*
D03*
Y1810800D02*
D03*
Y2100000D02*
D03*
Y2150800D02*
D03*
Y2330000D02*
D03*
Y2380800D02*
D03*
X2615000Y1530000D02*
D03*
Y1580800D02*
D03*
X2615000Y1760000D02*
D03*
Y1810800D02*
D03*
Y2100000D02*
D03*
Y2150800D02*
D03*
X2615000Y2330000D02*
D03*
Y2380800D02*
D03*
X2335000Y1530000D02*
D03*
Y1580800D02*
D03*
X2335000Y1760000D02*
D03*
Y1810800D02*
D03*
Y2100000D02*
D03*
Y2150800D02*
D03*
X2335000Y2330000D02*
D03*
Y2380800D02*
D03*
X2055000Y1530000D02*
D03*
Y1580800D02*
D03*
Y1760000D02*
D03*
Y1810800D02*
D03*
Y2100000D02*
D03*
Y2150800D02*
D03*
X2055000Y2330000D02*
D03*
Y2380800D02*
D03*
D66*
X1634200Y209200D02*
D03*
X1735800Y310800D02*
D03*
X1634200Y439200D02*
D03*
X1735800Y540800D02*
D03*
X1634200Y779200D02*
D03*
X1735800Y880800D02*
D03*
X1634200Y1009200D02*
D03*
X1735800Y1110800D02*
D03*
X1354200Y209200D02*
D03*
X1455800Y310800D02*
D03*
X1354200Y439200D02*
D03*
X1455800Y540800D02*
D03*
X1354200Y779200D02*
D03*
X1455800Y880800D02*
D03*
X1354200Y1009200D02*
D03*
X1455800Y1110800D02*
D03*
X1074200Y209200D02*
D03*
X1175800Y310800D02*
D03*
X1074200Y439200D02*
D03*
X1175800Y540800D02*
D03*
X1074200Y779200D02*
D03*
X1175800Y880800D02*
D03*
X1074200Y1009200D02*
D03*
X1175800Y1110800D02*
D03*
X794200Y209200D02*
D03*
X895800Y310800D02*
D03*
X794200Y439200D02*
D03*
X895800Y540800D02*
D03*
X794200Y779200D02*
D03*
X895800Y880800D02*
D03*
X794200Y1009200D02*
D03*
X895800Y1110800D02*
D03*
X514200Y209200D02*
D03*
X615800Y310800D02*
D03*
X514200Y439200D02*
D03*
X615800Y540800D02*
D03*
X514200Y779200D02*
D03*
X615800Y880800D02*
D03*
X514200Y1009200D02*
D03*
X615800Y1110800D02*
D03*
X234200Y209200D02*
D03*
X335800Y310800D02*
D03*
X234200Y439200D02*
D03*
X335800Y540800D02*
D03*
X234200Y779200D02*
D03*
X335800Y880800D02*
D03*
X234200Y1009200D02*
D03*
X335800Y1110800D02*
D03*
X3404200Y209200D02*
D03*
X3505800Y310800D02*
D03*
X3404200Y439200D02*
D03*
X3505800Y540800D02*
D03*
X3404200Y779200D02*
D03*
X3505800Y880800D02*
D03*
X3404200Y1009200D02*
D03*
X3505800Y1110800D02*
D03*
X3124200Y209200D02*
D03*
X3225800Y310800D02*
D03*
X3124200Y439200D02*
D03*
X3225800Y540800D02*
D03*
X3124200Y779200D02*
D03*
X3225800Y880800D02*
D03*
X3124200Y1009200D02*
D03*
X3225800Y1110800D02*
D03*
X2844200Y209200D02*
D03*
X2945800Y310800D02*
D03*
X2844200Y439200D02*
D03*
X2945800Y540800D02*
D03*
X2844200Y779200D02*
D03*
X2945800Y880800D02*
D03*
X2844200Y1009200D02*
D03*
X2945800Y1110800D02*
D03*
X2564200Y209200D02*
D03*
X2665800Y310800D02*
D03*
X2564200Y439200D02*
D03*
X2665800Y540800D02*
D03*
X2564200Y779200D02*
D03*
X2665800Y880800D02*
D03*
X2564200Y1009200D02*
D03*
X2665800Y1110800D02*
D03*
X2284200Y209200D02*
D03*
X2385800Y310800D02*
D03*
X2284200Y439200D02*
D03*
X2385800Y540800D02*
D03*
X2284200Y779200D02*
D03*
X2385800Y880800D02*
D03*
X2284200Y1009200D02*
D03*
X2385800Y1110800D02*
D03*
X2004200Y209200D02*
D03*
X2105800Y310800D02*
D03*
X2004200Y439200D02*
D03*
X2105800Y540800D02*
D03*
X2004200Y779200D02*
D03*
X2105800Y880800D02*
D03*
X2004200Y1009200D02*
D03*
X2105800Y1110800D02*
D03*
X1634200Y1479200D02*
D03*
X1735800Y1580800D02*
D03*
X1634200Y1709200D02*
D03*
X1735800Y1810800D02*
D03*
X1634200Y2049200D02*
D03*
X1735800Y2150800D02*
D03*
X1634200Y2279200D02*
D03*
X1735800Y2380800D02*
D03*
X1354200Y1479200D02*
D03*
X1455800Y1580800D02*
D03*
X1354200Y1709200D02*
D03*
X1455800Y1810800D02*
D03*
X1354200Y2049200D02*
D03*
X1455800Y2150800D02*
D03*
X1354200Y2279200D02*
D03*
X1455800Y2380800D02*
D03*
X1074200Y1479200D02*
D03*
X1175800Y1580800D02*
D03*
X1074200Y1709200D02*
D03*
X1175800Y1810800D02*
D03*
X1074200Y2049200D02*
D03*
X1175800Y2150800D02*
D03*
X1074200Y2279200D02*
D03*
X1175800Y2380800D02*
D03*
X794200Y1479200D02*
D03*
X895800Y1580800D02*
D03*
X794200Y1709200D02*
D03*
X895800Y1810800D02*
D03*
X794200Y2049200D02*
D03*
X895800Y2150800D02*
D03*
X794200Y2279200D02*
D03*
X895800Y2380800D02*
D03*
X514200Y1479200D02*
D03*
X615800Y1580800D02*
D03*
X514200Y1709200D02*
D03*
X615800Y1810800D02*
D03*
X514200Y2049200D02*
D03*
X615800Y2150800D02*
D03*
X514200Y2279200D02*
D03*
X615800Y2380800D02*
D03*
X234200Y1479200D02*
D03*
X335800Y1580800D02*
D03*
X234200Y1709200D02*
D03*
X335800Y1810800D02*
D03*
X234200Y2049200D02*
D03*
X335800Y2150800D02*
D03*
X234200Y2279200D02*
D03*
X335800Y2380800D02*
D03*
X3404200Y1479200D02*
D03*
X3505800Y1580800D02*
D03*
X3404200Y1709200D02*
D03*
X3505800Y1810800D02*
D03*
X3404200Y2049200D02*
D03*
X3505800Y2150800D02*
D03*
X3404200Y2279200D02*
D03*
X3505800Y2380800D02*
D03*
X3124200Y1479200D02*
D03*
X3225800Y1580800D02*
D03*
X3124200Y1709200D02*
D03*
X3225800Y1810800D02*
D03*
X3124200Y2049200D02*
D03*
X3225800Y2150800D02*
D03*
X3124200Y2279200D02*
D03*
X3225800Y2380800D02*
D03*
X2844200Y1479200D02*
D03*
X2945800Y1580800D02*
D03*
X2844200Y1709200D02*
D03*
X2945800Y1810800D02*
D03*
X2844200Y2049200D02*
D03*
X2945800Y2150800D02*
D03*
X2844200Y2279200D02*
D03*
X2945800Y2380800D02*
D03*
X2564200Y1479200D02*
D03*
X2665800Y1580800D02*
D03*
X2564200Y1709200D02*
D03*
X2665800Y1810800D02*
D03*
X2564200Y2049200D02*
D03*
X2665800Y2150800D02*
D03*
X2564200Y2279200D02*
D03*
X2665800Y2380800D02*
D03*
X2284200Y1479200D02*
D03*
X2385800Y1580800D02*
D03*
X2284200Y1709200D02*
D03*
X2385800Y1810800D02*
D03*
X2284200Y2049200D02*
D03*
X2385800Y2150800D02*
D03*
X2284200Y2279200D02*
D03*
X2385800Y2380800D02*
D03*
X2004200Y1479200D02*
D03*
X2105800Y1580800D02*
D03*
X2004200Y1709200D02*
D03*
X2105800Y1810800D02*
D03*
X2004200Y2049200D02*
D03*
X2105800Y2150800D02*
D03*
X2004200Y2279200D02*
D03*
X2105800Y2380800D02*
D03*
D67*
X1583400Y247300D02*
D03*
Y477300D02*
D03*
Y817300D02*
D03*
Y1047300D02*
D03*
X1303400Y247300D02*
D03*
X1303400Y477300D02*
D03*
Y817300D02*
D03*
Y1047300D02*
D03*
X1023400Y247300D02*
D03*
Y477300D02*
D03*
Y817300D02*
D03*
Y1047300D02*
D03*
X743400Y247300D02*
D03*
X743400Y477300D02*
D03*
Y817300D02*
D03*
X743400Y1047300D02*
D03*
X463400Y247300D02*
D03*
X463400Y477300D02*
D03*
Y817300D02*
D03*
X463400Y1047300D02*
D03*
X183400Y247300D02*
D03*
Y477300D02*
D03*
Y817300D02*
D03*
X183400Y1047300D02*
D03*
X3353400Y247300D02*
D03*
Y477300D02*
D03*
Y817300D02*
D03*
Y1047300D02*
D03*
X3073400Y247300D02*
D03*
X3073400Y477300D02*
D03*
Y817300D02*
D03*
Y1047300D02*
D03*
X2793400Y247300D02*
D03*
Y477300D02*
D03*
Y817300D02*
D03*
Y1047300D02*
D03*
X2513400Y247300D02*
D03*
X2513400Y477300D02*
D03*
Y817300D02*
D03*
X2513400Y1047300D02*
D03*
X2233400Y247300D02*
D03*
X2233400Y477300D02*
D03*
Y817300D02*
D03*
X2233400Y1047300D02*
D03*
X1953400Y247300D02*
D03*
Y477300D02*
D03*
Y817300D02*
D03*
X1953400Y1047300D02*
D03*
X1583400Y1517300D02*
D03*
Y1747300D02*
D03*
Y2087300D02*
D03*
Y2317300D02*
D03*
X1303400Y1517300D02*
D03*
X1303400Y1747300D02*
D03*
Y2087300D02*
D03*
Y2317300D02*
D03*
X1023400Y1517300D02*
D03*
Y1747300D02*
D03*
Y2087300D02*
D03*
Y2317300D02*
D03*
X743400Y1517300D02*
D03*
X743400Y1747300D02*
D03*
Y2087300D02*
D03*
X743400Y2317300D02*
D03*
X463400Y1517300D02*
D03*
X463400Y1747300D02*
D03*
Y2087300D02*
D03*
X463400Y2317300D02*
D03*
X183400Y1517300D02*
D03*
Y1747300D02*
D03*
Y2087300D02*
D03*
X183400Y2317300D02*
D03*
X3353400Y1517300D02*
D03*
Y1747300D02*
D03*
Y2087300D02*
D03*
Y2317300D02*
D03*
X3073400Y1517300D02*
D03*
X3073400Y1747300D02*
D03*
Y2087300D02*
D03*
Y2317300D02*
D03*
X2793400Y1517300D02*
D03*
Y1747300D02*
D03*
Y2087300D02*
D03*
Y2317300D02*
D03*
X2513400Y1517300D02*
D03*
X2513400Y1747300D02*
D03*
Y2087300D02*
D03*
X2513400Y2317300D02*
D03*
X2233400Y1517300D02*
D03*
X2233400Y1747300D02*
D03*
Y2087300D02*
D03*
X2233400Y2317300D02*
D03*
X1953400Y1517300D02*
D03*
Y1747300D02*
D03*
Y2087300D02*
D03*
X1953400Y2317300D02*
D03*
D68*
X4703850Y2814900D02*
D03*
M02*
